<svg width="64" height="65" viewBox="0 0 64 65" fill="none" xmlns="http://www.w3.org/2000/svg">
<path fill-rule="evenodd" clip-rule="evenodd" d="M32 64.6758C49.6731 64.6758 64 50.3489 64 32.6758C64 15.0027 49.6731 0.675781 32 0.675781C14.3269 0.675781 0 15.0027 0 32.6758C0 50.3489 14.3269 64.6758 32 64.6758ZM38.4232 16.678C41.4234 17.196 44.2928 18.1006 46.9686 19.3284C46.9918 19.3384 47.0116 19.3551 47.0232 19.3784C51.7642 26.3519 54.1058 34.2182 53.2304 43.2741C53.2271 43.3124 53.2073 43.3474 53.1758 43.3707C49.5849 46.0078 46.1065 47.6088 42.6761 48.6699C42.6214 48.6866 42.5619 48.6666 42.5288 48.62C41.7361 47.5171 41.0163 46.3543 40.3858 45.1332C40.3494 45.0616 40.3825 44.975 40.457 44.9467C41.6004 44.5152 42.6877 43.9988 43.7335 43.3874C43.8162 43.3391 43.8212 43.2208 43.7451 43.1641C43.5233 42.9992 43.3033 42.826 43.0931 42.6527C43.0534 42.6211 43.0004 42.6144 42.9557 42.636C36.166 45.773 28.7277 45.773 21.8569 42.636C21.8122 42.6161 21.7593 42.6227 21.7212 42.6544C21.5111 42.8276 21.2909 42.9992 21.0709 43.1641C20.9948 43.2208 21.0014 43.3391 21.0841 43.3874C22.1299 43.9871 23.2172 44.5152 24.359 44.9483C24.4334 44.9767 24.4682 45.0616 24.4318 45.1332C23.8146 46.3561 23.0947 47.5189 22.2872 48.6216C22.2524 48.6666 22.1945 48.6866 22.1399 48.6699C18.726 47.6088 15.2476 46.0078 11.6567 43.3707C11.6269 43.3474 11.6054 43.3108 11.6021 43.2725C10.8706 35.4394 12.3616 27.508 17.8043 19.3767C17.8175 19.3551 17.8374 19.3384 17.8605 19.3284C20.538 18.099 23.4075 17.1944 26.406 16.678C26.4606 16.6696 26.5152 16.6946 26.5433 16.7429C26.914 17.3993 27.3376 18.2406 27.6239 18.9286C30.7846 18.4455 33.9949 18.4455 37.2218 18.9286C37.5081 18.2555 37.9168 17.3993 38.2859 16.7429C38.314 16.6929 38.3686 16.668 38.4232 16.678ZM21.6848 34.2716C21.6848 36.6038 23.3892 38.5029 25.4578 38.5029C27.5594 38.5029 29.2307 36.6038 29.2307 34.2716C29.2639 31.956 27.5759 30.0402 25.4578 30.0402C23.3562 30.0402 21.6848 31.9393 21.6848 34.2716ZM35.6349 34.2716C35.6349 36.6038 37.3393 38.5029 39.4078 38.5029C41.526 38.5029 43.1808 36.6038 43.1808 34.2716C43.2139 31.956 41.526 30.0402 39.4078 30.0402C37.3062 30.0402 35.6349 31.9393 35.6349 34.2716Z" fill="white"/>
</svg>
