<svg width="64" height="65" viewBox="0 0 64 65" fill="none" xmlns="http://www.w3.org/2000/svg">
<g opacity="1">
<path fill-rule="evenodd" clip-rule="evenodd" d="M32 64.6758C49.6731 64.6758 64 50.3489 64 32.6758C64 15.0027 49.6731 0.675781 32 0.675781C14.3269 0.675781 0 15.0027 0 32.6758C0 50.3489 14.3269 64.6758 32 64.6758ZM36.2571 35.5203C36.8197 34.6783 37.12 33.6884 37.12 32.6758C37.1184 31.3183 36.5785 30.017 35.6187 29.0571C34.6588 28.0973 33.3574 27.5573 32 27.5558C30.9874 27.5558 29.9975 27.8561 29.1555 28.4187C28.3135 28.9812 27.6573 29.7809 27.2697 30.7164C26.8822 31.652 26.7808 32.6815 26.9784 33.6746C27.1759 34.6678 27.6636 35.5801 28.3796 36.2962C29.0957 37.0122 30.008 37.4998 31.0011 37.6974C31.9943 37.895 33.0238 37.7936 33.9593 37.406C34.8949 37.0185 35.6945 36.3623 36.2571 35.5203ZM48 39.7158V25.6358C47.9973 23.2603 47.0524 20.9828 45.3727 19.3031C43.693 17.6233 41.4155 16.6785 39.04 16.6758H24.96C22.5845 16.6785 20.307 17.6233 18.6273 19.3031C16.9476 20.9828 16.0027 23.2603 16 25.6358V39.7158C16.0027 42.0913 16.9476 44.3687 18.6273 46.0485C20.307 47.7282 22.5845 48.6731 24.96 48.6758H39.04C41.4155 48.6731 43.693 47.7282 45.3727 46.0485C47.0524 44.3687 47.9973 42.0913 48 39.7158ZM38.3857 28.409C39.2296 29.672 39.68 31.1568 39.68 32.6758C39.6777 34.7119 38.8678 36.664 37.428 38.1038C35.9883 39.5436 34.0362 40.3535 32 40.3558C30.481 40.3558 28.9962 39.9054 27.7332 39.0615C26.4703 38.2176 25.4859 37.0181 24.9046 35.6148C24.3233 34.2115 24.1712 32.6673 24.4676 31.1775C24.7639 29.6877 25.4954 28.3193 26.5694 27.2452C27.6435 26.1711 29.0119 25.4397 30.5017 25.1434C31.9915 24.847 33.5357 24.9991 34.939 25.5804C36.3423 26.1617 37.5418 27.146 38.3857 28.409ZM41.9164 23.2891C42.1274 23.6048 42.24 23.976 42.24 24.3558C42.24 24.865 42.0377 25.3534 41.6776 25.7134C41.3176 26.0735 40.8292 26.2758 40.32 26.2758C39.9403 26.2758 39.569 26.1632 39.2533 25.9522C38.9376 25.7412 38.6915 25.4414 38.5462 25.0905C38.4008 24.7397 38.3628 24.3537 38.4369 23.9812C38.511 23.6088 38.6938 23.2667 38.9624 22.9981C39.2309 22.7296 39.573 22.5468 39.9454 22.4727C40.3179 22.3986 40.7039 22.4366 41.0547 22.5819C41.4056 22.7273 41.7054 22.9733 41.9164 23.2891Z" fill="white"/>
</g>
</svg>
