<svg width="64" height="65" viewBox="0 0 64 65" fill="none" xmlns="http://www.w3.org/2000/svg">
<g opacity="1">
<path fill-rule="evenodd" clip-rule="evenodd" d="M32 64.6758C49.6731 64.6758 64 50.3489 64 32.6758C64 15.0027 49.6731 0.675781 32 0.675781C14.3269 0.675781 0 15.0027 0 32.6758C0 50.3489 14.3269 64.6758 32 64.6758ZM22.0359 46.3901C29.1561 46.3901 34.9285 40.7618 34.9285 33.8189C34.9285 26.8759 29.1565 21.2472 22.0359 21.2472C14.9152 21.2472 9.14286 26.8772 9.14286 33.8189C9.14286 40.7605 14.9157 46.3901 22.0359 46.3901ZM42.6256 45.6541C46.1859 45.6541 49.0721 40.3541 49.0721 33.8189H49.0716C49.0716 27.2819 46.1854 21.9836 42.6251 21.9836C39.0648 21.9836 36.179 27.2836 36.179 33.8189C36.179 40.3541 39.0652 45.6541 42.6256 45.6541ZM52.5899 44.4213C53.8422 44.4213 54.8571 39.6728 54.8571 33.8189C54.8571 27.9632 53.8418 23.2164 52.5899 23.2164C51.338 23.2164 50.3231 27.9636 50.3231 33.8189C50.3231 39.6741 51.3376 44.4213 52.5899 44.4213Z" fill="white"/>
</g>
</svg>
