<svg width="64" height="65" viewBox="0 0 64 65" fill="none" xmlns="http://www.w3.org/2000/svg">
<g opacity="1">
<path d="M59.6737 16.6014C62.5082 21.513 64 26.8711 64 32.6758C64 38.4804 62.5082 43.8386 59.6737 48.7502C56.8392 53.6618 52.9604 57.5316 48.0373 60.3595C43.1142 63.1874 37.7436 64.6758 31.9254 64.6758C28.7925 64.6758 25.8089 64.2293 22.8252 63.3363C24.4662 60.806 25.5105 58.4246 26.1072 56.4897C26.4056 55.5967 27.1515 52.62 28.345 47.7083C28.9417 48.7502 29.986 49.7921 31.3287 50.5362C32.8205 51.2804 34.3124 51.7269 36.1026 51.7269C39.5338 51.7269 42.5175 50.8339 45.0536 48.899C47.7389 46.9642 49.6783 44.4339 51.1702 41.0107C52.662 37.7362 53.4079 34.0153 53.4079 29.8479C53.4079 26.7223 52.5128 23.7455 50.8718 20.9176C49.2308 18.0897 46.8438 15.8572 43.711 14.22C40.5781 12.5828 37.1469 11.3921 33.2681 11.3921C30.2844 11.3921 27.5991 11.8386 25.0629 12.5828C22.5268 13.3269 20.4382 14.5176 18.648 15.7083C16.8578 17.0479 15.366 18.5362 14.1725 20.3223C12.979 22.1083 11.9347 23.8944 11.338 25.6804C10.7413 27.4665 10.4429 29.4014 10.4429 31.1874C10.4429 34.0153 11.0396 36.5455 12.0839 38.7781C13.1282 41.0107 14.7692 42.499 17.007 43.3921C17.9021 43.6897 18.3497 43.3921 18.648 42.499C18.648 42.3502 18.7972 41.9037 18.9464 41.1595C19.0956 40.5642 19.2448 40.1176 19.2448 39.9688C19.3939 39.3735 19.2448 38.7781 18.7972 38.1828C17.4545 36.5456 16.7086 34.4618 16.7086 31.9316C16.7086 27.7642 18.2005 24.1921 21.035 21.2153C23.8695 18.2386 27.7483 16.7502 32.373 16.7502C36.5501 16.7502 39.8322 17.9409 42.2191 20.1735C44.6061 22.406 45.7995 25.3828 45.7995 28.9549C45.7995 33.7176 44.9044 37.7362 42.965 41.0107C41.0256 44.2851 38.6387 45.9223 35.655 45.9223C34.014 45.9223 32.6713 45.3269 31.627 44.1362C30.5828 42.9455 30.2844 41.4572 30.7319 39.82C30.8811 38.7781 31.3287 37.5874 31.7762 35.9502C32.2238 34.313 32.6713 32.9735 32.9697 31.6339C33.2681 30.4432 33.4173 29.4014 33.4173 28.5083C33.4173 27.1688 32.9697 25.9781 32.2238 25.0851C31.4779 24.1921 30.4336 23.7455 29.0909 23.7455C27.3007 23.7455 25.958 24.4897 24.7646 26.1269C23.5711 27.7642 22.9744 29.699 22.9744 32.0804C22.9744 34.1642 23.2727 35.8014 24.0186 37.1409L19.6923 54.5549C19.2448 56.4897 19.0956 58.8711 19.0956 61.8479C13.4266 59.3176 8.80187 55.4479 5.22145 50.2386C1.64103 45.0293 0 39.0758 0 32.6758C0 26.8711 1.49184 21.513 4.32634 16.6014C7.16084 11.6897 11.0396 7.81997 15.9627 4.99206C20.8858 2.16415 26.2564 0.675781 32.0746 0.675781C37.8928 0.675781 43.2634 2.16415 48.1865 4.99206C53.1096 7.81997 56.8392 11.6897 59.6737 16.6014Z" fill="white"/>
</g>
</svg>
