<svg width="64" height="65" viewBox="0 0 64 65" fill="none" xmlns="http://www.w3.org/2000/svg">
<g opacity="1">
<path fill-rule="evenodd" clip-rule="evenodd" d="M64 32.6758C64 50.3489 49.6731 64.6758 32 64.6758C14.3269 64.6758 0 50.3489 0 32.6758C0 15.0027 14.3269 0.675781 32 0.675781C49.6731 0.675781 64 15.0027 64 32.6758ZM36.2625 43.4353C36.1977 45.9795 35.9326 48.4923 35.1232 50.9198C34.7433 52.0587 34.2354 53.1346 33.3358 53.9745C32.2931 54.948 31.427 54.9576 30.3782 53.9497C29.2632 52.8782 28.7323 51.4743 28.3463 50.029C27.6021 47.2424 27.4002 44.3823 27.4524 41.5143C27.4963 39.1177 29.51 37.2094 31.8479 37.195C34.1335 37.1811 36.0523 38.9441 36.253 41.2889C36.2948 41.7762 36.2837 42.2682 36.2726 42.7602V42.7602V42.7603V42.7604V42.7604V42.7604V42.7605C36.2676 42.9855 36.2625 43.2104 36.2625 43.4349V43.4353ZM32.0794 26.9531C29.5092 26.9265 27.4132 28.9663 27.425 31.4826C27.4363 33.9136 29.4474 35.9173 31.8705 35.9116C34.3285 35.906 36.3787 33.8453 36.3548 31.4047C36.3317 29.0725 34.3185 26.9762 32.0794 26.9531ZM50.19 30.7245C49.2682 21.2559 40.7262 13.9798 31.0108 14.408C21.4226 14.8306 13.6878 22.9418 13.7144 32.6428C13.7405 42.289 20.8786 48.6041 26.2633 49.9489C26.094 49.1272 25.9534 48.3017 25.839 47.4735C25.6261 47.1976 25.3163 46.9769 24.8911 46.7728C18.858 43.8753 15.2954 36.9548 16.349 30.3685C17.7974 21.3116 26.1845 15.4986 35.2484 17.2695C43.6355 18.908 49.3179 27.6328 47.4152 35.9612C46.2362 41.1222 43.2355 44.8314 38.478 47.1349C38.4198 47.1631 38.3568 47.1853 38.2934 47.2076C38.1562 47.256 38.0177 47.3048 37.9248 47.4156C37.8086 48.3125 37.6602 49.2047 37.4731 50.0903C43.6807 48.5027 51.2258 41.369 50.1896 30.7245H50.19ZM31.1341 20.8529C37.068 20.674 42.1559 24.4446 43.505 30.0704H43.5054C44.8515 35.6848 41.8913 40.9834 38.2739 42.9439C38.2818 42.7207 38.2887 42.4974 38.2944 42.2737C38.2944 41.9471 38.3015 41.6199 38.3087 41.2926C38.3194 40.8001 38.3302 40.3076 38.3166 39.817C38.3423 39.7962 38.3675 39.7753 38.3897 39.7531C41.1432 37.044 42.0754 33.7909 41.003 30.1004C39.949 26.4713 37.4231 24.2848 33.7474 23.4449C27.8335 22.0936 21.9127 27.1976 22.3231 33.253C22.4937 35.7741 23.4315 37.9248 25.2289 39.6939C25.3024 39.7661 25.3612 39.8362 25.4082 39.9067C25.396 40.919 25.4069 41.9304 25.446 42.9396C22.3244 41.4534 18.8537 36.4482 19.9125 30.7023C20.9152 25.261 25.7389 21.0152 31.1341 20.8529Z" fill="white"/>
</g>
</svg>
