<svg width="64" height="65" viewBox="0 0 64 65" fill="none" xmlns="http://www.w3.org/2000/svg">
<g opacity="1" clip-path="url(#clip0_4335_1813)">
<path d="M-0.000672281 32.6758C-0.000705496 15.0027 14.3263 0.675783 31.9994 0.675784C49.6725 0.675786 63.9994 15.0027 63.9994 32.6758C63.9994 50.3489 49.6725 64.6758 31.9994 64.6758C14.3263 64.6758 -0.000639066 50.3489 -0.000672281 32.6758ZM12.5419 23.5358C12.5094 28.5033 12.5269 33.4733 12.5019 38.4433C12.5214 38.5225 12.5222 38.6051 12.5042 38.6846C12.4862 38.7642 12.4499 38.8384 12.3983 38.9015C12.3466 38.9646 12.2809 39.0147 12.2065 39.048C12.1321 39.0813 12.0509 39.0968 11.9694 39.0933C11.3719 39.1283 10.7719 39.1083 10.1719 39.1133C10.5744 40.1133 11.0094 41.0783 11.4594 42.0458C12.5894 42.0083 13.8794 42.2433 14.8444 41.5033C15.7119 40.8583 15.9894 39.7108 15.9719 38.6783C15.9719 33.6308 15.9719 28.5808 15.9494 23.5333C14.8144 23.5283 13.6769 23.5258 12.5419 23.5358ZM26.5619 23.3108C25.7153 25.2558 24.8519 27.1925 23.9719 29.1208C23.7219 29.6983 23.4194 30.4633 23.9444 30.9858C24.6169 31.5958 25.6044 31.3608 26.4294 31.4158C25.8569 32.8608 25.1044 34.2333 24.6219 35.7133C24.3544 36.4433 25.0219 37.1858 25.7519 37.1933C27.0744 37.2833 28.4019 37.1933 29.7269 37.2283C30.1594 36.2608 30.5944 35.2958 31.0194 34.3233C30.2469 34.3233 29.4669 34.3783 28.7069 34.2258C29.5294 32.1608 30.5044 30.1633 31.3769 28.1233C30.3094 27.9983 29.1019 28.3458 28.1269 27.9308C28.6019 26.3308 29.4669 24.8633 30.0769 23.3058C28.9019 23.3008 27.7319 23.2933 26.5619 23.3108ZM44.7494 23.3233V24.6258C43.9844 24.6258 43.2194 24.6258 42.4544 24.6258C42.4544 25.7925 42.4544 26.9533 42.4544 28.1083C43.2219 28.1083 43.9869 28.1083 44.7519 28.1233C44.7719 29.1233 44.7719 30.13 44.7519 31.1433C43.6019 31.1658 42.4494 31.1433 41.2994 31.1608C41.2844 32.3208 41.2869 33.4783 41.2994 34.6358C42.4519 34.6483 43.6069 34.6358 44.7594 34.6358C44.7594 37.1008 44.7594 39.5683 44.7594 42.0333C45.9144 42.0333 47.0669 42.0333 48.2219 42.0333C48.2219 39.5683 48.2219 37.1041 48.2219 34.6408C49.9069 34.6408 51.5894 34.6158 53.2744 34.6408C53.8669 34.5908 54.5444 35.0058 54.5244 35.6583C54.5707 36.581 54.5707 37.5055 54.5244 38.4283C54.5333 38.5778 54.4825 38.7247 54.3831 38.8367C54.2837 38.9488 54.1439 39.0168 53.9944 39.0258C53.0319 39.0958 52.0669 39.0258 51.1019 39.0583C51.5269 40.0583 51.9394 41.0583 52.4219 42.0458C54.0094 41.9633 55.9494 42.3633 57.1594 41.0458C58.3094 39.9808 57.9644 38.2958 58.0119 36.9058C57.9394 35.4433 58.2969 33.7908 57.3894 32.5108C56.6169 31.4258 55.2244 31.1308 53.9694 31.1083C53.8944 29.3583 54.3119 27.3108 53.0244 25.8883C51.8244 24.5433 49.8919 24.5383 48.2319 24.6033V23.3033C47.0569 23.3158 45.9019 23.3183 44.7494 23.3233ZM32.3944 24.6283C32.3944 25.795 32.3944 26.955 32.3944 28.1083C33.1194 28.1083 33.8419 28.1083 34.5669 28.1083C34.5669 31.5858 34.5669 35.0658 34.5669 38.5433C33.5294 38.5608 32.4894 38.5433 31.4519 38.5558C30.9144 39.7108 30.3894 40.8708 29.8669 42.0308C33.7369 42.0458 37.6169 42.0308 41.4769 42.0308C41.4769 40.8741 41.4769 39.7158 41.4769 38.5558C40.3644 38.5558 39.2494 38.5558 38.1369 38.5433C38.1369 35.0633 38.1369 31.5825 38.1369 28.1008C38.8644 28.1008 39.5894 28.1008 40.3169 28.1008C40.3169 26.9408 40.3169 25.7783 40.3169 24.6183C37.6819 24.6233 35.0394 24.6183 32.3944 24.6283ZM55.2319 24.9483C54.2619 25.6833 54.5794 27.0283 54.5369 28.0758C55.1844 28.0758 55.8344 28.1108 56.4819 28.0533C57.5219 27.9583 58.3044 26.7458 57.8869 25.7658C57.5594 24.6908 56.1069 24.2233 55.2319 24.9483ZM6.74943 28.1058C6.57443 30.3858 6.39693 32.6633 6.23193 34.9433C6.19362 35.4613 6.08253 35.9713 5.90192 36.4583C6.48692 37.7958 7.07193 39.1333 7.69693 40.4583C9.09693 38.5858 9.61693 36.2258 9.76193 33.9333C9.88443 31.9833 10.1019 30.0358 10.1719 28.0833C9.02443 28.1233 7.88443 28.0958 6.74943 28.1058ZM18.2819 28.1058C18.4486 30.2208 18.6153 32.335 18.7819 34.4483C18.9644 36.5683 19.5119 38.7283 20.8069 40.4483C21.4244 39.1258 22.0144 37.7908 22.5994 36.4483C22.4098 35.9604 22.2919 35.4475 22.2494 34.9258C22.0844 32.6533 21.9044 30.3808 21.7294 28.1083C20.5761 28.1016 19.4244 28.1008 18.2744 28.1058H18.2819ZM22.5719 41.7783C24.3419 42.3008 26.2169 41.9433 28.0344 42.0408C28.5694 40.8833 29.1019 39.7233 29.6219 38.5583C27.8044 38.4883 25.9544 38.7483 24.1719 38.2908C23.6269 39.4491 23.0911 40.6116 22.5644 41.7783H22.5719Z" fill="white"/>
<path d="M48.1924 28.1188C48.9424 28.2263 49.9424 27.8138 50.5149 28.4188C50.6099 29.3313 50.5399 30.2488 50.5499 31.1688C49.7724 31.1688 48.9924 31.1688 48.2149 31.1688C48.1999 30.1521 48.1924 29.1355 48.1924 28.1188Z" fill="white"/>
</g>
<defs>
<clipPath id="clip0_4335_1813">
<rect width="64" height="64" fill="white" transform="translate(0 0.675781)"/>
</clipPath>
</defs>
</svg>
