<svg width="64" height="64" viewBox="0 0 64 64" fill="none" xmlns="http://www.w3.org/2000/svg">
<g opacity="1">
<path fill-rule="evenodd" clip-rule="evenodd" d="M32 64C49.6731 64 64 49.6731 64 32C64 14.3269 49.6731 0 32 0C14.3269 0 0 14.3269 0 32C0 49.6731 14.3269 64 32 64ZM42.2759 18.692L42.6125 18.5526C42.6125 18.5526 45.9784 17.2437 45.6977 20.423C45.6301 21.3702 45.2198 24.0315 44.7147 27.308C44.5218 28.5589 44.3151 29.8994 44.1084 31.2685L41.771 45.9473C41.1801 50.1998 37.295 48.1871 35.32 46.7888C35.2387 46.7278 34.8612 46.4812 34.2952 46.1114C32.2582 44.7804 27.7792 41.8537 25.877 40.244C25.2222 39.6829 24.4745 38.561 25.9704 37.2522C29.3363 34.1666 33.3566 30.3337 35.7873 27.9026C36.9096 26.7804 38.0314 24.1626 33.3566 27.3415L20.1737 36.2236C20.1737 36.2236 18.6778 37.1584 15.873 36.317C13.0678 35.4755 9.79564 34.3537 9.79564 34.3537C9.79564 34.3537 7.55157 32.9511 11.3849 31.4551C16.9765 29.1705 36.896 20.9203 42.2759 18.692Z" fill="white"/>
</g>
</svg>
