<svg width="64" height="65" viewBox="0 0 64 65" fill="none" xmlns="http://www.w3.org/2000/svg">
<g opacity="1">
<path fill-rule="evenodd" clip-rule="evenodd" d="M32 64.6758C49.6731 64.6758 64 50.3489 64 32.6758C64 15.0027 49.6731 0.675781 32 0.675781C14.3269 0.675781 0 15.0027 0 32.6758C0 50.3489 14.3269 64.6758 32 64.6758ZM51.7108 23.4592C51.2354 21.6878 49.846 20.2959 48.0741 19.8218C44.8649 18.9615 32 18.9615 32 18.9615C32 18.9615 19.1323 18.9615 15.9259 19.8218C14.154 20.2959 12.7617 21.6878 12.2892 23.4592C11.4286 26.6665 11.4286 33.3621 11.4286 33.3621C11.4286 33.3621 11.4286 40.0578 12.2892 43.2651C12.7617 45.0363 14.154 46.4282 15.9259 46.9023C19.1323 47.7626 32 47.7626 32 47.7626C32 47.7626 44.8649 47.7626 48.0741 46.9023C49.846 46.4282 51.2354 45.0363 51.7108 43.2651C52.5714 40.0578 52.5714 33.3621 52.5714 33.3621C52.5714 33.3621 52.5686 26.6665 51.7108 23.4592ZM27.8823 39.5333L38.5703 33.3626L27.8823 27.1919V39.5333Z" fill="white"/>
</g>
</svg>
