<?xml version="1.0" encoding="utf-8"?>
<!-- Generator: Adobe Illustrator 27.2.0, SVG Export Plug-In . SVG Version: 6.00 Build 0)  -->
<svg version="1.1" xmlns="http://www.w3.org/2000/svg" xmlns:xlink="http://www.w3.org/1999/xlink" x="0px" y="0px"
	 viewBox="0 0 50 50" style="enable-background:new 0 0 50 50;" xml:space="preserve">
<style type="text/css">
	.st0{fill:#0D1014;}
	.st1{fill:none;stroke:#000000;stroke-width:3;stroke-linecap:round;stroke-miterlimit:10;}
	.st2{display:none;}
	.st3{display:inline;fill:none;stroke:#0D1014;stroke-miterlimit:10;}
</style>
<g id="Layer_1">
	<path class="st0" d="M45.67,15.69c-5.73-6.24-12.74-8.04-13.03-8.11c-0.6-0.15-1.22,0.17-1.45,0.74l-0.14,0.35
		c-1.24,3.11-2.06,5.17-6.21,5.17c-3.84,0-5.05-2.29-6.35-5.53c-0.24-0.61-0.92-0.92-1.54-0.72c-0.33,0.11-8.19,2.75-12.66,8.13
		c-0.37,0.45-0.38,1.1-0.02,1.56c1.99,2.53,4.02,5.52,4.04,5.55c0.29,0.43,0.81,0.63,1.32,0.51l4.42-1.07l0.48,3.77L8.48,38.52
		c-0.16,0.33-0.17,0.71-0.02,1.05c0.15,0.33,0.44,0.59,0.79,0.69l0.3,0.08c5,1.41,10.15,2.12,15.29,2.12
		c5.24,0,10.49-0.73,15.59-2.2c0.35-0.1,0.63-0.35,0.78-0.68c0.15-0.33,0.15-0.71,0-1.03l-5.74-12.47l0.49-3.8l4.28,0.98
		c0.49,0.11,0.99-0.08,1.28-0.48c0.02-0.03,1.95-2.7,4.2-5.45C46.11,16.84,46.09,16.15,45.67,15.69z M38.35,38.25
		c-8.85,2.3-18.13,2.3-26.98,0.01l5.25-10.83c2.01,0.65,5.12,0.98,8.34,0.98c3.04,0,6.15-0.29,8.47-0.87L38.35,38.25z M40,20.65
		l-4.82-1.11c-0.34-0.08-0.7-0.01-0.99,0.19c-0.29,0.2-0.48,0.51-0.52,0.86l-0.57,4.45c-4.38,1.2-12.87,1.17-16.12-0.11
		c-0.03-0.01-0.07-0.02-0.1-0.03l-0.55-4.32c-0.04-0.35-0.24-0.66-0.53-0.86c-0.29-0.2-0.65-0.27-1-0.18l-4.94,1.2
		c-0.63-0.9-1.78-2.54-3.01-4.16c3.12-3.3,7.73-5.39,9.8-6.22c1.16,2.7,3.11,5.96,8.19,5.96c5.4,0,7.02-3.06,8.23-6.02
		c1.92,0.67,6.22,2.47,10.04,6.29C41.77,18.27,40.62,19.81,40,20.65z"/>
</g>
<g id="Layer_2" class="st2">
	<circle class="st3" cx="25" cy="25" r="24"/>
</g>
</svg>
