<?xml version="1.0" encoding="utf-8"?>
<!-- Generator: Adobe Illustrator 27.2.0, SVG Export Plug-In . SVG Version: 6.00 Build 0)  -->
<svg version="1.1" xmlns="http://www.w3.org/2000/svg" xmlns:xlink="http://www.w3.org/1999/xlink" x="0px" y="0px"
	 viewBox="0 0 50 50" style="enable-background:new 0 0 50 50;" xml:space="preserve">
<style type="text/css">
	.st0{fill:#0D1014;}
	.st1{fill:none;stroke:#000000;stroke-width:3;stroke-linecap:round;stroke-miterlimit:10;}
	.st2{display:none;}
	.st3{display:inline;fill:none;stroke:#0D1014;stroke-miterlimit:10;}
</style>
<g id="Layer_1">
	<path class="st0" d="M31.42,14.07l5.63-4.99c0.49-0.43,0.54-1.18,0.1-1.68c-0.44-0.49-1.19-0.54-1.68-0.1l-5.3,4.69H19.82l-5.3-4.7
		c-0.49-0.43-1.24-0.39-1.68,0.1c-0.43,0.49-0.39,1.24,0.1,1.68l5.63,4.99c0.01,0.01,0.02,0.01,0.03,0.02l2.08,5.4l-3,20.63
		c-0.06,0.39,0.09,0.79,0.38,1.05l6.13,5.52C24.43,46.9,24.72,47,25,47c0.28,0,0.57-0.1,0.79-0.3l6.13-5.52
		c0.29-0.27,0.44-0.66,0.38-1.05l-2.99-20.61l2.08-5.43C31.4,14.08,31.41,14.08,31.42,14.07z M28.74,14.37l-1.46,3.81h-4.56
		l-1.47-3.81H28.74z M25,44.22l-4.87-4.38l2.79-19.18h4.16l2.79,19.18L25,44.22z"/>
</g>
<g id="Layer_2" class="st2">
	<circle class="st3" cx="25" cy="25" r="24"/>
</g>
</svg>
