<?xml version="1.0" encoding="utf-8"?>
<!-- Generator: Adobe Illustrator 27.2.0, SVG Export Plug-In . SVG Version: 6.00 Build 0)  -->
<svg version="1.1" xmlns="http://www.w3.org/2000/svg" xmlns:xlink="http://www.w3.org/1999/xlink" x="0px" y="0px"
	 viewBox="0 0 50 50" style="enable-background:new 0 0 50 50;" xml:space="preserve">
<style type="text/css">
	.st0{fill:#0D1014;}
	.st1{fill:none;stroke:#000000;stroke-width:3;stroke-linecap:round;stroke-miterlimit:10;}
	.st2{display:none;}
	.st3{display:inline;fill:none;stroke:#0D1014;stroke-miterlimit:10;}
</style>
<g id="Layer_1">
	<path class="st0" d="M42.09,33.88h-1.9c0-0.02,0-0.04,0-0.07l-1.96-18.14c-0.11-0.95-0.23-1.91-0.35-2.88
		c-0.3-2.43-1.5-3.38-2.44-3.74c-2.46-0.95-5.75,1.03-7.3,2.36c-1.95,1.66-3.53,1.62-5.66-0.14c-2.25-1.87-4.78-2.56-6.77-1.86
		c-1.53,0.54-2.58,1.85-2.95,3.67c-0.74,3.66-2.84,20.02-2.93,20.71c0,0.03,0,0.06,0,0.09h-1.9c-1.33,0-2.41,1.16-2.41,2.58
		c0,2.61,1.93,4.73,4.31,4.73h30.38c2.38,0,4.31-2.12,4.31-4.73C44.5,35.04,43.42,33.88,42.09,33.88z M15,13.54
		c0.21-1.03,0.7-1.69,1.46-1.96c1.2-0.42,2.94,0.14,4.54,1.46c2.99,2.48,5.81,2.52,8.61,0.12c1.51-1.29,3.85-2.41,4.99-1.97
		c0.53,0.2,0.86,0.84,0.99,1.89c0.12,0.96,0.24,1.91,0.35,2.85l1.5,13.91h-24.8C13.34,24.57,14.51,15.98,15,13.54z M12.35,32.14
		h25.35l0.19,1.75H12.12C12.16,33.59,12.24,32.97,12.35,32.14z M40.19,38.9H9.81c-1.11,0-2.02-1.09-2.02-2.44
		c0-0.18,0.1-0.28,0.12-0.29l34.17,0c0.03,0.01,0.12,0.1,0.12,0.29C42.21,37.81,41.3,38.9,40.19,38.9z"/>
</g>
<g id="Layer_2" class="st2">
	<circle class="st3" cx="25" cy="25" r="24"/>
</g>
</svg>
