<?xml version="1.0" encoding="utf-8"?>
<!-- Generator: Adobe Illustrator 27.2.0, SVG Export Plug-In . SVG Version: 6.00 Build 0)  -->
<svg version="1.1" xmlns="http://www.w3.org/2000/svg" xmlns:xlink="http://www.w3.org/1999/xlink" x="0px" y="0px"
	 viewBox="0 0 50 50" style="enable-background:new 0 0 50 50;" xml:space="preserve">
<style type="text/css">
	.st0{fill:#0D1014;}
	.st1{fill:none;stroke:#000000;stroke-width:3;stroke-linecap:round;stroke-miterlimit:10;}
	.st2{display:none;}
	.st3{display:inline;fill:none;stroke:#0D1014;stroke-miterlimit:10;}
</style>
<g id="Layer_1">
	<g>
		<g>
			<path class="st0" d="M37,42.5H13c-3.03,0-5.5-2.47-5.5-5.5V13c0-3.03,2.47-5.5,5.5-5.5H37c3.03,0,5.5,2.47,5.5,5.5V37
				C42.5,40.03,40.03,42.5,37,42.5z M13,9.78c-1.78,0-3.22,1.44-3.22,3.22V37c0,1.78,1.44,3.22,3.22,3.22H37
				c1.78,0,3.22-1.45,3.22-3.22V13c0-1.78-1.44-3.22-3.22-3.22H13z"/>
		</g>
		<g>
			<path class="st0" d="M17.66,22.47c-2.65,0-4.81-2.16-4.81-4.81s2.16-4.81,4.81-4.81s4.81,2.16,4.81,4.81S20.31,22.47,17.66,22.47
				z M17.66,15.13c-1.39,0-2.53,1.13-2.53,2.53s1.13,2.53,2.53,2.53c1.39,0,2.53-1.13,2.53-2.53S19.05,15.13,17.66,15.13z"/>
		</g>
		<g>
			<path class="st0" d="M36.01,37.15h-6.42c-0.3,0-0.59-0.12-0.81-0.33l-7.8-7.8c-0.21-0.21-0.33-0.5-0.33-0.81
				c0-0.3,0.12-0.59,0.33-0.81l8.72-8.72c0.45-0.45,1.17-0.45,1.61,0l5.51,5.51c0.21,0.21,0.33,0.5,0.33,0.81v11.01
				C37.15,36.64,36.64,37.15,36.01,37.15z M30.06,34.87h4.81v-9.4l-4.37-4.36l-7.1,7.1L30.06,34.87z"/>
		</g>
		<g>
			<path class="st0" d="M29.59,37.15h-15.6c-0.63,0-1.14-0.51-1.14-1.14l0-6.42c0-0.3,0.12-0.59,0.33-0.81l4.59-4.59
				c0.43-0.43,1.19-0.43,1.61,0L30.39,35.2c0.33,0.33,0.42,0.82,0.25,1.24C30.47,36.87,30.05,37.15,29.59,37.15z M15.13,34.87h11.7
				l-8.26-8.26l-3.45,3.45L15.13,34.87z"/>
		</g>
	</g>
</g>
<g id="Layer_2" class="st2">
	<circle class="st3" cx="25" cy="25" r="24"/>
</g>
</svg>
