<?xml version="1.0" encoding="utf-8"?>
<!-- Generator: Adobe Illustrator 27.2.0, SVG Export Plug-In . SVG Version: 6.00 Build 0)  -->
<svg version="1.1" xmlns="http://www.w3.org/2000/svg" xmlns:xlink="http://www.w3.org/1999/xlink" x="0px" y="0px"
	 viewBox="0 0 50 50" style="enable-background:new 0 0 50 50;" xml:space="preserve">
<style type="text/css">
	.st0{fill:#0D1014;}
	.st1{fill:none;stroke:#000000;stroke-width:3;stroke-linecap:round;stroke-miterlimit:10;}
	.st2{display:none;}
	.st3{display:inline;fill:none;stroke:#0D1014;stroke-miterlimit:10;}
</style>
<g id="Layer_1">
	<g>
		<path class="st0" d="M31.33,24.53c-0.05,0.02-5.47,2.07-12.74-0.03c-0.62-0.18-1.26,0.18-1.43,0.79
			c-0.18,0.61,0.18,1.26,0.79,1.43c2.72,0.79,5.19,1.05,7.29,1.05c4.12,0,6.78-1.02,6.95-1.08c0.59-0.23,0.88-0.9,0.65-1.5
			C32.6,24.59,31.93,24.3,31.33,24.53z"/>
		<path class="st0" d="M44.35,12.62c-1.19-0.42-2.46-0.05-3.38,0.99c-0.52,0.59-1.13,1.27-1.83,2.06l-0.64,0.54
			c-2.6,2.18-4.52,1.57-5.91,0.79c-1.19-0.66-4.27-2.2-7.31-2.2v0c-0.2-0.02-0.41-0.02-0.6,0.01l0-0.01
			c-2.95,0.17-4.92,1.1-6.67,1.93l-0.51,0.24c-1.3,0.61-3.27,1.52-5.98-0.76l-0.7-0.59c-0.68-0.77-1.28-1.44-1.79-2.01
			c-0.92-1.04-2.18-1.41-3.38-0.99c-1.51,0.53-2.55,2.17-2.64,4.17c-0.14,2.83,1.2,5.97,3.67,8.61c2,2.14,4.03,3.1,4.98,3.47
			c1.34,2.85,5.14,8.68,13.8,8.68c5.97,0,10.53-3.08,12.93-8.7c0.97-0.38,2.96-1.34,4.93-3.45c2.47-2.64,3.81-5.77,3.67-8.61
			C46.89,14.79,45.86,13.15,44.35,12.62z M8.37,23.81c-2.01-2.15-3.15-4.73-3.05-6.91c0.06-1.2,0.61-1.93,1.1-2.1
			c0.11-0.04,0.44-0.15,0.87,0.34c0.64,0.72,1.41,1.59,2.33,2.62c0.04,2.95,0.36,5.6,0.95,7.92C9.9,25.24,9.13,24.63,8.37,23.81z
			 M25.46,35.23c-7.76,0-10.86-5.32-11.83-7.56c-0.03-0.12-0.08-0.24-0.14-0.34c-0.13-0.34-0.2-0.57-0.22-0.62l-0.02-0.05
			c-0.44-1.32-0.77-2.79-0.99-4.39c-0.08-0.54-0.02-1.12,0.24-1.6c0.11-0.2,0.24-0.37,0.39-0.52c0.24-0.24,0.59-0.3,0.91-0.24
			c2.07,0.38,3.71-0.38,4.67-0.83l0.52-0.24c1.7-0.81,3.31-1.57,5.81-1.71l0.12-0.01c0.02,0,0.04,0,0.06,0l0.3,0.01
			c2.56,0,5.38,1.46,6.18,1.91c1.26,0.7,2.51,1.04,3.75,1c0.24-0.01,0.48-0.06,0.72-0.12c1.46-0.33,2.08,0.38,1.79,2.48
			c-0.25,1.74-0.62,3.34-1.13,4.73c-0.03,0.07-0.06,0.13-0.08,0.2c-0.07,0.12-0.12,0.24-0.15,0.38
			C33.82,33.89,29.07,35.23,25.46,35.23z M41.63,23.81c-0.76,0.81-1.51,1.41-2.18,1.86c0.59-2.32,0.9-4.98,0.94-7.92
			c0.91-1.02,1.68-1.89,2.31-2.61c0.44-0.49,0.77-0.38,0.87-0.34c0.49,0.17,1.04,0.9,1.1,2.1C44.78,19.08,43.64,21.67,41.63,23.81z"
			/>
	</g>
</g>
<g id="Layer_2" class="st2">
	<circle class="st3" cx="25" cy="25" r="24"/>
</g>
</svg>
