<?xml version="1.0" encoding="utf-8"?>
<!-- Generator: Adobe Illustrator 27.2.0, SVG Export Plug-In . SVG Version: 6.00 Build 0)  -->
<svg version="1.1" xmlns="http://www.w3.org/2000/svg" xmlns:xlink="http://www.w3.org/1999/xlink" x="0px" y="0px"
	 viewBox="0 0 50 50" style="enable-background:new 0 0 50 50;" xml:space="preserve">
<style type="text/css">
	.st0{fill:#0D1014;}
	.st1{fill:none;stroke:#000000;stroke-width:3;stroke-linecap:round;stroke-miterlimit:10;}
	.st2{display:none;}
	.st3{display:inline;fill:none;stroke:#0D1014;stroke-miterlimit:10;}
</style>
<g id="Layer_1">
	<g>
		<path class="st0" d="M22.03,28.83h-0.29l-1.82-3.26c0.37-0.16,0.62-0.52,0.62-0.95c0-0.57-0.46-1.03-1.02-1.03h-1.49
			c0.28-0.36,0.45-0.8,0.45-1.28c0-0.78-0.43-1.45-1.05-1.81v-1.2c1.65-0.48,3.17-2.08,3.17-4.21c0-2.57-1.67-4.36-4.06-4.36
			c-1.57,0-3.48,0.73-4.14,2.76c-0.18,0.56-0.27,0.56-0.53,0.55c-0.57-0.02-1.03,0.45-1.04,1.02c-0.01,0.57,0.44,1.04,1.01,1.05
			c1.26,0.02,2.08-0.63,2.51-1.98c0.39-1.2,1.66-1.33,2.19-1.33c1.26,0,2.02,0.86,2.02,2.29c0,1.4-1.27,2.29-2.14,2.29
			c-0.57,0-1.02,0.46-1.02,1.03v2.07c-0.63,0.36-1.06,1.04-1.06,1.82c0,0.49,0.17,0.93,0.45,1.28h-1.23c-0.57,0-1.02,0.46-1.02,1.03
			c0,0.44,0.27,0.81,0.66,0.96l-1.72,3.25h-0.42c-0.57,0-1.02,0.46-1.02,1.03c0,0.55,0.42,0.99,0.96,1.03
			c-0.28,0.71-0.43,1.48-0.43,2.25c0,3.39,2.73,6.14,6.08,6.14s6.08-2.75,6.08-6.14c0-0.78-0.15-1.55-0.44-2.27
			c0.46-0.1,0.81-0.51,0.81-1.01C23.06,29.29,22.6,28.83,22.03,28.83z M17.64,25.69l1.75,3.14h-5.63l1.66-3.14H17.64z M16.61,37.22
			c-2.22,0-4.03-1.83-4.03-4.07c0-0.65,0.16-1.28,0.45-1.85h7.17c0.29,0.57,0.45,1.2,0.45,1.85C20.64,35.39,18.83,37.22,16.61,37.22
			z"/>
		<path class="st0" d="M40,29.86c0-0.57-0.46-1.03-1.02-1.03h-0.29l-1.82-3.26c0.37-0.16,0.62-0.52,0.62-0.95
			c0-0.57-0.46-1.03-1.02-1.03h-1.49c0.28-0.36,0.45-0.8,0.45-1.28c0-0.78-0.43-1.45-1.05-1.81v-1.2c1.65-0.48,3.17-2.08,3.17-4.21
			c0-2.57-1.67-4.36-4.06-4.36c-1.57,0-3.48,0.73-4.14,2.76c-0.18,0.56-0.27,0.56-0.53,0.55c-0.57-0.02-1.03,0.45-1.04,1.02
			c-0.01,0.57,0.44,1.04,1.01,1.05c1.26,0.02,2.08-0.63,2.51-1.98c0.39-1.2,1.66-1.33,2.19-1.33c1.26,0,2.02,0.86,2.02,2.29
			c0,1.4-1.27,2.29-2.14,2.29c-0.57,0-1.02,0.46-1.02,1.03v2.07c-0.63,0.36-1.06,1.04-1.06,1.82c0,0.49,0.17,0.93,0.45,1.28h-1.23
			c-0.57,0-1.02,0.46-1.02,1.03c0,0.44,0.27,0.81,0.66,0.96l-1.72,3.25h-0.42c-0.57,0-1.02,0.46-1.02,1.03
			c0,0.55,0.42,0.99,0.96,1.03c-0.28,0.71-0.43,1.48-0.43,2.25c0,3.39,2.73,6.14,6.08,6.14s6.08-2.75,6.08-6.14
			c0-0.78-0.15-1.55-0.44-2.27C39.65,30.77,40,30.36,40,29.86z M34.59,25.69l1.75,3.14h-5.63l1.66-3.14H34.59z M33.55,37.22
			c-2.22,0-4.03-1.83-4.03-4.07c0-0.65,0.16-1.28,0.45-1.85h7.17c0.29,0.57,0.45,1.2,0.45,1.85C37.58,35.39,35.77,37.22,33.55,37.22
			z"/>
	</g>
</g>
<g id="Layer_2" class="st2">
	<circle class="st3" cx="25" cy="25" r="24"/>
</g>
</svg>
