<?xml version="1.0" encoding="utf-8"?>
<!-- Generator: Adobe Illustrator 27.2.0, SVG Export Plug-In . SVG Version: 6.00 Build 0)  -->
<svg version="1.1" xmlns="http://www.w3.org/2000/svg" xmlns:xlink="http://www.w3.org/1999/xlink" x="0px" y="0px"
	 viewBox="0 0 50 50" style="enable-background:new 0 0 50 50;" xml:space="preserve">
<style type="text/css">
	.st0{fill:#0D1014;}
	.st1{fill:none;stroke:#000000;stroke-width:3;stroke-linecap:round;stroke-miterlimit:10;}
	.st2{display:none;}
	.st3{display:inline;fill:none;stroke:#0D1014;stroke-miterlimit:10;}
</style>
<g id="Layer_1">
	<path class="st0" d="M32.43,7.85C32.23,7.79,32,7.78,31.77,7.83c-3.45,0.85-9.71,0.88-13.13,0.08c-0.16-0.04-0.31-0.04-0.46-0.02
		c-0.09-0.02-0.18-0.05-0.28-0.05C10.98,7.9,4,12.21,4,21.68v5.08c0,0.71,0.58,1.29,1.29,1.29h6.01v12.87
		c0,0.71,0.58,1.29,1.29,1.29h24.83c0.71,0,1.29-0.58,1.29-1.29V28.05h6.01c0.71,0,1.29-0.58,1.29-1.29v-5.08
		C46,12.36,39.24,8.05,32.43,7.85z M30.64,10.67c-0.4,1.66-1.72,3.04-5.64,3.15c-3.92-0.1-5.24-1.49-5.64-3.15
		c1.64,0.26,3.61,0.4,5.59,0.4C26.94,11.06,28.93,10.93,30.64,10.67z M43.43,25.47H38.7v-2.74c0-0.71-0.58-1.29-1.29-1.29
		c-0.71,0-1.29,0.58-1.29,1.29v16.9H13.87v-16.9c0-0.71-0.58-1.29-1.29-1.29c-0.71,0-1.29,0.58-1.29,1.29v2.74H6.57v-3.79
		c0-7.61,5.22-10.74,10.15-11.21c0.39,2.74,2.14,5.5,7.46,5.88c0.11,0.03,0.22,0.04,0.34,0.04h0.96c0.12,0,0.23-0.02,0.34-0.04
		c5.32-0.38,7.07-3.14,7.46-5.88c4.93,0.47,10.15,3.6,10.15,11.21V25.47z"/>
</g>
<g id="Layer_2" class="st2">
	<circle class="st3" cx="25" cy="25" r="24"/>
</g>
</svg>
