<?xml version="1.0" encoding="utf-8"?>
<!-- Generator: Adobe Illustrator 27.2.0, SVG Export Plug-In . SVG Version: 6.00 Build 0)  -->
<svg version="1.1" xmlns="http://www.w3.org/2000/svg" xmlns:xlink="http://www.w3.org/1999/xlink" x="0px" y="0px"
	 viewBox="0 0 50 50" style="enable-background:new 0 0 50 50;" xml:space="preserve">
<style type="text/css">
	.st0{fill:#0D1014;}
	.st1{fill:none;stroke:#000000;stroke-width:3;stroke-linecap:round;stroke-miterlimit:10;}
	.st2{display:none;}
	.st3{display:inline;fill:none;stroke:#0D1014;stroke-miterlimit:10;}
</style>
<g id="Layer_1">
	<g>
		<path class="st0" d="M20.77,45c-1.5,0-2.97-0.7-3.98-1.9c-1.28-1.51-1.7-3.56-1.2-5.78c0.46-2.05,1.78-3.04,2.83-3.84
			c1.04-0.78,1.64-1.29,1.81-2.37V18.88c-0.17-1.08-0.78-1.58-1.81-2.37c-1.06-0.8-2.37-1.79-2.83-3.84
			c-0.5-2.22-0.08-4.28,1.2-5.78c1.08-1.27,2.67-1.98,4.26-1.89c1.61,0.09,3.09,0.93,4.09,1.94c0.93-0.81,2.38-1.86,3.81-1.94
			c1.59-0.09,3.18,0.62,4.26,1.89c1.28,1.51,1.7,3.56,1.2,5.78c-0.46,2.05-1.78,3.04-2.83,3.84c-1.04,0.78-1.64,1.29-1.81,2.37
			v12.23c0.17,1.08,0.78,1.58,1.81,2.37c1.06,0.8,2.37,1.79,2.83,3.84c0.5,2.22,0.08,4.28-1.2,5.78c-1.08,1.27-2.67,1.98-4.26,1.89
			c-1.48-0.08-2.99-1.25-3.91-2.12c-1,0.91-2.56,2.03-3.99,2.12C20.96,45,20.87,45,20.77,45z M20.77,7.35
			c-0.81,0-1.62,0.39-2.19,1.06c-0.79,0.93-1.04,2.26-0.7,3.74c0.27,1.21,1.02,1.77,1.96,2.48c1.09,0.82,2.44,1.84,2.73,4
			c0.01,0.05,0.01,0.11,0.01,0.16V31.2c0,0.05,0,0.11-0.01,0.16c-0.3,2.15-1.65,3.17-2.73,4c-0.94,0.71-1.68,1.27-1.96,2.48
			c-0.34,1.48-0.09,2.81,0.7,3.74c0.6,0.71,1.48,1.11,2.33,1.06c0.97-0.05,2.68-1.56,3.24-2.19c0.19-0.23,0.46-0.38,0.76-0.42
			c0.39-0.05,0.78,0.1,1.03,0.4c0.76,0.88,2.24,2.15,3.13,2.2c0.86,0.05,1.73-0.35,2.33-1.06c0.79-0.93,1.04-2.26,0.7-3.74
			c-0.27-1.21-1.02-1.77-1.96-2.48c-1.09-0.82-2.44-1.84-2.73-4c-0.01-0.05-0.01-0.11-0.01-0.16V18.8c0-0.05,0-0.11,0.01-0.16
			c0.3-2.15,1.65-3.17,2.73-4c0.94-0.71,1.68-1.27,1.96-2.48c0.34-1.48,0.09-2.81-0.7-3.74c-0.6-0.71-1.47-1.11-2.33-1.06
			c-0.41,0.02-1.35,0.32-3.11,2.02c-0.23,0.22-0.57,0.55-1.15,0.47c-0.36-0.05-0.68-0.27-0.85-0.59c-0.48-0.86-1.79-1.83-3.06-1.9
			C20.87,7.35,20.82,7.35,20.77,7.35z"/>
	</g>
</g>
<g id="Layer_2" class="st2">
	<circle class="st3" cx="25" cy="25" r="24"/>
</g>
</svg>
