<?xml version="1.0" encoding="utf-8"?>
<!-- Generator: Adobe Illustrator 27.2.0, SVG Export Plug-In . SVG Version: 6.00 Build 0)  -->
<svg version="1.1" xmlns="http://www.w3.org/2000/svg" xmlns:xlink="http://www.w3.org/1999/xlink" x="0px" y="0px"
	 viewBox="0 0 50 50" style="enable-background:new 0 0 50 50;" xml:space="preserve">
<style type="text/css">
	.st0{fill:#0D1014;}
	.st1{fill:none;stroke:#000000;stroke-width:3;stroke-linecap:round;stroke-miterlimit:10;}
	.st2{display:none;}
	.st3{display:inline;fill:none;stroke:#0D1014;stroke-miterlimit:10;}
</style>
<g id="Layer_1">
	<path class="st0" d="M43.91,31.44L40.4,11.89c-0.39-2.02-2.3-3.34-4.33-3l-1.93,0.32c-0.64,0.11-1.07,0.71-0.97,1.35
		c0.11,0.64,0.71,1.07,1.35,0.97l1.93-0.32c0.77-0.13,1.48,0.37,1.63,1.13l2.48,13.81c-1.5-1.31-3.46-2.11-5.6-2.11
		c-4.32,0-7.89,3.22-8.47,7.38h-2.88c-0.58-4.16-4.15-7.38-8.47-7.38c-2.15,0-4.12,0.8-5.62,2.12l2.48-13.83
		c0.15-0.76,0.87-1.26,1.63-1.13l1.93,0.32c0.64,0.11,1.25-0.33,1.35-0.97c0.11-0.64-0.33-1.25-0.97-1.35l-1.93-0.32
		c-2.04-0.34-3.94,0.98-4.33,3L6.2,31.43H6.18C5.53,31.43,5,31.96,5,32.61s0.53,1.18,1.18,1.18h0.51c0.58,4.16,4.15,7.38,8.47,7.38
		c4.32,0,7.89-3.22,8.47-7.38h2.88c0.58,4.16,4.15,7.38,8.47,7.38s7.89-3.22,8.47-7.38h0.39c0.65,0,1.18-0.53,1.18-1.18
		C45,31.99,44.52,31.48,43.91,31.44z M15.15,38.81c-3.42,0-6.21-2.78-6.21-6.21s2.78-6.21,6.21-6.21c3.42,0,6.21,2.78,6.21,6.21
		S18.57,38.81,15.15,38.81z M34.97,38.81c-3.42,0-6.21-2.78-6.21-6.21s2.78-6.21,6.21-6.21c3.42,0,6.21,2.78,6.21,6.21
		S38.39,38.81,34.97,38.81z"/>
</g>
<g id="Layer_2" class="st2">
	<circle class="st3" cx="25" cy="25" r="24"/>
</g>
</svg>
