<?xml version="1.0" encoding="utf-8"?>
<!-- Generator: Adobe Illustrator 27.2.0, SVG Export Plug-In . SVG Version: 6.00 Build 0)  -->
<svg version="1.1" xmlns="http://www.w3.org/2000/svg" xmlns:xlink="http://www.w3.org/1999/xlink" x="0px" y="0px"
	 viewBox="0 0 50 50" style="enable-background:new 0 0 50 50;" xml:space="preserve">
<style type="text/css">
	.st0{fill:#0D1014;}
	.st1{fill:none;stroke:#000000;stroke-width:3;stroke-linecap:round;stroke-miterlimit:10;}
	.st2{display:none;}
	.st3{display:inline;fill:none;stroke:#0D1014;stroke-miterlimit:10;}
</style>
<g id="Layer_1">
	<g>
		<g>
			<path class="st0" d="M39.42,42.5c-1.82,0-3.45-1-4.82-1.85c-1.06-0.65-2.06-1.27-2.83-1.27c-1.12,0-1.94,0.29-2.89,0.63
				c-1.06,0.38-2.27,0.81-3.98,0.81c-1.72,0-2.87-0.44-3.89-0.82c-0.89-0.34-1.66-0.63-2.77-0.63c-0.77,0-1.77,0.62-2.83,1.27
				c-1.77,1.09-3.98,2.45-6.47,1.56c-0.36-0.13-0.63-0.43-0.72-0.8c-0.73-3.06-1.08-9.34-0.73-13.17
				c0.68-7.46,2.81-16.65,6.03-20.36c0.28-0.33,0.73-0.46,1.15-0.35C15.11,7.65,15.42,8,15.5,8.42c0.01,0.05,0.83,4.58,1.51,7.45
				c5.19-1.7,10.81-1.7,16,0.01c0.68-2.88,1.5-7.41,1.51-7.46C34.6,8,34.91,7.65,35.33,7.54c0.42-0.11,0.86,0.02,1.15,0.35
				c4.97,5.71,7.6,22.3,5.31,33.49c-0.08,0.39-0.35,0.7-0.72,0.83C40.5,42.41,39.95,42.5,39.42,42.5z M31.77,37.14
				c1.41,0,2.73,0.81,4.01,1.6c1.36,0.84,2.66,1.64,3.94,1.49C41.4,31,39.7,17.93,36.23,11.51c-0.39,1.99-0.92,4.6-1.34,6.14
				c-0.08,0.3-0.29,0.56-0.56,0.7c-0.28,0.14-0.6,0.17-0.9,0.06l-0.56-0.2c-5.26-1.88-11.03-1.81-16.25,0.19
				c-0.3,0.11-0.63,0.1-0.91-0.05c-0.28-0.14-0.49-0.4-0.58-0.71c-0.41-1.51-0.94-4.07-1.32-6.05c-1.87,3.73-3.45,10.11-4.06,16.84
				c-0.3,3.31-0.04,8.76,0.54,11.78c1.29,0.15,2.59-0.65,3.95-1.49c1.28-0.79,2.6-1.6,4.01-1.6c1.52,0,2.61,0.41,3.57,0.77
				c0.92,0.35,1.79,0.68,3.1,0.68c1.32,0,2.24-0.33,3.22-0.68C29.18,37.53,30.26,37.14,31.77,37.14z"/>
		</g>
		<g>
			<g>
				<path class="st0" d="M16.32,33.75c-0.19,0-0.38-0.02-0.54-0.05c-1.62-0.34-3.71-2.57-3.07-6.3c0.29-1.68,1.35-2.26,1.95-2.46
					c2.82-0.91,6.76,2.39,8.86,4.44c0.25,0.25,0.38,0.6,0.33,0.95c-0.05,0.35-0.26,0.66-0.57,0.83
					C22.13,31.81,18.46,33.75,16.32,33.75z M15.67,27.04c-0.13,0-0.23,0.02-0.32,0.04c-0.1,0.03-0.33,0.11-0.43,0.7
					c-0.41,2.37,0.75,3.6,1.31,3.72c0.64,0.13,2.65-0.63,4.57-1.58C18.21,27.65,16.48,27.04,15.67,27.04z"/>
			</g>
			<g>
				<path class="st0" d="M33.45,33.78c-2.48,0-6.06-2.17-6.81-2.65c-0.29-0.18-0.48-0.49-0.52-0.83c-0.04-0.34,0.09-0.68,0.33-0.92
					c2.1-2.05,6.05-5.35,8.86-4.44c0.61,0.2,1.66,0.78,1.95,2.46c0.63,3.66-1.13,5.83-3.03,6.29C34,33.76,33.73,33.78,33.45,33.78z
					 M29.12,29.97c1.67,0.9,3.72,1.75,4.59,1.54c0.92-0.23,1.73-1.49,1.35-3.72c-0.1-0.6-0.33-0.67-0.43-0.7
					C34.02,26.89,32.15,27.3,29.12,29.97z"/>
			</g>
		</g>
	</g>
</g>
<g id="Layer_2" class="st2">
	<circle class="st3" cx="25" cy="25" r="24"/>
</g>
</svg>
