<?xml version="1.0" encoding="utf-8"?>
<!-- Generator: Adobe Illustrator 27.2.0, SVG Export Plug-In . SVG Version: 6.00 Build 0)  -->
<svg version="1.1" xmlns="http://www.w3.org/2000/svg" xmlns:xlink="http://www.w3.org/1999/xlink" x="0px" y="0px"
	 viewBox="0 0 50 50" style="enable-background:new 0 0 50 50;" xml:space="preserve">
<style type="text/css">
	.st0{fill:#0D1014;}
	.st1{fill:none;stroke:#000000;stroke-width:3;stroke-linecap:round;stroke-miterlimit:10;}
	.st2{display:none;}
	.st3{display:inline;fill:none;stroke:#0D1014;stroke-miterlimit:10;}
</style>
<g id="Layer_1">
	<g>
		<path class="st0" d="M26.15,20.1l-3.89-2.11l2.32-4.75c0.3-0.61,0.05-1.34-0.56-1.63c-0.61-0.3-1.34-0.05-1.63,0.56l-2.27,4.65
			l-4.14-2.25c-0.59-0.32-1.33-0.1-1.66,0.49c-0.32,0.59-0.1,1.33,0.49,1.66l4.23,2.3L17,23.17l-4.05-2.2
			c-0.59-0.32-1.33-0.1-1.66,0.49c-0.32,0.59-0.1,1.33,0.49,1.66l4.14,2.25l-2.4,4.9l-4.23-2.3c-0.59-0.32-1.33-0.1-1.66,0.49
			c-0.32,0.59-0.1,1.33,0.49,1.66l4.32,2.35l-1.71,3.49c-0.3,0.61-0.05,1.34,0.56,1.63c0.17,0.08,0.36,0.12,0.54,0.12
			c0.45,0,0.89-0.25,1.1-0.68l1.66-3.39l3.71,2.02c0.19,0.1,0.39,0.15,0.58,0.15c0.43,0,0.85-0.23,1.07-0.64
			c0.32-0.59,0.1-1.33-0.49-1.66l-3.8-2.07l2.4-4.9l3.89,2.11c0.19,0.1,0.39,0.15,0.58,0.15c0.43,0,0.85-0.23,1.07-0.64
			c0.32-0.59,0.1-1.33-0.49-1.66l-3.98-2.17l2.03-4.16l3.8,2.06c0.19,0.1,0.39,0.15,0.58,0.15c0.43,0,0.85-0.23,1.07-0.64
			C26.96,21.16,26.74,20.42,26.15,20.1z"/>
		<path class="st0" d="M42.36,29.63c-0.31-0.6-1.05-0.83-1.65-0.51l-3.59,1.89l-2.08-4.15l3.35-1.8c0.59-0.32,0.82-1.06,0.5-1.65
			c-0.32-0.59-1.06-0.82-1.65-0.5l-3.29,1.77l-1.32-2.64c-0.3-0.6-1.04-0.85-1.64-0.55c-0.6,0.3-0.85,1.04-0.54,1.64l1.35,2.7
			l-3.36,1.8c-0.59,0.32-0.82,1.06-0.5,1.65c0.22,0.41,0.64,0.64,1.08,0.64c0.19,0,0.39-0.05,0.58-0.15l3.29-1.77l2.07,4.13
			l-3.75,1.97c-0.6,0.31-0.83,1.05-0.51,1.65c0.22,0.42,0.64,0.65,1.08,0.65c0.19,0,0.39-0.05,0.57-0.14l3.71-1.95l1.76,3.51
			c0.21,0.43,0.65,0.67,1.09,0.67c0.18,0,0.37-0.04,0.55-0.13c0.6-0.3,0.85-1.04,0.54-1.64l-1.78-3.56l3.64-1.91
			C42.44,30.97,42.67,30.23,42.36,29.63z"/>
	</g>
</g>
<g id="Layer_2" class="st2">
	<circle class="st3" cx="25" cy="25" r="24"/>
</g>
</svg>
