<?xml version="1.0" encoding="utf-8"?>
<!-- Generator: Adobe Illustrator 27.2.0, SVG Export Plug-In . SVG Version: 6.00 Build 0)  -->
<svg version="1.1" xmlns="http://www.w3.org/2000/svg" xmlns:xlink="http://www.w3.org/1999/xlink" x="0px" y="0px"
	 viewBox="0 0 50 50" style="enable-background:new 0 0 50 50;" xml:space="preserve">
<style type="text/css">
	.st0{fill:#0D1014;}
	.st1{fill:none;stroke:#000000;stroke-width:3;stroke-linecap:round;stroke-miterlimit:10;}
	.st2{display:none;}
	.st3{display:inline;fill:none;stroke:#0D1014;stroke-miterlimit:10;}
</style>
<g id="Layer_1">
	<g>
		<g>
			<path class="st0" d="M25.01,9.13c3.38,0,8.89,0,10.16,0.14c1.27,0.28,2.68,0.42,3.25,4.8c0.14,1.41,0.28,3.1,0.42,5.08
				c0,0.56,0.56,1.13,1.13,1.13c0,0,0,0,0,0c0,0,0.01,0.01,0.01,0.01c0,0,0,0,0,0h2.58c0.54,0,0.97,0.44,0.97,0.97v5.38
				c0,0.54-0.44,0.97-0.97,0.97h-2.17c-0.71,0-1.27,0.56-1.27,1.27c0,2.82,0,4.94-0.28,6.35c-0.71,4.51-1.13,5.5-4.09,5.64
				c-3.95,0-9.73,0-9.73,0s-2.81,0-5.85,0c-0.47,0-0.95,0-1.43,0c-0.96,0-1.9,0-2.74,0c-2.96-0.14-3.39-1.13-4.09-5.64
				c-0.28-1.41-0.28-3.67-0.28-6.35c0-0.71-0.56-1.27-1.27-1.27H7.44c-0.54,0-0.97-0.44-0.97-0.97v-5.38c0-0.54,0.44-0.97,0.97-0.97
				H9.2c0,0,0.01-0.01,0.01-0.01h0.56c0.56,0,1.13-0.56,1.13-1.13c0.14-1.69,0.42-5.08,0.42-5.08c0.42-4.37,1.97-4.51,3.53-4.8
				C15.84,9.13,21.63,9.13,25.01,9.13 M25.01,6.66c-6.06,0-9.53,0.03-10.5,0.16c-0.03,0-0.06,0.01-0.09,0.02l-0.14,0.02
				c-2.89,0.52-4.92,1.9-5.41,6.96l-0.33,3.98H7.44c-1.9,0-3.44,1.54-3.44,3.44v5.38c0,1.9,1.54,3.44,3.44,3.44h0.71
				c0.01,2.3,0.05,4.17,0.32,5.58c0.62,3.99,1.18,7.43,6.41,7.68c0.04,0,0.08,0,0.12,0h2.74h1.43h5.85h9.73c0.04,0,0.08,0,0.12,0
				c5.22-0.25,5.78-3.69,6.41-7.68c0.27-1.41,0.31-3.21,0.32-5.58h0.97c1.9,0,3.44-1.54,3.44-3.44v-5.38c0-1.9-1.54-3.44-3.44-3.44
				h-1.34c-0.12-1.53-0.23-2.84-0.34-3.99c0-0.02-0.01-0.05-0.01-0.07c-0.64-4.93-2.47-6.31-5.03-6.86L35.7,6.86
				c-0.09-0.02-0.18-0.03-0.26-0.04C34.14,6.67,29.77,6.66,25.01,6.66L25.01,6.66z"/>
		</g>
	</g>
</g>
<g id="Layer_2" class="st2">
	<circle class="st3" cx="25" cy="25" r="24"/>
</g>
</svg>
