<?xml version="1.0" encoding="utf-8"?>
<!-- Generator: Adobe Illustrator 27.2.0, SVG Export Plug-In . SVG Version: 6.00 Build 0)  -->
<svg version="1.1" xmlns="http://www.w3.org/2000/svg" xmlns:xlink="http://www.w3.org/1999/xlink" x="0px" y="0px"
	 viewBox="0 0 50 50" style="enable-background:new 0 0 50 50;" xml:space="preserve">
<style type="text/css">
	.st0{fill:#0D1014;}
	.st1{fill:none;stroke:#000000;stroke-width:3;stroke-linecap:round;stroke-miterlimit:10;}
	.st2{display:none;}
	.st3{display:inline;fill:none;stroke:#0D1014;stroke-miterlimit:10;}
</style>
<g id="Layer_1">
	<g>
		<path class="st0" d="M27.41,5c-7.3,0-13.34,4.89-14.26,11.19c-0.04,0.02-0.07,0.04-0.11,0.06L8.7,19.24
			c-0.33,0.23-0.52,0.61-0.51,1.01c0.01,0.4,0.23,0.77,0.58,0.97l4.25,2.5v0.29c0,3.19,1.06,6.27,3.07,8.9
			c0.02,0.02,0.03,0.04,0.05,0.06c2.64,3,6.17,5.15,10.01,6.11c-0.04,0.12-0.07,0.26-0.07,0.39v4.35c0,0.65,0.53,1.18,1.18,1.18
			s1.18-0.53,1.18-1.18v-4.26c0.98,0.17,1.76,0.26,2.33,0.26h1.19v4c0,0.65,0.53,1.18,1.18,1.18c0.65,0,1.18-0.53,1.18-1.18v-4h6.32
			c0.65,0,1.18-0.53,1.18-1.18V17.86C41.81,10.77,35.35,5,27.41,5z M11.56,20.13l1.46-1v1.86L11.56,20.13z M39.45,37.47h-8.69
			c-0.47,0-1.44-0.09-3.45-0.52c-3.59-0.77-6.92-2.72-9.38-5.51c-1.68-2.21-2.56-4.78-2.56-7.44v-6.15c0-5.79,5.4-10.5,12.04-10.5
			s12.04,4.71,12.04,10.5V37.47z"/>
		<path class="st0" d="M21.43,15.03c-0.65,0-1.18,0.53-1.18,1.18v0.24c0,0.65,0.53,1.18,1.18,1.18s1.18-0.53,1.18-1.18v-0.24
			C22.61,15.56,22.08,15.03,21.43,15.03z"/>
		<path class="st0" d="M30.32,19.03c-4.12,0-5.58,3.06-5.58,5.68v0.8c0,3.51,3.25,6.37,7.25,6.37h2.73c0.65,0,1.18-0.53,1.18-1.18
			c0-0.65-0.53-1.18-1.18-1.18h-2.73c-2.7,0-4.9-1.8-4.9-4.02v-0.8c0-1.24,0.42-3.33,3.23-3.33c2.91,0,3.23,2.33,3.23,3.33v0.61
			c0,0.65,0.53,1.18,1.18,1.18c0.65,0,1.18-0.53,1.18-1.18v-0.61C35.9,21.31,33.66,19.03,30.32,19.03z"/>
	</g>
</g>
<g id="Layer_2" class="st2">
	<circle class="st3" cx="25" cy="25" r="24"/>
</g>
</svg>
