<svg width="24" height="24" viewBox="0 0 24 24" fill="none" xmlns="http://www.w3.org/2000/svg">
<path fill-rule="evenodd" clip-rule="evenodd" d="M24 12C24 5.37259 18.6274 1.62846e-06 12 1.04907e-06C5.37259 4.69686e-07 1.62846e-06 5.37258 1.04907e-06 12C4.69686e-07 18.6274 5.37258 24 12 24C18.6274 24 24 18.6274 24 12ZM18.5311 12.7339C18.8825 13.0854 18.8905 13.6635 18.5491 14.0252C18.2183 14.3756 17.6808 14.3943 17.3281 14.0756L17.2946 14.0437L12.9067 9.65381L12.9067 16.594C12.9067 17.1095 12.5007 17.5274 12 17.5274C11.5144 17.5274 11.118 17.1344 11.0944 16.6406L11.0933 16.594L11.0933 9.65381L6.70541 14.0437C6.36503 14.3842 5.8273 14.3871 5.48359 14.0581L5.45094 14.0252C5.12015 13.6748 5.11734 13.1213 5.43693 12.7675L5.46886 12.7339L12 6.2L18.5311 12.7339Z" fill="white"/>
</svg>
