<?xml version="1.0" encoding="UTF-8"?><svg id="Layer_2" xmlns="http://www.w3.org/2000/svg" viewBox="0 0 1000 212.07"><g id="Layer_1-2"><g><path d="m767.66,212.07c-8.26,0-16.14-3.13-22.19-8.81l-3.27-3.11-6-5.65-3.61,7.4c-.84,1.71-1.91,3.26-3.2,4.6-3.4,3.54-8.16,5.57-13.07,5.57h-32.35c-4.85,0-9.41-1.9-12.85-5.35l-8.17-7.79-4.07,5.62c-3.42,4.71-8.9,7.52-14.68,7.52h-32.35c-4.66,0-9.27-1.87-12.64-5.14l-12.86-12.22-4.66-4.06-4.06,4.33c-9.74,10.88-23.62,17.09-38.11,17.09h-33.39c-13.18,0-25.72-5.04-35.29-14.18l-14.61-13.87-9.26,5.99,2.42,7.01c1.14,3.29.61,6.95-1.42,9.79-2.02,2.83-5.31,4.53-8.79,4.53h-43.6c-3.49,0-6.76-1.35-9.2-3.8l-3.49-3.32-5.18-5.18-4.07,6.32c-2.42,3.75-6.5,5.99-10.93,5.99h-44.72c-3.39,0-6.6-1.3-9.04-3.68l-6.42-6.1-4.43-4.01-4.08,4.31c-6.01,6.35-14.11,9.85-22.81,9.85h-75.88c-6.51,0-12.72-2.48-17.47-6.97l-14.82-14.08-4.13,5.33c-7.46,9.84-18.77,15.47-31.04,15.47-10.16,0-19.78-3.9-27.1-10.99l-10.3-9.79-5.9-5.64-3.7,7.28c-.8,1.57-1.69,3.06-2.66,4.42-6.55,9.21-17.22,14.71-28.53,14.71-8.9,0-17.39-3.37-23.91-9.48l-14.17-13.46c-7.38-6.7-11.59-16.17-11.59-26V38.9C0,17.45,17.45,0,38.9,0c10.15,0,19.77,3.9,27.08,10.98l10.19,9.67,5.83,5.52,3.85-6.98c.84-1.65,1.74-3.14,2.72-4.51C95.12,5.48,105.78,0,117.07,0c8.91,0,17.41,3.37,23.94,9.49l7.09,6.74,5.96,5.55,3.7-7.19C162.03,5.86,171.01.24,180.65.24h75.88c8,0,15.64,3.03,21.49,8.54l6.32,6.01,5.59,5.13,3.78-6.54c4.56-7.87,13.01-12.77,22.05-12.77h83.57c8.35,0,16.29,3.14,22.38,8.84l8.51,8.08,5.26,4.9,4-5.93c1.16-1.78,2.44-3.41,3.81-4.86,6.62-7.02,15.94-11.04,25.58-11.04,9.1,0,17.74,3.45,24.33,9.7l12.59,11.96,5.99,5.73,3.77-7.33c5.84-12.21,18.29-20.06,31.75-20.06,9.04,0,17.96,3.62,24.47,9.93l14.2,13.49c.56.53,1.06,1.02,1.55,1.53.15.16,5.49,6.16,5.49,6.16l4.48-5.73c1.92-2.47,4.06-4.84,6.35-7.03,12.31-11.83,28.5-18.35,45.58-18.35s33.27,6.52,45.58,18.35l14.67,13.93.56.56,10.32,10.08v-17.5c0-14.02,11.41-25.43,25.43-25.43h71.13c8.34,0,16.3,3.16,22.41,8.9l6.43,6.11,5.85,5.38,3.66-7.02c4.42-8.47,13.07-13.73,22.58-13.73h75.88c8,0,15.64,3.03,21.49,8.54l14.19,13.48c6.62,6.01,10.4,14.5,10.4,23.33v.74c0,11.67-6.44,22.32-16.81,27.8l-7.49,3.95,6.18,5.84,4.44,4.22c6.45,6.06,9.99,14.21,9.99,22.95,0,10.04-4.89,19.56-13.08,25.48l-5.95,4.3,12.83,12.15c6.37,6.03,9.88,14.15,9.88,22.84v4.42c0,17.32-14.09,31.42-31.42,31.42h-75.88c-6.51,0-12.72-2.48-17.47-6.97l-14.18-13.47c-3.16-2.87-5.56-6.43-6.96-10.32l-2.27-6.28-6.03,2.87c-4.41,2.09-9.12,3.15-14.01,3.15h-31.27l-.93,4.95c-2.88,15.33-16.3,26.45-31.91,26.45Z"/><g><path d="m575.27,37.39l-6.52,112.19c-1.35,23.26-20.61,41.43-43.91,41.43h-33.39c-23.28,0-42.54-18.15-43.91-41.39l-6.63-112.2c-.95-16.1,11.85-29.67,27.97-29.67h.12c14.81,0,27.06,11.52,27.97,26.3l6.09,99.14c.17,2.83,2.52,5.04,5.36,5.04h0c2.85,0,5.2-2.23,5.36-5.07l5.53-98.96c.83-14.84,13.11-26.46,27.98-26.46h0c16.11,0,28.91,13.56,27.97,29.65Z" fill="#fff"/><path d="m90.66,44.09l7.16,20.9c1.72,5.03-2.03,10.26-7.35,10.24h0c-3.29-.02-6.21-2.11-7.28-5.22l-14.25-41.44c-4.41-12.83-16.48-21.44-30.04-21.44h0c-17.54,0-31.76,14.22-31.76,31.76v123.63c0,15.4,12.48,27.88,27.88,27.88h0c19.17,0,32.62-18.91,26.33-37.02l-7-20.17c-1.74-5.02,1.99-10.27,7.31-10.27h0c3.29,0,6.23,2.09,7.31,5.2l14.2,40.89c4.44,12.79,16.5,21.37,30.04,21.37h0c17.56,0,31.8-14.24,31.8-31.8V35.05c0-15.42-12.5-27.91-27.91-27.91h0c-19.15,0-32.61,18.84-26.41,36.96Z" fill="#fff"/><path d="m222.66,72.88h30.19c13.41,0,24.29,10.87,24.29,24.29h0c0,13.41-10.87,24.29-24.29,24.29h-30.19c-2.02,0-3.67,1.64-3.67,3.67v8.86c0,2.02,1.64,3.67,3.67,3.67h33.87c13.41,0,24.29,10.87,24.29,24.29v4.42c0,13.41-10.87,24.29-24.29,24.29h-75.88c-10.12,0-18.33-8.21-18.33-18.33V25.7c0-10.12,8.21-18.33,18.33-18.33h75.88c13.41,0,24.29,10.87,24.29,24.29v.74c0,13.41-10.87,24.29-24.29,24.29h-33.87c-2.02,0-3.67,1.64-3.67,3.67v8.86c0,2.02,1.64,3.67,3.67,3.67Z" fill="#fff"/><path d="m920.05,72.88h30.19c13.41,0,24.29,10.87,24.29,24.29h0c0,13.41-10.87,24.29-24.29,24.29h-30.19c-2.02,0-3.67,1.64-3.67,3.67v8.86c0,2.02,1.64,3.67,3.67,3.67h33.87c13.41,0,24.29,10.87,24.29,24.29v4.42c0,13.41-10.87,24.29-24.29,24.29h-75.88c-10.12,0-18.33-8.21-18.33-18.33V25.7c0-10.12,8.21-18.33,18.33-18.33h75.88c13.41,0,24.29,10.87,24.29,24.29v.74c0,13.41-10.87,24.29-24.29,24.29h-33.87c-2.02,0-3.67,1.64-3.67,3.67v8.86c0,2.02,1.64,3.67,3.67,3.67Z" fill="#fff"/><path d="m708.02,64.05c-1.26-31.46-27.13-56.31-58.61-56.31h0c-31.48,0-57.35,24.85-58.61,56.31l-4.62,115.52c-.25,6.24,4.74,11.44,10.99,11.44h32.36c6.07,0,11-4.92,11-11v-18.33c0-2.02,1.64-3.67,3.67-3.67h10.45c2.02,0,3.67,1.64,3.67,3.67v18.33c0,6.07,4.92,11,11,11h32.36c6.25,0,11.24-5.2,10.99-11.44l-4.62-115.52Zm-50.54,50.88c0,4.45-3.61,8.06-8.06,8.06s-8.06-3.61-8.06-8.06v-49.85c0-4.45,3.61-8.06,8.06-8.06s8.06,3.61,8.06,8.06v49.85Z" fill="#fff"/><path d="m817.1,7.74h-71.13c-10.11,0-18.3,8.19-18.3,18.3v139.64c0,13.99,11.34,25.33,25.33,25.33h0c13.99,0,25.33-11.34,25.33-25.33v-6.07h38.77c14.17,0,25.66-11.49,25.66-25.66V33.4c0-14.17-11.49-25.66-25.66-25.66Zm-23.82,107.19c0,4.45-3.61,8.06-8.06,8.06s-8.06-3.61-8.06-8.06v-49.85c0-2.41,1.06-4.56,2.74-6.04,1.34-1.34,3.22-2.18,5.33-2.18s3.86.78,5.18,2.03c.05.05.09.1.14.15,1.68,1.48,2.74,3.63,2.74,6.04v49.85Z" fill="#fff"/><path d="m427.96,185.41l-8.39-24.31c-3.02-9.29-7.05-15.49-25.16-15.49,1.05,0,2.08-.02,3.09-.06h1.84c14.17,0,25.66-11.49,25.66-25.66V33.4c0-14.17-11.48-25.66-25.65-25.66h-83.57c-10.12,0-18.33,8.21-18.33,18.33v158.34c0,3.24,2.63,5.86,5.86,5.86h44.72c3.24,0,5.86-2.63,5.86-5.86v-19.19c0-3.98,3.22-7.2,7.2-7.2,3.13,0,5.91,2.03,6.86,5.02l7.37,23.15c.77,2.43,3.03,4.09,5.59,4.09h43.6c2.52,0,4.29-2.48,3.46-4.86Zm-59.06-70.49c0,4.45-3.61,8.06-8.06,8.06s-8.06-3.61-8.06-8.06v-49.85c0-2.46,1.11-4.66,2.85-6.14,1.33-1.28,3.18-2.08,5.23-2.08s4.05.87,5.39,2.25c1.63,1.48,2.66,3.6,2.66,5.98v49.85Z" fill="#fff"/></g></g></g></svg>