<svg width="500" height="112" viewBox="0 0 500 112" fill="none" xmlns="http://www.w3.org/2000/svg">
<path d="M492.675 88.5011C492.55 88.4423 485.136 85.2022 485.004 85.1434C483.527 84.4674 481.882 84.0927 480.155 84.0927H469.082V68.1564H485.526C492.006 68.1564 497.267 62.8883 497.267 56.408C497.267 51.5147 494.254 47.312 489.993 45.5487C489.868 45.4899 482.455 42.2497 482.322 42.1909C480.846 41.515 479.2 41.1403 477.473 41.1403H469.082V27.9004H488.208C494.688 27.9004 499.956 22.6324 499.956 16.152C499.956 11.2587 496.944 7.05605 492.675 5.29269C492.55 5.23391 485.136 1.99375 485.004 1.93497C483.527 1.27371 481.889 0.891648 480.155 0.891648H437.21C433.22 0.891648 429.649 2.69174 427.247 5.51311C427.21 5.49842 419.591 2.16273 419.459 2.1113C417.798 1.34718 415.947 0.91369 414 0.91369C414 0.91369 409.349 0.891648 408.945 0.891648H371.128C366.727 0.891648 362.833 3.0738 360.46 6.40949C359.923 6.07151 359.358 5.77027 358.77 5.51311C358.645 5.45433 351.231 2.21417 351.099 2.15539C349.387 1.33983 347.47 0.8843 345.442 0.8843H302.203C297.456 0.8843 293.32 3.3677 291.035 7.13687C290.293 6.69603 289.529 6.31397 288.742 5.98334C288.618 5.92456 281.204 2.68439 281.072 2.62562C278.75 1.59699 276.223 1.05329 273.6 1.05329H273.585C264.335 1.05329 256.686 7.79813 255.356 16.7325C253.644 11.9641 250.037 8.14345 245.452 6.13029C245.327 6.07151 237.914 2.83134 237.781 2.77256C235.408 1.66312 232.756 1.05329 229.957 1.05329C224.924 1.05329 220.221 3.04441 216.717 6.6593C216.423 6.96788 216.144 7.28382 215.872 7.59975C214.784 6.7989 213.616 6.13764 212.382 5.63067C212.257 5.57189 204.843 2.33172 204.711 2.27294C202.646 1.36188 200.398 0.876953 198.076 0.876953H151.472C147.644 0.876953 144.206 2.5301 141.811 5.15309C141.693 5.10166 134.684 2.03783 134.559 1.97905C133.053 1.27371 131.37 0.876953 129.599 0.876953H86.6543C82.6647 0.876953 79.0939 2.67705 76.6987 5.49842C76.6473 5.47638 69.0061 2.13335 68.8811 2.08191C67.2133 1.32514 65.3618 0.891648 63.4074 0.891648H13.0856C5.87051 0.891648 0 6.76216 0 13.9772V89.1256C0 96.7962 4.70229 103.387 11.381 106.164C11.5059 106.223 18.9194 109.463 19.0516 109.522C21.3366 110.536 23.8568 111.101 26.5091 111.101C33.9814 111.101 40.425 106.634 43.3198 100.235C45.2889 102.836 47.9192 104.9 50.9684 106.171C51.0933 106.23 58.5067 109.47 58.639 109.529C60.9166 110.543 63.4441 111.109 66.0965 111.109C71.3352 111.109 76.0668 108.912 79.4319 105.393C80.1226 105.855 80.8573 106.252 81.6361 106.576C81.761 106.634 89.1745 109.874 89.3067 109.933C90.9599 110.69 92.7893 111.109 94.7217 111.109H137.667C140.371 111.109 142.854 110.19 144.838 108.655C144.911 108.692 149.158 110.55 149.29 110.595C149.959 110.918 150.701 111.109 151.494 111.109H178.305C180.663 111.109 182.647 109.47 183.191 107.274C183.294 107.325 190.656 110.543 190.788 110.595C191.464 110.925 192.213 111.109 193.007 111.109H219.545C221.169 111.109 222.697 110.315 223.645 108.993C224.586 107.678 224.835 105.966 224.306 104.43L222.455 99.0592C224.982 101.499 227.87 103.438 231 104.834C231.125 104.893 238.538 108.133 238.67 108.192C242.542 109.992 246.797 110.94 251.183 110.94H268.603C276.098 110.94 283.195 108.163 288.698 103.122C288.992 103.519 289.301 103.908 289.654 104.268C290.734 105.378 292.005 106.223 293.386 106.789C293.511 106.847 300.924 110.088 301.057 110.146C302.453 110.778 303.973 111.116 305.553 111.116H317.875C322.856 111.116 327.066 107.773 328.381 103.203H329.189C330.358 104.761 331.93 105.995 333.752 106.752C333.877 106.811 341.29 110.051 341.423 110.11C342.811 110.749 344.354 111.116 345.985 111.116H358.344C361.334 111.116 364.119 109.933 366.191 107.788C366.749 107.207 367.234 106.583 367.645 105.914C367.983 106.076 368.321 106.23 368.674 106.37C368.799 106.429 376.212 109.669 376.345 109.728C378.394 110.617 380.65 111.116 383.023 111.116C392.325 111.116 399.9 103.541 399.9 94.2394V93.8647H422.096C422.802 93.8647 423.492 93.8059 424.168 93.6957V94.5112C424.168 99.9629 427.519 104.643 432.265 106.605C432.39 106.664 439.803 109.904 439.936 109.963C441.574 110.705 443.396 111.124 445.307 111.124H488.252C494.732 111.124 500 105.855 500 99.3825C499.956 94.4671 496.944 90.2571 492.675 88.5011ZM134.552 85.1875C133.045 84.4821 131.37 84.0927 129.599 84.0927H118.527V68.1564H134.97C136.161 68.1564 137.307 67.9653 138.394 67.6347V86.8627H138.387C138.255 86.8039 134.676 85.2463 134.552 85.1875ZM138.394 45.1005C138.291 45.0491 132.061 42.3305 131.936 42.2791C130.415 41.5591 128.718 41.1476 126.925 41.1476H118.534V27.9004H137.659C137.909 27.9004 138.152 27.8931 138.402 27.8784V45.1005H138.394Z" fill="black"/>
<path d="M73.4735 13.9779V89.1263C73.4735 97.6492 66.567 104.563 58.0368 104.563C49.5139 104.563 42.6074 97.6566 42.6074 89.1263V37.0338C42.6074 34.6239 40.653 32.6695 38.2431 32.6695C35.8332 32.6695 33.8788 34.6239 33.8788 37.0338V89.1263C33.8788 97.6492 26.9723 104.563 18.4494 104.563C9.92652 104.563 3.0127 97.6566 3.0127 89.1263V13.9779C3.0127 8.41602 7.5166 3.91211 13.0785 3.91211H63.4077C68.9696 3.91211 73.4735 8.41602 73.4735 13.9779Z" fill="white"/>
<path d="M213.381 101.896L208.693 88.3108C207.01 83.1383 204.77 79.685 194.674 79.685C195.255 79.685 198.069 79.6483 198.069 79.6483C205.482 79.6483 211.492 73.6382 211.492 66.2247V17.3357C211.492 9.92222 205.482 3.91211 198.076 3.91211H151.472C145.91 3.91211 141.406 8.41602 141.406 13.9779V102.55C141.406 103.659 142.31 104.563 143.419 104.563H170.23C171.339 104.563 172.243 103.659 172.243 102.55V90.1182C172.243 88.3328 173.69 86.8854 175.476 86.8854C176.886 86.8854 178.136 87.7965 178.569 89.1484L183.014 103.167C183.279 104.005 184.057 104.57 184.932 104.57H211.47C212.859 104.563 213.829 103.196 213.381 101.896ZM180.972 68.135C180.972 70.5376 179.017 72.492 176.615 72.492C174.205 72.492 172.25 70.5376 172.25 68.135V37.0265C172.25 34.6166 174.205 32.6622 176.615 32.6622C179.017 32.6622 180.972 34.6166 180.972 37.0265V68.135Z" fill="white"/>
<path d="M288.985 18.4886L287.024 81.2715C285.246 94.3718 274.026 104.394 260.522 104.394H243.101C228.657 104.394 216.813 92.917 216.365 78.4795L214.55 19.9875C214.285 11.2883 221.258 4.0879 229.964 4.0879C238.245 4.0879 245.048 10.627 245.372 18.9074L247.422 71.5437C247.51 73.8801 249.435 75.7316 251.771 75.7316C254.108 75.7316 256.033 73.8875 256.121 71.5437L258.178 18.9074C258.501 10.627 265.305 4.0879 273.585 4.0879H273.6C281.807 4.08055 288.479 10.4727 288.985 18.4886Z" fill="white"/>
<path d="M138.329 95.8418C138.329 98.2517 137.352 100.434 135.772 102.006C134.2 103.586 132.01 104.563 129.6 104.563H86.6552C81.0933 104.563 76.5894 100.059 76.5894 94.4972V13.9779C76.5894 8.41602 81.0933 3.91211 86.6552 3.91211H129.6C134.42 3.91211 138.329 7.82088 138.329 12.6334C138.329 15.0433 137.352 17.2255 135.772 18.8051C134.2 20.3848 132.01 21.362 129.6 21.362H107.455V44.1681H126.919C131.731 44.1681 135.64 48.0769 135.64 52.8893C135.64 55.2993 134.663 57.4814 133.083 59.0611C131.511 60.6408 129.321 61.618 126.919 61.618H107.455V87.1132H129.6C134.42 87.1132 138.329 91.0146 138.329 95.8418Z" fill="white"/>
<path d="M488.883 95.8418C488.883 98.2517 487.906 100.434 486.326 102.006C484.754 103.586 482.564 104.563 480.155 104.563H437.209C431.647 104.563 427.144 100.059 427.144 94.4972V13.9779C427.144 8.41602 431.647 3.91211 437.209 3.91211H480.155C484.974 3.91211 488.883 7.82088 488.883 12.6334C488.883 15.0433 487.906 17.2255 486.326 18.8051C484.754 20.3848 482.564 21.362 480.155 21.362H458.01V44.1681H477.473C482.285 44.1681 486.194 48.0769 486.194 52.8893C486.194 55.2993 485.217 57.4814 483.637 59.0611C482.065 60.6408 479.875 61.618 477.473 61.618H458.01V87.1132H480.155C484.982 87.1132 488.883 91.0146 488.883 95.8418Z" fill="white"/>
<path d="M355.515 13.6547C355.339 8.22499 350.887 3.91211 345.457 3.91211H302.218C296.781 3.91211 292.329 8.23233 292.16 13.662L289.573 96.4075C289.434 100.875 293.012 104.563 297.479 104.563H309.8C311.983 104.563 313.959 103.674 315.399 102.249C316.832 100.816 317.714 98.8395 317.714 96.65H330.006C330.006 101.022 333.547 104.563 337.911 104.563H350.27C354.737 104.563 358.322 100.867 358.175 96.4002L355.515 13.6547ZM323.871 82.4182C320.755 82.4182 318.265 79.832 318.382 76.7241L319.947 36.5416C320.028 34.4329 321.762 32.765 323.871 32.765C325.972 32.765 327.706 34.4329 327.794 36.5416L329.352 76.7241C329.469 79.832 326.978 82.4182 323.871 82.4182Z" fill="white"/>
<path d="M414.007 3.93415C414.007 3.93415 409.356 3.91211 408.952 3.91211H371.135C365.573 3.91211 361.069 8.41602 361.069 13.9779V90.6987C361.069 98.3546 367.278 104.556 374.926 104.556C382.575 104.556 388.783 98.3472 388.783 90.6987V87.3042H413.999C419.561 87.3042 424.065 82.7929 424.065 77.2384V14C424.073 8.43806 419.569 3.93415 414.007 3.93415ZM396.674 68.3922C396.674 70.5817 394.904 72.3524 392.714 72.3524C390.532 72.3524 388.754 70.5817 388.754 68.3922V36.7252C388.754 34.5431 390.532 32.765 392.714 32.765C394.904 32.765 396.674 34.5431 396.674 36.7252V68.3922Z" fill="white"/>
</svg>
