<svg width="19" height="19" viewBox="0 0 19 19" fill="none" xmlns="http://www.w3.org/2000/svg">
<path d="M11.9057 9.32191C11.8867 9.32951 9.82707 10.1085 7.06447 9.31051C6.82887 9.24211 6.58567 9.37891 6.52107 9.61071C6.45267 9.84251 6.58947 10.0895 6.82127 10.1541C7.85487 10.4543 8.79347 10.5531 9.59147 10.5531C11.1571 10.5531 12.1679 10.1655 12.2325 10.1427C12.4567 10.0553 12.5669 9.80071 12.4795 9.57271C12.3883 9.34471 12.1337 9.23451 11.9057 9.32191Z" fill="white"/>
<path d="M16.8531 4.79597C16.4009 4.63637 15.9183 4.77697 15.5687 5.17217C15.3711 5.39637 15.1393 5.65477 14.8733 5.95497L14.6301 6.16017C13.6421 6.98857 12.9125 6.75677 12.3843 6.46037C11.9321 6.20957 10.7617 5.62437 9.60653 5.62437C9.53053 5.61677 9.45073 5.61677 9.37852 5.62817V5.62437C8.25752 5.68897 7.50892 6.04237 6.84392 6.35777L6.65013 6.44897C6.15613 6.68077 5.40753 7.02657 4.37773 6.16017L4.11173 5.93597C3.85333 5.64337 3.62533 5.38877 3.43153 5.17217C3.08193 4.77697 2.60313 4.63637 2.14713 4.79597C1.57333 4.99737 1.17813 5.62057 1.14393 6.38057C1.09073 7.45597 1.59993 8.64917 2.53853 9.65237C3.29853 10.4656 4.06993 10.8304 4.43093 10.971C4.94012 12.054 6.38412 14.2694 9.67492 14.2694C11.9435 14.2694 13.6763 13.099 14.5883 10.9634C14.9569 10.819 15.7131 10.4542 16.4617 9.65237C17.4003 8.64917 17.9095 7.45977 17.8563 6.38057C17.8183 5.62057 17.4269 4.99737 16.8531 4.79597ZM3.18073 9.04817C2.41693 8.23117 1.98373 7.25077 2.02173 6.42237C2.04453 5.96637 2.25353 5.68897 2.43973 5.62437C2.48153 5.60917 2.60693 5.56737 2.77033 5.75357C3.01353 6.02717 3.30613 6.35777 3.65573 6.74917C3.67093 7.87017 3.79253 8.87717 4.01673 9.75877C3.76213 9.59157 3.46953 9.35977 3.18073 9.04817ZM9.67492 13.3878C6.72612 13.3878 5.54813 11.3662 5.17952 10.515C5.16813 10.4694 5.14913 10.4238 5.12632 10.3858C5.07693 10.2566 5.05033 10.1692 5.04273 10.1502L5.03513 10.1312C4.86793 9.62957 4.74253 9.07097 4.65893 8.46297C4.62853 8.25777 4.65132 8.03737 4.75013 7.85497C4.79193 7.77897 4.84133 7.71437 4.89833 7.65737C4.98953 7.56617 5.12253 7.54337 5.24413 7.56617C6.03073 7.71057 6.65392 7.42177 7.01872 7.25077L7.21632 7.15957C7.86233 6.85177 8.47412 6.56297 9.42412 6.50977L9.46972 6.50597C9.47733 6.50597 9.48493 6.50597 9.49253 6.50597L9.60653 6.50977C10.5793 6.50977 11.6509 7.06457 11.9549 7.23557C12.4337 7.50157 12.9087 7.63077 13.3799 7.61557C13.4711 7.61177 13.5623 7.59277 13.6535 7.56997C14.2083 7.44457 14.4439 7.71437 14.3337 8.51237C14.2387 9.17357 14.0981 9.78157 13.9043 10.3098C13.8929 10.3364 13.8815 10.3592 13.8739 10.3858C13.8473 10.4314 13.8283 10.477 13.8169 10.5302C12.8517 12.8786 11.0467 13.3878 9.67492 13.3878ZM15.8195 9.04817C15.5307 9.35597 15.2457 9.58397 14.9911 9.75497C15.2153 8.87337 15.3331 7.86257 15.3483 6.74537C15.6941 6.35777 15.9867 6.02717 16.2261 5.75357C16.3933 5.56737 16.5187 5.60917 16.5567 5.62437C16.7429 5.68897 16.9519 5.96637 16.9747 6.42237C17.0165 7.25077 16.5833 8.23497 15.8195 9.04817Z" fill="white"/>
</svg>
