<svg width="32" height="24" viewBox="0 0 32 24" fill="none" xmlns="http://www.w3.org/2000/svg">
<path fill-rule="evenodd" clip-rule="evenodd" d="M17.2509 21.4969C17.2509 23.0296 15.4926 23.8963 14.2769 22.9628L7.62249 17.8532H1.84831C0.82759 17.8532 0 17.0256 0 16.0049V7.99553C0 6.97481 0.82759 6.14722 1.84831 6.14722H7.62249L14.2769 1.03758C15.4926 0.104096 17.2509 0.970794 17.2509 2.50353V21.4969ZM2.46442 8.61163H8.45951L14.7865 3.7534V20.247L8.45951 15.3888H2.46442V8.61163Z" fill="white"/>
<path d="M22.2544 16.9786L26.3384 12.8946L30.4224 16.9786C30.7833 17.3395 31.3684 17.3395 31.7293 16.9786C32.0902 16.6177 32.0902 16.0325 31.7293 15.6716L27.6454 11.5876L31.7293 7.50368C32.0902 7.14278 32.0902 6.55763 31.7293 6.19673C31.3684 5.83582 30.7833 5.83582 30.4224 6.19673L26.3384 10.2807L22.2544 6.19673C21.8935 5.83582 21.3084 5.83582 20.9475 6.19673C20.5866 6.55763 20.5866 7.14278 20.9475 7.50368L25.0314 11.5876L20.9475 15.6716C20.5866 16.0325 20.5866 16.6177 20.9475 16.9786C21.3084 17.3395 21.8935 17.3395 22.2544 16.9786Z" fill="white"/>
</svg>
