<svg width="16" height="16" viewBox="0 0 16 16" fill="none" xmlns="http://www.w3.org/2000/svg">
<path d="M9.26555 10.4536C9.34899 10.2316 9.38964 9.97594 9.37466 9.71578C9.34685 9.24705 9.13077 8.85234 8.78206 8.63031C8.32852 8.341 7.74447 8.33427 7.43213 8.32978C7.13689 8.3253 6.81813 8.37912 6.53359 8.42622L6.42021 8.44416C6.27259 8.46883 5.95169 8.47556 5.73775 8.48004C5.71636 8.48004 5.69711 8.48004 5.67571 8.48004L5.16441 8.06738C5.09381 8.01132 5.02107 7.96422 4.90768 7.8947C4.49693 7.63678 3.40799 6.955 2.1308 5.37164C1.89975 5.08681 1.56601 4.9231 1.21088 4.9231C0.543397 4.9231 0 5.49275 0 6.19023V10.1374C0 10.6645 0.190403 11.1623 0.536978 11.5391C1.05684 12.1065 1.82915 12.8623 2.38538 13.3983L3.13416 14.1294C3.62835 14.6116 4.04552 15.0064 4.22309 15.1701C4.90768 15.8025 5.49173 15.9393 5.92174 15.9887C5.98378 15.9954 6.0501 15.9999 6.11428 15.9999C6.68549 16.0066 7.29521 15.7778 7.64392 15.5468L7.65676 15.5379C7.78298 15.4549 8.04612 15.2822 8.20015 14.9077L8.28787 14.6946C8.48897 14.5578 8.64942 14.412 8.7735 14.2573C8.93609 14.0532 9.06231 13.7953 9.16072 13.4678L9.23988 13.2099C9.43028 13.0215 9.61213 12.7771 9.72765 12.4654C9.9095 11.972 9.96726 11.2319 9.26127 10.4491L9.26555 10.4536ZM1.14883 10.9291C0.954153 10.7183 0.847185 10.4357 0.847185 10.1419V6.19472C0.847185 5.96372 1.02689 5.8157 1.21302 5.8157C1.31143 5.8157 1.40984 5.85831 1.48685 5.95026C3.11276 7.96422 4.45628 8.61909 4.65096 8.77608C4.5825 8.82991 4.52474 8.89719 4.47767 8.97568C4.46698 8.99363 3.52566 11.0906 3.13844 12.1043C3.04217 12.3465 2.96301 12.5551 2.91594 12.7053C2.28911 12.102 1.6088 11.4292 1.15097 10.9291H1.14883ZM8.94037 12.1491C8.77778 12.5865 8.35205 12.8152 8.23224 12.8735C8.16165 12.9094 8.09533 12.9296 8.02473 12.952C7.92418 12.9857 7.80865 13.0238 7.67601 13.1045C7.59472 13.1539 7.5669 13.2638 7.61397 13.349C7.64606 13.4051 7.70168 13.4364 7.75945 13.4364C7.7894 13.4364 7.81935 13.4297 7.84716 13.4118C7.94771 13.3512 8.03114 13.3243 8.12742 13.2907C8.20015 13.2682 8.27289 13.2413 8.35633 13.2032C8.30498 13.3714 8.2301 13.562 8.12528 13.6944C7.94129 13.9276 7.57546 14.1093 7.44068 14.1743C7.35297 14.2169 7.27809 14.2326 7.18182 14.2506C7.08983 14.2685 6.98714 14.2887 6.85878 14.338C6.77106 14.3717 6.724 14.4748 6.75609 14.5668C6.78176 14.6385 6.84594 14.6834 6.9144 14.6834C6.93365 14.6834 6.95505 14.6812 6.9743 14.6722C7.07699 14.6341 7.15615 14.6184 7.24386 14.6004C7.30162 14.5892 7.36153 14.5757 7.42357 14.5578C7.37008 14.6879 7.27809 14.7417 7.19252 14.7978C6.93793 14.966 6.48867 15.1185 6.12498 15.114C6.08647 15.114 6.0501 15.1118 6.01373 15.1073C5.67143 15.0691 5.28421 14.9682 4.78146 14.504C4.61887 14.3537 4.21667 13.9725 3.73532 13.5037C3.73532 13.5037 3.63477 13.4432 3.80805 12.7434C3.82517 12.6784 3.86368 12.573 3.91288 12.4429C4.30011 11.4943 5.08739 9.73821 5.19222 9.55879C5.25212 9.46011 5.34197 9.4018 5.47247 9.37265C5.53879 9.36816 5.6372 9.36592 5.75273 9.36367C6.01587 9.35695 6.34319 9.35022 6.54857 9.31658L6.66196 9.29864C6.91226 9.25827 7.19466 9.21117 7.41715 9.21341C7.65034 9.21566 8.08249 9.22238 8.33707 9.38386C8.47827 9.47357 8.51678 9.64177 8.52534 9.76736C8.54031 10.0028 8.4526 10.2137 8.38628 10.2697C8.32852 10.3191 8.21299 10.3572 8.11886 10.3662C8.07179 10.3594 8.03328 10.3572 8.00547 10.3572C7.98408 10.3572 7.9691 10.3572 7.96696 10.3572C7.96269 10.3572 7.95627 10.3572 7.95199 10.3594C7.94557 10.3594 7.94129 10.3594 7.93487 10.3617C7.93059 10.3617 7.92632 10.3639 7.92204 10.3662C7.91562 10.3662 7.91134 10.3707 7.90492 10.3729C7.90064 10.3729 7.89637 10.3774 7.89209 10.3796C7.88781 10.3819 7.88139 10.3864 7.87711 10.3886C7.87283 10.3908 7.87069 10.3953 7.86641 10.3976C7.86214 10.4021 7.85786 10.4065 7.85144 10.411C7.85144 10.411 7.84716 10.4133 7.84716 10.4155C7.83218 10.4335 7.75517 10.5321 7.72094 10.6353C7.70168 10.6914 7.64606 10.8663 7.7295 11.0278C7.7295 11.0278 7.84716 11.2677 8.00119 11.279C8.00547 11.279 8.00975 11.279 8.01403 11.279C8.10816 11.279 8.18732 11.2251 8.22155 11.2027C8.26433 11.1735 8.36061 11.0435 8.3221 10.9538C8.29429 10.8887 8.23224 10.8506 8.1702 10.8506C8.14667 10.8506 8.121 10.8551 8.09747 10.8663C8.07821 10.8753 8.06324 10.8842 8.04826 10.8955C8.04826 10.8955 8.04826 10.891 8.04612 10.891L8.03114 10.8618C8.03114 10.8618 8.02045 10.8237 8.04398 10.7497C8.04612 10.7407 8.05254 10.7295 8.05896 10.7183C8.06965 10.7183 8.07821 10.7183 8.08891 10.7183C8.09319 10.7183 8.09747 10.7183 8.10174 10.7183C8.21085 10.7362 8.38414 10.79 8.53817 10.9425C8.95963 11.3552 9.08585 11.7342 8.93609 12.1379L8.94037 12.1491Z" fill="white"/>
<path d="M6.11921 5.54636C6.03578 5.76839 5.99513 6.02406 6.01011 6.28422C6.03792 6.75295 6.25399 7.14766 6.60271 7.36969C7.05625 7.659 7.64029 7.66573 7.95264 7.67022C8.24787 7.6747 8.56664 7.62088 8.85117 7.57378L8.96456 7.55584C9.11217 7.53117 9.43308 7.52444 9.64701 7.51996C9.66841 7.51996 9.68766 7.51996 9.70905 7.51996L10.2204 7.93262C10.291 7.98868 10.3637 8.03578 10.4771 8.1053C10.8878 8.36322 11.9768 9.045 13.254 10.6284C13.485 10.9132 13.8188 11.0769 14.1739 11.0769C14.8414 11.0769 15.3848 10.5073 15.3848 9.80977L15.3848 5.86259C15.3848 5.33555 15.1944 4.83767 14.8478 4.46089C14.3279 3.89348 13.5556 3.13769 12.9994 2.60168L12.2506 1.87055C11.7564 1.38837 11.3392 0.993649 11.1617 0.829931C10.4771 0.197485 9.89304 0.0606794 9.46303 0.0113395C9.40099 0.00461139 9.33467 0.000126124 9.27049 0.000126119C8.69928 -0.00660208 8.08956 0.222154 7.74085 0.453154L7.72801 0.462125C7.60179 0.545106 7.33865 0.717795 7.18461 1.09233L7.0969 1.30539C6.8958 1.44219 6.73535 1.58797 6.61126 1.74272C6.44867 1.9468 6.32245 2.20472 6.22404 2.53215L6.14488 2.79007C5.95448 2.97845 5.77264 3.22291 5.65711 3.53465C5.47527 4.02804 5.4175 4.76814 6.12349 5.55085L6.11921 5.54636ZM14.2359 5.07091C14.4306 5.28172 14.5376 5.56431 14.5376 5.8581L14.5376 9.80528C14.5376 10.0363 14.3579 10.1843 14.1718 10.1843C14.0733 10.1843 13.9749 10.1417 13.8979 10.0497C12.272 8.03578 10.9285 7.38091 10.7338 7.22392C10.8023 7.17009 10.86 7.10281 10.9071 7.02431C10.9178 7.00637 11.8591 4.90943 12.2463 3.89573C12.3426 3.65351 12.4218 3.44494 12.4688 3.29468C13.0957 3.89797 13.776 4.57078 14.2338 5.07091L14.2359 5.07091ZM6.44439 3.85087C6.60699 3.41354 7.03272 3.18478 7.15252 3.12647C7.22312 3.09059 7.28944 3.07041 7.36004 3.04798C7.46059 3.01434 7.57611 2.97621 7.70875 2.89547C7.79005 2.84613 7.81786 2.73624 7.7708 2.65102C7.73871 2.59495 7.68308 2.56355 7.62532 2.56355C7.59537 2.56355 7.56542 2.57028 7.53761 2.58822C7.43706 2.64877 7.35362 2.67569 7.25735 2.70933C7.18461 2.73175 7.11187 2.75867 7.02844 2.79679C7.07978 2.62859 7.15466 2.43796 7.25949 2.30564C7.44347 2.0724 7.8093 1.89074 7.94408 1.8257C8.0318 1.78309 8.10668 1.76739 8.20295 1.74944C8.29494 1.7315 8.39763 1.71132 8.52599 1.66198C8.6137 1.62834 8.66077 1.52517 8.62868 1.43322C8.60301 1.36145 8.53883 1.3166 8.47037 1.3166C8.45111 1.3166 8.42972 1.31884 8.41046 1.32781C8.30777 1.36594 8.22862 1.38164 8.1409 1.39958C8.08314 1.41079 8.02324 1.42425 7.9612 1.44219C8.01468 1.31212 8.10667 1.25829 8.19225 1.20222C8.44683 1.03402 8.8961 0.881513 9.25979 0.885999C9.2983 0.885999 9.33467 0.888242 9.37104 0.892727C9.71333 0.930853 10.1006 1.03178 10.6033 1.49602C10.7659 1.64628 11.1681 2.02754 11.6494 2.49627C11.6494 2.49627 11.75 2.55682 11.5767 3.25655C11.5596 3.32159 11.5211 3.427 11.4719 3.55707C11.0847 4.50574 10.2974 6.26179 10.1925 6.44121C10.1326 6.53989 10.0428 6.5982 9.91229 6.62735C9.84597 6.63184 9.74756 6.63408 9.63204 6.63632C9.3689 6.64305 9.04157 6.64978 8.8362 6.68342L8.72281 6.70136C8.4725 6.74173 8.19011 6.78883 7.96762 6.78659C7.73443 6.78434 7.30228 6.77762 7.04769 6.61614C6.9065 6.52643 6.86799 6.35823 6.85943 6.23263C6.84445 5.99715 6.93217 5.78633 6.99849 5.73027C7.05625 5.68093 7.17178 5.6428 7.26591 5.63383C7.31297 5.64056 7.35148 5.6428 7.37929 5.6428C7.40069 5.6428 7.41566 5.6428 7.4178 5.6428C7.42208 5.6428 7.4285 5.6428 7.43278 5.64056C7.4392 5.64056 7.44347 5.64056 7.44989 5.63832C7.45417 5.63832 7.45845 5.63607 7.46273 5.63383C7.46915 5.63383 7.47343 5.62934 7.47984 5.6271C7.48412 5.6271 7.4884 5.62262 7.49268 5.62037C7.49696 5.61813 7.50338 5.61365 7.50766 5.6114C7.51193 5.60916 7.51407 5.60467 7.51835 5.60243C7.52263 5.59795 7.52691 5.59346 7.53333 5.58898C7.53333 5.58898 7.53761 5.58673 7.53761 5.58449C7.55258 5.56655 7.6296 5.46787 7.66383 5.3647C7.68308 5.30864 7.73871 5.1337 7.65527 4.97223C7.65527 4.97223 7.53761 4.73226 7.38357 4.72104C7.37929 4.72104 7.37501 4.72104 7.37074 4.72104C7.2766 4.72104 7.19745 4.77487 7.16322 4.7973C7.12043 4.82645 7.02416 4.95653 7.06267 5.04624C7.09048 5.11128 7.15252 5.1494 7.21456 5.1494C7.2381 5.1494 7.26377 5.14492 7.2873 5.1337C7.30656 5.12473 7.32153 5.11576 7.33651 5.10455C7.33651 5.10455 7.33651 5.10903 7.33865 5.10903L7.35362 5.13819C7.35362 5.13819 7.36432 5.17632 7.34078 5.25033C7.33865 5.2593 7.33223 5.27051 7.32581 5.28172C7.31511 5.28172 7.30656 5.28172 7.29586 5.28172C7.29158 5.28172 7.2873 5.28172 7.28302 5.28172C7.17391 5.26378 7.00063 5.20996 6.84659 5.05745C6.42514 4.64479 6.29892 4.26577 6.44867 3.86208L6.44439 3.85087Z" fill="white"/>
</svg>
