<svg width="26" height="26" viewBox="0 0 26 26" fill="none" xmlns="http://www.w3.org/2000/svg">
<path fill-rule="evenodd" clip-rule="evenodd" d="M9.61906 12L5.40313 7.70013L6.83122 6.29993L13.4005 13L6.83122 19.7001L5.40313 18.2999L9.61906 14H0V12H9.61906Z" fill="#F44D37"/>
<path fill-rule="evenodd" clip-rule="evenodd" d="M5 24.9693C5.17243 24.9832 5.35356 24.9904 5.54391 24.9904H11.4764H15.6239L18.4764 24.9029C21.998 24.8506 22.3587 22.5057 22.7766 19.7889L22.7814 19.7579C22.9237 18.5967 22.9938 17.4277 22.9914 16.2579C24.6189 16.1879 25.0564 15.8729 25.2139 15.7504C25.8789 15.2779 26.0364 14.1404 25.9664 11.9179C25.8964 9.69536 25.7564 8.99536 24.8464 8.41786C24.1751 8.10363 23.4314 7.97665 22.6939 8.05036C22.665 7.64625 22.6213 7.26 22.5799 6.89406C22.5208 6.37255 22.4664 5.89228 22.4664 5.46036C22.0814 1.82036 20.5064 1.10286 18.7564 0.875357C17.8464 0.752857 13.0689 0.752857 12.0189 0.752857C11.9026 0.752857 11.7391 0.752427 11.5391 0.751901C9.93366 0.747679 5.96811 0.737249 5.01891 0.892857C5.01261 0.893746 5.0063 0.894645 5 0.895553V2.6812C5.11914 2.65657 5.23712 2.6406 5.35141 2.62536H5.54391C5.96942 2.53775 8.00601 2.53965 9.92541 2.54144C10.6899 2.54215 11.4358 2.54284 12.0539 2.53786C14.2239 2.52036 17.9339 2.53786 18.5289 2.62536H18.7039C19.4914 2.73036 20.4714 2.87036 20.7689 5.63536C20.7689 6.48879 20.9171 7.53483 21.0771 8.66442C21.091 8.76246 21.1049 8.86113 21.1189 8.96036V9.80036H21.9589C22.6637 9.74905 23.3723 9.80809 24.0589 9.97536C24.247 10.6405 24.318 11.3333 24.2689 12.0229C24.326 12.7918 24.326 13.5639 24.2689 14.3329C23.5924 14.5247 22.8884 14.6016 22.1864 14.5604H21.2589V15.4354C21.2801 16.8263 21.2158 18.2173 21.0664 19.6004C20.5939 22.7679 20.3139 23.2404 18.4589 23.2404H12.8939L12.8589 23.2054H11.9839H5.54391C5.34542 23.2034 5.16484 23.1963 5 23.1811V24.9693Z" fill="#F44D37"/>
</svg>
