<svg width="28" height="28" viewBox="0 0 28 28" fill="none" xmlns="http://www.w3.org/2000/svg">
<path fill-rule="evenodd" clip-rule="evenodd" d="M14 28C21.732 28 28 21.732 28 14C28 6.26801 21.732 0 14 0C6.26801 0 0 6.26801 0 14C0 21.732 6.26801 28 14 28ZM16.8102 7.00095C18.1227 7.22761 19.3781 7.62337 20.5488 8.16052C20.5589 8.1649 20.5676 8.17219 20.5727 8.18238C22.6469 11.2333 23.6713 14.6748 23.2883 18.6368C23.2869 18.6535 23.2782 18.6688 23.2644 18.679C21.6934 19.8328 20.1716 20.5332 18.6708 20.9974C18.6469 21.0047 18.6208 20.996 18.6063 20.9756C18.2596 20.4931 17.9446 19.9844 17.6688 19.4501C17.6529 19.4188 17.6673 19.3809 17.6999 19.3685C18.2002 19.1797 18.6758 18.9538 19.1334 18.6863C19.1696 18.6652 19.1718 18.6134 19.1385 18.5887C19.0415 18.5165 18.9452 18.4407 18.8532 18.3649C18.8359 18.3511 18.8127 18.3481 18.7931 18.3576C15.8226 19.73 12.5684 19.73 9.56241 18.3576C9.54285 18.3489 9.51967 18.3518 9.50304 18.3656C9.4111 18.4414 9.31479 18.5165 9.2185 18.5887C9.18521 18.6134 9.1881 18.6652 9.22429 18.6863C9.68185 18.9487 10.1575 19.1797 10.6571 19.3692C10.6896 19.3816 10.7048 19.4188 10.6889 19.4501C10.4189 19.9851 10.1039 20.4938 9.75064 20.9763C9.73543 20.996 9.7101 21.0047 9.6862 20.9974C8.19264 20.5332 6.67083 19.8328 5.09979 18.679C5.08676 18.6688 5.07735 18.6528 5.0759 18.636C4.7559 15.2091 5.40821 11.7391 7.78939 8.18166C7.79516 8.17219 7.80385 8.1649 7.81399 8.16052C8.98539 7.62264 10.2408 7.22689 11.5526 7.00095C11.5765 6.99731 11.6004 7.00824 11.6127 7.02937C11.7749 7.31653 11.9602 7.6846 12.0855 7.98559C13.4683 7.77424 14.8728 7.77424 16.2845 7.98559C16.4098 7.69115 16.5886 7.31653 16.7501 7.02937C16.7624 7.00751 16.7863 6.99658 16.8102 7.00095ZM9.4871 14.6982C9.4871 15.7185 10.2328 16.5494 11.1378 16.5494C12.0572 16.5494 12.7884 15.7185 12.7884 14.6982C12.8029 13.6851 12.0645 12.8469 11.1378 12.8469C10.2183 12.8469 9.4871 13.6778 9.4871 14.6982ZM15.5903 14.6982C15.5903 15.7185 16.3359 16.5494 17.2409 16.5494C18.1676 16.5494 18.8916 15.7185 18.8916 14.6982C18.9061 13.6851 18.1676 12.8469 17.2409 12.8469C16.3215 12.8469 15.5903 13.6778 15.5903 14.6982Z" fill="white"/>
</svg>
