<svg width="26" height="26" viewBox="0 0 26 26" fill="none" xmlns="http://www.w3.org/2000/svg">
<path d="M18.1172 7L24 13M24 13L18.1172 19M24 13H12" stroke="#F44D37" stroke-width="2"/>
<path fill-rule="evenodd" clip-rule="evenodd" d="M21 0.91063C20.9193 0.897642 20.838 0.885967 20.7564 0.875357C19.8464 0.752857 15.0689 0.752857 14.0189 0.752857C13.9026 0.752857 13.7391 0.752427 13.5391 0.751901C11.9337 0.747679 7.96811 0.737249 7.01891 0.892857C5.5314 1.10286 3.92141 1.82036 3.51891 5.44286C3.51891 5.87853 3.46899 6.42118 3.41467 7.01161C3.3839 7.34611 3.35172 7.69594 3.32641 8.05036C2.59271 7.98941 1.85502 8.10337 1.17391 8.38286C0.26706 8.99323 0.211779 9.74264 0.0555394 11.8607L0.0539051 11.8829C-0.103595 14.0179 0.141405 15.2954 0.806405 15.7679C1.47356 16.1782 2.24596 16.385 3.02891 16.3629C3.02711 17.5327 3.09724 18.7016 3.23891 19.8629C3.65891 22.5754 4.04391 24.9904 7.54391 24.9904H13.4764H17.6239L20.4764 24.9029C20.6593 24.9001 20.8337 24.8912 21 24.8764V23.2216C20.8361 23.235 20.6564 23.2404 20.4589 23.2404H14.8939L14.8589 23.2054H13.9839H7.54391C5.72391 23.1879 5.40891 22.7329 4.93641 19.5654C4.78737 18.1881 4.72309 16.803 4.74391 15.4179V14.5429H3.81641C2.60891 14.5429 1.89141 14.4379 1.89141 14.4379C1.71029 13.6283 1.66886 12.7938 1.76891 11.9704C1.76891 10.5179 1.94391 10.0629 2.11891 9.95786C2.79468 9.84058 3.48147 9.79949 4.1664 9.83536H5.0064V8.99536C5.04249 8.46858 5.09642 7.96263 5.14735 7.48488C5.21993 6.80401 5.28641 6.1804 5.28641 5.63536C5.60141 2.87036 6.56391 2.73036 7.35141 2.62536H7.54391C7.96942 2.53775 10.006 2.53965 11.9254 2.54144C12.6899 2.54215 13.4358 2.54284 14.0539 2.53786C16.2239 2.52036 19.9339 2.53786 20.5289 2.62536H20.7039C20.8003 2.6382 20.8995 2.65157 21 2.67021V0.91063Z" fill="#F44D37"/>
</svg>
