<svg width="19" height="19" viewBox="0 0 19 19" fill="none" xmlns="http://www.w3.org/2000/svg">
<path fill-rule="evenodd" clip-rule="evenodd" d="M9.5 2.2619C5.50251 2.2619 2.2619 5.50251 2.2619 9.5C2.2619 13.4975 5.50251 16.7381 9.5 16.7381C13.4975 16.7381 16.7381 13.4975 16.7381 9.5C16.7381 5.50251 13.4975 2.2619 9.5 2.2619ZM0 9.5C0 4.25329 4.25329 0 9.5 0C14.7467 0 19 4.25329 19 9.5C19 14.7467 14.7467 19 9.5 19C4.25329 19 0 14.7467 0 9.5ZM10.8568 9.5L13.6319 12.2751L12.3057 13.6012L9.53066 10.8261L6.72448 13.6323L5.39833 12.3062L8.20452 9.5L5.23293 6.52842L6.55908 5.20227L9.53066 8.17385L12.4711 5.2334L13.7973 6.55955L10.8568 9.5Z" fill="white"/>
</svg>
