<svg width="28" height="28" viewBox="0 0 28 28" fill="none" xmlns="http://www.w3.org/2000/svg">
<path d="M14 0C6.272 0 0 6.272 0 14C0 21.728 6.272 28 14 28C21.728 28 28 21.728 28 14C28 6.272 21.728 0 14 0ZM22.904 17.136C22.736 17.752 22.68 17.948 22.596 18.116L22.54 18.228C21.784 19.964 20.104 21.084 16.632 21.448H11.704C8.456 21.084 6.608 19.964 5.684 18.256C5.684 18.256 5.656 18.2 5.628 18.144C5.544 17.976 5.46 17.78 5.376 17.584C5.32 17.5 5.32 17.528 5.32 17.444C4.984 16.52 4.844 15.456 4.844 14.252C4.844 12.684 5.404 11.396 6.356 10.388C6.216 10.024 5.712 8.54 6.496 6.58C6.496 6.58 7.7 6.188 10.472 8.064C11.62 7.756 12.88 7.588 14.084 7.588C15.204 7.588 16.324 7.728 17.36 7.98C19.292 6.692 20.44 6.524 20.916 6.524C21.112 6.524 21.196 6.552 21.196 6.552C21.868 8.232 21.616 9.52 21.448 10.108C22.484 11.144 23.128 12.516 23.128 14.224C23.156 15.456 23.072 16.52 22.904 17.136Z" fill="white"/>
<path d="M19.0678 13.4962C18.5638 12.9642 17.8638 12.8242 17.0518 12.8242C16.1838 12.8242 15.2038 12.9922 14.1678 12.9922C12.1238 12.9922 10.3318 12.4042 9.26777 13.5242C8.62377 14.1962 8.25977 15.0082 8.25977 15.9042C8.25977 19.5722 10.9198 20.1322 14.1958 20.1322C17.4718 20.1322 20.1318 20.0202 20.1318 15.9042C20.0758 15.0082 19.7118 14.1962 19.0678 13.4962ZM10.9478 18.1442C10.2758 18.1442 9.71577 17.2202 9.71577 16.1002C9.71577 14.9522 10.2758 14.0562 10.9478 14.0562C11.6198 14.0562 12.1798 14.9802 12.1798 16.1002C12.1798 17.2202 11.6198 18.1442 10.9478 18.1442ZM17.5558 18.1442C16.8838 18.1442 16.3238 17.2202 16.3238 16.1002C16.3238 14.9522 16.8838 14.0562 17.5558 14.0562C18.2278 14.0562 18.7878 14.9802 18.7878 16.1002C18.7878 17.2202 18.2558 18.1442 17.5558 18.1442Z" fill="white"/>
</svg>
