<svg width="24" height="24" viewBox="0 0 24 24" fill="none" xmlns="http://www.w3.org/2000/svg">
<circle cx="12" cy="12" r="11.5" stroke="white"/>
<path fill-rule="evenodd" clip-rule="evenodd" d="M12 14C10.8954 14 10 13.1046 10 12L10 6C10 4.89543 10.8954 4 12 4C13.1046 4 14 4.89543 14 6L14 12C14 13.1046 13.1046 14 12 14ZM11.71 19.5C10.7656 19.5 10 18.7344 10 17.79C10 16.8456 10.7656 16.08 11.71 16.08L12.29 16.08C13.2344 16.08 14 16.8456 14 17.79C14 18.7344 13.2344 19.5 12.29 19.5L11.71 19.5Z" fill="white"/>
</svg>
