<svg width="21" height="20" viewBox="0 0 21 20" fill="none" xmlns="http://www.w3.org/2000/svg">
<path fill-rule="evenodd" clip-rule="evenodd" d="M10.002 20C15.5248 20 20.002 15.5228 20.002 10C20.002 4.47715 15.5248 0 10.002 0C4.47911 0 0.00195312 4.47715 0.00195312 10C0.00195312 15.5228 4.47911 20 10.002 20ZM11.3323 10.8889C11.5081 10.6258 11.602 10.3165 11.602 10C11.6015 9.5758 11.4327 9.16912 11.1328 8.86917C10.8328 8.56921 10.4262 8.40049 10.002 8.4C9.6855 8.4 9.37616 8.49384 9.11304 8.66965C8.84992 8.84546 8.64485 9.09534 8.52375 9.38771C8.40265 9.68007 8.37096 10.0018 8.4327 10.3121C8.49443 10.6225 8.64682 10.9076 8.87058 11.1314C9.09435 11.3551 9.37944 11.5075 9.68981 11.5693C10.0002 11.631 10.3219 11.5993 10.6142 11.4782C10.9066 11.3571 11.1565 11.152 11.3323 10.8889ZM15.002 12.2V7.8C15.0011 7.05765 14.7058 6.34595 14.1809 5.82103C13.656 5.29611 12.9443 5.00084 12.202 5H7.80195C7.05961 5.00084 6.3479 5.29611 5.82298 5.82103C5.29806 6.34595 5.00279 7.05765 5.00195 7.8V12.2C5.00279 12.9423 5.29806 13.6541 5.82298 14.179C6.3479 14.7039 7.05961 14.9992 7.80195 15H12.202C12.9443 14.9992 13.656 14.7039 14.1809 14.179C14.7058 13.6541 15.0011 12.9423 15.002 12.2ZM11.9975 8.66663C12.2612 9.06131 12.402 9.52532 12.402 10C12.4012 10.6363 12.1481 11.2463 11.6982 11.6963C11.2483 12.1462 10.6383 12.3993 10.002 12.4C9.52728 12.4 9.06326 12.2592 8.66858 11.9955C8.27391 11.7318 7.96629 11.357 7.78464 10.9184C7.60299 10.4799 7.55546 9.99734 7.64807 9.53178C7.74067 9.06623 7.96925 8.63859 8.3049 8.30294C8.64054 7.9673 9.06818 7.73872 9.53374 7.64612C9.99929 7.55351 10.4819 7.60104 10.9204 7.78269C11.3589 7.96434 11.7338 8.27195 11.9975 8.66663ZM13.1008 7.06666C13.1668 7.16533 13.202 7.28133 13.202 7.4C13.202 7.55913 13.1387 7.71174 13.0262 7.82426C12.9137 7.93679 12.7611 8 12.602 8C12.4833 8 12.3673 7.96481 12.2686 7.89888C12.1699 7.83295 12.093 7.73925 12.0476 7.62961C12.0022 7.51997 11.9903 7.39933 12.0135 7.28295C12.0366 7.16656 12.0938 7.05965 12.1777 6.97574C12.2616 6.89182 12.3685 6.83468 12.4849 6.81153C12.6013 6.78838 12.7219 6.80026 12.8316 6.84567C12.9412 6.89108 13.0349 6.96799 13.1008 7.06666Z" fill="white"/>
</svg>
