<svg width="28" height="28" viewBox="0 0 28 28" fill="none" xmlns="http://www.w3.org/2000/svg">
<path fill-rule="evenodd" clip-rule="evenodd" d="M14 28C21.732 28 28 21.732 28 14C28 6.26801 21.732 0 14 0C6.26801 0 0 6.26801 0 14C0 21.732 6.26801 28 14 28ZM15.8625 15.2445C16.1086 14.8761 16.24 14.443 16.24 14C16.2393 13.4061 16.0031 12.8368 15.5832 12.4168C15.1632 11.9969 14.5939 11.7607 14 11.76C13.557 11.76 13.1239 11.8914 12.7555 12.1375C12.3872 12.3836 12.1 12.7335 11.9305 13.1428C11.761 13.5521 11.7166 14.0025 11.803 14.437C11.8895 14.8715 12.1028 15.2706 12.4161 15.5839C12.7294 15.8972 13.1285 16.1105 13.563 16.197C13.9975 16.2834 14.4479 16.239 14.8572 16.0695C15.2665 15.9 15.6164 15.6128 15.8625 15.2445ZM21 17.08V10.92C20.9988 9.88071 20.5854 8.88433 19.8506 8.14944C19.1157 7.41455 18.1193 7.00118 17.08 7H10.92C9.88071 7.00118 8.88433 7.41455 8.14944 8.14944C7.41455 8.88433 7.00118 9.88071 7 10.92V17.08C7.00118 18.1193 7.41455 19.1157 8.14944 19.8506C8.88433 20.5854 9.88071 20.9988 10.92 21H17.08C18.1193 20.9988 19.1157 20.5854 19.8506 19.8506C20.5854 19.1157 20.9988 18.1193 21 17.08ZM16.7937 12.1333C17.1629 12.6858 17.36 13.3355 17.36 14C17.359 14.8908 17.0047 15.7449 16.3748 16.3748C15.7449 17.0047 14.8908 17.359 14 17.36C13.3355 17.36 12.6858 17.1629 12.1333 16.7937C11.5807 16.4245 11.1501 15.8998 10.8958 15.2858C10.6415 14.6719 10.5749 13.9963 10.7046 13.3445C10.8342 12.6927 11.1542 12.094 11.6241 11.6241C12.094 11.1542 12.6927 10.8342 13.3445 10.7046C13.9963 10.5749 14.6719 10.6415 15.2858 10.8958C15.8998 11.1501 16.4245 11.5807 16.7937 12.1333ZM18.3384 9.89332C18.4307 10.0315 18.48 10.1939 18.48 10.36C18.48 10.5828 18.3915 10.7964 18.234 10.954C18.0764 11.1115 17.8628 11.2 17.64 11.2C17.4739 11.2 17.3115 11.1507 17.1733 11.0584C17.0352 10.9661 16.9275 10.8349 16.8639 10.6815C16.8004 10.528 16.7837 10.3591 16.8161 10.1961C16.8486 10.0332 16.9286 9.88351 17.046 9.76603C17.1635 9.64855 17.3132 9.56855 17.4761 9.53614C17.6391 9.50373 17.808 9.52036 17.9615 9.58394C18.1149 9.64752 18.2461 9.75518 18.3384 9.89332Z" fill="white"/>
</svg>
