<svg width="32" height="24" viewBox="0 0 32 24" fill="none" xmlns="http://www.w3.org/2000/svg">
<path fill-rule="evenodd" clip-rule="evenodd" d="M14.4548 0.900783C15.6856 -0.0443306 17.4659 0.833166 17.4659 2.385V21.615C17.4659 23.1668 15.6856 24.0443 14.4548 23.0992L7.71746 17.9259H1.87134C0.837901 17.9259 0 17.088 0 16.0546V7.94543C0 6.91199 0.837901 6.07408 1.87134 6.07408H7.71746L14.4548 0.900783ZM28.2292 21.0898C28.0275 21.5656 28.2263 22.1226 28.6939 22.3426C29.1614 22.5627 29.7206 22.3624 29.9236 21.8872C32.6921 15.4056 32.6921 8.07111 29.9236 1.58954C29.7206 1.11432 29.1614 0.914056 28.6939 1.13409C28.2263 1.35412 28.0275 1.9111 28.2292 2.3869C30.7618 8.36292 30.7618 15.1138 28.2292 21.0898ZM24.5078 17.9564C24.3044 18.4315 24.489 18.9926 24.9512 19.2237C25.4134 19.4548 25.9779 19.2682 26.1843 18.7944C28.1438 14.2956 28.1438 9.181 26.1843 4.68219C25.9779 4.20842 25.4134 4.02183 24.9512 4.25293C24.489 4.48403 24.3044 5.04513 24.5078 5.52018C26.2075 9.49022 26.2075 13.9864 24.5078 17.9564ZM20.7024 7.37238C20.5273 6.88619 20.7365 6.33409 21.2087 6.12422C21.6809 5.91434 22.2369 6.12626 22.4164 6.61082C23.6421 9.91854 23.6421 13.558 22.4164 16.8657C22.2369 17.3502 21.6809 17.5622 21.2087 17.3523C20.7365 17.1424 20.5273 16.5903 20.7024 16.1041C21.7184 13.2828 21.7184 10.1937 20.7024 7.37238Z" fill="white"/>
</svg>
