<svg width="29" height="28" viewBox="0 0 29 28" fill="none" xmlns="http://www.w3.org/2000/svg">
<path fill-rule="evenodd" clip-rule="evenodd" d="M14.9961 28C22.7281 28 28.9961 21.732 28.9961 14C28.9961 6.26801 22.7281 0 14.9961 0C7.26411 0 0.996094 6.26801 0.996094 14C0.996094 21.732 7.26411 28 14.9961 28ZM10.6368 20C13.7519 20 16.2773 17.5376 16.2773 14.5001C16.2773 11.4626 13.7521 9 10.6368 9C7.52151 9 4.99609 11.4631 4.99609 14.5001C4.99609 17.5371 7.5217 20 10.6368 20ZM19.6448 19.678C21.2024 19.678 22.4651 17.3593 22.4651 14.5001H22.4649C22.4649 11.6402 21.2022 9.32218 19.6446 9.32218C18.0869 9.32218 16.8244 11.6409 16.8244 14.5001C16.8244 17.3593 18.0871 19.678 19.6448 19.678ZM24.0042 19.1387C24.5521 19.1387 24.9961 17.0612 24.9961 14.5001C24.9961 11.9382 24.5519 9.8615 24.0042 9.8615C23.4565 9.8615 23.0124 11.9384 23.0124 14.5001C23.0124 17.0618 23.4563 19.1387 24.0042 19.1387Z" fill="white"/>
</svg>
