<svg width="28" height="28" viewBox="0 0 28 28" fill="none" xmlns="http://www.w3.org/2000/svg">
<path d="M14 0C6.272 0 0 6.272 0 14C0 21.728 6.272 28 14 28C21.728 28 28 21.728 28 14C28 6.272 21.728 0 14 0ZM21.476 10.192C21.56 12.74 20.832 14.784 19.88 16.38C18.956 17.948 17.696 19.208 16.184 20.104C14.672 21.028 12.656 21.7 10.276 21.616C8.064 21.56 6.3 20.916 4.872 20.048C4.788 19.992 4.676 19.936 4.62 19.852C7.084 20.132 8.96 19.32 10.304 18.284C9.324 18.256 8.568 17.92 8.008 17.444C7.448 16.996 6.972 16.38 6.72 15.596C7.224 15.708 7.952 15.68 8.4 15.54C7.476 15.344 6.804 14.84 6.272 14.224C5.74 13.636 5.376 12.824 5.376 11.704C5.404 11.648 5.488 11.732 5.544 11.76C5.964 11.956 6.496 12.124 7.084 12.152C6.132 11.48 5.18 10.192 5.46 8.372C5.544 7.84 5.712 7.392 5.936 7C6.188 7.252 6.412 7.532 6.664 7.784C8.4 9.52 10.64 10.78 13.888 11.032C13.44 9.044 14.476 7.56 15.736 6.832C16.436 6.44 17.416 6.244 18.368 6.44C19.236 6.608 19.908 7.056 20.412 7.56C21.364 7.392 22.12 7.028 22.848 6.636C22.512 7.56 21.98 8.288 21.168 8.736C21.952 8.68 22.708 8.4 23.352 8.148C22.876 8.96 22.204 9.604 21.476 10.192Z" fill="white"/>
</svg>
