<svg width="60" height="61" viewBox="0 0 60 61" fill="none" xmlns="http://www.w3.org/2000/svg">
<circle cx="30" cy="30.9766" r="30" fill="#F44D37"/>
<path d="M44.0337 18.4634C41.5251 17.3124 38.835 16.4643 36.0223 15.9786C35.9711 15.9692 35.9199 15.9927 35.8936 16.0395C35.5476 16.6548 35.1644 17.4576 34.896 18.0885C31.8708 17.6356 28.8612 17.6356 25.898 18.0885C25.6296 17.4436 25.2324 16.6548 24.8849 16.0395C24.8585 15.9942 24.8074 15.9708 24.7561 15.9786C21.945 16.4628 19.255 17.3108 16.7448 18.4634C16.7231 18.4728 16.7045 18.4884 16.6921 18.5087C11.5896 26.1318 10.1918 33.5674 10.8775 40.9109C10.8806 40.9469 10.9008 40.9812 10.9287 41.0031C14.2952 43.4754 17.5562 44.9763 20.7567 45.9711C20.8079 45.9867 20.8622 45.968 20.8948 45.9258C21.6519 44.8919 22.3267 43.8018 22.9053 42.6554C22.9395 42.5883 22.9069 42.5086 22.8371 42.4821C21.7667 42.076 20.7474 41.5809 19.7669 41.0187C19.6894 40.9734 19.6831 40.8625 19.7545 40.8094C19.9608 40.6548 20.1672 40.4939 20.3642 40.3315C20.3999 40.3018 20.4495 40.2956 20.4914 40.3143C26.9327 43.2552 33.9062 43.2552 40.2715 40.3143C40.3134 40.294 40.3631 40.3003 40.4003 40.3299C40.5974 40.4924 40.8037 40.6548 41.0116 40.8094C41.0829 40.8625 41.0783 40.9734 41.0007 41.0187C40.0202 41.5919 39.001 42.076 37.929 42.4805C37.8592 42.5071 37.8281 42.5883 37.8623 42.6554C38.4533 43.8002 39.1282 44.8903 39.8713 45.9242C39.9023 45.968 39.9581 45.9867 40.0094 45.9711C43.2254 44.9763 46.4864 43.4754 49.8529 41.0031C49.8824 40.9812 49.901 40.9484 49.9041 40.9125C50.7247 32.4226 48.5295 25.0479 44.0848 18.5102C44.074 18.4884 44.0554 18.4728 44.0337 18.4634ZM23.8673 36.4395C21.928 36.4395 20.3301 34.6591 20.3301 32.4726C20.3301 30.2861 21.897 28.5057 23.8673 28.5057C25.853 28.5057 27.4354 30.3017 27.4044 32.4726C27.4044 34.6591 25.8375 36.4395 23.8673 36.4395ZM36.9454 36.4395C35.0062 36.4395 33.4082 34.6591 33.4082 32.4726C33.4082 30.2861 34.9751 28.5057 36.9454 28.5057C38.9312 28.5057 40.5135 30.3017 40.4826 32.4726C40.4826 34.6591 38.9312 36.4395 36.9454 36.4395Z" fill="white"/>
</svg>
