<svg width="800" height="77" viewBox="0 0 800 77" fill="none" xmlns="http://www.w3.org/2000/svg">
<path d="M342.992 60.9924C342.905 60.9514 337.744 58.6957 337.652 58.6548C336.624 58.1842 335.478 57.9233 334.276 57.9233H326.568V46.8287H338.015C342.527 46.8287 346.189 43.1612 346.189 38.6497C346.189 35.243 344.092 32.3172 341.125 31.0896C341.038 31.0486 335.877 28.7929 335.785 28.752C334.757 28.2814 333.611 28.0205 332.409 28.0205H326.568V18.8031H339.882C344.394 18.8031 348.061 15.1356 348.061 10.6241C348.061 7.21743 345.964 4.2916 342.992 3.06398C342.905 3.02306 337.744 0.767301 337.652 0.72638C336.624 0.266022 335.483 3.73079e-05 334.276 3.73079e-05H304.379C301.601 3.73079e-05 299.115 1.25323 297.442 3.21743C297.417 3.2072 292.113 0.884948 292.021 0.849142C290.865 0.317173 289.575 0.0153826 288.22 0.0153826C288.22 0.0153826 284.982 3.73079e-05 284.701 3.73079e-05H258.373C255.309 3.73079e-05 252.598 1.51922 250.946 3.84147C250.573 3.60618 250.179 3.39646 249.77 3.21743C249.683 3.17651 244.522 0.920753 244.43 0.879833C243.238 0.312058 241.903 -0.00507778 240.491 -0.00507778H210.389C207.084 -0.00507778 204.205 1.72382 202.614 4.34786C202.097 4.04096 201.565 3.77497 201.018 3.54479C200.931 3.50387 195.77 1.24812 195.678 1.2072C194.061 0.491086 192.302 0.112569 190.476 0.112569H190.465C184.026 0.112569 178.701 4.80822 177.775 11.0282C176.583 7.70848 174.072 5.04863 170.88 3.6471C170.793 3.60618 165.632 1.35042 165.54 1.3095C163.887 0.537122 162.041 0.112569 160.092 0.112569C156.588 0.112569 153.315 1.49876 150.875 4.01538C150.67 4.23022 150.476 4.45017 150.286 4.67011C149.529 4.11257 148.716 3.65221 147.857 3.29927C147.77 3.25835 142.609 1.00259 142.517 0.961674C141.079 0.327403 139.514 -0.0101929 137.898 -0.0101929H105.453C102.788 -0.0101929 100.394 1.1407 98.7263 2.96679C98.6445 2.93098 93.7647 0.797991 93.6778 0.757071C92.6292 0.266022 91.4578 -0.0101929 90.2251 -0.0101929H60.3274C57.5499 -0.0101929 55.0639 1.243 53.3964 3.2072C53.3606 3.19185 48.0409 0.864487 47.954 0.828682C46.7928 0.301828 45.5038 3.73079e-05 44.1432 3.73079e-05H9.10997C4.08696 3.73079e-05 0 4.08699 0 9.11001V61.4271C0 66.7673 3.27366 71.3555 7.92327 73.289C8.01023 73.33 13.1714 75.5857 13.2634 75.6266C14.8542 76.3325 16.6087 76.7264 18.4552 76.7264C23.6573 76.7264 28.1432 73.6164 30.1586 69.1612C31.5294 70.9719 33.3606 72.4092 35.4834 73.2942C35.5703 73.3351 40.7315 75.5908 40.8235 75.6318C42.4092 76.3376 44.1688 76.7315 46.0154 76.7315C49.6624 76.7315 52.9565 75.2021 55.2992 72.752C55.7801 73.0742 56.2916 73.3504 56.8338 73.5755C56.9207 73.6164 62.0818 75.8722 62.1739 75.9131C63.3248 76.4399 64.5985 76.7315 65.9437 76.7315H95.8414C97.7238 76.7315 99.4527 76.0921 100.834 75.0231C100.885 75.0486 103.841 76.3428 103.934 76.3734C104.399 76.5985 104.916 76.7315 105.468 76.7315H124.133C125.775 76.7315 127.156 75.5908 127.535 74.0614C127.606 74.0972 132.731 76.3376 132.824 76.3734C133.294 76.6036 133.816 76.7315 134.368 76.7315H152.844C153.974 76.7315 155.038 76.1791 155.698 75.2584C156.353 74.3428 156.527 73.1509 156.159 72.0819L154.87 68.3428C156.629 70.041 158.639 71.3913 160.818 72.3632C160.905 72.4041 166.067 74.6599 166.159 74.7008C168.854 75.954 171.816 76.6138 174.87 76.6138H186.997C192.215 76.6138 197.156 74.6803 200.987 71.1714C201.192 71.4476 201.407 71.7187 201.652 71.9693C202.404 72.7417 203.289 73.33 204.251 73.7238C204.338 73.7647 209.499 76.0205 209.591 76.0614C210.563 76.5013 211.622 76.7366 212.721 76.7366H221.299C224.767 76.7366 227.698 74.4092 228.614 71.2277H229.176C229.99 72.3121 231.084 73.1714 232.353 73.6982C232.44 73.7392 237.601 75.9949 237.693 76.0358C238.66 76.4809 239.734 76.7366 240.87 76.7366H249.473C251.555 76.7366 253.494 75.9131 254.936 74.4195C255.325 74.0154 255.662 73.5806 255.949 73.1151C256.184 73.2277 256.419 73.3351 256.665 73.4323C256.752 73.4732 261.913 75.7289 262.005 75.7699C263.432 76.3888 265.003 76.7366 266.655 76.7366C273.13 76.7366 278.404 71.463 278.404 64.9873V64.7264H293.857C294.348 64.7264 294.829 64.6855 295.299 64.6087V65.1765C295.299 68.9719 297.632 72.2302 300.936 73.5959C301.023 73.6369 306.184 75.8926 306.276 75.9335C307.417 76.4502 308.685 76.7417 310.015 76.7417H339.913C344.425 76.7417 348.092 73.0742 348.092 68.5678C348.061 65.1458 345.964 62.2149 342.992 60.9924ZM93.6726 58.6855C92.6241 58.1944 91.4578 57.9233 90.2251 57.9233H82.5166V46.8287H93.9642C94.7928 46.8287 95.5908 46.6957 96.3478 46.4655V59.8517H96.3427C96.2506 59.8108 93.7596 58.7264 93.6726 58.6855ZM96.3478 30.7775C96.2762 30.7417 91.9386 28.8491 91.8517 28.8133C90.7929 28.3121 89.6113 28.0256 88.3632 28.0256H82.5218V18.8031H95.8363C96.0102 18.8031 96.179 18.798 96.353 18.7878V30.7775H96.3478Z" fill="black"/>
<path d="M51.1509 9.11003V61.4272C51.1509 67.3607 46.3427 72.174 40.4041 72.174C34.4706 72.174 29.6624 67.3658 29.6624 61.4272V25.1612C29.6624 23.4834 28.3018 22.1228 26.624 22.1228C24.9463 22.1228 23.5857 23.4834 23.5857 25.1612V61.4272C23.5857 67.3607 18.7775 72.174 12.844 72.174C6.91047 72.174 2.09717 67.3658 2.09717 61.4272V9.11003C2.09717 5.23791 5.23272 2.10236 9.10484 2.10236H44.1432C48.0153 2.10236 51.1509 5.23791 51.1509 9.11003Z" fill="white"/>
<path d="M148.552 70.3172L145.289 60.8594C144.117 57.2584 142.557 54.8543 135.529 54.8543C135.933 54.8543 137.892 54.8287 137.892 54.8287C143.054 54.8287 147.238 50.6446 147.238 45.4834V11.4476C147.238 6.2865 143.054 2.10236 137.898 2.10236H105.452C101.58 2.10236 98.4448 5.23791 98.4448 9.11003V70.7724C98.4448 71.5448 99.074 72.174 99.8464 72.174H118.511C119.284 72.174 119.913 71.5448 119.913 70.7724V62.1177C119.913 60.8747 120.921 59.8671 122.163 59.8671C123.146 59.8671 124.015 60.5013 124.317 61.4425L127.412 71.2021C127.596 71.7852 128.138 72.1791 128.747 72.1791H147.222C148.189 72.174 148.864 71.2226 148.552 70.3172ZM125.99 46.8134C125.99 48.486 124.629 49.8466 122.956 49.8466C121.279 49.8466 119.918 48.486 119.918 46.8134V25.1561C119.918 23.4783 121.279 22.1177 122.956 22.1177C124.629 22.1177 125.99 23.4783 125.99 25.1561V46.8134Z" fill="white"/>
<path d="M201.187 12.2507L199.821 55.9591C198.583 65.0793 190.773 72.0563 181.371 72.0563H169.243C159.187 72.0563 150.941 64.0665 150.629 54.0154L149.366 13.2942C149.182 7.23789 154.036 2.2251 160.097 2.2251C165.862 2.2251 170.599 6.77753 170.824 12.5422L172.251 49.1867C172.312 50.8133 173.652 52.1023 175.279 52.1023C176.906 52.1023 178.246 50.8185 178.307 49.1867L179.739 12.5422C179.964 6.77753 184.701 2.2251 190.466 2.2251H190.476C196.189 2.21999 200.834 6.67012 201.187 12.2507Z" fill="white"/>
<path d="M96.3019 66.1024C96.3019 67.7801 95.6216 69.2993 94.5219 70.3939C93.4272 71.4937 91.9029 72.174 90.2252 72.174H60.3275C56.4554 72.174 53.3198 69.0384 53.3198 65.1663V9.11003C53.3198 5.23791 56.4554 2.10236 60.3275 2.10236H90.2252C93.5807 2.10236 96.3019 4.82358 96.3019 8.17397C96.3019 9.85172 95.6216 11.3709 94.5219 12.4706C93.4272 13.5704 91.9029 14.2507 90.2252 14.2507H74.8083V30.1279H88.3582C91.7086 30.1279 94.4298 32.8492 94.4298 36.1995C94.4298 37.8773 93.7495 39.3965 92.6497 40.4962C91.5551 41.596 90.0308 42.2763 88.3582 42.2763H74.8083V60.0256H90.2252C93.5807 60.0256 96.3019 62.7417 96.3019 66.1024Z" fill="white"/>
<path d="M340.353 66.1024C340.353 67.7801 339.672 69.2993 338.573 70.3939C337.478 71.4937 335.954 72.174 334.276 72.174H304.378C300.506 72.174 297.371 69.0384 297.371 65.1663V9.11003C297.371 5.23791 300.506 2.10236 304.378 2.10236H334.276C337.631 2.10236 340.353 4.82358 340.353 8.17397C340.353 9.85172 339.672 11.3709 338.573 12.4706C337.478 13.5704 335.954 14.2507 334.276 14.2507H318.859V30.1279H332.409C335.759 30.1279 338.481 32.8492 338.481 36.1995C338.481 37.8773 337.8 39.3965 336.701 40.4962C335.606 41.596 334.082 42.2763 332.409 42.2763H318.859V60.0256H334.276C337.637 60.0256 340.353 62.7417 340.353 66.1024Z" fill="white"/>
<path d="M247.504 8.88496C247.381 5.10491 244.281 2.10236 240.501 2.10236H210.399C206.614 2.10236 203.514 5.11003 203.397 8.89008L201.596 66.4962C201.499 69.6062 203.99 72.174 207.1 72.174H215.678C217.197 72.174 218.573 71.555 219.576 70.5627C220.573 69.5653 221.187 68.1893 221.187 66.665H229.744C229.744 69.7085 232.21 72.174 235.248 72.174H243.852C246.962 72.174 249.458 69.6011 249.356 66.4911L247.504 8.88496ZM225.473 56.7571C223.304 56.7571 221.57 54.9566 221.652 52.7929L222.742 24.8185C222.798 23.3504 224.005 22.1893 225.473 22.1893C226.936 22.1893 228.143 23.3504 228.205 24.8185L229.289 52.7929C229.371 54.9566 227.637 56.7571 225.473 56.7571Z" fill="white"/>
<path d="M288.225 2.1177C288.225 2.1177 284.987 2.10236 284.706 2.10236H258.378C254.506 2.10236 251.371 5.23791 251.371 9.11003V62.5218C251.371 67.8517 255.693 72.1688 261.018 72.1688C266.342 72.1688 270.665 67.8466 270.665 62.5218V60.1586H288.22C292.092 60.1586 295.227 57.018 295.227 53.151V9.12537C295.232 5.25325 292.097 2.1177 288.225 2.1177ZM276.158 46.9924C276.158 48.5167 274.926 49.7494 273.401 49.7494C271.882 49.7494 270.644 48.5167 270.644 46.9924V24.9463C270.644 23.4272 271.882 22.1893 273.401 22.1893C274.926 22.1893 276.158 23.4272 276.158 24.9463V46.9924Z" fill="white"/>
<path d="M794.931 60.9924C794.844 60.9514 789.683 58.6957 789.591 58.6548C788.563 58.1842 787.417 57.9233 786.215 57.9233H778.507V46.8287H789.954C794.461 46.8287 798.128 43.1611 798.128 38.6496C798.128 35.243 796.031 32.3172 793.064 31.0895C792.977 31.0486 787.816 28.7929 787.724 28.7519C786.696 28.2814 785.55 28.0205 784.348 28.0205H778.507V18.8031H791.821C796.328 18.8031 800 15.1356 800 10.6241C800 7.21742 797.903 4.29159 794.931 3.06396C794.844 3.02304 789.683 0.767289 789.591 0.726368C788.563 0.25578 787.417 -0.00508965 786.215 -0.00508965H756.317C753.55 -0.00508965 751.074 1.23788 749.402 3.19184C749.381 3.18161 744.082 0.864476 743.995 0.82867C742.839 0.296701 741.555 -0.00508965 740.2 -0.00508965H709.018C706.9 -0.00508965 704.947 0.721253 703.397 1.94376C703.356 1.9233 699.893 0.404117 699.801 0.368312C699.299 0.133018 698.742 -0.00508965 698.154 -0.00508965H680.19C678.588 -0.00508965 677.218 0.971892 676.634 2.3632C676.594 2.34274 673.126 0.82867 673.034 0.787749C671.898 0.27624 670.64 -0.0102047 669.315 -0.0102047H634.537C631.765 -0.0102047 629.289 1.23276 627.617 3.18673C627.591 3.1765 622.292 0.85936 622.2 0.81844C621.044 0.28647 619.76 -0.0153198 618.399 -0.0153198H586.169C583.402 -0.0153198 580.921 1.23276 579.248 3.18673C579.228 3.1765 573.944 0.864476 573.852 0.82867C572.696 0.296701 571.412 2.54437e-05 570.062 2.54437e-05C570.062 2.54437e-05 566.824 -0.0153198 566.542 -0.0153198H540.215C537.453 -0.0153198 534.977 1.22253 533.305 3.17138C533.289 3.16627 528.005 0.854245 527.913 0.813325C526.757 0.281355 525.479 -0.0153198 524.123 -0.0153198H501.253C499.407 -0.0153198 497.719 0.675217 496.425 1.80565C496.348 1.76985 493.877 0.690562 493.791 0.654757C492.86 0.230204 491.831 -0.0102047 490.742 -0.0102047H467.872C465.11 -0.0102047 462.64 1.22765 460.967 3.17138C460.952 3.16627 455.673 0.854245 455.586 0.81844C454.45 0.296701 453.166 2.54437e-05 451.816 2.54437e-05H419.586C416.824 2.54437e-05 414.348 1.23788 412.675 3.18673C412.629 3.16627 407.294 0.833785 407.207 0.792864C406.046 0.27624 404.783 2.54437e-05 403.478 2.54437e-05H371.427C366.404 2.54437e-05 362.317 4.08698 362.317 9.11V65.1663C362.317 68.9617 364.65 72.22 367.954 73.5857C368.041 73.6266 373.202 75.8824 373.294 75.9233C374.435 76.4399 375.704 76.7315 377.033 76.7315H409.085C411.514 76.7315 413.806 75.7801 415.525 74.0614C415.693 73.8926 415.852 73.7187 416.005 73.5448C416.026 73.555 421.31 75.867 421.402 75.9028C422.558 76.4348 423.842 76.7315 425.192 76.7315H457.422C460.65 76.7315 463.489 75.0435 465.105 72.5013C465.617 72.8031 466.149 73.0691 466.701 73.2993C466.788 73.3402 471.949 75.5959 472.041 75.6368C473.627 76.3376 475.381 76.7366 477.223 76.7366C481.658 76.7366 485.571 74.4757 487.877 71.0435C488.895 72.0051 490.077 72.7826 491.381 73.3402C491.468 73.3811 496.629 75.6368 496.721 75.6778C498.215 76.3581 499.872 76.7366 501.617 76.7366C505.939 76.7366 509.724 74.4143 511.796 70.9565C512.875 71.9335 514.123 72.7315 515.489 73.3044C515.576 73.3453 520.737 75.6011 520.829 75.642C522.415 76.3479 524.169 76.7417 526.016 76.7417C530.016 76.7417 533.591 74.8952 535.944 72.0205C536.742 72.6036 537.611 73.0947 538.542 73.4629C538.629 73.4987 543.791 75.7647 543.883 75.8005C545.294 76.4041 546.844 76.7417 548.476 76.7417C554.952 76.7417 560.225 71.4681 560.225 64.9923V64.7315H575.678C576.154 64.7315 576.614 64.6906 577.069 64.6241V65.1816C577.069 68.977 579.402 72.2353 582.706 73.601C582.793 73.642 587.954 75.8977 588.046 75.9386C589.187 76.4553 590.45 76.7468 591.785 76.7468H624.016C626.788 76.7468 629.264 75.5039 630.936 73.5499C630.962 73.5601 636.261 75.8773 636.348 75.9182C637.504 76.4501 638.788 76.7519 640.143 76.7519H674.921C677.044 76.7519 678.993 76.0256 680.542 74.8031C680.583 74.8236 684.051 76.3427 684.143 76.3785C684.645 76.6138 685.202 76.7519 685.79 76.7519H703.755C705.883 76.7519 707.606 75.023 707.606 72.9003V24.4399C707.642 24.4553 711.478 26.1228 711.77 26.2149V61.4374C711.77 66.7724 715.044 71.3555 719.688 73.2941C719.775 73.3351 724.936 75.5908 725.028 75.6317C726.614 76.3376 728.368 76.7315 730.215 76.7315C737.294 76.7315 743.054 70.9719 743.054 63.8926V26.6752H745.806C746.282 26.6752 746.752 26.6343 747.207 26.5627V65.1611C747.207 68.9565 749.54 72.2149 752.844 73.5806C752.931 73.6215 758.092 75.8773 758.184 75.9182C759.325 76.4348 760.594 76.7264 761.924 76.7264H791.821C796.328 76.7264 800 73.0589 800 68.5525C800 65.1458 797.903 62.2149 794.931 60.9924Z" fill="black"/>
<path d="M699.908 3.85172V70.4195C699.908 71.3862 699.126 72.1688 698.159 72.1688H680.195C679.228 72.1688 678.445 71.3862 678.445 70.4195V3.85172C678.445 2.88496 679.228 2.10236 680.195 2.10236H698.159C699.126 2.10236 699.908 2.88496 699.908 3.85172Z" fill="white"/>
<path d="M458.783 61.4374V9.11003C458.783 8.92077 458.788 8.73151 458.798 8.54737C458.512 4.94123 455.499 2.10236 451.816 2.10236H419.586C415.78 2.10236 412.686 5.13049 412.589 8.91054C412.594 8.97704 412.594 9.04353 412.594 9.11003L412.589 30.9259C412.589 31.0333 412.589 31.1458 412.583 31.2533V53.4323C412.589 53.5397 412.589 53.6471 412.589 53.7596L412.594 65.1612C412.594 65.2277 412.594 65.2942 412.589 65.3607C412.691 69.1407 415.786 72.1688 419.586 72.1688H451.816C455.688 72.1688 458.824 69.0333 458.824 65.1612V62.4604C458.798 62.1279 458.783 61.7852 458.783 61.4374ZM438.742 58.2814C438.742 59.954 437.381 61.3146 435.704 61.3146C434.031 61.3146 432.67 59.954 432.67 58.2814V25.1561C432.67 23.4783 434.031 22.1177 435.704 22.1177C437.381 22.1177 438.742 23.4783 438.742 25.1561V58.2814Z" fill="white"/>
<path d="M531.131 8.63944C531.131 8.64455 531.131 8.64455 531.131 8.64455C531.125 8.79801 531.12 8.95146 531.12 9.10491V62.2047C530.726 67.7699 526.082 72.1688 520.414 72.1688C517.453 72.1688 514.767 70.9668 512.824 69.0231C510.88 67.0844 509.678 64.399 509.678 61.4323V24.0717C509.678 22.9975 508.803 22.1177 507.724 22.1177C506.645 22.1177 505.77 22.9924 505.77 24.0717V62.4144C505.77 67.8006 501.402 72.174 496.01 72.174C493.315 72.174 490.88 71.0793 489.11 69.3146C487.345 67.5499 486.251 65.11 486.251 62.4144V24.0717C486.251 22.9975 485.376 22.1177 484.297 22.1177C483.218 22.1177 482.343 22.9924 482.343 24.0717V61.4374C482.343 67.3658 477.535 72.174 471.606 72.174C468.64 72.174 465.954 70.9719 464.015 69.0282C462.281 67.2942 461.141 64.9719 460.916 62.3837V9.11003C460.916 8.92077 460.911 8.73151 460.9 8.54737C461.187 4.94123 464.2 2.10236 467.883 2.10236H490.752C493.657 2.10236 496.005 4.4553 496.005 7.35555C496.005 4.4553 498.358 2.10236 501.258 2.10236H524.128C527.852 2.10236 530.89 4.98727 531.131 8.63944Z" fill="white"/>
<path d="M654.86 37.3913V25.0486C654.86 24.2405 654.532 23.509 654 22.977C653.479 22.4553 652.757 22.1279 651.959 22.1177H651.934C650.318 22.1177 649.003 23.5346 649.003 25.1561V37.5141C649.003 38.2302 649.438 38.8747 650.098 39.1407L671.827 47.6624C674.532 48.7008 676.323 51.3044 676.323 54.2046V65.1612C676.323 69.0333 673.187 72.1688 669.315 72.1688H634.537C630.665 72.1688 627.53 69.0333 627.53 65.1612V54.5525C627.53 53.7801 628.159 53.1509 628.931 53.1509H647.248C648.215 53.1509 648.998 53.9335 648.998 54.9003L649.003 58.3786C649.008 59.9949 650.312 61.3044 651.934 61.3044C653.55 61.3044 654.86 59.9949 654.86 58.3786L654.855 54.6957C654.855 53.9796 654.415 53.33 653.75 53.0691L631.97 44.4757C629.295 43.4169 627.535 40.8338 627.535 37.954V9.1049C627.535 5.23278 630.67 2.09723 634.543 2.09723H669.32C673.192 2.09723 676.328 5.23278 676.328 9.1049V37.3913C676.328 38.3581 675.545 39.1407 674.578 39.1407H656.614C655.642 39.1407 654.86 38.3581 654.86 37.3913Z" fill="white"/>
<path d="M747.213 9.11003V15.1151C747.213 18.9873 744.077 22.1228 740.205 22.1228H735.351V61.4374C735.351 67.3658 730.543 72.174 724.614 72.174C721.652 72.174 718.967 70.9719 717.023 69.0282C715.08 67.0896 713.878 64.4041 713.878 61.4374V22.1228H709.023C705.151 22.1228 702.016 18.9873 702.016 15.1151V9.11003C702.016 5.23791 705.151 2.10236 709.023 2.10236H740.205C744.077 2.10236 747.213 5.23791 747.213 9.11003Z" fill="white"/>
<path d="M410.476 65.1663C410.476 65.2328 410.476 65.3044 410.481 65.3709C410.374 69.1458 407.284 72.174 403.484 72.174H371.432C367.56 72.174 364.425 69.0384 364.425 65.1663V9.11003C364.425 5.23791 367.56 2.10236 371.432 2.10236H403.484C407.289 2.10236 410.379 5.13049 410.481 8.90542C410.476 8.97192 410.476 9.04353 410.476 9.11003V31.1816C410.343 36.5576 405.939 40.8747 400.532 40.8747C395.033 40.8747 390.583 36.4195 390.583 30.9208V25.2277C390.583 23.5499 389.223 22.1893 387.545 22.1893C385.867 22.1893 384.507 23.5499 384.507 25.2277V59.3249C384.507 61.0026 385.867 62.3632 387.545 62.3632C389.223 62.3632 390.583 61.0026 390.583 59.3249V53.7699C390.583 48.2712 395.039 43.821 400.532 43.821C403.279 43.821 405.765 44.9361 407.565 46.7315C409.31 48.4758 410.409 50.8645 410.471 53.509V65.1663H410.476Z" fill="white"/>
<path d="M570.072 2.1177C570.072 2.1177 566.834 2.10236 566.553 2.10236H540.225C536.512 2.10236 533.473 4.98727 533.238 8.63944C533.238 8.63944 533.233 8.64455 533.238 8.64455C533.243 8.79801 533.248 8.95146 533.248 9.10491V61.4323C533.248 61.7085 533.238 61.9847 533.223 62.2558V62.5167C533.223 67.8466 537.545 72.1637 542.87 72.1637C548.2 72.1637 552.517 67.8415 552.517 62.5167V60.1535H570.072C573.821 60.1535 576.88 57.2072 577.069 53.509V9.11003C577.069 9.04865 577.069 8.99238 577.074 8.931V8.91566C576.962 5.14072 573.872 2.1177 570.072 2.1177ZM558.005 46.9924C558.005 48.5167 556.773 49.7494 555.248 49.7494C553.729 49.7494 552.491 48.5167 552.491 46.9924V24.9463C552.491 23.4272 553.729 22.1893 555.248 22.1893C556.773 22.1893 558.005 23.4272 558.005 24.9463V46.9924Z" fill="white"/>
<path d="M618.409 2.10236H586.179C582.384 2.10236 579.289 5.12026 579.182 8.89519C579.177 8.90031 579.177 8.90542 579.182 8.91054C579.187 8.98215 579.187 9.04865 579.187 9.12026V53.151C579.187 53.3095 579.182 53.463 579.177 53.6164V65.1612C579.177 69.0333 582.317 72.1688 586.184 72.1688H618.415C622.287 72.1688 625.422 69.0333 625.422 65.1612V9.11003C625.412 5.23791 622.276 2.10236 618.409 2.10236ZM605.33 58.2814C605.33 59.954 603.97 61.3146 602.297 61.3146C600.619 61.3146 599.259 59.954 599.259 58.2814V25.1561C599.259 23.4783 600.619 22.1177 602.297 22.1177C603.97 22.1177 605.33 23.4783 605.33 25.1561V58.2814Z" fill="white"/>
<path d="M792.292 66.1024C792.292 67.7801 791.611 69.2993 790.512 70.3939C789.417 71.4937 787.893 72.174 786.215 72.174H756.317C752.445 72.174 749.31 69.0384 749.31 65.1663V9.11003C749.31 5.23791 752.445 2.10236 756.317 2.10236H786.215C789.57 2.10236 792.292 4.82358 792.292 8.17397C792.292 9.85172 791.611 11.3709 790.512 12.4706C789.417 13.5704 787.893 14.2507 786.215 14.2507H770.798V30.1279H784.348C787.698 30.1279 790.42 32.8492 790.42 36.1995C790.42 37.8773 789.739 39.3965 788.639 40.4962C787.545 41.596 786.021 42.2763 784.348 42.2763H770.798V60.0256H786.215C789.576 60.0256 792.292 62.7417 792.292 66.1024Z" fill="white"/>
</svg>
