<svg width="347" height="121" viewBox="0 0 347 121" fill="none" xmlns="http://www.w3.org/2000/svg">
<path d="M342.718 107.492C341.703 106.961 339.983 106.238 338.917 105.82C338.059 105.4 337.095 105.16 336.075 105.16H329.963V96.3618H338.869C342.414 96.3618 345.431 93.5822 345.515 90.0372C345.581 87.2666 343.903 84.8742 341.502 83.8806C341.433 83.8476 337.341 82.0586 337.272 82.0255C336.456 81.6533 335.549 81.4432 334.595 81.4432H329.963V74.125H340.352C343.897 74.125 346.914 71.3453 346.998 67.8003C347.064 65.0297 345.386 62.6373 342.985 61.6437C342.916 61.6107 338.824 59.8217 338.752 59.7887C337.936 59.4164 337.029 59.2063 336.075 59.2063H312.373C310.179 59.2063 308.216 60.1939 306.889 61.7398C306.871 61.7308 302.674 59.8937 302.602 59.8637C301.687 59.4434 300.669 59.2063 299.595 59.2063H274.872C274.869 59.2063 274.863 59.2063 274.86 59.2063C274.473 59.2063 274.257 58.7681 274.5 58.4679C275.407 57.3542 275.947 55.9314 275.947 54.3885C275.947 51.684 274.287 49.3636 271.931 48.391C271.862 48.358 267.77 46.569 267.698 46.536C266.882 46.1638 265.975 45.9536 265.021 45.9536H258.909V37.1555H267.815C271.36 37.1555 274.377 34.3759 274.461 30.8309C274.527 28.0603 272.849 25.6679 270.448 24.6743C270.379 24.6413 266.287 22.8522 266.218 22.8192C265.402 22.447 264.495 22.2369 263.541 22.2369H258.909V14.9247H269.298C272.843 14.9247 275.86 12.145 275.944 8.59998C276.01 5.82938 274.332 3.43699 271.931 2.44342C271.862 2.4104 267.77 0.62136 267.698 0.588341C266.882 0.216125 265.975 0.00600348 265.021 0.00600348H241.319C239.116 0.00600348 237.143 0.999579 235.823 2.55748C235.802 2.54848 231.596 0.708411 231.524 0.678393C230.609 0.255148 229.588 0.0180104 228.51 0.0180104C228.51 0.0180104 225.944 0.00600348 225.722 0.00600348H204.851C202.422 0.00600348 200.273 1.2127 198.964 3.05577C198.664 2.86966 198.352 2.70157 198.028 2.56048C197.959 2.52746 193.867 0.74143 193.798 0.708411C192.853 0.25815 191.796 0.00600348 190.674 0.00600348H166.807C164.186 0.00600348 161.908 1.3778 160.641 3.46101C160.236 3.21786 159.81 3.00474 159.374 2.82164C159.305 2.79162 155.214 0.999579 155.142 0.969562C153.86 0.399231 152.467 0.0990574 151.018 0.0990574H151.009C145.903 0.0990574 141.682 3.82422 140.947 8.75908C139.998 6.12655 138.011 4.01333 135.478 2.90268C135.408 2.86966 131.317 1.08063 131.248 1.04761C129.936 0.435252 128.474 0.0960557 126.929 0.0960557C124.152 0.0960557 121.552 1.19769 119.619 3.19085C119.454 3.35895 119.304 3.53605 119.154 3.71015C118.554 3.26889 117.908 2.90268 117.227 2.62352C117.158 2.5935 113.067 0.801464 112.994 0.768445C111.857 0.264153 110.614 0 109.329 0H83.6045C81.4942 0 79.5941 0.912529 78.2734 2.36237C78.2103 2.33235 74.3411 0.639371 74.269 0.612355C73.4376 0.219127 72.51 0 71.5315 0H47.8297C45.6294 0 43.6573 0.993576 42.3335 2.55148C42.3065 2.53947 38.0891 0.693402 38.017 0.663384C37.0985 0.237137 36.0749 0 34.9973 0H7.22219C3.23287 0.00900522 0 3.24188 0 7.23419V48.7392C0 52.9747 2.5965 56.6158 6.28264 58.1497C6.32166 58.1677 7.56739 58.714 8.69304 59.2093H7.22219C3.23287 59.2093 0 62.4452 0 66.4345V110.905C0 113.916 1.84907 116.501 4.46959 117.584C4.53863 117.617 8.63 119.406 8.70204 119.439C9.60857 119.847 10.6111 120.079 11.6648 120.079H37.0745C38.9266 120.079 40.7186 119.376 42.0514 118.088C42.2315 117.914 42.4026 117.737 42.5617 117.548C42.5797 117.554 46.7701 119.388 46.8391 119.418C47.7547 119.841 48.7723 120.076 49.8439 120.076H75.3977C77.9582 120.076 80.2065 118.737 81.4882 116.72C81.8935 116.96 82.3197 117.167 82.755 117.35C82.827 117.38 86.9154 119.172 86.9874 119.205C88.2451 119.76 89.6349 120.076 91.0968 120.076C94.6118 120.076 97.7186 118.281 99.5467 115.558C100.351 116.32 101.291 116.939 102.323 117.377C102.392 117.41 106.484 119.199 106.556 119.232C107.738 119.772 109.053 120.076 110.437 120.076C113.862 120.076 116.864 118.233 118.509 115.489C119.364 116.266 120.352 116.897 121.435 117.35C121.504 117.38 125.596 119.172 125.668 119.202C126.926 119.76 128.315 120.076 129.78 120.076C132.953 120.076 135.787 118.611 137.654 116.329C138.284 116.792 138.975 117.182 139.713 117.473C139.782 117.503 143.873 119.298 143.945 119.328C145.326 119.92 146.872 120.19 148.502 120.031C153.302 119.559 156.901 115.396 156.901 110.569V110.548H169.151C169.526 110.548 169.895 110.518 170.253 110.461V110.902C170.253 113.913 172.102 116.498 174.725 117.581C174.794 117.614 178.886 119.403 178.955 119.436C179.861 119.844 180.864 120.076 181.917 120.076H207.471C209.669 120.076 211.635 119.088 212.958 117.539C212.976 117.548 217.182 119.388 217.251 119.415C218.166 119.838 219.187 120.076 220.262 120.076H247.836C249.52 120.076 251.066 119.496 252.293 118.53C252.329 118.545 255.076 119.751 255.148 119.781C255.541 119.968 255.985 120.076 256.454 120.076H270.697C272.384 120.076 273.753 118.707 273.753 117.017V78.5945C273.78 78.6066 276.82 79.9273 277.052 80.0054V107.946C277.052 112.178 279.648 115.813 283.328 117.35C283.397 117.38 287.489 119.172 287.561 119.202C289.038 119.859 290.7 120.178 292.444 120.046C297.785 119.643 301.849 115.066 301.849 109.708V80.3686H304.031C304.409 80.3686 304.782 80.3386 305.142 80.2785V110.902C305.142 113.913 306.991 116.498 309.611 117.581C309.68 117.614 313.772 119.403 313.844 119.436C314.75 119.844 315.753 120.076 316.807 120.076H340.508C344.083 120.076 346.992 117.167 346.992 113.592C347.001 110.788 345.212 108.396 342.718 107.492ZM76.3853 47.4935C76.3132 47.4575 74.3351 46.596 74.266 46.566C73.4346 46.1758 72.51 45.9596 71.5315 45.9596H65.4199V37.1615H74.4942C75.1516 37.1615 75.7849 37.0595 76.3823 36.8764V47.4935H76.3853ZM76.3853 24.4252C76.3282 24.3981 72.8912 22.8973 72.8222 22.8673C71.9817 22.471 71.0452 22.2459 70.0516 22.2459H65.4199V14.9247C65.4199 14.9247 76.2502 14.9186 76.3823 14.9096V24.4252H76.3853Z" fill="black"/>
<path d="M40.5535 7.23419V48.7392C40.5535 53.449 36.7413 57.2642 32.0345 57.2642C27.3308 57.2642 23.5186 53.449 23.5186 48.7392V19.9676C23.5186 18.6348 22.441 17.5572 21.1112 17.5572C19.7814 17.5572 18.7038 18.6348 18.7038 19.9676V48.7392C18.7038 53.449 14.8916 57.2642 10.1879 57.2642C5.48115 57.2642 1.66895 53.449 1.66895 48.7392V7.23419C1.66895 4.16341 4.15439 1.67497 7.22517 1.67497H35.0003C38.068 1.67497 40.5535 4.16341 40.5535 7.23419Z" fill="white"/>
<path d="M117.776 55.7903L115.191 48.289C114.264 45.4313 113.024 43.5252 107.456 43.5252C107.777 43.5252 108.095 43.5192 108.404 43.5072H109.332C113.423 43.5072 116.74 40.1873 116.74 36.0959V9.08927C116.74 4.9949 113.423 1.67798 109.335 1.67798H83.6099C80.5392 1.67798 78.0537 4.16642 78.0537 7.2372V56.1536C78.0537 56.7689 78.552 57.2642 79.1644 57.2642H93.9629C94.5753 57.2642 95.0736 56.7659 95.0736 56.1536V49.2856C95.0736 48.298 95.872 47.4995 96.8596 47.4995C97.6401 47.4995 98.3305 48.0038 98.5646 48.7483L101.017 56.4927C101.164 56.955 101.593 57.2672 102.077 57.2672H116.725C117.488 57.2642 118.025 56.5108 117.776 55.7903ZM99.8854 37.1465C99.8854 38.4763 98.8077 39.5539 97.481 39.5539C96.1512 39.5539 95.0736 38.4763 95.0736 37.1465V19.9676C95.0736 18.6348 96.1512 17.5572 97.481 17.5572C98.8077 17.5572 99.8854 18.6348 99.8854 19.9676V37.1465Z" fill="white"/>
<path d="M159.506 9.72564L158.422 44.4017C157.441 51.6359 151.248 57.1711 143.795 57.1711H134.18C126.205 57.1711 119.67 50.8315 119.424 42.8558L118.421 10.5511C118.274 5.74833 122.122 1.77103 126.928 1.77103C131.497 1.77103 135.252 5.38512 135.429 9.95677L136.564 39.0286C136.615 40.3224 137.674 41.34 138.965 41.34C140.256 41.34 141.318 40.3194 141.366 39.0286L142.501 9.95677C142.678 5.38512 146.433 1.77103 151.002 1.77103H151.011C155.541 1.77103 159.224 5.30107 159.506 9.72564Z" fill="white"/>
<path d="M76.3491 52.4464C76.3491 53.7792 75.8088 54.9799 74.9383 55.8504C74.0678 56.7239 72.8641 57.2612 71.5343 57.2612H47.8326C44.7618 57.2612 42.2764 54.7727 42.2764 51.702V7.23419C42.2764 4.16341 44.7618 1.67497 47.8326 1.67497H71.5343C74.1939 1.67497 76.3521 3.83322 76.3521 6.49276C76.3521 7.82554 75.8118 9.02923 74.9413 9.89974C74.0708 10.7732 72.8671 11.3106 71.5373 11.3106H59.3172V23.9089H70.0575C72.717 23.9089 74.8723 26.0671 74.8723 28.7266C74.8723 30.0594 74.3319 31.2631 73.4614 32.1336C72.5909 33.0071 71.3872 33.5444 70.0575 33.5444H59.3172V47.6256H71.5373C74.1939 47.6256 76.3491 49.7839 76.3491 52.4464Z" fill="white"/>
<path d="M269.838 52.4464C269.838 53.7792 269.298 54.9799 268.428 55.8504C267.557 56.7239 266.353 57.2612 265.024 57.2612H241.322C238.251 57.2612 235.766 54.7727 235.766 51.702V7.23419C235.766 4.16341 238.251 1.67497 241.322 1.67497H265.024C267.683 1.67497 269.841 3.83322 269.841 6.49276C269.841 7.82554 269.301 9.02923 268.431 9.89974C267.56 10.7732 266.356 11.3106 265.027 11.3106H252.807V23.9089H263.547C266.206 23.9089 268.362 26.0671 268.362 28.7266C268.362 30.0594 267.821 31.2631 266.951 32.1336C266.08 33.0071 264.877 33.5444 263.547 33.5444H252.807V47.6256H265.027C267.683 47.6256 269.838 49.7839 269.838 52.4464Z" fill="white"/>
<path d="M196.227 7.05709C196.131 4.05835 193.672 1.67497 190.673 1.67497H166.807C163.808 1.67497 161.349 4.05835 161.253 7.06009L159.824 52.7586C159.746 55.223 161.725 57.2642 164.189 57.2642H170.988C172.195 57.2642 173.284 56.7749 174.077 55.9854C174.866 55.193 175.355 54.1004 175.355 52.8937H182.139C182.139 55.3071 184.094 57.2642 186.504 57.2642H193.324C195.791 57.2642 197.769 55.22 197.688 52.7556L196.227 7.05709ZM178.759 45.0351C177.039 45.0351 175.665 43.6063 175.731 41.8893L176.595 19.6944C176.64 18.5297 177.595 17.6112 178.759 17.6112C179.921 17.6112 180.876 18.5297 180.924 19.6944L181.785 41.8893C181.851 43.6063 180.476 45.0351 178.759 45.0351Z" fill="white"/>
<path d="M228.51 1.68698C228.51 1.68698 225.943 1.67497 225.721 1.67497H204.85C201.779 1.67497 199.294 4.16341 199.294 7.23419V49.6098C199.294 53.8362 202.719 57.2642 206.942 57.2642C211.166 57.2642 214.591 53.8362 214.591 49.6098V47.7367H228.507C231.578 47.7367 234.063 45.2452 234.063 42.1774V7.2462C234.066 4.17542 231.581 1.68698 228.51 1.68698ZM218.943 37.2876C218.943 38.4973 217.965 39.4759 216.758 39.4759C215.551 39.4759 214.573 38.4973 214.573 37.2876V19.7965C214.573 18.5898 215.554 17.6082 216.758 17.6082C217.968 17.6082 218.943 18.5898 218.943 19.7965V37.2876Z" fill="white"/>
<path d="M267.647 62.2651V115.075C267.647 115.843 267.026 116.464 266.257 116.464H252.014C251.248 116.464 250.624 115.843 250.624 115.075V62.2651C250.624 61.4966 251.245 60.8753 252.014 60.8753H266.257C267.026 60.8753 267.647 61.4996 267.647 62.2651Z" fill="white"/>
<path d="M76.4779 107.949V66.4345C76.4779 66.2844 76.4839 66.1343 76.4929 65.9872C76.2648 63.1236 73.8754 60.8753 70.9577 60.8753H45.4039C42.3871 60.8753 39.9347 63.2767 39.8537 66.2754C39.8567 66.3294 39.8567 66.3805 39.8567 66.4345L39.8537 83.7425C39.8537 83.8296 39.8537 83.9166 39.8477 84.0037V101.6C39.8537 101.687 39.8537 101.771 39.8537 101.861L39.8567 110.905C39.8567 110.959 39.8567 111.01 39.8537 111.064C39.9347 114.063 42.3871 116.464 45.4039 116.464H70.9577C74.0285 116.464 76.5139 113.976 76.5139 110.905V108.762C76.4869 108.495 76.4779 108.225 76.4779 107.949ZM60.5897 105.445C60.5897 106.775 59.5121 107.853 58.1823 107.853C56.8555 107.853 55.7779 106.775 55.7779 105.445V79.1679C55.7779 77.8351 56.8555 76.7575 58.1823 76.7575C59.5121 76.7575 60.5897 77.8351 60.5897 79.1679V105.445Z" fill="white"/>
<path d="M133.835 66.0623C133.835 66.0653 133.835 66.0683 133.835 66.0683C133.829 66.1914 133.826 66.3114 133.826 66.4345V108.558C133.514 112.973 129.831 116.461 125.337 116.461C122.987 116.461 120.859 115.507 119.322 113.967C117.779 112.427 116.827 110.299 116.827 107.946V78.3034C116.827 77.4509 116.137 76.7545 115.281 76.7545C114.426 76.7545 113.736 77.4479 113.736 78.3034V108.723C113.736 112.997 110.272 116.464 105.997 116.464C103.86 116.464 101.927 115.597 100.528 114.195C99.1291 112.793 98.2616 110.86 98.2616 108.723V78.3064C98.2616 77.4539 97.5682 76.7575 96.7157 76.7575C95.8602 76.7575 95.1698 77.4509 95.1698 78.3064V107.949C95.1698 112.652 91.3576 116.464 86.6599 116.464C84.3065 116.464 82.1783 115.51 80.6414 113.97C79.2666 112.595 78.3601 110.752 78.183 108.699V66.4345C78.183 66.2844 78.177 66.1343 78.168 65.9872C78.3961 63.1236 80.7855 60.8753 83.7032 60.8753H101.834C104.136 60.8753 106 62.7424 106 65.0447C106 62.7424 107.867 60.8753 110.167 60.8753H128.3C131.239 60.8753 133.646 63.1626 133.835 66.0623Z" fill="white"/>
<path d="M231.929 88.8695V79.0808C231.929 78.4385 231.668 77.8621 231.248 77.4389C230.834 77.0246 230.263 76.7635 229.63 76.7575H229.609C228.327 76.7575 227.286 77.8831 227.286 79.1679V88.9746C227.286 89.5419 227.631 90.0522 228.156 90.2653L245.383 97.0252C247.529 97.8477 248.949 99.9129 248.949 102.215V110.908C248.949 113.979 246.464 116.467 243.393 116.467H215.819C212.748 116.467 210.263 113.979 210.263 110.908V102.491C210.263 101.876 210.761 101.381 211.373 101.381H225.896C226.661 101.381 227.286 102.002 227.286 102.771L227.289 105.529C227.292 106.814 228.327 107.85 229.612 107.85C230.894 107.85 231.932 106.811 231.932 105.529V103.209H231.929V102.608C231.929 102.038 231.581 101.525 231.053 101.315L213.784 94.4948C211.662 93.6543 210.269 91.6041 210.269 89.3228V66.4345C210.269 63.3637 212.754 60.8753 215.825 60.8753H243.399C246.467 60.8753 248.955 63.3637 248.955 66.4345V88.8695C248.955 89.638 248.334 90.2593 247.565 90.2593H233.322C232.554 90.2593 231.929 89.638 231.929 88.8695Z" fill="white"/>
<path d="M305.151 66.4345V71.1983C305.151 74.269 302.666 76.7575 299.595 76.7575H295.744V107.949C295.744 112.652 291.932 116.464 287.234 116.464C284.883 116.464 282.755 115.51 281.218 113.97C279.675 112.43 278.724 110.302 278.724 107.949V76.7575H274.873C271.802 76.7575 269.316 74.269 269.316 71.1983V66.4345C269.316 63.3637 271.802 60.8753 274.873 60.8753H299.595C302.666 60.8753 305.151 63.3637 305.151 66.4345Z" fill="white"/>
<path d="M38.1792 110.905C38.1792 110.959 38.1792 111.013 38.1822 111.067C38.0981 114.06 35.6487 116.464 32.632 116.464H7.22224C4.15146 116.464 1.66602 113.976 1.66602 110.905V66.4345C1.66602 63.3637 4.15146 60.8753 7.22224 60.8753H32.632C35.6487 60.8753 38.0981 63.2797 38.1822 66.2724C38.1792 66.3264 38.1792 66.3805 38.1792 66.4345V83.9436C38.0741 88.2061 34.5831 91.6341 30.2966 91.6341C25.9381 91.6341 22.408 88.098 22.408 83.7365V79.2159C22.408 77.8831 21.3304 76.8055 20.0006 76.8055C18.6709 76.8055 17.5932 77.8831 17.5932 79.2159V106.268C17.5932 107.6 18.6709 108.678 20.0006 108.678C21.3304 108.678 22.408 107.6 22.408 106.268V101.858C22.408 97.4965 25.9381 93.9634 30.2966 93.9634C32.4729 93.9634 34.445 94.846 35.8738 96.2718C37.2576 97.6556 38.1281 99.5527 38.1792 101.651V110.905Z" fill="white"/>
<path d="M164.708 60.8873C164.708 60.8873 162.142 60.8753 161.919 60.8753H141.048C138.104 60.8753 135.696 63.1626 135.507 66.0623C135.507 66.0623 135.504 66.0653 135.507 66.0683C135.513 66.1914 135.516 66.3114 135.516 66.4345V107.949C135.516 108.168 135.507 108.387 135.495 108.603V108.81C135.495 113.037 138.92 116.464 143.144 116.464C147.367 116.464 150.792 113.037 150.792 108.81V106.937H164.708C167.68 106.937 170.108 104.599 170.255 101.666V66.4345C170.255 66.3865 170.255 66.3415 170.258 66.2934V66.2784C170.171 63.2857 167.722 60.8873 164.708 60.8873ZM155.142 96.4879C155.142 97.6976 154.163 98.6762 152.956 98.6762C151.75 98.6762 150.771 97.6976 150.771 96.4879V78.9968C150.771 77.7901 151.753 76.8085 152.956 76.8085C154.166 76.8085 155.142 77.7901 155.142 78.9968V96.4879Z" fill="white"/>
<path d="M203.032 60.8753H177.478C174.467 60.8753 172.015 63.2707 171.928 66.2634C171.925 66.2694 171.925 66.2724 171.928 66.2784C171.931 66.3354 171.931 66.3895 171.931 66.4465V101.378C171.931 101.504 171.928 101.624 171.922 101.747V110.905C171.922 113.976 174.41 116.464 177.478 116.464H203.032C206.103 116.464 208.588 113.976 208.588 110.905V66.4345C208.588 63.3637 206.103 60.8753 203.032 60.8753ZM192.667 105.445C192.667 106.775 191.589 107.853 190.263 107.853C188.933 107.853 187.855 106.775 187.855 105.445V79.1679C187.855 77.8351 188.933 76.7575 190.263 76.7575C191.589 76.7575 192.667 77.8351 192.667 79.1679V105.445Z" fill="white"/>
<path d="M340.889 111.647C340.889 112.979 340.349 114.18 339.478 115.051C338.608 115.924 337.404 116.461 336.074 116.461H312.373C309.302 116.461 306.816 113.973 306.816 110.902V66.4345C306.816 63.3637 309.302 60.8753 312.373 60.8753H336.074C338.734 60.8753 340.892 63.0335 340.892 65.6931C340.892 67.0258 340.352 68.2295 339.481 69.1C338.611 69.9736 337.407 70.5109 336.077 70.5109H323.854V83.1092H334.594C337.254 83.1092 339.409 85.2674 339.409 87.927C339.409 89.2597 338.869 90.4634 337.998 91.3339C337.128 92.2074 335.924 92.7448 334.594 92.7448H323.854V106.826H336.077C338.734 106.829 340.889 108.984 340.889 111.647Z" fill="white"/>
</svg>
