<svg width="60" height="60" viewBox="0 0 60 60" fill="none" xmlns="http://www.w3.org/2000/svg">
<circle cx="30" cy="30" r="30" fill="#F44D37"/>
<path d="M39.9491 17.3947C35.426 19.2681 16.0318 27.3014 10.6732 29.4909C7.07946 30.8933 9.18328 32.2082 9.18328 32.2082C9.18328 32.2082 12.251 33.2599 14.8808 34.0488C17.5103 34.8377 18.9127 33.9613 18.9127 33.9613L31.2717 25.6343C35.6543 22.6541 34.6026 25.1083 33.5505 26.1603C31.2717 28.4395 27.5026 32.0329 24.3471 34.9256C22.9447 36.1527 23.6457 37.2044 24.2596 37.7304C26.5384 39.6589 32.762 43.6033 33.1123 43.8662C34.9639 45.177 38.6062 47.064 39.1602 43.0773L41.3515 29.3159C42.0529 24.6704 42.7539 20.3753 42.8414 19.1482C43.1046 16.1677 39.9491 17.3947 39.9491 17.3947Z" fill="white"/>
</svg>
