<?xml version="1.0" encoding="UTF-8"?><svg id="Layer_1" xmlns="http://www.w3.org/2000/svg" viewBox="0 0 2122 2122"><circle cx="1061" cy="1061" r="1061" fill="#f44d37"/><g><path d="m1569.29,1544.46l-398.04-578.26-45-65.4-284.72-413.65-23.6-34.28h-349.87l85.33,124,378.58,550.06,45,65.33,304.18,441.96,23.6,34.25h349.87l-85.33-124Zm-222.96,44.86l-316.02-459.15-45-65.36-366.7-532.79h157.74l296.56,430.88,45,65.36,386.17,561.06h-157.74Z" fill="#fff"/><polygon points="985.32 1064.8 1030.32 1130.16 976.97 1192.25 567.64 1668.45 466.7 1668.45 931.97 1126.92 985.32 1064.8" fill="#fff"/><polygon points="1612.5 452.87 1171.26 966.2 1117.91 1028.25 1072.91 962.89 1126.26 900.8 1425.15 552.91 1511.56 452.87 1612.5 452.87" fill="#fff"/></g></svg>