<svg width="60" height="61" viewBox="0 0 60 61" fill="none" xmlns="http://www.w3.org/2000/svg">
<circle cx="30" cy="30.9766" r="30" fill="#F44D37"/>
<path d="M42.7 35.4413C44.74 32.0213 46.3 27.6413 46.12 22.1813C47.68 20.9213 49.12 19.5413 50.14 17.8013C48.76 18.3413 47.14 18.9413 45.46 19.0613C47.2 18.1013 48.34 16.5413 49.06 14.5613C47.5 15.4013 45.88 16.1813 43.84 16.5413C42.76 15.4613 41.32 14.5013 39.46 14.1413C37.42 13.7213 35.32 14.1413 33.82 14.9813C31.12 16.5413 28.9 19.7213 29.86 23.9813C22.9 23.4413 18.1 20.7413 14.38 17.0213C14.11 16.7513 13.855 16.4663 13.6 16.1813C13.345 15.8963 13.09 15.6113 12.82 15.3413C12.34 16.1813 11.98 17.1413 11.8 18.2813C11.2 22.1813 13.24 24.9413 15.28 26.3813C14.02 26.3213 12.88 25.9613 11.98 25.5413C11.948 25.5254 11.9118 25.5009 11.8748 25.4758C11.7726 25.4067 11.664 25.3333 11.62 25.4213C11.62 27.8213 12.4 29.5613 13.54 30.8213C14.68 32.1413 16.12 33.2213 18.1 33.6413C17.14 33.9413 15.58 34.0013 14.5 33.7613C15.04 35.4413 16.06 36.7613 17.26 37.7213C18.46 38.7413 20.08 39.4613 22.18 39.5213C19.3 41.7413 15.28 43.4813 10 42.8813C10.094 43.0223 10.2615 43.1264 10.4162 43.2226C10.4591 43.2493 10.5009 43.2753 10.54 43.3013C13.6 45.1613 17.38 46.5413 22.12 46.6613C27.22 46.8413 31.54 45.4013 34.78 43.4213C38.02 41.5013 40.72 38.8013 42.7 35.4413Z" fill="white"/>
</svg>
