<svg width="20" height="20" viewBox="0 0 20 20" fill="none" xmlns="http://www.w3.org/2000/svg">
<path d="M2.17391 9.63155V10.5834C2.17391 10.8197 2.36857 11.0113 2.6087 11.0113H4.78261V11.8672C4.78261 12.8125 5.56124 13.5789 6.52174 13.5789H13.4783C14.4388 13.5789 15.2174 12.8125 15.2174 11.8672V11.0113H17.3913C17.6314 11.0113 17.8261 10.8197 17.8261 10.5834V9.63155C19.1791 11.1403 20 13.1221 20 15.2927V19.9993H0V15.2927C0 13.1221 0.820949 11.1403 2.17391 9.63155Z" fill="#666666"/>
<path d="M3.04348 7.58944C3.04348 7.3531 3.23814 7.16151 3.47826 7.16151H4.34783C4.58795 7.16151 4.78261 7.3531 4.78261 7.58944V9.72908C4.78261 9.96542 4.58795 10.157 4.34783 10.157H3.47826C3.23814 10.157 3.04348 9.96542 3.04348 9.72908V7.58944Z" fill="#666666"/>
<path d="M15.2174 7.58944C15.2174 7.3531 15.412 7.16151 15.6522 7.16151H16.5217C16.7619 7.16151 16.9565 7.3531 16.9565 7.58944V9.72908C16.9565 9.96542 16.7619 10.157 16.5217 10.157H15.6522C15.412 10.157 15.2174 9.96542 15.2174 9.72908V7.58944Z" fill="#666666"/>
<path d="M5.65217 5.4498C5.65217 4.74079 6.23615 4.16602 6.95652 4.16602H13.0435C13.7638 4.16602 14.3478 4.74079 14.3478 5.4498V11.4408C14.3478 12.1498 13.7638 12.7246 13.0435 12.7246H6.95652C6.23615 12.7246 5.65217 12.1498 5.65217 11.4408V5.4498Z" fill="#666666"/>
</svg>
