<svg id="a" xmlns="http://www.w3.org/2000/svg" viewBox="0 0 20 20"><defs><style>.b{fill:#595757;}</style></defs><path class="b" d="M16.52,9.03c-.04,.26-.18,.44-.31,.53-.04,.04-.26,.18-1.06,.22,0,.75-.04,1.32-.09,1.72-.18,1.28-.35,2.38-1.98,2.42H6.83c-1.63-.04-1.81-1.15-1.98-2.42-.04-.4-.09-.97-.09-1.72-.75-.04-.93-.18-1.01-.22-.13-.09-.22-.26-.26-.53-2.07,1.15-3.48,3.39-3.48,5.95v5.02H20v-5.02c0-2.56-1.41-4.8-3.48-5.95Z"/><path class="b" d="M4.51,9.03h.6c.22,0,.4,.18,.4,.4,0,.84,0,1.54,.09,1.98,.22,1.41,.35,1.72,1.28,1.76h6.17c.93-.04,1.06-.35,1.28-1.76,.09-.44,.09-1.1,.09-1.98,0-.22,.18-.4,.4-.4h.68c.17,0,.3-.14,.3-.3v-1.68c0-.17-.14-.3-.3-.3h-.81c-.18,0-.35-.18-.35-.35-.04-.62-.09-1.15-.13-1.59-.18-1.37-.62-1.41-1.01-1.5-.4-.04-2.11-.04-3.17-.04s-2.86,0-3.17,.04c-.48,.09-.97,.13-1.1,1.5,0,0-.09,1.06-.13,1.59,0,.18-.18,.35-.35,.35h-.73c-.17,0-.3,.14-.3,.31v1.68c0,.17,.14,.3,.3,.3Z"/></svg>
