<svg width="16" height="17" viewBox="0 0 16 17" fill="none" xmlns="http://www.w3.org/2000/svg">
<path fill-rule="evenodd" clip-rule="evenodd" d="M8 15.5588C11.8985 15.5588 15.0588 12.3985 15.0588 8.5C15.0588 4.60152 11.8985 1.44118 8 1.44118C4.10152 1.44118 0.941176 4.60152 0.941176 8.5C0.941176 12.3985 4.10152 15.5588 8 15.5588ZM8 16.5C12.4183 16.5 16 12.9183 16 8.5C16 4.08172 12.4183 0.5 8 0.5C3.58172 0.5 0 4.08172 0 8.5C0 12.9183 3.58172 16.5 8 16.5Z" fill="white"/>
<path d="M6.80604 9.91417L6.61508 8.56095C7.72267 8.36812 8.46106 8.15119 8.83025 7.91016C9.19945 7.66912 9.38405 7.34201 9.38405 6.92881V6.72221C9.38405 6.38476 9.28856 6.1334 9.0976 5.96812C8.913 5.79595 8.5629 5.70987 8.0473 5.70987C7.51897 5.70987 7.15932 5.80284 6.96836 5.98878C6.7774 6.16783 6.65964 6.49151 6.61508 6.9598L4.70544 6.8565C4.75 5.97501 5.04281 5.32422 5.58388 4.90413C6.1313 4.47716 6.94926 4.26367 8.03775 4.26367C9.08169 4.26367 9.88373 4.49437 10.4439 4.95578C11.0104 5.41719 11.2937 5.98189 11.2937 6.6499V6.97013C11.2937 7.8103 10.9404 8.45076 10.2338 8.8915C9.52727 9.32536 8.38467 9.66625 6.80604 9.91417ZM7.57944 12.7343C7.12113 12.7343 6.77103 12.6654 6.52914 12.5277C6.29362 12.383 6.17586 12.1627 6.17586 11.8665V11.5773C6.17586 11.2743 6.29362 11.0505 6.52914 10.9059C6.77103 10.7612 7.12113 10.6889 7.57944 10.6889C8.03775 10.6889 8.38467 10.7612 8.62019 10.9059C8.85571 11.0505 8.97347 11.2743 8.97347 11.5773V11.8665C8.97347 12.1627 8.85253 12.383 8.61064 12.5277C8.37512 12.6654 8.03139 12.7343 7.57944 12.7343Z" fill="white"/>
</svg>
