<svg width="56" height="60" viewBox="0 0 56 60" fill="none" xmlns="http://www.w3.org/2000/svg">
<path opacity="0.15" d="M44.0671 49.5382L44.3983 49.9723C39.8295 53.3989 34.1413 55.432 27.9848 55.432C21.8284 55.432 16.1516 53.4103 11.5714 49.9723L11.9026 49.5382C5.02654 44.4097 1.08594 36.5399 1.08594 27.9848C1.08594 13.159 13.159 1.08594 27.9848 1.08594C42.8106 1.08594 54.8837 13.1476 54.8837 27.9848C54.8837 36.5399 50.9431 44.4097 44.0671 49.5382Z" fill="#F27E8A"/>
<path d="M34.5508 27.2748C34.3452 27.252 34.1853 27.0921 34.1739 26.8865C34.151 26.6809 34.2881 26.4867 34.4937 26.4296C37.0636 25.6986 38.5828 23.6654 38.5828 20.9813C38.5828 19.0167 37.7718 14.4707 30.2218 14.4707H21.3926C19.4851 14.4707 18.1602 15.9327 18.1602 18.0115V35.7157C18.1602 37.7717 19.4851 39.2223 21.3926 39.2223H30.93C37.5319 39.2223 39.2909 35.0075 39.2909 32.5289C39.2909 29.4221 37.7033 27.6517 34.5508 27.2862V27.2748ZM25.1847 22.4433C25.1847 21.678 25.7901 21.0726 26.5554 21.0726H28.0288C29.1824 21.0726 31.5925 21.0726 31.5925 23.2086C31.5925 24.248 31.0328 25.4587 28.4057 25.4587H26.5668C25.8015 25.4587 25.1961 24.8533 25.1961 24.0881V22.4433H25.1847ZM28.8855 32.8488H26.5554C25.7901 32.8488 25.1847 32.232 25.1847 31.4667V29.6049C25.1847 28.8396 25.7901 28.2343 26.5554 28.2343H29.3309C31.0556 28.2343 32.2207 29.1366 32.2207 30.4844C32.2207 31.3639 31.7866 32.8488 28.8855 32.8488Z" fill="#F34D37"/>
<path opacity="0.15" d="M38.5137 53.3182C35.2813 54.6774 31.7176 55.4198 27.9826 55.4198C21.8261 55.4198 16.1494 53.3981 11.5691 49.9715C4.87583 44.9687 0.546875 36.9847 0.546875 27.9841C0.546875 13.3753 11.9575 1.43928 26.3493 0.605469C16.4235 4.7174 9.44464 14.5061 9.44464 25.9281C9.44464 34.9287 13.7736 42.9127 20.4783 47.927C25.0471 51.3422 30.7353 53.3753 36.8918 53.3753C37.4401 53.3753 37.9769 53.3753 38.5252 53.3182H38.5137Z" fill="url(#paint0_linear_3373_22673)"/>
<path d="M45.2757 22.9011L46.6121 24.5916C46.8862 25.0599 46.4179 25.3797 46.6577 25.8708C46.9319 26.4533 47.5144 26.5105 47.8342 26.2363C48.0512 26.0422 48.1312 25.6995 48.0855 25.4939C48.2797 25.5853 48.6338 25.5853 48.8736 25.4139C49.2163 25.1741 49.2848 24.5916 48.7822 24.1918C48.3482 23.8491 47.937 24.226 47.5372 23.8491L46.2009 22.1587C45.9267 21.6904 46.395 21.3705 46.1552 20.8794C45.881 20.2969 45.2985 20.2398 44.9787 20.5139C44.7617 20.7081 44.6817 21.0507 44.7274 21.2563C44.5332 21.1764 44.1792 21.1649 43.9393 21.3363C43.5966 21.5761 43.5281 22.1587 44.0307 22.5584C44.4647 22.9011 44.8759 22.5242 45.2643 22.9011H45.2757Z" fill="white"/>
<path d="M9.3084 19.9086L10.8047 21.6448C11.1131 22.1245 10.6334 22.49 10.9189 23.0154C11.2387 23.6208 11.8669 23.655 12.1868 23.3466C12.4152 23.1296 12.4837 22.7527 12.4266 22.5471C12.6322 22.6271 13.0091 22.6156 13.2604 22.4215C13.6145 22.1473 13.6602 21.5305 13.1119 21.1193C12.6436 20.7767 12.2096 21.1879 11.7756 20.811L10.2679 19.0748C9.95946 18.5951 10.4392 18.2296 10.1536 17.7156C9.83382 17.1102 9.2056 17.0759 8.88579 17.3843C8.65735 17.6014 8.60024 17.9669 8.64592 18.1839C8.44033 18.1039 8.0634 18.1154 7.81211 18.3095C7.45803 18.5837 7.41234 19.2004 7.9606 19.6116C8.4289 19.9657 8.86294 19.5431 9.29698 19.92L9.3084 19.9086Z" fill="white"/>
<path d="M49.561 33.409C49.1383 33.2491 48.6129 33.3862 48.3731 33.5804C48.3502 33.2606 48.1104 32.7808 47.7106 32.5752C47.1509 32.2783 46.3057 32.5867 46.1115 33.5575C45.9402 34.3799 46.7511 34.6883 46.5227 35.4764L45.1749 38.4804C44.7409 39.1772 43.9756 38.7774 43.473 39.4513C42.8791 40.2394 43.2103 41.0732 43.8043 41.3017C44.2269 41.4616 44.7409 41.3245 44.9921 41.1303C45.0036 41.4502 45.2549 41.9299 45.6546 42.1355C46.2143 42.4324 47.0595 42.1241 47.2537 41.1532C47.425 40.3308 46.6141 40.0224 46.8425 39.2343L48.1903 36.2417C48.6244 35.545 49.3896 35.9447 49.9036 35.2708C50.4976 34.4827 50.1663 33.6489 49.5724 33.4205L49.561 33.409Z" fill="white"/>
<path d="M13.6034 35.841C12.861 35.9209 12.8153 36.6976 12.0843 36.7091L9.16027 36.3778C8.4521 36.1951 8.57774 35.4412 7.86958 35.1899C7.03577 34.9044 6.41898 35.407 6.38471 35.9781C6.36187 36.3778 6.62458 36.7776 6.86444 36.9375C6.60173 37.0403 6.25907 37.3715 6.19054 37.7713C6.09916 38.331 6.59031 38.9592 7.45839 38.8564C8.21224 38.7765 8.24651 37.9998 8.97752 37.9883L11.8901 38.3196C12.5983 38.5023 12.4727 39.2562 13.1808 39.5075C14.0146 39.793 14.6314 39.2904 14.6657 38.7193C14.6885 38.3196 14.4258 37.9084 14.186 37.7599C14.4487 37.6571 14.7913 37.3259 14.8599 36.9261C14.9512 36.3664 14.4601 35.7382 13.592 35.841H13.6034Z" fill="white"/>
<path d="M24.1221 7.45817C24.2591 7.264 24.3619 6.87565 24.2363 6.56725C24.0535 6.13322 23.4253 5.90478 22.8542 6.36166C22.3631 6.75001 22.6715 7.30969 22.1689 7.65235L19.953 8.7146C19.3705 8.89735 19.1306 8.3034 18.5138 8.44047C17.7942 8.60038 17.5772 9.24001 17.8057 9.6512C17.9656 9.94818 18.3311 10.1081 18.5709 10.1195C18.4225 10.3137 18.3311 10.702 18.4567 11.0104C18.6395 11.4445 19.2677 11.6729 19.8388 11.216C20.3299 10.8277 20.0215 10.2566 20.5355 9.92533L22.7514 8.86308C23.3339 8.68033 23.5852 9.27428 24.1906 9.13721C24.9102 8.9773 25.1272 8.33767 24.8988 7.92648C24.7388 7.6295 24.3733 7.45817 24.1335 7.45817H24.1221Z" fill="white"/>
<path d="M29.3298 28.2344H26.5542C25.789 28.2344 25.1836 28.8397 25.1836 29.605V31.4668C25.1836 32.2321 25.789 32.8489 26.5542 32.8489H28.8843C31.7855 32.8489 32.2196 31.364 32.2196 30.4845C32.2196 29.1367 31.0545 28.2344 29.3298 28.2344ZM28.8843 31.9808H27.251V30.7929C27.251 30.5302 27.4566 30.3246 27.7193 30.3246H30.4834C30.769 30.3246 31.0659 30.3589 31.3287 30.4388C31.3287 30.4617 31.3287 30.4731 31.3287 30.4959C31.3287 30.8614 31.3287 31.9922 28.8729 31.9922L28.8843 31.9808Z" fill="white"/>
<path d="M26.5578 25.4603H28.3968C31.0353 25.4603 31.5835 24.2381 31.5835 23.2101C31.5835 21.0742 29.1735 21.0742 28.0199 21.0742H26.5464C25.7811 21.0742 25.1758 21.6796 25.1758 22.4449V24.0896C25.1758 24.8549 25.7811 25.4603 26.5464 25.4603H26.5578ZM27.2546 23.6328C27.2546 23.37 27.4602 23.1645 27.7229 23.1645H29.1963C29.8474 23.1645 30.3385 23.2101 30.7155 23.2787C30.7155 23.4957 30.6584 23.7241 30.5327 23.9297C30.35 24.1924 30.0073 24.4095 29.3791 24.5122C29.3106 24.5122 29.242 24.5351 29.1621 24.5465C28.9451 24.5808 28.6938 24.5922 28.4082 24.5922H27.266V23.6213L27.2546 23.6328Z" fill="white"/>
<path d="M27.984 0C12.5528 0 0 12.5528 0 27.984C0 36.8932 4.10051 45.0714 11.2507 50.4054L11.5705 49.9714C11.8903 50.2113 12.2102 50.4397 12.5414 50.6567C14.4717 51.9703 16.5848 53.0325 18.8235 53.8321C20.514 56.5391 23.5066 58.3323 26.9217 58.3323C29.9943 58.3323 32.7127 56.8817 34.4603 54.6316C34.5174 54.6202 34.5859 54.6088 34.643 54.5973C37.5671 53.8663 40.3084 52.667 42.7641 51.0908C43.3238 50.7481 43.8606 50.3598 44.386 49.9714L44.7059 50.4054C51.8446 45.0714 55.9566 36.8932 55.9566 27.984C55.968 12.5528 43.4152 0 27.984 0ZM34.5517 27.2758C37.7041 27.6413 39.2918 29.4232 39.2918 32.5185C39.2918 34.9971 37.5328 39.2119 30.9309 39.2119H21.3935C19.486 39.2119 18.161 37.7613 18.161 35.7053V18.0011C18.161 15.9223 19.486 14.4603 21.3935 14.4603H30.2227C37.7727 14.4603 38.5836 19.0063 38.5836 20.9709C38.5836 23.655 37.0645 25.6882 34.4946 26.4192C34.289 26.4763 34.1519 26.6705 34.1747 26.8761C34.1747 27.0816 34.3461 27.2416 34.5517 27.2644V27.2758ZM48.6008 43.7921C46.4534 43.7921 44.5574 44.9914 43.5294 46.7847C42.5242 45.9623 41.245 45.4711 39.8743 45.4711C38.5037 45.4711 37.2701 45.9623 36.2764 46.7732C35.7967 44.5574 34.5517 42.6385 32.8384 41.2907C38.7207 41.0051 41.3592 37.3501 41.3592 33.7179C41.3592 31.7418 40.7424 30.1999 39.5774 29.149C39.486 29.0348 39.3832 28.9434 39.269 28.8521C39.1776 28.7378 39.0748 28.6465 38.972 28.5551C38.9263 28.5094 38.892 28.4637 38.8578 28.4409C38.8578 28.4409 38.8578 28.4409 38.8578 28.418C38.6979 28.2239 38.5037 28.0525 38.3095 27.8812C38.1839 27.767 38.0468 27.6642 37.8983 27.55C39.6459 26.3735 40.6624 24.4432 40.6624 22.1588C40.6624 21.1422 40.4226 18.7893 38.5265 17.0074C38.4352 16.9046 38.3324 16.8132 38.2296 16.7104C38.1268 16.6076 38.0354 16.5277 37.9326 16.4249C37.8869 16.3792 37.8526 16.3449 37.8184 16.3107C37.7955 16.2878 37.7727 16.265 37.7613 16.2421C37.6356 16.1165 37.51 15.9794 37.3729 15.8652C37.293 15.7853 37.213 15.7167 37.1216 15.6368C37.0074 15.534 36.9046 15.454 36.7904 15.3741C36.6762 15.2827 36.5734 15.2142 36.4591 15.1342C35.7852 14.6773 34.94 14.3004 33.9349 14.0263C33.8207 13.992 33.7179 13.9577 33.6151 13.9463C33.4437 13.8892 33.261 13.8549 33.0782 13.8321C32.8612 13.7864 32.6556 13.7521 32.4272 13.7179C32.233 13.695 32.0388 13.6608 31.8332 13.6493C31.3306 13.5922 30.7824 13.5694 30.2227 13.5694H21.3935C19.0063 13.5694 17.293 15.4312 17.293 17.9783V35.6824C17.293 36.2307 17.3729 36.7333 17.5214 37.2016C17.5557 37.3158 17.6014 37.43 17.6356 37.5442C17.6927 37.6813 17.7498 37.8184 17.8184 37.944C17.8869 38.0696 17.9554 38.1953 18.0468 38.3095C18.241 38.6293 18.4923 38.892 18.7664 39.1319C18.8007 39.1776 18.8464 39.2233 18.8806 39.2575C18.972 39.3603 19.0634 39.4517 19.1662 39.5545C19.2576 39.6687 19.3489 39.7601 19.4517 39.8629C19.9315 40.434 20.5597 40.8338 21.2793 41.0622C19.8515 42.1131 18.7207 43.5522 18.0582 45.2313C17.0074 44.7059 15.8195 44.4089 14.5631 44.4089C12.9069 44.4089 11.3878 44.9114 10.1085 45.7795C9.20616 45.0714 8.07538 44.6602 6.87607 44.6145C3.15248 39.9657 1.08509 34.1633 1.08509 27.984C1.08509 13.1582 13.1582 1.08509 27.984 1.08509C42.8098 1.08509 54.8829 13.1468 54.8829 27.984C54.8829 33.8321 53.0439 39.3603 49.6744 43.9063C49.3204 43.8378 48.9663 43.7921 48.6008 43.7921Z" fill="white"/>
<path d="M50.2345 29.6406C49.9033 29.6406 49.6406 29.9033 49.6406 30.2344C49.6406 30.5656 49.9033 30.8283 50.2345 30.8283C50.5656 30.8283 50.8283 30.5656 50.8283 30.2344C50.8283 29.9033 50.5656 29.6406 50.2345 29.6406Z" fill="white"/>
<path d="M16.4006 11.8105C16.2864 11.8105 16.1836 11.9019 16.1836 12.0275C16.1836 12.1531 16.275 12.2445 16.4006 12.2445C16.5262 12.2445 16.6175 12.1531 16.6175 12.0275C16.6175 11.9019 16.5262 11.8105 16.4006 11.8105Z" fill="white"/>
<path d="M37.2339 41.998C36.7314 41.998 36.3203 42.4092 36.3203 42.9116C36.3203 43.4141 36.7314 43.8252 37.2339 43.8252C37.7364 43.8252 38.1475 43.4141 38.1475 42.9116C38.1475 42.4092 37.7364 41.998 37.2339 41.998Z" fill="white"/>
<path d="M30.0067 6.45312C29.8125 6.45312 29.6641 6.613 29.6641 6.79572C29.6641 6.97843 29.8239 7.13831 30.0067 7.13831C30.1894 7.13831 30.3492 6.97843 30.3492 6.79572C30.3492 6.613 30.1894 6.45312 30.0067 6.45312Z" fill="white"/>
<path d="M7.03387 30.2454C7.03387 29.7772 6.65702 29.4004 6.18881 29.4004C5.7206 29.4004 5.34375 29.7772 5.34375 30.2454C5.34375 30.7137 5.7206 31.0905 6.18881 31.0905C6.65702 31.0905 7.03387 30.7137 7.03387 30.2454Z" fill="white"/>
<path d="M13.5247 28.3834C13.7454 28.3834 13.9244 28.2044 13.9244 27.9837C13.9244 27.7629 13.7454 27.584 13.5247 27.584C13.3039 27.584 13.125 27.7629 13.125 27.9837C13.125 28.2044 13.3039 28.3834 13.5247 28.3834Z" fill="white"/>
<path d="M40.9348 16.9615C41.1556 16.9615 41.3345 16.7825 41.3345 16.5618C41.3345 16.3411 41.1556 16.1621 40.9348 16.1621C40.7141 16.1621 40.5352 16.3411 40.5352 16.5618C40.5352 16.7825 40.7141 16.9615 40.9348 16.9615Z" fill="white"/>
<path d="M48.6001 56.1394H47.5036L46.3157 52.69C47.1381 52.5186 47.7663 51.7876 47.7663 50.9081V50.7025C47.7663 49.6974 46.944 48.875 45.9388 48.875H10.0279C9.02278 48.875 8.2004 49.6974 8.2004 50.7025V50.9081C8.2004 51.7876 8.81719 52.5186 9.651 52.69L8.4631 56.1394H7.36659C6.36145 56.1394 5.53906 56.9618 5.53906 57.9669V58.1725C5.53906 59.1777 6.36145 60.0001 7.36659 60.0001H48.6001C49.6053 60.0001 50.4277 59.1777 50.4277 58.1725V57.9669C50.4277 56.9618 49.6053 56.1394 48.6001 56.1394Z" fill="#F34D37"/>
<path d="M44.4995 50.1081H11.3871C11.3071 50.1081 11.25 50.051 11.25 49.971C11.25 49.8911 11.3071 49.834 11.3871 49.834H44.4995C44.5795 49.834 44.6366 49.8911 44.6366 49.971C44.6366 50.051 44.5795 50.1081 44.4995 50.1081Z" fill="white"/>
<g opacity="0.65">
<path d="M35.569 8.2567C35.4434 8.2567 35.3063 8.23386 35.1807 8.18818C34.8838 8.0854 34.5983 7.98263 34.29 7.89127C33.6847 7.69713 33.3536 7.05763 33.5477 6.46381C33.7418 5.85856 34.3813 5.52739 34.9752 5.72153C35.3063 5.8243 35.6261 5.9385 35.9573 6.0527C36.5511 6.26967 36.8594 6.92059 36.6424 7.51442C36.4711 7.98263 36.0372 8.26812 35.569 8.26812V8.2567Z" fill="white"/>
</g>
<g opacity="0.65">
<path d="M46.4084 16.7571C46.0429 16.7571 45.6774 16.5857 45.4604 16.2545C43.5529 13.4218 40.9601 11.0689 37.9675 9.44697C37.4078 9.15 37.2022 8.45326 37.5106 7.905C37.8076 7.34532 38.5043 7.13972 39.0526 7.44812C42.3764 9.24138 45.2433 11.8456 47.3564 14.9867C47.7105 15.5121 47.5734 16.2202 47.048 16.5743C46.8538 16.7114 46.6254 16.7685 46.4084 16.7685V16.7571Z" fill="white"/>
</g>
<path d="M16.0253 56.6517C15.717 56.6517 15.5 56.4119 15.5 56.0807V52.8718C15.5 52.5406 15.7284 52.3008 16.0253 52.3008H17.4756C18.6861 52.3008 18.9488 52.9745 18.9488 53.477C18.9488 53.9338 18.6975 54.3335 18.1608 54.4705C18.7889 54.539 19.0858 54.8702 19.0858 55.4412C19.0858 56.0122 18.6861 56.6517 17.6012 56.6517H16.0253ZM16.5963 54.1394H17.3157C17.6583 54.1394 17.8525 54.0252 17.8525 53.7511C17.8525 53.477 17.6241 53.4085 17.2701 53.4085H16.5963V54.1394ZM16.5963 55.5554H17.3843C17.7954 55.5554 17.9667 55.4069 17.9667 55.1671C17.9667 54.9273 17.7611 54.8017 17.4756 54.8017H16.5963V55.5554Z" fill="white"/>
<path d="M19.4766 54.9621C19.4766 53.9343 20.0475 53.2148 21.1781 53.2148C22.3087 53.2148 22.8796 53.9343 22.8796 54.9621C22.8796 55.9898 22.3087 56.7321 21.1781 56.7321C20.0475 56.7321 19.4766 55.9898 19.4766 54.9621ZM21.8861 54.9621C21.8861 54.4938 21.6463 54.2769 21.1895 54.2769C20.7327 54.2769 20.4815 54.4938 20.4815 54.9621C20.4815 55.4303 20.7213 55.6701 21.1895 55.6701C21.6577 55.6701 21.8975 55.4417 21.8975 54.9621H21.8861Z" fill="white"/>
<path d="M23.3808 56.1954V54.4824L23.3123 53.7744C23.278 53.4775 23.4836 53.2263 23.8262 53.2263C24.0888 53.2263 24.3058 53.3976 24.3287 53.6831L24.3629 54.2198H24.4086C24.5114 53.4318 25.0253 53.2148 25.4935 53.2148C26.1444 53.2148 26.5327 53.626 26.5327 54.3797V56.2068C26.5327 56.538 26.2586 56.7321 25.9959 56.7321C25.7333 56.7321 25.4706 56.5266 25.4706 56.2068V54.7451C25.4706 54.4596 25.345 54.2883 25.0595 54.2883C24.7283 54.2883 24.4543 54.5167 24.4543 54.8136V56.2068C24.4543 56.5266 24.203 56.7321 23.9061 56.7321C23.6092 56.7321 23.3922 56.5266 23.3922 56.2068L23.3808 56.1954Z" fill="white"/>
<path d="M30.2778 55.8191C30.2778 56.4358 29.467 56.7327 28.7704 56.7327C27.6969 56.7327 27.0117 56.0932 27.0117 54.9969C27.0117 53.9006 27.7312 53.2383 28.7247 53.2383C29.7753 53.2383 30.3577 53.8207 30.3577 54.6429C30.3577 55.0312 30.1521 55.2025 29.7296 55.2025H28.0738C28.1309 55.5336 28.4506 55.7049 28.816 55.7049C29.1244 55.7049 29.3071 55.5907 29.467 55.4994C29.5812 55.4309 29.6839 55.3738 29.8324 55.3738C30.0608 55.3738 30.2549 55.5565 30.2549 55.8306L30.2778 55.8191ZM28.0852 54.6657L29.3528 54.6429C29.3528 54.3917 29.1244 54.1633 28.7361 54.1633C28.4163 54.1633 28.1309 54.3232 28.0852 54.6657Z" fill="white"/>
<path d="M31.6263 52.3008C31.8433 52.3008 32.0375 52.4607 32.0375 52.7347V56.2063C32.0375 56.5261 31.7748 56.7316 31.5121 56.7316C31.2267 56.7316 30.9868 56.5261 30.9868 56.2063V53.4313C30.6557 53.3971 30.4844 53.1344 30.4844 52.8603C30.4844 52.5749 30.7013 52.3008 31.0439 52.3008H31.6263Z" fill="white"/>
<path d="M33.5717 53.2951C33.7886 53.2951 33.9942 53.455 33.9942 53.729V56.2071C33.9942 56.5383 33.7315 56.7324 33.4575 56.7324C33.1834 56.7324 32.9322 56.5269 32.9322 56.2071V54.4256C32.601 54.3914 32.4297 54.1287 32.4297 53.8547C32.4297 53.5577 32.6467 53.2951 32.9893 53.2951H33.5717ZM32.7951 52.5071C32.7951 52.1874 32.9778 51.959 33.4118 51.959C33.8457 51.959 34.0399 52.1874 34.0399 52.4957C34.0399 52.804 33.8457 53.0439 33.4118 53.0439C32.9778 53.0439 32.7951 52.8155 32.7951 52.5071Z" fill="white"/>
<path d="M34.4844 55.8985C34.4844 55.6244 34.7013 55.396 34.9297 55.396C35.0896 55.396 35.1924 55.4874 35.3066 55.5787C35.4665 55.6929 35.6263 55.7843 36.0032 55.7843C36.38 55.7843 36.6199 55.75 36.6199 55.533C36.6199 55.3389 36.2087 55.3275 35.8662 55.3046C35.1696 55.259 34.5757 55.1105 34.5757 54.3111C34.5757 53.626 35.1239 53.2148 36.0603 53.2148C36.9168 53.2148 37.5334 53.4889 37.5334 53.9914C37.5334 54.2655 37.3165 54.4938 37.0766 54.4938C36.9739 54.4938 36.8597 54.4482 36.7683 54.3682C36.6313 54.2312 36.4257 54.1741 36.106 54.1741C35.752 54.1741 35.5578 54.254 35.5578 54.3911C35.5578 54.5852 35.8547 54.5966 36.2658 54.6309C36.9168 54.6766 37.602 54.7679 37.602 55.5445C37.602 56.321 36.9168 56.7321 36.0489 56.7321C35.0211 56.7321 34.4844 56.4238 34.4844 55.9099V55.8985Z" fill="white"/>
<path d="M38.3552 55.522V54.3458H38.2182C37.9327 54.3686 37.75 54.1174 37.75 53.8433C37.75 53.5692 37.9556 53.318 38.2296 53.3294H38.3895V52.9868C38.3895 52.6899 38.6179 52.4844 38.9148 52.4844C39.2346 52.4844 39.4401 52.7128 39.4287 53.0097V53.3409L39.8741 53.3066C40.1596 53.2952 40.3651 53.5236 40.3651 53.8091C40.3651 54.0946 40.1596 54.3572 39.8741 54.3344L39.4287 54.3115V55.2479C39.4287 55.5106 39.5543 55.6134 39.6914 55.6134C39.8055 55.6134 39.9083 55.5791 39.9768 55.522C40.0568 55.4878 40.1139 55.4649 40.171 55.4649C40.3423 55.4649 40.4793 55.6248 40.4793 55.8989C40.4793 56.447 39.9768 56.7211 39.4059 56.7211C38.8349 56.7211 38.3667 56.4013 38.3667 55.5106L38.3552 55.522Z" fill="white"/>
<defs>
<linearGradient id="paint0_linear_3373_22673" x1="19.8958" y1="46.0766" x2="17.3144" y2="11.4907" gradientUnits="userSpaceOnUse">
<stop stop-color="white"/>
<stop offset="1" stop-color="white" stop-opacity="0"/>
</linearGradient>
</defs>
</svg>
