<svg width="56" height="60" viewBox="0 0 56 60" fill="none" xmlns="http://www.w3.org/2000/svg">
<path d="M44.0758 49.5363L44.4071 49.9703C39.8374 53.3969 34.1481 55.43 27.9903 55.43C21.8326 55.43 16.1547 53.4083 11.5735 49.9703L11.9048 49.5363C5.02734 44.4078 1.08594 36.538 1.08594 27.9829C1.08594 13.1571 13.1615 1.08398 27.9903 1.08398C42.8191 1.08398 54.8947 13.1457 54.8947 27.9829C54.8947 36.538 50.9533 44.4078 44.0758 49.5363Z" fill="#33333A"/>
<g opacity="0.8">
<path opacity="0.8" d="M39.5741 29.1402C39.4827 29.026 39.3799 28.9346 39.2656 28.8432C39.1742 28.729 39.0714 28.6376 38.9686 28.5463C38.9229 28.5006 38.8886 28.4549 38.8544 28.432C38.8544 28.432 38.8544 28.432 38.8544 28.4092C38.6944 28.215 38.5002 28.0437 38.306 27.8724C38.1803 27.7581 38.0432 27.6553 37.8947 27.5411C39.6426 26.3647 40.6594 24.4343 40.6594 22.1499C40.6594 21.1334 40.4195 18.7804 38.5231 16.9986C38.4317 16.8958 38.3288 16.8044 38.226 16.7016C38.1232 16.5988 38.0318 16.5189 37.929 16.4161C37.8833 16.3704 37.849 16.3361 37.8147 16.3018C37.7919 16.279 37.769 16.2561 37.7576 16.2333C37.632 16.1077 37.5063 15.9706 37.3692 15.8564C37.2892 15.7764 37.2093 15.7079 37.1179 15.6279C37.0036 15.5251 36.9008 15.4452 36.7865 15.3652C36.6723 15.2739 36.5695 15.2053 36.4552 15.1254C35.7812 14.6685 34.9358 14.2916 33.9305 14.0174C33.8162 13.9832 33.7134 13.9489 33.6106 13.9375C33.4392 13.8804 33.2564 13.8461 33.0736 13.8233C32.8566 13.7776 32.6509 13.7433 32.4224 13.709C32.2282 13.6862 32.034 13.6519 31.8284 13.6405C31.3257 13.5834 30.7773 13.5605 30.2175 13.5605H21.3865C18.9988 13.5605 17.2852 15.4223 17.2852 17.9695V35.6736C17.2852 36.2219 17.3651 36.7244 17.5136 37.1927C17.5479 37.307 17.5936 37.4212 17.6279 37.5354C17.685 37.6725 17.7421 37.8095 17.8107 37.9352C17.8792 38.0608 17.9478 38.1865 18.0392 38.3007C18.2334 38.6205 18.4847 38.8832 18.7589 39.1231C18.7932 39.1688 18.8389 39.2144 18.8731 39.2487C18.9645 39.3515 19.0559 39.4429 19.1588 39.5457C19.2501 39.6599 19.3415 39.7513 19.4444 39.8541C20.1869 40.7336 21.2608 41.2704 22.5518 41.2704H32.0911C38.5002 41.2704 41.3563 37.444 41.3563 33.6748C41.3563 31.6987 40.7394 30.1568 39.5741 29.1059V29.1402ZM18.1534 18.0151C18.1534 15.9363 19.4786 14.4743 21.3865 14.4743H30.2175C37.769 14.4743 38.5802 19.0203 38.5802 20.9849C38.5802 23.6691 37.0607 25.7022 34.4903 26.4332C34.2846 26.4903 34.1475 26.6845 34.1704 26.8901C34.1704 27.0957 34.3417 27.2556 34.5474 27.2784C37.7005 27.6439 39.2885 29.4258 39.2885 32.5211C39.2885 34.9997 37.5291 39.2144 30.9258 39.2144H21.3865C19.4786 39.2144 18.1534 37.7638 18.1534 35.7079V18.0037V18.0151Z" fill="#B4BCD0"/>
<path opacity="0.8" d="M26.5623 32.8528H28.8929C31.7947 32.8528 32.2288 31.3679 32.2288 30.4884C32.2288 29.1406 31.0635 28.2383 29.3385 28.2383H26.5623C25.7969 28.2383 25.1914 28.8437 25.1914 29.6089V31.4707C25.1914 32.236 25.7969 32.8528 26.5623 32.8528ZM28.8929 31.9847H27.2592V30.7968C27.2592 30.5341 27.4649 30.3285 27.7276 30.3285H30.4923C30.7779 30.3285 31.075 30.3628 31.3377 30.4427C31.3377 30.4656 31.3377 30.477 31.3377 30.4998C31.3377 30.8654 31.3377 31.9961 28.8815 31.9961L28.8929 31.9847Z" fill="#B4BCD0"/>
<path opacity="0.8" d="M26.562 25.4622H28.4014C31.0404 25.4622 31.5888 24.2401 31.5888 23.2121C31.5888 21.0762 29.1782 21.0762 28.0244 21.0762H26.5506C25.7852 21.0762 25.1797 21.6815 25.1797 22.4468V24.0916C25.1797 24.8569 25.7852 25.4622 26.5506 25.4622H26.562ZM29.3724 24.5256C29.3039 24.5256 29.2353 24.5485 29.1554 24.5599C28.9383 24.5942 28.687 24.6056 28.4014 24.6056H27.2589V23.6347C27.2589 23.372 27.4646 23.1664 27.7273 23.1664H29.2011C29.8523 23.1664 30.3435 23.2121 30.7205 23.2806C30.7205 23.4976 30.6634 23.7261 30.5377 23.9317C30.3549 24.1944 30.0122 24.4114 29.3839 24.5142L29.3724 24.5256Z" fill="#B4BCD0"/>
<path d="M34.558 27.2787C34.3524 27.2559 34.1924 27.096 34.181 26.8904C34.1582 26.6848 34.2953 26.4906 34.5009 26.4335C37.0714 25.7025 38.5908 23.6693 38.5908 20.9852C38.5908 19.0206 37.7797 14.4746 30.2282 14.4746H21.3972C19.4893 14.4746 18.1641 15.9366 18.1641 18.0154V35.7196C18.1641 37.7756 19.4893 39.2262 21.3972 39.2262H30.9365C37.5398 39.2262 39.2991 35.0114 39.2991 32.5328C39.2991 29.4261 37.7112 27.6556 34.558 27.2901V27.2787ZM25.19 22.4472C25.19 21.6819 25.7955 21.0765 26.561 21.0765H28.0347C29.1886 21.0765 31.5991 21.0765 31.5991 23.2125C31.5991 24.2519 31.0393 25.4626 28.4117 25.4626H26.5724C25.807 25.4626 25.2015 24.8572 25.2015 24.092V22.4472H25.19ZM28.8915 32.8527H26.561C25.7955 32.8527 25.19 32.2359 25.19 31.4706V29.6088C25.19 28.8435 25.7955 28.2382 26.561 28.2382H29.3371C31.0622 28.2382 32.2275 29.1405 32.2275 30.4883C32.2275 31.3678 31.7933 32.8527 28.8915 32.8527Z" fill="#454A60"/>
</g>
<path opacity="0.15" d="M38.5215 53.3201C35.2884 54.6793 31.724 55.4218 27.9882 55.4218C21.8305 55.4218 16.1526 53.4001 11.5714 49.9735C4.87671 44.9706 0.546875 36.9866 0.546875 27.986C0.546875 13.3773 11.9598 1.44123 26.3545 0.607422C16.4267 4.71935 9.44646 14.508 9.44646 25.9301C9.44646 34.9306 13.7763 42.9146 20.4824 47.9289C25.0521 51.3441 30.7415 53.3772 36.8992 53.3772C37.4476 53.3772 37.9845 53.3772 38.5329 53.3201H38.5215Z" fill="url(#paint0_linear_3373_22674)"/>
<path d="M27.9897 0C12.5554 0 0 12.5528 0 27.984C0 36.8932 4.10135 45.0714 11.253 50.4054L11.5729 49.9714C11.8928 50.2113 12.2126 50.4397 12.544 50.6567C14.4747 51.9703 16.5882 53.0325 18.8274 53.8321C20.5182 56.5391 23.5113 58.3323 26.9272 58.3323C30.0004 58.3323 32.7194 56.8817 34.4673 54.6316C34.5244 54.6202 34.593 54.6088 34.6501 54.5973C37.5747 53.8663 40.3166 52.667 42.7728 51.0908C43.3326 50.7481 43.8696 50.3598 44.3951 49.9714L44.715 50.4054C51.8552 45.0714 55.968 36.8932 55.968 27.984C55.9794 12.5528 43.424 0 27.9897 0ZM48.6107 43.7921C46.4629 43.7921 44.5665 44.9914 43.5383 46.7847C42.5329 45.9623 41.2534 45.4711 39.8825 45.4711C38.5115 45.4711 37.2777 45.9623 36.2838 46.7732C35.3584 42.4671 31.5313 39.2347 26.9501 39.2347C22.9173 39.2347 19.4785 41.7361 18.0733 45.2655C17.0223 44.7401 15.8342 44.4431 14.5775 44.4431C12.921 44.4431 11.4015 44.9457 10.122 45.8138C9.21946 45.1056 8.08845 44.6944 6.88889 44.6487C3.15313 39.9657 1.08531 34.1633 1.08531 27.984C1.08531 13.1582 13.1609 1.08509 27.9897 1.08509C42.8185 1.08509 54.8941 13.1468 54.8941 27.984C54.8941 33.8321 53.0548 39.3603 49.6846 43.9063C49.3304 43.8378 48.9763 43.7921 48.6107 43.7921Z" fill="white"/>
<path d="M35.9645 6.04394C35.6447 5.92972 35.3135 5.8155 34.9823 5.7127C34.3883 5.51853 33.7373 5.86119 33.5545 6.45513C33.3603 7.0605 33.703 7.70014 34.2969 7.88289C34.5939 7.97427 34.8909 8.07706 35.1878 8.17986C35.3135 8.22555 35.4506 8.24839 35.5762 8.24839C36.0445 8.24839 36.4785 7.96284 36.6499 7.49454C36.8669 6.90059 36.5585 6.24954 35.9645 6.03252V6.04394Z" fill="white"/>
<path d="M39.0573 7.43489C38.5089 7.13791 37.812 7.34351 37.515 7.89177C37.218 8.45145 37.4236 9.13677 37.972 9.43374C40.9652 11.0557 43.5585 13.4086 45.4664 16.2413C45.6834 16.5725 46.049 16.7438 46.4146 16.7438C46.6316 16.7438 46.8601 16.6753 47.0543 16.5497C47.5799 16.1956 47.717 15.4874 47.3628 14.962C45.2493 11.8209 42.3818 9.21672 39.0573 7.42346V7.43489Z" fill="white"/>
<path d="M48.6128 56.1375H47.5161L46.328 52.688C47.1505 52.5167 47.7789 51.7857 47.7789 50.9062V50.7006C47.7789 49.6954 46.9563 48.873 45.951 48.873H10.0327C9.0274 48.873 8.20485 49.6954 8.20485 50.7006V50.9062C8.20485 51.7857 8.82176 52.5167 9.65574 52.688L8.46761 56.1375H7.37087C6.36552 56.1375 5.54297 56.9598 5.54297 57.965V58.1706C5.54297 59.1757 6.36552 59.9981 7.37087 59.9981H48.6128C49.6182 59.9981 50.4407 59.1757 50.4407 58.1706V57.965C50.4407 56.9598 49.6182 56.1375 48.6128 56.1375Z" fill="#B4BCD0"/>
<path d="M44.5102 50.1081H11.391C11.311 50.1081 11.2539 50.051 11.2539 49.971C11.2539 49.8911 11.311 49.834 11.391 49.834H44.5102C44.5902 49.834 44.6473 49.8911 44.6473 49.971C44.6473 50.051 44.5902 50.1081 44.5102 50.1081Z" fill="white"/>
<path d="M16.0293 56.6545C15.7209 56.6545 15.5039 56.4147 15.5039 56.0834V52.8738C15.5039 52.5426 15.7323 52.3027 16.0293 52.3027H17.4799C18.6907 52.3027 18.9534 52.9766 18.9534 53.4792C18.9534 53.9361 18.7021 54.3359 18.1652 54.4729C18.7935 54.5415 19.0904 54.8727 19.0904 55.4438C19.0904 56.0149 18.6907 56.6545 17.6056 56.6545H16.0293ZM16.6004 54.1417H17.32C17.6627 54.1417 17.8568 54.0275 17.8568 53.7533C17.8568 53.4792 17.6284 53.4107 17.2743 53.4107H16.6004V54.1417ZM16.6004 55.558H17.3885C17.7997 55.558 17.9711 55.4095 17.9711 55.1697C17.9711 54.9298 17.7655 54.8042 17.4799 54.8042H16.6004V55.558Z" fill="white"/>
<path d="M19.4805 54.9624C19.4805 53.9344 20.0516 53.2148 21.1824 53.2148C22.3131 53.2148 22.8842 53.9344 22.8842 54.9624C22.8842 55.9904 22.3131 56.7328 21.1824 56.7328C20.0516 56.7328 19.4805 55.9904 19.4805 54.9624ZM21.8905 54.9624C21.8905 54.4941 21.6507 54.2771 21.1938 54.2771C20.7369 54.2771 20.4856 54.4941 20.4856 54.9624C20.4856 55.4307 20.7255 55.6706 21.1938 55.6706C21.6621 55.6706 21.9019 55.4421 21.9019 54.9624H21.8905Z" fill="white"/>
<path d="M23.3886 56.196V54.4827L23.3201 53.7745C23.2858 53.4776 23.4914 53.2263 23.8341 53.2263C24.0968 53.2263 24.3138 53.3976 24.3367 53.6831L24.3709 54.22H24.4166C24.5194 53.4319 25.0334 53.2148 25.5017 53.2148C26.1528 53.2148 26.5411 53.626 26.5411 54.3799V56.2074C26.5411 56.5387 26.267 56.7328 26.0043 56.7328C25.7416 56.7328 25.4789 56.5272 25.4789 56.2074V54.7454C25.4789 54.4598 25.3532 54.2885 25.0677 54.2885C24.7364 54.2885 24.4623 54.517 24.4623 54.8139V56.2074C24.4623 56.5272 24.211 56.7328 23.9141 56.7328C23.6171 56.7328 23.4001 56.5272 23.4001 56.2074L23.3886 56.196Z" fill="white"/>
<path d="M30.2862 55.8177C30.2862 56.4345 29.4753 56.7315 28.7785 56.7315C27.7049 56.7315 27.0195 56.0918 27.0195 54.9953C27.0195 53.8988 27.7391 53.2363 28.7328 53.2363C29.7837 53.2363 30.3662 53.8189 30.3662 54.6412C30.3662 55.0296 30.1606 55.2009 29.738 55.2009H28.0818C28.1389 55.5322 28.4587 55.7035 28.8242 55.7035C29.1326 55.7035 29.3154 55.5893 29.4753 55.4979C29.5895 55.4294 29.6923 55.3722 29.8408 55.3722C30.0692 55.3722 30.2634 55.555 30.2634 55.8291L30.2862 55.8177ZM28.0932 54.6641L29.3611 54.6412C29.3611 54.39 29.1326 54.1615 28.7443 54.1615C28.4244 54.1615 28.1389 54.3214 28.0932 54.6641Z" fill="white"/>
<path d="M31.6344 52.3008C31.8514 52.3008 32.0456 52.4607 32.0456 52.7348V56.2071C32.0456 56.5269 31.7829 56.7325 31.5202 56.7325C31.2346 56.7325 30.9948 56.5269 30.9948 56.2071V53.4316C30.6635 53.3973 30.4922 53.1346 30.4922 52.8605C30.4922 52.5749 30.7092 52.3008 31.0519 52.3008H31.6344Z" fill="white"/>
<path d="M33.5797 53.2954C33.7967 53.2954 34.0023 53.4553 34.0023 53.7294V56.208C34.0023 56.5392 33.7396 56.7334 33.4655 56.7334C33.1914 56.7334 32.9401 56.5278 32.9401 56.208V54.4261C32.6088 54.3919 32.4375 54.1292 32.4375 53.855C32.4375 53.5581 32.6545 53.2954 32.9972 53.2954H33.5797ZM32.803 52.5072C32.803 52.1874 32.9858 51.959 33.4198 51.959C33.8538 51.959 34.048 52.1874 34.048 52.4958C34.048 52.8042 33.8538 53.0441 33.4198 53.0441C32.9858 53.0441 32.803 52.8156 32.803 52.5072Z" fill="white"/>
<path d="M34.4922 55.899C34.4922 55.6249 34.7092 55.3965 34.9376 55.3965C35.0976 55.3965 35.2004 55.4878 35.3146 55.5792C35.4745 55.6934 35.6344 55.7848 36.0113 55.7848C36.3882 55.7848 36.6281 55.7505 36.6281 55.5335C36.6281 55.3393 36.2169 55.3279 35.8743 55.3051C35.1775 55.2594 34.5836 55.1109 34.5836 54.3114C34.5836 53.626 35.1318 53.2148 36.0684 53.2148C36.9251 53.2148 37.5419 53.489 37.5419 53.9915C37.5419 54.2657 37.3249 54.4941 37.085 54.4941C36.9822 54.4941 36.868 54.4484 36.7766 54.3685C36.6395 54.2314 36.4339 54.1743 36.1141 54.1743C35.76 54.1743 35.5659 54.2542 35.5659 54.3913C35.5659 54.5855 35.8628 54.5969 36.274 54.6312C36.9251 54.6769 37.6104 54.7682 37.6104 55.5449C37.6104 56.3216 36.9251 56.7328 36.057 56.7328C35.029 56.7328 34.4922 56.4244 34.4922 55.9104V55.899Z" fill="white"/>
<path d="M38.3632 55.5207V54.3442H38.2261C37.9406 54.3671 37.7578 54.1158 37.7578 53.8416C37.7578 53.5675 37.9634 53.3162 38.2375 53.3277H38.3974V52.985C38.3974 52.688 38.6259 52.4824 38.9229 52.4824C39.2427 52.4824 39.4483 52.7109 39.4369 53.0078V53.3391L39.8823 53.3048C40.1679 53.2934 40.3735 53.5218 40.3735 53.8074C40.3735 54.0929 40.1679 54.3556 39.8823 54.3328L39.4369 54.3099V55.2466C39.4369 55.5093 39.5625 55.6121 39.6996 55.6121C39.8138 55.6121 39.9166 55.5778 39.9851 55.5207C40.0651 55.4864 40.1222 55.4636 40.1793 55.4636C40.3506 55.4636 40.4877 55.6235 40.4877 55.8976C40.4877 56.4459 39.9851 56.72 39.414 56.72C38.8429 56.72 38.3746 56.4002 38.3746 55.5093L38.3632 55.5207Z" fill="white"/>
<path opacity="0.8" d="M45.2874 22.9011L46.6238 24.5916C46.8979 25.0599 46.4296 25.3797 46.6695 25.8708C46.9436 26.4533 47.5261 26.5105 47.8459 26.2363C48.063 26.0422 48.1429 25.6995 48.0972 25.4939C48.2914 25.5853 48.6455 25.5853 48.8853 25.4139C49.228 25.1741 49.2965 24.5916 48.794 24.1918C48.3599 23.8491 47.9487 24.226 47.549 23.8491L46.2126 22.1587C45.9385 21.6904 46.4068 21.3705 46.1669 20.8794C45.8928 20.2969 45.3102 20.2398 44.9904 20.5139C44.7734 20.7081 44.6935 21.0507 44.7391 21.2563C44.545 21.1764 44.1909 21.1649 43.951 21.3363C43.6084 21.5761 43.5398 22.1587 44.0424 22.5584C44.4764 22.9011 44.8876 22.5242 45.276 22.9011H45.2874Z" fill="#B4BCD0"/>
<path opacity="0.8" d="M9.31267 19.9086L10.8093 21.6448C11.1177 22.1245 10.6379 22.49 10.9235 23.0154C11.2434 23.6208 11.8717 23.655 12.1916 23.3466C12.4201 23.1296 12.4886 22.7527 12.4315 22.5471C12.6372 22.6271 13.0142 22.6156 13.2655 22.4215C13.6197 22.1473 13.6653 21.5305 13.117 21.1194C12.6486 20.7767 12.2145 21.1879 11.7803 20.811L10.2723 19.0748C9.96386 18.5951 10.4437 18.2296 10.1581 17.7156C9.83819 17.1102 9.20985 17.0759 8.88997 17.3843C8.66148 17.6014 8.60436 17.9669 8.65005 18.1839C8.44441 18.1039 8.06741 18.1154 7.81607 18.3095C7.46192 18.5837 7.41622 19.2004 7.96459 19.6116C8.43299 19.9657 8.86712 19.5431 9.30124 19.92L9.31267 19.9086Z" fill="#B4BCD0"/>
<path opacity="0.8" d="M49.5701 33.409C49.1474 33.2491 48.6219 33.3862 48.3819 33.5804C48.3591 33.2606 48.1192 32.7808 47.7193 32.5752C47.1595 32.2783 46.3141 32.5867 46.1199 33.5575C45.9486 34.3799 46.7597 34.6883 46.5312 35.4764L45.1831 38.4804C44.749 39.1772 43.9836 38.7774 43.4809 39.4513C42.8868 40.2394 43.2181 41.0732 43.8122 41.3017C44.2349 41.4616 44.749 41.3245 45.0003 41.1303C45.0118 41.4502 45.2631 41.9299 45.663 42.1355C46.2227 42.4324 47.0681 42.1241 47.2624 41.1532C47.4337 40.3308 46.6226 40.0224 46.8511 39.2343L48.1992 36.2417C48.6333 35.545 49.3987 35.9447 49.9128 35.2708C50.5069 34.4827 50.1756 33.6489 49.5815 33.4205L49.5701 33.409Z" fill="#B4BCD0"/>
<path opacity="0.8" d="M13.6089 35.841C12.8663 35.9209 12.8206 36.6976 12.0894 36.7091L9.16478 36.3778C8.45647 36.1951 8.58214 35.4412 7.87383 35.1899C7.03985 34.9044 6.42293 35.407 6.38866 35.9781C6.36581 36.3778 6.62857 36.7776 6.86849 36.9375C6.60572 37.0403 6.26299 37.3715 6.19445 37.7713C6.10305 38.331 6.5943 38.9592 7.46255 38.8564C8.21656 38.7765 8.25083 37.9998 8.98199 37.9883L11.8952 38.3196C12.6035 38.5023 12.4778 39.2562 13.1862 39.5075C14.0201 39.793 14.6371 39.2904 14.6713 38.7193C14.6942 38.3196 14.4314 37.9084 14.1915 37.7599C14.4543 37.6571 14.797 37.3259 14.8655 36.9261C14.9569 36.3664 14.4657 35.7382 13.5974 35.841H13.6089Z" fill="#B4BCD0"/>
<path opacity="0.8" d="M24.1273 7.45817C24.2644 7.264 24.3672 6.87565 24.2415 6.56725C24.0587 6.13322 23.4304 5.90478 22.8592 6.36166C22.3679 6.75001 22.6764 7.30969 22.1737 7.65235L19.9574 8.7146C19.3747 8.89735 19.1348 8.3034 18.5179 8.44047C17.7982 8.60038 17.5811 9.24001 17.8096 9.6512C17.9695 9.94818 18.3351 10.1081 18.575 10.1195C18.4265 10.3137 18.3351 10.702 18.4608 11.0104C18.6436 11.4445 19.2719 11.6729 19.8431 11.216C20.3344 10.8277 20.0259 10.2566 20.54 9.92533L22.7563 8.86308C23.339 8.68033 23.5903 9.27428 24.1958 9.13721C24.9156 8.9773 25.1326 8.33767 24.9041 7.92648C24.7442 7.6295 24.3786 7.45817 24.1387 7.45817H24.1273Z" fill="#B4BCD0"/>
<path opacity="0.8" d="M50.2463 29.6406C49.9151 29.6406 49.6523 29.9033 49.6523 30.2346C49.6523 30.5658 49.9151 30.8285 50.2463 30.8285C50.5775 30.8285 50.8402 30.5658 50.8402 30.2346C50.8402 29.9033 50.5775 29.6406 50.2463 29.6406Z" fill="#B4BCD0"/>
<path opacity="0.8" d="M16.4084 11.8086C16.2942 11.8086 16.1914 11.9 16.1914 12.0256C16.1914 12.1513 16.2828 12.2426 16.4084 12.2426C16.5341 12.2426 16.6254 12.1513 16.6254 12.0256C16.6254 11.9 16.5341 11.8086 16.4084 11.8086Z" fill="#B4BCD0"/>
<path opacity="0.8" d="M37.2419 41.9961C36.7393 41.9961 36.3281 42.4073 36.3281 42.9099C36.3281 43.4124 36.7393 43.8236 37.2419 43.8236C37.7445 43.8236 38.1557 43.4124 38.1557 42.9099C38.1557 42.4073 37.7445 41.9961 37.2419 41.9961Z" fill="#B4BCD0"/>
<path opacity="0.8" d="M30.0106 6.45312C29.8165 6.45312 29.668 6.61303 29.668 6.79579C29.668 6.97854 29.8279 7.13845 30.0106 7.13845C30.1934 7.13845 30.3533 6.97854 30.3533 6.79579C30.3533 6.61303 30.1934 6.45312 30.0106 6.45312Z" fill="#B4BCD0"/>
<path opacity="0.8" d="M7.03812 30.2476C7.03812 29.7793 6.66119 29.4023 6.19289 29.4023C5.72458 29.4023 5.34766 29.7793 5.34766 30.2476C5.34766 30.7159 5.72458 31.0928 6.19289 31.0928C6.66119 31.0928 7.03812 30.7159 7.03812 30.2476Z" fill="#B4BCD0"/>
<path opacity="0.8" d="M13.5287 28.3835C13.7495 28.3835 13.9284 28.2045 13.9284 27.9838C13.9284 27.763 13.7495 27.584 13.5287 27.584C13.3079 27.584 13.1289 27.763 13.1289 27.9838C13.1289 28.2045 13.3079 28.3835 13.5287 28.3835Z" fill="#B4BCD0"/>
<path opacity="0.8" d="M40.9466 16.9617C41.1674 16.9617 41.3464 16.7827 41.3464 16.5619C41.3464 16.3411 41.1674 16.1621 40.9466 16.1621C40.7259 16.1621 40.5469 16.3411 40.5469 16.5619C40.5469 16.7827 40.7259 16.9617 40.9466 16.9617Z" fill="#B4BCD0"/>
<defs>
<linearGradient id="paint0_linear_3373_22674" x1="19.8998" y1="46.0785" x2="17.3189" y2="11.4925" gradientUnits="userSpaceOnUse">
<stop stop-color="white"/>
<stop offset="1" stop-color="white" stop-opacity="0"/>
</linearGradient>
</defs>
</svg>
