<svg width="56" height="60" viewBox="0 0 56 60" fill="none" xmlns="http://www.w3.org/2000/svg">
<path d="M44.0677 49.5382L44.3989 49.9723C39.83 53.3989 34.1418 55.432 27.9852 55.432C21.8286 55.432 16.1518 53.4103 11.5715 49.9723L11.9028 49.5382C5.0266 44.4097 1.08594 36.5399 1.08594 27.9848C1.08594 13.159 13.1592 1.08594 27.9852 1.08594C42.8112 1.08594 54.8845 13.1476 54.8845 27.9848C54.8845 36.5399 50.9438 44.4097 44.0677 49.5382Z" fill="#17171E" fill-opacity="0.6"/>
<g opacity="0.8">
<path opacity="0.8" d="M39.566 29.1383C39.4746 29.024 39.3718 28.9327 39.2576 28.8413C39.1662 28.7271 39.0634 28.6357 38.9606 28.5443C38.9149 28.4986 38.8806 28.4529 38.8464 28.4301C38.8464 28.4301 38.8464 28.4301 38.8464 28.4072C38.6864 28.2131 38.4923 28.0417 38.2981 27.8704C38.1724 27.7562 38.0354 27.6534 37.8869 27.5392C39.6345 26.3627 40.6511 24.4324 40.6511 22.148C40.6511 21.1314 40.4112 18.7785 38.5151 16.9966C38.4237 16.8938 38.3209 16.8025 38.2181 16.6997C38.1153 16.5969 38.024 16.5169 37.9212 16.4141C37.8755 16.3684 37.8412 16.3341 37.8069 16.2999C37.7841 16.277 37.7613 16.2542 37.7498 16.2314C37.6242 16.1057 37.4985 15.9686 37.3615 15.8544C37.2815 15.7745 37.2016 15.7059 37.1102 15.626C36.996 15.5232 36.8932 15.4432 36.7789 15.3633C36.6647 15.2719 36.5619 15.2034 36.4477 15.1234C35.7738 14.6665 34.9285 14.2896 33.9234 14.0155C33.8092 13.9812 33.7064 13.9469 33.6036 13.9355C33.4322 13.8784 33.2495 13.8441 33.0667 13.8213C32.8497 13.7756 32.6441 13.7413 32.4157 13.7071C32.2215 13.6842 32.0273 13.65 31.8217 13.6385C31.3191 13.5814 30.7709 13.5586 30.2112 13.5586H21.3818C18.9946 13.5586 17.2812 15.4204 17.2812 17.9675V35.6717C17.2812 36.2199 17.3612 36.7225 17.5097 37.1908C17.544 37.305 17.5896 37.4192 17.6239 37.5335C17.681 37.6705 17.7381 37.8076 17.8067 37.9332C17.8752 38.0589 17.9437 38.1845 18.0351 38.2987C18.2293 38.6185 18.4806 38.8813 18.7547 39.1211C18.789 39.1668 18.8347 39.2125 18.8689 39.2468C18.9603 39.3496 19.0517 39.4409 19.1545 39.5437C19.2459 39.6579 19.3372 39.7493 19.44 39.8521C20.1825 40.7316 21.2562 41.2685 22.5469 41.2685H32.0844C38.4923 41.2685 41.3478 37.4421 41.3478 33.6728C41.3478 31.6968 40.731 30.1548 39.566 29.104V29.1383ZM18.1493 18.0132C18.1493 15.9344 19.4743 14.4724 21.3818 14.4724H30.2112C37.7613 14.4724 38.5722 19.0183 38.5722 20.9829C38.5722 23.6671 37.0531 25.7002 34.4831 26.4312C34.2775 26.4883 34.1404 26.6825 34.1633 26.8881C34.1633 27.0937 34.3346 27.2536 34.5402 27.2765C37.6927 27.642 39.2804 29.4238 39.2804 32.5192C39.2804 34.9978 37.5214 39.2125 30.9194 39.2125H21.3818C19.4743 39.2125 18.1493 37.7619 18.1493 35.7059V18.0018V18.0132Z" fill="#B4BCD0"/>
<path opacity="0.8" d="M26.5543 32.85H28.8844C31.7856 32.85 32.2197 31.3654 32.2197 30.486C32.2197 29.1385 31.0546 28.2363 29.3299 28.2363H26.5543C25.789 28.2363 25.1836 28.8416 25.1836 29.6067V31.4682C25.1836 32.2333 25.789 32.85 26.5543 32.85ZM28.8844 31.982H27.251V30.7944C27.251 30.5317 27.4566 30.3262 27.7193 30.3262H30.4835C30.7691 30.3262 31.066 30.3604 31.3287 30.4404C31.3287 30.4632 31.3287 30.4746 31.3287 30.4975C31.3287 30.8629 31.3287 31.9935 28.873 31.9935L28.8844 31.982Z" fill="#B4BCD0"/>
<path opacity="0.8" d="M26.5579 25.4594H28.3968C31.0354 25.4594 31.5836 24.2375 31.5836 23.2097C31.5836 21.0742 29.1736 21.0742 28.0199 21.0742H26.5464C25.7812 21.0742 25.1758 21.6795 25.1758 22.4446V24.0891C25.1758 24.8542 25.7812 25.4594 26.5464 25.4594H26.5579ZM29.3677 24.523C29.2992 24.523 29.2307 24.5459 29.1507 24.5573C28.9337 24.5915 28.6824 24.603 28.3968 24.603H27.2546V23.6323C27.2546 23.3696 27.4602 23.1641 27.7229 23.1641H29.1964C29.8475 23.1641 30.3386 23.2097 30.7155 23.2783C30.7155 23.4952 30.6584 23.7236 30.5328 23.9292C30.35 24.1918 30.0074 24.4088 29.3791 24.5116L29.3677 24.523Z" fill="#B4BCD0"/>
<path d="M34.551 27.2768C34.3454 27.2539 34.1855 27.094 34.1741 26.8884C34.1512 26.6828 34.2883 26.4886 34.4939 26.4315C37.0639 25.7005 38.583 23.6674 38.583 20.9832C38.583 19.0186 37.7721 14.4727 30.222 14.4727H21.3926C19.4851 14.4727 18.1602 15.9347 18.1602 18.0135V35.7176C18.1602 37.7736 19.4851 39.2242 21.3926 39.2242H30.9302C37.5322 39.2242 39.2912 35.0095 39.2912 32.5309C39.2912 29.4241 37.7035 27.6537 34.551 27.2882V27.2768ZM25.1848 22.4452C25.1848 21.68 25.7902 21.0746 26.5555 21.0746H28.0289C29.1826 21.0746 31.5927 21.0746 31.5927 23.2105C31.5927 24.2499 31.033 25.4607 28.4059 25.4607H26.5669C25.8016 25.4607 25.1962 24.8553 25.1962 24.09V22.4452H25.1848ZM28.8856 32.8507H26.5555C25.7902 32.8507 25.1848 32.2339 25.1848 31.4686V29.6069C25.1848 28.8416 25.7902 28.2362 26.5555 28.2362H29.3311C31.0558 28.2362 32.2209 29.1386 32.2209 30.4864C32.2209 31.3658 31.7868 32.8507 28.8856 32.8507Z" fill="#17171E"/>
</g>
<path opacity="0.15" d="M38.5143 53.3182C35.2818 54.6774 31.7181 55.4198 27.983 55.4198C21.8264 55.4198 16.1496 53.3981 11.5693 49.9715C4.87589 44.9687 0.546875 36.9847 0.546875 27.9841C0.546875 13.3753 11.9577 1.43928 26.3496 0.605469C16.4237 4.7174 9.44477 14.5061 9.44477 25.9281C9.44477 34.9287 13.7738 42.9127 20.4786 47.927C25.0475 51.3422 30.7357 53.3753 36.8923 53.3753C37.4406 53.3753 37.9774 53.3753 38.5257 53.3182H38.5143Z" fill="url(#paint0_linear_3373_22674)"/>
<path d="M27.9844 0C12.553 0 0 12.5528 0 27.984C0 36.8932 4.10057 45.0714 11.2509 50.4054L11.5707 49.9714C11.8905 50.2113 12.2103 50.4397 12.5416 50.6567C14.4719 51.9703 16.585 53.0325 18.8238 53.8321C20.5143 56.5391 23.5069 58.3323 26.9221 58.3323C29.9947 58.3323 32.7132 56.8817 34.4608 54.6316C34.5179 54.6202 34.5864 54.6088 34.6435 54.5973C37.5676 53.8663 40.3089 52.667 42.7647 51.0908C43.3244 50.7481 43.8612 50.3598 44.3867 49.9714L44.7065 50.4054C51.8454 45.0714 55.9574 36.8932 55.9574 27.984C55.9688 12.5528 43.4158 0 27.9844 0ZM48.6015 43.7921C46.4541 43.7921 44.558 44.9914 43.53 46.7847C42.5248 45.9623 41.2456 45.4711 39.8749 45.4711C38.5042 45.4711 37.2706 45.9623 36.2769 46.7732C35.3517 42.4671 31.5253 39.2347 26.945 39.2347C22.9129 39.2347 19.4748 41.7361 18.0699 45.2655C17.0191 44.7401 15.8312 44.4431 14.5747 44.4431C12.9185 44.4431 11.3994 44.9457 10.1201 45.8138C9.21771 45.1056 8.08692 44.6944 6.88759 44.6487C3.15253 39.9657 1.08511 34.1633 1.08511 27.984C1.08511 13.1582 13.1584 1.08509 27.9844 1.08509C42.8104 1.08509 54.8837 13.1468 54.8837 27.984C54.8837 33.8321 53.0447 39.3603 49.6751 43.9063C49.3211 43.8378 48.967 43.7921 48.6015 43.7921Z" fill="white"/>
<path d="M35.9563 6.04192C35.6365 5.92772 35.3053 5.81352 34.9742 5.71074C34.3803 5.5166 33.7294 5.8592 33.5467 6.45303C33.3525 7.05828 33.6951 7.6978 34.289 7.88051C34.5859 7.97187 34.8828 8.07465 35.1797 8.17743C35.3053 8.22311 35.4424 8.24595 35.568 8.24595C36.0362 8.24595 36.4702 7.96045 36.6415 7.49224C36.8584 6.89841 36.5501 6.24747 35.9563 6.0305V6.04192Z" fill="white"/>
<path d="M39.0531 7.43489C38.5048 7.13791 37.808 7.34351 37.5111 7.89177C37.2141 8.45145 37.4197 9.13677 37.9679 9.43374C40.9606 11.0557 43.5534 13.4086 45.4609 16.2413C45.6779 16.5725 46.0434 16.7438 46.409 16.7438C46.626 16.7438 46.8544 16.6753 47.0486 16.5497C47.574 16.1956 47.7111 15.4874 47.357 14.962C45.2439 11.8209 42.3769 9.21672 39.0531 7.42346V7.43489Z" fill="white"/>
<path d="M48.6008 56.1394H47.5042L46.3163 52.69C47.1387 52.5186 47.7669 51.7876 47.7669 50.9081V50.7025C47.7669 49.6974 46.9445 48.875 45.9394 48.875H10.028C9.02283 48.875 8.20043 49.6974 8.20043 50.7025V50.9081C8.20043 51.7876 8.81723 52.5186 9.65105 52.69L8.46315 56.1394H7.36661C6.36146 56.1394 5.53906 56.9618 5.53906 57.9669V58.1725C5.53906 59.1777 6.36146 60.0001 7.36661 60.0001H48.6008C49.6059 60.0001 50.4283 59.1777 50.4283 58.1725V57.9669C50.4283 56.9618 49.6059 56.1394 48.6008 56.1394Z" fill="#B4BCD0"/>
<path d="M44.5 50.1081H11.3871C11.3071 50.1081 11.25 50.051 11.25 49.971C11.25 49.8911 11.3071 49.834 11.3871 49.834H44.5C44.58 49.834 44.6371 49.8911 44.6371 49.971C44.6371 50.051 44.58 50.1081 44.5 50.1081Z" fill="white"/>
<path d="M16.0253 56.6517C15.717 56.6517 15.5 56.4119 15.5 56.0808V52.8718C15.5 52.5406 15.7284 52.3008 16.0253 52.3008H17.4756C18.6861 52.3008 18.9488 52.9746 18.9488 53.477C18.9488 53.9338 18.6976 54.3335 18.1608 54.4706C18.7889 54.5391 19.0858 54.8703 19.0858 55.4412C19.0858 56.0122 18.6861 56.6517 17.6013 56.6517H16.0253ZM16.5963 54.1394H17.3158C17.6584 54.1394 17.8525 54.0252 17.8525 53.7511C17.8525 53.477 17.6241 53.4085 17.2701 53.4085H16.5963V54.1394ZM16.5963 55.5554H17.3843C17.7954 55.5554 17.9667 55.407 17.9667 55.1672C17.9667 54.9273 17.7611 54.8017 17.4756 54.8017H16.5963V55.5554Z" fill="white"/>
<path d="M19.4766 54.9621C19.4766 53.9343 20.0476 53.2148 21.1781 53.2148C22.3087 53.2148 22.8797 53.9343 22.8797 54.9621C22.8797 55.9899 22.3087 56.7322 21.1781 56.7322C20.0476 56.7322 19.4766 55.9899 19.4766 54.9621ZM21.8862 54.9621C21.8862 54.4939 21.6463 54.2769 21.1895 54.2769C20.7327 54.2769 20.4815 54.4939 20.4815 54.9621C20.4815 55.4303 20.7213 55.6701 21.1895 55.6701C21.6578 55.6701 21.8976 55.4417 21.8976 54.9621H21.8862Z" fill="white"/>
<path d="M23.3808 56.1954V54.4825L23.3123 53.7744C23.278 53.4775 23.4836 53.2263 23.8262 53.2263C24.0889 53.2263 24.3058 53.3976 24.3287 53.6831L24.3629 54.2198H24.4086C24.5114 53.4318 25.0253 53.2148 25.4935 53.2148C26.1444 53.2148 26.5327 53.626 26.5327 54.3797V56.2068C26.5327 56.538 26.2586 56.7322 25.996 56.7322C25.7333 56.7322 25.4707 56.5266 25.4707 56.2068V54.7451C25.4707 54.4596 25.345 54.2883 25.0595 54.2883C24.7284 54.2883 24.4543 54.5167 24.4543 54.8136V56.2068C24.4543 56.5266 24.2031 56.7322 23.9061 56.7322C23.6092 56.7322 23.3922 56.5266 23.3922 56.2068L23.3808 56.1954Z" fill="white"/>
<path d="M30.2778 55.8192C30.2778 56.4358 29.467 56.7328 28.7704 56.7328C27.6969 56.7328 27.0117 56.0932 27.0117 54.9969C27.0117 53.9006 27.7312 53.2383 28.7247 53.2383C29.7753 53.2383 30.3577 53.8207 30.3577 54.6429C30.3577 55.0312 30.1522 55.2025 29.7296 55.2025H28.0738C28.1309 55.5337 28.4506 55.705 28.8161 55.705C29.1244 55.705 29.3071 55.5908 29.467 55.4994C29.5812 55.4309 29.684 55.3738 29.8324 55.3738C30.0608 55.3738 30.255 55.5565 30.255 55.8306L30.2778 55.8192ZM28.0852 54.6658L29.3528 54.6429C29.3528 54.3917 29.1244 54.1633 28.7361 54.1633C28.4164 54.1633 28.1309 54.3232 28.0852 54.6658Z" fill="white"/>
<path d="M31.6264 52.3008C31.8433 52.3008 32.0375 52.4607 32.0375 52.7347V56.2064C32.0375 56.5261 31.7748 56.7317 31.5122 56.7317C31.2267 56.7317 30.9868 56.5261 30.9868 56.2064V53.4313C30.6557 53.3971 30.4844 53.1344 30.4844 52.8604C30.4844 52.5749 30.7014 52.3008 31.0439 52.3008H31.6264Z" fill="white"/>
<path d="M33.5717 53.2951C33.7887 53.2951 33.9942 53.455 33.9942 53.7291V56.2072C33.9942 56.5383 33.7316 56.7325 33.4575 56.7325C33.1834 56.7325 32.9322 56.5269 32.9322 56.2072V54.4257C32.601 54.3914 32.4297 54.1288 32.4297 53.8547C32.4297 53.5578 32.6467 53.2951 32.9893 53.2951H33.5717ZM32.7951 52.5071C32.7951 52.1874 32.9778 51.959 33.4118 51.959C33.8458 51.959 34.0399 52.1874 34.0399 52.4957C34.0399 52.8041 33.8458 53.0439 33.4118 53.0439C32.9778 53.0439 32.7951 52.8155 32.7951 52.5071Z" fill="white"/>
<path d="M34.4844 55.8985C34.4844 55.6244 34.7014 55.396 34.9297 55.396C35.0896 55.396 35.1924 55.4874 35.3066 55.5788C35.4665 55.693 35.6264 55.7843 36.0032 55.7843C36.3801 55.7843 36.6199 55.7501 36.6199 55.5331C36.6199 55.3389 36.2088 55.3275 35.8662 55.3047C35.1696 55.259 34.5757 55.1105 34.5757 54.3112C34.5757 53.626 35.1239 53.2148 36.0603 53.2148C36.9168 53.2148 37.5335 53.4889 37.5335 53.9914C37.5335 54.2655 37.3165 54.4939 37.0767 54.4939C36.9739 54.4939 36.8597 54.4482 36.7683 54.3682C36.6313 54.2312 36.4258 54.1741 36.106 54.1741C35.752 54.1741 35.5578 54.2541 35.5578 54.3911C35.5578 54.5852 35.8548 54.5966 36.2659 54.6309C36.9168 54.6766 37.602 54.7679 37.602 55.5445C37.602 56.321 36.9168 56.7322 36.0489 56.7322C35.0211 56.7322 34.4844 56.4238 34.4844 55.9099V55.8985Z" fill="white"/>
<path d="M38.3553 55.5221V54.3458H38.2182C37.9327 54.3687 37.75 54.1174 37.75 53.8433C37.75 53.5693 37.9556 53.318 38.2296 53.3294H38.3895V52.9868C38.3895 52.6899 38.6179 52.4844 38.9148 52.4844C39.2346 52.4844 39.4401 52.7128 39.4287 53.0097V53.3409L39.8741 53.3066C40.1596 53.2952 40.3652 53.5236 40.3652 53.8091C40.3652 54.0946 40.1596 54.3572 39.8741 54.3344L39.4287 54.3116V55.248C39.4287 55.5106 39.5543 55.6134 39.6914 55.6134C39.8056 55.6134 39.9084 55.5792 39.9769 55.5221C40.0568 55.4878 40.1139 55.465 40.171 55.465C40.3423 55.465 40.4793 55.6248 40.4793 55.8989C40.4793 56.4471 39.9769 56.7211 39.4059 56.7211C38.8349 56.7211 38.3667 56.4014 38.3667 55.5106L38.3553 55.5221Z" fill="white"/>
<path opacity="0.8" d="M45.2754 22.9011L46.6115 24.5916C46.8856 25.0599 46.4174 25.3797 46.6572 25.8708C46.9313 26.4533 47.5137 26.5105 47.8334 26.2363C48.0504 26.0422 48.1303 25.6995 48.0847 25.4939C48.2788 25.5853 48.6328 25.5853 48.8726 25.4139C49.2152 25.1741 49.2837 24.5916 48.7813 24.1918C48.3473 23.8491 47.9362 24.226 47.5365 23.8491L46.2004 22.1587C45.9263 21.6904 46.3945 21.3705 46.1547 20.8794C45.8806 20.2969 45.2982 20.2398 44.9785 20.5139C44.7615 20.7081 44.6815 21.0507 44.7272 21.2563C44.5331 21.1764 44.1791 21.1649 43.9392 21.3363C43.5967 21.5761 43.5281 22.1587 44.0306 22.5584C44.4646 22.9011 44.8757 22.5242 45.264 22.9011H45.2754Z" fill="#B4BCD0"/>
<path opacity="0.8" d="M9.30843 19.9086L10.8047 21.6448C11.1131 22.1245 10.6334 22.49 10.919 23.0154C11.2388 23.6208 11.867 23.655 12.1868 23.3466C12.4153 23.1296 12.4838 22.7527 12.4267 22.5471C12.6323 22.6271 13.0092 22.6156 13.2605 22.4215C13.6146 22.1473 13.6603 21.5305 13.112 21.1193C12.6437 20.7767 12.2097 21.1879 11.7756 20.811L10.2679 19.0748C9.95949 18.5951 10.4392 18.2296 10.1537 17.7156C9.83385 17.1102 9.20563 17.0759 8.8858 17.3843C8.65736 17.6014 8.60025 17.9669 8.64594 18.1839C8.44034 18.1039 8.06341 18.1154 7.81212 18.3095C7.45803 18.5837 7.41234 19.2004 7.96061 19.6116C8.42892 19.9657 8.86296 19.5431 9.297 19.92L9.30843 19.9086Z" fill="#B4BCD0"/>
<path opacity="0.8" d="M49.5611 33.409C49.1384 33.2491 48.613 33.3862 48.3731 33.5804C48.3503 33.2606 48.1104 32.7808 47.7107 32.5752C47.151 32.2783 46.3057 32.5867 46.1115 33.5575C45.9402 34.3799 46.7512 34.6883 46.5227 35.4764L45.1749 38.4804C44.7409 39.1772 43.9756 38.7774 43.473 39.4513C42.8791 40.2394 43.2103 41.0732 43.8043 41.3017C44.2269 41.4616 44.7409 41.3245 44.9922 41.1303C45.0036 41.4502 45.2549 41.9299 45.6547 42.1355C46.2144 42.4324 47.0596 42.1241 47.2538 41.1532C47.4251 40.3308 46.6141 40.0224 46.8426 39.2343L48.1904 36.2417C48.6244 35.545 49.3897 35.9447 49.9037 35.2708C50.4977 34.4827 50.1664 33.6489 49.5725 33.4205L49.5611 33.409Z" fill="#B4BCD0"/>
<path opacity="0.8" d="M13.6035 35.8409C12.8611 35.9208 12.8154 36.6973 12.0844 36.7088L9.16031 36.3776C8.45214 36.1949 8.57778 35.4412 7.8696 35.1899C7.03578 34.9044 6.41898 35.4069 6.38472 35.9779C6.36187 36.3776 6.62458 36.7773 6.86445 36.9372C6.60174 37.0399 6.25907 37.3711 6.19054 37.7708C6.09916 38.3304 6.59032 38.9585 7.4584 38.8557C8.21227 38.7758 8.24654 37.9992 8.97756 37.9878L11.8902 38.319C12.5984 38.5017 12.4727 39.2554 13.1809 39.5066C14.0147 39.7921 14.6315 39.2897 14.6658 38.7187C14.6887 38.319 14.4259 37.9079 14.1861 37.7594C14.4488 37.6566 14.7915 37.3254 14.86 36.9257C14.9514 36.3662 14.4602 35.7381 13.5921 35.8409H13.6035Z" fill="#B4BCD0"/>
<path opacity="0.8" d="M24.1221 7.45792C24.2592 7.26378 24.362 6.8755 24.2364 6.56717C24.0536 6.13321 23.4254 5.90481 22.8543 6.36161C22.3631 6.74989 22.6715 7.30946 22.169 7.65205L19.953 8.7141C19.3705 8.89682 19.1306 8.30299 18.5138 8.44003C17.7943 8.5999 17.5772 9.23942 17.8057 9.65053C17.9656 9.94745 18.3311 10.1073 18.571 10.1187C18.4225 10.3129 18.3311 10.7012 18.4567 11.0095C18.6395 11.4435 19.2677 11.6718 19.8388 11.2151C20.33 10.8268 20.0216 10.2558 20.5356 9.92461L22.7515 8.86256C23.334 8.67984 23.5853 9.27368 24.1907 9.13664C24.9103 8.97676 25.1273 8.33725 24.8989 7.92613C24.7389 7.62922 24.3734 7.45792 24.1336 7.45792H24.1221Z" fill="#B4BCD0"/>
<path opacity="0.8" d="M50.2345 29.6406C49.9033 29.6406 49.6406 29.9033 49.6406 30.2345C49.6406 30.5656 49.9033 30.8283 50.2345 30.8283C50.5656 30.8283 50.8283 30.5656 50.8283 30.2345C50.8283 29.9033 50.5656 29.6406 50.2345 29.6406Z" fill="#B4BCD0"/>
<path opacity="0.8" d="M16.4006 11.8105C16.2864 11.8105 16.1836 11.9019 16.1836 12.0275C16.1836 12.1531 16.275 12.2445 16.4006 12.2445C16.5262 12.2445 16.6175 12.1531 16.6175 12.0275C16.6175 11.9019 16.5262 11.8105 16.4006 11.8105Z" fill="#B4BCD0"/>
<path opacity="0.8" d="M37.2339 41.998C36.7314 41.998 36.3203 42.4092 36.3203 42.9116C36.3203 43.4141 36.7314 43.8252 37.2339 43.8252C37.7364 43.8252 38.1475 43.4141 38.1475 42.9116C38.1475 42.4092 37.7364 41.998 37.2339 41.998Z" fill="#B4BCD0"/>
<path opacity="0.8" d="M30.0028 6.45312C29.8086 6.45312 29.6602 6.613 29.6602 6.79572C29.6602 6.97844 29.82 7.13832 30.0028 7.13832C30.1855 7.13832 30.3453 6.97844 30.3453 6.79572C30.3453 6.613 30.1855 6.45312 30.0028 6.45312Z" fill="#B4BCD0"/>
<path opacity="0.8" d="M7.03389 30.2455C7.03389 29.7772 6.65704 29.4004 6.18882 29.4004C5.72061 29.4004 5.34375 29.7772 5.34375 30.2455C5.34375 30.7137 5.72061 31.0905 6.18882 31.0905C6.65704 31.0905 7.03389 30.7137 7.03389 30.2455Z" fill="#B4BCD0"/>
<path opacity="0.8" d="M13.5208 28.3834C13.7415 28.3834 13.9205 28.2044 13.9205 27.9837C13.9205 27.7629 13.7415 27.584 13.5208 27.584C13.3 27.584 13.1211 27.7629 13.1211 27.9837C13.1211 28.2044 13.3 28.3834 13.5208 28.3834Z" fill="#B4BCD0"/>
<path opacity="0.8" d="M40.9348 16.9615C41.1556 16.9615 41.3345 16.7826 41.3345 16.5618C41.3345 16.3411 41.1556 16.1621 40.9348 16.1621C40.7141 16.1621 40.5352 16.3411 40.5352 16.5618C40.5352 16.7826 40.7141 16.9615 40.9348 16.9615Z" fill="#B4BCD0"/>
<defs>
<linearGradient id="paint0_linear_3373_22674" x1="19.8961" y1="46.0766" x2="17.3147" y2="11.4907" gradientUnits="userSpaceOnUse">
<stop stop-color="white"/>
<stop offset="1" stop-color="white" stop-opacity="0"/>
</linearGradient>
</defs>
</svg>
