<svg width="56" height="60" viewBox="0 0 56 60" fill="none" xmlns="http://www.w3.org/2000/svg">
<path opacity="0.15" d="M44.0758 49.5363L44.4071 49.9703C39.8374 53.3969 34.1481 55.43 27.9903 55.43C21.8326 55.43 16.1547 53.4083 11.5735 49.9703L11.9048 49.5363C5.02734 44.4078 1.08594 36.538 1.08594 27.9829C1.08594 13.1571 13.1615 1.08398 27.9903 1.08398C42.8191 1.08398 54.8947 13.1457 54.8947 27.9829C54.8947 36.538 50.9533 44.4078 44.0758 49.5363Z" fill="#939FD1"/>
<path opacity="0.15" d="M38.5215 53.3201C35.2884 54.6793 31.724 55.4218 27.9882 55.4218C21.8305 55.4218 16.1526 53.4001 11.5714 49.9735C4.87671 44.9706 0.546875 36.9866 0.546875 27.986C0.546875 13.3773 11.9598 1.44123 26.3545 0.607422C16.4267 4.71935 9.44646 14.508 9.44646 25.9301C9.44646 34.9306 13.7763 42.9146 20.4824 47.9289C25.0521 51.3441 30.7415 53.3772 36.8992 53.3772C37.4476 53.3772 37.9845 53.3772 38.5329 53.3201H38.5215Z" fill="url(#paint0_linear_3373_22683)"/>
<path d="M36.7722 14.1848C36.7722 14.1848 36.7608 14.082 36.7151 14.0478C36.3838 13.7965 35.9725 13.5452 35.5384 13.2711C35.1614 13.0426 34.7844 12.8028 34.4531 12.5629C34.396 12.5286 34.3274 12.54 34.2817 12.5857C34.2246 12.62 34.2246 12.7114 34.2474 12.7685C34.2589 12.7685 34.2703 12.8028 34.2703 12.8142V12.8484C34.3388 13.0198 34.3617 13.3053 34.3731 13.8307C34.4188 14.3904 34.3845 15.0643 34.2589 15.1557C34.156 15.2242 33.8133 15.3042 33.1279 15.3042C33.0593 15.3042 32.9908 15.3613 32.9908 15.4412C32.9908 15.4755 32.9908 15.5098 32.9908 15.5555C32.9908 16.3664 32.9565 17.0175 32.8994 17.4401C32.6823 18.8907 32.5109 19.359 31.4142 19.3818C30.1689 19.3933 26.5588 19.3933 25.2565 19.3818C24.1597 19.359 23.9998 18.8907 23.7713 17.4401C23.7142 17.0061 23.6799 16.3093 23.6799 15.4412C23.6799 15.407 23.6685 15.3727 23.6342 15.3384C23.6114 15.3156 23.5771 15.3042 23.5428 15.3042C22.983 15.3156 22.5375 15.2471 22.4004 15.1557C22.2747 15.0643 22.2404 14.3904 22.2861 13.8193C22.2861 13.3053 22.3204 13.0198 22.3775 12.8484C22.3775 12.8484 22.4004 12.7799 22.4118 12.7685C22.4461 12.7114 22.4346 12.6314 22.3889 12.5857C22.3318 12.54 22.2633 12.54 22.2062 12.5743C21.8749 12.8028 21.4978 13.0426 21.1437 13.2711C20.7096 13.5452 20.2983 13.7965 19.9556 14.0478C19.9099 14.082 19.8984 14.1391 19.8984 14.1848C19.8984 14.1962 20.1041 15.3956 20.1726 17.68C20.2069 18.7651 20.2069 19.9187 20.1726 21.1066C20.1498 21.7919 20.1155 22.5115 20.0698 23.2425C20.0698 23.2653 20.0698 23.2996 20.0927 23.3225C20.2754 23.6537 20.3554 23.7908 20.3897 23.8364C20.424 24.042 20.6067 25.367 20.3326 27.7542C19.9898 30.644 20.4925 33.1568 21.772 35.0072C21.7949 35.0415 21.8292 35.0871 21.8749 35.1557H21.8863C21.8863 35.1557 21.9777 35.2585 22.0234 35.3042C22.0462 35.3384 22.0805 35.3727 22.1148 35.3955C23.1887 36.355 25.2793 36.6405 26.8445 36.7205C27.2329 36.7319 27.7927 36.7433 28.341 36.7433C28.8894 36.7433 29.4492 36.7319 29.8376 36.7205C31.4028 36.6405 33.4934 36.355 34.5673 35.3955C34.6016 35.3727 34.6359 35.3384 34.6587 35.3042C34.7158 35.2471 34.7615 35.1899 34.8072 35.1328C34.8072 35.1328 34.8149 35.1328 34.8301 35.1328C34.8301 35.1328 34.8872 35.0529 34.9215 35.0186C36.201 33.1682 36.6923 30.6554 36.3495 27.7656C36.0753 25.3784 36.2581 24.0535 36.2924 23.8479C36.3267 23.7908 36.4066 23.6651 36.5894 23.3339C36.6009 23.311 36.6123 23.2768 36.6123 23.2539C36.2467 17.3601 36.7722 14.2305 36.7837 14.1962L36.7722 14.1848ZM34.5902 34.9387C34.5902 34.9387 34.5902 34.9501 34.5787 34.9615C34.5331 35.0072 34.4988 35.0529 34.4531 35.0986C34.4188 35.1328 34.396 35.1557 34.3617 35.1899C33.3106 36.138 31.06 36.3778 29.8148 36.4349C29.0494 36.4692 27.6099 36.4692 26.8445 36.4349C25.5992 36.3778 23.3486 36.138 22.2976 35.1899C22.2633 35.1557 22.2404 35.1328 22.2176 35.11C22.1719 35.0529 22.1262 35.0072 22.0805 34.9615C22.0805 34.9501 22.0691 34.9501 22.0691 34.9387C22.0348 34.9044 22.0119 34.8701 21.9891 34.8359C20.7553 33.0426 20.2754 30.6097 20.5953 27.7885C20.9152 25.1386 20.6639 23.8136 20.6524 23.7565C20.6524 23.7336 20.641 23.7222 20.6296 23.6994C20.5953 23.6651 20.4697 23.4367 20.3554 23.2197C20.3897 22.5001 20.424 21.7919 20.4468 21.118C20.4811 19.9187 20.4811 18.7651 20.4468 17.68C20.3897 15.7154 20.2297 14.5389 20.184 14.2305C20.5039 14.0021 20.8809 13.7622 21.2808 13.5109C21.5321 13.351 21.7949 13.1911 22.0348 13.0312C22.0119 13.2139 22.0005 13.4652 21.9891 13.8079C21.9662 14.1163 21.9091 15.1557 22.229 15.3841C22.4346 15.544 22.9487 15.5783 23.3829 15.5897C23.3829 16.4121 23.4171 17.0518 23.4857 17.4744C23.6913 18.8564 23.8741 19.6446 25.2679 19.6674C26.5474 19.6788 30.1575 19.6788 31.4028 19.6674C32.7737 19.6446 32.9565 18.8564 33.1621 17.4744C33.2307 17.0403 33.2649 16.3779 33.2649 15.5897C33.859 15.5783 34.2474 15.5098 34.4188 15.3841C34.7387 15.1557 34.6816 14.1163 34.6587 13.8193C34.6473 13.4538 34.6359 13.2025 34.613 13.0198C34.8644 13.1911 35.1271 13.351 35.3899 13.5109C35.7897 13.7622 36.1667 14.0021 36.4752 14.2305C36.3952 14.7788 35.9839 17.8627 36.3153 23.2197C36.1896 23.4252 36.0639 23.6537 36.0411 23.6994C36.0182 23.6994 36.0068 23.7336 36.0068 23.7565C35.9954 23.8136 35.744 25.1386 36.0639 27.7885C36.3838 30.6097 35.904 33.0426 34.6701 34.8473C34.6473 34.8701 34.6244 34.9044 34.5902 34.9387Z" fill="white"/>
<path d="M36.0063 23.7562C36.0063 23.7562 35.7436 25.1383 36.0635 27.7882C36.3833 30.6095 35.9035 33.0424 34.6697 34.847C34.6468 34.8699 34.624 34.9042 34.5897 34.9384C34.5897 34.9384 34.5859 34.946 34.5783 34.9613C34.5783 34.9613 34.4983 35.0526 34.4526 35.0983C34.4184 35.1326 34.3955 35.1554 34.3612 35.1897C33.3102 36.1377 31.0596 36.3776 29.8143 36.4347C29.0489 36.469 27.6094 36.469 26.844 36.4347C25.5987 36.3776 23.3481 36.1377 22.2971 35.1897C22.2628 35.1554 22.24 35.1326 22.2171 35.1098C22.1714 35.0526 22.1257 35.007 22.08 34.9613C22.08 34.9498 22.0686 34.9498 22.0686 34.9384C22.0343 34.9042 22.0115 34.8699 21.9886 34.8356C20.7548 33.0424 20.275 30.6095 20.5949 27.7882C20.9148 25.1383 20.6634 23.8134 20.652 23.7562C20.652 23.7334 20.6406 23.722 20.6291 23.6991C20.5949 23.6649 20.4692 23.4364 20.355 23.2194C20.3892 22.4998 20.4235 21.7917 20.4464 21.1178C20.4806 19.9184 20.4806 18.7648 20.4464 17.6797C20.3892 15.7151 20.2293 14.5387 20.1836 14.2303C20.5035 14.0018 20.8805 13.762 21.2803 13.5107C21.5317 13.3508 21.7944 13.1909 22.0343 13.031C22.0115 13.2137 22.0001 13.465 21.9886 13.8077C21.9658 14.116 21.9087 15.1555 22.2286 15.3839C22.4342 15.5438 22.9483 15.5781 23.3824 15.5895C23.3824 16.4119 23.4167 17.0515 23.4852 17.4741C23.6909 18.8562 23.8737 19.6443 25.2674 19.6672C26.547 19.6786 30.1571 19.6786 31.4023 19.6672C32.7732 19.6443 32.956 18.8562 33.1617 17.4741C33.2302 17.0401 33.2645 16.3776 33.2645 15.5895C33.8586 15.5781 34.247 15.5095 34.4184 15.3839C34.7382 15.1555 34.6811 14.116 34.6583 13.8191C34.6468 13.4536 34.6354 13.2023 34.6126 13.0195C34.8639 13.1909 35.1267 13.3508 35.3894 13.5107C35.7893 13.762 36.1663 14.0018 36.4747 14.2303C36.3948 14.7785 35.9835 17.8625 36.3148 23.2194C36.1891 23.425 36.0635 23.6534 36.0406 23.6991C36.0178 23.6991 36.0063 23.7334 36.0063 23.7562Z" fill="#6ECDF0"/>
<path d="M23.5534 11.6387C23.5305 11.8671 23.5191 12.107 23.5077 12.2555H23.0508C23.245 12.0613 23.4049 11.8443 23.5534 11.6387Z" fill="#6ECDF0"/>
<path d="M33.6083 12.2555H33.1629C33.14 12.0384 33.1286 11.8328 33.1172 11.6387C33.2543 11.8557 33.4256 12.0727 33.6083 12.2555Z" fill="#6ECDF0"/>
<path d="M23.7952 10.8954C23.7266 10.884 23.6581 10.9069 23.6238 10.964C23.4411 11.3066 23.1441 11.7864 22.7672 12.129C22.6987 12.1975 22.6187 12.2661 22.5273 12.3346C22.4816 12.3803 22.4588 12.4488 22.4931 12.5059C22.5159 12.5631 22.5616 12.5973 22.6187 12.5973C22.6301 12.5973 22.6415 12.5859 22.653 12.5859H22.7215C22.7215 12.5859 22.7558 12.5631 22.79 12.5631C23.087 12.5288 23.5096 12.5288 23.6353 12.5402C23.7038 12.5516 23.7723 12.4831 23.7838 12.4031C23.7838 12.4031 23.8637 11.2609 23.8865 11.0553C23.898 10.9868 23.8523 10.9183 23.7952 10.8954ZM23.0527 12.2547C23.2469 12.0605 23.4068 11.8435 23.5553 11.6379C23.5325 11.8663 23.521 12.1062 23.5096 12.2547H23.0527Z" fill="white"/>
<path d="M34.1344 12.346C34.0545 12.2661 33.9631 12.1975 33.8945 12.129C33.5176 11.7864 33.2206 11.3066 33.0379 10.964C33.0036 10.9069 32.9351 10.884 32.878 10.8954C32.8095 10.9183 32.7638 10.9868 32.7752 11.0553C32.8095 11.4437 32.8551 11.912 32.878 12.4031C32.8894 12.4831 32.9465 12.5402 33.0265 12.5402H33.3234C33.4719 12.5402 33.7004 12.5402 33.8831 12.5745C33.9288 12.5745 33.9745 12.5859 34.0088 12.5859C34.0202 12.5973 34.0316 12.5973 34.043 12.5973C34.1001 12.5973 34.1458 12.5631 34.1801 12.5174C34.2029 12.4603 34.1915 12.3803 34.1344 12.346ZM33.1178 11.6379C33.2549 11.8549 33.4262 12.0719 33.609 12.2547H33.1635C33.1407 12.0376 33.1293 11.832 33.1178 11.6379Z" fill="white"/>
<path d="M24.7106 42.8555V43.6779C24.7106 44.0549 24.4136 44.3632 24.0367 44.3632H23.7169C23.5341 44.3632 23.3742 44.2947 23.2486 44.1691C23.2143 44.1348 23.18 44.1005 23.1572 44.0663C23.1229 44.0092 23.0887 43.9521 23.0772 43.8835C23.0544 43.8264 23.043 43.7579 23.043 43.6893V42.8555C23.043 42.4786 23.3399 42.1816 23.7169 42.1816H24.0367C24.4136 42.1816 24.7106 42.4786 24.7106 42.8555Z" fill="#6ECDF0"/>
<path d="M26.6751 42.8555V43.6779C26.6751 44.0549 26.3782 44.3632 26.0012 44.3632H25.6814C25.3045 44.3632 24.9961 44.0549 24.9961 43.6779V42.8555C24.9961 42.4786 25.3045 42.1816 25.6814 42.1816H26.0012C26.3782 42.1816 26.6751 42.4786 26.6751 42.8555Z" fill="#6ECDF0"/>
<path d="M35.0721 41.9067H34.9807C34.9807 41.9067 34.935 41.8953 34.9122 41.8953H34.5924C34.3639 41.8953 34.1583 41.9753 33.9984 42.1123L33.77 42.3522C33.5986 42.0781 33.3017 41.8953 32.9476 41.8953H32.6278C32.3993 41.8953 32.1937 41.9753 32.0338 42.1123C31.9995 42.1238 31.9767 42.158 31.9539 42.1809C31.8967 42.2266 31.8511 42.2951 31.8054 42.3522C31.7597 42.2837 31.714 42.2151 31.6455 42.1695C31.5884 42.1123 31.5312 42.0667 31.4741 42.0324C31.3256 41.941 31.1657 41.8953 30.983 41.8953H30.6632C30.5946 41.8953 30.5375 41.9068 30.469 41.9182C30.4119 41.9296 30.3434 41.9524 30.2862 41.9753C30.2634 41.9753 30.2291 41.9981 30.1949 42.021C30.1492 42.0438 30.1149 42.0667 30.0806 42.1009C30.0235 42.1352 29.9664 42.1923 29.9322 42.2494C29.8979 42.2837 29.875 42.3179 29.8522 42.3522C29.7837 42.4436 29.7494 42.5464 29.7266 42.6606C29.7837 41.6098 29.8522 39.6223 29.955 36.7211C31.5084 36.6412 33.5187 36.3328 34.5581 35.3962C34.5581 35.3962 34.5581 35.3962 34.5581 35.3848C34.638 36.9039 34.8436 40.4676 34.9464 41.2785C34.9807 41.507 35.015 41.7012 35.0607 41.9067H35.0721Z" fill="#6ECDF0"/>
<path d="M35.5853 42.867V43.7807C35.5739 43.8835 35.5282 43.9749 35.4825 44.0549C35.4711 44.0549 35.4482 44.0891 35.4482 44.1005L35.414 44.1348C35.414 44.1348 35.3797 44.1805 35.334 44.2148C35.3226 44.2262 35.2997 44.2376 35.2883 44.249L35.2541 44.2719L35.2198 44.2947C35.2198 44.2947 35.1741 44.3061 35.117 44.329C35.0941 44.3404 35.0827 44.3404 35.0599 44.3404H35.0142C35.0142 44.3404 34.9913 44.3404 34.9799 44.3632H34.5116C34.169 44.3176 33.9062 44.032 33.9062 43.6893V42.8555C33.9177 42.49 34.2146 42.1816 34.5916 42.1816H34.9685L35.0142 42.1931H35.0599H35.0941L35.1284 42.2159L35.1741 42.2387H35.1855C35.1855 42.2387 35.2312 42.2616 35.2541 42.273L35.2883 42.2959C35.2883 42.2959 35.3568 42.353 35.3911 42.3872C35.3911 42.3872 35.414 42.4215 35.4254 42.4215L35.4482 42.4443L35.4596 42.4672V42.49L35.4825 42.5015V42.5357H35.5053C35.5053 42.5471 35.5168 42.57 35.5168 42.57L35.5396 42.6157V42.6614L35.5739 42.8441L35.5853 42.867Z" fill="#6ECDF0"/>
<path d="M33.6207 42.8555V43.6893C33.6207 44.0549 33.3238 44.3632 32.9468 44.3632H32.627C32.2501 44.3632 31.9531 44.0549 31.9531 43.6779V42.8555C31.9531 42.4786 32.2501 42.1816 32.627 42.1816H32.9468C33.3238 42.1816 33.6207 42.4786 33.6207 42.8555Z" fill="#6ECDF0"/>
<path d="M31.6673 42.8555V43.6779C31.6673 44.0549 31.3589 44.3632 30.982 44.3632H30.6622C30.2853 44.3632 29.9883 44.0549 29.9883 43.6779V42.8555C29.9883 42.4786 30.2853 42.1816 30.6622 42.1816H30.982C31.3589 42.1816 31.6673 42.4786 31.6673 42.8555Z" fill="#6ECDF0"/>
<path d="M26.9925 36.5848C26.9925 36.5048 26.9354 36.4477 26.8554 36.4477C25.6101 36.3792 23.3481 36.1393 22.2971 35.1913C22.2628 35.157 22.24 35.1342 22.2171 35.1113C22.1714 35.0542 22.1257 35.0085 22.08 34.9629C22.0457 34.9172 21.9772 34.8943 21.9201 34.9172C21.8744 34.9172 21.8287 34.9857 21.8287 35.0428C21.7373 36.6305 21.5202 40.4226 21.4174 41.245C21.3946 41.4049 21.3717 41.5534 21.3374 41.7019C21.3146 41.8161 21.2917 41.9189 21.2689 42.0217C21.2575 42.0217 21.2118 42.0674 21.2003 42.0674C21.1661 42.0902 21.0747 42.1816 21.0518 42.193L20.9833 42.273L20.9376 42.3415C20.9376 42.3415 20.9033 42.41 20.8919 42.4214C20.8805 42.4443 20.8348 42.5585 20.8348 42.5585C20.8348 42.5699 20.8119 42.6499 20.8005 42.6727C20.8005 42.6727 20.7891 42.7413 20.7891 42.7641V43.8264C20.8119 43.9634 20.869 44.0891 20.949 44.2261L21.029 44.3289C21.029 44.3289 21.0861 44.386 21.1204 44.4089C21.1318 44.4089 21.1432 44.4317 21.1546 44.4431C21.1775 44.4546 21.2003 44.4774 21.246 44.5003C21.246 44.5117 21.3831 44.5688 21.406 44.5802C21.406 44.5802 21.4517 44.6031 21.4631 44.6031C21.4859 44.6145 21.5088 44.6145 21.5316 44.6259C21.5545 44.6259 21.6916 44.6487 21.7144 44.6487C21.7144 44.6487 26.0557 44.6602 26.09 44.6602C26.2956 44.6602 26.6726 44.6145 26.9468 44.3518C27.2096 44.1005 27.3124 43.735 27.2667 43.2552C27.2096 42.5699 27.1182 40.3198 26.9925 36.5848ZM22.7541 43.6893C22.7541 44.0319 22.4913 44.3175 22.1714 44.3632H21.6802L21.5088 44.3175C21.4859 44.3061 21.4631 44.2947 21.4403 44.2832L21.3717 44.249C21.3717 44.249 21.2575 44.1576 21.2346 44.1233L21.1775 44.0548C21.1318 43.9748 21.0975 43.8835 21.0747 43.7578V42.8669L21.0975 42.6613C21.0975 42.6613 21.1432 42.5699 21.1546 42.5471C21.1661 42.5357 21.2118 42.4557 21.2232 42.4443C21.2346 42.4329 21.326 42.3301 21.3603 42.3072L21.5088 42.2273H21.5545L21.6459 42.193H22.0686C22.4456 42.1816 22.7426 42.49 22.7541 42.8555V43.6893ZM24.7076 43.6779C24.7076 44.0548 24.4106 44.3632 24.0336 44.3632H23.7137C23.5309 44.3632 23.371 44.2947 23.2453 44.169C23.211 44.1347 23.1768 44.1005 23.1539 44.0662C23.1196 44.0091 23.0854 43.952 23.0739 43.8835C23.0511 43.8264 23.0397 43.7578 23.0397 43.6893V42.8555C23.0397 42.4786 23.3367 42.1816 23.7137 42.1816H24.0336C24.4106 42.1816 24.7076 42.4786 24.7076 42.8555V43.6779ZM26.6726 43.6779C26.6726 44.0548 26.3756 44.3632 25.9986 44.3632H25.6787C25.3017 44.3632 24.9932 44.0548 24.9932 43.6779V42.8555C24.9932 42.4786 25.3017 42.1816 25.6787 42.1816H25.9986C26.3756 42.1816 26.6726 42.4786 26.6726 42.8555V43.6779ZM26.8097 42.3529C26.8097 42.3529 26.764 42.2844 26.7297 42.2501C26.6955 42.193 26.6383 42.1359 26.5812 42.1016C26.5469 42.0674 26.5127 42.0445 26.467 42.0217C26.4327 41.9988 26.3984 41.9874 26.3756 41.976C26.3185 41.9531 26.2499 41.9303 26.1928 41.9189C26.1242 41.9189 26.0671 41.896 25.9986 41.896H25.6787C25.4959 41.896 25.336 41.9417 25.1874 42.0331C25.1303 42.0674 25.0732 42.113 25.0161 42.1702C24.9475 42.2158 24.9018 42.2844 24.8561 42.3529C24.6848 42.0788 24.3877 41.896 24.0336 41.896H23.7137C23.3938 41.896 23.1196 42.0445 22.9483 42.2844C22.9254 42.3072 22.9026 42.3301 22.8911 42.3529C22.8454 42.2958 22.7997 42.2273 22.7426 42.1816C22.7198 42.1473 22.6969 42.1245 22.6627 42.113C22.5027 41.976 22.2971 41.896 22.0686 41.896H21.7487L21.6459 41.9074C21.6459 41.9074 21.6002 41.9074 21.5888 41.9074C21.6116 41.8047 21.6345 41.7133 21.6459 41.6105C21.6687 41.4963 21.6802 41.382 21.703 41.2678C21.7944 40.5025 22 37.1787 22.0914 35.4197V35.374H22.1029C23.1425 36.3221 25.1532 36.6305 26.7183 36.7104C26.8097 39.6002 26.8782 41.5762 26.9354 42.627C26.9125 42.5242 26.8782 42.4214 26.8097 42.3415V42.3529Z" fill="white"/>
<path d="M26.9315 42.6406C26.9086 42.5378 26.8743 42.435 26.8058 42.3551C26.783 42.3208 26.7601 42.2865 26.7259 42.2523C26.6916 42.1951 26.6345 42.138 26.5774 42.1038C26.5431 42.0695 26.5088 42.0467 26.4631 42.0238C26.4289 42.001 26.3946 41.9895 26.3718 41.9781C26.3147 41.9553 26.2461 41.9324 26.189 41.921C26.1205 41.921 26.0634 41.8982 25.9948 41.8982H25.675C25.4923 41.8982 25.3324 41.9439 25.1839 42.0352C25.1268 42.0695 25.0697 42.1152 25.0125 42.1723C24.944 42.218 24.8983 42.2865 24.8526 42.3551C24.6813 42.0809 24.3843 41.8982 24.0303 41.8982H23.7104C23.3906 41.8982 23.1165 42.0467 22.9452 42.2865C22.9223 42.3094 22.8995 42.3322 22.8881 42.3551C22.8424 42.2979 22.7967 42.2294 22.7396 42.1837C22.7167 42.1495 22.6939 42.1266 22.6596 42.1152C22.4997 41.9781 22.2941 41.8982 22.0657 41.8982H21.7458L21.643 41.9096C21.643 41.9096 21.5974 41.9096 21.5859 41.9096C21.6088 41.8068 21.6316 41.7154 21.643 41.6126C21.6659 41.4984 21.6773 41.3842 21.7002 41.27C21.7915 40.5047 21.9971 37.1809 22.0885 35.4219C23.1508 36.3471 25.1496 36.644 26.7144 36.724C26.8058 39.6023 26.8743 41.5784 26.9315 42.6292V42.6406Z" fill="#6ECDF0"/>
<path d="M22.7533 42.8561V43.69C22.7533 44.0326 22.4906 44.3182 22.1707 44.3639H21.6796L21.5083 44.3182C21.4854 44.3067 21.4626 44.2953 21.4397 44.2839L21.3712 44.2496C21.3712 44.2496 21.257 44.1583 21.2341 44.124L21.177 44.0555C21.1313 43.9755 21.0971 43.8841 21.0742 43.7585V42.8676L21.0971 42.662C21.0971 42.662 21.1428 42.5706 21.1542 42.5478C21.1656 42.5363 21.2113 42.4564 21.2227 42.445C21.2341 42.4335 21.3255 42.3307 21.3598 42.3079L21.5083 42.2279H21.5539L21.6453 42.1937H22.0679C22.4449 42.1822 22.7418 42.4906 22.7533 42.8561Z" fill="#6ECDF0"/>
<path d="M35.8367 42.6042V42.5699L35.791 42.4786C35.791 42.4557 35.7453 42.3758 35.7453 42.3758L35.7224 42.3415L35.6082 42.2044C35.5625 42.1587 35.5168 42.113 35.4597 42.0788C35.4482 42.0674 35.4254 42.0559 35.4025 42.0331C35.4025 42.0331 35.3911 42.0331 35.3911 42.0217C35.334 41.7932 35.2769 41.5305 35.2426 41.245C35.1398 40.3655 34.8999 36.2764 34.8313 35.0542C34.8313 34.9857 34.797 34.94 34.7399 34.9172C34.6828 34.8943 34.6257 34.9172 34.58 34.9629C34.5343 35.0085 34.5 35.0542 34.4543 35.0999C34.42 35.1342 34.3972 35.157 34.3629 35.1913C33.3119 36.1393 31.0499 36.3792 29.8046 36.4477C29.7246 36.4477 29.6675 36.5048 29.6675 36.5848C29.5533 40.3198 29.4619 42.5699 29.3933 43.2552C29.3476 43.735 29.4504 44.1005 29.7132 44.3518C29.9874 44.6145 30.3644 44.6602 30.57 44.6602C30.6043 44.6602 34.9456 44.6487 34.9456 44.6487C34.9684 44.6487 35.1055 44.6259 35.1169 44.6259C35.1512 44.6145 35.174 44.6145 35.2083 44.6031C35.2083 44.6031 35.3111 44.5574 35.334 44.5459C35.3454 44.5459 35.4368 44.4888 35.4368 44.4888C35.4597 44.4888 35.4825 44.4546 35.5054 44.4431L35.5396 44.4089L35.6653 44.2832L35.6881 44.2604L35.7224 44.2147C35.791 44.0891 35.8481 43.9634 35.8709 43.8149V42.7641C35.8709 42.7641 35.8481 42.627 35.8367 42.6042ZM31.6668 43.6779C31.6668 44.0548 31.3583 44.3632 30.9813 44.3632H30.6614C30.2844 44.3632 29.9874 44.0548 29.9874 43.6779V42.8555C29.9874 42.4786 30.2844 42.1816 30.6614 42.1816H30.9813C31.3583 42.1816 31.6668 42.4786 31.6668 42.8555V43.6779ZM33.6203 43.6893C33.6203 44.0548 33.3233 44.3632 32.9463 44.3632H32.6264C32.2494 44.3632 31.9524 44.0548 31.9524 43.6779V42.8555C31.9524 42.4786 32.2494 42.1816 32.6264 42.1816H32.9463C33.3233 42.1816 33.6203 42.4786 33.6203 42.8555V43.6893ZM32.9463 41.896H32.6264C32.3979 41.896 32.1923 41.976 32.0323 42.113C31.9981 42.1245 31.9752 42.1587 31.9524 42.1816C31.8953 42.2273 31.8496 42.2958 31.8039 42.3529C31.7582 42.2844 31.7125 42.2158 31.6439 42.1702C31.5868 42.113 31.5297 42.0674 31.4726 42.0331C31.324 41.9417 31.1641 41.896 30.9813 41.896H30.6614C30.5929 41.896 30.5358 41.9075 30.4672 41.9189C30.4101 41.9303 30.3415 41.9531 30.2844 41.976C30.2616 41.976 30.2273 41.9988 30.193 42.0217C30.1473 42.0445 30.1131 42.0674 30.0788 42.1016C30.0217 42.1359 29.9645 42.193 29.9303 42.2501C29.896 42.2844 29.8731 42.3186 29.8503 42.3529C29.7817 42.4443 29.7475 42.5471 29.7246 42.6613C29.7817 41.6105 29.8503 39.623 29.9531 36.7218C31.5068 36.6419 33.5175 36.3335 34.5571 35.3969C34.5571 35.3969 34.5571 35.3969 34.5571 35.3855C34.6371 36.9046 34.8427 40.4683 34.9456 41.2792C34.9798 41.5077 35.0141 41.7019 35.0598 41.9074H35.0255C35.0255 41.9074 34.9227 41.896 34.8999 41.896H34.58C34.3515 41.896 34.1459 41.976 33.9859 42.113L33.7574 42.3529C33.5861 42.0788 33.289 41.896 32.9349 41.896H32.9463ZM35.5853 43.7807C35.5739 43.8835 35.5282 43.9748 35.4825 44.0548C35.4711 44.0548 35.3797 44.1804 35.334 44.2147C35.3226 44.2261 35.2997 44.2375 35.2883 44.249L35.254 44.2718C35.254 44.2718 35.174 44.3061 35.1169 44.3289C35.0941 44.3403 34.9798 44.3632 34.9798 44.3632H34.5114C34.1687 44.3175 33.9059 44.0319 33.9059 43.6893V42.8555C33.9174 42.49 34.2144 42.1816 34.5914 42.1816H34.9684L35.1055 42.2158H35.1398L35.1969 42.2501C35.2197 42.2615 35.2426 42.273 35.2654 42.2844L35.2997 42.3072C35.2997 42.3072 35.3683 42.3643 35.4025 42.3986L35.4597 42.4671L35.5511 42.6385V42.6841L35.5853 42.8669V43.7807Z" fill="white"/>
<path d="M22.6306 31.9617C22.5735 32.2358 22.4136 32.7498 22.0024 33.1838C21.9224 33.2638 21.8425 33.3323 21.7397 33.4123C21.5227 33.5836 21.26 33.7092 20.9401 33.7892C20.8488 33.812 20.7688 33.8349 20.6774 33.8463C20.3919 32.6813 20.3576 32.1559 20.369 31.5391C20.4376 31.5505 20.5404 31.5733 20.666 31.5962C20.7003 31.6076 20.7345 31.619 20.7802 31.619C20.9173 31.6533 21.0658 31.6761 21.2371 31.7104C21.6255 31.7903 22.1052 31.8703 22.6306 31.9617Z" fill="#FFB966"/>
<path d="M36.2261 31.5273C36.2375 32.2012 36.1918 32.7495 35.872 33.9031C35.7807 33.8917 35.6893 33.8689 35.6093 33.846C35.4494 33.8003 35.3009 33.7432 35.1639 33.6747C35.141 33.6633 35.1296 33.6633 35.1182 33.6518C35.0725 33.6176 35.0268 33.5947 34.9811 33.5605C34.924 33.5262 34.8669 33.4919 34.8098 33.4348C34.627 33.2978 34.49 33.1379 34.3872 32.9779C34.3186 32.898 34.2729 32.8066 34.2273 32.7267C34.113 32.5325 34.0445 32.3383 33.9988 32.1898C33.976 32.1099 33.9645 32.0413 33.9531 31.9842C34.2044 31.9385 34.4785 31.8928 34.7755 31.8357C34.7755 31.8357 34.8098 31.8243 34.8212 31.8243C35.0953 31.7672 35.3923 31.7101 35.6664 31.6416C35.8606 31.6073 36.0548 31.573 36.2261 31.5273Z" fill="#FFB966"/>
<path d="M35.8174 34.19C35.7945 34.4185 35.7831 34.7383 35.7717 35.138C33.2931 34.8182 32.9048 32.6823 32.8477 32.134C33.1218 32.0998 33.3959 32.0655 33.67 32.0312C33.67 32.0312 33.6929 32.1455 33.7157 32.214C33.75 32.3625 33.8185 32.5452 33.9099 32.7394C33.9556 32.8422 34.0127 32.9336 34.0698 33.0364C34.1155 33.1049 34.1612 33.162 34.2069 33.2306C34.3211 33.3905 34.4696 33.5504 34.6409 33.676C34.7209 33.7446 34.8008 33.8017 34.8922 33.8474C34.9836 33.9045 35.0864 33.9616 35.2006 34.0073C35.292 34.0529 35.3833 34.0872 35.4861 34.1101C35.5889 34.1443 35.7032 34.1672 35.8174 34.19Z" fill="#FFDC7B"/>
<path d="M35.7913 37.9361C34.9916 38.1074 31.9413 38.7014 28.8338 38.3816L28.7653 38.0846C28.7082 37.8561 28.514 37.6962 28.274 37.6962C28.1827 37.6391 27.7371 37.2508 27.7028 36.4398C27.6914 36.3256 27.6914 36.1771 27.6914 36.0058C27.8399 36.0172 28.0113 36.0286 28.1712 36.0286C28.6168 36.0286 29.0052 35.9715 29.0966 35.7773C29.2794 35.3776 29.188 33.036 29.1537 32.3964C30.2162 32.385 31.3586 32.3165 32.5582 32.168C32.6382 32.7848 33.0951 35.1034 35.7684 35.4118C35.757 36.2456 35.7684 37.1594 35.7913 37.9361Z" fill="#FFDC7B"/>
<path d="M28.845 35.6518C28.7651 35.7431 28.2397 35.7774 27.6914 35.7203C27.6914 34.5895 27.7371 32.8419 27.7485 32.3965C27.9655 32.4079 28.1826 32.4079 28.411 32.4079H28.8793C28.925 33.573 28.9593 35.3891 28.845 35.6518Z" fill="#FFDC7B"/>
<path d="M27.9552 37.7984C27.8752 37.867 27.8181 37.9698 27.7838 38.084L27.7153 38.381C24.6649 38.7008 21.6603 38.1411 20.7578 37.9469C20.7807 37.1474 20.7921 36.1994 20.7807 35.3541C23.4882 35 23.8767 32.6243 23.9224 32.1445C24.8706 32.2588 26.0701 32.3616 27.4525 32.3958C27.4411 32.9898 27.3725 35.5711 27.4182 36.4506C27.4525 37.1588 27.7609 37.5928 27.9552 37.7984Z" fill="#FFDC7B"/>
<path d="M23.6509 32.0992C23.6166 32.5104 23.3082 34.7148 20.7725 35.0689C20.7725 34.6577 20.7611 34.3493 20.7383 34.1323H20.7611C20.8525 34.1095 20.9325 34.098 21.0124 34.0752C21.3665 33.9838 21.652 33.8353 21.8919 33.6526C22.0061 33.5726 22.0975 33.4813 22.1889 33.3899C22.3945 33.1843 22.5315 32.9558 22.6458 32.7502C22.6914 32.6474 22.7371 32.5446 22.7828 32.4533C22.8514 32.2705 22.897 32.1106 22.9199 32.0078C23.1483 32.0421 23.3882 32.0763 23.6509 32.0992Z" fill="#FFDC7B"/>
<path d="M36.2287 31.2311C35.509 31.4024 34.5379 31.608 33.8296 31.7222C33.8067 31.7108 33.7953 31.7108 33.7725 31.7108C33.761 31.7108 33.7382 31.7222 33.7268 31.7337C33.384 31.7793 33.0299 31.8365 32.6986 31.8707H32.6757C29.0199 32.3048 25.8439 32.0877 23.8218 31.8365C23.4677 31.8022 23.1364 31.7451 22.8279 31.6994H22.8051C22.6451 31.6765 22.4852 31.6423 22.3367 31.6194C22.0168 31.5623 21.7083 31.5166 21.4456 31.4595C21.2628 31.4253 21.1028 31.4024 20.9543 31.3681C20.783 31.3339 20.6344 31.2996 20.5202 31.2768C20.4516 31.2654 20.3945 31.2539 20.3488 31.2425C20.3374 31.094 20.3488 30.9455 20.3488 30.8427C21.16 30.9684 25.0899 31.5395 28.2773 31.5395C31.4647 31.5395 35.4061 30.877 36.2173 30.7285C36.2287 30.8427 36.2401 31.0141 36.2287 31.2311Z" fill="#FFDC7B"/>
<path d="M20.9533 38.2772L20.8847 39.7392C20.8847 39.7392 20.7591 39.7164 20.702 39.6936C20.6563 39.6821 20.6106 39.6707 20.5649 39.6479C20.5421 39.6479 20.5307 39.6479 20.5078 39.6364L20.5992 38.1973H20.6106C20.6106 38.1973 20.702 38.2201 20.7477 38.2315C20.8048 38.243 20.8733 38.2544 20.9533 38.2772Z" fill="#FFF1D4"/>
<path d="M27.771 38.6672L27.4054 40.1635C26.937 40.2091 24.8349 40.4147 22.5843 40.0835C22.5386 40.0949 22.4929 40.0835 22.4586 40.0721C22.2301 40.0378 21.9902 40.0036 21.7617 39.9579C21.6246 39.935 21.499 39.9008 21.3619 39.8665C21.2933 39.8551 21.2248 39.8436 21.1562 39.8208L21.2362 38.3359C22.4929 38.5644 25.0405 38.9299 27.6453 38.6786C27.691 38.6786 27.7253 38.6672 27.771 38.6672Z" fill="#FFF1D4"/>
<path d="M35.9857 39.6364C35.9857 39.6364 35.8943 39.6707 35.8486 39.6707C35.7801 39.6936 35.723 39.7164 35.6545 39.7278L35.5859 38.2658C35.6659 38.2544 35.7344 38.2315 35.7915 38.2315C35.8372 38.2087 35.8715 38.2087 35.9058 38.1973L35.9514 38.8597V39.0882L35.9743 39.3509V39.6364H35.9857Z" fill="#FFF1D4"/>
<path d="M35.38 39.8091C35.1858 39.8662 34.9802 39.9119 34.786 39.9576C34.5689 39.9918 34.3633 40.0261 34.1462 40.0604C31.8156 40.4259 29.5879 40.2203 29.0966 40.1632L28.7539 38.6669C28.7539 38.6669 28.8567 38.6783 28.9024 38.6783C31.5186 38.9296 34.0777 38.5527 35.3115 38.3242L35.38 39.8091Z" fill="#FFF1D4"/>
<path d="M36.5122 31.3565C36.5351 30.8654 36.4894 30.557 36.4894 30.5456C36.4779 30.4999 36.4551 30.4656 36.4208 30.4428C36.398 30.4199 36.3523 30.4199 36.318 30.4199C36.2723 30.4199 31.8054 31.2537 28.2753 31.2537C24.7451 31.2537 20.2896 30.5456 20.2439 30.5456C20.2096 30.5341 20.1754 30.5456 20.1411 30.5684C20.1068 30.5913 20.084 30.6255 20.084 30.6598C20.084 30.6712 20.0269 31.0139 20.084 31.3451V31.3794C20.0726 32.1104 20.084 32.6358 20.4381 34.0179V34.0293V34.075C20.461 34.3148 20.4838 34.6918 20.4953 35.2172V35.24C20.4953 36.0967 20.4953 37.0561 20.4724 37.8785C20.4496 37.8671 20.4039 37.8785 20.381 37.9014C20.3467 37.9242 20.3239 37.9585 20.3239 38.0042L20.2211 39.7175C20.2211 39.7175 20.2553 39.8431 20.3125 39.8545C20.381 39.8774 20.4381 39.9002 20.5067 39.9116C20.6438 39.9573 20.9865 40.0487 21.0094 40.0487C21.0094 40.0487 21.2835 40.1172 21.4206 40.1515C21.5577 40.1972 21.8776 40.2543 21.9005 40.2543C23.0886 40.4827 24.2653 40.5513 25.2478 40.5513C26.573 40.5513 27.5212 40.4256 27.5327 40.4256C27.6012 40.4142 27.6469 40.3685 27.6583 40.3114L28.0925 38.5296C28.0925 38.5296 28.0925 38.4268 28.0582 38.3925C28.0468 38.3811 28.0353 38.3697 28.0125 38.3582L28.0582 38.1412C28.0925 38.0156 28.1953 37.9699 28.2753 37.9699C28.3552 37.9699 28.458 38.0156 28.4923 38.1412L28.538 38.3468C28.538 38.3468 28.458 38.3582 28.4352 38.3925C28.4123 38.4268 28.3895 38.4839 28.4009 38.5296L28.8465 40.3114C28.8465 40.3114 28.9036 40.4142 28.9607 40.4256C28.9836 40.4256 29.9204 40.5513 31.257 40.5513C32.2167 40.5513 33.3819 40.4827 34.5587 40.2657C34.8785 40.2086 35.7125 40.003 35.7811 39.9802C35.8725 39.9802 36.1466 39.8659 36.1809 39.8545C36.2495 39.8431 36.2837 39.7746 36.2837 39.7175L36.1809 38.0042C36.1809 38.0042 36.1581 37.9242 36.1238 37.9014C36.1124 37.9014 36.1009 37.8899 36.0781 37.8899C36.0552 37.079 36.0438 36.1309 36.0552 35.2857C36.0552 34.7375 36.0895 34.3491 36.1124 34.0978V34.075C36.1124 34.075 36.1124 34.075 36.1124 34.0636C36.5351 32.6472 36.5236 32.0533 36.5122 31.3565ZM20.7009 39.6946C20.7009 39.6946 20.6095 39.6718 20.5638 39.6489C20.541 39.6489 20.5295 39.6489 20.5067 39.6375L20.5981 38.1983H20.6095C20.6095 38.1983 20.7009 38.2212 20.7466 38.2326C20.8037 38.244 20.8723 38.2554 20.9522 38.2783L20.8837 39.7403C20.8837 39.7403 20.758 39.7175 20.7009 39.6946ZM33.6676 32.0304C33.6676 32.0304 33.6904 32.1447 33.7132 32.2132C33.7475 32.3617 33.8161 32.5444 33.9075 32.7386C33.9532 32.8414 34.0103 32.9328 34.0674 33.0356C34.1131 33.1041 34.1588 33.1612 34.2045 33.2297C34.3187 33.3897 34.4673 33.5496 34.6386 33.6752C34.7186 33.7437 34.7986 33.8008 34.89 33.8465C34.9814 33.9036 35.0842 33.9608 35.1984 34.0064C35.2898 34.0521 35.3812 34.0864 35.484 34.1092C35.5868 34.1435 35.7011 34.1664 35.8153 34.1892C35.7925 34.4176 35.7811 34.7375 35.7696 35.1372C33.2905 34.8174 32.9021 32.6815 32.845 32.1332C33.1192 32.099 33.3934 32.0647 33.6676 32.0304ZM35.8725 33.9036C35.7811 33.8922 35.6897 33.8694 35.6097 33.8465C35.4498 33.8008 35.3012 33.7437 35.1641 33.6752C35.1413 33.6638 35.1299 33.6638 35.1184 33.6524C35.0727 33.6181 35.0271 33.5952 34.9814 33.561C34.9242 33.5267 34.8671 33.4925 34.81 33.4353C34.6272 33.2983 34.4901 33.1384 34.3873 32.9785C34.3187 32.8985 34.273 32.8071 34.2273 32.7272C34.1131 32.533 34.0446 32.3388 33.9989 32.1903C33.976 32.1104 33.9646 32.0419 33.9532 31.9847C34.2045 31.9391 34.4787 31.8934 34.7757 31.8363C34.7757 31.8363 34.81 31.8248 34.8214 31.8248C35.0956 31.7677 35.3926 31.7106 35.6668 31.6421C35.861 31.6078 36.0552 31.5735 36.2266 31.5279C36.238 32.2018 36.1923 32.75 35.8725 33.9036ZM36.2266 31.2309C35.5069 31.4022 34.5358 31.6078 33.8275 31.722C33.8046 31.7106 33.7932 31.7106 33.7704 31.7106C33.7589 31.7106 33.7361 31.722 33.7247 31.7335C33.3819 31.7791 33.0278 31.8363 32.6965 31.8705H32.6736C29.0178 32.3046 25.8419 32.0875 23.8197 31.8363C23.4656 31.802 23.1343 31.7449 22.8258 31.6992H22.803C22.643 31.6763 22.4831 31.6421 22.3346 31.6192C22.0147 31.5621 21.7062 31.5164 21.4435 31.4593C21.2607 31.4251 21.1007 31.4022 20.9522 31.368C20.7809 31.3337 20.6323 31.2994 20.5181 31.2766C20.4496 31.2652 20.3924 31.2537 20.3467 31.2423C20.3353 31.0938 20.3467 30.9453 20.3467 30.8425C21.1579 30.9682 25.0879 31.5393 28.2753 31.5393C31.4626 31.5393 35.4041 30.8768 36.2152 30.7283C36.2266 30.8425 36.238 31.0139 36.2266 31.2309ZM28.8465 35.6512C28.7665 35.7426 28.241 35.7769 27.6926 35.7197C27.6926 34.589 27.7383 32.8414 27.7497 32.3959C27.9668 32.4074 28.1839 32.4074 28.4123 32.4074H28.8807C28.9264 33.5724 28.9607 35.3885 28.8465 35.6512ZM27.7155 38.3811C26.8244 38.4725 25.9447 38.4953 25.1221 38.461C24.9393 38.461 24.7451 38.4496 24.5738 38.4382C24.1396 38.4268 23.7398 38.3925 23.3628 38.3468C23.18 38.324 23.0086 38.3126 22.8373 38.2897C22.6659 38.2669 22.5059 38.244 22.346 38.2212C22.0375 38.1869 21.3635 38.0613 21.2835 38.0498C21.2493 38.0384 20.8494 37.9699 20.758 37.947C20.7809 37.1475 20.7923 36.1995 20.7809 35.3542C23.4884 35.0002 23.8769 32.6244 23.9226 32.1446C24.8708 32.2589 26.0703 32.3617 27.4527 32.3959C27.4413 32.9899 27.3727 35.5713 27.4184 36.4508C27.4527 37.1589 27.7612 37.593 27.9554 37.7986C27.8754 37.8671 27.8183 37.9699 27.784 38.0841L27.7155 38.3811ZM20.7694 35.0687C20.7694 34.6575 20.758 34.3491 20.7352 34.1321H20.758C20.8494 34.1092 20.9294 34.0978 21.0094 34.075C21.3635 33.9836 21.6491 33.8351 21.889 33.6524C22.0033 33.5724 22.0947 33.481 22.1861 33.3897C22.3917 33.1841 22.5288 32.9556 22.643 32.75C22.6887 32.6472 22.7344 32.5444 22.7801 32.453C22.8487 32.2703 22.8944 32.1104 22.9172 32.0076C23.1457 32.0419 23.3856 32.0761 23.6484 32.099C23.6141 32.5102 23.3057 34.7146 20.7694 35.0687ZM20.6666 31.5964C20.6666 31.5964 20.7352 31.6192 20.7809 31.6192C20.918 31.6535 21.0665 31.6763 21.2378 31.7106C21.6263 31.7906 22.1061 31.8705 22.6316 31.9619C22.5745 32.236 22.4146 32.75 22.0033 33.1841C21.9233 33.264 21.8433 33.3325 21.7405 33.4125C21.5235 33.5838 21.2607 33.7095 20.9408 33.7894C20.8494 33.8123 20.7694 33.8351 20.678 33.8465C20.3924 32.6815 20.3582 32.1561 20.3696 31.5393C20.4381 31.5507 20.541 31.5735 20.6666 31.5964ZM21.1579 39.8203L21.2378 38.3354C22.4945 38.5638 25.0422 38.9293 27.6469 38.6781C27.6926 38.6781 27.7269 38.6666 27.7726 38.6666L27.407 40.1629C26.9386 40.2086 24.8365 40.4142 22.5859 40.083C22.5402 40.0944 22.4945 40.083 22.4602 40.0715C22.2318 40.0373 21.9918 40.003 21.7634 39.9573C21.6263 39.9345 21.5006 39.9002 21.3635 39.8659C21.295 39.8545 21.2264 39.8431 21.1579 39.8203ZM28.2753 37.6958C28.1839 37.6386 27.7383 37.2503 27.704 36.4393C27.6926 36.3251 27.6926 36.1766 27.6926 36.0053C27.8411 36.0167 28.0125 36.0281 28.1724 36.0281C28.618 36.0281 29.0064 35.971 29.0978 35.7769C29.2806 35.3771 29.1892 33.0356 29.1549 32.3959C30.2174 32.3845 31.3598 32.316 32.5594 32.1675C32.6394 32.7843 33.0963 35.103 35.7696 35.4114C35.7582 36.2452 35.7696 37.1589 35.7925 37.9356C34.9928 38.107 31.9425 38.7009 28.835 38.3811L28.7665 38.0841C28.7094 37.8557 28.5152 37.6958 28.2753 37.6958ZM35.8496 39.6718C35.7811 39.6946 35.7239 39.7175 35.6554 39.7289L35.5868 38.2669C35.6668 38.2554 35.7354 38.2326 35.7925 38.2326C35.8382 38.2098 35.8725 38.2098 35.9067 38.1983L35.9524 38.8608V39.0893L35.9753 39.352V39.6375C35.9753 39.6375 35.8953 39.6718 35.8496 39.6718ZM28.7551 38.6666C28.7551 38.6666 28.8579 38.6781 28.9036 38.6781C31.5198 38.9293 34.0788 38.5524 35.3127 38.324L35.3812 39.8088C35.187 39.8659 34.9814 39.9116 34.7871 39.9573C34.5701 39.9916 34.3644 40.0259 34.1474 40.0601C31.8168 40.4256 29.5891 40.22 29.0978 40.1629L28.7551 38.6666Z" fill="white"/>
<path d="M21.3837 39.9221C21.3837 40.2648 21.2809 40.5503 20.9953 40.7445C20.7211 40.9387 20.4583 40.9958 20.207 40.9273C19.8985 40.8359 19.7157 40.5732 19.67 40.4704C19.6358 40.4018 19.6129 40.3105 19.5786 40.2077C19.4873 39.945 19.3959 39.648 19.2588 39.4767C19.2131 39.4081 19.1217 39.3739 19.0303 39.4195C18.9617 39.4538 18.916 39.5338 18.9275 39.6251C19.0189 40.0478 19.4644 42.2294 19.4416 42.9604C19.4187 43.7142 18.9617 43.8399 18.5619 43.8627C18.1506 43.897 17.7165 43.8399 17.5223 42.9604C17.4537 42.6634 17.3966 42.3779 17.3395 42.1037C17.2252 41.4755 17.1224 40.9729 16.9396 40.7102C16.8482 40.5846 16.7454 40.6074 16.6997 40.6189C16.3798 40.7445 16.5626 42.2522 16.5626 42.2636V42.355C16.6197 42.652 16.7454 43.4173 16.437 43.817C16.3341 43.9541 16.1742 44.0341 15.9686 44.0569C15.5458 44.1026 15.2602 44.0455 15.0546 43.8741C14.8147 43.68 14.689 43.303 14.6319 42.6291C14.5177 41.2471 14.4491 40.7788 14.1407 40.7788H14.1178C14.1178 40.7788 14.015 40.813 13.9807 40.8587C13.7751 41.1214 13.8665 42.652 13.8893 42.8005C13.9007 42.8347 14.015 43.4173 13.7294 43.7828C13.5694 43.9769 13.3181 44.0683 12.9754 44.0683H12.9639C11.97 44.0683 11.9129 43.3487 11.8558 42.652C11.8558 42.4921 11.8329 42.3436 11.8101 42.2294C11.7872 42.0466 11.7301 41.7268 11.673 41.3499C11.513 40.299 11.2731 38.7114 11.0903 38.1174C11.0332 37.9233 10.9533 37.7291 10.8847 37.5235C10.6562 36.9295 10.4277 36.3242 10.5648 35.8216C10.8847 35.4333 11.1246 35.1591 11.6844 34.9878C11.7301 34.965 11.7758 34.9535 11.8329 34.9421C12.427 34.7936 13.3524 34.7479 14.9632 34.805C16.3227 34.8507 17.2824 35.0221 17.9335 35.2162C18.0249 35.2391 18.1163 35.2619 18.1963 35.2962C18.2877 35.319 18.3562 35.3533 18.4248 35.3761C18.5733 35.4333 18.699 35.4789 18.7904 35.5361C18.8475 35.5589 18.8932 35.5817 18.9389 35.616C18.9846 35.6389 19.0189 35.6617 19.0531 35.6845C19.1788 35.7531 19.2359 35.8102 19.2359 35.8102C19.2473 35.8216 19.2473 35.833 19.2588 35.8445C19.4073 36.0158 20.4698 37.295 20.8696 38.1745C21.1438 38.7685 21.3837 39.4081 21.3837 39.9221Z" fill="#6ECDF0"/>
<path d="M20.1857 19.3612C20.1857 19.9323 20.1857 20.5148 20.1628 21.1087C20.14 21.7712 20.1057 22.468 20.0714 23.1875C19.7173 23.4731 17.8437 25.095 17.7637 28.2475C17.6723 31.1487 18.0493 33.5588 18.7576 34.701C18.9633 35.0208 19.0661 35.2492 19.1346 35.3977C18.849 35.2264 18.3464 34.9979 17.5238 34.8152C17.4324 34.7923 17.341 34.7695 17.2382 34.7581C17.1468 34.7352 17.044 34.7124 16.9297 34.701C16.7241 34.6667 16.4842 34.6324 16.2329 34.6096C15.8558 34.5639 15.4331 34.5296 14.9762 34.5182C14.5306 34.4954 14.1308 34.4954 13.788 34.4954C13.6395 34.4954 13.491 34.4954 13.3539 34.5068C13.2168 34.5068 13.0797 34.5068 12.9655 34.5182C12.8855 34.5182 12.8055 34.5182 12.737 34.5296C12.6342 34.5296 12.5428 34.541 12.4514 34.5525C12.36 34.5525 12.28 34.5525 12.2001 34.5867C11.7774 34.6439 11.4689 34.7352 11.229 34.8494C11.1376 34.8951 11.069 34.9408 11.0005 34.9865C10.9319 35.0322 10.8748 35.0779 10.8177 35.1236C10.7377 35.2035 10.6692 35.2721 10.5892 35.352C10.5664 34.0956 10.6235 29.9037 12.0858 25.4034C13.7309 20.3777 18.0265 15.5119 19.9229 14.3926C19.98 14.8266 20.1171 15.9346 20.1628 17.6821C20.1857 18.219 20.1857 18.7901 20.1857 19.3612Z" fill="#6ECDF0"/>
<path d="M21.1342 38.0461C20.7344 37.178 19.7405 35.9673 19.5005 35.6817C19.5005 35.4533 19.3292 35.0535 18.9979 34.5509C18.7465 34.1397 17.924 32.4721 18.0496 28.2574C18.141 24.9907 20.266 23.3916 20.2888 23.3802C20.3231 23.3573 20.3459 23.3002 20.3459 23.266C20.3916 22.5235 20.4259 21.8039 20.4488 21.1186C20.483 19.9193 20.483 18.7657 20.4488 17.6806C20.3802 15.3733 20.1746 14.1626 20.1746 14.1512C20.1632 14.1055 20.1403 14.0712 20.0946 14.0484C20.0603 14.0255 20.0146 14.0255 19.9689 14.0484C18.0839 14.985 13.5599 19.9764 11.8119 25.3219C10.1554 30.4276 10.2925 35.1449 10.3154 35.7046C10.1211 36.2871 10.3725 36.9724 10.6124 37.6235C10.6924 37.8176 10.7609 38.0118 10.818 38.1946C11.0008 38.7771 11.2407 40.3419 11.4007 41.3927C11.4578 41.7697 11.5035 42.0895 11.5378 42.2722C11.5606 42.3865 11.572 42.5235 11.5835 42.672C11.6292 43.3345 11.7091 44.351 12.9658 44.351H12.9772C13.4114 44.351 13.7312 44.2254 13.9483 43.9627C14.3253 43.5058 14.1882 42.8205 14.1768 42.7405C14.1311 42.5464 14.1197 41.5983 14.1654 41.1986C14.2453 41.4955 14.3139 42.1694 14.3482 42.6492C14.4167 43.403 14.5766 43.8371 14.8737 44.0998C15.1364 44.3054 15.502 44.3853 16.0047 44.3396C16.2903 44.3054 16.5074 44.1911 16.6673 43.9855C17.0443 43.4944 16.9186 42.6606 16.8615 42.3065V42.2265C16.8158 41.9867 16.793 41.4156 16.8158 41.0843C16.9072 41.3356 16.9758 41.724 17.0672 42.158C17.1129 42.4321 17.17 42.7291 17.2385 43.0261C17.4784 44.0655 18.0496 44.1683 18.5752 44.1455C19.3178 44.0998 19.7062 43.7 19.729 42.969C19.7405 42.4778 19.5691 41.427 19.4206 40.5932C19.5005 40.7874 19.7519 41.0843 20.1289 41.1871C20.2089 41.21 20.3117 41.2328 20.4259 41.2328C20.6316 41.2328 20.8829 41.1757 21.1685 40.9815C22.0482 40.3762 21.6483 39.154 21.1342 38.0461ZM20.2089 40.9244C19.9004 40.8331 19.7176 40.5704 19.6719 40.4676C19.6376 40.399 19.6148 40.3076 19.5805 40.2048C19.4891 39.9421 19.3977 39.6452 19.2606 39.4738C19.2149 39.4053 19.1235 39.371 19.0321 39.4167C18.9636 39.451 18.9179 39.5309 18.9293 39.6223C19.0207 40.0449 19.4663 42.2265 19.4434 42.9576C19.4206 43.7114 18.9636 43.8371 18.5637 43.8599C18.1525 43.8942 17.7183 43.8371 17.5241 42.9576C17.4556 42.6606 17.3985 42.375 17.3413 42.1009C17.2271 41.4727 17.1243 40.9701 16.9415 40.7074C16.8501 40.5818 16.7473 40.6046 16.7016 40.616C16.3817 40.7417 16.5645 42.2494 16.5645 42.2608V42.3522C16.6216 42.6492 16.7473 43.4144 16.4388 43.8142C16.336 43.9513 16.1761 44.0312 15.9704 44.0541C15.5477 44.0998 15.2621 44.0427 15.0565 43.8713C14.8166 43.6771 14.6909 43.3002 14.6338 42.6263C14.5195 41.2443 14.451 40.7759 14.1425 40.7759H14.1197C14.1197 40.7759 14.0168 40.8102 13.9826 40.8559C13.7769 41.1186 13.8683 42.6492 13.8912 42.7977C13.9026 42.8319 14.0168 43.4144 13.7312 43.7799C13.5713 43.9741 13.32 44.0655 12.9772 44.0655H12.9658C11.9719 44.0655 11.9148 43.3459 11.8576 42.6492C11.8576 42.4893 11.8348 42.3408 11.8119 42.2265C11.7891 42.0438 11.732 41.724 11.6749 41.3471C11.5149 40.2962 11.275 38.7086 11.0922 38.1146C11.0351 37.9204 10.9551 37.7263 10.8866 37.5207C10.6581 36.9267 10.4296 36.3214 10.5667 35.8188C10.8866 35.4304 11.1265 35.1563 11.6863 34.985C11.732 34.9621 11.7777 34.9507 11.8348 34.9393C12.4289 34.7908 13.3542 34.7451 14.9651 34.8022C16.3246 34.8479 17.2842 35.0192 17.9354 35.2134C18.0268 35.2363 18.1182 35.2591 18.1982 35.2934C18.2896 35.3162 18.3581 35.3505 18.4267 35.3733C18.5752 35.4304 18.7008 35.4761 18.7922 35.5332C18.8494 35.5561 18.8951 35.5789 18.9408 35.6132C18.9864 35.636 19.0207 35.6589 19.055 35.6817C19.1807 35.7503 19.2378 35.8074 19.2378 35.8074C19.2492 35.8188 19.2492 35.8302 19.2606 35.8416C19.4091 36.013 20.4716 37.2922 20.8715 38.1717C21.1457 38.7657 21.3856 39.4053 21.3856 39.9193C21.3856 40.262 21.2827 40.5475 20.9971 40.7417C20.7229 40.9359 20.4602 40.993 20.2089 40.9244ZM19.9232 14.391C19.9804 14.8251 20.1175 15.933 20.1632 17.6806C20.186 18.2174 20.186 18.7885 20.186 19.3596C20.186 19.9307 20.186 20.5133 20.1632 21.1072C20.1403 21.7697 20.106 22.4664 20.0718 23.186C19.7176 23.4716 17.844 25.0935 17.764 28.246C17.6726 31.1472 18.0496 33.5572 18.758 34.6994C18.9636 35.0192 19.0664 35.2477 19.135 35.3962C18.8494 35.2248 18.3467 34.9964 17.5241 34.8136C17.4327 34.7908 17.3413 34.768 17.2385 34.7565C17.1471 34.7337 17.0443 34.7108 16.9301 34.6994C16.7244 34.6652 16.4845 34.6309 16.2332 34.608C15.8562 34.5624 15.4335 34.5281 14.9765 34.5167C14.5309 34.4938 14.1311 34.4938 13.7884 34.4938C13.6398 34.4938 13.4913 34.4938 13.3542 34.5053C13.2171 34.5053 13.0801 34.5053 12.9658 34.5167C12.8858 34.5167 12.8059 34.5167 12.7373 34.5281C12.6345 34.5281 12.5431 34.5395 12.4517 34.5509C12.3603 34.5509 12.2803 34.5509 12.2004 34.5852C11.7777 34.6423 11.4692 34.7337 11.2293 34.8479C11.1379 34.8936 11.0694 34.9393 11.0008 34.985C10.9323 35.0307 10.8751 35.0764 10.818 35.122C10.7381 35.202 10.6695 35.2705 10.5895 35.3505C10.5667 34.0941 10.6238 29.9022 12.0861 25.4019C13.7312 20.3762 18.0268 15.5104 19.9232 14.391Z" fill="white"/>
<path d="M47.1587 31.9711C47.0216 33.5473 46.1533 35.0094 44.8281 35.8888C43.7199 36.6313 42.4747 36.8369 41.3437 36.46C41.2523 36.4371 39.2416 35.7061 39.1388 32.3252C39.1388 32.211 39.1502 32.0625 39.1616 31.8797C39.1844 31.3086 39.2301 30.3377 39.0702 28.6587C38.7161 25.0722 37.1509 23.5987 36.5911 23.1761C36.2941 18.1619 36.6368 15.1579 36.7396 14.3926C38.5904 15.4548 42.9773 20.0008 45.1365 25.2778C46.6903 29.0699 47.2386 30.886 47.1587 31.9711Z" fill="#6ECDF0"/>
<path d="M45.3976 25.1748C43.1356 19.6579 38.4631 14.9292 36.7037 14.0383C36.7037 14.0383 36.6237 14.0269 36.5895 14.0383C36.5438 14.0611 36.5095 14.0954 36.4981 14.1411C36.4981 14.1753 35.9611 17.3278 36.3267 23.2673C36.3267 23.3016 36.3381 23.3358 36.361 23.3587C36.3724 23.3587 36.3952 23.3815 36.4067 23.3815C36.8751 23.7242 38.4402 25.1062 38.7944 28.6928C38.9543 30.3489 38.9086 31.297 38.8858 31.8681C38.8743 32.0623 38.8629 32.2107 38.8629 32.3364C38.9772 35.9343 41.1592 36.6996 41.262 36.7339C41.6619 36.8595 42.0732 36.928 42.4844 36.928C43.3413 36.928 44.1981 36.6539 44.9978 36.1285C46.3916 35.2033 47.3055 33.6499 47.454 31.9937C47.534 30.8515 46.9742 29.0126 45.4091 25.1748H45.3976ZM44.8264 35.8886C43.7183 36.6311 42.473 36.8367 41.342 36.4597C41.2506 36.4369 39.2399 35.7059 39.1371 32.325C39.1371 32.2107 39.1485 32.0623 39.1599 31.8795C39.1828 31.3084 39.2285 30.3375 39.0685 28.6585C38.7144 25.072 37.1493 23.5985 36.5895 23.1759C36.2924 18.1616 36.6352 15.1576 36.738 14.3924C38.5887 15.4546 42.9757 20.0006 45.1349 25.2776C46.6886 29.0697 47.237 30.8858 47.157 31.9709C47.0199 33.5471 46.1517 35.0091 44.8264 35.8886Z" fill="white"/>
<path d="M41.5513 18.0156C39.5178 15.5941 35.8163 13.5838 34.9252 13.127C34.8909 13.6866 34.7538 15.2058 34.0912 16.7363C33.0173 19.2606 31.0523 20.597 28.4133 20.597C26.5397 20.597 25.0088 20.0144 23.855 18.8608C21.9357 16.9305 21.6729 14.0179 21.6386 13.1841C20.8618 13.5724 17.9257 15.1258 16.0178 17.5701C14.1328 19.9802 12.6934 22.0476 11.8594 24.2634C12.3506 24.6518 15.2067 26.742 18.5883 26.0567C18.6911 25.7369 19.0796 24.6061 19.8793 23.7837C19.9136 23.738 19.9592 23.7038 20.0049 23.6695C20.0506 23.6124 20.0963 23.5781 20.142 23.5439C20.1649 23.521 20.1877 23.4982 20.2106 23.4753C20.2791 23.4182 20.3705 23.4296 20.4162 23.4867C20.4391 23.521 20.4391 23.5438 20.4391 23.5781C20.4391 23.6238 20.4276 23.6695 20.3934 23.6923C20.3134 23.7609 20.2449 23.8294 20.1763 23.9094C20.2563 25.2115 20.1078 27.0961 20.0963 27.2103C19.9478 28.3525 20.0392 29.1521 20.0849 29.4148C20.7704 29.529 24.8489 30.1344 28.459 30.1344C32.4232 30.1344 35.9191 29.4376 36.5246 29.312C36.5703 29.0835 36.6617 28.4096 36.5589 27.4845C36.3304 25.6912 36.3761 24.4805 36.5246 23.6695C36.5246 23.6695 36.4789 23.601 36.4789 23.5667C36.4789 23.5324 36.5017 23.4982 36.5246 23.4753C36.536 23.4639 36.5474 23.4525 36.5589 23.4525C36.6045 23.4296 36.6617 23.4296 36.7074 23.4639C36.7188 23.4639 36.7302 23.4753 36.7302 23.4753C36.7645 23.5096 36.7988 23.5438 36.833 23.5781C37.7356 24.549 38.1126 25.6798 38.2154 26.0224C41.9283 26.4222 44.8872 24.6404 45.447 24.2749C44.4759 21.9562 43.3449 20.1401 41.5513 18.0156ZM31.3379 23.1898V23.5667C31.3379 23.5667 31.3265 23.601 31.3151 23.6124C31.2808 23.6923 31.1894 23.738 31.098 23.7266C31.0066 23.7152 30.9381 23.6581 30.9152 23.5667C30.9038 23.5553 30.9038 23.5324 30.9038 23.5096V22.6872C30.9038 22.6872 30.8695 22.6072 30.8238 22.5958C30.7667 22.5844 30.7096 22.6301 30.7096 22.6872V23.5096C30.7096 23.5096 30.7096 23.5553 30.7096 23.5667C30.6867 23.6581 30.6182 23.7152 30.5268 23.7266C30.4125 23.7494 30.3097 23.6695 30.2869 23.5667C30.2755 23.5553 30.2754 23.5324 30.2754 23.521V22.3217C30.2754 22.2532 30.3326 22.1961 30.4125 22.1961H31.2237C31.2922 22.1961 31.3493 22.2532 31.3493 22.3331V23.1898H31.3379ZM34.9366 23.304C34.9366 23.3725 34.8795 23.4296 34.7995 23.4296H34.3654V23.5667C34.354 23.6581 34.274 23.738 34.1712 23.738C34.0798 23.738 33.9884 23.6581 33.9769 23.5667H33.7485V23.601C33.7485 23.6809 33.6799 23.738 33.6114 23.738H32.8688C32.8688 23.738 32.766 23.6923 32.7431 23.6467V23.5667H32.5489V23.6467C32.5489 23.6467 32.5375 23.6923 32.5146 23.7038C32.5032 23.7266 32.4689 23.738 32.4461 23.738H32.2519C32.2519 23.738 32.149 23.6923 32.149 23.6352V23.6124H31.8977V23.6352C31.8977 23.6352 31.8863 23.6809 31.8634 23.7038C31.852 23.7266 31.8177 23.738 31.7949 23.738H31.6007C31.6007 23.738 31.5436 23.7266 31.5321 23.7038C31.5093 23.6809 31.4979 23.6581 31.4979 23.6352V23.1898L31.5321 22.6758V22.3217C31.5436 22.2532 31.6007 22.1961 31.6692 22.1961H32.3661C32.4461 22.1961 32.5032 22.2532 32.5032 22.3217V22.6529H32.7431V22.3331C32.7431 22.2532 32.8002 22.1961 32.8688 22.1961H33.6114C33.6799 22.1961 33.7485 22.2532 33.7485 22.3217V22.6301H33.9769V22.3103C33.9769 22.3103 34.0455 22.1961 34.114 22.1961H34.7995C34.8795 22.1961 34.9366 22.2532 34.9366 22.3217V23.304Z" fill="#322F93"/>
<path d="M33.9783 22.6166V23.5646H33.7499V23.3704C33.7499 23.3704 33.7271 23.2676 33.6928 23.2334C33.6471 23.1991 33.6014 23.1763 33.5443 23.1763C33.4301 23.1763 33.3387 23.2676 33.3387 23.3704V23.439C33.3387 23.439 33.3044 23.5304 33.2473 23.5304C33.1902 23.5304 33.1445 23.4847 33.1445 23.439V22.6965C33.1445 22.6965 33.156 22.6509 33.1788 22.6394C33.1788 22.6166 33.2131 22.5938 33.2473 22.5938C33.2816 22.5938 33.3044 22.6052 33.3159 22.628C33.3273 22.6394 33.3387 22.6737 33.3387 22.6965V22.7879C33.3387 22.9021 33.4301 22.9935 33.5443 22.9935C33.6585 22.9935 33.7385 22.9021 33.7499 22.7993V22.628H33.9783V22.6166Z" fill="#322F93"/>
<path d="M32.7402 22.6523V23.5661H32.546L32.5346 23.4062L32.5117 22.6523H32.7402Z" fill="#322F93"/>
<path d="M32.1386 23.2905C32.1386 23.2905 32.1386 23.3476 32.1043 23.3704C32.0815 23.3933 32.0586 23.4047 32.0244 23.4047C31.9901 23.4047 31.9673 23.3933 31.9444 23.3704C31.9216 23.3476 31.9102 23.3133 31.9102 23.2905L31.933 22.6851L31.9444 22.6623C31.9444 22.6166 31.9901 22.5938 32.0244 22.5938C32.0586 22.5938 32.1043 22.6166 32.1043 22.6623C32.1043 22.6623 32.1158 22.6737 32.1158 22.6851L32.1386 23.2905Z" fill="#322F93"/>
<path d="M34.5575 22.6854V23.1195C34.5575 23.1195 34.5118 23.2108 34.4547 23.2108C34.409 23.2108 34.3633 23.1766 34.3633 23.1195V22.6854C34.3633 22.6854 34.3975 22.6169 34.4318 22.6055H34.4775C34.4775 22.6055 34.5575 22.6512 34.5575 22.6854Z" fill="#322F93"/>
<path d="M45.7528 24.273C44.7589 21.8744 43.605 20.0126 41.7657 17.831C39.4237 15.0212 34.8997 12.7939 34.854 12.771C34.8083 12.7482 34.7626 12.7482 34.7169 12.771C34.6712 12.7939 34.6483 12.8396 34.6483 12.8967C34.6483 12.9081 34.6141 14.7813 33.8258 16.6317C32.7747 19.076 30.9583 20.3096 28.4106 20.3096C26.617 20.3096 25.1547 19.7613 24.0579 18.6648C21.9216 16.5175 21.9102 12.9995 21.9102 12.9652C21.9102 12.9195 21.8873 12.8624 21.853 12.8396C21.8073 12.8167 21.7616 12.8167 21.7159 12.8281C21.6817 12.851 18.0487 14.5072 15.7867 17.3855C13.856 19.8641 12.3937 21.9772 11.5483 24.2502C11.5254 24.3073 11.5483 24.3758 11.5825 24.4101C11.6168 24.4329 14.0388 26.4775 17.2033 26.4775C17.6946 26.4775 18.2087 26.4318 18.7228 26.3176C18.7799 26.3062 18.8142 26.2605 18.837 26.2148C18.837 26.1919 19.1683 25.0726 19.8995 24.1931C19.9452 25.4723 19.8081 27.1628 19.8081 27.1742C19.6139 28.6362 19.8081 29.5386 19.8195 29.5729C19.8309 29.63 19.8766 29.6757 19.9337 29.6871C19.9794 29.6871 24.5035 30.4181 28.4563 30.4181C32.8319 30.4181 36.6362 29.5843 36.6819 29.5729C36.7276 29.5729 36.7733 29.5157 36.7847 29.4701C36.7961 29.4358 36.9675 28.6477 36.8418 27.4484C36.6362 25.8264 36.659 24.7071 36.7618 23.9418C37.6644 24.9812 37.95 26.1691 37.95 26.1805C37.9728 26.2376 38.0185 26.2833 38.0756 26.2947C42.3369 26.7859 45.6728 24.4672 45.7071 24.4444C45.7642 24.3987 45.7757 24.3301 45.7528 24.273ZM38.2127 26.0206C38.1099 25.6779 37.7329 24.5472 36.8304 23.5763C36.7961 23.542 36.7618 23.5078 36.7276 23.4735C36.7276 23.4735 36.7161 23.4621 36.7047 23.4621C36.659 23.4278 36.6019 23.4278 36.5562 23.4506C36.5448 23.4506 36.5333 23.4621 36.5219 23.4735C36.4991 23.4963 36.4762 23.5306 36.4762 23.5649C36.4762 23.5991 36.4991 23.622 36.5219 23.6562C36.3734 24.4786 36.3277 25.6894 36.5562 27.4826C36.659 28.4078 36.5562 29.0817 36.5219 29.3101C35.9164 29.4358 32.4206 30.1325 28.4563 30.1325C24.8462 30.1325 20.7677 29.5272 20.0823 29.4129C20.0366 29.1502 19.9452 28.3507 20.0937 27.2085C20.1051 27.0943 20.2536 25.2096 20.1737 23.9075C20.2422 23.8276 20.3107 23.759 20.3907 23.6905C20.425 23.6677 20.4364 23.622 20.4364 23.5763C20.4364 23.542 20.4364 23.5192 20.4136 23.4849C20.3679 23.4278 20.2765 23.4164 20.2079 23.4735C20.1851 23.4963 20.1622 23.5192 20.1394 23.542C20.0937 23.5763 20.048 23.6106 20.0023 23.6677C19.9566 23.7019 19.9109 23.7362 19.8766 23.7819C19.0769 24.6043 18.6885 25.7351 18.5857 26.0549C15.2041 26.7402 12.348 24.65 11.8567 24.2616C12.6907 22.0457 14.1302 19.9783 16.0152 17.5683C17.9231 15.124 20.8591 13.5706 21.636 13.1822C21.6702 14.016 21.933 16.9287 23.8523 18.859C25.0062 20.0126 26.537 20.5951 28.4106 20.5951C31.0497 20.5951 33.0146 19.2588 34.0885 16.7345C34.7511 15.2039 34.8882 13.6848 34.9225 13.1251C35.8136 13.582 39.5151 15.5923 41.5486 18.0138C43.3423 20.1383 44.4733 21.9544 45.4444 24.273C44.8846 24.6385 41.9256 26.4204 38.2127 26.0206Z" fill="white"/>
<path d="M31.2097 22.1934H30.3988C30.3188 22.1934 30.2617 22.2505 30.2617 22.319V23.5183C30.2617 23.5183 30.2617 23.5526 30.2731 23.564C30.296 23.6668 30.3988 23.7468 30.513 23.7239C30.6044 23.7125 30.6729 23.6554 30.6958 23.564C30.6958 23.5526 30.6958 23.5297 30.6958 23.5069V22.6959C30.6958 22.6274 30.7529 22.5817 30.81 22.5931C30.8557 22.6046 30.8785 22.6388 30.8899 22.6845V23.5069C30.8899 23.5069 30.8899 23.5526 30.9014 23.564C30.9242 23.6554 30.9927 23.7125 31.0841 23.7239C31.1755 23.7353 31.2669 23.6896 31.3011 23.6097C31.3125 23.5983 31.3125 23.5754 31.3125 23.564V23.1871L31.324 22.6731V22.3304C31.324 22.2505 31.2669 22.1934 31.1983 22.1934H31.2097Z" fill="white"/>
<path d="M32.5127 22.6502V22.319C32.5012 22.2505 32.4441 22.1934 32.3642 22.1934H31.6674C31.5989 22.1934 31.5418 22.2505 31.5418 22.319V22.6731L31.5075 23.1871V23.564L31.4961 23.6325C31.4961 23.6554 31.5075 23.6782 31.5304 23.7011C31.5418 23.7239 31.5646 23.7353 31.5989 23.7353H31.7931C31.7931 23.7353 31.8502 23.7239 31.8616 23.7011C31.8844 23.6782 31.8959 23.6554 31.8959 23.6325V23.6097H32.1471V23.6325C32.1471 23.6325 32.1928 23.7353 32.2499 23.7353H32.4441C32.4441 23.7353 32.5012 23.7239 32.5127 23.7011C32.5355 23.6896 32.5469 23.6668 32.5469 23.644V23.4041L32.5127 22.6502ZM32.0215 22.5931C32.0215 22.5931 32.1015 22.616 32.1015 22.6617C32.1015 22.6617 32.1129 22.6731 32.1129 22.6845L32.1357 23.2899C32.1357 23.2899 32.1357 23.347 32.1015 23.3698C32.0786 23.3927 32.0558 23.4041 32.0215 23.4041C31.9872 23.4041 31.9644 23.3927 31.9416 23.3698C31.9187 23.347 31.9073 23.3127 31.9073 23.2899L31.9301 22.6845L31.9416 22.6617C31.9416 22.616 31.9872 22.5931 32.0215 22.5931Z" fill="white"/>
<path d="M33.6103 22.1934H32.8678C32.7993 22.1934 32.7422 22.2505 32.7422 22.3304V23.644C32.7422 23.644 32.8107 23.7353 32.8678 23.7353H33.6103C33.6788 23.7353 33.7473 23.6782 33.7473 23.5983V23.3698C33.7473 23.3698 33.7245 23.267 33.6902 23.2328C33.6445 23.1985 33.5988 23.1757 33.5417 23.1757C33.4275 23.1757 33.3361 23.267 33.3361 23.3698V23.4384C33.3361 23.4384 33.3019 23.5297 33.2448 23.5297C33.1876 23.5297 33.142 23.484 33.142 23.4384V22.6959C33.142 22.6959 33.1534 22.6502 33.1762 22.6388C33.1762 22.616 33.2105 22.5931 33.2448 22.5931C33.279 22.5931 33.3019 22.6046 33.3133 22.6274C33.3247 22.6388 33.3361 22.6731 33.3361 22.6959V22.7873C33.3361 22.9015 33.4275 22.9929 33.5417 22.9929C33.656 22.9929 33.7359 22.9015 33.7473 22.7987V22.319C33.7473 22.2505 33.6788 22.1934 33.6103 22.1934Z" fill="white"/>
<path d="M34.795 22.1934H34.1097C34.0412 22.1934 33.9841 22.2505 33.9727 22.3076V23.564C33.9841 23.6554 34.0755 23.7353 34.1668 23.7353C34.2696 23.7353 34.3496 23.6554 34.361 23.564V23.4269H34.795C34.875 23.4269 34.9321 23.3698 34.9321 23.3013V22.319C34.9321 22.2505 34.875 22.1934 34.795 22.1934ZM34.5552 22.6845V23.1185C34.5552 23.1185 34.5095 23.2099 34.4524 23.2099C34.4067 23.2099 34.361 23.1757 34.361 23.1185V22.6845C34.361 22.6845 34.3953 22.616 34.4295 22.6046H34.4752C34.4752 22.6046 34.5552 22.6502 34.5552 22.6845Z" fill="white"/>
<path d="M23.4879 12.543L23.4422 13.8793L23.3851 15.3071C22.8825 15.2957 22.517 15.2386 22.3914 15.1586C22.2657 15.0672 22.2314 14.3933 22.2771 13.8222C22.2771 13.3082 22.3114 13.0227 22.3685 12.8514C22.3914 12.7828 22.437 12.7143 22.4942 12.6686C22.4942 12.6686 22.5855 12.6115 22.6312 12.6001C22.8368 12.543 23.2252 12.543 23.4879 12.543Z" fill="#6ECDF0"/>
<path d="M34.2645 15.1586C34.1503 15.2386 33.7619 15.2957 33.2708 15.3071L33.168 12.543C33.4421 12.543 33.819 12.543 34.0246 12.6001C34.0703 12.6115 34.116 12.6229 34.1617 12.6572C34.1617 12.6572 34.1655 12.661 34.1731 12.6686C34.1731 12.6686 34.2759 12.7828 34.2873 12.8514C34.3444 13.0227 34.3673 13.3082 34.3787 13.8337C34.4244 14.3933 34.3901 15.0672 34.2645 15.1586Z" fill="#6ECDF0"/>
<path d="M32.9827 15.4427C32.9827 16.3337 32.9485 16.9961 32.8913 17.4416C32.6743 18.8922 32.5029 19.3605 31.4062 19.3833C30.1723 19.3948 26.4823 19.3948 25.2484 19.3833C24.1517 19.3605 23.9918 18.8922 23.7633 17.4416C23.7061 17.0076 23.6719 16.3108 23.6719 15.4542L23.7861 12.4045C23.8204 11.9133 23.8547 11.445 23.8889 11.0567C23.9004 10.9767 23.9118 10.8968 23.9118 10.8168C24.0832 9.30911 24.7001 9.22916 25.1113 9.17205L25.1913 9.1492C25.4427 9.11494 26.6765 9.10352 27.6476 9.10352H28.3787C29.3041 9.10352 31.1434 9.10352 31.4633 9.1492L31.5433 9.17205C31.9545 9.22916 32.5715 9.30911 32.7428 10.8511C32.7885 11.2965 32.8342 11.8334 32.8685 12.4045L32.9827 15.4427Z" fill="#6ECDF0"/>
<path d="M34.6612 13.8222C34.6498 13.2625 34.6155 12.9656 34.5584 12.7714C34.5241 12.6343 34.4442 12.5201 34.3299 12.4402C34.3299 12.4402 34.3261 12.4402 34.3185 12.4402C34.2499 12.383 34.17 12.3488 34.09 12.3259C33.8272 12.2688 33.3703 12.2688 33.1418 12.2688C33.1075 11.732 33.0732 11.2408 33.0275 10.8068C32.8333 9.07065 32.0222 8.95643 31.5881 8.89932H31.5081C31.074 8.81937 28.4806 8.83079 28.3778 8.83079C28.2636 8.83079 25.5789 8.81937 25.1447 8.8879H25.0762C24.6306 8.95643 23.8195 9.07065 23.6253 10.8068C23.6253 10.8753 23.6139 10.9553 23.6024 11.0352C23.5682 11.4008 23.5453 11.8119 23.511 12.2688C23.2826 12.2688 22.8256 12.2688 22.5628 12.3259C22.4828 12.3488 22.4029 12.383 22.3229 12.4402C22.2087 12.5315 22.1287 12.6458 22.0944 12.7828C22.0373 12.977 22.003 13.2854 21.9916 13.8222C21.9802 13.925 21.9688 14.1078 21.9688 14.3134C21.9688 14.736 22.0144 15.25 22.2315 15.3985C22.4371 15.5584 22.9398 15.5926 23.3854 15.6041C23.3854 16.4379 23.4196 17.0547 23.4882 17.4887C23.6938 18.8708 23.8766 19.6589 25.2475 19.6817C25.8645 19.6817 27.0983 19.6931 28.3321 19.6931C29.566 19.6931 30.7884 19.6817 31.4053 19.6817C32.0907 19.6703 32.4792 19.4647 32.7191 19.0992C32.959 18.7223 33.0618 18.1854 33.1646 17.4887C33.2332 17.0547 33.2674 16.4379 33.2674 15.6041C33.7016 15.6041 34.2042 15.5584 34.4213 15.3985C34.7412 15.17 34.6841 14.1306 34.6612 13.8336V13.8222ZM33.2674 15.3071L33.1646 12.543C33.4388 12.543 33.8158 12.543 34.0215 12.6001C34.0672 12.6115 34.1129 12.6229 34.1585 12.6572C34.1585 12.6572 34.1624 12.661 34.17 12.6686C34.17 12.6686 34.2728 12.7828 34.2842 12.8513C34.3413 13.0227 34.3642 13.3082 34.3756 13.8336C34.4213 14.3933 34.387 15.0672 34.2614 15.1586C34.1471 15.2386 33.7587 15.2957 33.2674 15.3071ZM31.4053 19.3848C30.1714 19.3962 26.4814 19.3962 25.2475 19.3848C24.1508 19.3619 23.9909 18.8936 23.7624 17.443C23.7053 17.009 23.671 16.3122 23.671 15.4556L23.7852 12.4059C23.8195 11.9147 23.8538 11.4464 23.888 11.0581C23.8995 10.9781 23.9109 10.8982 23.9109 10.8182C24.0823 9.31052 24.6992 9.23056 25.1105 9.17345L25.1904 9.15061C25.4418 9.11634 26.6756 9.10492 27.6467 9.10492H28.3778C29.3032 9.10492 31.1425 9.10492 31.4624 9.15061L31.5424 9.17345C31.9536 9.23056 32.5706 9.31052 32.7419 10.8525C32.7876 11.298 32.8333 11.8348 32.8676 12.4059L32.9818 15.4442C32.9818 16.3351 32.9476 16.9975 32.8904 17.443C32.6734 18.8936 32.502 19.3619 31.4053 19.3848ZM22.2772 13.8222C22.2772 13.3082 22.3115 13.0227 22.3686 12.8513C22.3915 12.7828 22.4372 12.7143 22.4943 12.6686C22.4943 12.6686 22.5857 12.6115 22.6314 12.6001C22.837 12.543 23.2254 12.543 23.4882 12.543L23.4425 13.8793L23.3854 15.3071C22.8827 15.2957 22.5171 15.2386 22.3915 15.1586C22.2658 15.0672 22.2315 14.3933 22.2772 13.8222Z" fill="white"/>
<path d="M46.2671 29.2056C45.4904 28.8515 44.4967 28.7716 43.4459 28.6688C42.7034 28.6117 41.9496 28.5774 41.2414 28.5774H41.1043C41.0015 28.349 40.9901 28.0977 41.0815 27.8236C41.2186 27.4124 41.4927 27.1154 41.8468 27.0012C42.258 26.8641 42.7605 27.0012 43.3088 27.3781C43.6058 27.5837 43.9598 27.755 44.3368 27.9378C44.9878 28.2462 45.7188 28.6003 46.2671 29.2056Z" fill="#6ECDF0"/>
<path d="M46.9212 29.641C46.3385 28.5788 45.3332 28.099 44.4535 27.6764C44.0879 27.5051 43.7452 27.3338 43.471 27.151C42.6942 26.6028 42.1001 26.6256 41.7574 26.7398C41.3232 26.8769 40.9805 27.2424 40.8091 27.7335C40.6835 28.1105 40.7177 28.476 40.9005 28.7958C40.9234 28.8415 40.9691 28.8643 41.0148 28.8643H41.0262C41.7688 28.8529 42.6028 28.8872 43.4253 28.9557C44.602 29.0585 45.7102 29.1613 46.4642 29.6296C46.5442 29.6867 46.6241 29.7552 46.7041 29.8238C46.7384 29.8466 46.7612 29.858 46.7955 29.858C46.8298 29.858 46.8641 29.858 46.8869 29.8238C46.944 29.7781 46.9554 29.7096 46.9212 29.641ZM43.4482 28.6701C42.7056 28.613 41.9516 28.5788 41.2433 28.5788H41.1062C41.0034 28.3503 40.9919 28.099 41.0833 27.8249C41.2204 27.4137 41.4946 27.1167 41.8488 27.0025C42.26 26.8655 42.7627 27.0025 43.3111 27.3795C43.6081 27.5851 43.9623 27.7564 44.3393 27.9391C44.9905 28.2475 45.7216 28.6016 46.27 29.207C45.4931 28.8529 44.4992 28.7729 43.4482 28.6701Z" fill="white"/>
<path d="M42.9592 37.9449V24.8438C43.0962 23.8272 44.1699 23.8958 44.4098 22.8678C44.6839 21.6685 43.8844 20.8918 43.0962 20.9375C42.5366 20.9717 42.0111 21.3943 41.8398 21.7484C41.6456 21.3943 41.1316 20.9717 40.5834 20.9375C39.7953 20.8918 38.9957 21.6685 39.2698 22.8678C39.4983 23.8843 40.572 23.8272 40.709 24.8324V37.9449C40.572 38.9614 39.4983 38.8929 39.2698 39.9095C38.9957 41.1088 39.7953 41.8855 40.5834 41.8398C41.1431 41.8055 41.6571 41.3829 41.8398 41.0288C42.0226 41.3829 42.548 41.8055 43.0962 41.8398C43.8844 41.8855 44.6839 41.1088 44.4098 39.9095C44.1813 38.8815 43.1076 38.95 42.9592 37.9334V37.9449Z" fill="white"/>
<path d="M47.7202 32.6899C47.663 35.6139 46.6577 36.9731 44.35 37.2358C43.893 37.2815 42.2593 37.3158 41.5739 37.3044H41.3339C40.1687 37.293 39.506 37.2473 39.3461 36.2992C39.2776 35.9109 39.3233 35.6253 39.4718 35.4312C39.7117 35.1342 40.2029 35.0999 40.6485 35.0657C42.6706 34.9058 42.8305 34.7344 42.8191 34.5288C42.7963 34.289 42.5564 34.209 41.9052 34.209C41.6081 34.209 41.2083 34.2318 40.717 34.2547C39.9173 34.289 39.4375 34.1976 39.1862 33.9349C38.9805 33.7407 38.8891 33.4323 38.912 32.9868C38.9348 32.1188 39.5517 32.0502 40.5571 32.0388H40.8199C41.9623 32.0046 42.5678 31.8789 42.6249 31.6619C42.6249 31.6048 42.6249 31.4906 42.465 31.3992C42.0994 31.2164 41.2997 31.1251 39.8831 31.1136C38.9463 31.1022 38.8777 30.7253 38.8549 30.0171C38.832 29.663 38.912 29.0577 39.6089 28.9549C39.9744 28.8978 40.4657 28.8749 41.0255 28.8635C41.7795 28.8521 42.6021 28.8863 43.4246 28.9549C44.6013 29.0577 45.7095 29.1605 46.4635 29.6288C46.5435 29.6859 46.6234 29.7544 46.7034 29.8229C47.1033 30.1656 47.7659 30.988 47.7202 32.6899Z" fill="#6ECDF0"/>
<path d="M46.8985 29.6063C46.8071 29.5264 46.7157 29.4578 46.6129 29.3893C45.8132 28.8867 44.6593 28.7839 43.4483 28.6697C42.6258 28.6012 41.7804 28.5669 41.015 28.5783C40.4437 28.5898 39.9411 28.6126 39.5641 28.6697C38.9014 28.7611 38.5244 29.2751 38.5701 30.0289C38.593 30.6686 38.6273 31.3882 39.8839 31.3996C40.3295 31.3996 41.609 31.411 42.2145 31.6166C41.9517 31.6737 41.4262 31.7308 40.8093 31.7422H40.558C39.6669 31.7651 38.6615 31.7651 38.6273 32.9758C38.6044 33.5012 38.7187 33.8896 38.9814 34.1409C39.3127 34.4607 39.8382 34.5749 40.7293 34.5406C41.3348 34.5064 42.2374 34.4607 42.4773 34.5178C42.3288 34.5749 41.8946 34.6777 40.6151 34.7805C40.1467 34.8148 39.5641 34.8605 39.2442 35.2602C39.05 35.5229 38.9814 35.877 39.0614 36.3453C39.267 37.5675 40.2724 37.5789 41.3348 37.5903H41.8261C42.5687 37.5903 43.951 37.5675 44.3851 37.5218C47.5154 37.1563 47.9724 34.7577 48.0067 32.7017C48.0524 30.8742 47.3326 29.9832 46.8985 29.6063ZM41.5747 37.3048H41.3348C40.1695 37.2933 39.5069 37.2477 39.347 36.2996C39.2784 35.9113 39.3241 35.6257 39.4727 35.4316C39.7126 35.1346 40.2038 35.1003 40.6494 35.0661C42.6715 34.9061 42.8314 34.7348 42.82 34.5292C42.7972 34.2894 42.5572 34.2094 41.9061 34.2094C41.609 34.2094 41.2092 34.2322 40.7179 34.2551C39.9182 34.2894 39.4384 34.198 39.1871 33.9353C38.9814 33.7411 38.89 33.4327 38.9129 32.9872C38.9357 32.1192 39.5526 32.0506 40.558 32.0392H40.8207C41.9632 32.0049 42.5687 31.8793 42.6258 31.6623C42.6258 31.6052 42.6258 31.491 42.4658 31.3996C42.1003 31.2168 41.3006 31.1254 39.8839 31.114C38.9471 31.1026 38.8786 30.7257 38.8557 30.0175C38.8329 29.6634 38.9129 29.0581 39.6098 28.9553C39.9753 28.8982 40.4666 28.8753 41.0264 28.8639C41.7804 28.8525 42.6029 28.8867 43.4255 28.9553C44.6022 29.0581 45.7104 29.1609 46.4644 29.6292C46.5443 29.6863 46.6243 29.7548 46.7043 29.8233C47.1041 30.166 47.7668 30.9884 47.7211 32.6903C47.6639 35.6143 46.6586 36.9735 44.3509 37.2362C43.8939 37.2819 42.2602 37.3162 41.5747 37.3048Z" fill="white"/>
<path d="M37.6634 43.5859C37.3207 43.5859 37.0352 43.8715 37.0352 44.2141C37.0352 44.5568 37.3207 44.8424 37.6634 44.8424C38.006 44.8424 38.2916 44.5568 38.2916 44.2141C38.2916 43.8715 38.006 43.5859 37.6634 43.5859Z" fill="white"/>
<path d="M49.4219 28.3385C49.4219 28.5326 49.5818 28.6925 49.776 28.6925C49.9701 28.6925 50.13 28.5326 50.13 28.3385C50.13 28.1443 49.9701 27.9844 49.776 27.9844C49.5818 27.9844 49.4219 28.1443 49.4219 28.3385Z" fill="white"/>
<path d="M28.026 3.5293C27.8318 3.5293 27.6719 3.68921 27.6719 3.88338C27.6719 4.07755 27.8318 4.23746 28.026 4.23746C28.2201 4.23746 28.38 4.07755 28.38 3.88338C28.38 3.68921 28.2201 3.5293 28.026 3.5293Z" fill="white"/>
<path d="M13.2096 13.2832C13.0154 13.2832 12.8555 13.4431 12.8555 13.6373C12.8555 13.8315 13.0154 13.9914 13.2096 13.9914C13.4037 13.9914 13.5636 13.8315 13.5636 13.6373C13.5636 13.4431 13.4037 13.2832 13.2096 13.2832Z" fill="white"/>
<path d="M7.25361 19.1205C7.75826 19.1205 8.16737 18.7114 8.16737 18.2067C8.16737 17.7021 7.75826 17.293 7.25361 17.293C6.74895 17.293 6.33984 17.7021 6.33984 18.2067C6.33984 18.7114 6.74895 19.1205 7.25361 19.1205Z" fill="white"/>
<path d="M48.4178 37.9785L47.8467 39.5319L46.3047 40.103L47.8467 40.6741L48.4178 42.2161L48.9889 40.6741L50.5423 40.103L48.9889 39.5319L48.4178 37.9785Z" fill="white"/>
<path d="M6.10962 31.9375L5.66416 33.1368L4.46484 33.5823L5.66416 34.0163L6.10962 35.227L6.55508 34.0163L7.75439 33.5823L6.55508 33.1368L6.10962 31.9375Z" fill="white"/>
<path d="M48.8284 24.2153L49.2738 23.016L50.4731 22.5706L49.2738 22.1251L48.8284 20.9258L48.3829 22.1251L47.1836 22.5706L48.3829 23.016L48.8284 24.2153Z" fill="white"/>
<path d="M18.4017 5.32227L17.7049 7.21832L15.8203 7.91507L17.7049 8.61181L18.4017 10.5079L19.0984 8.61181L20.9945 7.91507L19.0984 7.21832L18.4017 5.32227Z" fill="white"/>
<path d="M38.9226 11.707C38.6942 11.707 38.5 11.9012 38.5 12.1296C38.5 12.3581 38.6942 12.5523 38.9226 12.5523C39.1511 12.5523 39.3452 12.3581 39.3452 12.1296C39.3452 11.9012 39.1511 11.707 38.9226 11.707Z" fill="white"/>
<path d="M6.86551 14.2662C7.0711 14.2662 7.23101 14.1063 7.23101 13.9007C7.23101 13.6951 7.0711 13.5352 6.86551 13.5352C6.65991 13.5352 6.5 13.6951 6.5 13.9007C6.5 14.1063 6.65991 14.2662 6.86551 14.2662Z" fill="white"/>
<path d="M7.67707 27.8463C7.67707 27.7778 7.61996 27.7207 7.55142 27.7207C7.48289 27.7207 7.42578 27.7778 7.42578 27.8463C7.42578 27.9149 7.48289 27.972 7.55142 27.972C7.61996 27.972 7.67707 27.9149 7.67707 27.8463Z" fill="white"/>
<path d="M7.55142 39.1426C7.48289 39.1426 7.42578 39.1997 7.42578 39.2682C7.42578 39.3368 7.48289 39.3939 7.55142 39.3939C7.61996 39.3939 7.67707 39.3368 7.67707 39.2682C7.67707 39.1997 7.61996 39.1426 7.55142 39.1426Z" fill="white"/>
<path d="M3.68972 25.5977C3.48413 25.5977 3.32422 25.7576 3.32422 25.9632C3.32422 26.1688 3.48413 26.3287 3.68972 26.3287C3.89532 26.3287 4.05523 26.1688 4.05523 25.9632C4.05523 25.7576 3.89532 25.5977 3.68972 25.5977Z" fill="white"/>
<path d="M9.59696 42.2168C9.2543 42.2168 8.96875 42.5023 8.96875 42.845C8.96875 43.1877 9.2543 43.4732 9.59696 43.4732C9.93962 43.4732 10.2252 43.1877 10.2252 42.845C10.2252 42.5023 9.93962 42.2168 9.59696 42.2168Z" fill="white"/>
<path d="M9.83455 21.8039C10.0301 21.8039 10.1886 21.6453 10.1886 21.4498C10.1886 21.2542 10.0301 21.0957 9.83455 21.0957C9.639 21.0957 9.48047 21.2542 9.48047 21.4498C9.48047 21.6453 9.639 21.8039 9.83455 21.8039Z" fill="white"/>
<path d="M50.6438 35.0566C50.3012 35.0566 50.0156 35.3422 50.0156 35.6849C50.0156 36.0275 50.3012 36.3131 50.6438 36.3131C50.9865 36.3131 51.2721 36.0275 51.2721 35.6849C51.2721 35.3422 50.9865 35.0566 50.6438 35.0566Z" fill="white"/>
<path d="M37.8936 36.3672L37.6424 37.0525L36.957 37.3152L37.6424 37.5665L37.8936 38.2518L38.1563 37.5665L38.8417 37.3152L38.1563 37.0525L37.8936 36.3672Z" fill="white"/>
<path d="M27.9897 0C12.5554 0 0 12.5528 0 27.984C0 36.8932 4.10135 45.0714 11.253 50.4054L11.5729 49.9714C11.8928 50.2113 12.2126 50.4397 12.544 50.6567C14.6346 52.0845 16.9309 53.2267 19.3871 54.0377C20.2668 54.3346 21.1808 54.5745 22.1061 54.7687C24.0026 55.1913 25.9562 55.4083 27.9897 55.4083C29.6462 55.4083 31.2685 55.2598 32.8451 54.9743C33.4505 54.86 34.0675 54.7458 34.6501 54.5973C37.5747 53.8663 40.3166 52.667 42.7728 51.0908C43.3326 50.7481 43.8696 50.3598 44.3951 49.9714L44.715 50.4054C51.8552 45.0714 55.968 36.8932 55.968 27.984C55.9794 12.5528 43.424 0 27.9897 0ZM48.6107 43.7921C46.4629 43.7921 44.5665 44.9914 43.5383 46.7847C42.5329 45.9623 41.2534 45.4711 39.8825 45.4711C38.3744 45.4711 36.9921 46.0536 35.9525 47.0245C34.9243 43.5751 31.1771 41.0165 26.6987 41.0165C22.9972 41.0165 19.787 42.7641 18.199 45.3341C17.1137 44.763 15.8799 44.4546 14.5775 44.4546C12.921 44.4546 11.4015 44.9571 10.122 45.8252C9.21946 45.117 8.08845 44.7059 6.88889 44.6602C3.15313 39.9657 1.08531 34.1633 1.08531 27.984C1.08531 13.1582 13.1609 1.08509 27.9897 1.08509C42.8185 1.08509 54.8941 13.1468 54.8941 27.984C54.8941 33.8321 53.0548 39.3603 49.6846 43.9063C49.3304 43.8378 48.9763 43.7921 48.6107 43.7921Z" fill="white"/>
<path d="M48.6128 56.1375H47.5161L46.328 52.688C47.1505 52.5167 47.7789 51.7857 47.7789 50.9062V50.7006C47.7789 49.6954 46.9563 48.873 45.951 48.873H10.0327C9.0274 48.873 8.20485 49.6954 8.20485 50.7006V50.9062C8.20485 51.7857 8.82176 52.5167 9.65574 52.688L8.46761 56.1375H7.37087C6.36552 56.1375 5.54297 56.9598 5.54297 57.965V58.1706C5.54297 59.1757 6.36552 59.9981 7.37087 59.9981H48.6128C49.6182 59.9981 50.4407 59.1757 50.4407 58.1706V57.965C50.4407 56.9598 49.6182 56.1375 48.6128 56.1375Z" fill="#6ECDF0"/>
<path d="M44.5102 50.1081H11.391C11.311 50.1081 11.2539 50.051 11.2539 49.971C11.2539 49.8911 11.311 49.834 11.391 49.834H44.5102C44.5902 49.834 44.6473 49.8911 44.6473 49.971C44.6473 50.051 44.5902 50.1081 44.5102 50.1081Z" fill="white"/>
<g opacity="0.65">
<path d="M35.9606 6.04199C35.6408 5.92777 35.3096 5.81355 34.9783 5.71075C34.3844 5.51657 33.7333 5.85924 33.5506 6.45318C33.3564 7.05855 33.6991 7.69818 34.293 7.88094C34.59 7.97231 34.887 8.07511 35.1839 8.17791C35.3096 8.2236 35.4466 8.24644 35.5723 8.24644C36.0406 8.24644 36.4746 7.96089 36.646 7.49259C36.863 6.89864 36.5546 6.24759 35.9606 6.03057V6.04199Z" fill="white"/>
<path d="M47.3628 14.9734C45.2493 11.8324 42.3818 9.22815 39.0573 7.43489C38.5089 7.13791 37.812 7.34351 37.515 7.89177C37.218 8.45145 37.4236 9.13677 37.972 9.43374C40.9652 11.0557 43.5585 13.4086 45.4664 16.2413C45.6834 16.5725 46.049 16.7438 46.4146 16.7438C46.6316 16.7438 46.8601 16.6753 47.0543 16.5497C47.5799 16.1956 47.717 15.4874 47.3628 14.962V14.9734Z" fill="white"/>
</g>
<path d="M22.9614 52.7018V55.9799L22.9157 57.4191C22.9157 57.4876 22.8928 57.5562 22.87 57.6133C22.7215 57.8988 22.4017 58.093 22.0362 58.0473C21.6136 58.0016 21.3166 57.6247 21.3166 57.2021V54.1067C21.3166 53.9239 21.191 53.764 21.0196 53.7298C20.7798 53.6841 20.5742 53.8668 20.5742 54.0953V57.2135C20.5742 57.6361 20.2772 58.0016 19.8546 58.0587C19.352 58.1273 18.918 57.7275 18.918 57.2363V52.7018C18.918 52.4277 19.1464 52.1992 19.4205 52.1992H22.4588C22.7329 52.1992 22.9614 52.4277 22.9614 52.7018Z" fill="white"/>
<path d="M27.7113 56.8369L27.5743 52.6907C27.5743 52.4165 27.3458 52.2109 27.0717 52.2109H24.4675C24.1933 52.2109 23.9763 52.428 23.9649 52.6907L23.8621 55.9916L23.8164 57.5565V57.6821C23.8164 57.7849 23.8507 57.8763 23.9192 57.9562C23.9877 58.0248 24.0791 58.0704 24.1819 58.0704H24.9243C25.0271 58.0704 25.1185 58.0362 25.187 57.9676C25.2556 57.8991 25.2898 57.8077 25.2898 57.7049V57.6021H26.2493V57.7049C26.2493 57.9105 26.4092 58.0704 26.6148 58.0704H27.3572C27.46 58.0704 27.5514 58.0362 27.6199 57.9562C27.6771 57.8991 27.7113 57.8306 27.7227 57.7506C27.7456 57.7506 27.6999 56.8483 27.6999 56.8483L27.7113 56.8369ZM26.0894 56.6884C26.0094 56.7798 25.8952 56.8254 25.7696 56.8254C25.6439 56.8254 25.5411 56.7798 25.4498 56.6884C25.3698 56.597 25.3241 56.4828 25.3241 56.3686L25.4155 54.0613C25.4155 53.8786 25.5754 53.7301 25.7582 53.7301C25.9409 53.7301 26.0894 53.8786 26.1008 54.0613L26.1922 56.3686C26.1922 56.4942 26.1579 56.6084 26.0665 56.6884H26.0894Z" fill="white"/>
<path d="M30.9566 54.4722V54.0953C30.9566 53.8897 30.7852 53.7298 30.5911 53.7298C30.3969 53.7298 30.2141 53.9011 30.2141 54.0953V56.9394C30.2141 57.145 30.3855 57.3163 30.5911 57.3163C30.7967 57.3163 30.9566 57.145 30.9566 56.9394V56.6881C30.9566 56.2769 31.2992 55.9342 31.7104 55.9342C31.916 55.9342 32.0988 56.0142 32.2473 56.1512C32.3843 56.2883 32.4643 56.4711 32.4643 56.6652V57.5562C32.4643 57.8417 32.2473 58.0587 31.9617 58.0587H29.1862C28.9691 58.0587 28.775 57.9102 28.7064 57.7161C28.695 57.6704 28.6836 57.6133 28.6836 57.5562V52.7018C28.6836 52.4277 28.912 52.1992 29.1862 52.1992H31.9617C32.2358 52.1992 32.4529 52.4162 32.4643 52.6789V54.495C32.4643 54.8948 32.1102 55.2261 31.7104 55.2261C31.3107 55.2261 30.9566 54.8834 30.9566 54.4722Z" fill="white"/>
<path d="M36.5566 52.1992H33.9752C33.7125 52.1992 33.4955 52.4048 33.4727 52.6561V52.7018V57.2363V57.3277C33.4727 57.7275 33.7925 58.0587 34.2037 58.0587C34.6149 58.0587 34.9347 57.7275 34.9347 57.3277V56.8937H36.568C36.8307 56.8937 37.0592 56.6881 37.0706 56.4254V52.6789C37.0706 52.4048 36.8422 52.1992 36.568 52.1992H36.5566ZM35.62 55.7515C35.62 55.9456 35.4601 56.0941 35.2773 56.0941C35.0946 56.0941 34.9347 55.9342 34.9347 55.7515V54.0724C34.9347 53.8783 35.0946 53.7298 35.2773 53.7298C35.4601 53.7298 35.62 53.8897 35.62 54.0724V55.7515Z" fill="white"/>
<defs>
<linearGradient id="paint0_linear_3373_22683" x1="19.8998" y1="46.0785" x2="17.3189" y2="11.4925" gradientUnits="userSpaceOnUse">
<stop stop-color="white"/>
<stop offset="1" stop-color="white" stop-opacity="0"/>
</linearGradient>
</defs>
</svg>
