<svg width="56" height="60" viewBox="0 0 56 60" fill="none" xmlns="http://www.w3.org/2000/svg">
<path d="M44.0583 49.5363L44.3895 49.9703C39.8216 53.3969 34.1346 55.4301 27.9794 55.4301C21.8241 55.4301 16.1485 53.4084 11.5692 49.9703L11.9004 49.5363C5.02574 44.4078 1.08594 36.538 1.08594 27.9829C1.08594 13.1571 13.1566 1.08398 27.9794 1.08398C42.8022 1.08398 54.8728 13.1457 54.8728 27.9829C54.8728 36.538 50.933 44.4078 44.0583 49.5363Z" fill="#33333A"/>
<path d="M36.7614 14.1848C36.7614 14.1848 36.75 14.082 36.7044 14.0478C36.3732 13.7965 35.9621 13.5452 35.5281 13.2711C35.1513 13.0426 34.7744 12.8028 34.4432 12.5629C34.3861 12.5286 34.3176 12.54 34.272 12.5857C34.2149 12.62 34.2149 12.7114 34.2377 12.7685C34.2491 12.7685 34.2605 12.8028 34.2605 12.8142V12.8484C34.3291 13.0198 34.3519 13.3053 34.3633 13.8307C34.409 14.3904 34.3747 15.0643 34.2491 15.1557C34.1463 15.2242 33.8037 15.3042 33.1186 15.3042C33.05 15.3042 32.9815 15.3613 32.9815 15.4412C32.9815 15.4755 32.9815 15.5098 32.9815 15.5555C32.9815 16.3664 32.9473 17.0175 32.8902 17.4401C32.6732 18.8907 32.5019 19.359 31.4056 19.3819C30.1609 19.3933 26.5522 19.3933 25.2504 19.3819C24.1541 19.359 23.9942 18.8907 23.7658 17.4401C23.7087 17.0061 23.6745 16.3093 23.6745 15.4412C23.6745 15.407 23.663 15.3727 23.6288 15.3384C23.6059 15.3156 23.5717 15.3042 23.5374 15.3042C22.9779 15.3156 22.5325 15.2471 22.3954 15.1557C22.2698 15.0643 22.2356 14.3904 22.2813 13.8193C22.2813 13.3053 22.3155 13.0198 22.3726 12.8484C22.3726 12.8484 22.3954 12.7799 22.4069 12.7685C22.4411 12.7114 22.4297 12.6314 22.384 12.5857C22.3269 12.54 22.2584 12.54 22.2013 12.5743C21.8701 12.8028 21.4933 13.0426 21.1393 13.2711C20.7053 13.5452 20.2942 13.7965 19.9516 14.0478C19.906 14.082 19.8945 14.1391 19.8945 14.1848C19.8945 14.1962 20.1001 15.3956 20.1686 17.68C20.2029 18.7651 20.2029 19.9187 20.1686 21.1066C20.1458 21.7919 20.1115 22.5115 20.0658 23.2425C20.0658 23.2653 20.0658 23.2996 20.0887 23.3225C20.2714 23.6537 20.3513 23.7908 20.3856 23.8365C20.4198 24.042 20.6026 25.367 20.3285 27.7542C19.9859 30.644 20.4884 33.1568 21.7674 35.0072C21.7902 35.0415 21.8245 35.0872 21.8701 35.1557H21.8816C21.8816 35.1557 21.9729 35.2585 22.0186 35.3042C22.0414 35.3384 22.0757 35.3727 22.11 35.3956C23.1834 36.355 25.2732 36.6406 26.8377 36.7205C27.226 36.7319 27.7856 36.7434 28.3337 36.7434C28.8818 36.7434 29.4414 36.7319 29.8297 36.7205C31.3942 36.6406 33.484 36.355 34.5574 35.3956C34.5917 35.3727 34.626 35.3384 34.6488 35.3042C34.7059 35.2471 34.7516 35.19 34.7973 35.1329C34.7973 35.1329 34.8049 35.1329 34.8201 35.1329C34.8201 35.1329 34.8772 35.0529 34.9115 35.0186C36.1905 33.1683 36.6815 30.6554 36.3389 27.7656C36.0648 25.3784 36.2476 24.0535 36.2818 23.8479C36.3161 23.7908 36.396 23.6651 36.5787 23.3339C36.5902 23.311 36.6016 23.2768 36.6016 23.2539C36.2361 17.3602 36.7614 14.2305 36.7729 14.1962L36.7614 14.1848ZM34.5803 34.9387C34.5803 34.9387 34.5803 34.9501 34.5689 34.9615C34.5232 35.0072 34.4889 35.0529 34.4432 35.0986C34.409 35.1329 34.3861 35.1557 34.3519 35.19C33.3013 36.138 31.0516 36.3779 29.8068 36.435C29.0417 36.4692 27.6028 36.4692 26.8377 36.435C25.593 36.3779 23.3433 36.138 22.2927 35.19C22.2584 35.1557 22.2356 35.1329 22.2127 35.11C22.1671 35.0529 22.1214 35.0072 22.0757 34.9615C22.0757 34.9501 22.0643 34.9501 22.0643 34.9387C22.03 34.9044 22.0072 34.8701 21.9843 34.8359C20.751 33.0426 20.2714 30.6097 20.5911 27.7885C20.9109 25.1386 20.6597 23.8136 20.6482 23.7565C20.6482 23.7337 20.6368 23.7222 20.6254 23.6994C20.5911 23.6651 20.4655 23.4367 20.3513 23.2197C20.3856 22.5001 20.4198 21.7919 20.4427 21.118C20.4769 19.9187 20.4769 18.7651 20.4427 17.68C20.3856 15.7154 20.2257 14.5389 20.18 14.2305C20.4998 14.0021 20.8766 13.7622 21.2763 13.5109C21.5275 13.351 21.7902 13.1911 22.03 13.0312C22.0072 13.2139 21.9958 13.4652 21.9843 13.8079C21.9615 14.1163 21.9044 15.1557 22.2242 15.3841C22.4297 15.544 22.9436 15.5783 23.3775 15.5897C23.3775 16.4121 23.4118 17.0518 23.4803 17.4744C23.6859 18.8564 23.8686 19.6446 25.2618 19.6674C26.5408 19.6788 30.1494 19.6788 31.3942 19.6674C32.7645 19.6446 32.9473 18.8564 33.1528 17.4744C33.2213 17.0403 33.2556 16.3779 33.2556 15.5897C33.8494 15.5783 34.2377 15.5098 34.409 15.3841C34.7287 15.1557 34.6716 14.1163 34.6488 13.8193C34.6374 13.4538 34.626 13.2025 34.6031 13.0198C34.8544 13.1911 35.117 13.351 35.3797 13.5109C35.7794 13.7622 36.1562 14.0021 36.4645 14.2305C36.3846 14.7788 35.9735 17.8627 36.3047 23.2197C36.179 23.4253 36.0534 23.6537 36.0306 23.6994C36.0077 23.6994 35.9963 23.7337 35.9963 23.7565C35.9849 23.8136 35.7337 25.1386 36.0534 27.7885C36.3732 30.6097 35.8936 33.0426 34.6602 34.8473C34.6374 34.8701 34.6145 34.9044 34.5803 34.9387Z" fill="#43434C"/>
<path d="M35.996 23.7563C35.996 23.7563 35.7333 25.1383 36.0531 27.7882C36.3728 30.6095 35.8932 33.0424 34.6599 34.8471C34.637 34.8699 34.6142 34.9042 34.5799 34.9384C34.5799 34.9384 34.5761 34.9461 34.5685 34.9613C34.5685 34.9613 34.4886 35.0527 34.4429 35.0983C34.4087 35.1326 34.3858 35.1555 34.3516 35.1897C33.3009 36.1378 31.0513 36.3776 29.8065 36.4347C29.0414 36.469 27.6025 36.469 26.8374 36.4347C25.5926 36.3776 23.3429 36.1378 22.2923 35.1897C22.2581 35.1555 22.2352 35.1326 22.2124 35.1098C22.1667 35.0527 22.121 35.007 22.0754 34.9613C22.0754 34.9499 22.0639 34.9499 22.0639 34.9384C22.0297 34.9042 22.0068 34.8699 21.984 34.8356C20.7507 33.0424 20.271 30.6095 20.5908 27.7882C20.9105 25.1383 20.6593 23.8134 20.6479 23.7563C20.6479 23.7334 20.6365 23.722 20.6251 23.6991C20.5908 23.6649 20.4652 23.4364 20.351 23.2194C20.3852 22.4998 20.4195 21.7917 20.4423 21.1178C20.4766 19.9184 20.4766 18.7648 20.4423 17.6797C20.3852 15.7151 20.2254 14.5387 20.1797 14.2303C20.4994 14.0018 20.8763 13.762 21.276 13.5107C21.5272 13.3508 21.7899 13.1909 22.0297 13.031C22.0068 13.2137 21.9954 13.465 21.984 13.8077C21.9612 14.116 21.9041 15.1555 22.2238 15.3839C22.4294 15.5438 22.9433 15.5781 23.3772 15.5895C23.3772 16.4119 23.4115 17.0515 23.48 17.4741C23.6855 18.8562 23.8683 19.6443 25.2615 19.6672C26.5405 19.6786 30.1491 19.6786 31.3938 19.6672C32.7642 19.6443 32.9469 18.8562 33.1525 17.4741C33.221 17.0401 33.2553 16.3776 33.2553 15.5895C33.8491 15.5781 34.2374 15.5095 34.4087 15.3839C34.7284 15.1555 34.6713 14.116 34.6485 13.8191C34.637 13.4536 34.6256 13.2023 34.6028 13.0195C34.854 13.1909 35.1167 13.3508 35.3793 13.5107C35.779 13.762 36.1559 14.0018 36.4642 14.2303C36.3843 14.7785 35.9732 17.8625 36.3043 23.2194C36.1787 23.425 36.0531 23.6535 36.0303 23.6991C36.0074 23.6991 35.996 23.7334 35.996 23.7563Z" fill="#43434C"/>
<path d="M23.5455 11.6387C23.5227 11.8671 23.5113 12.107 23.4999 12.2555H23.043C23.2371 12.0613 23.3971 11.8443 23.5455 11.6387Z" fill="#43434C"/>
<path d="M33.5966 12.2555H33.1512C33.1283 12.0384 33.1169 11.8328 33.1055 11.6387C33.2425 11.8557 33.4139 12.0727 33.5966 12.2555Z" fill="#43434C"/>
<path d="M23.7874 10.8954C23.7188 10.884 23.6503 10.9069 23.616 10.964C23.4333 11.3066 23.1363 11.7864 22.7594 12.129C22.6908 12.1975 22.6109 12.2661 22.5195 12.3346C22.4738 12.3803 22.451 12.4488 22.4852 12.5059C22.5081 12.5631 22.5538 12.5973 22.6109 12.5973C22.6223 12.5973 22.6337 12.5859 22.6452 12.5859H22.7137C22.7137 12.5859 22.748 12.5631 22.7822 12.5631C23.0792 12.5288 23.5018 12.5288 23.6275 12.5402C23.696 12.5516 23.7645 12.4831 23.7759 12.4031C23.7759 12.4031 23.8559 11.2609 23.8787 11.0553C23.8902 10.9868 23.8445 10.9183 23.7874 10.8954ZM23.0449 12.2547C23.2391 12.0605 23.399 11.8435 23.5475 11.6379C23.5247 11.8663 23.5132 12.1062 23.5018 12.2547H23.0449Z" fill="#43434C"/>
<path d="M34.1227 12.346C34.0427 12.2661 33.9514 12.1975 33.8828 12.129C33.5059 11.7864 33.2089 11.3066 33.0262 10.964C32.9919 10.9069 32.9234 10.884 32.8663 10.8954C32.7977 10.9183 32.752 10.9868 32.7635 11.0553C32.7977 11.4437 32.8434 11.912 32.8663 12.4031C32.8777 12.4831 32.9348 12.5402 33.0148 12.5402H33.3117C33.4602 12.5402 33.6887 12.5402 33.8714 12.5745C33.9171 12.5745 33.9628 12.5859 33.997 12.5859C34.0085 12.5973 34.0199 12.5973 34.0313 12.5973C34.0884 12.5973 34.1341 12.5631 34.1684 12.5174C34.1912 12.4603 34.1798 12.3803 34.1227 12.346ZM33.1061 11.6379C33.2432 11.8549 33.4145 12.0719 33.5973 12.2547H33.1518C33.129 12.0376 33.1176 11.832 33.1061 11.6379Z" fill="#43434C"/>
<path d="M24.7028 42.8555V43.6779C24.7028 44.0549 24.4058 44.3633 24.0289 44.3633H23.7091C23.5263 44.3633 23.3664 44.2947 23.2408 44.1691C23.2065 44.1348 23.1722 44.1005 23.1494 44.0663C23.1151 44.0092 23.0808 43.9521 23.0694 43.8835C23.0466 43.8264 23.0352 43.7579 23.0352 43.6894V42.8555C23.0352 42.4786 23.3321 42.1816 23.7091 42.1816H24.0289C24.4058 42.1816 24.7028 42.4786 24.7028 42.8555Z" fill="#43434C"/>
<path d="M26.6634 42.8555V43.6779C26.6634 44.0549 26.3664 44.3633 25.9895 44.3633H25.6697C25.2928 44.3633 24.9844 44.0549 24.9844 43.6779V42.8555C24.9844 42.4786 25.2928 42.1816 25.6697 42.1816H25.9895C26.3664 42.1816 26.6634 42.4786 26.6634 42.8555Z" fill="#43434C"/>
<path d="M35.0604 41.9068H34.969C34.969 41.9068 34.9233 41.8953 34.9005 41.8953H34.5806C34.3522 41.8953 34.1466 41.9753 33.9867 42.1123L33.7582 42.3522C33.5869 42.0781 33.2899 41.8953 32.9359 41.8953H32.616C32.3876 41.8953 32.182 41.9753 32.0221 42.1123C31.9878 42.1238 31.965 42.158 31.9421 42.1809C31.885 42.2266 31.8393 42.2951 31.7937 42.3522C31.748 42.2837 31.7023 42.2151 31.6337 42.1695C31.5766 42.1123 31.5195 42.0667 31.4624 42.0324C31.3139 41.941 31.154 41.8953 30.9713 41.8953H30.6515C30.5829 41.8953 30.5258 41.9068 30.4573 41.9182C30.4002 41.9296 30.3316 41.9524 30.2745 41.9753C30.2517 41.9753 30.2174 41.9981 30.1831 42.021C30.1375 42.0438 30.1032 42.0667 30.0689 42.1009C30.0118 42.1352 29.9547 42.1923 29.9204 42.2494C29.8862 42.2837 29.8633 42.3179 29.8405 42.3522C29.772 42.4436 29.7377 42.5464 29.7148 42.6606C29.772 41.6098 29.8405 39.6223 29.9433 36.7211C31.4967 36.6412 33.507 36.3328 34.5464 35.3962C34.5464 35.3962 34.5464 35.3962 34.5464 35.3848C34.6263 36.9039 34.8319 40.4676 34.9347 41.2785C34.969 41.507 35.0033 41.7012 35.0489 41.9068H35.0604Z" fill="#43434C"/>
<path d="M35.5736 42.867V43.7807C35.5621 43.8835 35.5165 43.9749 35.4708 44.0549C35.4594 44.0549 35.4365 44.0891 35.4365 44.1005L35.4022 44.1348C35.4022 44.1348 35.368 44.1805 35.3223 44.2148C35.3109 44.2262 35.288 44.2376 35.2766 44.249L35.2423 44.2719L35.2081 44.2947C35.2081 44.2947 35.1624 44.3061 35.1053 44.329C35.0824 44.3404 35.071 44.3404 35.0482 44.3404H35.0025C35.0025 44.3404 34.9796 44.3404 34.9682 44.3633H34.4999C34.1572 44.3176 33.8945 44.032 33.8945 43.6894V42.8555C33.906 42.49 34.2029 42.1816 34.5799 42.1816H34.9568L35.0025 42.1931H35.0482H35.0824L35.1167 42.2159L35.1624 42.2387H35.1738C35.1738 42.2387 35.2195 42.2616 35.2423 42.273L35.2766 42.2959C35.2766 42.2959 35.3451 42.353 35.3794 42.3872C35.3794 42.3872 35.4022 42.4215 35.4137 42.4215L35.4365 42.4443L35.4479 42.4672V42.49L35.4708 42.5015V42.5357H35.4936C35.4936 42.5471 35.505 42.57 35.505 42.57L35.5279 42.6157V42.6614L35.5621 42.8441L35.5736 42.867Z" fill="#43434C"/>
<path d="M33.609 42.8555V43.6894C33.609 44.0549 33.3121 44.3633 32.9351 44.3633H32.6153C32.2384 44.3633 31.9414 44.0549 31.9414 43.6779V42.8555C31.9414 42.4786 32.2384 42.1816 32.6153 42.1816H32.9351C33.3121 42.1816 33.609 42.4786 33.609 42.8555Z" fill="#43434C"/>
<path d="M31.6556 42.8555V43.6779C31.6556 44.0549 31.3472 44.3633 30.9703 44.3633H30.6505C30.2735 44.3633 29.9766 44.0549 29.9766 43.6779V42.8555C29.9766 42.4786 30.2735 42.1816 30.6505 42.1816H30.9703C31.3472 42.1816 31.6556 42.4786 31.6556 42.8555Z" fill="#43434C"/>
<path d="M26.9861 36.5848C26.9861 36.5048 26.929 36.4477 26.849 36.4477C25.6043 36.3792 23.3432 36.1393 22.2926 35.1913C22.2583 35.157 22.2355 35.1342 22.2126 35.1113C22.1669 35.0542 22.1213 35.0085 22.0756 34.9629C22.0413 34.9172 21.9728 34.8943 21.9157 34.9172C21.87 34.9172 21.8244 34.9857 21.8244 35.0428C21.733 36.6305 21.516 40.4226 21.4132 41.245C21.3904 41.4049 21.3676 41.5534 21.3333 41.7019C21.3105 41.8161 21.2876 41.9189 21.2648 42.0217C21.2534 42.0217 21.2077 42.0674 21.1963 42.0674C21.162 42.0902 21.0706 42.1816 21.0478 42.193L20.9793 42.273L20.9336 42.3415C20.9336 42.3415 20.8994 42.41 20.8879 42.4214C20.8765 42.4443 20.8308 42.5585 20.8308 42.5585C20.8308 42.5699 20.808 42.6499 20.7966 42.6727C20.7966 42.6727 20.7852 42.7413 20.7852 42.7641V43.8264C20.808 43.9634 20.8651 44.0891 20.945 44.2261L21.025 44.3289C21.025 44.3289 21.0821 44.386 21.1163 44.4089C21.1277 44.4089 21.1392 44.4317 21.1506 44.4432C21.1734 44.4546 21.1963 44.4774 21.2419 44.5003C21.2419 44.5117 21.379 44.5688 21.4018 44.5802C21.4018 44.5802 21.4475 44.6031 21.4589 44.6031C21.4818 44.6145 21.5046 44.6145 21.5274 44.6259C21.5503 44.6259 21.6873 44.6487 21.7102 44.6487C21.7102 44.6487 26.0496 44.6602 26.0839 44.6602C26.2895 44.6602 26.6663 44.6145 26.9404 44.3518C27.203 44.1005 27.3058 43.735 27.2601 43.2553C27.203 42.5699 27.1117 40.3198 26.9861 36.5848ZM22.7493 43.6893C22.7493 44.032 22.4867 44.3175 22.1669 44.3632H21.6759L21.5046 44.3175C21.4818 44.3061 21.4589 44.2947 21.4361 44.2832L21.3676 44.249C21.3676 44.249 21.2534 44.1576 21.2305 44.1233L21.1734 44.0548C21.1277 43.9748 21.0935 43.8835 21.0706 43.7578V42.8669L21.0935 42.6613C21.0935 42.6613 21.1392 42.5699 21.1506 42.5471C21.162 42.5357 21.2077 42.4557 21.2191 42.4443C21.2305 42.4329 21.3219 42.3301 21.3561 42.3072L21.5046 42.2273H21.5503L21.6416 42.193H22.0642C22.441 42.1816 22.7379 42.49 22.7493 42.8555V43.6893ZM24.7021 43.6779C24.7021 44.0548 24.4052 44.3632 24.0284 44.3632H23.7086C23.5259 44.3632 23.366 44.2947 23.2404 44.169C23.2061 44.1348 23.1719 44.1005 23.149 44.0662C23.1148 44.0091 23.0805 43.952 23.0691 43.8835C23.0463 43.8264 23.0348 43.7578 23.0348 43.6893V42.8555C23.0348 42.4786 23.3318 42.1816 23.7086 42.1816H24.0284C24.4052 42.1816 24.7021 42.4786 24.7021 42.8555V43.6779ZM26.6663 43.6779C26.6663 44.0548 26.3694 44.3632 25.9925 44.3632H25.6728C25.2959 44.3632 24.9876 44.0548 24.9876 43.6779V42.8555C24.9876 42.4786 25.2959 42.1816 25.6728 42.1816H25.9925C26.3694 42.1816 26.6663 42.4786 26.6663 42.8555V43.6779ZM26.8033 42.3529C26.8033 42.3529 26.7577 42.2844 26.7234 42.2501C26.6891 42.193 26.6321 42.1359 26.575 42.1016C26.5407 42.0674 26.5064 42.0445 26.4608 42.0217C26.4265 41.9988 26.3922 41.9874 26.3694 41.976C26.3123 41.9531 26.2438 41.9303 26.1867 41.9189C26.1182 41.9189 26.0611 41.896 25.9925 41.896H25.6728C25.4901 41.896 25.3302 41.9417 25.1817 42.0331C25.1246 42.0674 25.0675 42.1131 25.0104 42.1702C24.9419 42.2158 24.8963 42.2844 24.8506 42.3529C24.6793 42.0788 24.3824 41.896 24.0284 41.896H23.7086C23.3889 41.896 23.1148 42.0445 22.9435 42.2844C22.9206 42.3072 22.8978 42.3301 22.8864 42.3529C22.8407 42.2958 22.795 42.2273 22.7379 42.1816C22.7151 42.1473 22.6922 42.1245 22.658 42.1131C22.4981 41.976 22.2926 41.896 22.0642 41.896H21.7444L21.6416 41.9075C21.6416 41.9075 21.596 41.9075 21.5845 41.9075C21.6074 41.8047 21.6302 41.7133 21.6416 41.6105C21.6645 41.4963 21.6759 41.382 21.6987 41.2678C21.7901 40.5025 21.9956 37.1787 22.087 35.4197V35.374H22.0984C23.1376 36.3221 25.1475 36.6305 26.712 36.7104C26.8033 39.6002 26.8719 41.5762 26.929 42.627C26.9061 42.5242 26.8719 42.4214 26.8033 42.3415V42.3529Z" fill="#43434C"/>
<path d="M26.9275 42.6406C26.9047 42.5378 26.8704 42.435 26.8019 42.3551C26.7791 42.3208 26.7562 42.2865 26.722 42.2523C26.6877 42.1951 26.6306 42.138 26.5735 42.1038C26.5392 42.0695 26.5049 42.0467 26.4592 42.0238C26.425 42.001 26.3907 41.9896 26.3679 41.9781C26.3108 41.9553 26.2422 41.9324 26.1851 41.921C26.1166 41.921 26.0595 41.8982 25.9909 41.8982H25.6711C25.4884 41.8982 25.3285 41.9439 25.18 42.0352C25.1229 42.0695 25.0658 42.1152 25.0086 42.1723C24.9401 42.218 24.8944 42.2865 24.8487 42.3551C24.6774 42.0809 24.3804 41.8982 24.0264 41.8982H23.7065C23.3867 41.8982 23.1126 42.0467 22.9413 42.2865C22.9184 42.3094 22.8956 42.3322 22.8841 42.3551C22.8385 42.2979 22.7928 42.2294 22.7357 42.1837C22.7128 42.1495 22.69 42.1266 22.6557 42.1152C22.4958 41.9781 22.2902 41.8982 22.0618 41.8982H21.7419L21.6391 41.9096C21.6391 41.9096 21.5935 41.9096 21.582 41.9096C21.6049 41.8068 21.6277 41.7154 21.6391 41.6126C21.662 41.4984 21.6734 41.3842 21.6963 41.27C21.7876 40.5047 21.9932 37.1809 22.0846 35.4219C23.1469 36.3471 25.1457 36.644 26.7105 36.724C26.8019 39.6023 26.8704 41.5784 26.9275 42.6292V42.6406Z" fill="#43434C"/>
<path d="M22.7494 42.8561V43.69C22.7494 44.0326 22.4866 44.3182 22.1668 44.3639H21.6757L21.5043 44.3182C21.4815 44.3067 21.4587 44.2953 21.4358 44.2839L21.3673 44.2496C21.3673 44.2496 21.2531 44.1583 21.2302 44.124L21.1731 44.0555C21.1274 43.9755 21.0932 43.8841 21.0703 43.7585V42.8676L21.0932 42.662C21.0932 42.662 21.1388 42.5706 21.1503 42.5478C21.1617 42.5363 21.2074 42.4564 21.2188 42.445C21.2302 42.4335 21.3216 42.3307 21.3559 42.3079L21.5043 42.2279H21.55L21.6414 42.1937H22.064C22.441 42.1822 22.7379 42.4906 22.7494 42.8561Z" fill="#43434C"/>
<path d="M35.8262 42.6042V42.5699L35.7805 42.4786C35.7805 42.4557 35.7349 42.3758 35.7349 42.3758L35.712 42.3415L35.5978 42.2044C35.5521 42.1587 35.5065 42.1131 35.4494 42.0788C35.438 42.0674 35.4151 42.0559 35.3923 42.0331C35.3923 42.0331 35.3809 42.0331 35.3809 42.0217C35.3238 41.7932 35.2667 41.5305 35.2324 41.245C35.1296 40.3655 34.8898 36.2764 34.8213 35.0542C34.8213 34.9857 34.787 34.94 34.7299 34.9172C34.6728 34.8943 34.6157 34.9172 34.5701 34.9629C34.5244 35.0085 34.4901 35.0542 34.4444 35.0999C34.4102 35.1342 34.3873 35.157 34.3531 35.1913C33.3025 36.1393 31.0414 36.3792 29.7966 36.4477C29.7167 36.4477 29.6596 36.5048 29.6596 36.5848C29.5454 40.3198 29.454 42.5699 29.3855 43.2553C29.3398 43.735 29.4426 44.1005 29.7053 44.3518C29.9793 44.6145 30.3562 44.6602 30.5617 44.6602C30.596 44.6602 34.9355 44.6487 34.9355 44.6487C34.9583 44.6487 35.0954 44.6259 35.1068 44.6259C35.141 44.6145 35.1639 44.6145 35.1981 44.6031C35.1981 44.6031 35.3009 44.5574 35.3238 44.5459C35.3352 44.5459 35.4265 44.4888 35.4265 44.4888C35.4494 44.4888 35.4722 44.4546 35.495 44.4432L35.5293 44.4089L35.6549 44.2832L35.6778 44.2604L35.712 44.2147C35.7805 44.0891 35.8376 43.9634 35.8605 43.8149V42.7641C35.8605 42.7641 35.8376 42.627 35.8262 42.6042ZM31.658 43.6779C31.658 44.0548 31.3497 44.3632 30.9728 44.3632H30.6531C30.2762 44.3632 29.9793 44.0548 29.9793 43.6779V42.8555C29.9793 42.4786 30.2762 42.1816 30.6531 42.1816H30.9728C31.3497 42.1816 31.658 42.4786 31.658 42.8555V43.6779ZM33.6108 43.6893C33.6108 44.0548 33.3139 44.3632 32.937 44.3632H32.6173C32.2404 44.3632 31.9435 44.0548 31.9435 43.6779V42.8555C31.9435 42.4786 32.2404 42.1816 32.6173 42.1816H32.937C33.3139 42.1816 33.6108 42.4786 33.6108 42.8555V43.6893ZM32.937 41.896H32.6173C32.3889 41.896 32.1833 41.976 32.0235 42.1131C31.9892 42.1245 31.9664 42.1587 31.9435 42.1816C31.8864 42.2273 31.8407 42.2958 31.7951 42.3529C31.7494 42.2844 31.7037 42.2158 31.6352 42.1702C31.5781 42.1131 31.521 42.0674 31.4639 42.0331C31.3154 41.9417 31.1556 41.896 30.9728 41.896H30.6531C30.5846 41.896 30.5275 41.9075 30.459 41.9189C30.4019 41.9303 30.3333 41.9531 30.2762 41.976C30.2534 41.976 30.2191 41.9988 30.1849 42.0217C30.1392 42.0445 30.1049 42.0674 30.0707 42.1016C30.0136 42.1359 29.9565 42.193 29.9222 42.2501C29.888 42.2844 29.8651 42.3187 29.8423 42.3529C29.7738 42.4443 29.7395 42.5471 29.7167 42.6613C29.7738 41.6105 29.8423 39.623 29.9451 36.7218C31.4981 36.6419 33.508 36.3335 34.5472 35.3969C34.5472 35.3969 34.5472 35.3969 34.5472 35.3855C34.6272 36.9046 34.8327 40.4683 34.9355 41.2792C34.9697 41.5077 35.004 41.7019 35.0497 41.9075H35.0154C35.0154 41.9075 34.9126 41.896 34.8898 41.896H34.5701C34.3417 41.896 34.1361 41.976 33.9762 42.1131L33.7478 42.3529C33.5765 42.0788 33.2796 41.896 32.9256 41.896H32.937ZM35.575 43.7807C35.5636 43.8835 35.5179 43.9748 35.4722 44.0548C35.4608 44.0548 35.3694 44.1804 35.3238 44.2147C35.3123 44.2261 35.2895 44.2376 35.2781 44.249L35.2438 44.2718C35.2438 44.2718 35.1639 44.3061 35.1068 44.3289C35.0839 44.3404 34.9697 44.3632 34.9697 44.3632H34.5015C34.1589 44.3175 33.8963 44.032 33.8963 43.6893V42.8555C33.9077 42.49 34.2046 42.1816 34.5815 42.1816H34.9583L35.0954 42.2159H35.1296L35.1867 42.2501C35.2096 42.2615 35.2324 42.273 35.2552 42.2844L35.2895 42.3072C35.2895 42.3072 35.358 42.3643 35.3923 42.3986L35.4494 42.4671L35.5407 42.6385V42.6842L35.575 42.8669V43.7807Z" fill="#43434C"/>
<path d="M21.3793 39.9221C21.3793 40.2648 21.2765 40.5503 20.991 40.7445C20.7169 40.9387 20.4543 40.9958 20.203 40.9273C19.8947 40.8359 19.712 40.5732 19.6663 40.4704C19.6321 40.4018 19.6092 40.3105 19.575 40.2077C19.4836 39.945 19.3922 39.648 19.2552 39.4767C19.2095 39.4081 19.1182 39.3739 19.0268 39.4196C18.9583 39.4538 18.9126 39.5338 18.924 39.6251C19.0154 40.0478 19.4608 42.2294 19.4379 42.9604C19.4151 43.7142 18.9583 43.8399 18.5586 43.8627C18.1475 43.897 17.7136 43.8399 17.5194 42.9604C17.4509 42.6634 17.3938 42.3779 17.3367 42.1037C17.2225 41.4755 17.1197 40.9729 16.937 40.7102C16.8457 40.5846 16.7429 40.6074 16.6972 40.6189C16.3774 40.7445 16.5602 42.2522 16.5602 42.2636V42.355C16.6173 42.652 16.7429 43.4173 16.4345 43.817C16.3318 43.9541 16.1719 44.0341 15.9663 44.0569C15.5438 44.1026 15.2583 44.0455 15.0528 43.8741C14.8129 43.68 14.6873 43.303 14.6302 42.6291C14.516 41.2471 14.4475 40.7788 14.1392 40.7788H14.1163C14.1163 40.7788 14.0136 40.813 13.9793 40.8587C13.7737 41.1214 13.8651 42.652 13.8879 42.8005C13.8994 42.8347 14.0136 43.4173 13.7281 43.7828C13.5682 43.9769 13.317 44.0683 12.9744 44.0683H12.9629C11.9694 44.0683 11.9123 43.3487 11.8552 42.652C11.8552 42.4921 11.8324 42.3436 11.8096 42.2294C11.7867 42.0466 11.7296 41.7268 11.6725 41.3499C11.5126 40.2991 11.2728 38.7114 11.0901 38.1174C11.033 37.9233 10.9531 37.7291 10.8846 37.5235C10.6562 36.9295 10.4278 36.3242 10.5648 35.8216C10.8846 35.4333 11.1244 35.1591 11.6839 34.9878C11.7296 34.965 11.7753 34.9535 11.8324 34.9421C12.4262 34.7936 13.3512 34.7479 14.9614 34.805C16.3203 34.8507 17.2796 35.0221 17.9305 35.2162C18.0219 35.2391 18.1132 35.2619 18.1932 35.2962C18.2845 35.319 18.3531 35.3533 18.4216 35.3761C18.57 35.4333 18.6956 35.4789 18.787 35.5361C18.8441 35.5589 18.8898 35.5817 18.9355 35.616C18.9811 35.6389 19.0154 35.6617 19.0497 35.6845C19.1753 35.7531 19.2324 35.8102 19.2324 35.8102C19.2438 35.8216 19.2438 35.833 19.2552 35.8445C19.4037 36.0158 20.4657 37.2951 20.8654 38.1745C21.1395 38.7685 21.3793 39.4081 21.3793 39.9221Z" fill="#43434C"/>
<path d="M20.1779 19.3612C20.1779 19.9323 20.1779 20.5148 20.155 21.1087C20.1322 21.7712 20.0979 22.468 20.0637 23.1876C19.7097 23.4731 17.8368 25.095 17.7569 28.2475C17.6655 31.1487 18.0424 33.5588 18.7504 34.701C18.956 35.0208 19.0587 35.2492 19.1273 35.3977C18.8418 35.2264 18.3393 34.9979 17.5171 34.8152C17.4257 34.7924 17.3344 34.7695 17.2316 34.7581C17.1402 34.7352 17.0374 34.7124 16.9233 34.701C16.7177 34.6667 16.4779 34.6324 16.2266 34.6096C15.8498 34.5639 15.4273 34.5296 14.9705 34.5182C14.5251 34.4954 14.1254 34.4954 13.7828 34.4954C13.6344 34.4954 13.4859 34.4954 13.3489 34.5068C13.2118 34.5068 13.0748 34.5068 12.9606 34.5182C12.8807 34.5182 12.8007 34.5182 12.7322 34.5296C12.6294 34.5296 12.5381 34.5411 12.4467 34.5525C12.3554 34.5525 12.2754 34.5525 12.1955 34.5868C11.773 34.6439 11.4646 34.7352 11.2248 34.8495C11.1335 34.8951 11.0649 34.9408 10.9964 34.9865C10.9279 35.0322 10.8708 35.0779 10.8137 35.1236C10.7338 35.2035 10.6652 35.2721 10.5853 35.352C10.5625 34.0956 10.6196 29.9037 12.0813 25.4034C13.7257 20.3777 18.0195 15.5119 19.9152 14.3926C19.9723 14.8266 20.1094 15.9346 20.155 17.6821C20.1779 18.219 20.1779 18.7901 20.1779 19.3612Z" fill="#43434C"/>
<path d="M21.1259 38.0461C20.7262 37.178 19.7327 35.9673 19.4929 35.6817C19.4929 35.4533 19.3216 35.0535 18.9904 34.551C18.7392 34.1398 17.917 32.4721 18.0426 28.2574C18.1339 24.9907 20.258 23.3916 20.2808 23.3802C20.3151 23.3573 20.3379 23.3002 20.3379 23.266C20.3836 22.5235 20.4179 21.804 20.4407 21.1186C20.475 19.9193 20.475 18.7657 20.4407 17.6806C20.3722 15.3733 20.1666 14.1626 20.1666 14.1512C20.1552 14.1055 20.1324 14.0712 20.0867 14.0484C20.0524 14.0255 20.0068 14.0255 19.9611 14.0484C18.0768 14.985 13.5546 19.9764 11.8074 25.3219C10.1515 30.4276 10.2886 35.1449 10.3114 35.7046C10.1173 36.2871 10.3685 36.9724 10.6083 37.6235C10.6883 37.8177 10.7568 38.0118 10.8139 38.1946C10.9966 38.7771 11.2364 40.3419 11.3963 41.3928C11.4534 41.7697 11.4991 42.0895 11.5333 42.2723C11.5562 42.3865 11.5676 42.5235 11.579 42.672C11.6247 43.3345 11.7046 44.3511 12.9608 44.3511H12.9722C13.4062 44.3511 13.7259 44.2254 13.9429 43.9627C14.3197 43.5058 14.1827 42.8205 14.1713 42.7406C14.1256 42.5464 14.1142 41.5984 14.1599 41.1986C14.2398 41.4956 14.3083 42.1695 14.3426 42.6492C14.4111 43.403 14.571 43.8371 14.8679 44.0998C15.1305 44.3054 15.496 44.3853 15.9984 44.3396C16.2839 44.3054 16.5009 44.1912 16.6608 43.9856C17.0376 43.4944 16.912 42.6606 16.8549 42.3065V42.2266C16.8092 41.9867 16.7864 41.4156 16.8092 41.0844C16.9006 41.3356 16.9691 41.724 17.0605 42.158C17.1061 42.4322 17.1632 42.7291 17.2318 43.0261C17.4716 44.0655 18.0426 44.1683 18.5679 44.1455C19.3102 44.0998 19.6984 43.7 19.7213 42.969C19.7327 42.4778 19.5614 41.427 19.4129 40.5932C19.4929 40.7874 19.7441 41.0844 20.121 41.1872C20.2009 41.21 20.3037 41.2328 20.4179 41.2328C20.6234 41.2328 20.8747 41.1757 21.1601 40.9816C22.0395 40.3762 21.6398 39.154 21.1259 38.0461ZM20.2009 40.9245C19.8926 40.8331 19.7098 40.5704 19.6642 40.4676C19.6299 40.399 19.6071 40.3077 19.5728 40.2049C19.4815 39.9422 19.3901 39.6452 19.2531 39.4739C19.2074 39.4053 19.116 39.3711 19.0247 39.4167C18.9561 39.451 18.9105 39.531 18.9219 39.6223C19.0132 40.045 19.4586 42.2266 19.4358 42.9576C19.4129 43.7114 18.9561 43.8371 18.5565 43.8599C18.1453 43.8942 17.7114 43.8371 17.5173 42.9576C17.4487 42.6606 17.3916 42.3751 17.3345 42.1009C17.2203 41.4727 17.1176 40.9701 16.9349 40.7074C16.8435 40.5818 16.7407 40.6046 16.695 40.6161C16.3753 40.7417 16.558 42.2494 16.558 42.2608V42.3522C16.6151 42.6492 16.7407 43.4145 16.4324 43.8142C16.3296 43.9513 16.1697 44.0312 15.9642 44.0541C15.5416 44.0998 15.2562 44.0427 15.0506 43.8713C14.8108 43.6772 14.6852 43.3002 14.6281 42.6263C14.5139 41.2443 14.4454 40.776 14.137 40.776H14.1142C14.1142 40.776 14.0114 40.8102 13.9771 40.8559C13.7716 41.1186 13.863 42.6492 13.8858 42.7977C13.8972 42.8319 14.0114 43.4145 13.7259 43.78C13.566 43.9741 13.3148 44.0655 12.9722 44.0655H12.9608C11.9673 44.0655 11.9102 43.3459 11.8531 42.6492C11.8531 42.4893 11.8302 42.3408 11.8074 42.2266C11.7846 42.0438 11.7275 41.724 11.6704 41.3471C11.5105 40.2962 11.2707 38.7086 11.088 38.1146C11.0309 37.9205 10.9509 37.7263 10.8824 37.5207C10.654 36.9267 10.4256 36.3214 10.5627 35.8188C10.8824 35.4305 11.1222 35.1563 11.6818 34.985C11.7275 34.9621 11.7731 34.9507 11.8302 34.9393C12.4241 34.7908 13.3491 34.7451 14.9592 34.8022C16.3182 34.8479 17.2774 35.0193 17.9284 35.2134C18.0197 35.2363 18.1111 35.2591 18.191 35.2934C18.2824 35.3162 18.3509 35.3505 18.4194 35.3733C18.5679 35.4304 18.6935 35.4761 18.7848 35.5332C18.8419 35.5561 18.8876 35.5789 18.9333 35.6132C18.979 35.636 19.0132 35.6589 19.0475 35.6817C19.1731 35.7503 19.2302 35.8074 19.2302 35.8074C19.2416 35.8188 19.2416 35.8302 19.2531 35.8416C19.4015 36.013 20.4635 37.2922 20.8632 38.1717C21.1373 38.7657 21.3771 39.4053 21.3771 39.9193C21.3771 40.262 21.2743 40.5475 20.9889 40.7417C20.7148 40.9359 20.4521 40.993 20.2009 40.9245ZM19.9154 14.391C19.9725 14.8251 20.1095 15.933 20.1552 17.6806C20.1781 18.2174 20.1781 18.7885 20.1781 19.3596C20.1781 19.9307 20.1781 20.5133 20.1552 21.1072C20.1324 21.7697 20.0981 22.4664 20.0639 23.186C19.7098 23.4716 17.837 25.0935 17.7571 28.246C17.6657 31.1472 18.0426 33.5572 18.7506 34.6994C18.9561 35.0193 19.0589 35.2477 19.1274 35.3962C18.8419 35.2249 18.3395 34.9964 17.5173 34.8137C17.4259 34.7908 17.3345 34.768 17.2318 34.7565C17.1404 34.7337 17.0376 34.7109 16.9234 34.6994C16.7179 34.6652 16.4781 34.6309 16.2268 34.6081C15.85 34.5624 15.4275 34.5281 14.9707 34.5167C14.5253 34.4938 14.1256 34.4938 13.783 34.4938C13.6346 34.4938 13.4861 34.4938 13.3491 34.5053C13.212 34.5053 13.075 34.5053 12.9608 34.5167C12.8809 34.5167 12.8009 34.5167 12.7324 34.5281C12.6296 34.5281 12.5383 34.5395 12.4469 34.551C12.3555 34.551 12.2756 34.551 12.1957 34.5852C11.7731 34.6423 11.4648 34.7337 11.225 34.8479C11.1336 34.8936 11.0651 34.9393 10.9966 34.985C10.9281 35.0307 10.871 35.0764 10.8139 35.1221C10.7339 35.202 10.6654 35.2705 10.5855 35.3505C10.5627 34.0941 10.6198 29.9022 12.0815 25.4019C13.7259 20.3762 18.0197 15.5104 19.9154 14.391Z" fill="#43434C"/>
<path d="M47.1426 31.9711C47.0055 33.5473 46.1377 35.0094 44.813 35.8889C43.7053 36.6313 42.4605 36.8369 41.33 36.46C41.2386 36.4371 39.2287 35.7061 39.1259 32.3252C39.1259 32.211 39.1374 32.0625 39.1488 31.8797C39.1716 31.3086 39.2173 30.3378 39.0574 28.6587C38.7034 25.0722 37.1389 23.5987 36.5794 23.1761C36.2824 18.1619 36.625 15.1579 36.7278 14.3926C38.5778 15.4548 42.963 20.0008 45.1213 25.2778C46.6744 29.0699 47.2225 30.886 47.1426 31.9711Z" fill="#43434C"/>
<path d="M45.3822 25.1748C43.1211 19.6579 38.4504 14.9292 36.6918 14.0383C36.6918 14.0383 36.6118 14.0269 36.5776 14.0383C36.5319 14.0611 36.4976 14.0954 36.4862 14.1411C36.4862 14.1753 35.9495 17.3278 36.3149 23.2673C36.3149 23.3016 36.3263 23.3358 36.3492 23.3587C36.3606 23.3587 36.3834 23.3815 36.3949 23.3815C36.8631 23.7242 38.4276 25.1062 38.7816 28.6928C38.9415 30.349 38.8958 31.297 38.8729 31.8681C38.8615 32.0623 38.8501 32.2108 38.8501 32.3364C38.9643 35.9343 41.1455 36.6996 41.2482 36.7339C41.6479 36.8595 42.059 36.9281 42.4702 36.9281C43.3266 36.9281 44.1831 36.6539 44.9825 36.1285C46.3757 35.2033 47.2893 33.6499 47.4377 31.9937C47.5177 30.8515 46.9581 29.0126 45.3936 25.1748H45.3822ZM44.8112 35.8887C43.7035 36.6311 42.4587 36.8367 41.3282 36.4598C41.2368 36.4369 39.227 35.7059 39.1242 32.325C39.1242 32.2108 39.1356 32.0623 39.147 31.8795C39.1699 31.3084 39.2155 30.3375 39.0557 28.6585C38.7016 25.072 37.1371 23.5985 36.5776 23.1759C36.2807 18.1616 36.6233 15.1576 36.726 14.3924C38.576 15.4546 42.9612 20.0006 45.1195 25.2776C46.6726 29.0697 47.2208 30.8858 47.1408 31.9709C47.0038 33.5471 46.1359 35.0092 44.8112 35.8887Z" fill="#43434C"/>
<path d="M23.4801 12.543L23.4344 13.8793L23.3773 15.3071C22.8747 15.2957 22.5092 15.2386 22.3835 15.1586C22.2579 15.0672 22.2236 14.3933 22.2693 13.8222C22.2693 13.3082 22.3036 13.0227 22.3607 12.8514C22.3835 12.7828 22.4292 12.7143 22.4863 12.6686C22.4863 12.6686 22.5777 12.6115 22.6234 12.6001C22.829 12.543 23.2174 12.543 23.4801 12.543Z" fill="#43434C"/>
<path d="M34.2489 15.1586C34.1346 15.2386 33.7463 15.2957 33.2551 15.3071L33.1523 12.543C33.4265 12.543 33.8034 12.543 34.009 12.6001C34.0547 12.6115 34.1004 12.6229 34.1461 12.6572C34.1461 12.6572 34.1499 12.661 34.1575 12.6686C34.1575 12.6686 34.2603 12.7828 34.2717 12.8514C34.3288 13.0227 34.3517 13.3082 34.3631 13.8337C34.4088 14.3933 34.3745 15.0672 34.2489 15.1586Z" fill="#43434C"/>
<path d="M32.9711 15.4428C32.9711 16.3337 32.9369 16.9961 32.8798 17.4416C32.6628 18.8922 32.4915 19.3605 31.3952 19.3834C30.1619 19.3948 26.4733 19.3948 25.24 19.3834C24.1437 19.3605 23.9838 18.8922 23.7554 17.4416C23.6983 17.0076 23.6641 16.3108 23.6641 15.4542L23.7783 12.4045C23.8125 11.9133 23.8468 11.445 23.881 11.0567C23.8925 10.9767 23.9039 10.8968 23.9039 10.8168C24.0752 9.30911 24.6918 9.22916 25.1029 9.17205L25.1829 9.1492C25.4341 9.11494 26.6674 9.10352 27.6381 9.10352H28.369C29.294 9.10352 31.1326 9.10352 31.4523 9.1492L31.5322 9.17205C31.9434 9.22916 32.56 9.30911 32.7313 10.8511C32.777 11.2965 32.8227 11.8334 32.8569 12.4045L32.9711 15.4428Z" fill="#43434C"/>
<path d="M34.6482 13.8222C34.6368 13.2625 34.6026 12.9656 34.5455 12.7714C34.5112 12.6343 34.4313 12.5201 34.3171 12.4402C34.3171 12.4402 34.3133 12.4402 34.3057 12.4402C34.2371 12.383 34.1572 12.3488 34.0773 12.3259C33.8146 12.2688 33.3578 12.2688 33.1294 12.2688C33.0952 11.732 33.0609 11.2408 33.0152 10.8068C32.8211 9.07065 32.0103 8.95643 31.5763 8.89932H31.4964C31.0625 8.81937 28.4702 8.83079 28.3674 8.83079C28.2532 8.83079 25.5696 8.81937 25.1356 8.8879H25.0671C24.6217 8.95643 23.8109 9.07065 23.6168 10.8068C23.6168 10.8753 23.6054 10.9553 23.594 11.0352C23.5597 11.4008 23.5369 11.8119 23.5026 12.2688C23.2742 12.2688 22.8174 12.2688 22.5548 12.3259C22.4748 12.3488 22.3949 12.383 22.315 12.4402C22.2008 12.5315 22.1208 12.6458 22.0866 12.7828C22.0295 12.977 21.9952 13.2854 21.9838 13.8222C21.9724 13.925 21.9609 14.1078 21.9609 14.3134C21.9609 14.736 22.0066 15.25 22.2236 15.3985C22.4291 15.5584 22.9316 15.5926 23.377 15.6041C23.377 16.4379 23.4112 17.0547 23.4798 17.4887C23.6853 18.8708 23.868 19.6589 25.2384 19.6817C25.8551 19.6817 27.0884 19.6932 28.3217 19.6932C29.555 19.6932 30.777 19.6817 31.3936 19.6817C32.0788 19.6703 32.4671 19.4647 32.7069 19.0992C32.9467 18.7223 33.0495 18.1854 33.1523 17.4887C33.2208 17.0547 33.255 16.4379 33.255 15.6041C33.689 15.6041 34.1915 15.5584 34.4084 15.3985C34.7282 15.17 34.6711 14.1306 34.6482 13.8336V13.8222ZM33.255 15.3071L33.1523 12.543C33.4263 12.543 33.8032 12.543 34.0087 12.6001C34.0544 12.6115 34.1001 12.6229 34.1458 12.6572C34.1458 12.6572 34.1496 12.661 34.1572 12.6686C34.1572 12.6686 34.26 12.7828 34.2714 12.8514C34.3285 13.0227 34.3513 13.3082 34.3628 13.8336C34.4084 14.3933 34.3742 15.0672 34.2486 15.1586C34.1344 15.2386 33.7461 15.2957 33.255 15.3071ZM31.3936 19.3848C30.1603 19.3962 26.4717 19.3962 25.2384 19.3848C24.1421 19.3619 23.9822 18.8936 23.7538 17.443C23.6967 17.009 23.6625 16.3122 23.6625 15.4556L23.7767 12.4059C23.8109 11.9147 23.8452 11.4464 23.8795 11.0581C23.8909 10.9781 23.9023 10.8982 23.9023 10.8182C24.0736 9.31052 24.6902 9.23056 25.1014 9.17345L25.1813 9.15061C25.4325 9.11634 26.6659 9.10492 27.6365 9.10492H28.3674C29.2924 9.10492 31.131 9.10492 31.4507 9.15061L31.5307 9.17345C31.9418 9.23056 32.5584 9.31052 32.7297 10.8525C32.7754 11.298 32.8211 11.8348 32.8553 12.4059L32.9695 15.4442C32.9695 16.3351 32.9353 16.9976 32.8782 17.443C32.6612 18.8936 32.4899 19.3619 31.3936 19.3848ZM22.2693 13.8222C22.2693 13.3082 22.3035 13.0227 22.3606 12.8514C22.3835 12.7828 22.4291 12.7143 22.4862 12.6686C22.4862 12.6686 22.5776 12.6115 22.6233 12.6001C22.8288 12.543 23.2171 12.543 23.4798 12.543L23.4341 13.8793L23.377 15.3071C22.8745 15.2957 22.5091 15.2386 22.3835 15.1586C22.2579 15.0672 22.2236 14.3933 22.2693 13.8222Z" fill="#43434C"/>
<path d="M46.2476 29.2095C45.4709 28.8554 44.4772 28.7755 43.4263 28.6727C42.6839 28.6156 41.93 28.5813 41.2219 28.5813H41.0848C40.982 28.3529 40.9706 28.1016 41.062 27.8275C41.199 27.4163 41.4732 27.1193 41.8272 27.0051C42.2384 26.868 42.741 27.0051 43.2893 27.382C43.5862 27.5876 43.9403 27.7589 44.3172 27.9417C44.9683 28.2501 45.6993 28.6042 46.2476 29.2095Z" fill="#43434C"/>
<path d="M46.8991 29.643C46.3167 28.5807 45.3118 28.101 44.4325 27.6784C44.067 27.5071 43.7244 27.3357 43.4504 27.153C42.6738 26.6047 42.08 26.6276 41.7374 26.7418C41.3035 26.8788 40.9609 27.2443 40.7896 27.7355C40.664 28.1124 40.6982 28.4779 40.8809 28.7977C40.9038 28.8434 40.9495 28.8663 40.9951 28.8663H41.0065C41.7488 28.8549 42.5825 28.8891 43.4047 28.9577C44.5809 29.0605 45.6886 29.1632 46.4423 29.6316C46.5223 29.6887 46.6022 29.7572 46.6821 29.8257C46.7164 29.8486 46.7392 29.86 46.7735 29.86C46.8078 29.86 46.842 29.86 46.8649 29.8257C46.922 29.78 46.9334 29.7115 46.8991 29.643ZM43.4275 28.6721C42.6852 28.615 41.9315 28.5807 41.2235 28.5807H41.0865C40.9837 28.3523 40.9723 28.101 41.0636 27.8269C41.2007 27.4157 41.4748 27.1187 41.8288 27.0045C42.2399 26.8674 42.7423 27.0045 43.2905 27.3814C43.5874 27.587 43.9414 27.7583 44.3183 27.9411C44.9692 28.2495 45.7001 28.6036 46.2482 29.2089C45.4717 28.8549 44.4781 28.7749 43.4275 28.6721Z" fill="#43434C"/>
<path d="M47.697 32.6938C47.6399 35.6178 46.635 36.977 44.3282 37.2398C43.8714 37.2854 42.2384 37.3197 41.5532 37.3083H41.3134C40.1486 37.2969 39.4863 37.2512 39.3264 36.3031C39.2579 35.9148 39.3035 35.6292 39.452 35.4351C39.6918 35.1381 40.1829 35.1038 40.6282 35.0696C42.6495 34.9097 42.8094 34.7383 42.798 34.5327C42.7751 34.2929 42.5353 34.2129 41.8844 34.2129C41.5875 34.2129 41.1878 34.2358 40.6967 34.2586C39.8974 34.2929 39.4177 34.2015 39.1665 33.9388C38.9609 33.7446 38.8696 33.4362 38.8924 32.9908C38.9153 32.1227 39.5319 32.0541 40.5369 32.0427H40.7995C41.9415 32.0085 42.5467 31.8828 42.6038 31.6658C42.6038 31.6087 42.6038 31.4945 42.444 31.4031C42.0785 31.2203 41.2791 31.129 39.8631 31.1175C38.9267 31.1061 38.8582 30.7292 38.8353 30.021C38.8125 29.6669 38.8924 29.0616 39.589 28.9588C39.9545 28.9017 40.4455 28.8788 41.0051 28.8674C41.7588 28.856 42.581 28.8902 43.4032 28.9588C44.5794 29.0616 45.6872 29.1644 46.4409 29.6327C46.5208 29.6898 46.6007 29.7583 46.6807 29.8269C47.0804 30.1695 47.7427 30.9919 47.697 32.6938Z" fill="#43434C"/>
<path d="M46.8756 29.6083C46.7842 29.5283 46.6929 29.4598 46.5901 29.3913C45.7907 28.8887 44.6373 28.7859 43.4268 28.6717C42.6046 28.6031 41.7595 28.5689 40.9944 28.5803C40.4234 28.5917 39.921 28.6146 39.5441 28.6717C38.8818 28.763 38.5049 29.277 38.5506 30.0309C38.5734 30.6705 38.6077 31.3901 39.8639 31.4015C40.3092 31.4015 41.5882 31.413 42.1935 31.6186C41.9308 31.6757 41.4055 31.7328 40.7889 31.7442H40.5376C39.6469 31.767 38.642 31.767 38.6077 32.9778C38.5849 33.5032 38.6991 33.8915 38.9617 34.1428C39.2929 34.4626 39.8182 34.5769 40.7089 34.5426C41.3142 34.5083 42.2163 34.4626 42.4561 34.5198C42.3077 34.5769 41.8737 34.6797 40.5947 34.7825C40.1265 34.8167 39.5441 34.8624 39.2244 35.2622C39.0302 35.5249 38.9617 35.879 39.0416 36.3473C39.2472 37.5694 40.2521 37.5809 41.3142 37.5923H41.8052C42.5475 37.5923 43.9293 37.5694 44.3632 37.5237C47.4922 37.1582 47.949 34.7596 47.9833 32.7036C48.029 30.8761 47.3095 29.9852 46.8756 29.6083ZM41.554 37.3067H41.3142C40.1494 37.2953 39.487 37.2496 39.3271 36.3016C39.2586 35.9132 39.3043 35.6277 39.4528 35.4335C39.6926 35.1365 40.1836 35.1023 40.629 35.068C42.6503 34.9081 42.8102 34.7368 42.7987 34.5312C42.7759 34.2913 42.5361 34.2114 41.8852 34.2114C41.5882 34.2114 41.1886 34.2342 40.6975 34.257C39.8981 34.2913 39.4185 34.1999 39.1673 33.9372C38.9617 33.7431 38.8704 33.4347 38.8932 32.9892C38.916 32.1211 39.5327 32.0526 40.5376 32.0412H40.8003C41.9423 32.0069 42.5475 31.8813 42.6046 31.6642C42.6046 31.6071 42.6046 31.4929 42.4447 31.4015C42.0793 31.2188 41.2799 31.1274 39.8639 31.116C38.9275 31.1046 38.8589 30.7276 38.8361 30.0195C38.8133 29.6654 38.8932 29.06 39.5898 28.9572C39.9552 28.9001 40.4463 28.8773 41.0058 28.8658C41.7595 28.8544 42.5818 28.8887 43.404 28.9572C44.5802 29.06 45.6879 29.1628 46.4416 29.6311C46.5216 29.6882 46.6015 29.7568 46.6814 29.8253C47.0811 30.168 47.7435 30.9903 47.6978 32.6922C47.6407 35.6163 46.6358 36.9755 44.329 37.2382C43.8722 37.2839 42.2392 37.3182 41.554 37.3067Z" fill="#43434C"/>
<path d="M34.5314 12.7575C34.5314 12.7575 34.4743 12.7575 34.4515 12.7347L34.3715 12.6775C34.3715 12.6775 34.3487 12.6547 34.3372 12.6433C34.303 12.5976 34.2801 12.5747 34.2459 12.5519C34.2459 12.5519 34.2344 12.5405 34.223 12.5291C34.1888 12.4948 34.1316 12.4719 34.0631 12.4491C34.0403 12.4491 34.0174 12.4263 34.006 12.4148C33.9489 12.3577 33.9375 12.2663 33.9946 12.2092C34.0403 12.1521 34.1202 12.1407 34.1773 12.1864C34.2459 12.2092 34.3258 12.2435 34.4058 12.312C34.4058 12.312 34.4058 12.312 34.4172 12.3235C34.4629 12.3577 34.5086 12.4034 34.5543 12.4491L34.6228 12.4948C34.6913 12.5405 34.7027 12.6319 34.6571 12.689C34.6342 12.7232 34.5885 12.7461 34.5428 12.7461L34.5314 12.7575Z" fill="#5F5F66"/>
<path d="M33.2841 11.5469C33.2841 11.5469 33.1927 11.5241 33.1699 11.4784C33.0671 11.3185 32.9757 11.17 32.9072 11.0329C32.9072 11.0215 32.8958 10.9987 32.8958 10.9872C32.8958 10.953 32.8958 10.9187 32.8958 10.8844C32.8958 10.8045 32.9529 10.736 33.0328 10.736C33.1242 10.736 33.1813 10.7931 33.1813 10.8616V10.9301C33.2498 11.0558 33.3297 11.1814 33.4211 11.3299C33.4668 11.3984 33.4439 11.4898 33.3754 11.5241C33.3526 11.5355 33.3297 11.5469 33.2955 11.5469H33.2841ZM23.3603 11.5469C23.3603 11.5469 23.3032 11.5469 23.2804 11.5241C23.2119 11.4784 23.189 11.3984 23.2347 11.3299C23.3146 11.2043 23.3946 11.0672 23.4517 10.953C23.4517 10.9187 23.4517 10.8844 23.4631 10.8616C23.4631 10.7816 23.543 10.7245 23.623 10.736C23.7029 10.736 23.76 10.8159 23.7486 10.8959C23.7486 10.9415 23.7486 10.9872 23.7258 11.0329C23.7258 11.0443 23.7258 11.0672 23.7143 11.0786C23.6458 11.2043 23.5659 11.3413 23.4745 11.4898C23.4517 11.5355 23.406 11.5583 23.3489 11.5583L23.3603 11.5469ZM32.7473 9.86788C32.7473 9.86788 32.6445 9.83361 32.6217 9.78792C32.5418 9.60517 32.439 9.45668 32.3134 9.34246C32.2563 9.28535 32.2563 9.19398 32.3134 9.13687C32.3705 9.07976 32.4618 9.07976 32.5189 9.13687C32.6674 9.27393 32.793 9.45668 32.8844 9.6737C32.9186 9.74223 32.8844 9.83361 32.8158 9.86788C32.793 9.86788 32.7702 9.8793 32.7587 9.8793L32.7473 9.86788ZM23.8856 9.86788C23.8856 9.86788 23.8399 9.86788 23.8285 9.85645C23.76 9.82219 23.7257 9.74223 23.76 9.66228C23.8628 9.44526 23.9884 9.27393 24.1254 9.13687C24.1825 9.07976 24.2739 9.07976 24.331 9.13687C24.3881 9.19398 24.3767 9.28535 24.331 9.34246C24.2168 9.45668 24.114 9.60517 24.0227 9.78792C23.9998 9.84503 23.9427 9.86788 23.897 9.86788H23.8856ZM25.3359 9.01122C25.256 9.01122 25.1989 8.95411 25.1989 8.87416C25.1989 8.7942 25.256 8.72567 25.3359 8.72567C25.4844 8.72567 25.7014 8.70283 25.9412 8.70283C26.0211 8.70283 26.0782 8.75994 26.0782 8.83989C26.0782 8.91985 26.0211 8.98838 25.9412 8.98838C25.7014 8.98838 25.4958 8.9998 25.3474 9.01122H25.3359ZM31.3084 9.01122C31.16 9.01122 30.9544 8.9998 30.7146 8.98838C30.6347 8.98838 30.5776 8.91985 30.5776 8.83989C30.5776 8.75994 30.6461 8.70283 30.7146 8.70283C30.9544 8.70283 31.16 8.71425 31.3199 8.72567C31.3998 8.72567 31.4569 8.7942 31.4569 8.87416C31.4569 8.95411 31.3884 9.01122 31.3199 9.01122H31.3084ZM27.1288 8.97696C27.0489 8.97696 26.9918 8.90842 26.9918 8.83989C26.9918 8.77136 27.0489 8.69141 27.1288 8.69141C27.3458 8.69141 27.5514 8.69141 27.7227 8.69141C27.8026 8.69141 27.8597 8.75994 27.8597 8.82847C27.8597 8.897 27.7912 8.96554 27.7227 8.96554C27.5399 8.96554 27.3458 8.96554 27.1288 8.96554V8.97696ZM29.5155 8.97696H28.9217C28.8418 8.97696 28.7847 8.90842 28.7847 8.82847C28.7847 8.74852 28.8532 8.69141 28.9217 8.69141H29.5155C29.5955 8.69141 29.6526 8.75994 29.6526 8.83989C29.6526 8.91985 29.5841 8.97696 29.5155 8.97696Z" fill="#5F5F66"/>
<path d="M22.1265 12.7566C22.1265 12.7566 22.0352 12.7338 22.0123 12.6995C21.9666 12.631 21.9666 12.5624 22.0352 12.5167L22.0694 12.4939C22.1037 12.4482 22.1494 12.3911 22.2065 12.3454C22.2065 12.334 22.2293 12.3226 22.2408 12.3111C22.3321 12.2426 22.4235 12.2083 22.4806 12.1855C22.5377 12.1512 22.6291 12.1512 22.6748 12.2083C22.7205 12.2654 22.7319 12.3454 22.6748 12.4025L22.6405 12.4368C22.6405 12.4368 22.6177 12.4596 22.5948 12.4596C22.5377 12.4825 22.492 12.5053 22.4463 12.5282C22.4463 12.5396 22.4235 12.551 22.4121 12.5624C22.3664 12.5967 22.3321 12.631 22.2979 12.6766C22.2979 12.6881 22.275 12.6995 22.2636 12.7109L22.2293 12.7338C22.2065 12.7566 22.1722 12.7566 22.138 12.7566H22.1265Z" fill="#5F5F66"/>
<path d="M11.7946 43.8484C11.7946 43.8484 11.6918 43.8141 11.669 43.7684C11.5891 43.6085 11.532 43.4143 11.4977 43.1973C11.4863 43.1174 11.5434 43.0488 11.6119 43.0374C11.6918 43.026 11.7604 43.0831 11.7718 43.1516C11.806 43.3458 11.8517 43.5171 11.9202 43.6542C11.9545 43.7227 11.9202 43.8141 11.8517 43.8484C11.8289 43.8484 11.806 43.8598 11.7946 43.8598V43.8484ZM11.4977 42.1922C11.4292 42.1922 11.3721 42.1465 11.3607 42.078L11.2693 41.5183C11.2693 41.4383 11.315 41.3698 11.3949 41.3584C11.4749 41.3584 11.5434 41.4041 11.5548 41.4726L11.6347 42.0323C11.6462 42.1122 11.5891 42.1808 11.5205 42.1922C11.5205 42.1922 11.5091 42.1922 11.4977 42.1922ZM11.2465 40.5246C11.1779 40.5246 11.1208 40.4789 11.1094 40.4103V40.3532C11.0752 40.1819 11.0409 40.022 11.0181 39.8507C11.0067 39.7707 11.0523 39.7022 11.1323 39.6908C11.2008 39.6793 11.2807 39.725 11.2921 39.805C11.315 39.9763 11.3492 40.1362 11.3721 40.3076V40.3647C11.3949 40.4446 11.3378 40.5131 11.2579 40.5246C11.2579 40.5246 11.2465 40.5246 11.235 40.5246H11.2465ZM10.9496 38.857C10.881 38.857 10.8239 38.8113 10.8125 38.7427C10.7668 38.5257 10.7212 38.3544 10.6869 38.2287C10.6641 38.1602 10.6983 38.0688 10.7783 38.046C10.8582 38.0231 10.9267 38.046 10.961 38.1259C10.961 38.1259 10.961 38.1602 10.9724 38.1602C11.0067 38.2744 11.0523 38.4572 11.098 38.6856C11.1094 38.7656 11.0638 38.8341 10.9838 38.857C10.9838 38.857 10.961 38.857 10.9496 38.857ZM10.4357 37.2464C10.3786 37.2464 10.3215 37.2122 10.2986 37.1436C10.2301 36.938 10.1844 36.7553 10.1502 36.584C10.1388 36.504 10.1844 36.4355 10.2644 36.4126C10.3443 36.3898 10.4128 36.4469 10.4357 36.5269C10.4699 36.6868 10.5156 36.8581 10.5727 37.0523C10.5955 37.1322 10.5613 37.2122 10.4813 37.235C10.4699 37.235 10.4471 37.235 10.4357 37.235V37.2464ZM10.31 35.5902C10.2301 35.5902 10.173 35.5331 10.173 35.4532C10.173 35.3275 10.173 35.1791 10.173 34.9849V34.8821C10.173 34.8021 10.2415 34.745 10.31 34.745C10.3786 34.745 10.4471 34.8135 10.4471 34.8821V34.9849C10.4471 35.1676 10.4471 35.3275 10.4471 35.4418C10.4471 35.5217 10.39 35.5902 10.31 35.5902ZM10.3329 33.8998C10.253 33.8998 10.1959 33.8312 10.1959 33.7513C10.1959 33.5685 10.2073 33.3858 10.2301 33.1802C10.2301 33.1002 10.31 33.0431 10.3786 33.0431C10.4585 33.0431 10.5156 33.1117 10.5156 33.1916C10.5042 33.3858 10.4928 33.5685 10.4813 33.7513C10.4813 33.8312 10.4128 33.8884 10.3443 33.8884L10.3329 33.8998ZM10.4471 32.2093C10.4471 32.2093 10.4471 32.2093 10.4357 32.2093C10.3557 32.2093 10.2986 32.1294 10.31 32.0494C10.3215 31.8667 10.3443 31.6839 10.3671 31.4897C10.3671 31.4098 10.4471 31.3527 10.527 31.3641C10.607 31.3641 10.6641 31.444 10.6526 31.524C10.6298 31.7182 10.607 31.9009 10.5955 32.0837C10.5955 32.1522 10.527 32.2093 10.4585 32.2093H10.4471ZM10.6412 30.5303C10.6412 30.5303 10.6298 30.5303 10.6184 30.5303C10.5384 30.5303 10.4813 30.4503 10.4928 30.3704C10.5156 30.1876 10.5499 30.0049 10.5841 29.8107C10.5955 29.7307 10.6755 29.685 10.744 29.6965C10.8239 29.7079 10.881 29.7878 10.8582 29.8564C10.8239 30.0391 10.8011 30.2333 10.7783 30.4046C10.7783 30.4732 10.7097 30.5303 10.6412 30.5303ZM10.9267 28.8627H10.9039C10.8239 28.8512 10.7783 28.7713 10.7897 28.6913C10.8239 28.5086 10.8582 28.3258 10.9039 28.1316C10.9153 28.0517 10.9952 28.006 11.0752 28.0174C11.1551 28.0289 11.2008 28.1088 11.1894 28.1888C11.1437 28.3715 11.1094 28.5543 11.0752 28.737C11.0638 28.8056 11.0067 28.8512 10.9381 28.8512L10.9267 28.8627ZM11.2921 27.2179C11.2921 27.2179 11.2693 27.2179 11.2579 27.2179C11.1779 27.195 11.1323 27.1265 11.1551 27.0466C11.2008 26.8638 11.2465 26.6811 11.3036 26.4983C11.3264 26.4183 11.4063 26.3727 11.4749 26.3955C11.5548 26.4183 11.6005 26.4983 11.5776 26.5668C11.532 26.7496 11.4863 26.9323 11.4406 27.1037C11.4292 27.1722 11.3607 27.2065 11.3036 27.2065L11.2921 27.2179ZM11.7604 25.596C11.7604 25.596 11.7261 25.596 11.7147 25.596C11.6347 25.5731 11.6005 25.4932 11.6233 25.4132L11.669 25.2533C11.7147 25.1277 11.7489 25.002 11.7946 24.8764C11.8175 24.8078 11.8974 24.7621 11.9773 24.785C12.0573 24.8078 12.0915 24.8878 12.0687 24.9677C12.023 25.0934 11.9773 25.219 11.9431 25.3447L11.8974 25.5046C11.8746 25.5617 11.8175 25.6074 11.7604 25.6074V25.596ZM12.3428 24.0083C12.3428 24.0083 12.3085 24.0083 12.2857 24.0083C12.2171 23.974 12.1829 23.8941 12.2057 23.8255C12.2857 23.6542 12.3542 23.4829 12.4341 23.3001C12.4684 23.2316 12.5483 23.1973 12.6283 23.2316C12.6968 23.2659 12.731 23.3458 12.6968 23.4258C12.6168 23.5971 12.5483 23.7684 12.4684 23.9398C12.4455 23.9969 12.3884 24.0311 12.3313 24.0311L12.3428 24.0083ZM13.0508 22.4777C13.0508 22.4777 13.0051 22.4777 12.9823 22.4663C12.9137 22.432 12.8795 22.3407 12.9252 22.2721C13.0165 22.1008 13.0965 21.9409 13.1878 21.7696C13.2221 21.701 13.3134 21.6782 13.382 21.7125C13.4505 21.7467 13.4733 21.8381 13.4391 21.9066C13.3477 22.0665 13.2678 22.2379 13.1764 22.3978C13.1536 22.4435 13.0965 22.4777 13.0508 22.4777ZM13.873 21.0043C13.873 21.0043 13.8273 21.0043 13.8045 20.9815C13.736 20.9358 13.7131 20.8558 13.7588 20.7873C13.8616 20.6274 13.9529 20.4675 14.0557 20.3075C14.1014 20.239 14.1813 20.2162 14.2499 20.2619C14.3184 20.3075 14.3412 20.3875 14.2955 20.456C14.1928 20.6159 14.1014 20.7759 13.9986 20.9358C13.9758 20.9814 13.9187 21.0043 13.873 21.0043ZM14.7866 19.588C14.7866 19.588 14.7295 19.588 14.7066 19.5651C14.6381 19.5194 14.6267 19.4281 14.6724 19.3709C14.7752 19.211 14.8894 19.0625 14.9921 18.9026C15.0378 18.8341 15.1292 18.8227 15.1863 18.8684C15.2548 18.9141 15.2662 19.0054 15.2205 19.0625C15.1177 19.211 15.0036 19.3709 14.9008 19.5194C14.8779 19.5651 14.8323 19.5765 14.7866 19.5765V19.588ZM15.7801 18.2287C15.7801 18.2287 15.723 18.2287 15.6887 18.1945C15.6316 18.1488 15.6202 18.0574 15.6659 17.9889C15.7801 17.8404 15.9057 17.6919 16.0199 17.5434C16.0656 17.4863 16.1569 17.4749 16.2255 17.5206C16.2826 17.5663 16.294 17.6576 16.2483 17.7262C16.1341 17.8747 16.0199 18.0117 15.9057 18.1602C15.8829 18.1945 15.8372 18.2173 15.7915 18.2173L15.7801 18.2287ZM16.8535 16.9266C16.8535 16.9266 16.785 16.9152 16.7622 16.8924C16.7051 16.8352 16.6937 16.7553 16.7508 16.6868C16.8764 16.5383 17.002 16.4012 17.1276 16.2641C17.1847 16.207 17.2761 16.207 17.3332 16.2641C17.3903 16.3213 17.3903 16.4126 17.3332 16.4697C17.2076 16.6068 17.0819 16.7439 16.9563 16.8809C16.9335 16.9152 16.8878 16.9266 16.8535 16.9266ZM18.0184 15.7045C18.0184 15.7045 17.9498 15.693 17.9156 15.6588C17.8585 15.6017 17.8585 15.5103 17.9156 15.4532C18.0526 15.3161 18.1897 15.1905 18.3267 15.0648C18.3838 15.0077 18.4751 15.0191 18.5322 15.0648C18.5893 15.1219 18.5779 15.2133 18.5322 15.2704C18.3952 15.3846 18.2582 15.5217 18.1326 15.6474C18.1097 15.6702 18.064 15.693 18.0298 15.693L18.0184 15.7045ZM19.2974 14.5965C19.2974 14.5965 19.206 14.5737 19.1832 14.5394C19.1375 14.4709 19.1489 14.3909 19.2174 14.3452C19.3887 14.2196 19.5486 14.1168 19.6971 14.0254C19.7656 13.9797 19.8569 14.0026 19.8912 14.0711C19.9255 14.1396 19.914 14.231 19.8455 14.2653C19.7085 14.3452 19.5486 14.448 19.3887 14.5737C19.3659 14.5965 19.3316 14.5965 19.3088 14.5965H19.2974ZM20.702 13.6713C20.702 13.6713 20.6106 13.6485 20.5764 13.6028C20.5307 13.5343 20.5535 13.4429 20.6221 13.4086L21.1017 13.1117C21.1702 13.066 21.2616 13.0888 21.2958 13.1573C21.3415 13.2259 21.3187 13.3173 21.2501 13.3515L20.7705 13.6485C20.7705 13.6485 20.7248 13.6713 20.6906 13.6713H20.702Z" fill="#5F5F66"/>
<path d="M12.9704 44.4876C12.8447 44.4876 12.7419 44.4876 12.6505 44.4647C12.5706 44.4647 12.5135 44.3848 12.5249 44.3048C12.5363 44.2249 12.6048 44.1678 12.6848 44.1792C12.8561 44.202 13.0617 44.202 13.2102 44.1792C13.3016 44.1792 13.3587 44.2249 13.3701 44.2934C13.3701 44.3734 13.3244 44.4419 13.2445 44.4533C13.1531 44.4647 13.0503 44.4762 12.9475 44.4762L12.9704 44.4876Z" fill="#5F5F66"/>
<path d="M14.1698 43.6204C14.1698 43.6204 14.1469 43.6204 14.1355 43.6204C14.0555 43.609 14.0098 43.5291 14.0213 43.4491C14.0441 43.3463 14.0555 43.2321 14.0555 43.1179C14.0555 43.0037 14.0555 42.9009 14.0327 42.8323C14.0327 42.7524 14.0784 42.6838 14.1583 42.6724C14.2269 42.6496 14.3068 42.7181 14.3182 42.7981C14.3182 42.8666 14.3411 42.9922 14.3411 43.1179C14.3411 43.2435 14.3297 43.392 14.2954 43.5062C14.284 43.5748 14.2269 43.6204 14.1583 43.6204H14.1698Z" fill="#5F5F66"/>
<path d="M14.1488 41.6219C14.0688 41.6219 14.0117 41.5534 14.0117 41.4734C14.0117 41.3592 14.0231 41.2564 14.0346 41.1764C14.0346 41.1079 14.0917 41.0508 14.1602 41.0508C14.2287 41.0508 14.2858 41.085 14.3087 41.1536C14.3315 41.2335 14.3544 41.3363 14.3658 41.4506C14.3772 41.5305 14.3201 41.599 14.2516 41.6105C14.2402 41.6105 14.2173 41.6105 14.2059 41.6105C14.1945 41.6105 14.1716 41.6105 14.1488 41.6105V41.6219Z" fill="#5F5F66"/>
<path d="M15.2214 44.4212C15.2214 44.4212 15.1872 44.4212 15.1758 44.4212C15.0273 44.3755 14.8902 44.307 14.776 44.2156C14.7303 44.1813 14.696 44.147 14.6732 44.1128C14.6161 44.0557 14.6275 43.9643 14.6846 43.9072C14.7417 43.8501 14.8331 43.8615 14.8902 43.9186C14.913 43.9414 14.9359 43.9757 14.9702 43.9986C15.0501 44.0671 15.1529 44.1128 15.2671 44.147C15.3471 44.1699 15.3813 44.2498 15.3585 44.3298C15.3357 44.3869 15.2785 44.4326 15.2214 44.4326V44.4212ZM16.2608 44.4212C16.2037 44.4212 16.1466 44.3869 16.1238 44.3298C16.1009 44.2613 16.1238 44.1699 16.2037 44.147C16.3408 44.1014 16.455 44.01 16.5464 43.8958C16.5921 43.8386 16.6949 43.8158 16.752 43.8615C16.8091 43.9072 16.8319 43.9871 16.7863 44.0557C16.6492 44.2384 16.4893 44.3526 16.3065 44.4212C16.2951 44.4212 16.2723 44.4212 16.2608 44.4212ZM14.3991 43.1876C14.3305 43.1876 14.2734 43.1419 14.262 43.062C14.2391 42.9363 14.2277 42.7992 14.2163 42.6508V42.5251C14.2049 42.4452 14.262 42.3766 14.3419 42.3766C14.4105 42.3652 14.4904 42.4337 14.4904 42.5023V42.6279C14.5133 42.765 14.5247 42.8906 14.5475 43.0163C14.559 43.0962 14.5019 43.1647 14.4333 43.1762C14.4333 43.1762 14.4219 43.1762 14.4105 43.1762L14.3991 43.1876ZM16.9233 43.1076C16.8434 43.1076 16.7863 43.0505 16.7863 42.9706C16.7863 42.765 16.7634 42.5822 16.7406 42.468C16.7406 42.388 16.7863 42.3195 16.8662 42.3081C16.9462 42.2967 17.0147 42.3538 17.0261 42.4337C17.049 42.5594 17.0718 42.7536 17.0718 42.9706C17.0718 43.0505 17.0147 43.1191 16.9347 43.1191L16.9233 43.1076Z" fill="#5F5F66"/>
<path d="M16.8089 41.5066C16.729 41.5066 16.6719 41.4381 16.6719 41.3696C16.6719 41.2668 16.6719 41.164 16.6719 41.0726C16.6719 41.0041 16.729 40.947 16.7975 40.9355C16.8546 40.9355 16.9232 40.9698 16.946 41.0269C16.9803 41.1069 17.0031 41.2097 17.026 41.3125C17.0488 41.3924 17.0031 41.461 16.9232 41.4838C16.9003 41.4838 16.8775 41.4838 16.866 41.4838C16.8432 41.4838 16.8204 41.4952 16.8089 41.4952V41.5066Z" fill="#5F5F66"/>
<path d="M18.1773 44.2705C18.1773 44.2705 18.1659 44.2705 18.1545 44.2705C17.9375 44.2362 17.7547 44.1563 17.5948 44.0192C17.5377 43.9735 17.5263 43.8821 17.5834 43.8136C17.6291 43.7565 17.7204 43.7451 17.789 43.8022C17.9032 43.905 18.0403 43.9621 18.2116 43.9964C18.2915 44.0078 18.3372 44.0877 18.3258 44.1563C18.3258 44.2248 18.2573 44.2705 18.1887 44.2705H18.1773ZM19.2281 44.1106C19.2281 44.1106 19.1368 44.0877 19.1025 44.0421C19.0568 43.9735 19.0797 43.8821 19.1482 43.8479C19.2853 43.7679 19.3881 43.6537 19.4566 43.5166C19.4909 43.4481 19.5822 43.4138 19.6508 43.4481C19.7193 43.4824 19.7536 43.5737 19.7193 43.6423C19.6279 43.8365 19.4794 43.9849 19.3081 44.0992C19.2853 44.1106 19.2624 44.122 19.2396 44.122L19.2281 44.1106ZM17.2179 43.094C17.1493 43.094 17.0922 43.0483 17.0808 42.9798C17.0351 42.797 17.0008 42.6143 16.9666 42.443C16.9552 42.363 17.0008 42.2945 17.0808 42.2716C17.1493 42.2488 17.2293 42.3059 17.2521 42.3859C17.2864 42.5572 17.3207 42.7399 17.3549 42.9113C17.3664 42.9912 17.3207 43.0598 17.2521 43.0826C17.2521 43.0826 17.2293 43.0826 17.2179 43.0826V43.094ZM19.7079 42.6486C19.6393 42.6486 19.5708 42.5914 19.5708 42.5229C19.5594 42.363 19.5365 42.1803 19.5023 41.9861C19.5023 41.9061 19.548 41.8376 19.6279 41.8262C19.7193 41.8262 19.7764 41.8719 19.7878 41.9518C19.8107 42.146 19.8335 42.3287 19.8564 42.5001C19.8564 42.58 19.8107 42.6486 19.7307 42.66C19.7307 42.66 19.7307 42.66 19.7193 42.66L19.7079 42.6486Z" fill="#5F5F66"/>
<path d="M19.4697 41.0159C19.4011 41.0159 19.344 40.9703 19.3326 40.9017L19.2869 40.6162C19.2755 40.5476 19.3212 40.4791 19.3897 40.4563C19.4468 40.4334 19.5268 40.4677 19.561 40.5362C19.5725 40.5705 19.6181 40.6504 19.6867 40.7304C19.7324 40.7875 19.7324 40.8789 19.6753 40.936C19.6524 40.9588 19.6181 40.9703 19.5839 40.9703C19.5839 40.9703 19.5382 41.0045 19.5039 41.0045C19.5039 41.0045 19.4925 41.0045 19.4811 41.0045L19.4697 41.0159Z" fill="#5F5F66"/>
<path d="M20.4147 41.3707C20.3348 41.3707 20.2662 41.3707 20.1863 41.3478C20.1063 41.3364 20.0606 41.2565 20.072 41.1765C20.0835 41.0965 20.1634 41.0509 20.2434 41.0623C20.3576 41.0851 20.4604 41.0851 20.5746 41.0623C20.6546 41.0509 20.7231 41.108 20.7345 41.1765C20.7459 41.2565 20.6888 41.325 20.6203 41.3364C20.5518 41.3364 20.4832 41.3478 20.4147 41.3478V41.3707Z" fill="#5F5F66"/>
<path d="M21.442 41.0974C21.442 41.0974 21.442 41.0974 21.4306 41.0974C21.3849 41.0974 21.3392 41.0632 21.3164 41.0289C21.2707 41.0289 21.2136 41.0289 21.1793 40.9832C21.1222 40.9261 21.1336 40.8347 21.1793 40.7776C21.2364 40.7205 21.2935 40.6634 21.3392 40.5834C21.3735 40.5263 21.442 40.5035 21.5105 40.5263C21.5676 40.5492 21.6133 40.6063 21.6019 40.6748L21.5791 40.9604C21.5791 41.0289 21.5105 41.086 21.442 41.086V41.0974Z" fill="#5F5F66"/>
<path d="M21.0466 42.329C21.0466 42.329 20.9781 42.3176 20.9552 42.2948C20.8981 42.2377 20.8867 42.1577 20.9438 42.1006C20.9438 42.0892 20.9781 42.0663 20.9895 42.0663C20.9895 42.0663 21.0123 42.0435 21.0352 42.0321C21.0694 41.9978 21.1151 41.9635 21.1265 41.9521C21.1265 41.9521 21.1265 41.9521 21.138 41.9521C21.1494 41.8836 21.1722 41.8036 21.1837 41.7351C21.1951 41.6551 21.2636 41.6095 21.355 41.6209C21.4349 41.6323 21.4806 41.7123 21.4692 41.7922C21.4464 41.895 21.4235 41.9864 21.4121 42.0663C21.4121 42.112 21.3778 42.1463 21.3321 42.1577C21.3093 42.1691 21.2979 42.192 21.275 42.2034C21.2636 42.2034 21.2408 42.2377 21.2179 42.2491C21.1722 42.2834 21.1494 42.3062 21.1265 42.3176C21.1037 42.329 21.0694 42.3405 21.0466 42.3405V42.329Z" fill="#5F5F66"/>
<path d="M20.7855 43.62C20.7055 43.62 20.6484 43.5514 20.6484 43.4829V43.0375C20.6484 42.9575 20.717 42.9004 20.7855 42.9004C20.854 42.9004 20.9226 42.9689 20.9226 43.0375V43.4829C20.9226 43.5629 20.854 43.62 20.7855 43.62Z" fill="#5F5F66"/>
<path d="M21.5048 44.7518C21.5048 44.7518 21.4819 44.7518 21.4705 44.7518C21.4705 44.7518 21.4477 44.7518 21.4362 44.7518C21.4134 44.7518 21.3905 44.7403 21.3449 44.7175H21.3106C21.2535 44.6718 21.2078 44.649 21.1735 44.6261C21.1507 44.6147 21.1278 44.6033 21.1164 44.5919C21.105 44.5919 21.0822 44.569 21.0707 44.5576C21.0365 44.5233 21.0136 44.5005 20.9908 44.4891C20.9793 44.4891 20.9337 44.4434 20.9337 44.4319C20.888 44.3634 20.8994 44.272 20.9679 44.2264C21.025 44.1807 21.105 44.1921 21.1507 44.2378C21.1735 44.2492 21.1849 44.272 21.1964 44.2835L21.2306 44.3177L21.2535 44.3406C21.2535 44.3406 21.2763 44.3406 21.2763 44.3634C21.2763 44.3634 21.2992 44.3748 21.322 44.3863C21.3334 44.3863 21.3449 44.3977 21.3563 44.4091C21.3791 44.4205 21.4134 44.4319 21.4362 44.4434L21.4819 44.4662C21.4819 44.4662 21.5162 44.4776 21.539 44.4891C21.619 44.5119 21.6647 44.5919 21.6418 44.6604C21.6304 44.7289 21.5733 44.7632 21.5048 44.7632V44.7518Z" fill="#5F5F66"/>
<path d="M26.0823 44.7978H26.0024C25.9224 44.7978 25.8653 44.7292 25.8653 44.6607C25.8653 44.5922 25.9338 44.5236 26.0024 44.5236H26.0823C26.1623 44.5236 26.3336 44.5236 26.5164 44.4551C26.5963 44.4323 26.6763 44.4665 26.6991 44.5465C26.722 44.6264 26.6877 44.7064 26.6077 44.7292C26.4021 44.7978 26.208 44.8206 26.0823 44.8206V44.7978ZM24.8716 44.7978H24.3119C24.2319 44.7978 24.1748 44.7292 24.1748 44.6493C24.1748 44.5693 24.2434 44.5122 24.3119 44.5122H24.8716C24.9515 44.5122 25.0086 44.5808 25.0086 44.6607C25.0086 44.7407 24.9401 44.7978 24.8716 44.7978ZM23.1811 44.7978H22.6214C22.5415 44.7978 22.4844 44.7292 22.4844 44.6493C22.4844 44.5693 22.5529 44.5122 22.6214 44.5122H23.1811C23.2611 44.5122 23.3182 44.5808 23.3182 44.6607C23.3182 44.7407 23.2497 44.7978 23.1811 44.7978ZM27.2359 43.9069C27.2359 43.9069 27.2245 43.9069 27.2131 43.9069C27.1331 43.8954 27.0875 43.8155 27.0989 43.7355C27.1103 43.6556 27.1217 43.5642 27.1217 43.4728C27.1217 43.4043 27.1217 43.3472 27.1217 43.2786V43.2215C27.1103 43.1416 27.1674 43.073 27.2474 43.0616C27.3387 43.0616 27.3959 43.1073 27.4073 43.1873V43.2444C27.4187 43.3243 27.4187 43.3929 27.4187 43.4728C27.4187 43.587 27.4187 43.6898 27.3959 43.7926C27.3844 43.8612 27.3273 43.9069 27.2588 43.9069H27.2359ZM27.1788 42.2164C27.0989 42.2164 27.0418 42.1593 27.0418 42.0793L27.0189 41.5196C27.0189 41.4397 27.076 41.3712 27.156 41.3712C27.2359 41.3712 27.3045 41.4283 27.3045 41.5082L27.3273 42.0679C27.3273 42.1479 27.2702 42.2164 27.1903 42.2164H27.1788ZM27.1103 40.5259C27.0303 40.5259 26.9732 40.4688 26.9732 40.3889L26.9504 39.8292C26.9504 39.7492 27.0075 39.6807 27.0875 39.6807C27.156 39.6807 27.2359 39.7378 27.2359 39.8178L27.2588 40.3774C27.2588 40.4574 27.2017 40.5259 27.1217 40.5259H27.1103ZM27.0418 38.8355C26.9618 38.8355 26.9047 38.7784 26.9047 38.6984L26.8819 38.1387C26.8819 38.0588 26.939 37.9902 27.0189 37.9902C27.0989 37.9902 27.156 38.0473 27.156 38.1273L27.1788 38.687C27.1788 38.7669 27.1217 38.8355 27.0418 38.8355Z" fill="#5F5F66"/>
<path d="M27.0082 37.1551C26.9282 37.1551 26.8711 37.098 26.8711 37.018V36.7325C26.8711 36.7325 26.8711 36.6525 26.9054 36.6297C26.9282 36.6068 26.9739 36.584 27.0082 36.584H27.2937C27.3737 36.584 27.4308 36.6525 27.4308 36.7325C27.4308 36.8124 27.3622 36.8695 27.2937 36.8695H27.1566V37.0066C27.1566 37.0866 27.0995 37.1551 27.0196 37.1551H27.0082Z" fill="#5F5F66"/>
<path d="M28.3189 36.8813H28.1019C28.022 36.8813 27.9648 36.8127 27.9648 36.7328C27.9648 36.6528 28.0334 36.5957 28.1019 36.5957H28.3189H28.5245C28.6045 36.5957 28.6616 36.6642 28.6616 36.7328C28.6616 36.8013 28.6045 36.8813 28.5245 36.8813H28.3189Z" fill="#5F5F66"/>
<path d="M29.6459 37.1551C29.5659 37.1551 29.5088 37.0866 29.5088 37.0066V36.8695H29.3832C29.3032 36.8695 29.2461 36.8124 29.2461 36.7325C29.2461 36.6525 29.3032 36.584 29.3832 36.584H29.6687C29.6687 36.584 29.7487 36.584 29.7715 36.6183C29.7944 36.6411 29.8172 36.6868 29.8172 36.7211V37.0066C29.8058 37.0866 29.7372 37.1437 29.6687 37.1437L29.6459 37.1551Z" fill="#5F5F66"/>
<path d="M31.4345 44.7975C31.3545 44.7975 31.2974 44.7289 31.2974 44.6604C31.2974 44.5919 31.366 44.5119 31.4345 44.5119H31.9826C32.0626 44.5119 32.1197 44.5805 32.1197 44.649C32.1197 44.7175 32.0511 44.7861 31.9826 44.7861H31.4345V44.7975ZM33.0675 44.7975C32.9876 44.7975 32.9305 44.7289 32.9305 44.6604C32.9305 44.5919 32.999 44.5119 33.0675 44.5119H33.6156C33.6956 44.5119 33.7527 44.569 33.7527 44.649C33.7527 44.7289 33.6842 44.7975 33.6156 44.7975H33.0675ZM34.7005 44.7975C34.6206 44.7975 34.5635 44.7289 34.5635 44.6604C34.5635 44.5919 34.632 44.5233 34.7005 44.5119H34.9403C34.9403 44.5119 34.9974 44.5119 35.0317 44.5005C35.0545 44.5005 35.0659 44.5005 35.0774 44.5005C35.1002 44.5005 35.1116 44.5005 35.123 44.4891L35.1801 44.4662C35.2487 44.4434 35.34 44.4662 35.3629 44.5462C35.3971 44.6147 35.3629 44.7061 35.2829 44.7289H35.2487C35.2487 44.7289 35.1916 44.7632 35.1687 44.7632C35.1573 44.7632 35.1116 44.7746 35.0888 44.7746H35.0431C35.0431 44.7746 34.9289 44.7975 34.9175 44.7975H34.6777H34.7005ZM30.3382 44.7975C30.3382 44.7975 30.3268 44.7975 30.3153 44.7975C30.0984 44.7632 29.9157 44.6947 29.7558 44.5919C29.6873 44.5462 29.6758 44.4548 29.7215 44.3977C29.7672 44.3292 29.8586 44.3178 29.9157 44.3634C30.0413 44.4434 30.1897 44.5005 30.361 44.5233C30.441 44.5233 30.4981 44.6033 30.4866 44.6833C30.4866 44.7518 30.4181 44.8089 30.3496 44.8089L30.3382 44.7975ZM35.8539 43.918C35.774 43.918 35.7169 43.8494 35.7169 43.7809V43.2327C35.7169 43.1527 35.7854 43.0956 35.8539 43.0956C35.9224 43.0956 35.9909 43.1641 35.9909 43.2327V43.7809C35.9909 43.8609 35.9224 43.918 35.8539 43.918ZM29.3675 43.6781C29.2876 43.6781 29.2305 43.621 29.2305 43.5411C29.2305 43.5182 29.2305 43.4954 29.2305 43.4725C29.2305 43.404 29.2305 43.324 29.2419 43.2441C29.2419 43.1755 29.2533 43.0842 29.2647 42.9699C29.2647 42.89 29.3447 42.8329 29.4132 42.8329C29.4931 42.8329 29.5502 42.9014 29.5502 42.9814C29.5502 43.0956 29.5388 43.187 29.5274 43.2555C29.5274 43.324 29.5274 43.3926 29.5274 43.4497V43.4954C29.5274 43.5753 29.4703 43.6438 29.3903 43.6438L29.3675 43.6781ZM29.4589 42.0562C29.3789 42.0562 29.3218 41.9877 29.3218 41.9077L29.3447 41.3709C29.3447 41.2909 29.4246 41.2452 29.4931 41.2338C29.5731 41.2338 29.6302 41.3023 29.6302 41.3823L29.6073 41.9305C29.6073 42.0105 29.5388 42.0676 29.4703 42.0676L29.4589 42.0562ZM29.5274 40.4228C29.4474 40.4228 29.3903 40.3543 29.3903 40.2743L29.4132 39.7375C29.4132 39.6576 29.4817 39.6004 29.5502 39.6004C29.6302 39.6004 29.6873 39.669 29.6873 39.7489L29.6644 40.2972C29.6644 40.3771 29.5959 40.4343 29.5274 40.4343V40.4228ZM29.5845 38.8009C29.5045 38.8009 29.4474 38.7324 29.4474 38.6524C29.4474 38.4811 29.4589 38.2983 29.4703 38.1156C29.4703 38.0356 29.5388 37.9785 29.6073 37.9785C29.6873 37.9785 29.7444 38.047 29.7444 38.127C29.7444 38.3098 29.7444 38.4925 29.7215 38.6753C29.7215 38.7552 29.653 38.8123 29.5845 38.8123V38.8009Z" fill="#5F5F66"/>
<path d="M35.6158 42.3638C35.6158 42.3638 35.5244 42.341 35.5015 42.3181C35.4673 42.2839 35.4216 42.2496 35.3873 42.2153C35.3416 42.1811 35.3188 42.1696 35.3074 42.1468C35.3074 42.1468 35.2503 42.0783 35.2503 42.0326C35.2274 41.9755 35.216 41.8955 35.1931 41.8041C35.1817 41.7242 35.2274 41.6557 35.3074 41.6328C35.3873 41.6328 35.4559 41.6671 35.4787 41.747C35.4901 41.8156 35.513 41.8955 35.5244 41.9641C35.5358 41.9755 35.5586 41.9869 35.5586 41.9983C35.6043 42.0212 35.6614 42.0783 35.7071 42.124C35.7071 42.124 35.7186 42.1468 35.73 42.1582C35.7871 42.2153 35.7757 42.2953 35.7186 42.3524C35.6957 42.3752 35.6614 42.3867 35.6272 42.3867L35.6158 42.3638Z" fill="#5F5F66"/>
<path d="M35.1744 40.7667C35.1059 40.7667 35.0374 40.7096 35.0374 40.6297L34.9917 40.0586C34.9917 39.9786 35.0488 39.9101 35.1288 39.9101C35.2087 39.9101 35.2658 39.9672 35.2658 40.0471L35.3115 40.6182C35.3115 40.6982 35.2544 40.7667 35.1744 40.7667ZM35.0488 39.042C34.9688 39.042 34.9117 38.9849 34.9117 38.9049L34.8775 38.3338C34.8775 38.2539 34.9346 38.1853 35.0145 38.1853C35.1059 38.1853 35.163 38.2424 35.163 38.3224L35.1973 38.8935C35.1973 38.9735 35.1402 39.042 35.0602 39.042H35.0488ZM34.9346 37.3173C34.8546 37.3173 34.7975 37.2602 34.7975 37.1802L34.7633 36.6091C34.7633 36.5291 34.8204 36.4606 34.9003 36.4606C34.9803 36.4606 35.0374 36.5177 35.0374 36.5977L35.0716 37.1688C35.0716 37.2487 35.0145 37.3173 34.9346 37.3173ZM34.8318 35.5925C34.7518 35.5925 34.6947 35.5354 34.6947 35.4555L34.6719 35.1128C34.6719 35.1128 34.6719 35.0443 34.6947 35.0214C34.7176 34.9872 34.7518 34.9415 34.7861 34.9072L34.8318 34.8387C34.8775 34.7701 34.9688 34.7587 35.026 34.8044C35.0945 34.8501 35.1059 34.9415 35.0716 34.9986L35.0145 35.09C35.0145 35.09 34.9803 35.1357 34.9688 35.1471L34.9917 35.4441C34.9917 35.524 34.9346 35.5925 34.8546 35.5925H34.8318ZM35.5171 34.062C35.5171 34.062 35.4714 34.062 35.46 34.0506C35.3915 34.0163 35.3572 33.9363 35.3915 33.8564C35.4714 33.6851 35.5514 33.5137 35.6199 33.3424C35.6427 33.2739 35.7341 33.2396 35.8027 33.2624C35.8712 33.2853 35.9169 33.3767 35.8826 33.4452C35.8141 33.6279 35.7341 33.8107 35.6542 33.982C35.6313 34.0277 35.5742 34.062 35.5285 34.062H35.5171ZM36.0882 32.4401C36.0882 32.4401 36.0654 32.4401 36.0539 32.4401C35.974 32.4172 35.9283 32.3487 35.9511 32.2687C35.9968 32.086 36.0425 31.9032 36.0768 31.709C36.0882 31.6291 36.1682 31.572 36.2481 31.5948C36.3281 31.6062 36.3738 31.6862 36.3623 31.7662C36.3281 31.9603 36.2824 32.1545 36.2367 32.3373C36.2253 32.4058 36.1567 32.4401 36.0996 32.4401H36.0882ZM36.3738 30.7382C36.3738 30.7382 36.3738 30.7382 36.3623 30.7382C36.2824 30.7382 36.2253 30.6582 36.2367 30.5783C36.2481 30.3955 36.271 30.2013 36.271 30.0072C36.271 29.9272 36.3395 29.8701 36.408 29.8701C36.488 29.8701 36.5451 29.9386 36.5451 30.0186C36.5451 30.2128 36.5222 30.4069 36.5108 30.6011C36.5108 30.6696 36.4423 30.7267 36.3738 30.7267V30.7382ZM36.408 29.0134C36.3281 29.0134 36.271 28.9563 36.271 28.8764C36.271 28.6936 36.2481 28.4994 36.2367 28.3053C36.2367 28.2253 36.2938 28.1568 36.3738 28.1568C36.4423 28.1339 36.5222 28.2139 36.5222 28.2824C36.5337 28.4766 36.5451 28.6708 36.5565 28.865C36.5565 28.9449 36.4994 29.0134 36.4194 29.0134H36.408ZM36.2595 27.2887C36.191 27.2887 36.1225 27.2316 36.1225 27.1631C36.0996 26.9575 36.0882 26.7633 36.0768 26.5805C36.0768 26.5006 36.1339 26.4321 36.2138 26.4321C36.2938 26.4321 36.3623 26.4892 36.3623 26.5691C36.3623 26.7519 36.3852 26.946 36.408 27.1402C36.408 27.2202 36.3623 27.2887 36.2824 27.3001C36.2824 27.3001 36.2824 27.3001 36.271 27.3001L36.2595 27.2887ZM36.1796 25.564C36.0996 25.564 36.0425 25.4954 36.0425 25.4269V25.3584C36.0425 25.1642 36.0425 25.0043 36.0425 24.8558C36.0425 24.7759 36.1225 24.7188 36.191 24.7188C36.271 24.7188 36.3281 24.7873 36.3281 24.8672C36.3281 25.0157 36.3281 25.1756 36.3281 25.3584C36.3281 25.3812 36.3281 25.4041 36.3281 25.4383C36.3281 25.5183 36.2595 25.5754 36.191 25.5754L36.1796 25.564Z" fill="#5F5F66"/>
<path d="M36.3489 23.8493C36.3489 23.8493 36.3032 23.8493 36.2804 23.8265C36.2119 23.7922 36.189 23.7009 36.2347 23.6323C36.269 23.5752 36.3147 23.4953 36.3718 23.381C36.3946 23.3468 36.4289 23.3239 36.4746 23.3125C36.5203 23.3125 36.5545 23.3125 36.5888 23.3353C36.6573 23.381 36.7259 23.4496 36.8058 23.5295C36.8629 23.5866 36.8629 23.678 36.8058 23.7351C36.7487 23.7922 36.6687 23.7922 36.6002 23.7351C36.5774 23.7123 36.5431 23.6894 36.5203 23.6666C36.4974 23.7008 36.4746 23.7351 36.4631 23.7694C36.4403 23.8151 36.3946 23.8379 36.3375 23.8379L36.3489 23.8493Z" fill="#5F5F66"/>
<path d="M38.562 29.9142C38.482 29.9142 38.4249 29.8342 38.4249 29.7657C38.4478 29.5487 38.4934 29.3431 38.5962 29.1718C38.6305 29.1032 38.7219 29.0804 38.7904 29.1147C38.859 29.1489 38.8818 29.2403 38.8475 29.3088C38.7676 29.4459 38.7333 29.6058 38.7105 29.7886C38.7105 29.8685 38.6419 29.9256 38.5734 29.9256L38.562 29.9142ZM38.7105 28.3037C38.6419 28.3037 38.5734 28.258 38.5734 28.178C38.5506 27.9953 38.5163 27.8125 38.482 27.6298C38.4706 27.5498 38.5163 27.4813 38.5962 27.4585C38.6762 27.447 38.7447 27.4927 38.7676 27.5727C38.8018 27.7554 38.8361 27.9382 38.859 28.1324C38.859 28.2123 38.8133 28.2808 38.7333 28.2923C38.7333 28.2923 38.7219 28.2923 38.7105 28.2923V28.3037ZM38.3564 26.6703C38.2993 26.6703 38.2422 26.6247 38.2193 26.5675C38.1622 26.3848 38.1051 26.2135 38.048 26.0421C38.0251 25.9736 38.048 25.8822 38.1279 25.8594C38.2079 25.8365 38.2879 25.8594 38.3107 25.9393C38.3792 26.1107 38.4363 26.2934 38.4934 26.4762C38.5163 26.5561 38.4706 26.6361 38.4021 26.6589C38.3907 26.6589 38.3792 26.6589 38.3564 26.6589V26.6703ZM37.7167 25.1284C37.7167 25.1284 37.6139 25.1055 37.5911 25.0598C37.4997 24.8999 37.4084 24.74 37.3056 24.5915C37.2599 24.523 37.2827 24.4316 37.3398 24.3974C37.4084 24.3517 37.4883 24.3745 37.534 24.4316C37.6368 24.5801 37.7396 24.7514 37.831 24.9228C37.8652 24.9913 37.8424 25.0827 37.7739 25.1169C37.751 25.1284 37.7282 25.1398 37.7053 25.1398L37.7167 25.1284Z" fill="#5F5F66"/>
<path d="M38.8813 31.5342C38.8013 31.5342 38.7442 31.4657 38.7442 31.3857C38.7442 31.3172 38.7442 31.2372 38.7442 31.1573C38.6871 31.0888 38.63 31.0202 38.5957 30.9403C38.5614 30.8717 38.5957 30.7804 38.6528 30.7461C38.7213 30.7118 38.8127 30.7461 38.847 30.8032C38.8813 30.8717 38.9269 30.9403 38.9841 30.986C39.0183 31.0088 39.0297 31.0545 39.0297 31.0888C39.0297 31.1916 39.0297 31.2829 39.0297 31.3743C39.0297 31.4543 38.9612 31.5114 38.8927 31.5114L38.8813 31.5342Z" fill="#5F5F66"/>
<path d="M38.8709 34.1735C38.8709 34.1735 38.7909 34.1507 38.7566 34.1164C38.6538 33.9908 38.5739 33.8309 38.5282 33.6595C38.5053 33.5796 38.551 33.4996 38.631 33.4882C38.6995 33.4654 38.7909 33.511 38.8023 33.591C38.8366 33.7281 38.8937 33.8537 38.9737 33.9451C39.0193 34.0022 39.0079 34.0936 38.9508 34.1507C38.928 34.1735 38.8937 34.1849 38.8594 34.1849L38.8709 34.1735ZM38.631 32.8486C38.631 32.8486 38.6196 32.8486 38.6081 32.8486C38.5282 32.8371 38.4825 32.7572 38.4939 32.6887C38.5282 32.5059 38.5853 32.346 38.6767 32.2089C38.7224 32.1404 38.8023 32.129 38.8709 32.1632C38.9394 32.2089 38.9508 32.2889 38.9165 32.3574C38.848 32.4602 38.8023 32.5859 38.7795 32.7343C38.7681 32.8029 38.7109 32.8486 38.6424 32.8486H38.631Z" fill="#5F5F66"/>
<path d="M39.2553 35.3622C39.2553 35.3622 39.1868 35.3508 39.1639 35.328C39.1068 35.2709 39.1068 35.1795 39.1639 35.1224C39.2096 35.0767 39.2553 35.031 39.301 34.9967C39.2781 34.951 39.2553 34.8939 39.2325 34.8482C39.1982 34.7797 39.2325 34.6883 39.301 34.6541C39.3695 34.6198 39.4609 34.6541 39.4837 34.7226C39.518 34.814 39.5637 34.8939 39.598 34.9739C39.6322 35.0424 39.6094 35.1224 39.5523 35.1681C39.4723 35.2137 39.4152 35.2709 39.3581 35.3165C39.3353 35.3508 39.2896 35.3622 39.2553 35.3622Z" fill="#5F5F66"/>
<path d="M41.8088 37.7276C41.7289 37.7276 41.6604 37.6591 41.6604 37.5905C41.6604 37.522 41.7175 37.4535 41.7974 37.4535C41.9573 37.4535 42.1514 37.4535 42.357 37.4535C42.4369 37.4535 42.494 37.522 42.494 37.5905C42.494 37.6705 42.4369 37.739 42.357 37.739C42.1514 37.739 41.9573 37.739 41.786 37.739L41.8088 37.7276ZM40.6669 37.7048C40.4385 37.6933 40.2443 37.6591 40.073 37.6248C39.9931 37.602 39.9474 37.5334 39.9703 37.4535C39.9931 37.3735 40.073 37.3278 40.1416 37.3507C40.29 37.385 40.4613 37.4078 40.6783 37.4306C40.7582 37.4306 40.8153 37.4992 40.8153 37.5791C40.8153 37.6591 40.7468 37.7162 40.6783 37.7162L40.6669 37.7048ZM43.5218 37.7048C43.4419 37.7048 43.3848 37.6477 43.3848 37.5677C43.3848 37.4877 43.4419 37.4192 43.5218 37.4192C43.7388 37.4192 43.9329 37.4078 44.0928 37.3964C44.1727 37.3964 44.2298 37.4535 44.2298 37.5334C44.2298 37.6134 44.1727 37.6819 44.0928 37.6819C43.9329 37.6819 43.7388 37.6933 43.5218 37.7048ZM45.2119 37.4992C45.1548 37.4992 45.0977 37.4535 45.0749 37.3964C45.052 37.3164 45.0977 37.2365 45.1777 37.225C45.3604 37.1794 45.5317 37.1108 45.6915 37.0423C45.7715 37.008 45.8514 37.0423 45.8857 37.1222C45.9199 37.1908 45.8857 37.2822 45.8057 37.305C45.6344 37.3849 45.4403 37.4421 45.2462 37.4992C45.2347 37.4992 45.2233 37.4992 45.2119 37.4992ZM39.2051 36.9852C39.2051 36.9852 39.1024 36.9623 39.0795 36.9052C38.9996 36.7453 38.9425 36.5626 38.9082 36.357V36.3113C38.8854 36.2313 38.9425 36.1628 39.0224 36.1514C39.1138 36.1399 39.1709 36.1971 39.1823 36.2656V36.2999C39.2166 36.4712 39.2622 36.6311 39.3308 36.7567C39.365 36.8253 39.3308 36.9166 39.2737 36.9509C39.2508 36.9509 39.228 36.9623 39.2051 36.9623V36.9852ZM46.6965 36.6882C46.6965 36.6882 46.6165 36.6768 46.5937 36.6425C46.5366 36.5854 46.548 36.494 46.5937 36.4369C46.7307 36.3113 46.8449 36.1856 46.9591 36.0371C47.0048 35.98 47.0962 35.9686 47.1533 36.0143C47.2218 36.06 47.2332 36.1514 47.1761 36.2199C47.0505 36.3798 46.9249 36.5283 46.7764 36.6539C46.7536 36.6768 46.7193 36.6882 46.6851 36.6882H46.6965ZM47.61 35.2605C47.61 35.2605 47.5758 35.2605 47.5644 35.2605C47.4959 35.2376 47.4502 35.1462 47.4844 35.0777C47.5415 34.9178 47.5986 34.735 47.6443 34.5409C47.6671 34.4609 47.7357 34.4152 47.8156 34.4381C47.8955 34.4609 47.9412 34.5294 47.9184 34.6094C47.8727 34.815 47.8156 34.9977 47.7471 35.1691C47.7242 35.2262 47.6671 35.2605 47.61 35.2605ZM47.9412 33.5928C47.8613 33.5928 47.8042 33.5129 47.8042 33.4443C47.8156 33.2502 47.827 33.0674 47.8384 32.8847C47.8384 32.8047 47.907 32.7476 47.9755 32.7476C48.0554 32.7476 48.1125 32.8161 48.1125 32.8961C48.1125 33.0903 48.1011 33.2844 48.0783 33.4672C48.0783 33.5471 48.0097 33.5928 47.9412 33.5928ZM47.9298 31.8795C47.8613 31.8795 47.7928 31.8224 47.7928 31.7539C47.7699 31.5711 47.7357 31.3884 47.6786 31.217C47.6557 31.1371 47.7014 31.0571 47.7813 31.0457C47.8613 31.0229 47.9412 31.0686 47.9526 31.1485C47.9983 31.3313 48.044 31.5254 48.0668 31.731C48.0668 31.811 48.0212 31.8795 47.9412 31.8909C47.9412 31.8909 47.9298 31.8909 47.9184 31.8909L47.9298 31.8795ZM47.3588 30.2804C47.3588 30.2804 47.2675 30.2576 47.2446 30.2119C47.1647 30.0863 47.0733 29.972 46.982 29.8692C46.9705 29.8578 46.9591 29.835 46.9477 29.8121L46.9134 29.7093C46.8906 29.6294 46.9363 29.5494 47.0048 29.5266C47.0847 29.5037 47.1647 29.5494 47.1875 29.618L47.2104 29.6979C47.3131 29.8007 47.4045 29.9264 47.4844 30.052C47.5301 30.1205 47.5073 30.2119 47.4388 30.2462C47.4159 30.2576 47.3931 30.269 47.3588 30.269V30.2804ZM46.6965 28.727C46.6394 28.727 46.5823 28.6928 46.5594 28.6357C46.5023 28.4643 46.4338 28.2816 46.3653 28.0988C46.3425 28.0303 46.3653 27.9389 46.4452 27.9161C46.5138 27.8818 46.6051 27.9161 46.628 27.996C46.6965 28.1788 46.765 28.3615 46.8221 28.5329C46.8449 28.6128 46.8107 28.6928 46.7307 28.7156C46.7193 28.7156 46.6965 28.7156 46.6851 28.7156L46.6965 28.727ZM46.1026 27.1165C46.1026 27.1165 45.9884 27.0823 45.9656 27.0252C45.8971 26.8538 45.8286 26.6825 45.7601 26.4997C45.7258 26.4312 45.7601 26.3398 45.84 26.317C45.9085 26.2827 45.9999 26.317 46.0227 26.3969C46.0912 26.5797 46.1597 26.7624 46.2283 26.9338C46.2511 27.0023 46.2283 27.0937 46.1483 27.1165C46.1369 27.1165 46.1141 27.1165 46.1026 27.1165ZM45.4746 25.5289C45.4746 25.5289 45.3604 25.4946 45.3375 25.4375L45.1205 24.9121C45.0863 24.8435 45.1206 24.7522 45.2005 24.7293C45.269 24.7065 45.3604 24.7293 45.3832 24.8093L45.6002 25.3347C45.6344 25.4032 45.6002 25.4946 45.5202 25.5174C45.4974 25.5174 45.486 25.5174 45.4631 25.5174L45.4746 25.5289ZM44.778 23.964C44.778 23.964 44.6752 23.9298 44.6523 23.8841C44.5724 23.7128 44.481 23.5414 44.4011 23.3815C44.3668 23.313 44.4011 23.2216 44.4582 23.1873C44.5267 23.1531 44.6181 23.1873 44.6523 23.2445C44.7437 23.4158 44.8236 23.5871 44.915 23.7584C44.9493 23.827 44.915 23.9184 44.8465 23.9526C44.8236 23.9526 44.8008 23.964 44.7894 23.964H44.778ZM43.9786 22.4563C43.9786 22.4563 43.8872 22.4335 43.853 22.3878C43.7616 22.2279 43.6588 22.0566 43.5675 21.8967C43.5218 21.8281 43.5446 21.7367 43.6131 21.7025C43.6817 21.6682 43.773 21.6796 43.8073 21.7482C43.9101 21.9081 44.0014 22.0794 44.0928 22.2393C44.127 22.3078 44.1042 22.3992 44.0357 22.4335C44.0128 22.4449 43.99 22.4563 43.9672 22.4563H43.9786ZM43.0764 20.9943C43.0764 20.9943 42.9851 20.9715 42.9622 20.9258C42.8594 20.7659 42.7567 20.606 42.6425 20.4575C42.5968 20.3889 42.6196 20.309 42.6767 20.2633C42.7452 20.2176 42.8252 20.2405 42.8709 20.2976C42.9736 20.4575 43.0878 20.6174 43.1906 20.7773C43.2363 20.8458 43.2135 20.9372 43.1449 20.9715C43.1221 20.9829 43.0993 20.9943 43.065 20.9943H43.0764ZM42.0943 19.5894C42.0943 19.5894 42.003 19.5666 41.9801 19.5323C41.8659 19.3838 41.7517 19.2239 41.6375 19.0754C41.5919 19.0183 41.6033 18.9269 41.6604 18.8698C41.7289 18.8241 41.8088 18.8355 41.8659 18.8927C41.9801 19.0411 42.0943 19.2011 42.2085 19.3495C42.2542 19.4181 42.2428 19.498 42.1743 19.5437C42.1514 19.5666 42.1172 19.5666 42.0943 19.5666V19.5894ZM41.0437 18.2416C41.0437 18.2416 40.9638 18.2188 40.9295 18.1845C40.8039 18.036 40.6897 17.8875 40.5641 17.7505C40.5184 17.6933 40.5184 17.602 40.5755 17.5449C40.6326 17.4992 40.724 17.4992 40.7811 17.5563C40.9067 17.7048 41.0209 17.8418 41.1465 17.9903C41.1922 18.0474 41.1922 18.1388 41.1236 18.1959C41.1008 18.2188 41.0666 18.2302 41.0323 18.2302L41.0437 18.2416ZM39.9132 16.9509C39.9132 16.9509 39.8332 16.9395 39.8104 16.9052C39.6848 16.7682 39.5477 16.6311 39.4221 16.494C39.365 16.4369 39.365 16.3455 39.4221 16.2884C39.4792 16.2313 39.5706 16.2313 39.6277 16.2884C39.7533 16.4255 39.8903 16.5626 40.0274 16.711C40.0845 16.7682 40.073 16.8595 40.0274 16.9166C40.0045 16.9395 39.9703 16.9509 39.936 16.9509H39.9132ZM38.7141 15.7288C38.7141 15.7288 38.6456 15.7173 38.6113 15.6945C38.4743 15.5574 38.3258 15.4318 38.1888 15.3176C38.1317 15.2604 38.1203 15.1805 38.1774 15.112C38.2345 15.0548 38.3258 15.0434 38.3829 15.1005C38.52 15.2262 38.657 15.3518 38.8054 15.4889C38.8625 15.546 38.8625 15.6374 38.8054 15.6945C38.7826 15.7288 38.7369 15.7402 38.7027 15.7402L38.7141 15.7288ZM37.4122 14.6208C37.4122 14.6208 37.3551 14.6208 37.3323 14.598C37.1724 14.4723 37.0126 14.3695 36.8755 14.2782C36.807 14.2325 36.7842 14.1525 36.8298 14.084C36.8755 14.0154 36.9555 13.9926 37.024 14.0383C37.1724 14.1297 37.3323 14.2439 37.5036 14.3695C37.5721 14.4152 37.5835 14.5066 37.5379 14.5637C37.515 14.598 37.4693 14.6208 37.4237 14.6208H37.4122ZM35.9848 13.6842C35.9848 13.6842 35.9277 13.6842 35.9048 13.6614L35.4366 13.3644C35.3681 13.3187 35.3453 13.2273 35.391 13.1588C35.4366 13.0903 35.5166 13.0674 35.5737 13.1017L36.0533 13.4101C36.1218 13.4558 36.1447 13.5357 36.099 13.6042C36.0761 13.6499 36.0305 13.6728 35.9734 13.6728L35.9848 13.6842Z" fill="#5F5F66"/>
<path d="M20.3044 23.8712C20.3044 23.8712 20.213 23.8484 20.1788 23.8027C20.1673 23.7798 20.1445 23.7456 20.1217 23.6999C20.0988 23.7227 20.076 23.7456 20.0531 23.7684C19.996 23.8255 19.9046 23.8255 19.8475 23.7684C19.7904 23.7113 19.7904 23.6199 19.8475 23.5628C19.9389 23.4828 20.0074 23.4143 20.0645 23.3686C20.0988 23.3344 20.1445 23.3229 20.1788 23.3344C20.2244 23.3344 20.2587 23.3686 20.2816 23.4029C20.3387 23.5171 20.3844 23.5971 20.4186 23.6542C20.4643 23.7227 20.4415 23.8141 20.3729 23.8484C20.3501 23.8598 20.3272 23.8712 20.3044 23.8712Z" fill="#5F5F66"/>
<path d="M21.6736 37.8759C21.5936 37.8759 21.5365 37.8073 21.5365 37.7274L21.5708 37.1334C21.5708 37.0535 21.6508 37.0078 21.7193 36.9964C21.7992 36.9964 21.8564 37.0649 21.8564 37.1449L21.8221 37.7388C21.8221 37.8188 21.7536 37.8759 21.685 37.8759H21.6736ZM21.7764 36.0826C21.6964 36.0826 21.6393 36.0141 21.6393 35.9341C21.6508 35.7171 21.6622 35.5229 21.6736 35.3402C21.6736 35.2602 21.7536 35.2145 21.8221 35.2031C21.902 35.2031 21.9592 35.2717 21.9592 35.3516C21.9592 35.5344 21.9363 35.74 21.9249 35.9456C21.9249 36.0255 21.8564 36.0826 21.7878 36.0826H21.7764ZM21.3195 34.4378C21.3195 34.4378 21.2167 34.415 21.1939 34.3579C21.1025 34.1751 21.0111 34.0038 20.9197 33.8096C20.8855 33.7411 20.9197 33.6497 20.9883 33.6155C21.0682 33.5812 21.1482 33.6155 21.1825 33.684C21.2624 33.8667 21.3538 34.0381 21.4452 34.2094C21.4794 34.2779 21.4452 34.3693 21.388 34.4036C21.3652 34.4036 21.3424 34.415 21.3195 34.415V34.4378ZM20.6456 32.7817C20.5885 32.7817 20.5314 32.736 20.5086 32.6789C20.4514 32.4847 20.4058 32.2905 20.3601 32.0849C20.3486 32.005 20.3943 31.9364 20.4629 31.9136C20.5428 31.8907 20.6114 31.9478 20.6342 32.0164C20.6799 32.2105 20.7256 32.4047 20.7827 32.5875C20.8055 32.6674 20.7598 32.7474 20.6913 32.7702C20.6799 32.7702 20.6685 32.7702 20.6456 32.7702V32.7817ZM20.2915 31.0227C20.223 31.0227 20.1545 30.9655 20.1545 30.897C20.1316 30.7028 20.1088 30.4972 20.0974 30.2916C20.0974 30.2117 20.1545 30.1432 20.2344 30.1432C20.3144 30.1432 20.3715 30.2003 20.3715 30.2802C20.3829 30.4744 20.4058 30.68 20.4172 30.8742C20.4172 30.9541 20.3715 31.0227 20.2915 31.0341C20.2915 31.0341 20.2915 31.0341 20.2801 31.0341L20.2915 31.0227ZM20.223 29.2294C20.143 29.2294 20.0859 29.1609 20.0859 29.0809C20.0859 28.8867 20.0974 28.6811 20.1202 28.4755C20.1202 28.3956 20.2002 28.3385 20.2687 28.3385C20.3486 28.3385 20.4058 28.407 20.4058 28.487C20.3943 28.6811 20.3829 28.8867 20.3715 29.0809C20.3715 29.1609 20.303 29.218 20.2344 29.218L20.223 29.2294ZM20.3715 27.4361C20.3715 27.4361 20.3715 27.4361 20.3601 27.4361C20.2801 27.4361 20.223 27.3562 20.2344 27.2762C20.2573 27.0706 20.2687 26.8765 20.2801 26.6823C20.2801 26.6023 20.3601 26.5338 20.4286 26.5452C20.5086 26.5452 20.5657 26.6137 20.5657 26.6937C20.5542 26.8879 20.5314 27.082 20.52 27.2876C20.52 27.3562 20.4514 27.4133 20.3829 27.4133L20.3715 27.4361ZM20.4629 25.6429C20.3829 25.6429 20.3258 25.5743 20.3258 25.4944V25.3345C20.3258 25.1746 20.3258 25.0261 20.3258 24.9004C20.3258 24.8205 20.3829 24.752 20.4629 24.752C20.5428 24.752 20.5999 24.8091 20.5999 24.889C20.5999 25.0261 20.5999 25.1746 20.5999 25.3345V25.4944C20.5999 25.5743 20.5314 25.6315 20.4514 25.6315L20.4629 25.6429Z" fill="#5F5F66"/>
<path d="M21.5716 39.3593C21.5031 39.3593 21.446 39.3136 21.4346 39.2565C21.4117 39.1652 21.3889 39.0852 21.3546 38.9938C21.3318 38.9139 21.366 38.8339 21.446 38.8111C21.4688 38.8111 21.5031 38.8111 21.5259 38.8111C21.5488 38.7997 21.5716 38.7882 21.6059 38.7997C21.6858 38.7997 21.743 38.8682 21.743 38.9481L21.7201 39.2337C21.7201 39.3022 21.663 39.3593 21.5945 39.3708C21.5945 39.3708 21.5945 39.3708 21.583 39.3708L21.5716 39.3593Z" fill="#5F5F66"/>
<path d="M21.059 38.022C21.059 38.022 20.9562 37.9991 20.9334 37.942C20.8534 37.7821 20.7621 37.6222 20.6478 37.4509C20.6021 37.3824 20.625 37.291 20.6935 37.2567C20.7621 37.211 20.8534 37.2339 20.8877 37.3024C21.0019 37.4852 21.1047 37.6565 21.1847 37.805C21.2189 37.8735 21.1847 37.9649 21.1276 37.9991C21.1047 37.9991 21.0819 38.0106 21.059 38.0106V38.022ZM20.111 36.5828C20.111 36.5828 20.0196 36.56 19.9968 36.5257C19.8711 36.3544 19.7455 36.2059 19.6427 36.0802C19.597 36.0231 19.6084 35.9318 19.6655 35.8746C19.7227 35.829 19.814 35.8404 19.8711 35.8975C19.9739 36.0231 20.0996 36.183 20.2252 36.3544C20.2709 36.4229 20.2595 36.5029 20.2024 36.5485C20.1795 36.5714 20.1453 36.5828 20.111 36.5828ZM19.2658 35.1208C19.2658 35.1208 19.163 35.0979 19.1401 35.0408C19.0716 34.9038 18.9802 34.7667 18.8888 34.6182L18.8546 34.5611C18.8089 34.4926 18.8317 34.4012 18.9003 34.3669C18.9688 34.3212 19.0488 34.3555 19.0944 34.4126L19.1287 34.4697C19.2315 34.6182 19.3229 34.7781 19.3914 34.9152C19.4257 34.9837 19.3914 35.0751 19.3343 35.1094C19.3115 35.1094 19.2886 35.1208 19.2658 35.1208ZM18.5462 33.5674C18.4891 33.5674 18.432 33.5217 18.4091 33.4646C18.3634 33.2933 18.3063 33.1105 18.2606 32.9049C18.2492 32.825 18.2949 32.7564 18.3634 32.7336C18.4548 32.7222 18.5119 32.7678 18.5348 32.8364C18.5804 33.042 18.6261 33.2133 18.6718 33.3846C18.6947 33.4646 18.649 33.5445 18.5804 33.5674C18.569 33.5674 18.5576 33.5674 18.5348 33.5674H18.5462ZM18.2035 31.8884C18.135 31.8884 18.0665 31.8312 18.0665 31.7627C18.0436 31.58 18.0208 31.3858 17.9979 31.1916C17.9979 31.1117 18.0436 31.0431 18.1236 31.0317C18.2264 31.0317 18.2721 31.0774 18.2835 31.1573C18.3063 31.3515 18.3292 31.5457 18.352 31.717C18.352 31.797 18.3063 31.8655 18.2264 31.8769C18.2264 31.8769 18.2149 31.8769 18.2035 31.8769V31.8884ZM18.0665 30.175C17.9865 30.175 17.9294 30.1179 17.9294 30.038C17.9294 29.8552 17.918 29.6611 17.918 29.4669C17.918 29.3869 17.9637 29.3298 18.055 29.3184C18.135 29.3184 18.1921 29.3755 18.1921 29.4555C18.1921 29.6496 18.1921 29.8438 18.2035 30.0266C18.2035 30.1065 18.1464 30.175 18.0665 30.175ZM18.0665 28.4617C17.9865 28.4617 17.9294 28.3932 17.9294 28.3133V28.2447C17.9294 28.062 17.9408 27.9021 17.9637 27.7307C17.9637 27.6508 18.0436 27.5937 18.1236 27.6051C18.2035 27.6051 18.2606 27.685 18.2492 27.765C18.2378 27.9249 18.2264 28.0848 18.2149 28.2561C18.2149 28.279 18.2149 28.3018 18.2149 28.3361C18.2149 28.416 18.1464 28.4732 18.0779 28.4732L18.0665 28.4617ZM18.2949 26.7599C18.2949 26.7599 18.2721 26.7599 18.2606 26.7599C18.1807 26.737 18.135 26.6571 18.1578 26.5885C18.2035 26.4058 18.2606 26.2116 18.3292 26.0288C18.352 25.9603 18.432 25.9146 18.5119 25.9375C18.5804 25.9603 18.6261 26.0403 18.6033 26.1202C18.5462 26.2916 18.4891 26.4743 18.4434 26.6571C18.432 26.7256 18.3634 26.7599 18.3063 26.7599H18.2949ZM18.9345 25.1722C18.9345 25.1722 18.8888 25.1722 18.866 25.1493C18.7975 25.1151 18.7746 25.0237 18.8089 24.9552C18.9117 24.7838 19.0145 24.6125 19.1173 24.464C19.163 24.3955 19.2429 24.3841 19.3115 24.4298C19.38 24.4754 19.3914 24.5668 19.3457 24.6239C19.2429 24.7724 19.1401 24.9323 19.0488 25.1037C19.0259 25.1493 18.9688 25.1722 18.9231 25.1722H18.9345Z" fill="#5F5F66"/>
<path d="M34.9691 44.4998C34.9691 44.4998 34.8663 44.4655 34.8435 44.4198C34.8092 44.3627 34.8206 44.2942 34.8778 44.2485C34.9234 44.2028 34.992 44.2028 35.0148 44.2028H35.0262H35.0605C35.0834 44.2028 35.1062 44.1914 35.129 44.1914C35.1747 44.1914 35.2204 44.2257 35.2547 44.2714C35.289 44.3399 35.2547 44.4313 35.1862 44.4655C35.1862 44.4655 35.1405 44.4884 35.1176 44.4884C35.0948 44.4884 35.0605 44.4998 35.0148 44.5112H34.992L34.9691 44.4998Z" fill="#5F5F66"/>
<path d="M35.1845 42.3869C35.1845 42.3869 35.1388 42.3869 35.1159 42.3755L35.0703 42.3526C35.0017 42.3184 34.9675 42.2384 35.0017 42.1699C35.036 42.1013 35.1159 42.0671 35.1845 42.1013L35.2416 42.1242C35.3101 42.147 35.3444 42.2156 35.333 42.2841C35.3215 42.3526 35.2644 42.3983 35.1959 42.3983L35.1845 42.3869Z" fill="#5F5F66"/>
<path opacity="0.15" d="M38.506 53.3202C35.2742 54.6794 31.7113 55.4218 27.977 55.4218C21.8218 55.4218 16.1462 53.4001 11.5669 49.9735C4.87495 44.9706 0.546875 36.9866 0.546875 27.9861C0.546875 13.3773 11.9552 1.44123 26.344 0.607422C16.4203 4.71936 9.44283 14.5081 9.44283 25.9301C9.44283 34.9307 13.7709 42.9147 20.4743 47.929C25.0422 51.3441 30.7292 53.3773 36.8844 53.3773C37.4326 53.3773 37.9693 53.3773 38.5174 53.3202H38.506Z" fill="url(#paint0_linear_3412_26583)"/>
<path d="M35.9489 6.04394C35.6291 5.92972 35.2979 5.8155 34.9666 5.7127C34.3727 5.51853 33.7216 5.86119 33.5389 6.45514C33.3447 7.0605 33.6874 7.70014 34.2813 7.88289C34.5783 7.97427 34.8753 8.07707 35.1722 8.17986C35.2979 8.22555 35.4349 8.2484 35.5606 8.2484C36.0289 8.2484 36.4629 7.96285 36.6342 7.49454C36.8513 6.90059 36.5429 6.24954 35.9489 6.03252V6.04394Z" fill="white"/>
<path d="M46.3992 16.7553C46.6162 16.7553 46.8445 16.6867 47.0387 16.5611C47.564 16.207 47.701 15.4989 47.347 14.9734C45.2344 11.8324 42.368 9.22815 39.0449 7.43489C38.4967 7.13791 37.8001 7.34351 37.5032 7.89177C37.2063 8.45145 37.4119 9.13677 37.96 9.43375C40.952 11.0557 43.5442 13.4086 45.4513 16.2413C45.6683 16.5725 46.0337 16.7439 46.3992 16.7439V16.7553Z" fill="white"/>
<path d="M55.9566 27.984C55.9566 12.5528 43.4063 0 27.9783 0C12.5503 0 0 12.5528 0 27.984C0 36.8932 4.09968 45.0714 11.2484 50.4055L11.5682 49.9714C11.8879 50.2113 12.2077 50.4398 12.5388 50.6568C14.0348 51.6848 15.645 52.5528 17.3351 53.261C18.9453 56.2764 22.12 58.3324 25.7743 58.3324C28.1839 58.3324 30.3764 57.4415 32.0551 55.968C33.4369 57.2701 35.2983 58.0697 37.3425 58.0697C41.6249 58.0697 45.0965 54.5974 45.0965 50.3141C45.0965 50.2456 45.0965 50.1656 45.0965 50.0971C52.0054 44.763 55.968 36.7219 55.968 27.9726L55.9566 27.984ZM37.3425 42.57C36.0292 42.57 34.7959 42.9012 33.711 43.4723C31.998 40.9138 29.086 39.2347 25.7743 39.2347C21.8916 39.2347 18.5685 41.5534 17.0725 44.8658C16.2845 44.6031 15.4395 44.4432 14.5601 44.4432C12.9043 44.4432 11.3855 44.9457 10.1064 45.8138C9.20429 45.1057 8.07374 44.6945 6.87467 44.6488C3.15184 39.9657 1.08487 34.1633 1.08487 27.984C1.08487 13.1582 13.1555 1.08509 27.9783 1.08509C42.8011 1.08509 54.8717 13.1468 54.8717 27.984C54.8717 33.8321 53.0332 39.3604 49.6643 43.9063C49.3103 43.8378 48.9563 43.7921 48.5909 43.7921C46.6838 43.7921 44.9823 44.7402 43.9088 46.2022C42.5384 44.0206 40.1175 42.57 37.3539 42.57H37.3425Z" fill="white"/>
<path opacity="0.8" d="M13.533 41.9199C13.1561 41.9199 12.8477 42.2283 12.8477 42.6052C12.8477 42.9822 13.1561 43.2906 13.533 43.2906C13.9099 43.2906 14.2183 42.9822 14.2183 42.6052C14.2183 42.2283 13.9099 41.9199 13.533 41.9199Z" fill="#B4BCD0"/>
<path opacity="0.8" d="M43.6438 33.4888C43.9865 33.4888 44.2721 33.2033 44.2721 32.8606C44.2721 32.518 43.9865 32.2324 43.6438 32.2324C43.3012 32.2324 43.0156 32.518 43.0156 32.8606C43.0156 33.2033 43.3012 33.4888 43.6438 33.4888Z" fill="#B4BCD0"/>
<path opacity="0.8" d="M42.7655 41.3145C42.4343 41.3145 42.1602 41.5886 42.1602 41.9198C42.1602 42.2511 42.4343 42.5252 42.7655 42.5252C43.0968 42.5252 43.3709 42.2511 43.3709 41.9198C43.3709 41.5886 43.0968 41.3145 42.7655 41.3145Z" fill="#B4BCD0"/>
<path opacity="0.8" d="M21.4491 6.15625C21.1179 6.15625 20.8438 6.43038 20.8438 6.76162C20.8438 7.09286 21.1179 7.36699 21.4491 7.36699C21.7804 7.36699 22.0545 7.09286 22.0545 6.76162C22.0545 6.43038 21.7804 6.15625 21.4491 6.15625Z" fill="#B4BCD0"/>
<path opacity="0.8" d="M51.3747 29.9941C50.952 29.9941 50.6094 30.3368 50.6094 30.7594C50.6094 31.182 50.952 31.5247 51.3747 31.5247C51.7973 31.5247 52.1399 31.182 52.1399 30.7594C52.1399 30.3368 51.7973 29.9941 51.3747 29.9941Z" fill="#B4BCD0"/>
<path opacity="0.8" d="M5.42375 24.9022C5.54992 24.9022 5.65219 24.7999 5.65219 24.6738C5.65219 24.5476 5.54992 24.4453 5.42375 24.4453C5.29759 24.4453 5.19531 24.5476 5.19531 24.6738C5.19531 24.7999 5.29759 24.9022 5.42375 24.9022Z" fill="#B4BCD0"/>
<path opacity="0.8" d="M13.3735 36.1748C13.9034 36.1748 14.333 35.7452 14.333 35.2153C14.333 34.6854 13.9034 34.2559 13.3735 34.2559C12.8436 34.2559 12.4141 34.6854 12.4141 35.2153C12.4141 35.7452 12.8436 36.1748 13.3735 36.1748Z" fill="#B4BCD0"/>
<path opacity="0.8" d="M26.0689 8.74805C25.8748 8.74805 25.7148 8.90796 25.7148 9.10213C25.7148 9.29631 25.8748 9.45621 26.0689 9.45621C26.2631 9.45621 26.423 9.29631 26.423 9.10213C26.423 8.90796 26.2631 8.74805 26.0689 8.74805Z" fill="#B4BCD0"/>
<path opacity="0.8" d="M47.7327 23.3111C47.9383 23.3111 48.0982 23.1512 48.0982 22.9456C48.0982 22.74 47.9383 22.5801 47.7327 22.5801C47.5271 22.5801 47.3672 22.74 47.3672 22.9456C47.3672 23.1512 47.5271 23.3111 47.7327 23.3111Z" fill="#B4BCD0"/>
<path opacity="0.8" d="M8.34434 19.9895C8.83549 19.9895 9.22384 19.5897 9.22384 19.11C9.22384 18.6302 8.82407 18.2305 8.34434 18.2305C7.86462 18.2305 7.46484 18.6302 7.46484 19.11C7.46484 19.5897 7.86462 19.9895 8.34434 19.9895Z" fill="#B4BCD0"/>
<path opacity="0.8" d="M12.5841 27.1046C12.5841 26.8761 12.4014 26.6934 12.1729 26.6934C11.9445 26.6934 11.7617 26.8761 11.7617 27.1046C11.7617 27.333 11.9445 27.5157 12.1729 27.5157C12.4014 27.5157 12.5841 27.333 12.5841 27.1046Z" fill="#B4BCD0"/>
<path opacity="0.8" d="M6.69145 28.6348C6.69145 28.3492 6.46301 28.1094 6.16604 28.1094C5.86907 28.1094 5.64062 28.3378 5.64062 28.6348C5.64062 28.9318 5.86907 29.1602 6.16604 29.1602C6.46301 29.1602 6.69145 28.9318 6.69145 28.6348Z" fill="#B4BCD0"/>
<path opacity="0.8" d="M46.2298 35.6699L45.5331 37.5546L43.6484 38.2513L45.5331 38.9595L46.2298 40.8441L46.938 38.9595L48.8226 38.2513L46.938 37.5546L46.2298 35.6699Z" fill="#B4BCD0"/>
<path opacity="0.8" d="M7.71899 34.3672L7.27353 35.5665L6.07422 36.012L7.27353 36.4574L7.71899 37.6567L8.16445 36.4574L9.36377 36.012L8.16445 35.5665L7.71899 34.3672Z" fill="#B4BCD0"/>
<path opacity="0.8" d="M13.3741 11.3652L12.6773 13.2499L10.7812 13.9466L12.6773 14.6548L13.3741 16.5394L14.0708 14.6548L15.9554 13.9466L14.0708 13.2499L13.3741 11.3652Z" fill="#B4BCD0"/>
<path opacity="0.8" d="M29.4949 4.80859L29.2322 5.50534L28.5469 5.75662L29.2322 6.00791L29.4949 6.70465L29.7462 6.00791L30.4315 5.75662L29.7462 5.50534L29.4949 4.80859Z" fill="#B4BCD0"/>
<path d="M48.5875 56.1375H47.4912L46.3035 52.688C47.1258 52.5167 47.7538 51.7857 47.7538 50.9062V50.7006C47.7538 49.6954 46.9316 48.873 45.9267 48.873H10.0231C9.01817 48.873 8.19595 49.6954 8.19595 50.7006V50.9062C8.19595 51.7857 8.81261 52.5167 9.64625 52.688L8.4586 56.1375H7.36231C6.35738 56.1375 5.53516 56.9599 5.53516 57.965V58.1706C5.53516 59.1757 6.35738 59.9981 7.36231 59.9981H48.5875C49.5924 59.9981 50.4146 59.1757 50.4146 58.1706V57.965C50.4146 56.9599 49.5924 56.1375 48.5875 56.1375Z" fill="#B4BCD0"/>
<path d="M44.4889 50.1081H11.3831C11.3032 50.1081 11.2461 50.051 11.2461 49.971C11.2461 49.8911 11.3032 49.834 11.3831 49.834H44.4889C44.5688 49.834 44.6259 49.8911 44.6259 49.971C44.6259 50.051 44.5688 50.1081 44.4889 50.1081Z" fill="white"/>
<path d="M12.5352 56.2539V53.09C12.5352 52.5189 12.855 52.1191 13.4603 52.1191C14.0657 52.1191 14.2942 52.439 14.4655 53.0215L15.1508 55.2374L15.8133 53.0215C15.9732 52.4618 16.2245 52.1191 16.8184 52.1191C17.4124 52.1191 17.7436 52.5075 17.7436 53.0215V56.2425C17.7436 56.5623 17.5494 56.8364 17.1954 56.8364C16.8413 56.8364 16.6357 56.5623 16.6357 56.2425V53.7068H16.6242L15.8019 56.3453C15.7105 56.6537 15.4935 56.8364 15.1622 56.8364C14.831 56.8364 14.6025 56.6537 14.5112 56.3567L13.6888 53.7068H13.6659V56.2425C13.6659 56.5623 13.4718 56.8364 13.1177 56.8364C12.7636 56.8364 12.558 56.5623 12.558 56.2425L12.5352 56.2539Z" fill="white"/>
<path d="M19.3751 53.2392C19.6035 53.2392 19.8206 53.4105 19.8206 53.6847V56.2775C19.8206 56.6201 19.5464 56.8371 19.2609 56.8371C18.9753 56.8371 18.7012 56.6201 18.7012 56.2775V54.4042C18.3471 54.37 18.1758 54.0958 18.1758 53.8103C18.1758 53.5019 18.4042 53.2278 18.7697 53.2278H19.3865L19.3751 53.2392ZM18.5641 52.4168C18.5641 52.0856 18.7583 51.8457 19.2152 51.8457C19.6721 51.8457 19.8662 52.0856 19.8662 52.4054C19.8662 52.7252 19.6606 52.9765 19.2152 52.9765C18.7697 52.9765 18.5641 52.7366 18.5641 52.4168Z" fill="white"/>
<path d="M20.5643 56.2898V54.4965L20.4957 53.7427C20.4615 53.4343 20.6785 53.1716 21.044 53.1716C21.3181 53.1716 21.5466 53.3543 21.5694 53.6513L21.6037 54.211H21.6493C21.7636 53.3886 22.3004 53.1602 22.7801 53.1602C23.4655 53.1602 23.8766 53.5942 23.8766 54.3823V56.3012C23.8766 56.6439 23.5911 56.8609 23.317 56.8609C23.0428 56.8609 22.7573 56.6439 22.7573 56.3012V54.7707C22.7573 54.4737 22.6316 54.2909 22.3233 54.2909C21.9692 54.2909 21.695 54.5308 21.695 54.8392V56.3012C21.695 56.6325 21.4323 56.8609 21.1239 56.8609C20.8155 56.8609 20.5871 56.6439 20.5871 56.3012L20.5643 56.2898Z" fill="white"/>
<path d="M24.7767 55.5816V54.348H24.6396C24.3426 54.3708 24.1484 54.1081 24.1484 53.8226C24.1484 53.5256 24.3655 53.2743 24.651 53.2857H24.8223V52.9317C24.8223 52.6233 25.0622 52.4062 25.382 52.4062C25.7247 52.4062 25.9303 52.6461 25.9189 52.9659V53.3086L26.3872 53.2743C26.6956 53.2629 26.9012 53.5028 26.9012 53.7997C26.9012 54.0967 26.6841 54.3708 26.3872 54.348L25.9189 54.3252V55.3074C25.9189 55.5816 26.0559 55.6958 26.193 55.6958C26.3072 55.6958 26.4214 55.6615 26.5014 55.6044C26.5813 55.5702 26.6384 55.5473 26.6956 55.5473C26.8783 55.5473 27.0154 55.7186 27.0154 55.9928C27.0154 56.5639 26.49 56.8494 25.8846 56.8494C25.2792 56.8494 24.7881 56.5182 24.7881 55.5816H24.7767Z" fill="white"/>
<path d="M28.7266 54.4835C28.7266 52.9986 29.6517 52.1191 30.9881 52.1191C32.3245 52.1191 33.2611 52.9986 33.2611 54.4835C33.2611 55.9684 32.3359 56.8479 30.9881 56.8479C29.6403 56.8479 28.7266 55.9684 28.7266 54.4835ZM32.0961 54.4835C32.0961 53.7525 31.7191 53.3413 30.9881 53.3413C30.2571 53.3413 29.8916 53.7525 29.8916 54.4835C29.8916 55.2145 30.2685 55.6257 30.9881 55.6257C31.7077 55.6257 32.0961 55.2031 32.0961 54.4835Z" fill="white"/>
<path d="M34.4268 56.2427L33.6159 53.9926C33.4788 53.6157 33.6501 53.1816 34.1413 53.1816C34.4611 53.1816 34.6324 53.3758 34.701 53.6157L35.2949 55.626L35.8889 53.6157C35.9574 53.3872 36.1173 53.1816 36.4371 53.1816C36.9168 53.1816 37.0996 53.6157 36.9625 53.9926L36.1516 56.2427C35.9802 56.6882 35.7061 56.8481 35.2949 56.8481C34.8837 56.8481 34.5982 56.6882 34.4383 56.2427H34.4268Z" fill="white"/>
<path d="M40.6066 55.89C40.6066 56.5411 39.7614 56.8381 39.0304 56.8381C37.8996 56.8381 37.1914 56.1642 37.1914 55.0105C37.1914 53.8569 37.9453 53.1602 38.9961 53.1602C40.104 53.1602 40.7094 53.7769 40.7094 54.6336C40.7094 55.0448 40.4924 55.2275 40.0469 55.2275H38.3108C38.3679 55.5816 38.7105 55.753 39.0875 55.753C39.4073 55.753 39.6015 55.6387 39.7728 55.5359C39.887 55.4674 40.0012 55.4103 40.1611 55.4103C40.401 55.4103 40.6066 55.6045 40.6066 55.89ZM38.2993 54.6793L39.6243 54.6564C39.6243 54.3937 39.3844 54.1539 38.9847 54.1539C38.642 54.1539 38.3565 54.3252 38.2993 54.6793Z" fill="white"/>
<path d="M41.2657 56.2881V54.4949L41.1972 53.741C41.1515 53.4326 41.38 53.1699 41.7455 53.1699C42.0196 53.1699 42.2594 53.3527 42.2709 53.6839L42.3051 54.3121H42.3851C42.4308 53.4555 42.8534 53.1813 43.1961 53.1813C43.5387 53.1813 43.7215 53.4441 43.7215 53.7981C43.7215 54.2207 43.4702 54.5863 43.0247 54.552C42.6706 54.5291 42.3965 54.7233 42.3965 55.1117V56.2881C42.3965 56.6194 42.1338 56.8478 41.8254 56.8478C41.517 56.8478 41.2772 56.6308 41.2772 56.2881H41.2657Z" fill="white"/>
<defs>
<linearGradient id="paint0_linear_3412_26583" x1="19.8919" y1="46.0786" x2="17.31" y2="11.4927" gradientUnits="userSpaceOnUse">
<stop stop-color="white"/>
<stop offset="1" stop-color="white" stop-opacity="0"/>
</linearGradient>
</defs>
</svg>
