<svg width="56" height="60" viewBox="0 0 56 60" fill="none" xmlns="http://www.w3.org/2000/svg">
<path opacity="0.15" d="M44.0677 49.5382L44.3989 49.9723C39.83 53.3989 34.1418 55.432 27.9852 55.432C21.8286 55.432 16.1518 53.4103 11.5715 49.9723L11.9028 49.5382C5.0266 44.4097 1.08594 36.5399 1.08594 27.9848C1.08594 13.159 13.1592 1.08594 27.9852 1.08594C42.8112 1.08594 54.8845 13.1476 54.8845 27.9848C54.8845 36.5399 50.9438 44.4097 44.0677 49.5382Z" fill="#939FD1"/>
<path opacity="0.15" d="M38.5143 53.3182C35.2818 54.6774 31.7181 55.4198 27.983 55.4198C21.8264 55.4198 16.1496 53.3981 11.5693 49.9715C4.87589 44.9687 0.546875 36.9847 0.546875 27.9841C0.546875 13.3753 11.9577 1.43928 26.3496 0.605469C16.4237 4.7174 9.44477 14.5061 9.44477 25.9281C9.44477 34.9287 13.7738 42.9127 20.4786 47.927C25.0475 51.3422 30.7357 53.3753 36.8923 53.3753C37.4406 53.3753 37.9774 53.3753 38.5257 53.3182H38.5143Z" fill="url(#paint0_linear_3373_22683)"/>
<path d="M36.769 14.1868C36.769 14.1868 36.7576 14.084 36.7119 14.0497C36.3807 13.7984 35.9695 13.5471 35.5354 13.273C35.1585 13.0446 34.7816 12.8047 34.4503 12.5648C34.3932 12.5306 34.3247 12.542 34.279 12.5877C34.2219 12.622 34.2219 12.7133 34.2447 12.7704C34.2561 12.7704 34.2676 12.8047 34.2676 12.8161V12.8504C34.3361 13.0217 34.3589 13.3073 34.3704 13.8327C34.4161 14.3924 34.3818 15.0663 34.2561 15.1576C34.1533 15.2262 33.8107 15.3061 33.1253 15.3061C33.0568 15.3061 32.9883 15.3632 32.9883 15.4432C32.9883 15.4775 32.9883 15.5117 32.9883 15.5574C32.9883 16.3684 32.954 17.0194 32.8969 17.4421C32.6799 18.8927 32.5085 19.361 31.412 19.3838C30.167 19.3952 26.5576 19.3952 25.2554 19.3838C24.1589 19.361 23.999 18.8927 23.7706 17.4421C23.7135 17.008 23.6792 16.3113 23.6792 15.4432C23.6792 15.4089 23.6678 15.3747 23.6335 15.3404C23.6107 15.3176 23.5764 15.3061 23.5421 15.3061C22.9824 15.3176 22.537 15.249 22.3999 15.1576C22.2743 15.0663 22.24 14.3924 22.2857 13.8213C22.2857 13.3073 22.3199 13.0217 22.3771 12.8504C22.3771 12.8504 22.3999 12.7819 22.4113 12.7704C22.4456 12.7133 22.4342 12.6334 22.3885 12.5877C22.3314 12.542 22.2628 12.542 22.2057 12.5763C21.8745 12.8047 21.4975 13.0446 21.1435 13.273C20.7094 13.5471 20.2982 13.7984 19.9555 14.0497C19.9099 14.084 19.8984 14.1411 19.8984 14.1868C19.8984 14.1982 20.104 15.3975 20.1726 17.6819C20.2068 18.767 20.2068 19.9206 20.1726 21.1085C20.1497 21.7939 20.1155 22.5134 20.0698 23.2444C20.0698 23.2673 20.0698 23.3016 20.0926 23.3244C20.2754 23.6556 20.3553 23.7927 20.3896 23.8384C20.4239 24.044 20.6066 25.3689 20.3325 27.7562C19.9898 30.6459 20.4924 33.1588 21.7717 35.0091C21.7945 35.0434 21.8288 35.0891 21.8745 35.1576H21.8859C21.8859 35.1576 21.9773 35.2604 22.023 35.3061C22.0458 35.3404 22.0801 35.3747 22.1143 35.3975C23.188 36.3569 25.2783 36.6425 26.8431 36.7225C27.2315 36.7339 27.7912 36.7453 28.3394 36.7453C28.8877 36.7453 29.4474 36.7339 29.8358 36.7225C31.4006 36.6425 33.4909 36.3569 34.5645 35.3975C34.5988 35.3747 34.6331 35.3404 34.6559 35.3061C34.713 35.249 34.7587 35.1919 34.8044 35.1348C34.8044 35.1348 34.812 35.1348 34.8273 35.1348C34.8273 35.1348 34.8844 35.0548 34.9186 35.0206C36.1979 33.1702 36.6891 30.6574 36.3464 27.7676C36.0723 25.3804 36.255 24.0554 36.2893 23.8498C36.3236 23.7927 36.4035 23.6671 36.5863 23.3358C36.5977 23.313 36.6091 23.2787 36.6091 23.2559C36.2436 17.3621 36.769 14.2325 36.7804 14.1982L36.769 14.1868ZM34.5874 34.9406C34.5874 34.9406 34.5874 34.952 34.576 34.9635C34.5303 35.0091 34.496 35.0548 34.4503 35.1005C34.4161 35.1348 34.3932 35.1576 34.3589 35.1919C33.3081 36.1399 31.0579 36.3798 29.8129 36.4369C29.0476 36.4712 27.6084 36.4712 26.8431 36.4369C25.5981 36.3798 23.3479 36.1399 22.2971 35.1919C22.2628 35.1576 22.24 35.1348 22.2171 35.1119C22.1715 35.0548 22.1258 35.0091 22.0801 34.9635C22.0801 34.952 22.0687 34.952 22.0687 34.9406C22.0344 34.9063 22.0115 34.8721 21.9887 34.8378C20.7551 33.0446 20.2754 30.6117 20.5952 27.7904C20.915 25.1405 20.6637 23.8156 20.6523 23.7584C20.6523 23.7356 20.6409 23.7242 20.6295 23.7013C20.5952 23.6671 20.4695 23.4386 20.3553 23.2216C20.3896 22.502 20.4239 21.7939 20.4467 21.12C20.481 19.9206 20.481 18.767 20.4467 17.6819C20.3896 15.7173 20.2297 14.5409 20.184 14.2325C20.5038 14.004 20.8807 13.7642 21.2805 13.5129C21.5318 13.353 21.7945 13.1931 22.0344 13.0331C22.0115 13.2159 22.0001 13.4672 21.9887 13.8098C21.9659 14.1182 21.9087 15.1576 22.2286 15.3861C22.4342 15.546 22.9482 15.5803 23.3822 15.5917C23.3822 16.4141 23.4165 17.0537 23.485 17.4763C23.6906 18.8584 23.8734 19.6465 25.2669 19.6694C26.5462 19.6808 30.1556 19.6808 31.4006 19.6694C32.7713 19.6465 32.954 18.8584 33.1596 17.4763C33.2281 17.0423 33.2624 16.3798 33.2624 15.5917C33.8564 15.5803 34.2447 15.5117 34.4161 15.3861C34.7359 15.1576 34.6788 14.1182 34.6559 13.8213C34.6445 13.4558 34.6331 13.2045 34.6102 13.0217C34.8615 13.1931 35.1242 13.353 35.3869 13.5129C35.7867 13.7642 36.1636 14.004 36.472 14.2325C36.3921 14.7807 35.9809 17.8647 36.3121 23.2216C36.1865 23.4272 36.0608 23.6556 36.038 23.7013C36.0152 23.7013 36.0037 23.7356 36.0037 23.7584C35.9923 23.8156 35.741 25.1405 36.0608 27.7904C36.3807 30.6117 35.9009 33.0446 34.6673 34.8492C34.6445 34.8721 34.6217 34.9063 34.5874 34.9406Z" fill="white"/>
<path d="M36.0033 23.7582C36.0033 23.7582 35.7406 25.1403 36.0604 27.7902C36.3803 30.6114 35.9005 33.0443 34.6669 34.849C34.6441 34.8718 34.6213 34.9061 34.587 34.9404C34.587 34.9404 34.5832 34.948 34.5756 34.9632C34.5756 34.9632 34.4956 35.0546 34.4499 35.1003C34.4157 35.1345 34.3928 35.1574 34.3585 35.1917C33.3077 36.1397 31.0575 36.3795 29.8125 36.4367C29.0472 36.4709 27.608 36.4709 26.8427 36.4367C25.5977 36.3795 23.3475 36.1397 22.2967 35.1917C22.2624 35.1574 22.2396 35.1345 22.2167 35.1117C22.1711 35.0546 22.1254 35.0089 22.0797 34.9632C22.0797 34.9518 22.0683 34.9518 22.0683 34.9404C22.034 34.9061 22.0111 34.8718 21.9883 34.8376C20.7547 33.0443 20.275 30.6114 20.5948 27.7902C20.9146 25.1403 20.6633 23.8153 20.6519 23.7582C20.6519 23.7354 20.6405 23.7239 20.6291 23.7011C20.5948 23.6668 20.4691 23.4384 20.3549 23.2214C20.3892 22.5018 20.4235 21.7936 20.4463 21.1197C20.4806 19.9204 20.4806 18.7668 20.4463 17.6817C20.3892 15.7171 20.2293 14.5406 20.1836 14.2322C20.5034 14.0038 20.8803 13.7639 21.2801 13.5126C21.5314 13.3527 21.7941 13.1928 22.034 13.0329C22.0111 13.2157 21.9997 13.4669 21.9883 13.8096C21.9655 14.118 21.9083 15.1574 22.2282 15.3858C22.4338 15.5458 22.9478 15.58 23.3818 15.5914C23.3818 16.4138 23.4161 17.0535 23.4846 17.4761C23.6902 18.8581 23.873 19.6463 25.2665 19.6691C26.5458 19.6805 30.1552 19.6805 31.4002 19.6691C32.7709 19.6463 32.9536 18.8581 33.1592 17.4761C33.2277 17.042 33.262 16.3796 33.262 15.5914C33.856 15.58 34.2443 15.5115 34.4157 15.3858C34.7355 15.1574 34.6784 14.118 34.6555 13.821C34.6441 13.4555 34.6327 13.2042 34.6098 13.0215C34.8611 13.1928 35.1238 13.3527 35.3865 13.5126C35.7863 13.7639 36.1632 14.0038 36.4716 14.2322C36.3917 14.7805 35.9805 17.8644 36.3117 23.2214C36.1861 23.427 36.0604 23.6554 36.0376 23.7011C36.0148 23.7011 36.0033 23.7354 36.0033 23.7582Z" fill="#6ECDF0"/>
<path d="M23.5533 11.6406C23.5304 11.869 23.519 12.1088 23.5076 12.2573H23.0508C23.2449 12.0632 23.4048 11.8462 23.5533 11.6406Z" fill="#6ECDF0"/>
<path d="M33.6043 12.2553H33.159C33.1361 12.0384 33.1247 11.8328 33.1133 11.6387C33.2503 11.8556 33.4216 12.0726 33.6043 12.2553Z" fill="#6ECDF0"/>
<path d="M23.7949 10.8974C23.7264 10.886 23.6579 10.9088 23.6236 10.9659C23.4409 11.3085 23.144 11.7881 22.7671 12.1307C22.6986 12.1993 22.6187 12.2678 22.5273 12.3363C22.4816 12.382 22.4588 12.4505 22.4931 12.5076C22.5159 12.5647 22.5616 12.5989 22.6187 12.5989C22.6301 12.5989 22.6415 12.5875 22.6529 12.5875H22.7215C22.7215 12.5875 22.7557 12.5647 22.79 12.5647C23.0869 12.5304 23.5094 12.5304 23.635 12.5418C23.7036 12.5533 23.7721 12.4847 23.7835 12.4048C23.7835 12.4048 23.8634 11.2628 23.8863 11.0573C23.8977 10.9887 23.852 10.9202 23.7949 10.8974ZM23.0526 12.2564C23.2468 12.0622 23.4066 11.8452 23.5551 11.6397C23.5323 11.8681 23.5208 12.1079 23.5094 12.2564H23.0526Z" fill="white"/>
<path d="M34.1302 12.3477C34.0503 12.2678 33.9589 12.1993 33.8904 12.1307C33.5136 11.7881 33.2167 11.3085 33.0339 10.9659C32.9997 10.9088 32.9312 10.886 32.8741 10.8974C32.8055 10.9202 32.7599 10.9887 32.7713 11.0573C32.8055 11.4455 32.8512 11.9138 32.8741 12.4048C32.8855 12.4847 32.9426 12.5418 33.0225 12.5418H33.3194C33.4679 12.5418 33.6963 12.5418 33.879 12.5761C33.9247 12.5761 33.9704 12.5875 34.0046 12.5875C34.016 12.5989 34.0275 12.5989 34.0389 12.5989C34.096 12.5989 34.1417 12.5647 34.1759 12.519C34.1988 12.4619 34.1873 12.382 34.1302 12.3477ZM33.1139 11.6397C33.2509 11.8567 33.4222 12.0736 33.6049 12.2564H33.1596C33.1367 12.0394 33.1253 11.8338 33.1139 11.6397Z" fill="white"/>
<path d="M24.7064 42.8554V43.6776C24.7064 44.0545 24.4094 44.3628 24.0326 44.3628H23.7128C23.5301 44.3628 23.3702 44.2943 23.2446 44.1687C23.2104 44.1344 23.1761 44.1002 23.1533 44.0659C23.119 44.0088 23.0847 43.9517 23.0733 43.8832C23.0505 43.8261 23.0391 43.7576 23.0391 43.6891V42.8554C23.0391 42.4786 23.336 42.1816 23.7128 42.1816H24.0326C24.4094 42.1816 24.7064 42.4786 24.7064 42.8554Z" fill="#6ECDF0"/>
<path d="M26.6709 42.8554V43.6776C26.6709 44.0545 26.374 44.3628 25.9971 44.3628H25.6774C25.3005 44.3628 24.9922 44.0545 24.9922 43.6776V42.8554C24.9922 42.4786 25.3005 42.1816 25.6774 42.1816H25.9971C26.374 42.1816 26.6709 42.4786 26.6709 42.8554Z" fill="#6ECDF0"/>
<path d="M35.0672 41.9087H34.9758C34.9758 41.9087 34.9301 41.8973 34.9073 41.8973H34.5875C34.3591 41.8973 34.1536 41.9772 33.9937 42.1143L33.7653 42.3542C33.594 42.08 33.2971 41.8973 32.9431 41.8973H32.6233C32.3949 41.8973 32.1893 41.9772 32.0295 42.1143C31.9952 42.1257 31.9724 42.16 31.9495 42.1828C31.8924 42.2285 31.8468 42.2971 31.8011 42.3542C31.7554 42.2856 31.7097 42.2171 31.6412 42.1714C31.5841 42.1143 31.527 42.0686 31.4699 42.0343C31.3214 41.943 31.1616 41.8973 30.9788 41.8973H30.6591C30.5906 41.8973 30.5335 41.9087 30.4649 41.9201C30.4078 41.9315 30.3393 41.9544 30.2822 41.9772C30.2594 41.9772 30.2251 42.0001 30.1909 42.0229C30.1452 42.0458 30.1109 42.0686 30.0767 42.1029C30.0196 42.1371 29.9625 42.1943 29.9282 42.2514C29.894 42.2856 29.8711 42.3199 29.8483 42.3542C29.7798 42.4455 29.7455 42.5483 29.7227 42.6626C29.7798 41.6117 29.8483 39.6243 29.9511 36.7231C31.5042 36.6431 33.5141 36.3347 34.5533 35.3981C34.5533 35.3981 34.5533 35.3981 34.5533 35.3867C34.6332 36.9058 34.8388 40.4695 34.9415 41.2805C34.9758 41.5089 35.0101 41.7031 35.0557 41.9087H35.0672Z" fill="#6ECDF0"/>
<path d="M35.5811 42.8668V43.7804C35.5696 43.8832 35.524 43.9746 35.4783 44.0545C35.4669 44.0545 35.444 44.0888 35.444 44.1002L35.4098 44.1344C35.4098 44.1344 35.3755 44.1801 35.3298 44.2144C35.3184 44.2258 35.2956 44.2372 35.2841 44.2486L35.2499 44.2715L35.2156 44.2943C35.2156 44.2943 35.1699 44.3057 35.1128 44.3286C35.09 44.34 35.0786 44.34 35.0558 44.34H35.0101C35.0101 44.34 34.9872 44.34 34.9758 44.3628H34.5076C34.165 44.3172 33.9023 44.0317 33.9023 43.6891V42.8554C33.9138 42.49 34.2107 42.1816 34.5875 42.1816H34.9644L35.0101 42.1931H35.0558H35.09L35.1243 42.2159L35.17 42.2387H35.1814C35.1814 42.2387 35.227 42.2616 35.2499 42.273L35.2841 42.2958C35.2841 42.2958 35.3527 42.3529 35.3869 42.3872C35.3869 42.3872 35.4098 42.4215 35.4212 42.4215L35.444 42.4443L35.4554 42.4671V42.49L35.4783 42.5014V42.5357H35.5011C35.5011 42.5471 35.5125 42.5699 35.5125 42.5699L35.5354 42.6156V42.6613L35.5696 42.844L35.5811 42.8668Z" fill="#6ECDF0"/>
<path d="M33.6165 42.8554V43.6891C33.6165 44.0545 33.3196 44.3628 32.9427 44.3628H32.623C32.2461 44.3628 31.9492 44.0545 31.9492 43.6776V42.8554C31.9492 42.4786 32.2461 42.1816 32.623 42.1816H32.9427C33.3196 42.1816 33.6165 42.4786 33.6165 42.8554Z" fill="#6ECDF0"/>
<path d="M31.6631 42.8554V43.6776C31.6631 44.0545 31.3548 44.3628 30.9779 44.3628H30.6581C30.2813 44.3628 29.9844 44.0545 29.9844 43.6776V42.8554C29.9844 42.4786 30.2813 42.1816 30.6581 42.1816H30.9779C31.3548 42.1816 31.6631 42.4786 31.6631 42.8554Z" fill="#6ECDF0"/>
<path d="M26.9913 36.5848C26.9913 36.5048 26.9342 36.4477 26.8542 36.4477C25.6092 36.3792 23.3476 36.1393 22.2968 35.1913C22.2625 35.157 22.2397 35.1342 22.2168 35.1113C22.1711 35.0542 22.1255 35.0085 22.0798 34.9629C22.0455 34.9172 21.977 34.8943 21.9199 34.9172C21.8742 34.9172 21.8285 34.9857 21.8285 35.0428C21.7371 36.6305 21.5201 40.4226 21.4173 41.245C21.3944 41.4049 21.3716 41.5534 21.3373 41.7019C21.3145 41.8161 21.2916 41.9189 21.2688 42.0217C21.2574 42.0217 21.2117 42.0674 21.2003 42.0674C21.166 42.0902 21.0746 42.1816 21.0518 42.193L20.9832 42.273L20.9376 42.3415C20.9376 42.3415 20.9033 42.41 20.8919 42.4214C20.8804 42.4443 20.8348 42.5585 20.8348 42.5585C20.8348 42.5699 20.8119 42.6499 20.8005 42.6727C20.8005 42.6727 20.7891 42.7413 20.7891 42.7641V43.8264C20.8119 43.9634 20.869 44.0891 20.949 44.2261L21.0289 44.3289C21.0289 44.3289 21.086 44.386 21.1203 44.4089C21.1317 44.4089 21.1432 44.4317 21.1546 44.4431C21.1774 44.4546 21.2003 44.4774 21.246 44.5003C21.246 44.5117 21.383 44.5688 21.4059 44.5802C21.4059 44.5802 21.4516 44.6031 21.463 44.6031C21.4858 44.6145 21.5087 44.6145 21.5315 44.6259C21.5543 44.6259 21.6914 44.6487 21.7143 44.6487C21.7143 44.6487 26.0547 44.6602 26.089 44.6602C26.2946 44.6602 26.6715 44.6145 26.9456 44.3518C27.2083 44.1005 27.3111 43.735 27.2654 43.2552C27.2083 42.5699 27.117 40.3198 26.9913 36.5848ZM22.7537 43.6893C22.7537 44.0319 22.491 44.3175 22.1711 44.3632H21.68L21.5087 44.3175C21.4858 44.3061 21.463 44.2947 21.4401 44.2832L21.3716 44.249C21.3716 44.249 21.2574 44.1576 21.2345 44.1233L21.1774 44.0548C21.1317 43.9748 21.0975 43.8835 21.0746 43.7578V42.8669L21.0975 42.6613C21.0975 42.6613 21.1432 42.5699 21.1546 42.5471C21.166 42.5357 21.2117 42.4557 21.2231 42.4443C21.2345 42.4329 21.3259 42.3301 21.3602 42.3072L21.5087 42.2273H21.5543L21.6457 42.193H22.0683C22.4453 42.1816 22.7423 42.49 22.7537 42.8555V43.6893ZM24.7069 43.6779C24.7069 44.0548 24.4099 44.3632 24.033 44.3632H23.7131C23.5304 44.3632 23.3705 44.2947 23.2448 44.169C23.2106 44.1347 23.1763 44.1005 23.1535 44.0662C23.1192 44.0091 23.0849 43.952 23.0735 43.8835C23.0507 43.8264 23.0392 43.7578 23.0392 43.6893V42.8555C23.0392 42.4786 23.3362 42.1816 23.7131 42.1816H24.033C24.4099 42.1816 24.7069 42.4786 24.7069 42.8555V43.6779ZM26.6715 43.6779C26.6715 44.0548 26.3745 44.3632 25.9976 44.3632H25.6778C25.3008 44.3632 24.9924 44.0548 24.9924 43.6779V42.8555C24.9924 42.4786 25.3008 42.1816 25.6778 42.1816H25.9976C26.3745 42.1816 26.6715 42.4786 26.6715 42.8555V43.6779ZM26.8086 42.3529C26.8086 42.3529 26.7629 42.2844 26.7286 42.2501C26.6943 42.193 26.6372 42.1359 26.5801 42.1016C26.5459 42.0674 26.5116 42.0445 26.4659 42.0217C26.4316 41.9988 26.3974 41.9874 26.3745 41.976C26.3174 41.9531 26.2489 41.9303 26.1918 41.9189C26.1232 41.9189 26.0661 41.896 25.9976 41.896H25.6778C25.495 41.896 25.3351 41.9417 25.1866 42.0331C25.1295 42.0674 25.0724 42.113 25.0153 42.1702C24.9467 42.2158 24.9011 42.2844 24.8554 42.3529C24.684 42.0788 24.3871 41.896 24.033 41.896H23.7131C23.3933 41.896 23.1192 42.0445 22.9479 42.2844C22.925 42.3072 22.9022 42.3301 22.8907 42.3529C22.8451 42.2958 22.7994 42.2273 22.7423 42.1816C22.7194 42.1473 22.6966 42.1245 22.6623 42.113C22.5024 41.976 22.2968 41.896 22.0683 41.896H21.7485L21.6457 41.9074C21.6457 41.9074 21.6 41.9074 21.5886 41.9074C21.6115 41.8047 21.6343 41.7133 21.6457 41.6105C21.6686 41.4963 21.68 41.382 21.7028 41.2678C21.7942 40.5025 21.9998 37.1787 22.0912 35.4197V35.374H22.1026C23.142 36.3221 25.1523 36.6305 26.7172 36.7104C26.8086 39.6002 26.8771 41.5762 26.9342 42.627C26.9114 42.5242 26.8771 42.4214 26.8086 42.3415V42.3529Z" fill="white"/>
<path d="M26.9343 42.6387C26.9115 42.5359 26.8772 42.4331 26.8087 42.3531C26.7859 42.3188 26.763 42.2846 26.7288 42.2503C26.6945 42.1932 26.6374 42.1361 26.5803 42.1018C26.5461 42.0675 26.5118 42.0447 26.4661 42.0219C26.4319 41.999 26.3976 41.9876 26.3748 41.9762C26.3177 41.9533 26.2492 41.9305 26.1921 41.9191C26.1235 41.9191 26.0664 41.8962 25.9979 41.8962H25.6782C25.4954 41.8962 25.3356 41.9419 25.1871 42.0333C25.13 42.0675 25.0729 42.1132 25.0158 42.1703C24.9473 42.216 24.9016 42.2846 24.8559 42.3531C24.6846 42.079 24.3877 41.8962 24.0337 41.8962H23.7139C23.3942 41.8962 23.1201 42.0447 22.9488 42.2846C22.926 42.3074 22.9031 42.3303 22.8917 42.3531C22.846 42.296 22.8004 42.2275 22.7433 42.1818C22.7204 42.1475 22.6976 42.1247 22.6633 42.1132C22.5034 41.9762 22.2979 41.8962 22.0695 41.8962H21.7497L21.6469 41.9076C21.6469 41.9076 21.6013 41.9076 21.5898 41.9076C21.6127 41.8048 21.6355 41.7135 21.6469 41.6107C21.6698 41.4964 21.6812 41.3822 21.704 41.268C21.7954 40.5027 22.001 37.1789 22.0923 35.4199C23.1544 36.3451 25.1528 36.6421 26.7174 36.722C26.8087 39.6004 26.8772 41.5764 26.9343 42.6272V42.6387Z" fill="#6ECDF0"/>
<path d="M22.7529 42.856V43.6897C22.7529 44.0323 22.4903 44.3178 22.1705 44.3634H21.6795L21.5082 44.3178C21.4853 44.3063 21.4625 44.2949 21.4397 44.2835L21.3711 44.2492C21.3711 44.2492 21.2569 44.1579 21.2341 44.1236L21.177 44.0551C21.1313 43.9752 21.0971 43.8838 21.0742 43.7582V42.8674L21.0971 42.6619C21.0971 42.6619 21.1427 42.5705 21.1542 42.5477C21.1656 42.5363 21.2113 42.4563 21.2227 42.4449C21.2341 42.4335 21.3255 42.3307 21.3597 42.3079L21.5082 42.2279H21.5539L21.6452 42.1937H22.0677C22.4446 42.1822 22.7415 42.4906 22.7529 42.856Z" fill="#6ECDF0"/>
<path d="M35.8315 42.6042V42.5699L35.7858 42.4786C35.7858 42.4557 35.7402 42.3758 35.7402 42.3758L35.7173 42.3415L35.6031 42.2044C35.5574 42.1587 35.5117 42.113 35.4546 42.0788C35.4432 42.0674 35.4203 42.0559 35.3975 42.0331C35.3975 42.0331 35.3861 42.0331 35.3861 42.0217C35.329 41.7932 35.2718 41.5305 35.2376 41.245C35.1348 40.3655 34.8949 36.2764 34.8264 35.0542C34.8264 34.9857 34.7921 34.94 34.735 34.9172C34.6779 34.8943 34.6208 34.9172 34.5751 34.9629C34.5294 35.0085 34.4951 35.0542 34.4494 35.0999C34.4152 35.1342 34.3923 35.157 34.3581 35.1913C33.3072 36.1393 31.0456 36.3792 29.8006 36.4477C29.7207 36.4477 29.6635 36.5048 29.6635 36.5848C29.5493 40.3198 29.4579 42.5699 29.3894 43.2552C29.3437 43.735 29.4465 44.1005 29.7092 44.3518C29.9834 44.6145 30.3603 44.6602 30.5659 44.6602C30.6002 44.6602 34.9406 44.6487 34.9406 44.6487C34.9634 44.6487 35.1005 44.6259 35.1119 44.6259C35.1462 44.6145 35.169 44.6145 35.2033 44.6031C35.2033 44.6031 35.3061 44.5574 35.329 44.5459C35.3404 44.5459 35.4318 44.4888 35.4318 44.4888C35.4546 44.4888 35.4774 44.4546 35.5003 44.4431L35.5346 44.4089L35.6602 44.2832L35.683 44.2604L35.7173 44.2147C35.7858 44.0891 35.843 43.9634 35.8658 43.8149V42.7641C35.8658 42.7641 35.843 42.627 35.8315 42.6042ZM31.6624 43.6779C31.6624 44.0548 31.354 44.3632 30.9771 44.3632H30.6573C30.2803 44.3632 29.9834 44.0548 29.9834 43.6779V42.8555C29.9834 42.4786 30.2803 42.1816 30.6573 42.1816H30.9771C31.354 42.1816 31.6624 42.4786 31.6624 42.8555V43.6779ZM33.6156 43.6893C33.6156 44.0548 33.3186 44.3632 32.9417 44.3632H32.6219C32.245 44.3632 31.948 44.0548 31.948 43.6779V42.8555C31.948 42.4786 32.245 42.1816 32.6219 42.1816H32.9417C33.3186 42.1816 33.6156 42.4786 33.6156 42.8555V43.6893ZM32.9417 41.896H32.6219C32.3934 41.896 32.1878 41.976 32.0279 42.113C31.9937 42.1245 31.9708 42.1587 31.948 42.1816C31.8909 42.2273 31.8452 42.2958 31.7995 42.3529C31.7538 42.2844 31.7081 42.2158 31.6396 42.1702C31.5825 42.113 31.5254 42.0674 31.4682 42.0331C31.3198 41.9417 31.1599 41.896 30.9771 41.896H30.6573C30.5887 41.896 30.5316 41.9075 30.4631 41.9189C30.406 41.9303 30.3375 41.9531 30.2803 41.976C30.2575 41.976 30.2232 41.9988 30.189 42.0217C30.1433 42.0445 30.109 42.0674 30.0747 42.1016C30.0176 42.1359 29.9605 42.193 29.9263 42.2501C29.892 42.2844 29.8691 42.3186 29.8463 42.3529C29.7778 42.4443 29.7435 42.5471 29.7207 42.6613C29.7778 41.6105 29.8463 39.623 29.9491 36.7218C31.5025 36.6419 33.5128 36.3335 34.5522 35.3969C34.5522 35.3969 34.5522 35.3969 34.5522 35.3855C34.6322 36.9046 34.8378 40.4683 34.9406 41.2792C34.9749 41.5077 35.0091 41.7019 35.0548 41.9074H35.0206C35.0206 41.9074 34.9178 41.896 34.8949 41.896H34.5751C34.3466 41.896 34.141 41.976 33.9811 42.113L33.7527 42.3529C33.5814 42.0788 33.2844 41.896 32.9303 41.896H32.9417ZM35.5802 43.7807C35.5688 43.8835 35.5231 43.9748 35.4774 44.0548C35.466 44.0548 35.3746 44.1804 35.329 44.2147C35.3175 44.2261 35.2947 44.2375 35.2833 44.249L35.249 44.2718C35.249 44.2718 35.169 44.3061 35.1119 44.3289C35.0891 44.3403 34.9749 44.3632 34.9749 44.3632H34.5066C34.1639 44.3175 33.9012 44.0319 33.9012 43.6893V42.8555C33.9126 42.49 34.2096 42.1816 34.5865 42.1816H34.9634L35.1005 42.2158H35.1348L35.1919 42.2501C35.2147 42.2615 35.2376 42.273 35.2604 42.2844L35.2947 42.3072C35.2947 42.3072 35.3632 42.3643 35.3975 42.3986L35.4546 42.4671L35.546 42.6385V42.6841L35.5802 42.8669V43.7807Z" fill="white"/>
<path d="M22.6263 31.9596C22.5692 32.2337 22.4093 32.7476 21.9982 33.1816C21.9182 33.2615 21.8383 33.33 21.7355 33.41C21.5185 33.5813 21.2559 33.7069 20.9361 33.7868C20.8448 33.8097 20.7648 33.8325 20.6735 33.8439C20.388 32.6791 20.3537 32.1538 20.3651 31.5371C20.4337 31.5485 20.5364 31.5714 20.662 31.5942C20.6963 31.6056 20.7306 31.617 20.7762 31.617C20.9133 31.6513 21.0617 31.6741 21.233 31.7084C21.6213 31.7883 22.101 31.8683 22.6263 31.9596Z" fill="#FFB966"/>
<path d="M36.2179 31.5254C36.2293 32.1992 36.1836 32.7473 35.8639 33.9007C35.7725 33.8893 35.6811 33.8665 35.6012 33.8436C35.4413 33.7979 35.2929 33.7408 35.1558 33.6723C35.133 33.6609 35.1216 33.6609 35.1101 33.6495C35.0645 33.6152 35.0188 33.5924 34.9731 33.5581C34.916 33.5239 34.8589 33.4896 34.8018 33.4325C34.6191 33.2955 34.482 33.1356 34.3793 32.9757C34.3107 32.8958 34.2651 32.8044 34.2194 32.7245C34.1052 32.5303 34.0367 32.3362 33.991 32.1877C33.9682 32.1078 33.9567 32.0393 33.9453 31.9822C34.1965 31.9365 34.4706 31.8908 34.7675 31.8337C34.7675 31.8337 34.8018 31.8223 34.8132 31.8223C35.0873 31.7652 35.3842 31.7081 35.6583 31.6396C35.8524 31.6053 36.0466 31.5711 36.2179 31.5254Z" fill="#FFB966"/>
<path d="M35.809 34.1877C35.7862 34.416 35.7747 34.7358 35.7633 35.1355C33.2852 34.8157 32.8969 32.6802 32.8398 32.1321C33.1139 32.0978 33.388 32.0636 33.6621 32.0293C33.6621 32.0293 33.6849 32.1435 33.7078 32.212C33.742 32.3605 33.8105 32.5432 33.9019 32.7373C33.9476 32.8401 34.0047 32.9315 34.0618 33.0342C34.1074 33.1028 34.1531 33.1599 34.1988 33.2284C34.313 33.3883 34.4615 33.5481 34.6328 33.6738C34.7127 33.7423 34.7926 33.7994 34.884 33.8451C34.9754 33.9022 35.0781 33.9593 35.1923 34.0049C35.2837 34.0506 35.3751 34.0849 35.4778 34.1077C35.5806 34.142 35.6948 34.1648 35.809 34.1877Z" fill="#FFDC7B"/>
<path d="M35.7858 37.9341C34.9863 38.1055 31.9366 38.6994 28.8297 38.3796L28.7612 38.0826C28.7041 37.8542 28.5099 37.6943 28.27 37.6943C28.1787 37.6372 27.7332 37.2488 27.6989 36.4379C27.6875 36.3236 27.6875 36.1752 27.6875 36.0038C27.836 36.0152 28.0073 36.0267 28.1672 36.0267C28.6127 36.0267 29.0011 35.9696 29.0924 35.7754C29.2752 35.3756 29.1838 33.0341 29.1495 32.3945C30.2118 32.383 31.354 32.3145 32.5534 32.166C32.6333 32.7828 33.0902 35.1015 35.763 35.4099C35.7516 36.2437 35.763 37.1574 35.7858 37.9341Z" fill="#FFDC7B"/>
<path d="M28.8409 35.6492C28.761 35.7406 28.2357 35.7748 27.6875 35.7177C27.6875 34.5871 27.7332 32.8399 27.7446 32.3945C27.9616 32.406 28.1786 32.406 28.407 32.406H28.8752C28.9208 33.5708 28.9551 35.3865 28.8409 35.6492Z" fill="#FFDC7B"/>
<path d="M27.9499 37.7965C27.8699 37.865 27.8128 37.9678 27.7786 38.082L27.71 38.379C24.6603 38.6988 21.6563 38.1391 20.7539 37.945C20.7768 37.1454 20.7882 36.1974 20.7768 35.3522C23.4838 34.9981 23.8722 32.6223 23.9179 32.1426C24.8659 32.2568 26.0652 32.3596 27.4473 32.3939C27.4359 32.9878 27.3674 35.5692 27.413 36.4487C27.4473 37.1569 27.7557 37.5909 27.9499 37.7965Z" fill="#FFDC7B"/>
<path d="M23.6425 32.0972C23.6083 32.5083 23.2999 34.7124 20.7647 35.0664C20.7647 34.6553 20.7533 34.3469 20.7305 34.13H20.7533C20.8447 34.1071 20.9246 34.0957 21.0045 34.0729C21.3586 33.9815 21.6441 33.833 21.8839 33.6503C21.9981 33.5704 22.0894 33.479 22.1808 33.3877C22.3864 33.1821 22.5234 32.9537 22.6376 32.7482C22.6833 32.6454 22.7289 32.5426 22.7746 32.4512C22.8431 32.2685 22.8888 32.1086 22.9117 32.0059C23.1401 32.0401 23.3799 32.0744 23.6425 32.0972Z" fill="#FFDC7B"/>
<path d="M36.2218 31.229C35.5022 31.4003 34.5313 31.6059 33.8231 31.7201C33.8003 31.7087 33.7888 31.7087 33.766 31.7087C33.7546 31.7087 33.7317 31.7201 33.7203 31.7315C33.3777 31.7772 33.0236 31.8343 32.6923 31.8685H32.6695C29.0144 32.3025 25.839 32.0855 23.8173 31.8343C23.4632 31.8 23.1319 31.7429 22.8235 31.6973H22.8007C22.6408 31.6744 22.4809 31.6402 22.3324 31.6173C22.0126 31.5602 21.7042 31.5145 21.4415 31.4574C21.2587 31.4232 21.0988 31.4003 20.9503 31.3661C20.779 31.3318 20.6305 31.2976 20.5163 31.2747C20.4477 31.2633 20.3906 31.2519 20.3449 31.2405C20.3335 31.092 20.3449 30.9435 20.3449 30.8408C21.1559 30.9664 25.0851 31.5374 28.2719 31.5374C31.4587 31.5374 35.3994 30.875 36.2104 30.7266C36.2218 30.8408 36.2332 31.0121 36.2218 31.229Z" fill="#FFDC7B"/>
<path d="M20.9493 38.2753L20.8808 39.737C20.8808 39.737 20.7551 39.7142 20.698 39.6913C20.6524 39.6799 20.6067 39.6685 20.561 39.6456C20.5382 39.6456 20.5267 39.6456 20.5039 39.6342L20.5953 38.1953H20.6067C20.6067 38.1953 20.698 38.2182 20.7437 38.2296C20.8008 38.241 20.8693 38.2524 20.9493 38.2753Z" fill="#FFF1D4"/>
<path d="M27.7658 38.6652L27.4003 40.1612C26.932 40.2068 24.8303 40.4124 22.5801 40.0812C22.5344 40.0926 22.4887 40.0812 22.4545 40.0698C22.226 40.0355 21.9862 40.0013 21.7577 39.9556C21.6207 39.9328 21.495 39.8985 21.3579 39.8642C21.2894 39.8528 21.2209 39.8414 21.1523 39.8186L21.2323 38.334C22.4887 38.5624 25.0359 38.9278 27.6402 38.6766C27.6858 38.6766 27.7201 38.6652 27.7658 38.6652Z" fill="#FFF1D4"/>
<path d="M35.9778 39.6342C35.9778 39.6342 35.8865 39.6685 35.8408 39.6685C35.7723 39.6913 35.7152 39.7142 35.6466 39.7256L35.5781 38.2638C35.6581 38.2524 35.7266 38.2296 35.7837 38.2296C35.8294 38.2067 35.8636 38.2067 35.8979 38.1953L35.9436 38.8577V39.0861L35.9664 39.3487V39.6342H35.9778Z" fill="#FFF1D4"/>
<path d="M35.3749 39.8068C35.1807 39.8639 34.9751 39.9096 34.7809 39.9553C34.5639 39.9896 34.3583 40.0238 34.1413 40.0581C31.8111 40.4235 29.5838 40.218 29.0927 40.1609L28.75 38.6649C28.75 38.6649 28.8528 38.6763 28.8985 38.6763C31.5142 38.9275 34.0727 38.5507 35.3063 38.3223L35.3749 39.8068Z" fill="#FFF1D4"/>
<path d="M36.5052 31.3546C36.528 30.8634 36.4823 30.555 36.4823 30.5436C36.4709 30.4979 36.4481 30.4637 36.4138 30.4408C36.391 30.418 36.3453 30.418 36.311 30.418C36.2653 30.418 31.7992 31.2518 28.2698 31.2518C24.7403 31.2518 20.2857 30.5436 20.24 30.5436C20.2057 30.5322 20.1714 30.5436 20.1372 30.5665C20.1029 30.5893 20.0801 30.6236 20.0801 30.6578C20.0801 30.6693 20.023 31.0119 20.0801 31.3432V31.3774C20.0686 32.1084 20.0801 32.6338 20.4342 34.0159V34.0273V34.073C20.457 34.3129 20.4798 34.6898 20.4913 35.2152V35.2381C20.4913 36.0947 20.4913 37.0542 20.4684 37.8766C20.4456 37.8651 20.3999 37.8766 20.377 37.8994C20.3428 37.9222 20.3199 37.9565 20.3199 38.0022L20.2171 39.7155C20.2171 39.7155 20.2514 39.8411 20.3085 39.8526C20.377 39.8754 20.4342 39.8983 20.5027 39.9097C20.6398 39.9554 20.9824 40.0467 21.0053 40.0467C21.0053 40.0467 21.2794 40.1153 21.4165 40.1495C21.5535 40.1952 21.8734 40.2523 21.8962 40.2523C23.0841 40.4808 24.2606 40.5493 25.2429 40.5493C26.5679 40.5493 27.5159 40.4237 27.5273 40.4237C27.5959 40.4123 27.6416 40.3666 27.653 40.3095L28.087 38.5276C28.087 38.5276 28.087 38.4248 28.0528 38.3906C28.0413 38.3791 28.0299 38.3677 28.0071 38.3563L28.0528 38.1393C28.087 38.0136 28.1898 37.9679 28.2698 37.9679C28.3497 37.9679 28.4525 38.0136 28.4868 38.1393L28.5325 38.3449C28.5325 38.3449 28.4525 38.3563 28.4297 38.3906C28.4069 38.4248 28.384 38.4819 28.3954 38.5276L28.8409 40.3095C28.8409 40.3095 28.898 40.4123 28.9551 40.4237C28.978 40.4237 29.9146 40.5493 31.251 40.5493C32.2104 40.5493 33.3755 40.4808 34.552 40.2638C34.8718 40.2067 35.7056 40.0011 35.7742 39.9782C35.8655 39.9782 36.1397 39.864 36.1739 39.8526C36.2425 39.8411 36.2767 39.7726 36.2767 39.7155L36.1739 38.0022C36.1739 38.0022 36.1511 37.9222 36.1168 37.8994C36.1054 37.8994 36.094 37.888 36.0711 37.888C36.0483 37.077 36.0369 36.129 36.0483 35.2838C36.0483 34.7355 36.0826 34.3472 36.1054 34.0959V34.073C36.1054 34.073 36.1054 34.073 36.1054 34.0616C36.528 32.6453 36.5166 32.0513 36.5052 31.3546ZM20.6969 39.6927C20.6969 39.6927 20.6055 39.6698 20.5598 39.647C20.537 39.647 20.5255 39.647 20.5027 39.6356L20.5941 38.1964H20.6055C20.6055 38.1964 20.6969 38.2192 20.7426 38.2306C20.7997 38.2421 20.8682 38.2535 20.9482 38.2763L20.8796 39.7384C20.8796 39.7384 20.754 39.7155 20.6969 39.6927ZM33.6611 32.0285C33.6611 32.0285 33.6839 32.1427 33.7068 32.2112C33.741 32.3597 33.8096 32.5425 33.9009 32.7366C33.9466 32.8394 34.0037 32.9308 34.0608 33.0336C34.1065 33.1021 34.1522 33.1593 34.1979 33.2278C34.3121 33.3877 34.4606 33.5476 34.632 33.6732C34.7119 33.7418 34.7919 33.7989 34.8832 33.8446C34.9746 33.9017 35.0774 33.9588 35.1916 34.0045C35.283 34.0502 35.3744 34.0844 35.4772 34.1073C35.58 34.1416 35.6942 34.1644 35.8084 34.1872C35.7856 34.4157 35.7742 34.7355 35.7627 35.1353C33.2841 34.8155 32.8958 32.6795 32.8387 32.1313C33.1128 32.097 33.3869 32.0627 33.6611 32.0285ZM35.8655 33.9017C35.7742 33.8903 35.6828 33.8674 35.6028 33.8446C35.4429 33.7989 35.2944 33.7418 35.1574 33.6732C35.1345 33.6618 35.1231 33.6618 35.1117 33.6504C35.066 33.6161 35.0203 33.5933 34.9746 33.559C34.9175 33.5248 34.8604 33.4905 34.8033 33.4334C34.6205 33.2963 34.4835 33.1364 34.3807 32.9765C34.3121 32.8966 34.2664 32.8052 34.2208 32.7252C34.1065 32.531 34.038 32.3369 33.9923 32.1884C33.9695 32.1084 33.958 32.0399 33.9466 31.9828C34.1979 31.9371 34.472 31.8914 34.769 31.8343C34.769 31.8343 34.8033 31.8229 34.8147 31.8229C35.0888 31.7658 35.3858 31.7087 35.6599 31.6401C35.8541 31.6059 36.0483 31.5716 36.2196 31.5259C36.2311 32.1998 36.1854 32.7481 35.8655 33.9017ZM36.2196 31.2289C35.5 31.4003 34.5292 31.6059 33.821 31.7201C33.7981 31.7087 33.7867 31.7087 33.7639 31.7087C33.7524 31.7087 33.7296 31.7201 33.7182 31.7315C33.3755 31.7772 33.0214 31.8343 32.6902 31.8686H32.6673C29.0122 32.3026 25.8369 32.0856 23.8151 31.8343C23.461 31.8 23.1298 31.7429 22.8214 31.6972H22.7986C22.6386 31.6744 22.4787 31.6401 22.3302 31.6173C22.0104 31.5602 21.702 31.5145 21.4393 31.4574C21.2566 31.4231 21.0966 31.4003 20.9482 31.366C20.7768 31.3317 20.6283 31.2975 20.5141 31.2746C20.4456 31.2632 20.3885 31.2518 20.3428 31.2404C20.3314 31.0919 20.3428 30.9434 20.3428 30.8406C21.1538 30.9662 25.083 31.5373 28.2698 31.5373C31.4566 31.5373 35.3972 30.8749 36.2082 30.7264C36.2196 30.8406 36.2311 31.0119 36.2196 31.2289ZM28.8409 35.6493C28.7609 35.7406 28.2355 35.7749 27.6873 35.7178C27.6873 34.587 27.7329 32.8394 27.7444 32.394C27.9614 32.4054 28.1784 32.4054 28.4069 32.4054H28.8752C28.9209 33.5705 28.9551 35.3866 28.8409 35.6493ZM27.7101 38.3791C26.8192 38.4705 25.9397 38.4933 25.1173 38.4591C24.9345 38.4591 24.7403 38.4477 24.569 38.4362C24.135 38.4248 23.7352 38.3906 23.3582 38.3449C23.1755 38.322 23.0042 38.3106 22.8328 38.2878C22.6615 38.2649 22.5016 38.2421 22.3417 38.2192C22.0333 38.185 21.3594 38.0593 21.2794 38.0479C21.2451 38.0365 20.8454 37.9679 20.754 37.9451C20.7768 37.1456 20.7882 36.1975 20.7768 35.3523C23.4839 34.9982 23.8722 32.6224 23.9179 32.1427C24.866 32.2569 26.0653 32.3597 27.4474 32.394C27.436 32.9879 27.3674 35.5693 27.4131 36.4488C27.4474 37.157 27.7558 37.591 27.95 37.7966C27.87 37.8651 27.8129 37.9679 27.7786 38.0822L27.7101 38.3791ZM20.7654 35.0667C20.7654 34.6555 20.754 34.3471 20.7311 34.1301H20.754C20.8454 34.1073 20.9253 34.0959 21.0053 34.073C21.3594 33.9816 21.6449 33.8332 21.8848 33.6504C21.999 33.5705 22.0904 33.4791 22.1818 33.3877C22.3874 33.1821 22.5244 32.9537 22.6386 32.7481C22.6843 32.6453 22.73 32.5425 22.7757 32.4511C22.8442 32.2683 22.8899 32.1084 22.9128 32.0056C23.1412 32.0399 23.3811 32.0742 23.6438 32.097C23.6095 32.5082 23.3011 34.7127 20.7654 35.0667ZM20.6626 31.5944C20.6626 31.5944 20.7311 31.6173 20.7768 31.6173C20.9139 31.6515 21.0624 31.6744 21.2337 31.7087C21.6221 31.7886 22.1018 31.8686 22.6272 31.9599C22.5701 32.2341 22.4102 32.7481 21.999 33.1821C21.919 33.2621 21.8391 33.3306 21.7363 33.4105C21.5193 33.5819 21.2566 33.7075 20.9367 33.7875C20.8454 33.8103 20.7654 33.8332 20.674 33.8446C20.3885 32.6795 20.3542 32.1541 20.3656 31.5373C20.4342 31.5488 20.537 31.5716 20.6626 31.5944ZM21.1538 39.8183L21.2337 38.3334C22.4902 38.5619 25.0373 38.9274 27.6416 38.6761C27.6873 38.6761 27.7215 38.6647 27.7672 38.6647L27.4017 40.161C26.9334 40.2067 24.8317 40.4123 22.5815 40.081C22.5358 40.0924 22.4902 40.081 22.4559 40.0696C22.2274 40.0353 21.9876 40.0011 21.7591 39.9554C21.6221 39.9325 21.4964 39.8983 21.3594 39.864C21.2908 39.8526 21.2223 39.8412 21.1538 39.8183ZM28.2698 37.6938C28.1784 37.6367 27.7329 37.2483 27.6987 36.4374C27.6873 36.3232 27.6873 36.1747 27.6873 36.0033C27.8357 36.0148 28.0071 36.0262 28.167 36.0262C28.6125 36.0262 29.0008 35.9691 29.0922 35.7749C29.2749 35.3751 29.1836 33.0336 29.1493 32.394C30.2116 32.3826 31.3538 32.314 32.5531 32.1655C32.6331 32.7823 33.09 35.101 35.7627 35.4094C35.7513 36.2432 35.7627 37.157 35.7856 37.9337C34.986 38.105 31.9363 38.6989 28.8295 38.3791L28.7609 38.0822C28.7038 37.8537 28.5097 37.6938 28.2698 37.6938ZM35.8427 39.6698C35.7742 39.6927 35.7171 39.7155 35.6485 39.7269L35.58 38.2649C35.6599 38.2535 35.7285 38.2306 35.7856 38.2306C35.8313 38.2078 35.8655 38.2078 35.8998 38.1964L35.9455 38.8589V39.0873L35.9683 39.35V39.6356C35.9683 39.6356 35.8884 39.6698 35.8427 39.6698ZM28.7495 38.6647C28.7495 38.6647 28.8523 38.6761 28.898 38.6761C31.5137 38.9274 34.0723 38.5505 35.3059 38.322L35.3744 39.8069C35.1802 39.864 34.9746 39.9097 34.7804 39.9554C34.5634 39.9896 34.3578 40.0239 34.1408 40.0582C31.8107 40.4237 29.5833 40.2181 29.0922 40.161L28.7495 38.6647Z" fill="white"/>
<path d="M21.3816 39.9221C21.3816 40.2648 21.2788 40.5503 20.9933 40.7445C20.7192 40.9387 20.4564 40.9958 20.2052 40.9273C19.8968 40.8359 19.714 40.5732 19.6683 40.4704C19.634 40.4018 19.6112 40.3105 19.5769 40.2077C19.4856 39.945 19.3942 39.648 19.2571 39.4767C19.2114 39.4081 19.12 39.3739 19.0287 39.4195C18.9601 39.4538 18.9144 39.5338 18.9259 39.6251C19.0172 40.0478 19.4627 42.2294 19.4399 42.9604C19.417 43.7142 18.9601 43.8399 18.5604 43.8627C18.1492 43.897 17.7151 43.8399 17.5209 42.9604C17.4524 42.6634 17.3953 42.3779 17.3382 42.1037C17.224 41.4755 17.1212 40.9729 16.9384 40.7102C16.847 40.5846 16.7442 40.6074 16.6985 40.6189C16.3787 40.7445 16.5615 42.2522 16.5615 42.2636V42.355C16.6186 42.652 16.7442 43.4173 16.4358 43.817C16.333 43.9541 16.1731 44.0341 15.9675 44.0569C15.5449 44.1026 15.2593 44.0455 15.0537 43.8741C14.8139 43.68 14.6882 43.303 14.6311 42.6291C14.5169 41.2471 14.4484 40.7788 14.14 40.7788H14.1171C14.1171 40.7788 14.0143 40.813 13.9801 40.8587C13.7745 41.1214 13.8658 42.652 13.8887 42.8005C13.9001 42.8347 14.0143 43.4173 13.7288 43.7828C13.5689 43.9769 13.3176 44.0683 12.9749 44.0683H12.9635C11.9697 44.0683 11.9126 43.3487 11.8555 42.652C11.8555 42.4921 11.8327 42.3436 11.8098 42.2294C11.787 42.0466 11.7299 41.7268 11.6728 41.3499C11.5129 40.299 11.273 38.7114 11.0902 38.1174C11.0331 37.9233 10.9532 37.7291 10.8846 37.5235C10.6562 36.9295 10.4278 36.3242 10.5648 35.8216C10.8846 35.4333 11.1245 35.1591 11.6842 34.9878C11.7299 34.965 11.7756 34.9535 11.8327 34.9421C12.4266 34.7936 13.3518 34.7479 14.9624 34.805C16.3216 34.8507 17.2811 35.0221 17.9321 35.2162C18.0235 35.2391 18.1149 35.2619 18.1948 35.2962C18.2862 35.319 18.3548 35.3533 18.4233 35.3761C18.5718 35.4333 18.6974 35.4789 18.7888 35.5361C18.8459 35.5589 18.8916 35.5817 18.9373 35.616C18.983 35.6389 19.0172 35.6617 19.0515 35.6845C19.1772 35.7531 19.2343 35.8102 19.2343 35.8102C19.2457 35.8216 19.2457 35.833 19.2571 35.8445C19.4056 36.0158 20.4679 37.295 20.8676 38.1745C21.1418 38.7685 21.3816 39.4081 21.3816 39.9221Z" fill="#6ECDF0"/>
<path d="M20.1839 19.3612C20.1839 19.9323 20.1839 20.5148 20.161 21.1087C20.1382 21.7712 20.1039 22.468 20.0696 23.1875C19.7156 23.4731 17.8423 25.095 17.7624 28.2475C17.671 31.1487 18.0479 33.5588 18.7561 34.701C18.9617 35.0208 19.0645 35.2492 19.133 35.3977C18.8475 35.2264 18.3449 34.9979 17.5225 34.8152C17.4311 34.7923 17.3397 34.7695 17.2369 34.7581C17.1456 34.7352 17.0428 34.7124 16.9285 34.701C16.7229 34.6667 16.4831 34.6324 16.2318 34.6096C15.8548 34.5639 15.4322 34.5296 14.9753 34.5182C14.5299 34.4954 14.1301 34.4954 13.7874 34.4954C13.6389 34.4954 13.4905 34.4954 13.3534 34.5068C13.2163 34.5068 13.0793 34.5068 12.965 34.5182C12.8851 34.5182 12.8051 34.5182 12.7366 34.5296C12.6338 34.5296 12.5424 34.541 12.451 34.5525C12.3597 34.5525 12.2797 34.5525 12.1997 34.5867C11.7771 34.6439 11.4687 34.7352 11.2289 34.8494C11.1375 34.8951 11.0689 34.9408 11.0004 34.9865C10.9319 35.0322 10.8748 35.0779 10.8177 35.1236C10.7377 35.2035 10.6692 35.2721 10.5892 35.352C10.5664 34.0956 10.6235 29.9037 12.0855 25.4034C13.7303 20.3777 18.0251 15.5119 19.9212 14.3926C19.9783 14.8266 20.1153 15.9346 20.161 17.6821C20.1839 18.219 20.1839 18.7901 20.1839 19.3612Z" fill="#6ECDF0"/>
<path d="M21.1322 38.048C20.7324 37.18 19.7387 35.9692 19.4988 35.6837C19.4988 35.4552 19.3275 35.0555 18.9962 34.5529C18.7449 34.1417 17.9225 32.4741 18.0482 28.2593C18.1395 24.9926 20.2641 23.3936 20.2869 23.3821C20.3212 23.3593 20.344 23.3022 20.344 23.2679C20.3897 22.5255 20.424 21.8059 20.4468 21.1206C20.4811 19.9213 20.4811 18.7676 20.4468 17.6825C20.3783 15.3753 20.1727 14.1646 20.1727 14.1531C20.1613 14.1074 20.1384 14.0732 20.0927 14.0503C20.0585 14.0275 20.0128 14.0275 19.9671 14.0503C18.0824 14.9869 13.5592 19.9784 11.8116 25.3239C10.1554 30.4295 10.2925 35.1468 10.3153 35.7065C10.1212 36.289 10.3725 36.9744 10.6123 37.6254C10.6923 37.8196 10.7608 38.0138 10.8179 38.1965C11.0007 38.779 11.2405 40.3439 11.4004 41.3947C11.4576 41.7716 11.5033 42.0914 11.5375 42.2742C11.5604 42.3884 11.5718 42.5255 11.5832 42.674C11.6289 43.3364 11.7088 44.353 12.9653 44.353H12.9767C13.4108 44.353 13.7306 44.2274 13.9476 43.9647C14.3245 43.5078 14.1875 42.8224 14.176 42.7425C14.1304 42.5483 14.1189 41.6003 14.1646 41.2005C14.2446 41.4975 14.3131 42.1714 14.3474 42.6511C14.4159 43.405 14.5758 43.839 14.8728 44.1017C15.1355 44.3073 15.501 44.3873 16.0036 44.3416C16.2892 44.3073 16.5062 44.1931 16.6661 43.9875C17.043 43.4963 16.9174 42.6625 16.8603 42.3085V42.2285C16.8146 41.9886 16.7917 41.4175 16.8146 41.0863C16.906 41.3376 16.9745 41.7259 17.0659 42.16C17.1115 42.4341 17.1687 42.7311 17.2372 43.028C17.4771 44.0674 18.0482 44.1702 18.5736 44.1474C19.316 44.1017 19.7044 43.7019 19.7272 42.9709C19.7387 42.4798 19.5673 41.429 19.4188 40.5952C19.4988 40.7893 19.7501 41.0863 20.127 41.1891C20.207 41.2119 20.3098 41.2348 20.424 41.2348C20.6296 41.2348 20.8809 41.1777 21.1664 40.9835C22.0459 40.3781 21.6462 39.156 21.1322 38.048ZM20.207 40.9264C19.8986 40.835 19.7158 40.5723 19.6701 40.4695C19.6359 40.401 19.613 40.3096 19.5787 40.2068C19.4874 39.9441 19.396 39.6471 19.2589 39.4758C19.2132 39.4073 19.1219 39.373 19.0305 39.4187C18.9619 39.4529 18.9163 39.5329 18.9277 39.6243C19.0191 40.0469 19.4645 42.2285 19.4417 42.9595C19.4188 43.7134 18.9619 43.839 18.5622 43.8619C18.151 43.8961 17.7169 43.839 17.5227 42.9595C17.4542 42.6625 17.3971 42.377 17.34 42.1029C17.2258 41.4746 17.123 40.9721 16.9402 40.7094C16.8488 40.5837 16.746 40.6066 16.7004 40.618C16.3805 40.7436 16.5633 42.2513 16.5633 42.2628V42.3541C16.6204 42.6511 16.746 43.4164 16.4376 43.8162C16.3348 43.9532 16.1749 44.0332 15.9693 44.056C15.5467 44.1017 15.2612 44.0446 15.0556 43.8733C14.8157 43.6791 14.69 43.3022 14.6329 42.6283C14.5187 41.2462 14.4502 40.7779 14.1418 40.7779H14.1189C14.1189 40.7779 14.0161 40.8122 13.9819 40.8579C13.7763 41.1206 13.8676 42.6511 13.8905 42.7996C13.9019 42.8339 14.0161 43.4164 13.7306 43.7819C13.5707 43.9761 13.3194 44.0675 12.9767 44.0675H12.9653C11.9716 44.0675 11.9144 43.3479 11.8573 42.6511C11.8573 42.4912 11.8345 42.3427 11.8116 42.2285C11.7888 42.0457 11.7317 41.7259 11.6746 41.349C11.5147 40.2982 11.2748 38.7105 11.0921 38.1166C11.0349 37.9224 10.955 37.7282 10.8865 37.5226C10.658 36.9287 10.4296 36.3233 10.5666 35.8207C10.8865 35.4324 11.1263 35.1583 11.686 34.9869C11.7317 34.9641 11.7774 34.9527 11.8345 34.9412C12.4284 34.7928 13.3536 34.7471 14.9642 34.8042C16.3234 34.8499 17.2829 35.0212 17.9339 35.2154C18.0253 35.2382 18.1167 35.2611 18.1967 35.2953C18.288 35.3182 18.3566 35.3524 18.4251 35.3753C18.5736 35.4324 18.6992 35.4781 18.7906 35.5352C18.8477 35.558 18.8934 35.5809 18.9391 35.6151C18.9848 35.638 19.0191 35.6608 19.0533 35.6837C19.179 35.7522 19.2361 35.8093 19.2361 35.8093C19.2475 35.8207 19.2475 35.8322 19.2589 35.8436C19.4074 36.0149 20.4697 37.2942 20.8695 38.1737C21.1436 38.7676 21.3835 39.4073 21.3835 39.9213C21.3835 40.2639 21.2807 40.5495 20.9951 40.7436C20.721 40.9378 20.4583 40.9949 20.207 40.9264ZM19.9214 14.393C19.9785 14.827 20.1156 15.935 20.1613 17.6825C20.1841 18.2194 20.1841 18.7905 20.1841 19.3616C20.1841 19.9327 20.1841 20.5152 20.1613 21.1092C20.1384 21.7716 20.1042 22.4684 20.0699 23.188C19.7158 23.4735 17.8426 25.0954 17.7626 28.2479C17.6712 31.1491 18.0482 33.5592 18.7563 34.7014C18.9619 35.0212 19.0647 35.2496 19.1333 35.3981C18.8477 35.2268 18.3451 34.9984 17.5227 34.8156C17.4314 34.7928 17.34 34.7699 17.2372 34.7585C17.1458 34.7356 17.043 34.7128 16.9288 34.7014C16.7232 34.6671 16.4833 34.6328 16.232 34.61C15.8551 34.5643 15.4325 34.53 14.9756 34.5186C14.5301 34.4958 14.1304 34.4958 13.7877 34.4958C13.6392 34.4958 13.4907 34.4958 13.3536 34.5072C13.2166 34.5072 13.0795 34.5072 12.9653 34.5186C12.8853 34.5186 12.8054 34.5186 12.7368 34.53C12.634 34.53 12.5427 34.5415 12.4513 34.5529C12.3599 34.5529 12.28 34.5529 12.2 34.5872C11.7774 34.6443 11.469 34.7356 11.2291 34.8499C11.1377 34.8956 11.0692 34.9412 11.0007 34.9869C10.9321 35.0326 10.875 35.0783 10.8179 35.124C10.738 35.2039 10.6694 35.2725 10.5895 35.3524C10.5666 34.096 10.6237 29.9041 12.0858 25.4038C13.7306 20.3781 18.0253 15.5124 19.9214 14.393Z" fill="white"/>
<path d="M47.1527 31.9711C47.0157 33.5473 46.1476 35.0094 44.8226 35.8888C43.7146 36.6313 42.4696 36.8369 41.3388 36.46C41.2474 36.4371 39.2371 35.7061 39.1343 32.3252C39.1343 32.211 39.1458 32.0625 39.1572 31.8797C39.18 31.3086 39.2257 30.3377 39.0658 28.6587C38.7117 25.0722 37.1469 23.5987 36.5872 23.1761C36.2902 18.1619 36.6329 15.1579 36.7357 14.3926C38.5861 15.4548 42.9722 20.0008 45.131 25.2778C46.6844 29.0699 47.2327 30.886 47.1527 31.9711Z" fill="#6ECDF0"/>
<path d="M45.392 25.1748C43.1304 19.6579 38.4587 14.9292 36.6997 14.0383C36.6997 14.0383 36.6197 14.0269 36.5855 14.0383C36.5398 14.0611 36.5055 14.0954 36.4941 14.1411C36.4941 14.1753 35.9573 17.3278 36.3228 23.2673C36.3228 23.3016 36.3342 23.3358 36.357 23.3587C36.3685 23.3587 36.3913 23.3815 36.4027 23.3815C36.871 23.7242 38.4359 25.1062 38.79 28.6928C38.9499 30.3489 38.9042 31.297 38.8813 31.8681C38.8699 32.0623 38.8585 32.2107 38.8585 32.3364C38.9727 35.9343 41.1544 36.6996 41.2572 36.7339C41.6569 36.8595 42.0681 36.928 42.4793 36.928C43.336 36.928 44.1927 36.6539 44.9922 36.1285C46.3857 35.2033 47.2995 33.6499 47.448 31.9937C47.5279 30.8515 46.9683 29.0126 45.4034 25.1748H45.392ZM44.8209 35.8886C43.7129 36.6311 42.4679 36.8367 41.3371 36.4597C41.2457 36.4369 39.2354 35.7059 39.1326 32.325C39.1326 32.2107 39.144 32.0623 39.1555 31.8795C39.1783 31.3084 39.224 30.3375 39.0641 28.6585C38.71 25.072 37.1452 23.5985 36.5855 23.1759C36.2885 18.1616 36.6312 15.1576 36.734 14.3924C38.5844 15.4546 42.9705 20.0006 45.1293 25.2776C46.6827 29.0697 47.231 30.8858 47.151 31.9709C47.0139 33.5471 46.1459 35.0091 44.8209 35.8886Z" fill="white"/>
<path d="M41.5418 18.0117C39.5086 15.5902 35.8078 13.5799 34.9169 13.123C34.8826 13.6827 34.7456 15.2019 34.0831 16.7324C33.0094 19.2567 31.0448 20.5931 28.4062 20.5931C26.533 20.5931 25.0024 20.0105 23.8488 18.8569C21.9298 16.9266 21.6671 14.014 21.6329 13.1802C20.8562 13.5685 17.9207 15.1219 16.0131 17.5662C14.1285 19.9763 12.6893 22.0437 11.8555 24.2595C12.3466 24.6479 15.2022 26.7381 18.5831 26.0528C18.6859 25.733 19.0743 24.6022 19.8739 23.7798C19.9081 23.7341 19.9538 23.6999 19.9995 23.6656C20.0452 23.6085 20.0909 23.5742 20.1366 23.5399C20.1594 23.5171 20.1823 23.4943 20.2051 23.4714C20.2736 23.4143 20.365 23.4257 20.4107 23.4828C20.4335 23.5171 20.4335 23.5399 20.4335 23.5742C20.4335 23.6199 20.4221 23.6656 20.3879 23.6884C20.3079 23.757 20.2394 23.8255 20.1708 23.9054C20.2508 25.2076 20.1023 27.0922 20.0909 27.2064C19.9424 28.3486 20.0338 29.1482 20.0795 29.4109C20.7648 29.5251 24.8425 30.1305 28.4519 30.1305C32.4154 30.1305 35.9106 29.4337 36.516 29.3081C36.5617 29.0796 36.6531 28.4057 36.5503 27.4805C36.3218 25.6873 36.3675 24.4766 36.516 23.6656C36.516 23.6656 36.4703 23.5971 36.4703 23.5628C36.4703 23.5285 36.4931 23.4943 36.516 23.4714C36.5274 23.46 36.5388 23.4486 36.5503 23.4486C36.5959 23.4257 36.6531 23.4257 36.6987 23.46C36.7102 23.46 36.7216 23.4714 36.7216 23.4714C36.7559 23.5057 36.7901 23.5399 36.8244 23.5742C37.7267 24.5451 38.1037 25.6759 38.2065 26.0185C41.9187 26.4183 44.877 24.6365 45.4367 24.271C44.4658 21.9523 43.335 20.1362 41.5418 18.0117ZM31.3303 23.1859V23.5628C31.3303 23.5628 31.3189 23.5971 31.3075 23.6085C31.2732 23.6884 31.1818 23.7341 31.0905 23.7227C30.9991 23.7113 30.9305 23.6542 30.9077 23.5628C30.8963 23.5514 30.8963 23.5285 30.8963 23.5057V22.6833C30.8963 22.6833 30.862 22.6033 30.8163 22.5919C30.7592 22.5805 30.7021 22.6262 30.7021 22.6833V23.5057C30.7021 23.5057 30.7021 23.5514 30.7021 23.5628C30.6793 23.6542 30.6107 23.7113 30.5193 23.7227C30.4051 23.7455 30.3023 23.6656 30.2795 23.5628C30.2681 23.5514 30.2681 23.5285 30.2681 23.5171V22.3178C30.2681 22.2493 30.3252 22.1921 30.4051 22.1921H31.2161C31.2846 22.1921 31.3417 22.2493 31.3417 22.3292V23.1859H31.3303ZM34.9283 23.3001C34.9283 23.3686 34.8712 23.4257 34.7912 23.4257H34.3572V23.5628C34.3458 23.6542 34.2658 23.7341 34.163 23.7341C34.0716 23.7341 33.9803 23.6542 33.9688 23.5628H33.7404V23.5971C33.7404 23.677 33.6719 23.7341 33.6033 23.7341H32.8609C32.8609 23.7341 32.7581 23.6884 32.7352 23.6427V23.5628H32.5411V23.6427C32.5411 23.6427 32.5296 23.6884 32.5068 23.6999C32.4954 23.7227 32.4611 23.7341 32.4383 23.7341H32.2441C32.2441 23.7341 32.1413 23.6884 32.1413 23.6313V23.6085H31.89V23.6313C31.89 23.6313 31.8786 23.677 31.8557 23.6999C31.8443 23.7227 31.81 23.7341 31.7872 23.7341H31.593C31.593 23.7341 31.5359 23.7227 31.5245 23.6999C31.5016 23.677 31.4902 23.6542 31.4902 23.6313V23.1859L31.5245 22.6719V22.3178C31.5359 22.2493 31.593 22.1921 31.6616 22.1921H32.3583C32.4383 22.1921 32.4954 22.2493 32.4954 22.3178V22.649H32.7352V22.3292C32.7352 22.2493 32.7924 22.1921 32.8609 22.1921H33.6033C33.6719 22.1921 33.7404 22.2493 33.7404 22.3178V22.6262H33.9688V22.3064C33.9688 22.3064 34.0374 22.1921 34.1059 22.1921H34.7912C34.8712 22.1921 34.9283 22.2493 34.9283 22.3178V23.3001Z" fill="#322F93"/>
<path d="M33.9704 22.6146V23.5625H33.742V23.3683C33.742 23.3683 33.7191 23.2656 33.6849 23.2313C33.6392 23.197 33.5935 23.1742 33.5364 23.1742C33.4222 23.1742 33.3309 23.2656 33.3309 23.3683V23.4369C33.3309 23.4369 33.2966 23.5282 33.2395 23.5282C33.1824 23.5282 33.1367 23.4825 33.1367 23.4369V22.6946C33.1367 22.6946 33.1481 22.6489 33.171 22.6375C33.171 22.6146 33.2052 22.5918 33.2395 22.5918C33.2738 22.5918 33.2966 22.6032 33.308 22.6261C33.3194 22.6375 33.3309 22.6717 33.3309 22.6946V22.7859C33.3309 22.9001 33.4222 22.9915 33.5364 22.9915C33.6506 22.9915 33.7306 22.9001 33.742 22.7974V22.6261H33.9704V22.6146Z" fill="#322F93"/>
<path d="M32.7362 22.6504V23.564H32.5421L32.5307 23.4041L32.5078 22.6504H32.7362Z" fill="#322F93"/>
<path d="M32.1307 23.2884C32.1307 23.2884 32.1307 23.3455 32.0965 23.3683C32.0736 23.3912 32.0508 23.4026 32.0165 23.4026C31.9823 23.4026 31.9594 23.3912 31.9366 23.3683C31.9138 23.3455 31.9023 23.3112 31.9023 23.2884L31.9252 22.6832L31.9366 22.6603C31.9366 22.6146 31.9823 22.5918 32.0165 22.5918C32.0508 22.5918 32.0965 22.6146 32.0965 22.6603C32.0965 22.6603 32.1079 22.6717 32.1079 22.6832L32.1307 23.2884Z" fill="#322F93"/>
<path d="M34.5535 22.6835V23.1174C34.5535 23.1174 34.5078 23.2088 34.4507 23.2088C34.4051 23.2088 34.3594 23.1745 34.3594 23.1174V22.6835C34.3594 22.6835 34.3936 22.6149 34.4279 22.6035H34.4736C34.4736 22.6035 34.5535 22.6492 34.5535 22.6835Z" fill="#322F93"/>
<path d="M45.7463 24.2711C44.7526 21.8724 43.5989 20.0107 41.76 17.829C39.4184 15.0192 34.8952 12.7919 34.8495 12.7691C34.8039 12.7462 34.7582 12.7462 34.7125 12.7691C34.6668 12.7919 34.6439 12.8376 34.6439 12.8947C34.6439 12.9062 34.6097 14.7794 33.8215 16.6297C32.7707 19.0741 30.9546 20.3076 28.4074 20.3076C26.6141 20.3076 25.1521 19.7594 24.0556 18.6629C21.9196 16.5155 21.9082 12.9975 21.9082 12.9633C21.9082 12.9176 21.8853 12.8605 21.8511 12.8376C21.8054 12.8148 21.7597 12.8148 21.714 12.8262C21.6797 12.849 18.0475 14.5052 15.7859 17.3836C13.8555 19.8622 12.3935 21.9752 11.5483 24.2482C11.5254 24.3053 11.5483 24.3739 11.5825 24.4081C11.6168 24.431 14.0383 26.4755 17.2022 26.4755C17.6934 26.4755 18.2074 26.4298 18.7214 26.3156C18.7785 26.3042 18.8128 26.2585 18.8356 26.2128C18.8356 26.19 19.1669 25.0706 19.8979 24.1911C19.9436 25.4704 19.8065 27.1609 19.8065 27.1723C19.6123 28.6343 19.8065 29.5366 19.8179 29.5709C19.8294 29.628 19.875 29.6737 19.9322 29.6851C19.9778 29.6851 24.501 30.4161 28.4531 30.4161C32.8278 30.4161 36.6314 29.5823 36.6771 29.5709C36.7228 29.5709 36.7685 29.5138 36.7799 29.4681C36.7913 29.4338 36.9627 28.6457 36.837 27.4464C36.6314 25.8245 36.6543 24.7051 36.7571 23.9398C37.6594 24.9792 37.945 26.1671 37.945 26.1786C37.9678 26.2357 38.0135 26.2814 38.0706 26.2928C42.3311 26.7839 45.6664 24.4653 45.7006 24.4424C45.7577 24.3967 45.7692 24.3282 45.7463 24.2711ZM38.2077 26.0187C38.1049 25.676 37.7279 24.5452 36.8256 23.5743C36.7913 23.5401 36.7571 23.5058 36.7228 23.4715C36.7228 23.4715 36.7114 23.4601 36.6999 23.4601C36.6543 23.4258 36.5971 23.4258 36.5515 23.4487C36.54 23.4487 36.5286 23.4601 36.5172 23.4715C36.4943 23.4944 36.4715 23.5286 36.4715 23.5629C36.4715 23.5972 36.4943 23.62 36.5172 23.6543C36.3687 24.4767 36.323 25.6874 36.5515 27.4807C36.6543 28.4059 36.5515 29.0798 36.5172 29.3082C35.9118 29.4338 32.4166 30.1306 28.4531 30.1306C24.8437 30.1306 20.766 29.5252 20.0806 29.411C20.035 29.1483 19.9436 28.3487 20.0921 27.2065C20.1035 27.0923 20.252 25.2077 20.172 23.9056C20.2406 23.8256 20.3091 23.7571 20.389 23.6886C20.4233 23.6657 20.4347 23.62 20.4347 23.5743C20.4347 23.5401 20.4347 23.5172 20.4119 23.483C20.3662 23.4258 20.2748 23.4144 20.2063 23.4715C20.1834 23.4944 20.1606 23.5172 20.1378 23.5401C20.0921 23.5743 20.0464 23.6086 20.0007 23.6657C19.955 23.7 19.9093 23.7342 19.875 23.7799C19.0755 24.6023 18.6871 25.7331 18.5843 26.0529C15.2034 26.7382 12.3478 24.648 11.8567 24.2597C12.6905 22.0438 14.1297 19.9764 16.0143 17.5663C17.9218 15.122 20.8574 13.5686 21.6341 13.1803C21.6683 14.0141 21.931 16.9267 23.85 18.857C25.0036 20.0107 26.5342 20.5932 28.4074 20.5932C31.046 20.5932 33.0106 19.2568 34.0843 16.7325C34.7467 15.202 34.8838 13.6828 34.9181 13.1232C35.809 13.5801 39.5098 15.5903 41.543 18.0118C43.3362 20.1363 44.467 21.9524 45.4379 24.2711C44.8782 24.6366 41.9199 26.4184 38.2077 26.0187Z" fill="white"/>
<path d="M31.2057 22.1914H30.3949C30.3149 22.1914 30.2578 22.2485 30.2578 22.317V23.5161C30.2578 23.5161 30.2578 23.5504 30.2692 23.5618C30.2921 23.6646 30.3949 23.7445 30.509 23.7217C30.6004 23.7102 30.6689 23.6531 30.6918 23.5618C30.6918 23.5504 30.6918 23.5275 30.6918 23.5047V22.6939C30.6918 22.6254 30.7489 22.5797 30.806 22.5911C30.8516 22.6025 30.8745 22.6368 30.8859 22.6825V23.5047C30.8859 23.5047 30.8859 23.5504 30.8973 23.5618C30.9202 23.6531 30.9887 23.7102 31.08 23.7217C31.1714 23.7331 31.2628 23.6874 31.297 23.6075C31.3084 23.596 31.3084 23.5732 31.3084 23.5618V23.1849L31.3199 22.671V22.3284C31.3199 22.2485 31.2628 22.1914 31.1942 22.1914H31.2057Z" fill="white"/>
<path d="M32.5086 22.6482V22.317C32.4971 22.2485 32.44 22.1914 32.3601 22.1914H31.6635C31.595 22.1914 31.5379 22.2485 31.5379 22.317V22.671L31.5036 23.1849V23.5618L31.4922 23.6303C31.4922 23.6531 31.5036 23.676 31.5264 23.6988C31.5379 23.7217 31.5607 23.7331 31.595 23.7331H31.7891C31.7891 23.7331 31.8462 23.7217 31.8576 23.6988C31.8805 23.676 31.8919 23.6531 31.8919 23.6303V23.6075H32.1431V23.6303C32.1431 23.6303 32.1888 23.7331 32.2459 23.7331H32.44C32.44 23.7331 32.4971 23.7217 32.5086 23.6988C32.5314 23.6874 32.5428 23.6646 32.5428 23.6417V23.4019L32.5086 22.6482ZM32.0175 22.5911C32.0175 22.5911 32.0974 22.6139 32.0974 22.6596C32.0974 22.6596 32.1089 22.671 32.1089 22.6825L32.1317 23.2877C32.1317 23.2877 32.1317 23.3448 32.0974 23.3677C32.0746 23.3905 32.0518 23.4019 32.0175 23.4019C31.9832 23.4019 31.9604 23.3905 31.9376 23.3677C31.9147 23.3448 31.9033 23.3106 31.9033 23.2877L31.9261 22.6825L31.9376 22.6596C31.9376 22.6139 31.9832 22.5911 32.0175 22.5911Z" fill="white"/>
<path d="M33.6023 22.1914H32.86C32.7915 22.1914 32.7344 22.2485 32.7344 22.3284V23.6417C32.7344 23.6417 32.8029 23.7331 32.86 23.7331H33.6023C33.6708 23.7331 33.7393 23.676 33.7393 23.596V23.3677C33.7393 23.3677 33.7165 23.2649 33.6822 23.2306C33.6365 23.1964 33.5909 23.1735 33.5338 23.1735C33.4196 23.1735 33.3282 23.2649 33.3282 23.3677V23.4362C33.3282 23.4362 33.2939 23.5275 33.2368 23.5275C33.1798 23.5275 33.1341 23.4819 33.1341 23.4362V22.6939C33.1341 22.6939 33.1455 22.6482 33.1683 22.6368C33.1683 22.6139 33.2026 22.5911 33.2368 22.5911C33.2711 22.5911 33.2939 22.6025 33.3054 22.6254C33.3168 22.6368 33.3282 22.671 33.3282 22.6939V22.7852C33.3282 22.8994 33.4196 22.9908 33.5338 22.9908C33.648 22.9908 33.7279 22.8994 33.7393 22.7967V22.317C33.7393 22.2485 33.6708 22.1914 33.6023 22.1914Z" fill="white"/>
<path d="M34.791 22.1914H34.1058C34.0373 22.1914 33.9802 22.2485 33.9688 22.3056V23.5618C33.9802 23.6531 34.0715 23.7331 34.1629 23.7331C34.2657 23.7331 34.3456 23.6531 34.357 23.5618V23.4248H34.791C34.8709 23.4248 34.928 23.3677 34.928 23.2991V22.317C34.928 22.2485 34.8709 22.1914 34.791 22.1914ZM34.5512 22.6825V23.1164C34.5512 23.1164 34.5055 23.2078 34.4484 23.2078C34.4027 23.2078 34.357 23.1735 34.357 23.1164V22.6825C34.357 22.6825 34.3913 22.6139 34.4255 22.6025H34.4712C34.4712 22.6025 34.5512 22.6482 34.5512 22.6825Z" fill="white"/>
<path d="M23.4837 12.541L23.4381 13.8771L23.381 15.3046C22.8785 15.2932 22.513 15.2361 22.3874 15.1562C22.2618 15.0648 22.2275 14.391 22.2732 13.82C22.2732 13.3061 22.3075 13.0207 22.3646 12.8494C22.3874 12.7808 22.4331 12.7123 22.4902 12.6666C22.4902 12.6666 22.5816 12.6095 22.6272 12.5981C22.8328 12.541 23.2211 12.541 23.4837 12.541Z" fill="#6ECDF0"/>
<path d="M34.2565 15.1562C34.1423 15.2361 33.754 15.2932 33.2629 15.3046L33.1602 12.541C33.4342 12.541 33.8111 12.541 34.0166 12.5981C34.0623 12.6095 34.108 12.621 34.1537 12.6552C34.1537 12.6552 34.1575 12.659 34.1651 12.6666C34.1651 12.6666 34.2679 12.7808 34.2793 12.8494C34.3364 13.0207 34.3592 13.3061 34.3707 13.8315C34.4163 14.391 34.3821 15.0648 34.2565 15.1562Z" fill="#6ECDF0"/>
<path d="M32.9771 15.4408C32.9771 16.3317 32.9428 16.9942 32.8857 17.4397C32.6687 18.8902 32.4973 19.3586 31.4008 19.3814C30.1672 19.3928 26.4778 19.3928 25.2442 19.3814C24.1477 19.3586 23.9878 18.8902 23.7593 17.4397C23.7022 17.0056 23.668 16.3089 23.668 15.4522L23.7822 12.4025C23.8165 11.9114 23.8507 11.4431 23.885 11.0547C23.8964 10.9748 23.9078 10.8948 23.9078 10.8149C24.0792 9.30716 24.696 9.2272 25.1072 9.17009L25.1871 9.14725C25.4384 9.11299 26.672 9.10156 27.6429 9.10156H28.3739C29.2991 9.10156 31.1381 9.10156 31.4579 9.14725L31.5379 9.17009C31.9491 9.2272 32.5659 9.30716 32.7372 10.8491C32.7829 11.2946 32.8286 11.8314 32.8628 12.4025L32.9771 15.4408Z" fill="#6ECDF0"/>
<path d="M34.6549 13.8203C34.6435 13.2606 34.6092 12.9636 34.5521 12.7694C34.5178 12.6324 34.4379 12.5182 34.3237 12.4382C34.3237 12.4382 34.3199 12.4382 34.3122 12.4382C34.2437 12.3811 34.1638 12.3468 34.0838 12.324C33.8211 12.2669 33.3642 12.2669 33.1358 12.2669C33.1015 11.73 33.0672 11.2389 33.0215 10.8049C32.8274 9.0687 32.0164 8.95448 31.5823 8.89737H31.5024C31.0683 8.81742 28.4755 8.82884 28.3727 8.82884C28.2585 8.82884 25.5743 8.81742 25.1402 8.88595H25.0717C24.6262 8.95448 23.8152 9.0687 23.6211 10.8049C23.6211 10.8734 23.6096 10.9533 23.5982 11.0333C23.564 11.3988 23.5411 11.81 23.5068 12.2669C23.2784 12.2669 22.8215 12.2669 22.5588 12.324C22.4788 12.3468 22.3989 12.3811 22.3189 12.4382C22.2047 12.5296 22.1248 12.6438 22.0905 12.7809C22.0334 12.975 21.9991 13.2834 21.9877 13.8203C21.9763 13.9231 21.9648 14.1058 21.9648 14.3114C21.9648 14.734 22.0105 15.248 22.2276 15.3965C22.4332 15.5564 22.9357 15.5907 23.3812 15.6021C23.3812 16.4359 23.4155 17.0527 23.484 17.4867C23.6896 18.8688 23.8724 19.6569 25.243 19.6798C25.8598 19.6798 27.0934 19.6912 28.327 19.6912C29.5606 19.6912 30.7828 19.6798 31.3996 19.6798C32.0849 19.6684 32.4733 19.4628 32.7131 19.0972C32.953 18.7203 33.0558 18.1835 33.1586 17.4867C33.2271 17.0527 33.2614 16.4359 33.2614 15.6021C33.6954 15.6021 34.198 15.5564 34.415 15.3965C34.7349 15.1681 34.6778 14.1287 34.6549 13.8317V13.8203ZM33.2614 15.3051L33.1586 12.541C33.4327 12.541 33.8097 12.541 34.0153 12.5981C34.061 12.6095 34.1066 12.621 34.1523 12.6552C34.1523 12.6552 34.1561 12.659 34.1638 12.6666C34.1638 12.6666 34.2666 12.7809 34.278 12.8494C34.3351 13.0207 34.3579 13.3063 34.3694 13.8317C34.415 14.3914 34.3808 15.0653 34.2551 15.1566C34.1409 15.2366 33.7526 15.2937 33.2614 15.3051ZM31.3996 19.3828C30.166 19.3942 26.4766 19.3942 25.243 19.3828C24.1465 19.36 23.9866 18.8917 23.7581 17.4411C23.701 17.007 23.6668 16.3103 23.6668 15.4536L23.781 12.4039C23.8152 11.9128 23.8495 11.4445 23.8838 11.0561C23.8952 10.9762 23.9066 10.8962 23.9066 10.8163C24.078 9.30856 24.6947 9.22861 25.1059 9.1715L25.1859 9.14866C25.4372 9.11439 26.6708 9.10297 27.6417 9.10297H28.3727C29.2979 9.10297 31.1369 9.10297 31.4567 9.14866L31.5366 9.1715C31.9478 9.22861 32.5646 9.30856 32.736 10.8505C32.7817 11.296 32.8274 11.8328 32.8616 12.4039L32.9758 15.4422C32.9758 16.3331 32.9416 16.9956 32.8845 17.4411C32.6674 18.8917 32.4961 19.36 31.3996 19.3828ZM22.2732 13.8203C22.2732 13.3063 22.3075 13.0207 22.3646 12.8494C22.3875 12.7809 22.4332 12.7123 22.4903 12.6666C22.4903 12.6666 22.5816 12.6095 22.6273 12.5981C22.8329 12.541 23.2213 12.541 23.484 12.541L23.4383 13.8774L23.3812 15.3051C22.8786 15.2937 22.5131 15.2366 22.3875 15.1566C22.2618 15.0653 22.2276 14.3914 22.2732 13.8203Z" fill="white"/>
<path d="M46.2622 29.2052C45.4856 28.8512 44.4921 28.7712 43.4415 28.6685C42.6992 28.6114 41.9455 28.5771 41.2374 28.5771H41.1004C40.9976 28.3487 40.9862 28.0975 41.0776 27.8234C41.2146 27.4123 41.4887 27.1154 41.8427 27.0012C42.2538 26.8641 42.7563 27.0012 43.3044 27.378C43.6014 27.5836 43.9554 27.7549 44.3322 27.9376C44.9832 28.2459 45.714 28.5999 46.2622 29.2052Z" fill="#6ECDF0"/>
<path d="M46.9122 29.6385C46.3297 28.5765 45.3245 28.0968 44.445 27.6743C44.0795 27.503 43.7368 27.3317 43.4627 27.149C42.686 26.6008 42.092 26.6237 41.7494 26.7379C41.3153 26.8749 40.9726 27.2403 40.8013 27.7314C40.6757 28.1082 40.7099 28.4737 40.8927 28.7934C40.9155 28.8391 40.9612 28.862 41.0069 28.862H41.0183C41.7608 28.8505 42.5946 28.8848 43.417 28.9533C44.5935 29.0561 45.7014 29.1589 46.4553 29.6271C46.5353 29.6842 46.6152 29.7527 46.6952 29.8212C46.7294 29.8441 46.7523 29.8555 46.7865 29.8555C46.8208 29.8555 46.8551 29.8555 46.8779 29.8212C46.935 29.7755 46.9465 29.707 46.9122 29.6385ZM43.4398 28.6678C42.6974 28.6107 41.9435 28.5765 41.2354 28.5765H41.0983C40.9955 28.3481 40.9841 28.0968 41.0754 27.8227C41.2125 27.4116 41.4866 27.1147 41.8407 27.0005C42.2519 26.8635 42.7545 27.0005 43.3028 27.3774C43.5997 27.5829 43.9538 27.7542 44.3308 27.9369C44.9818 28.2453 45.7129 28.5993 46.2611 29.2045C45.4844 28.8505 44.4907 28.7706 43.4398 28.6678Z" fill="white"/>
<path d="M42.9467 37.9429V24.8418C43.0838 23.8253 44.1572 23.8938 44.3971 22.8658C44.6711 21.6665 43.8717 20.8898 43.0838 20.9355C42.5242 20.9698 41.9989 21.3924 41.8276 21.7465C41.6334 21.3924 41.1196 20.9698 40.5714 20.9355C39.7834 20.8898 38.984 21.6665 39.2581 22.8658C39.4865 23.8824 40.56 23.8253 40.697 24.8304V37.9429C40.56 38.9595 39.4865 38.8909 39.2581 39.9075C38.984 41.1068 39.7834 41.8835 40.5714 41.8378C41.131 41.8036 41.6449 41.3809 41.8276 41.0269C42.0103 41.3809 42.5356 41.8036 43.0838 41.8378C43.8717 41.8835 44.6711 41.1068 44.3971 39.9075C44.1687 38.8795 43.0952 38.9481 42.9467 37.9315V37.9429Z" fill="white"/>
<path d="M47.7107 32.6879C47.6536 35.612 46.6484 36.9712 44.3411 37.2339C43.8842 37.2796 42.2509 37.3138 41.5655 37.3024H41.3257C40.1606 37.291 39.4981 37.2453 39.3382 36.2973C39.2697 35.9089 39.3154 35.6234 39.4638 35.4292C39.7037 35.1322 40.1949 35.098 40.6403 35.0637C42.6621 34.9038 42.822 34.7325 42.8105 34.5269C42.7877 34.287 42.5478 34.2071 41.8968 34.2071C41.5998 34.2071 41.2 34.2299 40.7089 34.2527C39.9093 34.287 39.4296 34.1956 39.1783 33.9329C38.9727 33.7387 38.8813 33.4304 38.9042 32.9849C38.927 32.1168 39.5438 32.0483 40.549 32.0369H40.8117C41.9539 32.0026 42.5593 31.877 42.6164 31.6599C42.6164 31.6028 42.6164 31.4886 42.4565 31.3972C42.0909 31.2145 41.2914 31.1231 39.875 31.1117C38.9384 31.1003 38.8699 30.7233 38.847 30.0152C38.8242 29.6611 38.9042 29.0557 39.6009 28.9529C39.9664 28.8958 40.4576 28.873 41.0173 28.8615C41.7711 28.8501 42.5935 28.8844 43.4159 28.9529C44.5924 29.0557 45.7004 29.1585 46.4542 29.6268C46.5342 29.6839 46.6141 29.7525 46.6941 29.821C47.0939 30.1637 47.7564 30.986 47.7107 32.6879Z" fill="#6ECDF0"/>
<path d="M46.8891 29.6044C46.7977 29.5244 46.7063 29.4559 46.6035 29.3873C45.804 28.8848 44.6504 28.782 43.4396 28.6678C42.6172 28.5992 41.772 28.565 41.0067 28.5764C40.4356 28.5878 39.933 28.6106 39.5561 28.6678C38.8936 28.7591 38.5166 29.2731 38.5623 30.027C38.5852 30.6666 38.6194 31.3862 39.8759 31.3976C40.3213 31.3976 41.6006 31.409 42.206 31.6146C41.9433 31.6718 41.4179 31.7289 40.8011 31.7403H40.5498C39.6589 31.7631 38.6537 31.7631 38.6194 32.9739C38.5966 33.4993 38.7108 33.8876 38.9735 34.1389C39.3048 34.4587 39.8302 34.573 40.7211 34.5387C41.3265 34.5044 42.2288 34.4587 42.4687 34.5158C42.3202 34.573 41.8862 34.6758 40.6069 34.7785C40.1386 34.8128 39.5561 34.8585 39.2362 35.2583C39.0421 35.521 38.9735 35.8751 39.0535 36.3434C39.2591 37.5655 40.2642 37.5769 41.3265 37.5884H41.8176C42.5601 37.5884 43.9422 37.5655 44.3762 37.5198C47.5059 37.1543 47.9628 34.7557 47.9971 32.6997C48.0427 30.8722 47.3231 29.9813 46.8891 29.6044ZM41.5664 37.3028H41.3265C40.1614 37.2914 39.4989 37.2457 39.339 36.2977C39.2705 35.9093 39.3162 35.6238 39.4647 35.4296C39.7045 35.1326 40.1957 35.0984 40.6412 35.0641C42.6629 34.9042 42.8228 34.7329 42.8114 34.5273C42.7885 34.2874 42.5487 34.2074 41.8976 34.2074C41.6006 34.2074 41.2008 34.2303 40.7097 34.2531C39.9101 34.2874 39.4304 34.196 39.1791 33.9333C38.9735 33.7391 38.8821 33.4307 38.905 32.9853C38.9278 32.1172 39.5446 32.0487 40.5498 32.0373H40.8125C41.9547 32.003 42.5601 31.8774 42.6172 31.6603C42.6172 31.6032 42.6172 31.489 42.4573 31.3976C42.0918 31.2149 41.2922 31.1235 39.8759 31.1121C38.9393 31.1007 38.8707 30.7237 38.8479 30.0156C38.825 29.6615 38.905 29.0561 39.6017 28.9533C39.9673 28.8962 40.4584 28.8734 41.0181 28.8619C41.772 28.8505 42.5944 28.8848 43.4168 28.9533C44.5932 29.0561 45.7012 29.1589 46.4551 29.6272C46.535 29.6843 46.615 29.7529 46.6949 29.8214C47.0947 30.164 47.7572 30.9864 47.7115 32.6883C47.6544 35.6124 46.6492 36.9716 44.342 37.2343C43.8851 37.28 42.2517 37.3142 41.5664 37.3028Z" fill="white"/>
<path d="M37.6593 43.5859C37.3168 43.5859 37.0312 43.8714 37.0312 44.214C37.0312 44.5566 37.3168 44.8421 37.6593 44.8421C38.0019 44.8421 38.2874 44.5566 38.2874 44.214C38.2874 43.8714 38.0019 43.5859 37.6593 43.5859Z" fill="white"/>
<path d="M49.4141 28.3384C49.4141 28.5325 49.5739 28.6924 49.7681 28.6924C49.9622 28.6924 50.1221 28.5325 50.1221 28.3384C50.1221 28.1443 49.9622 27.9844 49.7681 27.9844C49.5739 27.9844 49.4141 28.1443 49.4141 28.3384Z" fill="white"/>
<path d="M28.0181 3.5293C27.8239 3.5293 27.6641 3.68918 27.6641 3.88331C27.6641 4.07745 27.8239 4.23733 28.0181 4.23733C28.2122 4.23733 28.3721 4.07745 28.3721 3.88331C28.3721 3.68918 28.2122 3.5293 28.0181 3.5293Z" fill="white"/>
<path d="M13.2056 13.2832C13.0114 13.2832 12.8516 13.4431 12.8516 13.6372C12.8516 13.8314 13.0114 13.9912 13.2056 13.9912C13.3997 13.9912 13.5596 13.8314 13.5596 13.6372C13.5596 13.4431 13.3997 13.2832 13.2056 13.2832Z" fill="white"/>
<path d="M7.25343 19.1201C7.75799 19.1201 8.16702 18.7111 8.16702 18.2066C8.16702 17.702 7.75799 17.293 7.25343 17.293C6.74887 17.293 6.33984 17.702 6.33984 18.2066C6.33984 18.7111 6.74887 19.1201 7.25343 19.1201Z" fill="white"/>
<path d="M48.4056 37.9785L47.8347 39.5316L46.293 40.1026L47.8347 40.6736L48.4056 42.2153L48.9766 40.6736L50.5297 40.1026L48.9766 39.5316L48.4056 37.9785Z" fill="white"/>
<path d="M6.1093 31.9355L5.66393 33.1346L4.46484 33.58L5.66393 34.014L6.1093 35.2245L6.55468 34.014L7.75377 33.58L6.55468 33.1346L6.1093 31.9355Z" fill="white"/>
<path d="M48.8163 24.2147L49.2617 23.0156L50.4608 22.5702L49.2617 22.1249L48.8163 20.9258L48.371 22.1249L47.1719 22.5702L48.371 23.0156L48.8163 24.2147Z" fill="white"/>
<path d="M18.4012 5.32227L17.7046 7.21796L15.8203 7.91458L17.7046 8.61119L18.4012 10.5069L19.0978 8.61119L20.9935 7.91458L19.0978 7.21796L18.4012 5.32227Z" fill="white"/>
<path d="M38.9147 11.707C38.6863 11.707 38.4922 11.9012 38.4922 12.1296C38.4922 12.358 38.6863 12.5521 38.9147 12.5521C39.1431 12.5521 39.3373 12.358 39.3373 12.1296C39.3373 11.9012 39.1431 11.707 38.9147 11.707Z" fill="white"/>
<path d="M6.86544 14.266C7.07099 14.266 7.23087 14.1061 7.23087 13.9006C7.23087 13.695 7.07099 13.5352 6.86544 13.5352C6.65988 13.5352 6.5 13.695 6.5 13.9006C6.5 14.1061 6.65988 14.266 6.86544 14.266Z" fill="white"/>
<path d="M7.67702 27.8463C7.67702 27.7778 7.61992 27.7207 7.5514 27.7207C7.48288 27.7207 7.42578 27.7778 7.42578 27.8463C7.42578 27.9148 7.48288 27.9719 7.5514 27.9719C7.61992 27.9719 7.67702 27.9148 7.67702 27.8463Z" fill="white"/>
<path d="M7.5514 39.1426C7.48288 39.1426 7.42578 39.1997 7.42578 39.2682C7.42578 39.3367 7.48288 39.3938 7.5514 39.3938C7.61992 39.3938 7.67702 39.3367 7.67702 39.2682C7.67702 39.1997 7.61992 39.1426 7.5514 39.1426Z" fill="white"/>
<path d="M3.68965 25.5977C3.4841 25.5977 3.32422 25.7575 3.32422 25.9631C3.32422 26.1686 3.4841 26.3285 3.68965 26.3285C3.89521 26.3285 4.05509 26.1686 4.05509 25.9631C4.05509 25.7575 3.89521 25.5977 3.68965 25.5977Z" fill="white"/>
<path d="M9.59294 42.2148C9.25034 42.2148 8.96484 42.5003 8.96484 42.8429C8.96484 43.1855 9.25034 43.471 9.59294 43.471C9.93553 43.471 10.221 43.1855 10.221 42.8429C10.221 42.5003 9.93553 42.2148 9.59294 42.2148Z" fill="white"/>
<path d="M9.83448 21.8037C10.03 21.8037 10.1885 21.6452 10.1885 21.4497C10.1885 21.2542 10.03 21.0957 9.83448 21.0957C9.63897 21.0957 9.48047 21.2542 9.48047 21.4497C9.48047 21.6452 9.63897 21.8037 9.83448 21.8037Z" fill="white"/>
<path d="M50.6359 35.0547C50.2933 35.0547 50.0078 35.3402 50.0078 35.6828C50.0078 36.0254 50.2933 36.3109 50.6359 36.3109C50.9785 36.3109 51.264 36.0254 51.264 35.6828C51.264 35.3402 50.9785 35.0547 50.6359 35.0547Z" fill="white"/>
<path d="M37.8856 36.3672L37.6344 37.0524L36.9492 37.315L37.6344 37.5663L37.8856 38.2515L38.1483 37.5663L38.8335 37.315L38.1483 37.0524L37.8856 36.3672Z" fill="white"/>
<path d="M27.9844 0C12.553 0 0 12.5528 0 27.984C0 36.8932 4.10057 45.0714 11.2509 50.4054L11.5707 49.9714C11.8905 50.2113 12.2103 50.4397 12.5416 50.6567C14.6318 52.0845 16.9277 53.2267 19.3835 54.0377C20.263 54.3346 21.1768 54.5745 22.102 54.7687C23.998 55.1913 25.9512 55.4083 27.9844 55.4083C29.6406 55.4083 31.2626 55.2598 32.8388 54.9743C33.4442 54.86 34.061 54.7458 34.6435 54.5973C37.5676 53.8663 40.3089 52.667 42.7647 51.0908C43.3244 50.7481 43.8612 50.3598 44.3867 49.9714L44.7065 50.4054C51.8454 45.0714 55.9574 36.8932 55.9574 27.984C55.9688 12.5528 43.4158 0 27.9844 0ZM48.6015 43.7921C46.4541 43.7921 44.558 44.9914 43.53 46.7847C42.5248 45.9623 41.2456 45.4711 39.8749 45.4711C38.3672 45.4711 36.9851 46.0536 35.9457 47.0245C34.9177 43.5751 31.1712 41.0165 26.6937 41.0165C22.9929 41.0165 19.7832 42.7641 18.1956 45.3341C17.1105 44.763 15.8769 44.4546 14.5747 44.4546C12.9185 44.4546 11.3994 44.9571 10.1201 45.8252C9.21771 45.117 8.08692 44.7059 6.88759 44.6602C3.15253 39.9657 1.08511 34.1633 1.08511 27.984C1.08511 13.1582 13.1584 1.08509 27.9844 1.08509C42.8104 1.08509 54.8837 13.1468 54.8837 27.984C54.8837 33.8321 53.0447 39.3603 49.6751 43.9063C49.3211 43.8378 48.967 43.7921 48.6015 43.7921Z" fill="white"/>
<path d="M48.6008 56.1394H47.5042L46.3163 52.69C47.1387 52.5186 47.7669 51.7876 47.7669 50.9081V50.7025C47.7669 49.6974 46.9445 48.875 45.9394 48.875H10.028C9.02283 48.875 8.20043 49.6974 8.20043 50.7025V50.9081C8.20043 51.7876 8.81723 52.5186 9.65105 52.69L8.46315 56.1394H7.36661C6.36146 56.1394 5.53906 56.9618 5.53906 57.9669V58.1725C5.53906 59.1777 6.36146 60.0001 7.36661 60.0001H48.6008C49.6059 60.0001 50.4283 59.1777 50.4283 58.1725V57.9669C50.4283 56.9618 49.6059 56.1394 48.6008 56.1394Z" fill="#6ECDF0"/>
<path d="M44.5 50.1081H11.3871C11.3071 50.1081 11.25 50.051 11.25 49.971C11.25 49.8911 11.3071 49.834 11.3871 49.834H44.5C44.58 49.834 44.6371 49.8911 44.6371 49.971C44.6371 50.051 44.58 50.1081 44.5 50.1081Z" fill="white"/>
<g opacity="0.65">
<path d="M35.9563 6.04192C35.6365 5.92772 35.3053 5.81352 34.9742 5.71074C34.3803 5.5166 33.7294 5.8592 33.5467 6.45303C33.3525 7.05828 33.6951 7.6978 34.289 7.88051C34.5859 7.97187 34.8828 8.07465 35.1797 8.17743C35.3053 8.22311 35.4424 8.24595 35.568 8.24595C36.0362 8.24595 36.4702 7.96045 36.6415 7.49224C36.8584 6.89841 36.5501 6.24747 35.9563 6.0305V6.04192Z" fill="white"/>
<path d="M47.357 14.9734C45.2439 11.8324 42.3769 9.22815 39.0531 7.43489C38.5048 7.13791 37.808 7.34351 37.5111 7.89177C37.2141 8.45145 37.4197 9.13677 37.9679 9.43374C40.9606 11.0557 43.5534 13.4086 45.4609 16.2413C45.6779 16.5725 46.0434 16.7438 46.409 16.7438C46.626 16.7438 46.8544 16.6753 47.0486 16.5497C47.574 16.1956 47.7111 15.4874 47.357 14.962V14.9734Z" fill="white"/>
</g>
<path d="M12.3242 54.3333C12.3242 52.8373 13.215 51.9922 14.5739 51.9922C15.853 51.9922 16.5838 52.666 16.5838 53.2598C16.5838 53.6823 16.2983 53.8765 16.0128 53.8765C15.8415 53.8765 15.6702 53.7965 15.5332 53.6366C15.3505 53.3968 15.0992 53.2255 14.5968 53.2255C13.923 53.2255 13.5119 53.4882 13.5119 54.3218C13.5119 55.1555 13.9458 55.4638 14.6539 55.4638C15.202 55.4638 15.419 55.2469 15.5903 55.0527C15.7273 54.9043 15.8644 54.7786 16.1042 54.7786C16.3669 54.7786 16.6295 54.9842 16.6295 55.3496C16.6295 56.0805 15.7159 56.6972 14.6196 56.6972C13.1807 56.6972 12.3356 55.795 12.3356 54.3104L12.3242 54.3333Z" fill="white"/>
<path d="M17.0977 54.8581C17.0977 53.7732 17.7029 53.0195 18.8792 53.0195C20.0554 53.0195 20.6607 53.7732 20.6607 54.8581C20.6607 55.943 20.0554 56.7082 18.8792 56.7082C17.7029 56.7082 17.0977 55.9316 17.0977 54.8581ZM19.6214 54.8581C19.6214 54.3671 19.3702 54.1387 18.8906 54.1387C18.4109 54.1387 18.1483 54.3671 18.1483 54.8581C18.1483 55.3492 18.3995 55.6118 18.8906 55.6118C19.3816 55.6118 19.6329 55.372 19.6329 54.8581H19.6214Z" fill="white"/>
<path d="M21.201 56.1606V54.3677L21.1324 53.6254C21.0982 53.317 21.3152 53.0544 21.6806 53.0544C21.9547 53.0544 22.1831 53.2371 22.2059 53.534L22.2402 54.0936H22.2859C22.4 53.2714 22.9368 53.043 23.4164 53.043C24.1016 53.043 24.5127 53.4769 24.5127 54.2649V56.1834C24.5127 56.526 24.2272 56.743 23.9532 56.743C23.6791 56.743 23.3936 56.526 23.3936 56.1834V54.6532C23.3936 54.3563 23.268 54.1735 22.9596 54.1735C22.6056 54.1735 22.3315 54.4134 22.3315 54.7217V56.1834C22.3315 56.5146 22.0689 56.743 21.7605 56.743C21.4522 56.743 21.2124 56.526 21.2124 56.1834L21.201 56.1606Z" fill="white"/>
<path d="M27.5151 55.7714C28.2345 55.7714 28.6571 56.0684 28.6571 56.7193C28.6571 57.3702 28.1889 57.9869 26.6929 57.9869C25.5737 57.9869 24.957 57.8042 24.957 57.1761C24.957 56.8107 25.2425 56.6051 25.6879 56.5823V56.5137C25.174 56.4681 24.9913 56.194 24.9913 55.8971C24.9913 55.4745 25.311 55.3146 25.7107 55.269C25.3339 55.0977 25.1512 54.698 25.1512 54.2754C25.1512 53.476 25.7907 53.0192 26.7385 53.0192C26.9898 53.0192 27.4009 53.0649 27.6521 53.1677L28.0975 52.9736C28.4401 52.8137 28.7713 52.9736 28.7713 53.3618C28.7713 53.6359 28.6 53.8301 28.3259 53.8072L27.9034 53.7615V53.8186C28.2231 53.8986 28.3373 54.1727 28.3373 54.4239C28.3373 55.189 27.5836 55.5088 26.7728 55.5088C26.4759 55.5088 26.2132 55.4745 26.0077 55.3946C25.9277 55.4288 25.8706 55.5202 25.8706 55.6116C25.8706 55.7029 25.9734 55.7714 26.179 55.7714H27.5037H27.5151ZM27.5836 56.7421C27.5836 56.5823 27.4009 56.5708 27.1953 56.5708H26.0077C26.0077 56.5708 25.882 56.6279 25.882 56.6964C25.882 56.9705 26.2246 57.0162 26.6814 57.0162C27.2296 57.0162 27.5836 56.9248 27.5836 56.7421ZM26.0762 54.3097C26.0762 54.5724 26.316 54.6637 26.7271 54.6637C27.0354 54.6637 27.4009 54.6066 27.4009 54.3097C27.4009 54.047 27.0925 53.9671 26.7271 53.9671C26.3503 53.9671 26.0762 54.047 26.0762 54.3097Z" fill="white"/>
<path d="M29.24 56.1609V54.368L29.1715 53.6257C29.1372 53.3173 29.3542 53.0547 29.7197 53.0547C29.9937 53.0547 30.2336 53.2374 30.245 53.5686L30.2792 54.1967H30.3592C30.4049 53.3402 30.8274 53.0661 31.17 53.0661C31.5126 53.0661 31.6953 53.3288 31.6953 53.6828C31.6953 54.1053 31.4441 54.4708 30.9987 54.4365C30.6447 54.4137 30.3706 54.6078 30.3706 54.9961V56.1723C30.3706 56.5035 30.1079 56.7319 29.7996 56.7319C29.4913 56.7319 29.2514 56.5149 29.2514 56.1723L29.24 56.1609Z" fill="white"/>
<path d="M31.8434 55.6121C31.8434 55.0069 32.3117 54.6415 33.0768 54.6415C33.6935 54.6415 33.9447 54.8698 34.0589 55.1439H34.0817V54.6529C34.0817 54.3217 33.8419 54.139 33.4651 54.139C33.1682 54.139 33.0311 54.2189 32.9169 54.3331C32.8027 54.4359 32.6999 54.5729 32.4487 54.5729C32.1289 54.5729 31.9462 54.3331 31.9462 54.0476C31.9462 53.351 32.7913 53.0312 33.545 53.0312C34.4929 53.0312 35.1781 53.4195 35.1781 54.4816V55.5322L35.2466 56.0575C35.3037 56.4572 35.0182 56.697 34.7327 56.697C34.4243 56.697 34.2188 56.5143 34.1731 56.2288L34.116 55.8405H34.0703C33.9675 56.3773 33.545 56.6856 32.8827 56.6856C32.2546 56.6742 31.832 56.2973 31.832 55.5893L31.8434 55.6121ZM34.1046 55.5094C34.1046 55.3266 33.8419 55.2353 33.5108 55.2353C33.1796 55.2353 32.9283 55.3152 32.9283 55.5208C32.9283 55.7263 33.1682 55.7949 33.5108 55.7949C33.8077 55.7949 34.1046 55.7035 34.1046 55.5094Z" fill="white"/>
<path d="M36.0379 55.4404V54.207H35.9009C35.604 54.2298 35.3984 53.9672 35.3984 53.6817C35.3984 53.3962 35.6154 53.1335 35.9009 53.145H36.0722V52.7909C36.0722 52.4826 36.312 52.2656 36.6318 52.2656C36.9744 52.2656 37.1799 52.5054 37.1685 52.8252V53.1678L37.6367 53.1335C37.9451 53.1221 38.1506 53.3619 38.1506 53.6589C38.1506 53.9558 37.9336 54.2298 37.6367 54.207L37.1685 54.1842V55.1663C37.1685 55.4404 37.3056 55.5545 37.4426 55.5545C37.5568 55.5545 37.671 55.5203 37.7509 55.4632C37.8309 55.4175 37.888 55.4061 37.9451 55.4061C38.1278 55.4061 38.2648 55.566 38.2648 55.8515C38.2648 56.4225 37.7395 56.708 37.1343 56.708C36.529 56.708 36.0379 56.3768 36.0379 55.4404Z" fill="white"/>
<path d="M38.5938 55.8405C38.5938 55.555 38.8221 55.3152 39.062 55.3152C39.2333 55.3152 39.336 55.4066 39.4617 55.4979C39.633 55.6121 39.8043 55.7149 40.1925 55.7149C40.5808 55.7149 40.8435 55.6807 40.8435 55.4523C40.8435 55.2581 40.4095 55.2353 40.0441 55.2124C39.3132 55.1553 38.6965 55.0183 38.6965 54.1732C38.6965 53.4538 39.2675 53.0312 40.261 53.0312C41.1518 53.0312 41.8027 53.3167 41.8027 53.8421C41.8027 54.1276 41.5743 54.3674 41.3231 54.3674C41.2089 54.3674 41.0947 54.3217 41.0033 54.2303C40.8549 54.0819 40.6379 54.0248 40.3067 54.0248C39.9413 54.0248 39.7357 54.1161 39.7357 54.2532C39.7357 54.4587 40.0441 54.4702 40.4894 54.5044C41.1746 54.5501 41.8827 54.6529 41.8827 55.4523C41.8827 56.2517 41.1632 56.697 40.2496 56.697C39.1762 56.697 38.6052 56.3773 38.6052 55.8291L38.5938 55.8405Z" fill="white"/>
<path d="M42.6264 54.7212L42.3524 52.9055C42.2153 52.3345 42.5351 51.9805 42.9805 51.9805C43.4258 51.9805 43.7456 52.3345 43.6086 52.9055L43.3345 54.7212C43.2888 54.9496 43.1403 55.0753 42.9805 55.0753C42.8206 55.0753 42.6721 54.9496 42.6264 54.7212ZM42.3295 56.0003C42.3295 55.6006 42.5693 55.3151 42.9805 55.3151C43.3916 55.3151 43.6314 55.6006 43.6314 56.0003C43.6314 56.4 43.3802 56.674 42.9805 56.674C42.5808 56.674 42.3295 56.4 42.3295 56.0003Z" fill="white"/>
<defs>
<linearGradient id="paint0_linear_3373_22683" x1="19.8961" y1="46.0766" x2="17.3147" y2="11.4907" gradientUnits="userSpaceOnUse">
<stop stop-color="white"/>
<stop offset="1" stop-color="white" stop-opacity="0"/>
</linearGradient>
</defs>
</svg>
