<svg width="56" height="60" viewBox="0 0 56 60" fill="none" xmlns="http://www.w3.org/2000/svg">
<path d="M44.0583 49.5363L44.3895 49.9703C39.8216 53.3969 34.1346 55.43 27.9793 55.43C21.8241 55.43 16.1485 53.4083 11.5692 49.9703L11.9004 49.5363C5.02574 44.4078 1.08594 36.538 1.08594 27.9829C1.08594 13.1571 13.1566 1.08398 27.9793 1.08398C42.8021 1.08398 54.8728 13.1457 54.8728 27.9829C54.8728 36.538 50.933 44.4078 44.0583 49.5363Z" fill="#33333A"/>
<path opacity="0.15" d="M38.506 53.3201C35.2742 54.6793 31.7113 55.4218 27.977 55.4218C21.8218 55.4218 16.1462 53.4001 11.5669 49.9735C4.87494 44.9706 0.546875 36.9866 0.546875 27.986C0.546875 13.3773 11.9552 1.44123 26.344 0.607422C16.4203 4.71935 9.44283 14.508 9.44283 25.9301C9.44283 34.9306 13.7709 42.9146 20.4743 47.9289C25.0421 51.3441 30.7292 53.3772 36.8844 53.3772C37.4325 53.3772 37.9693 53.3772 38.5174 53.3201H38.506Z" fill="url(#paint0_linear_3373_22676)"/>
<g opacity="0.8">
<path d="M30.2058 13.2383H21.7552C19.9966 13.2383 18.6719 14.7117 18.6719 16.6763V39.1435C18.6719 41.0738 20.0651 42.5244 21.9265 42.5244C23.7879 42.5244 25.1811 41.0738 25.1811 39.1435V34.2663C25.1811 33.9921 25.4095 33.7751 25.6722 33.7751H30.1601C36.5666 33.7751 40.7005 29.686 40.7005 23.3582C40.7005 17.0304 36.6808 13.2383 30.2058 13.2383ZM29.3836 27.4701H26.7684C25.8891 27.4701 25.1811 26.762 25.1811 25.8825V21.4736C25.1811 20.5941 25.8891 19.8859 26.7684 19.8859H29.4292C31.8845 19.8859 34.4082 20.3314 34.4082 23.6095C34.4082 26.1794 32.7181 27.4701 29.3836 27.4701Z" fill="#454A60"/>
<path d="M39.4913 16.1185C39.4 16.0271 39.2972 15.9471 39.1944 15.8558C39.1031 15.7644 39.0117 15.6844 38.9089 15.6045C38.8632 15.5588 38.8061 15.5017 38.7605 15.4674C36.7506 13.4114 33.8043 12.2578 30.2071 12.2578H21.7565C19.4269 12.2578 17.6797 14.1539 17.6797 16.6781V39.1453C17.6797 40.6302 18.3649 41.9208 19.4383 42.709C19.4383 42.7204 19.4497 42.7204 19.4497 42.7204C19.5297 42.8118 19.6325 42.8917 19.7352 42.9831C19.8266 43.0745 19.9294 43.1544 20.0207 43.2458C20.7858 44.0568 21.8707 44.5593 23.0812 44.5593C25.4565 44.5593 27.3293 42.6404 27.3293 40.1847V35.8101H31.3148C37.0589 35.8101 42.8487 32.2806 42.8487 24.3994C42.8487 20.9043 41.6268 18.0602 39.4913 16.1185ZM30.1614 33.7769H25.6735C25.4108 33.7769 25.1824 33.9939 25.1824 34.2681V39.1453C25.1824 41.0756 23.7892 42.5262 21.9278 42.5262C20.0664 42.5262 18.6732 41.0756 18.6732 39.1453V16.6781C18.6732 14.7136 19.9979 13.2401 21.7565 13.2401H30.2071C36.6821 13.2401 40.7018 17.1236 40.7018 23.36C40.7018 29.5965 36.5679 33.7769 30.1614 33.7769Z" fill="#B4BCD0"/>
<path d="M29.4317 19.8867H26.7709C25.8916 19.8867 25.1836 20.5949 25.1836 21.4744V25.8833C25.1836 26.7628 25.8916 27.4709 26.7709 27.4709H29.386C32.7206 27.4709 34.4107 26.1803 34.4107 23.6103C34.4107 20.3322 31.887 19.8867 29.4317 19.8867ZM33.4172 23.6103C33.4172 24.9467 32.9604 26.4887 29.386 26.4887H27.3305V22.5252C27.3305 22.194 27.5932 21.9198 27.9243 21.9198H30.5851C31.7271 21.9198 32.5721 22.0341 33.1888 22.2968C33.3487 22.6509 33.4172 23.0849 33.4172 23.6103Z" fill="#B4BCD0"/>
</g>
<path opacity="0.8" d="M13.533 41.9199C13.1561 41.9199 12.8477 42.2283 12.8477 42.6052C12.8477 42.9822 13.1561 43.2906 13.533 43.2906C13.9099 43.2906 14.2183 42.9822 14.2183 42.6052C14.2183 42.2283 13.9099 41.9199 13.533 41.9199Z" fill="#B4BCD0"/>
<path opacity="0.8" d="M43.6438 33.4888C43.9865 33.4888 44.2721 33.2033 44.2721 32.8606C44.2721 32.518 43.9865 32.2324 43.6438 32.2324C43.3012 32.2324 43.0156 32.518 43.0156 32.8606C43.0156 33.2033 43.3012 33.4888 43.6438 33.4888Z" fill="#B4BCD0"/>
<path opacity="0.8" d="M42.7655 41.3145C42.4343 41.3145 42.1602 41.5886 42.1602 41.9198C42.1602 42.2511 42.4343 42.5252 42.7655 42.5252C43.0968 42.5252 43.3709 42.2511 43.3709 41.9198C43.3709 41.5886 43.0968 41.3145 42.7655 41.3145Z" fill="#B4BCD0"/>
<path opacity="0.8" d="M21.4491 6.15625C21.1179 6.15625 20.8438 6.43038 20.8438 6.76162C20.8438 7.09286 21.1179 7.36699 21.4491 7.36699C21.7804 7.36699 22.0545 7.09286 22.0545 6.76162C22.0545 6.43038 21.7804 6.15625 21.4491 6.15625Z" fill="#B4BCD0"/>
<path opacity="0.8" d="M51.3747 29.9941C50.952 29.9941 50.6094 30.3368 50.6094 30.7594C50.6094 31.182 50.952 31.5247 51.3747 31.5247C51.7973 31.5247 52.1399 31.182 52.1399 30.7594C52.1399 30.3368 51.7973 29.9941 51.3747 29.9941Z" fill="#B4BCD0"/>
<path opacity="0.8" d="M5.42375 24.9022C5.54992 24.9022 5.65219 24.7999 5.65219 24.6738C5.65219 24.5476 5.54992 24.4453 5.42375 24.4453C5.29759 24.4453 5.19531 24.5476 5.19531 24.6738C5.19531 24.7999 5.29759 24.9022 5.42375 24.9022Z" fill="#B4BCD0"/>
<path opacity="0.8" d="M13.3735 36.1748C13.9034 36.1748 14.333 35.7452 14.333 35.2153C14.333 34.6854 13.9034 34.2559 13.3735 34.2559C12.8436 34.2559 12.4141 34.6854 12.4141 35.2153C12.4141 35.7452 12.8436 36.1748 13.3735 36.1748Z" fill="#B4BCD0"/>
<path opacity="0.8" d="M26.0689 8.74805C25.8748 8.74805 25.7148 8.90796 25.7148 9.10213C25.7148 9.2963 25.8748 9.45621 26.0689 9.45621C26.2631 9.45621 26.423 9.2963 26.423 9.10213C26.423 8.90796 26.2631 8.74805 26.0689 8.74805Z" fill="#B4BCD0"/>
<path opacity="0.8" d="M36.0026 37.8887C35.146 37.8887 34.4492 38.5854 34.4492 39.4421C34.4492 40.2987 35.146 40.9955 36.0026 40.9955C36.8593 40.9955 37.556 40.2987 37.556 39.4421C37.556 38.5854 36.8593 37.8887 36.0026 37.8887Z" fill="#B4BCD0"/>
<path opacity="0.8" d="M47.7327 23.3111C47.9383 23.3111 48.0982 23.1512 48.0982 22.9456C48.0982 22.74 47.9383 22.5801 47.7327 22.5801C47.5271 22.5801 47.3672 22.74 47.3672 22.9456C47.3672 23.1512 47.5271 23.3111 47.7327 23.3111Z" fill="#B4BCD0"/>
<path opacity="0.8" d="M8.34434 19.9875C8.83549 19.9875 9.22384 19.5877 9.22384 19.108C9.22384 18.6283 8.82407 18.2285 8.34434 18.2285C7.86462 18.2285 7.46484 18.6283 7.46484 19.108C7.46484 19.5877 7.86462 19.9875 8.34434 19.9875Z" fill="#B4BCD0"/>
<path opacity="0.8" d="M12.5841 27.1046C12.5841 26.8761 12.4014 26.6934 12.1729 26.6934C11.9445 26.6934 11.7617 26.8761 11.7617 27.1046C11.7617 27.333 11.9445 27.5157 12.1729 27.5157C12.4014 27.5157 12.5841 27.333 12.5841 27.1046Z" fill="#B4BCD0"/>
<path opacity="0.8" d="M6.69145 28.6348C6.69145 28.3492 6.46301 28.1094 6.16604 28.1094C5.86907 28.1094 5.64062 28.3378 5.64062 28.6348C5.64062 28.9318 5.86907 29.1602 6.16604 29.1602C6.46301 29.1602 6.69145 28.9318 6.69145 28.6348Z" fill="#B4BCD0"/>
<path opacity="0.8" d="M46.2298 35.6699L45.5331 37.5546L43.6484 38.2513L45.5331 38.9595L46.2298 40.8441L46.938 38.9595L48.8226 38.2513L46.938 37.5546L46.2298 35.6699Z" fill="#B4BCD0"/>
<path opacity="0.8" d="M7.71899 34.3672L7.27353 35.5665L6.07422 36.012L7.27353 36.4574L7.71899 37.6567L8.16445 36.4574L9.36377 36.012L8.16445 35.5665L7.71899 34.3672Z" fill="#B4BCD0"/>
<path opacity="0.8" d="M13.3741 11.3652L12.6773 13.2499L10.7812 13.9466L12.6773 14.6548L13.3741 16.5394L14.0708 14.6548L15.9554 13.9466L14.0708 13.2499L13.3741 11.3652Z" fill="#B4BCD0"/>
<path opacity="0.8" d="M29.4949 4.80859L29.2322 5.50534L28.5469 5.75662L29.2322 6.00791L29.4949 6.70465L29.7462 6.00791L30.4315 5.75662L29.7462 5.50534L29.4949 4.80859Z" fill="#B4BCD0"/>
<path d="M35.9489 6.04394C35.6291 5.92972 35.2979 5.8155 34.9666 5.7127C34.3727 5.51853 33.7216 5.86119 33.5389 6.45513C33.3447 7.0605 33.6874 7.70014 34.2813 7.88289C34.5783 7.97427 34.8753 8.07706 35.1722 8.17986C35.2979 8.22555 35.4349 8.24839 35.5606 8.24839C36.0289 8.24839 36.4629 7.96284 36.6342 7.49454C36.8513 6.90059 36.5429 6.24954 35.9489 6.03252V6.04394Z" fill="white"/>
<path d="M46.3992 16.7553C46.6161 16.7553 46.8445 16.6867 47.0387 16.5611C47.564 16.207 47.701 15.4988 47.347 14.9734C45.2344 11.8324 42.368 9.22815 39.0449 7.43489C38.4967 7.13791 37.8001 7.34351 37.5032 7.89177C37.2063 8.45145 37.4119 9.13677 37.96 9.43374C40.952 11.0557 43.5442 13.4086 45.4513 16.2413C45.6683 16.5725 46.0337 16.7438 46.3992 16.7438V16.7553Z" fill="white"/>
<path d="M55.9566 27.984C55.9566 12.5528 43.4063 0 27.9783 0C12.5503 0 0 12.5528 0 27.984C0 36.8932 4.09967 45.0714 11.2484 50.4054L11.5682 49.9714C11.8879 50.2113 12.2077 50.4397 12.5388 50.6567C14.0348 51.6847 15.645 52.5528 17.3351 53.261C18.9453 56.2764 22.12 58.3323 25.7743 58.3323C28.1838 58.3323 30.3764 57.4414 32.0551 55.968C33.4369 57.2701 35.2983 58.0696 37.3424 58.0696C41.6248 58.0696 45.0964 54.5973 45.0964 50.3141C45.0964 50.2455 45.0964 50.1656 45.0964 50.0971C52.0053 44.763 55.968 36.7218 55.968 27.9726L55.9566 27.984ZM37.3424 42.5699C36.0292 42.5699 34.7958 42.9012 33.711 43.4723C31.998 40.9137 29.086 39.2347 25.7743 39.2347C21.8916 39.2347 18.5684 41.5534 17.0725 44.8658C16.2845 44.6031 15.4394 44.4431 14.5601 44.4431C12.9043 44.4431 11.3854 44.9457 10.1064 45.8138C9.20428 45.1056 8.07373 44.6944 6.87466 44.6487C3.15184 39.9657 1.08487 34.1633 1.08487 27.984C1.08487 13.1582 13.1555 1.08509 27.9783 1.08509C42.8011 1.08509 54.8717 13.1468 54.8717 27.984C54.8717 33.8321 53.0331 39.3603 49.6643 43.9063C49.3103 43.8378 48.9563 43.7921 48.5909 43.7921C46.6838 43.7921 44.9822 44.7401 43.9088 46.2021C42.5384 44.0205 40.1174 42.5699 37.3539 42.5699H37.3424Z" fill="white"/>
<path d="M48.5875 56.1375H47.4912L46.3035 52.688C47.1257 52.5167 47.7538 51.7857 47.7538 50.9062V50.7006C47.7538 49.6954 46.9316 48.873 45.9267 48.873H10.0231C9.01817 48.873 8.19595 49.6954 8.19595 50.7006V50.9062C8.19595 51.7857 8.81261 52.5167 9.64625 52.688L8.4586 56.1375H7.36231C6.35738 56.1375 5.53516 56.9598 5.53516 57.965V58.1706C5.53516 59.1757 6.35738 59.9981 7.36231 59.9981H48.5875C49.5924 59.9981 50.4146 59.1757 50.4146 58.1706V57.965C50.4146 56.9598 49.5924 56.1375 48.5875 56.1375Z" fill="#B4BCD0"/>
<path d="M44.4889 50.1081H11.3831C11.3032 50.1081 11.2461 50.051 11.2461 49.971C11.2461 49.8911 11.3032 49.834 11.3831 49.834H44.4889C44.5688 49.834 44.6259 49.8911 44.6259 49.971C44.6259 50.051 44.5688 50.1081 44.4889 50.1081Z" fill="white"/>
<path d="M18.3281 56.2521V52.8026C18.3281 52.46 18.568 52.1973 18.8764 52.1973H20.1785C21.2407 52.1973 21.869 52.8483 21.869 53.8306C21.869 54.9271 21.1037 55.5097 20.1785 55.5097H19.4932V56.2635C19.4932 56.6062 19.2305 56.8575 18.9221 56.8575C18.6137 56.8575 18.351 56.6062 18.351 56.2635L18.3281 56.2521ZM19.4818 54.3903H20.0529C20.4869 54.3903 20.7496 54.2532 20.7496 53.8763C20.7496 53.4765 20.4869 53.3852 20.0643 53.3852H19.4932V54.4017L19.4818 54.3903Z" fill="white"/>
<path d="M22.3474 55.6257V53.7296C22.3474 53.3869 22.6215 53.1699 22.907 53.1699C23.1926 53.1699 23.4667 53.3869 23.4667 53.7296V55.2373C23.4667 55.5343 23.5924 55.717 23.9122 55.717C24.2663 55.717 24.529 55.4772 24.529 55.1688V53.7296C24.529 53.3869 24.7917 53.1699 25.1001 53.1699C25.4085 53.1699 25.6483 53.3869 25.6483 53.7296V55.58L25.7283 56.2767C25.774 56.5851 25.5455 56.8478 25.18 56.8478C24.9059 56.8478 24.6775 56.6879 24.666 56.3795L24.6203 55.797H24.5632C24.449 56.6194 23.9236 56.8592 23.4325 56.8592C22.7471 56.8592 22.3359 56.4252 22.3359 55.6371L22.3474 55.6257Z" fill="white"/>
<path d="M26.3683 56.2194L26.4254 55.4769V52.6671C26.4254 52.313 26.711 52.1074 26.9851 52.1074C27.2821 52.1074 27.5448 52.3244 27.5448 52.6671V53.2382C27.5448 53.5009 27.5105 53.855 27.442 54.2662H27.5219C27.659 53.5238 28.1387 53.1468 28.7098 53.1468C29.4751 53.1468 29.9891 53.638 29.9891 54.9401C29.9891 56.2422 29.3609 56.8133 28.7098 56.8133C28.1159 56.8133 27.6476 56.5278 27.579 55.7168H27.4877L27.4648 56.2993C27.442 56.6762 27.145 56.8247 26.8823 56.8247C26.5967 56.8247 26.3226 56.5963 26.3683 56.2079V56.2194ZM28.8811 54.9744C28.8811 54.4832 28.607 54.3233 28.2072 54.3233C27.7047 54.3233 27.4991 54.5289 27.4991 54.9744C27.4991 55.397 27.7161 55.6254 28.2187 55.6254C28.6184 55.6254 28.8926 55.4541 28.8926 54.9629L28.8811 54.9744Z" fill="white"/>
<path d="M31.324 52.1973C31.5525 52.1973 31.7581 52.3686 31.7581 52.6427V56.2864C31.7581 56.6176 31.4839 56.846 31.1984 56.846C30.9014 56.846 30.6387 56.629 30.6387 56.2864V53.3737C30.296 53.328 30.1133 53.0653 30.1133 52.7798C30.1133 52.4714 30.3417 52.1973 30.7072 52.1973H31.324Z" fill="white"/>
<path d="M33.3595 53.249C33.5879 53.249 33.8049 53.4203 33.8049 53.6944V56.2872C33.8049 56.6299 33.5308 56.8469 33.2453 56.8469C32.9597 56.8469 32.6856 56.6299 32.6856 56.2872V54.414C32.3315 54.3797 32.1602 54.1056 32.1602 53.8201C32.1602 53.5117 32.3886 53.2375 32.7541 53.2375H33.3709L33.3595 53.249ZM32.5485 52.4266C32.5485 52.0953 32.7427 51.8555 33.1996 51.8555C33.6564 51.8555 33.8506 52.0953 33.8506 52.4151C33.8506 52.735 33.645 52.9862 33.1996 52.9862C32.7541 52.9862 32.5485 52.7464 32.5485 52.4266Z" fill="white"/>
<path d="M34.3633 54.9632C34.3633 53.8552 35.0258 53.1699 36.1337 53.1699C36.8076 53.1699 37.5843 53.4897 37.5843 54.0608C37.5843 54.3236 37.3787 54.5863 37.116 54.5863C36.9675 54.5863 36.8647 54.5291 36.7505 54.4606C36.602 54.3692 36.4307 54.2779 36.168 54.2779C35.8253 54.2779 35.4484 54.4263 35.4484 54.986C35.4484 55.5457 35.8481 55.7285 36.2251 55.7285C36.4535 55.7285 36.6248 55.6371 36.7619 55.5571C36.899 55.4772 37.0132 55.4201 37.1617 55.4201C37.4472 55.4201 37.6186 55.6942 37.6186 55.9455C37.6186 56.4366 36.9447 56.8364 36.1794 56.8364C35.0372 56.8364 34.3633 56.1968 34.3633 54.9518V54.9632Z" fill="white"/>
<defs>
<linearGradient id="paint0_linear_3373_22676" x1="19.8919" y1="46.0785" x2="17.31" y2="11.4927" gradientUnits="userSpaceOnUse">
<stop stop-color="white"/>
<stop offset="1" stop-color="white" stop-opacity="0"/>
</linearGradient>
</defs>
</svg>
