<svg width="56" height="60" viewBox="0 0 56 60" fill="none" xmlns="http://www.w3.org/2000/svg">
<path d="M44.0501 49.5382L44.3812 49.9723C39.8142 53.3989 34.1283 55.432 27.9742 55.432C21.8202 55.432 16.1457 53.4103 11.5672 49.9723L11.8983 49.5382C5.02499 44.4097 1.08594 36.5399 1.08594 27.9848C1.08594 13.159 13.1543 1.08594 27.9742 1.08594C42.7942 1.08594 54.8625 13.1476 54.8625 27.9848C54.8625 36.5399 50.9235 44.4097 44.0501 49.5382Z" fill="#17171E" fill-opacity="0.6"/>
<path opacity="0.15" d="M38.4988 53.3182C35.2676 54.6774 31.7053 55.4198 27.9718 55.4198C21.8178 55.4198 16.1432 53.3981 11.5648 49.9715C4.87412 44.9687 0.546875 36.9847 0.546875 27.9841C0.546875 13.3753 11.953 1.43928 26.3391 0.605469C16.4173 4.7174 9.44114 14.5061 9.44114 25.9281C9.44114 34.9287 13.7684 42.9127 20.4705 47.927C25.0375 51.3422 30.7234 53.3753 36.8775 53.3753C37.4255 53.3753 37.9622 53.3753 38.5102 53.3182H38.4988Z" fill="url(#paint0_linear_3373_22676)"/>
<g opacity="0.8">
<path d="M30.1997 13.2383H21.7507C19.9924 13.2383 18.668 14.7117 18.668 16.6763V39.1435C18.668 41.0738 20.0609 42.5244 21.922 42.5244C23.783 42.5244 25.176 41.0738 25.176 39.1435V34.2663C25.176 33.9921 25.4043 33.7751 25.6669 33.7751H30.154C36.5593 33.7751 40.6924 29.686 40.6924 23.3582C40.6924 17.0304 36.6734 13.2383 30.1997 13.2383ZM29.3776 27.4701H26.763C25.8839 27.4701 25.176 26.762 25.176 25.8825V21.4736C25.176 20.5941 25.8839 19.8859 26.763 19.8859H29.4233C31.8781 19.8859 34.4013 20.3314 34.4013 23.6095C34.4013 26.1794 32.7115 27.4701 29.3776 27.4701Z" fill="#17171E"/>
<path d="M39.4833 16.1165C39.3919 16.0251 39.2892 15.9452 39.1864 15.8538C39.0951 15.7624 39.0037 15.6825 38.901 15.6025C38.8553 15.5568 38.7982 15.4997 38.7526 15.4655C36.7431 13.4095 33.7973 12.2559 30.2008 12.2559H21.7518C19.4227 12.2559 17.6758 14.1519 17.6758 16.6762V39.1433C17.6758 40.6282 18.3608 41.9189 19.4341 42.707C19.4341 42.7184 19.4455 42.7184 19.4455 42.7184C19.5254 42.8098 19.6282 42.8898 19.7309 42.9811C19.8223 43.0725 19.925 43.1525 20.0164 43.2438C20.7814 44.0548 21.866 44.5574 23.0763 44.5574C25.4511 44.5574 27.3236 42.6385 27.3236 40.1827V35.8081H31.3083C37.0513 35.8081 42.84 32.2787 42.84 24.3975C42.84 20.9023 41.6184 18.0583 39.4833 16.1165ZM30.1552 33.775H25.6681C25.4055 33.775 25.1771 33.992 25.1771 34.2661V39.1433C25.1771 41.0737 23.7842 42.5243 21.9231 42.5243C20.062 42.5243 18.6691 41.0737 18.6691 39.1433V16.6762C18.6691 14.7116 19.9935 13.2382 21.7518 13.2382H30.2008C36.6746 13.2382 40.6935 17.1216 40.6935 23.3581C40.6935 29.5945 36.5604 33.775 30.1552 33.775Z" fill="#B4BCD0"/>
<path d="M29.4231 19.8848H26.7628C25.8837 19.8848 25.1758 20.5929 25.1758 21.4724V25.8813C25.1758 26.7608 25.8837 27.469 26.7628 27.469H29.3774C32.7114 27.469 34.4012 26.1783 34.4012 23.6083C34.4012 20.3302 31.8779 19.8848 29.4231 19.8848ZM33.4078 23.6083C33.4078 24.9447 32.9511 26.4867 29.3774 26.4867H27.3223V22.5233C27.3223 22.192 27.5849 21.9179 27.916 21.9179H30.5763C31.718 21.9179 32.5629 22.0321 33.1795 22.2948C33.3393 22.6489 33.4078 23.0829 33.4078 23.6083Z" fill="#B4BCD0"/>
</g>
<path opacity="0.8" d="M13.5289 41.9199C13.1521 41.9199 12.8438 42.2283 12.8438 42.6051C12.8438 42.982 13.1521 43.2903 13.5289 43.2903C13.9058 43.2903 14.2141 42.982 14.2141 42.6051C14.2141 42.2283 13.9058 41.9199 13.5289 41.9199Z" fill="#B4BCD0"/>
<path opacity="0.8" d="M43.6398 33.4886C43.9824 33.4886 44.2679 33.2031 44.2679 32.8605C44.2679 32.5179 43.9824 32.2324 43.6398 32.2324C43.2972 32.2324 43.0117 32.5179 43.0117 32.8605C43.0117 33.2031 43.2972 33.4886 43.6398 33.4886Z" fill="#B4BCD0"/>
<path opacity="0.8" d="M42.7576 41.3125C42.4264 41.3125 42.1523 41.5866 42.1523 41.9178C42.1523 42.2489 42.4264 42.523 42.7576 42.523C43.0888 42.523 43.3629 42.2489 43.3629 41.9178C43.3629 41.5866 43.0888 41.3125 42.7576 41.3125Z" fill="#B4BCD0"/>
<path opacity="0.8" d="M21.4412 6.15625C21.11 6.15625 20.8359 6.43033 20.8359 6.7615C20.8359 7.09268 21.11 7.36676 21.4412 7.36676C21.7724 7.36676 22.0464 7.09268 22.0464 6.7615C22.0464 6.43033 21.7724 6.15625 21.4412 6.15625Z" fill="#B4BCD0"/>
<path opacity="0.8" d="M51.3667 29.9941C50.9442 29.9941 50.6016 30.3367 50.6016 30.7593C50.6016 31.1818 50.9442 31.5244 51.3667 31.5244C51.7892 31.5244 52.1318 31.1818 52.1318 30.7593C52.1318 30.3367 51.7892 29.9941 51.3667 29.9941Z" fill="#B4BCD0"/>
<path opacity="0.8" d="M5.42371 24.9002C5.54985 24.9002 5.65211 24.7979 5.65211 24.6718C5.65211 24.5456 5.54985 24.4434 5.42371 24.4434C5.29757 24.4434 5.19531 24.5456 5.19531 24.6718C5.19531 24.7979 5.29757 24.9002 5.42371 24.9002Z" fill="#B4BCD0"/>
<path opacity="0.8" d="M13.3694 36.1744C13.8992 36.1744 14.3287 35.7449 14.3287 35.2151C14.3287 34.6853 13.8992 34.2559 13.3694 34.2559C12.8396 34.2559 12.4102 34.6853 12.4102 35.2151C12.4102 35.7449 12.8396 36.1744 13.3694 36.1744Z" fill="#B4BCD0"/>
<path opacity="0.8" d="M26.065 8.75C25.8708 8.75 25.7109 8.90988 25.7109 9.10402C25.7109 9.29815 25.8708 9.45803 26.065 9.45803C26.2591 9.45803 26.419 9.29815 26.419 9.10402C26.419 8.90988 26.2591 8.75 26.065 8.75Z" fill="#B4BCD0"/>
<path opacity="0.8" d="M35.9984 37.8867C35.1419 37.8867 34.4453 38.5833 34.4453 39.4398C34.4453 40.2963 35.1419 40.9929 35.9984 40.9929C36.8549 40.9929 37.5515 40.2963 37.5515 39.4398C37.5515 38.5833 36.8549 37.8867 35.9984 37.8867Z" fill="#B4BCD0"/>
<path opacity="0.8" d="M47.7248 23.3109C47.9304 23.3109 48.0902 23.1511 48.0902 22.9455C48.0902 22.74 47.9304 22.5801 47.7248 22.5801C47.5193 22.5801 47.3594 22.74 47.3594 22.9455C47.3594 23.1511 47.5193 23.3109 47.7248 23.3109Z" fill="#B4BCD0"/>
<path opacity="0.8" d="M8.34808 19.9872C8.83913 19.9872 9.22741 19.5875 9.22741 19.1078C9.22741 18.6282 8.82771 18.2285 8.34808 18.2285C7.86845 18.2285 7.46875 18.6282 7.46875 19.1078C7.46875 19.5875 7.86845 19.9872 8.34808 19.9872Z" fill="#B4BCD0"/>
<path opacity="0.8" d="M12.5839 27.1045C12.5839 26.8761 12.4012 26.6934 12.1728 26.6934C11.9444 26.6934 11.7617 26.8761 11.7617 27.1045C11.7617 27.3329 11.9444 27.5156 12.1728 27.5156C12.4012 27.5156 12.5839 27.3329 12.5839 27.1045Z" fill="#B4BCD0"/>
<path opacity="0.8" d="M6.69125 28.6347C6.69125 28.3492 6.46286 28.1094 6.16594 28.1094C5.86902 28.1094 5.64062 28.3378 5.64062 28.6347C5.64062 28.9316 5.86902 29.16 6.16594 29.16C6.46286 29.16 6.69125 28.9316 6.69125 28.6347Z" fill="#B4BCD0"/>
<path opacity="0.8" d="M46.2176 35.6699L45.521 37.5542L43.6367 38.2508L45.521 38.9588L46.2176 40.8431L46.9256 38.9588L48.8099 38.2508L46.9256 37.5542L46.2176 35.6699Z" fill="#B4BCD0"/>
<path opacity="0.8" d="M7.71868 34.3691L7.2733 35.5682L6.07422 36.0136L7.2733 36.459L7.71868 37.6581L8.16405 36.459L9.36314 36.0136L8.16405 35.5682L7.71868 34.3691Z" fill="#B4BCD0"/>
<path opacity="0.8" d="M13.3697 11.3652L12.673 13.2495L10.7773 13.9461L12.673 14.6542L13.3697 16.5384L14.0663 14.6542L15.9505 13.9461L14.0663 13.2495L13.3697 11.3652Z" fill="#B4BCD0"/>
<path opacity="0.8" d="M29.4908 4.80859L29.2282 5.50521L28.543 5.75644L29.2282 6.00768L29.4908 6.70429L29.7421 6.00768L30.4272 5.75644L29.7421 5.50521L29.4908 4.80859Z" fill="#B4BCD0"/>
<path d="M35.9445 6.04192C35.6248 5.92772 35.2936 5.81352 34.9624 5.71074C34.3686 5.5166 33.7177 5.8592 33.535 6.45303C33.3408 7.05828 33.6834 7.6978 34.2772 7.88051C34.5742 7.97187 34.8711 8.07465 35.168 8.17743C35.2936 8.22311 35.4307 8.24595 35.5563 8.24595C36.0245 8.24595 36.4584 7.96045 36.6297 7.49224C36.8467 6.89841 36.5384 6.24747 35.9445 6.0305V6.04192Z" fill="white"/>
<path d="M46.3896 16.7553C46.6066 16.7553 46.8349 16.6867 47.029 16.5611C47.5542 16.207 47.6912 15.4988 47.3373 14.9734C45.2251 11.8324 42.3593 9.22815 39.0367 7.43489C38.4887 7.13791 37.7922 7.34351 37.4954 7.89177C37.1985 8.45145 37.404 9.13677 37.9521 9.43374C40.9435 11.0557 43.5353 13.4086 45.442 16.2413C45.6589 16.5725 46.0243 16.7438 46.3896 16.7438V16.7553Z" fill="white"/>
<path d="M55.9459 27.984C55.9459 12.5528 43.3981 0 27.973 0C12.5479 0 0 12.5528 0 27.984C0 36.8932 4.0989 45.0714 11.2463 50.4054L11.566 49.9714C11.8857 50.2113 12.2053 50.4397 12.5365 50.6567C14.0322 51.6847 15.642 52.5528 17.3318 53.261C18.9417 56.2764 22.1158 58.3323 25.7694 58.3323C28.1785 58.3323 30.3707 57.4414 32.049 55.968C33.4306 57.2701 35.2916 58.0696 37.3354 58.0696C41.6169 58.0696 45.0879 54.5973 45.0879 50.3141C45.0879 50.2455 45.0879 50.1656 45.0879 50.0971C51.9955 44.763 55.9574 36.7218 55.9574 27.9726L55.9459 27.984ZM37.3354 42.5699C36.0223 42.5699 34.7892 42.9012 33.7046 43.4723C31.9919 40.9137 29.0805 39.2347 25.7694 39.2347C21.8874 39.2347 18.5649 41.5534 17.0692 44.8658C16.2814 44.6031 15.4365 44.4431 14.5574 44.4431C12.9018 44.4431 11.3833 44.9457 10.1045 45.8138C9.20254 45.1056 8.0722 44.6944 6.87336 44.6487C3.15124 39.9657 1.08467 34.1633 1.08467 27.984C1.08467 13.1582 13.153 1.08509 27.973 1.08509C42.7929 1.08509 54.8613 13.1468 54.8613 27.984C54.8613 33.8321 53.0231 39.3603 49.6549 43.9063C49.3009 43.8378 48.947 43.7921 48.5816 43.7921C46.6749 43.7921 44.9737 44.7401 43.9004 46.2021C42.5303 44.0205 40.1098 42.5699 37.3468 42.5699H37.3354Z" fill="white"/>
<path d="M48.5793 56.1394H47.4832L46.2958 52.69C47.1178 52.5186 47.7458 51.7876 47.7458 50.9081V50.7025C47.7458 49.6974 46.9237 48.875 45.919 48.875H10.0222C9.01751 48.875 8.19544 49.6974 8.19544 50.7025V50.9081C8.19544 51.7876 8.81199 52.5186 9.64547 52.69L8.45805 56.1394H7.36196C6.35722 56.1394 5.53516 56.9618 5.53516 57.9669V58.1725C5.53516 59.1777 6.35722 60.0001 7.36196 60.0001H48.5793C49.584 60.0001 50.4061 59.1777 50.4061 58.1725V57.9669C50.4061 56.9618 49.584 56.1394 48.5793 56.1394Z" fill="#B4BCD0"/>
<path d="M44.4826 50.1081H11.3831C11.3032 50.1081 11.2461 50.051 11.2461 49.971C11.2461 49.8911 11.3032 49.834 11.3831 49.834H44.4826C44.5625 49.834 44.6196 49.8911 44.6196 49.971C44.6196 50.051 44.5625 50.1081 44.4826 50.1081Z" fill="white"/>
<path d="M18.3242 56.2533V52.8045C18.3242 52.4619 18.564 52.1992 18.8724 52.1992H20.1742C21.2363 52.1992 21.8644 52.8502 21.8644 53.8323C21.8644 54.9286 21.0992 55.511 20.1742 55.511H19.489V56.2647C19.489 56.6073 19.2264 56.8585 18.9181 56.8585C18.6097 56.8585 18.3471 56.6073 18.3471 56.2647L18.3242 56.2533ZM19.4776 54.3918H20.0486C20.4826 54.3918 20.7452 54.2548 20.7452 53.8779C20.7452 53.4782 20.4826 53.3869 20.06 53.3869H19.489V54.4033L19.4776 54.3918Z" fill="white"/>
<path d="M22.3435 55.6271V53.7315C22.3435 53.3889 22.6175 53.1719 22.903 53.1719C23.1885 53.1719 23.4626 53.3889 23.4626 53.7315V55.2389C23.4626 55.5358 23.5882 55.7185 23.908 55.7185C24.262 55.7185 24.5246 55.4787 24.5246 55.1704V53.7315C24.5246 53.3889 24.7873 53.1719 25.0956 53.1719C25.404 53.1719 25.6438 53.3889 25.6438 53.7315V55.5815L25.7237 56.2781C25.7694 56.5864 25.541 56.8491 25.1756 56.8491C24.9015 56.8491 24.6731 56.6892 24.6617 56.3809L24.616 55.7984H24.5589C24.4447 56.6207 23.9194 56.8605 23.4283 56.8605C22.7431 56.8605 22.332 56.4265 22.332 55.6386L22.3435 55.6271Z" fill="white"/>
<path d="M26.3605 56.2186L26.4176 55.4763V52.667C26.4176 52.313 26.7031 52.1074 26.9772 52.1074C27.2741 52.1074 27.5367 52.3244 27.5367 52.667V53.238C27.5367 53.5006 27.5025 53.8547 27.4339 54.2658H27.5139C27.6509 53.5235 28.1306 53.1466 28.7016 53.1466C29.4667 53.1466 29.9806 53.6377 29.9806 54.9395C29.9806 56.2414 29.3525 56.8124 28.7016 56.8124C28.1077 56.8124 27.6395 56.5269 27.571 55.7161H27.4796L27.4568 56.2985C27.4339 56.6754 27.137 56.8238 26.8744 56.8238C26.5889 56.8238 26.3148 56.5954 26.3605 56.2072V56.2186ZM28.8729 54.9738C28.8729 54.4828 28.5988 54.3229 28.1991 54.3229C27.6966 54.3229 27.491 54.5284 27.491 54.9738C27.491 55.3963 27.708 55.6247 28.2105 55.6247C28.6102 55.6247 28.8843 55.4534 28.8843 54.9624L28.8729 54.9738Z" fill="white"/>
<path d="M31.3199 52.1992C31.5483 52.1992 31.7538 52.3705 31.7538 52.6446V56.2875C31.7538 56.6187 31.4798 56.8471 31.1943 56.8471C30.8973 56.8471 30.6347 56.6301 30.6347 56.2875V53.3755C30.2921 53.3298 30.1094 53.0671 30.1094 52.7816C30.1094 52.4733 30.3378 52.1992 30.7032 52.1992H31.3199Z" fill="white"/>
<path d="M33.3514 53.2506C33.5798 53.2506 33.7968 53.4219 33.7968 53.696V56.2883C33.7968 56.6309 33.5227 56.8479 33.2372 56.8479C32.9517 56.8479 32.6777 56.6309 32.6777 56.2883V54.4155C32.3236 54.3812 32.1523 54.1071 32.1523 53.8216C32.1523 53.5133 32.3807 53.2392 32.7462 53.2392H33.3628L33.3514 53.2506ZM32.5406 52.4284C32.5406 52.0972 32.7348 51.8574 33.1916 51.8574C33.6483 51.8574 33.8425 52.0972 33.8425 52.417C33.8425 52.7367 33.6369 52.988 33.1916 52.988C32.7462 52.988 32.5406 52.7482 32.5406 52.4284Z" fill="white"/>
<path d="M34.3555 54.9648C34.3555 53.8571 35.0178 53.1719 36.1255 53.1719C36.7993 53.1719 37.5759 53.4916 37.5759 54.0626C37.5759 54.3253 37.3703 54.5879 37.1077 54.5879C36.9592 54.5879 36.8564 54.5308 36.7422 54.4623C36.5938 54.371 36.4225 54.2796 36.1598 54.2796C35.8172 54.2796 35.4404 54.4281 35.4404 54.9876C35.4404 55.5472 35.8401 55.7299 36.2169 55.7299C36.4453 55.7299 36.6166 55.6386 36.7536 55.5586C36.8907 55.4787 37.0049 55.4216 37.1533 55.4216C37.4388 55.4216 37.6101 55.6957 37.6101 55.9469C37.6101 56.438 36.9364 56.8377 36.1712 56.8377C35.0292 56.8377 34.3555 56.1981 34.3555 54.9534V54.9648Z" fill="white"/>
<defs>
<linearGradient id="paint0_linear_3373_22676" x1="19.8882" y1="46.0766" x2="17.3058" y2="11.4908" gradientUnits="userSpaceOnUse">
<stop stop-color="white"/>
<stop offset="1" stop-color="white" stop-opacity="0"/>
</linearGradient>
</defs>
</svg>
