<svg width="56" height="60" viewBox="0 0 56 60" fill="none" xmlns="http://www.w3.org/2000/svg">
<path d="M44.0677 49.5382L44.3989 49.9723C39.83 53.3989 34.1418 55.432 27.9852 55.432C21.8286 55.432 16.1518 53.4103 11.5715 49.9723L11.9028 49.5382C5.0266 44.4097 1.08594 36.5399 1.08594 27.9848C1.08594 13.159 13.1592 1.08594 27.9852 1.08594C42.8112 1.08594 54.8845 13.1476 54.8845 27.9848C54.8845 36.5399 50.9438 44.4097 44.0677 49.5382Z" fill="#17171E" fill-opacity="0.6"/>
<path opacity="0.8" d="M7.29979 19.6459C7.18556 20.1027 7.10561 20.4797 7.08276 20.7766C7.00281 21.599 6.9457 22.3186 7.9737 22.627C7.9737 22.627 7.98512 22.627 7.99654 22.627L8.54481 22.7641L8.83036 22.8326L9.99543 23.1296L11.9372 23.6093C11.9372 23.6093 11.9486 23.6093 11.96 23.6093C13.0109 23.8149 13.2964 23.1639 13.6163 22.3986C13.7419 22.1359 13.8333 21.7704 13.9589 21.3021L14.1531 21.3478C14.53 21.4391 14.9184 21.2107 15.0098 20.8338L15.2725 19.7601C15.3639 19.3832 15.1354 18.9948 14.7585 18.9034L14.4958 18.8349C14.5529 18.5265 14.5871 18.2524 14.6214 18.0239C14.6214 18.0239 14.6214 18.0239 14.6214 18.0125C14.7356 16.996 14.4387 16.6305 13.9589 16.3906H13.9361C13.9361 16.3906 13.9018 16.3677 13.8904 16.3563C13.6391 16.2649 12.771 16.0479 11.823 15.8081C10.6122 15.5111 9.92689 15.3398 9.72129 15.3169C9.72129 15.3169 9.70987 15.3169 9.69845 15.3169H9.66418C9.05881 15.2712 8.5905 15.454 8.23641 16.4363L7.9737 17.213L7.75667 17.1559C7.37974 17.0645 6.99139 17.2929 6.90001 17.6699L6.6373 18.7435C6.54592 19.1205 6.77437 19.5088 7.1513 19.6002L7.28836 19.6344L7.29979 19.6459Z" fill="#B4BCD0"/>
<path opacity="0.8" d="M21.5864 6.53391L22.0888 5.50612C22.1573 5.3805 22.0888 5.22062 21.9632 5.1521C21.8376 5.08359 21.6777 5.1521 21.6092 5.27772L21.1181 6.28267L20.2274 5.79162C20.1018 5.7231 19.9419 5.76878 19.8734 5.8944C19.8049 6.02001 19.8505 6.17989 19.9762 6.24841L20.8897 6.73947L20.4558 7.64164L19.5879 7.162C19.4623 7.09348 19.3024 7.13916 19.2339 7.26478C19.1653 7.3904 19.211 7.55028 19.3366 7.6188L20.2274 8.10985L19.7135 9.1719L18.7999 8.68084C18.6743 8.61232 18.5144 8.658 18.4459 8.78362C18.3774 8.90924 18.4231 9.06912 18.5487 9.13764L19.4851 9.64011L19.1197 10.3938C19.0511 10.5194 19.1197 10.6793 19.2453 10.7478C19.2795 10.7707 19.3252 10.7707 19.3595 10.7707C19.4623 10.7707 19.5536 10.7136 19.5993 10.6222L19.9533 9.89135L20.7527 10.3253C20.7527 10.3253 20.8326 10.3596 20.8783 10.3596C20.9697 10.3596 21.061 10.3139 21.1067 10.2225C21.1752 10.0969 21.1296 9.93703 21.0039 9.86851L20.1817 9.42314L20.6956 8.36109L21.5407 8.81788C21.5407 8.81788 21.6206 8.85214 21.6663 8.85214C21.7577 8.85214 21.849 8.80646 21.8947 8.7151C21.9632 8.58949 21.9175 8.42961 21.7919 8.36109L20.9354 7.89287L21.3694 6.9907L22.1916 7.43608C22.1916 7.43608 22.2715 7.47034 22.3172 7.47034C22.4086 7.47034 22.4999 7.42466 22.5456 7.3333C22.6141 7.20768 22.5685 7.0478 22.4428 6.97928L21.5978 6.52249L21.5864 6.53391Z" fill="#B4BCD0"/>
<path opacity="0.8" d="M25.5773 8.93189L24.8007 9.343L24.3554 8.45225L25.0748 8.06397C25.2004 7.99546 25.2461 7.83558 25.1776 7.70996C25.1091 7.58434 24.9492 7.53866 24.8236 7.60718L24.1155 7.98404L23.83 7.41304C23.7615 7.28742 23.6016 7.23032 23.476 7.29884C23.3504 7.36736 23.2933 7.52724 23.3618 7.65286L23.6587 8.23527L22.9393 8.62355C22.8137 8.69207 22.768 8.85195 22.8365 8.97756C22.8822 9.06892 22.9736 9.1146 23.0649 9.1146C23.1106 9.1146 23.1449 9.1146 23.1905 9.08034L23.8986 8.70349L24.3439 9.59424L23.5331 10.0168C23.4075 10.0853 23.3504 10.2452 23.4189 10.3708C23.4646 10.4621 23.556 10.5078 23.6473 10.5078C23.693 10.5078 23.7273 10.5078 23.7729 10.4736L24.5723 10.051L24.9492 10.8047C24.9949 10.8961 25.0862 10.9532 25.189 10.9532C25.2233 10.9532 25.2689 10.9532 25.3032 10.9304C25.4288 10.8618 25.4859 10.702 25.4174 10.5763L25.0291 9.81122L25.8171 9.4001C25.9427 9.33158 25.9998 9.1717 25.9313 9.04608C25.8628 8.92047 25.7029 8.86337 25.5773 8.93189Z" fill="#B4BCD0"/>
<path opacity="0.8" d="M43.6008 21.3481L42.6185 18.8696L43.7722 18.4127C43.9093 18.3556 43.9778 18.2071 43.9207 18.07L43.5323 17.0877C42.8241 15.2945 41.1908 14.9746 39.8658 15.4544C39.8201 15.4544 39.7744 15.4772 39.7401 15.5C39.1348 15.9227 37.9354 16.4138 37.2158 16.5166C37.1816 16.5166 37.1473 16.528 37.1245 16.5509C37.1016 16.5509 37.0902 16.5509 37.0674 16.5509C35.7424 17.0877 34.7258 18.4584 35.4454 20.2745L35.8338 21.2568C35.8909 21.3938 36.0394 21.4624 36.1764 21.4052L37.3301 20.9484L38.3124 23.4269C38.3695 23.564 38.518 23.6325 38.655 23.5754L43.4409 21.6794C43.578 21.6223 43.6465 21.4738 43.5894 21.3367L43.6008 21.3481ZM38.8949 17.1791C38.1296 17.4532 37.7755 17.2933 37.5699 17.0078C37.9012 16.9278 38.2895 16.8136 38.6779 16.6537C39.0548 16.5052 39.4317 16.3224 39.7401 16.1397C39.7858 16.4938 39.6373 16.8593 38.8949 17.1791Z" fill="#B4BCD0"/>
<path opacity="0.8" d="M6.08903 27.0605C5.74643 27.0605 5.46094 27.346 5.46094 27.6886C5.46094 28.0312 5.74643 28.3167 6.08903 28.3167C6.43163 28.3167 6.71712 28.0312 6.71712 27.6886C6.71712 27.346 6.43163 27.0605 6.08903 27.0605Z" fill="#B4BCD0"/>
<path opacity="0.8" d="M51.1828 25.791C50.8402 25.791 50.5547 26.0765 50.5547 26.4191C50.5547 26.7617 50.8402 27.0472 51.1828 27.0472C51.5254 27.0472 51.8109 26.7617 51.8109 26.4191C51.8109 26.0765 51.5254 25.791 51.1828 25.791Z" fill="#B4BCD0"/>
<path opacity="0.8" d="M40.949 43.4492C40.6178 43.4492 40.3438 43.7233 40.3438 44.0545C40.3438 44.3856 40.6178 44.6597 40.949 44.6597C41.2802 44.6597 41.5543 44.3856 41.5543 44.0545C41.5543 43.7233 41.2802 43.4492 40.949 43.4492Z" fill="#B4BCD0"/>
<path opacity="0.8" d="M30.9878 10.6572C31.4104 10.6572 31.7529 10.3147 31.7529 9.89208C31.7529 9.46951 31.4104 9.12695 30.9878 9.12695C30.5652 9.12695 30.2227 9.46951 30.2227 9.89208C30.2227 10.3147 30.5652 10.6572 30.9878 10.6572Z" fill="#B4BCD0"/>
<path opacity="0.8" d="M15.3186 43.9752C15.8484 43.9752 16.2779 43.5457 16.2779 43.0159C16.2779 42.4861 15.8484 42.0566 15.3186 42.0566C14.7889 42.0566 14.3594 42.4861 14.3594 43.0159C14.3594 43.5457 14.7889 43.9752 15.3186 43.9752Z" fill="#B4BCD0"/>
<path opacity="0.8" d="M20.0454 28.7148C19.8513 28.7148 19.6914 28.8747 19.6914 29.0689C19.6914 29.263 19.8513 29.4229 20.0454 29.4229C20.2396 29.4229 20.3994 29.263 20.3994 29.0689C20.3994 28.8747 20.2396 28.7148 20.0454 28.7148Z" fill="#B4BCD0"/>
<path opacity="0.8" d="M14.3603 11.205C14.5887 11.205 14.7714 11.0223 14.7714 10.7939C14.7714 10.5655 14.5887 10.3828 14.3603 10.3828C14.1319 10.3828 13.9492 10.5655 13.9492 10.7939C13.9492 11.0223 14.1319 11.205 14.3603 11.205Z" fill="#B4BCD0"/>
<path opacity="0.8" d="M36.745 28.373L36.4938 29.0582L35.8086 29.3209L36.4938 29.5721L36.745 30.2573L37.0077 29.5721L37.6929 29.3209L37.0077 29.0582L36.745 28.373Z" fill="#B4BCD0"/>
<path opacity="0.8" d="M50.0745 20.5374L49.6634 19.4297L49.2523 20.5374L48.1445 20.9485L49.2523 21.3596L49.6634 22.4674L50.0745 21.3596L51.1822 20.9485L50.0745 20.5374Z" fill="#B4BCD0"/>
<path opacity="0.8" d="M47.1986 30.5898C47.1986 30.5898 47.1301 30.5555 47.0844 30.5555C47.0273 30.5555 46.9588 30.5784 46.856 30.704C46.4219 31.2294 46.0678 31.6292 45.4396 31.6292C45.234 31.6292 45.017 31.5835 44.7657 31.5036C43.7491 31.1609 43.6235 30.4299 43.5664 29.5047C43.5664 29.3905 43.4636 29.3105 43.3379 29.3105C43.2465 29.3105 41.1106 29.3105 39.5914 30.2586C39.5115 30.3157 39.4658 30.4185 39.5001 30.5099C39.7856 31.3094 40.0483 32.2232 40.0483 32.2346C40.0712 32.326 40.1397 32.3831 40.2311 32.3831L41.5446 32.4973L41.2933 33.6509L38.7576 36.2437C38.7576 36.2437 38.6891 36.3465 38.7005 36.4151C38.7005 36.4722 38.7348 36.5293 38.8604 36.6092C39.9684 37.3631 41.1791 37.9685 42.447 38.3911C43.7491 38.8251 45.0969 39.0764 46.4676 39.1335C46.4676 39.1335 46.5818 39.1107 46.6161 39.065C46.6618 39.0193 46.6732 38.9622 46.6732 38.8936L46.2963 35.2614L46.7874 34.2449L47.9867 34.9416C47.9867 34.9416 48.0781 34.9302 48.101 34.9073C48.1124 34.8959 48.832 34.3819 49.6087 33.8908C49.7001 33.8337 49.7343 33.7195 49.6887 33.6281C48.7863 31.6178 47.1872 30.5898 47.1644 30.5784L47.1986 30.5898Z" fill="#B4BCD0"/>
<path opacity="0.8" d="M16.7906 32.1194L9.77736 29.4238C9.70883 29.4238 9.6403 29.4695 9.61745 29.5266L7.02461 35.409C6.91039 35.7059 7.04746 36.0486 7.33301 36.1514L9.65172 37.0537C9.70883 37.0766 9.77736 37.088 9.8459 37.088C10.0287 37.088 10.2 36.9966 10.3142 36.8367L11.6392 35.1348L11.4678 37.2708C11.4336 37.5335 11.5706 37.7848 11.8105 37.8761L14.1292 38.7785C14.1863 38.8013 14.2549 38.8127 14.312 38.8127C14.5518 38.8127 14.7689 38.6643 14.8602 38.4244L16.8934 32.3479C16.9277 32.2565 16.882 32.1651 16.7906 32.1194Z" fill="#B4BCD0"/>
<path opacity="0.15" d="M38.5143 53.3182C35.2818 54.6774 31.7181 55.4198 27.983 55.4198C21.8264 55.4198 16.1496 53.3981 11.5693 49.9715C4.87589 44.9687 0.546875 36.9847 0.546875 27.9841C0.546875 13.3753 11.9577 1.43928 26.3496 0.605469C16.4237 4.7174 9.44477 14.5061 9.44477 25.9281C9.44477 34.9287 13.7738 42.9127 20.4786 47.927C25.0475 51.3422 30.7357 53.3753 36.8923 53.3753C37.4406 53.3753 37.9774 53.3753 38.5257 53.3182H38.5143Z" fill="url(#paint0_linear_3373_22678)"/>
<g opacity="0.8">
<path d="M36.0964 37.8866C36.0279 37.8066 35.9593 37.7152 35.868 37.6239C35.7994 37.5439 35.7309 37.4411 35.6395 37.3611C35.5824 37.2812 35.5253 37.2012 35.4453 37.1441C35.4339 37.1327 35.4225 37.1213 35.4111 37.0984C34.7372 36.139 33.6178 35.4994 32.3499 35.4994H32.3157V17.2241C32.3157 16.1276 31.9387 15.2367 31.3105 14.6313C31.2306 14.5399 31.162 14.4485 31.0821 14.3686C31.0021 14.2772 30.9336 14.1858 30.8536 14.1059C30.7737 14.0145 30.7051 13.9231 30.6252 13.8318C30.5909 13.7975 30.5681 13.7632 30.5338 13.729C29.9284 12.8837 28.9233 12.3926 27.6554 12.3926C25.8621 12.3926 24.4572 12.7581 23.098 13.5919L20.6536 15.0653C19.4428 15.7621 18.7461 16.9157 18.7461 18.2064C18.7461 19.1773 19.1459 20.1139 19.7969 20.7649H19.8084C19.8769 20.8677 19.9568 20.9591 20.0368 21.0391C20.1168 21.119 20.1853 21.2104 20.2652 21.3018C20.3452 21.3817 20.4137 21.4731 20.4937 21.5645C20.5736 21.6558 20.6422 21.7472 20.7221 21.8272C20.962 22.1127 21.2361 22.3754 21.556 22.5696C22.1956 22.958 22.9152 23.0836 23.6919 22.958V35.4994H22.504C20.448 35.4994 18.7689 37.1784 18.7689 39.2458C18.7689 40.2738 19.1801 41.1875 19.8426 41.8614C19.8426 41.8729 19.854 41.8843 19.8655 41.8957C19.9454 41.9985 20.0368 42.0899 20.1282 42.1812C20.1967 42.2726 20.2652 42.364 20.3566 42.444C20.4252 42.5353 20.5051 42.6267 20.5851 42.7067C20.665 42.798 20.7336 42.8894 20.8135 42.9694C21.4988 43.7803 22.504 44.3057 23.6462 44.3057H33.4922C35.5481 44.3057 37.2272 42.6267 37.2272 40.5593C37.2272 39.5199 36.7932 38.5719 36.0964 37.8866ZM32.3499 41.9985H22.504C20.9848 41.9985 19.7512 40.7649 19.7512 39.2458C19.7512 37.7267 20.9848 36.4931 22.504 36.4931H24.1831C24.4572 36.4931 24.6742 36.2761 24.6742 36.0019V20.4337C24.6742 20.2509 24.5828 20.091 24.4229 19.9997C24.263 19.9197 24.0803 19.9197 23.9204 20.0111L23.452 20.3081C22.2756 20.9363 21.4189 20.7078 20.9163 20.3994C20.1967 19.9768 19.7284 19.1087 19.7284 18.2064C19.7284 17.3041 20.2424 16.436 21.1562 15.9106L23.612 14.4371C24.8113 13.7061 26.0563 13.3749 27.6554 13.3749C29.9398 13.3749 30.1797 15.1453 30.1797 15.9106V36.0019C30.1797 36.2761 30.3967 36.4931 30.6709 36.4931H32.3499C33.8691 36.4931 35.1027 37.7267 35.1027 39.2458C35.1027 40.7649 33.8691 41.9985 32.3499 41.9985Z" fill="#B4BCD0"/>
<path d="M35.1047 39.2459C35.1047 40.765 33.8712 41.9986 32.352 41.9986H22.5061C20.9869 41.9986 19.7533 40.765 19.7533 39.2459C19.7533 37.7268 20.9869 36.4932 22.5061 36.4932H24.1851C24.4593 36.4932 24.6763 36.2762 24.6763 36.0021V20.4338C24.6763 20.2511 24.5849 20.0912 24.425 19.9998C24.2651 19.9198 24.0823 19.9198 23.9224 20.0112L23.4541 20.3082C22.2776 20.9364 21.421 20.7079 20.9184 20.3996C20.1988 19.9769 19.7305 19.1089 19.7305 18.2065C19.7305 17.3042 20.2445 16.4361 21.1582 15.9107L23.614 14.4372C24.8133 13.7062 26.0584 13.375 27.6575 13.375C29.9419 13.375 30.1818 15.1454 30.1818 15.9107V36.0021C30.1818 36.2762 30.3988 36.4932 30.6729 36.4932H32.352C33.8712 36.4932 35.1047 37.7268 35.1047 39.2459Z" fill="#17171E"/>
</g>
<path d="M27.9844 0C12.553 0 0 12.5528 0 27.984C0 36.8932 4.10057 45.0714 11.2509 50.4054L11.5707 49.9714C11.8905 50.2113 12.2103 50.4397 12.5416 50.6567C14.6318 52.0845 16.9277 53.2267 19.3835 54.0377C20.263 54.3346 21.1768 54.5745 22.102 54.7687C23.998 55.1913 25.9512 55.4083 27.9844 55.4083C29.6406 55.4083 31.2626 55.2598 32.8388 54.9743C33.4442 54.86 34.061 54.7458 34.6435 54.5973C37.5676 53.8663 40.3089 52.667 42.7647 51.0908C43.3244 50.7481 43.8612 50.3598 44.3867 49.9714L44.7065 50.4054C51.8454 45.0714 55.9574 36.8932 55.9574 27.984C55.9688 12.5528 43.4158 0 27.9844 0ZM48.6015 43.7921C46.4541 43.7921 44.558 44.9914 43.53 46.7847C42.5248 45.9623 41.2456 45.4711 39.8749 45.4711C38.3672 45.4711 36.9851 46.0536 35.9457 47.0245C34.9177 43.5751 31.1712 41.0165 26.6937 41.0165C22.9929 41.0165 19.7832 42.7641 18.1956 45.3341C17.1105 44.763 15.8769 44.4546 14.5747 44.4546C12.9185 44.4546 11.3994 44.9571 10.1201 45.8252C9.21771 45.117 8.08692 44.7059 6.88759 44.6602C3.15253 39.9657 1.08511 34.1633 1.08511 27.984C1.08511 13.1582 13.1584 1.08509 27.9844 1.08509C42.8104 1.08509 54.8837 13.1468 54.8837 27.984C54.8837 33.8321 53.0447 39.3603 49.6751 43.9063C49.3211 43.8378 48.967 43.7921 48.6015 43.7921Z" fill="white"/>
<path d="M35.9563 6.04192C35.6365 5.92772 35.3053 5.81352 34.9742 5.71074C34.3803 5.5166 33.7294 5.8592 33.5467 6.45303C33.3525 7.05828 33.6951 7.6978 34.289 7.88051C34.5859 7.97187 34.8828 8.07465 35.1797 8.17743C35.3053 8.22311 35.4424 8.24595 35.568 8.24595C36.0362 8.24595 36.4702 7.96045 36.6415 7.49224C36.8584 6.89841 36.5501 6.24747 35.9563 6.0305V6.04192Z" fill="white"/>
<path d="M39.0531 7.43489C38.5048 7.13791 37.808 7.34351 37.5111 7.89177C37.2141 8.45145 37.4197 9.13677 37.9679 9.43374C40.9606 11.0557 43.5534 13.4086 45.4609 16.2413C45.6779 16.5725 46.0434 16.7438 46.409 16.7438C46.626 16.7438 46.8544 16.6753 47.0486 16.5497C47.574 16.1956 47.7111 15.4874 47.357 14.962C45.2439 11.8209 42.3769 9.21672 39.0531 7.42346V7.43489Z" fill="white"/>
<path d="M48.6008 56.1394H47.5042L46.3163 52.69C47.1387 52.5186 47.7669 51.7876 47.7669 50.9081V50.7025C47.7669 49.6974 46.9445 48.875 45.9394 48.875H10.028C9.02283 48.875 8.20043 49.6974 8.20043 50.7025V50.9081C8.20043 51.7876 8.81723 52.5186 9.65105 52.69L8.46315 56.1394H7.36661C6.36146 56.1394 5.53906 56.9618 5.53906 57.9669V58.1725C5.53906 59.1777 6.36146 60.0001 7.36661 60.0001H48.6008C49.6059 60.0001 50.4283 59.1777 50.4283 58.1725V57.9669C50.4283 56.9618 49.6059 56.1394 48.6008 56.1394Z" fill="#B4BCD0"/>
<path d="M44.5 50.1081H11.3871C11.3071 50.1081 11.25 50.051 11.25 49.971C11.25 49.8911 11.3071 49.834 11.3871 49.834H44.5C44.58 49.834 44.6371 49.8911 44.6371 49.971C44.6371 50.051 44.58 50.1081 44.5 50.1081Z" fill="white"/>
<path d="M16.7578 56.1146V52.6658C16.7578 52.3232 16.9976 52.0605 17.306 52.0605H18.6078C19.6699 52.0605 20.298 52.7115 20.298 53.6936C20.298 54.7899 19.5328 55.3723 18.6078 55.3723H17.9226V56.126C17.9226 56.4686 17.66 56.7199 17.3516 56.7199C17.0433 56.7199 16.7807 56.4686 16.7807 56.126L16.7578 56.1146ZM17.9112 54.2532H18.4822C18.9162 54.2532 19.1788 54.1161 19.1788 53.7393C19.1788 53.3396 18.9162 53.2482 18.4936 53.2482H17.9226V54.2646L17.9112 54.2532Z" fill="white"/>
<path d="M20.8125 56.1601V52.54C20.8125 52.186 21.0866 51.9805 21.3721 51.9805C21.669 51.9805 21.9316 52.1974 21.9316 52.54V52.974C21.9316 53.191 21.8745 53.7391 21.8174 54.0931H21.886C22.0002 53.2709 22.5369 53.0311 23.0165 53.0311C23.7017 53.0311 24.1128 53.4651 24.1128 54.253V56.1601C24.1128 56.5027 23.8388 56.7197 23.5533 56.7197C23.2678 56.7197 22.9937 56.5027 22.9937 56.1601V54.6413C22.9937 54.3444 22.8681 54.1731 22.5597 54.1731C22.2057 54.1731 21.9316 54.4015 21.9316 54.7212V56.1601C21.9316 56.4913 21.669 56.7197 21.3607 56.7197C21.0637 56.7197 20.8125 56.5027 20.8125 56.1601Z" fill="white"/>
<path d="M24.6286 55.6121C24.6286 55.0069 25.0968 54.6415 25.862 54.6415C26.4786 54.6415 26.7299 54.8698 26.8441 55.1439H26.8669V54.6529C26.8669 54.3217 26.6271 54.139 26.2502 54.139C25.9533 54.139 25.8163 54.2189 25.7021 54.3331C25.5879 54.4359 25.4851 54.5729 25.2339 54.5729C24.9141 54.5729 24.7314 54.3331 24.7314 54.0476C24.7314 53.351 25.5765 53.0312 26.3302 53.0312C27.278 53.0312 27.9632 53.4195 27.9632 54.4816V55.5322L28.0317 56.0575C28.0888 56.4572 27.8033 56.697 27.5178 56.697C27.2095 56.697 27.0039 56.5143 26.9583 56.2288L26.9012 55.8405H26.8555C26.7527 56.3773 26.3302 56.6856 25.6678 56.6856C25.0397 56.6742 24.6172 56.2973 24.6172 55.5893L24.6286 55.6121ZM26.8897 55.5094C26.8897 55.3266 26.6271 55.2353 26.2959 55.2353C25.9647 55.2353 25.7135 55.3152 25.7135 55.5208C25.7135 55.7263 25.9533 55.7949 26.2959 55.7949C26.5928 55.7949 26.8897 55.7035 26.8897 55.5094Z" fill="white"/>
<path d="M28.4414 55.8405C28.4414 55.555 28.6698 55.3152 28.9096 55.3152C29.0809 55.3152 29.1837 55.4066 29.3093 55.4979C29.4806 55.6121 29.6519 55.7149 30.0402 55.7149C30.4285 55.7149 30.6911 55.6807 30.6911 55.4523C30.6911 55.2581 30.2572 55.2353 29.8917 55.2124C29.1609 55.1553 28.5442 55.0183 28.5442 54.1732C28.5442 53.4538 29.1152 53.0312 30.1087 53.0312C30.9995 53.0312 31.6504 53.3167 31.6504 53.8421C31.6504 54.1276 31.422 54.3674 31.1708 54.3674C31.0566 54.3674 30.9424 54.3217 30.851 54.2303C30.7025 54.0819 30.4856 54.0248 30.1544 54.0248C29.789 54.0248 29.5834 54.1161 29.5834 54.2532C29.5834 54.4587 29.8917 54.4702 30.3371 54.5044C31.0223 54.5501 31.7303 54.6529 31.7303 55.4523C31.7303 56.2517 31.0109 56.697 30.0973 56.697C29.0238 56.697 28.4528 56.3773 28.4528 55.8291L28.4414 55.8405Z" fill="white"/>
<path d="M35.5239 55.7606C35.5239 56.4115 34.6788 56.7084 33.948 56.7084C32.8174 56.7084 32.1094 56.0347 32.1094 54.8813C32.1094 53.7279 32.8631 53.0312 33.9137 53.0312C35.0214 53.0312 35.6267 53.6479 35.6267 54.5044C35.6267 54.9155 35.4097 55.0982 34.9643 55.0982H33.2285C33.2856 55.4523 33.6282 55.6236 34.0051 55.6236C34.3248 55.6236 34.519 55.5094 34.6903 55.4066C34.8045 55.3381 34.9187 55.281 35.0785 55.281C35.3184 55.281 35.5239 55.4751 35.5239 55.7606ZM33.2171 54.5501L34.5418 54.5273C34.5418 54.2646 34.302 54.0248 33.9023 54.0248C33.5597 54.0248 33.2742 54.1961 33.2171 54.5501Z" fill="white"/>
<path d="M39.2133 52.5624V56.0797C39.2133 56.4338 39.0192 56.7078 38.6423 56.7078C38.2883 56.7078 38.0828 56.4338 38.0828 56.114V53.3618L37.9914 53.4189C37.546 53.6587 37.2148 53.3276 37.2148 52.9735C37.2148 52.8022 37.3062 52.6195 37.5003 52.4939L37.9343 52.2312C38.1741 52.0828 38.4139 52.0371 38.688 52.0371C39.0534 52.0371 39.2133 52.2769 39.2133 52.5624Z" fill="white"/>
<defs>
<linearGradient id="paint0_linear_3373_22678" x1="19.8961" y1="46.0766" x2="17.3147" y2="11.4907" gradientUnits="userSpaceOnUse">
<stop stop-color="white"/>
<stop offset="1" stop-color="white" stop-opacity="0"/>
</linearGradient>
</defs>
</svg>
