<svg width="56" height="60" viewBox="0 0 56 60" fill="none" xmlns="http://www.w3.org/2000/svg">
<path opacity="0.15" d="M44.0677 49.5382L44.3989 49.9723C39.83 53.3989 34.1418 55.432 27.9852 55.432C21.8286 55.432 16.1518 53.4103 11.5715 49.9723L11.9028 49.5382C5.0266 44.4097 1.08594 36.5399 1.08594 27.9848C1.08594 13.159 13.1592 1.08594 27.9852 1.08594C42.8112 1.08594 54.8845 13.1476 54.8845 27.9848C54.8845 36.5399 50.9438 44.4097 44.0677 49.5382Z" fill="#AB92D3"/>
<path opacity="0.15" d="M38.5143 53.3182C35.2818 54.6774 31.7181 55.4198 27.983 55.4198C21.8264 55.4198 16.1496 53.3981 11.5693 49.9715C4.87589 44.9687 0.546875 36.9847 0.546875 27.9841C0.546875 13.3753 11.9577 1.43928 26.3496 0.605469C16.4237 4.7174 9.44477 14.5061 9.44477 25.9281C9.44477 34.9287 13.7738 42.9127 20.4786 47.927C25.0475 51.3422 30.7357 53.3753 36.8923 53.3753C37.4406 53.3753 37.9774 53.3753 38.5257 53.3182H38.5143Z" fill="url(#paint0_linear_3373_22681)"/>
<path d="M37.2949 28.8978C37.1464 28.7494 36.9979 28.6123 36.8266 28.4752C36.6781 28.3267 36.541 28.1897 36.3811 28.0526C36.3583 28.0526 36.3468 28.0298 36.3468 28.0183C35.5701 27.2302 34.5764 26.5563 33.32 26.0652L36.8723 23.7465C38.4257 22.7756 39.2823 21.188 39.2823 19.3148C39.2823 17.8413 38.6427 16.6077 37.6147 15.7739C37.4662 15.614 37.3177 15.477 37.1464 15.3399C37.0322 15.2142 36.9065 15.1 36.7923 15.0086C36.7923 15.0086 36.7695 14.9858 36.758 14.9744C35.9014 13.9807 34.5764 13.3867 33.0116 13.3867H20.7441C18.5511 13.3867 16.3466 14.8487 16.3466 17.67C16.3466 19.1206 17.0091 20.3998 18.0371 21.1537C18.0371 21.1537 18.0447 21.1651 18.0599 21.188C18.1741 21.3022 18.2883 21.405 18.4026 21.4964C18.5511 21.6563 18.6995 21.7933 18.8823 21.9304C19.6133 22.7528 20.6527 23.2668 21.8407 23.2668H24.2622L22.5602 24.3633C20.8698 25.3799 20.5157 26.7162 20.5157 27.6528C20.5157 28.6694 20.8926 29.5717 21.5779 30.1885C21.6465 30.2571 22.9143 31.4221 23.0057 31.5135C23.7824 32.1988 24.8561 32.4844 26.1126 32.3587C27.6888 32.1988 29.0595 32.3016 29.9961 32.61C29.9961 32.6671 29.9961 32.7242 29.9961 32.7928C29.9961 34.4832 27.9287 35.0886 26.1468 35.0886C24.8218 35.0886 23.5311 34.7117 22.1833 33.935C21.4866 33.5009 20.7441 33.2611 19.9903 33.2611C17.7972 33.2611 16.0039 35.2485 16.0039 37.6585C16.0039 39.0749 16.6892 40.2171 17.7972 41.108C17.7972 41.108 17.82 41.108 17.8315 41.1423C17.9571 41.2679 18.0827 41.3821 18.2084 41.4849C18.3569 41.6448 18.5054 41.7819 18.6881 41.919C20.6185 43.9178 24.502 44.8659 28.1914 44.8659C35.1361 44.8659 39.9791 40.7311 39.9791 34.8145C39.9791 32.8156 39.191 30.5655 37.2949 28.9207V28.8978ZM19.9788 34.3462C20.3558 34.3462 20.9269 34.4375 21.6008 34.8487C23.1199 35.7282 24.6048 36.1737 26.1354 36.1737C29.1623 36.1737 31.1041 34.8259 31.1041 32.7585C31.1041 32.0503 30.8299 31.4335 30.3045 30.9652C28.8425 29.6174 25.7813 29.7659 24.5363 29.8916C23.5997 29.9944 22.823 29.8002 22.2975 29.3319C21.8521 28.9321 21.6008 28.3496 21.6008 27.6414C21.6008 26.7048 22.1034 25.9167 23.1199 25.2999L28.4884 21.839C28.7054 21.702 28.7853 21.4507 28.7282 21.1994C28.6597 20.9595 28.4427 20.811 28.1914 20.811H20.39C18.9623 20.811 17.4431 19.7031 17.4431 17.6586C17.4431 15.4884 19.145 14.5061 20.7213 14.5061H32.9887C35.1818 14.5061 36.7124 15.9338 36.7124 17.9898C36.7124 19.4975 36.0613 20.7082 34.8163 21.4849L28.9567 25.3227C28.7511 25.4598 28.6597 25.6997 28.7168 25.9395C28.7739 26.1794 28.9795 26.3393 29.2194 26.3507C35.2503 26.7048 37.4091 30.2685 37.4091 33.4781C37.4091 38.7436 33.023 42.4101 26.7408 42.4101C22.8686 42.4101 17.1004 41.1423 17.1004 37.6357C17.1004 35.831 18.3911 34.3576 19.9674 34.3576L19.9788 34.3462Z" fill="white"/>
<path d="M37.4219 33.4664C37.4219 38.732 33.0358 42.3985 26.7536 42.3985C22.8815 42.3985 17.1133 41.1306 17.1133 37.6241C17.1133 35.8194 18.404 34.3459 19.9803 34.3459C20.3572 34.3459 20.9283 34.4373 21.6022 34.8485C23.1214 35.728 24.6062 36.1735 26.1368 36.1735C29.1637 36.1735 31.1055 34.8257 31.1055 32.7583C31.1055 32.0501 30.8313 31.4333 30.3059 30.965C28.8439 29.6172 25.7827 29.7657 24.5377 29.8913C23.6011 29.9941 22.8244 29.8 22.299 29.3317C21.8535 28.9319 21.6022 28.3494 21.6022 27.6412C21.6022 26.7046 22.1048 25.9165 23.1214 25.2997L28.4898 21.8388C28.7068 21.7017 28.7868 21.4505 28.7297 21.1992C28.6611 20.9593 28.4441 20.8108 28.1928 20.8108H20.3915C18.9637 20.8108 17.4445 19.7029 17.4445 17.6583C17.4445 15.4882 19.1464 14.5059 20.7227 14.5059H32.9901C35.1832 14.5059 36.7138 15.9336 36.7138 17.9896C36.7138 19.4973 36.0627 20.708 34.8177 21.4847L28.9581 25.3225C28.7525 25.4596 28.6611 25.6995 28.7182 25.9393C28.7753 26.1792 28.9809 26.3391 29.2208 26.3505C35.2517 26.7046 37.4105 30.2683 37.4105 33.4779L37.4219 33.4664Z" fill="#8C88F4"/>
<path d="M26.0539 7.35547C25.7113 7.35547 25.4258 7.64097 25.4258 7.98356C25.4258 8.32616 25.7113 8.61165 26.0539 8.61165C26.3965 8.61165 26.682 8.32616 26.682 7.98356C26.682 7.64097 26.3965 7.35547 26.0539 7.35547Z" fill="white"/>
<path d="M42.6398 31.3988C42.9824 31.3988 43.2679 31.1133 43.2679 30.7707C43.2679 30.4281 42.9824 30.1426 42.6398 30.1426C42.2972 30.1426 42.0117 30.4281 42.0117 30.7707C42.0117 31.1133 42.2972 31.3988 42.6398 31.3988Z" fill="white"/>
<path d="M9.59294 42.2148C9.25034 42.2148 8.96484 42.5003 8.96484 42.8429C8.96484 43.1855 9.25034 43.471 9.59294 43.471C9.93553 43.471 10.221 43.1855 10.221 42.8429C10.221 42.5003 9.93553 42.2148 9.59294 42.2148Z" fill="white"/>
<path d="M12.8498 14.7465C12.9754 14.7465 13.0668 14.6437 13.0668 14.5295C13.0668 14.4153 12.964 14.3125 12.8498 14.3125C12.7356 14.3125 12.6328 14.4153 12.6328 14.5295C12.6328 14.6437 12.7356 14.7465 12.8498 14.7465Z" fill="white"/>
<path d="M37.9787 42.8555C37.8531 42.8555 37.7617 42.9582 37.7617 43.0724C37.7617 43.1866 37.8645 43.2894 37.9787 43.2894C38.0929 43.2894 38.1957 43.1866 38.1957 43.0724C38.1957 42.9582 38.0929 42.8555 37.9787 42.8555Z" fill="white"/>
<path d="M34.5529 9.73047C34.4273 9.73047 34.3359 9.83325 34.3359 9.94745C34.3359 10.0616 34.4387 10.1644 34.5529 10.1644C34.6671 10.1644 34.7699 10.0616 34.7699 9.94745C34.7699 9.83325 34.6671 9.73047 34.5529 9.73047Z" fill="white"/>
<path d="M39.1665 26.042C39.362 26.042 39.5205 25.8835 39.5205 25.688C39.5205 25.4925 39.362 25.334 39.1665 25.334C38.971 25.334 38.8125 25.4925 38.8125 25.688C38.8125 25.8835 38.971 26.042 39.1665 26.042Z" fill="white"/>
<path d="M52.5064 24.123C52.3122 24.123 52.1523 24.2829 52.1523 24.4771C52.1523 24.6712 52.3122 24.8311 52.5064 24.8311C52.7005 24.8311 52.8604 24.6712 52.8604 24.4771C52.8604 24.2829 52.7005 24.123 52.5064 24.123Z" fill="white"/>
<path d="M49.7329 40.5362C49.9284 40.5362 50.0869 40.3777 50.0869 40.1821C50.0869 39.9866 49.9284 39.8281 49.7329 39.8281C49.5374 39.8281 49.3789 39.9866 49.3789 40.1821C49.3789 40.3777 49.5374 40.5362 49.7329 40.5362Z" fill="white"/>
<path d="M5.26417 22.9463C5.45969 22.9463 5.61819 22.7878 5.61819 22.5923C5.61819 22.3968 5.45969 22.2383 5.26417 22.2383C5.06865 22.2383 4.91016 22.3968 4.91016 22.5923C4.91016 22.7878 5.06865 22.9463 5.26417 22.9463Z" fill="white"/>
<path d="M18.1154 4.56836L17.4074 6.46406L15.5117 7.16067L17.4074 7.8687L18.1154 9.7644L18.8121 7.8687L20.7078 7.16067L18.8121 6.46406L18.1154 4.56836Z" fill="white"/>
<path d="M16.0149 27.2402L15.6038 28.348L14.4961 28.7591L15.6038 29.1702L16.0149 30.2779L16.4146 29.1702L17.5338 28.7591L16.4146 28.348L16.0149 27.2402Z" fill="white"/>
<path d="M46.6717 19.2692C44.8099 19.2692 43.2793 20.5142 43.0394 22.1133C43.0394 22.1133 43.0166 22.1133 43.0166 22.1247L41.9086 22.8786C41.8172 22.9357 41.7716 23.0385 41.783 23.1413C41.783 23.2441 41.8401 23.3355 41.9315 23.3926L43.0051 24.0208V24.0893C43.0051 24.9003 43.2793 25.6884 43.7933 26.3509C43.7933 26.3509 43.7933 26.3509 43.8047 26.3623C44.4786 27.1276 45.3695 27.6759 46.3519 27.9157C46.3404 27.95 46.329 27.9842 46.329 28.0185V29.1265C46.329 29.2864 46.4661 29.4234 46.626 29.4234C46.7859 29.4234 46.923 29.2864 46.923 29.1265V28.0414C47.1743 28.087 47.3684 28.1099 47.5169 28.1099H47.8253V29.1265C47.8253 29.2864 47.9624 29.4234 48.1223 29.4234C48.2822 29.4234 48.4193 29.2864 48.4193 29.1265V28.1099H50.0298C50.1897 28.1099 50.3268 27.9728 50.3268 27.8129V22.5245C50.3268 20.7198 48.682 19.2578 46.6603 19.2578L46.6717 19.2692ZM43.0051 23.3355L42.6282 23.1185L43.0051 22.8672V23.3355ZM45.4495 22.1819C45.4495 22.3418 45.3124 22.4788 45.1525 22.4788C44.9926 22.4788 44.8555 22.3418 44.8555 22.1819V22.1247C44.8555 21.9648 44.9926 21.8278 45.1525 21.8278C45.3124 21.8278 45.4495 21.9648 45.4495 22.1247V22.1819ZM48.8305 24.4434C48.8305 24.6033 48.6934 24.7404 48.5335 24.7404C48.3736 24.7404 48.2365 24.6033 48.2365 24.4434V24.2835C48.2365 24.0208 48.1566 23.4383 47.4141 23.4383C46.6717 23.4383 46.5917 23.9751 46.5917 24.2835V24.4891C46.5917 25.0488 47.1514 25.5171 47.8367 25.5171H48.5335C48.6934 25.5171 48.8305 25.6542 48.8305 25.8141C48.8305 25.974 48.6934 26.111 48.5335 26.111H47.8367C46.8202 26.111 45.9863 25.38 45.9863 24.4891V24.2835C45.9863 23.6096 46.3633 22.8329 47.4027 22.8329C48.2479 22.8329 48.819 23.4154 48.819 24.2835V24.4434H48.8305Z" fill="white"/>
<path d="M10.68 31.0793C10.3259 30.5425 9.61777 30.394 9.08093 30.7367L4.85471 33.4894C4.31787 33.8434 4.16938 34.5516 4.51205 35.0885L7.2648 39.3146C7.61889 39.8514 8.32706 39.9999 8.86391 39.6458L13.0901 36.8931C13.627 36.5505 13.7755 35.8309 13.4328 35.294L10.68 31.0679V31.0793ZM5.98551 35.3055C5.67711 34.8372 5.81418 34.209 6.28249 33.9006C6.7508 33.5922 7.37902 33.7292 7.68742 34.1975C7.99582 34.6658 7.85875 35.294 7.39044 35.6024C6.92213 35.9108 6.29391 35.7738 5.98551 35.3055ZM12.302 36.0822L8.41844 38.6064C8.30422 38.675 8.15573 38.6521 8.0872 38.5379L7.34475 37.4071C7.34475 37.4071 7.29907 37.2929 7.31049 37.2244L7.59604 35.888C7.61889 35.7624 7.75595 35.671 7.8816 35.7052L8.57835 35.8537L9.06951 33.5579C9.10377 33.4323 9.22942 33.3409 9.35506 33.3751L10.9542 33.7178C11.0227 33.7292 11.0684 33.7635 11.1027 33.8206L12.3705 35.7624C12.4391 35.8766 12.4162 36.0251 12.302 36.0936V36.0822Z" fill="white"/>
<path d="M6.54384 34.3C6.30402 34.4599 6.22408 34.791 6.38396 35.0308C6.54384 35.2821 6.87501 35.3506 7.11483 35.1907C7.36607 35.0308 7.43459 34.6997 7.27471 34.4599C7.11483 34.22 6.78365 34.1401 6.54384 34.3Z" fill="white"/>
<path d="M9.49255 33.8887L9.05859 35.9557L11 36.3668L11.845 35.8072L10.7602 34.1513L9.49255 33.8887Z" fill="white"/>
<path d="M8.01806 36.2188L7.8125 37.2237L8.36065 38.0802L10.4277 36.7326L8.72609 36.3672L8.01806 36.2188Z" fill="white"/>
<path d="M47.5059 34.1973C47.1176 34.0489 46.6379 34.1745 46.4094 34.3573C46.3866 34.0603 46.1695 33.6148 45.804 33.4321C45.29 33.1579 44.5133 33.4435 44.3306 34.3344C44.1707 35.0997 44.9245 35.3738 44.7075 36.1048L43.4625 38.869C43.0627 39.5086 42.3545 39.1431 41.8862 39.7599C41.338 40.4909 41.6464 41.2562 42.1832 41.4618C42.5716 41.6102 43.0399 41.4846 43.2797 41.3019C43.2912 41.5988 43.5196 42.0443 43.8851 42.227C44.3991 42.5012 45.1758 42.2156 45.3586 41.3247C45.5185 40.5594 44.7646 40.2853 44.9816 39.5543L46.2267 36.7901C46.6264 36.1505 47.3346 36.516 47.8029 35.8992C48.3512 35.1682 48.0428 34.4029 47.5059 34.1973Z" fill="white"/>
<path d="M15.2484 18.9146C15.4198 18.5948 15.3398 18.1037 14.9857 17.841C14.803 17.7267 14.6088 17.681 14.4032 17.6925C14.209 17.7039 14.0263 17.841 13.912 18.0123L13.3295 18.8233C13.261 18.9375 13.2267 19.0289 13.1924 19.1545C13.0782 19.1659 12.9754 19.223 12.884 19.2687L12.0502 19.7941C11.9474 19.8627 11.8446 19.9997 11.7761 20.1139C11.7076 20.0911 11.6162 20.0911 11.5362 20.0911L10.5539 20.1825C10.4397 20.1939 10.3141 20.2396 10.2455 20.2967C10.1656 20.2167 10.0742 20.1596 9.94854 20.1139L9.04619 19.8055C8.94339 19.7713 8.84059 19.7599 8.73779 19.7484C8.6921 19.6456 8.64641 19.5543 8.56645 19.4743L7.85828 18.8461C7.78974 18.8004 7.73263 18.7433 7.65268 18.7205C7.67552 18.5948 7.67552 18.4235 7.62983 18.3093L7.29859 17.3727C7.2529 17.2699 7.20721 17.1785 7.12726 17.0985C7.19579 16.9843 7.23006 16.8929 7.21863 16.7444L7.26432 15.7507C7.31001 15.5451 7.23006 15.3624 7.09299 15.2025C6.95592 15.0426 6.77317 14.9512 6.55615 14.9398C6.1221 14.9283 5.76801 15.2367 5.75659 15.6708L5.7109 16.6645C5.68806 16.8815 5.76801 17.0643 5.90508 17.2242H5.92793C5.92793 17.2242 5.92793 17.2584 5.9165 17.2813C5.82513 17.464 5.80228 17.681 5.88224 17.8638L6.21348 18.8004C6.28201 18.9832 6.41908 19.1431 6.57899 19.223C6.52188 19.4743 6.57899 19.7484 6.79601 19.9312L7.51561 20.6165C7.59557 20.6965 7.68694 20.7536 7.81259 20.7993C7.88112 20.8221 7.98392 20.8564 8.0753 20.8335C8.09814 20.8335 8.10957 20.8221 8.13241 20.8335C8.20094 21.0163 8.3837 21.2219 8.60072 21.2904H8.64641L8.53219 21.6445L7.65268 21.8044C7.53846 21.8158 7.4585 21.8958 7.42423 21.9986L7.02446 23.1636C6.99019 23.2664 7.00161 23.3806 7.08157 23.4606L7.90397 24.3972C7.90397 24.3972 7.98392 24.4772 8.02961 24.5C8.0753 24.5114 8.13241 24.5 8.18952 24.5L9.4117 24.2716C9.52592 24.2601 9.60587 24.1802 9.64014 24.0774L10.0399 22.9123C10.0742 22.8095 10.0628 22.6953 9.98281 22.6154L9.37743 21.9186L9.49165 21.576H9.5145C9.73152 21.6559 9.98281 21.6331 10.1656 21.5074C10.1884 21.5074 10.2113 21.5531 10.2341 21.5531C10.3026 21.5988 10.3826 21.6559 10.4625 21.6902C10.5653 21.7245 10.691 21.7359 10.8052 21.7245L11.7875 21.6331C12.0731 21.5988 12.2901 21.4275 12.3929 21.2105C12.5985 21.2561 12.7812 21.2105 12.9526 21.0962L13.7864 20.5708C13.9577 20.468 14.072 20.2853 14.1176 20.0797C14.1176 20.0797 14.1214 20.0644 14.1291 20.034H14.1519C14.3575 19.9997 14.5288 19.8969 14.6431 19.7256L15.2256 18.9146H15.2484ZM6.36197 16.6988L6.38481 15.6936C6.38481 15.6137 6.46477 15.5566 6.54472 15.5566C6.56757 15.5566 6.59041 15.568 6.59041 15.568C6.61326 15.568 6.6361 15.5794 6.65895 15.6137C6.68179 15.6137 6.70463 15.6593 6.70463 15.7165L6.65895 16.7102C6.65895 16.7901 6.57899 16.8472 6.49904 16.8472C6.44192 16.8472 6.4305 16.8244 6.40766 16.7901C6.38481 16.7901 6.36197 16.7444 6.36197 16.6873V16.6988ZM7.07015 18.6062C7.07015 18.6062 7.0473 18.6748 6.99019 18.6862C6.93308 18.6862 6.91023 18.6862 6.88739 18.6862C6.86455 18.6862 6.8417 18.6748 6.80743 18.6062L6.47619 17.6696C6.47619 17.6125 6.47619 17.5897 6.47619 17.5668C6.47619 17.544 6.48761 17.5211 6.55615 17.4869C6.62468 17.4526 6.71606 17.4869 6.7389 17.5783L7.07015 18.5149C7.07015 18.572 7.07015 18.5948 7.07015 18.6177V18.6062ZM8.13241 20.1939C8.13241 20.1939 8.04103 20.2167 8.02961 20.2396C8.00677 20.2396 7.9725 20.2396 7.92681 20.2053L7.20721 19.52C7.13868 19.4743 7.1501 19.3601 7.20721 19.303C7.2529 19.2573 7.31001 19.2573 7.3557 19.2687H7.40139L8.12099 19.9655C8.18952 20.0111 8.1781 20.1254 8.12099 20.1825L8.13241 20.1939ZM9.69725 21.0277L8.74921 20.6965C8.68068 20.6736 8.62356 20.5937 8.65783 20.5023C8.6921 20.3995 8.76063 20.3767 8.85201 20.4109L9.77721 20.7307C9.84574 20.7536 9.90285 20.8335 9.86858 20.9249C9.83432 21.0277 9.76578 21.0505 9.69725 21.0277ZM11.6619 21.0277L10.6796 21.1191C10.6224 21.1191 10.611 21.0962 10.5768 21.0848C10.5425 21.0734 10.5311 21.0391 10.5311 20.982C10.5311 20.9021 10.5768 20.8335 10.6681 20.8107L11.6504 20.7193L11.6961 20.7307C11.7418 20.7422 11.7875 20.7878 11.7875 20.845C11.7875 20.9249 11.7304 21.0163 11.6504 21.0163L11.6619 21.0277ZM13.4552 19.954C13.4552 19.954 13.4552 20.034 13.398 20.0454L12.5642 20.5708C12.5642 20.5708 12.4728 20.5937 12.45 20.5822C12.4272 20.5822 12.3815 20.5594 12.3586 20.5251C12.3129 20.4794 12.3358 20.4338 12.3472 20.4109C12.3472 20.3881 12.3586 20.3652 12.4043 20.3195L13.2381 19.7941C13.2381 19.7941 13.3295 19.7713 13.3524 19.7827C13.3752 19.7827 13.398 19.7941 13.4437 19.8398C13.4894 19.8855 13.4666 19.9312 13.4552 19.954ZM14.0948 19.3601C14.0948 19.3601 14.0263 19.4172 13.992 19.4058C13.9577 19.4172 13.9349 19.4058 13.8892 19.4058C13.8207 19.3601 13.7978 19.2687 13.8549 19.2002L14.4375 18.3892C14.4375 18.3892 14.506 18.3321 14.5403 18.3435C14.5403 18.3435 14.5974 18.3435 14.6202 18.3435C14.6202 18.3435 14.6431 18.3435 14.6659 18.3549C14.7116 18.4006 14.7344 18.4806 14.6773 18.5491L14.0948 19.3601Z" fill="white"/>
<path d="M6.08903 28.3148C6.43163 28.3148 6.71712 28.0293 6.71712 27.6867C6.71712 27.3441 6.43163 27.0586 6.08903 27.0586C5.74643 27.0586 5.46094 27.3441 5.46094 27.6867C5.46094 28.0293 5.74643 28.3148 6.08903 28.3148Z" fill="white"/>
<path d="M27.9844 0C12.553 0 0 12.5528 0 27.984C0 36.8932 4.10057 45.0714 11.2509 50.4054L11.5707 49.9714C11.8905 50.2113 12.2103 50.4397 12.5416 50.6567C14.6318 52.0845 16.9277 53.2267 19.3835 54.0377C20.263 54.3346 21.1768 54.5745 22.102 54.7687C23.998 55.1913 25.9512 55.4083 27.9844 55.4083C29.6406 55.4083 31.2626 55.2598 32.8388 54.9743C33.4442 54.86 34.061 54.7458 34.6435 54.5973C37.5676 53.8663 40.3089 52.667 42.7647 51.0908C43.3244 50.7481 43.8612 50.3598 44.3867 49.9714L44.7065 50.4054C51.8454 45.0714 55.9574 36.8932 55.9574 27.984C55.9688 12.5528 43.4158 0 27.9844 0ZM48.6015 43.7921C46.4541 43.7921 44.558 44.9914 43.53 46.7847C42.5248 45.9623 41.2456 45.4711 39.8749 45.4711C38.3672 45.4711 36.9851 46.0536 35.9457 47.0245C34.9177 43.5751 31.1712 41.0165 26.6937 41.0165C22.9929 41.0165 19.7832 42.7641 18.1956 45.3341C17.1105 44.763 15.8769 44.4546 14.5747 44.4546C12.9185 44.4546 11.3994 44.9571 10.1201 45.8252C9.21771 45.117 8.08692 44.7059 6.88759 44.6602C3.15253 39.9657 1.08511 34.1633 1.08511 27.984C1.08511 13.1582 13.1584 1.08509 27.9844 1.08509C42.8104 1.08509 54.8837 13.1468 54.8837 27.984C54.8837 33.8321 53.0447 39.3603 49.6751 43.9063C49.3211 43.8378 48.967 43.7921 48.6015 43.7921Z" fill="white"/>
<path d="M48.6008 56.1394H47.5042L46.3163 52.69C47.1387 52.5186 47.7669 51.7876 47.7669 50.9081V50.7025C47.7669 49.6974 46.9445 48.875 45.9394 48.875H10.028C9.02283 48.875 8.20043 49.6974 8.20043 50.7025V50.9081C8.20043 51.7876 8.81723 52.5186 9.65105 52.69L8.46315 56.1394H7.36661C6.36146 56.1394 5.53906 56.9618 5.53906 57.9669V58.1725C5.53906 59.1777 6.36146 60.0001 7.36661 60.0001H48.6008C49.6059 60.0001 50.4283 59.1777 50.4283 58.1725V57.9669C50.4283 56.9618 49.6059 56.1394 48.6008 56.1394Z" fill="#8C88F4"/>
<path d="M44.5 50.1081H11.3871C11.3071 50.1081 11.25 50.051 11.25 49.971C11.25 49.8911 11.3071 49.834 11.3871 49.834H44.5C44.58 49.834 44.6371 49.8911 44.6371 49.971C44.6371 50.051 44.58 50.1081 44.5 50.1081Z" fill="white"/>
<g opacity="0.65">
<path d="M35.9563 6.04192C35.6365 5.92772 35.3053 5.81352 34.9742 5.71074C34.3803 5.5166 33.7294 5.8592 33.5467 6.45303C33.3525 7.05828 33.6951 7.6978 34.289 7.88051C34.5859 7.97187 34.8828 8.07465 35.1797 8.17743C35.3053 8.22311 35.4424 8.24595 35.568 8.24595C36.0362 8.24595 36.4702 7.96045 36.6415 7.49224C36.8584 6.89841 36.5501 6.24747 35.9563 6.0305V6.04192Z" fill="white"/>
<path d="M47.357 14.9734C45.2439 11.8324 42.3769 9.22815 39.0531 7.43489C38.5048 7.13791 37.808 7.34351 37.5111 7.89177C37.2141 8.45145 37.4197 9.13677 37.9679 9.43374C40.9606 11.0557 43.5534 13.4086 45.4609 16.2413C45.6779 16.5725 46.0434 16.7438 46.409 16.7438C46.626 16.7438 46.8544 16.6753 47.0486 16.5497C47.574 16.1956 47.7111 15.4874 47.357 14.962V14.9734Z" fill="white"/>
</g>
<path d="M15.957 56.1146V52.6658C15.957 52.3232 16.1968 52.0605 16.5052 52.0605H17.807C18.8691 52.0605 19.4972 52.7115 19.4972 53.6936C19.4972 54.7899 18.7321 55.3723 17.807 55.3723H17.1219V56.126C17.1219 56.4686 16.8592 56.7199 16.5509 56.7199C16.2425 56.7199 15.9799 56.4686 15.9799 56.126L15.957 56.1146ZM17.1104 54.2532H17.6814C18.1154 54.2532 18.378 54.1161 18.378 53.7393C18.378 53.3396 18.1154 53.2482 17.6929 53.2482H17.1219V54.2646L17.1104 54.2532Z" fill="white"/>
<path d="M20.0117 56.1601V52.54C20.0117 52.186 20.2858 51.9805 20.5713 51.9805C20.8682 51.9805 21.1309 52.1974 21.1309 52.54V52.974C21.1309 53.191 21.0738 53.7391 21.0167 54.0931H21.0852C21.1994 53.2709 21.7361 53.0311 22.2158 53.0311C22.9009 53.0311 23.3121 53.4651 23.3121 54.253V56.1601C23.3121 56.5027 23.038 56.7197 22.7525 56.7197C22.467 56.7197 22.1929 56.5027 22.1929 56.1601V54.6413C22.1929 54.3444 22.0673 54.1731 21.759 54.1731C21.4049 54.1731 21.1309 54.4015 21.1309 54.7212V56.1601C21.1309 56.4913 20.8682 56.7197 20.5599 56.7197C20.2744 56.7197 20.0117 56.5027 20.0117 56.1601Z" fill="white"/>
<path d="M23.8278 55.6121C23.8278 55.0069 24.296 54.6415 25.0612 54.6415C25.6778 54.6415 25.9291 54.8698 26.0433 55.1439H26.0661V54.6529C26.0661 54.3217 25.8263 54.139 25.4494 54.139C25.1525 54.139 25.0155 54.2189 24.9013 54.3331C24.7871 54.4359 24.6843 54.5729 24.4331 54.5729C24.1133 54.5729 23.9306 54.3331 23.9306 54.0476C23.9306 53.351 24.7757 53.0312 25.5294 53.0312C26.4772 53.0312 27.1624 53.4195 27.1624 54.4816V55.5322L27.2309 56.0575C27.288 56.4572 27.0025 56.697 26.7171 56.697C26.4087 56.697 26.2032 56.5143 26.1575 56.2288L26.1004 55.8405H26.0547C25.9519 56.3773 25.5294 56.6856 24.867 56.6856C24.2389 56.6742 23.8164 56.2973 23.8164 55.5893L23.8278 55.6121ZM26.089 55.5094C26.089 55.3266 25.8263 55.2353 25.4951 55.2353C25.164 55.2353 24.9127 55.3152 24.9127 55.5208C24.9127 55.7263 25.1525 55.7949 25.4951 55.7949C25.792 55.7949 26.089 55.7035 26.089 55.5094Z" fill="white"/>
<path d="M27.6406 55.8405C27.6406 55.555 27.869 55.3152 28.1088 55.3152C28.2801 55.3152 28.3829 55.4066 28.5085 55.4979C28.6684 55.6121 28.8511 55.7149 29.2394 55.7149C29.6277 55.7149 29.8903 55.6807 29.8903 55.4523C29.8903 55.2581 29.4564 55.2353 29.0909 55.2124C28.3601 55.1553 27.7434 55.0183 27.7434 54.1732C27.7434 53.4538 28.3144 53.0312 29.3079 53.0312C30.1987 53.0312 30.8496 53.3167 30.8496 53.8421C30.8496 54.1276 30.6212 54.3674 30.37 54.3674C30.2558 54.3674 30.1416 54.3217 30.0502 54.2303C29.9018 54.0819 29.6848 54.0248 29.3536 54.0248C28.9882 54.0248 28.7826 54.1161 28.7826 54.2532C28.7826 54.4587 29.0909 54.4702 29.5363 54.5044C30.2215 54.5501 30.9295 54.6529 30.9295 55.4523C30.9295 56.2517 30.2101 56.697 29.2965 56.697C28.223 56.697 27.652 56.3773 27.652 55.8291L27.6406 55.8405Z" fill="white"/>
<path d="M34.7231 55.7606C34.7231 56.4115 33.8781 56.7084 33.1472 56.7084C32.0166 56.7084 31.3086 56.0347 31.3086 54.8813C31.3086 53.7279 32.0623 53.0312 33.1129 53.0312C34.2207 53.0312 34.8259 53.6479 34.8259 54.5044C34.8259 54.9155 34.6089 55.0982 34.1636 55.0982H32.4277C32.4848 55.4523 32.8274 55.6236 33.2043 55.6236C33.524 55.6236 33.7182 55.5094 33.8895 55.4066C34.0037 55.3381 34.1179 55.281 34.2778 55.281C34.5176 55.281 34.7231 55.4751 34.7231 55.7606ZM32.4163 54.5501L33.741 54.5273C33.741 54.2646 33.5012 54.0248 33.1015 54.0248C32.7589 54.0248 32.4734 54.1961 32.4163 54.5501Z" fill="white"/>
<path d="M38.6184 53.9559C39.6119 54.013 40.0116 54.6069 40.0116 55.1893C40.0116 56.0572 39.315 56.7081 38.2073 56.7081C37.4878 56.7081 36.5742 56.4683 36.5742 55.8516C36.5742 55.5205 36.814 55.235 37.1224 55.235C37.2137 55.235 37.3165 55.2578 37.4307 55.3263C37.6363 55.4405 37.8647 55.5205 38.1159 55.5205C38.5042 55.5205 38.8239 55.372 38.8239 55.0637C38.8239 54.7211 38.3443 54.6411 37.8761 54.6868C37.5221 54.7325 37.3051 54.5269 37.3051 54.2414C37.3051 54.0701 37.3964 53.9103 37.5906 53.7961L38.4471 53.2365H37.1909C36.894 53.2365 36.6313 52.9967 36.6313 52.6427C36.6313 52.2544 36.9282 52.0488 37.248 52.0488H39.2122C39.6462 52.0488 39.8974 52.3457 39.8974 52.6998C39.8974 52.9624 39.7832 53.1908 39.5548 53.3393L38.6184 53.9559Z" fill="white"/>
<defs>
<linearGradient id="paint0_linear_3373_22681" x1="19.8961" y1="46.0766" x2="17.3147" y2="11.4907" gradientUnits="userSpaceOnUse">
<stop stop-color="white"/>
<stop offset="1" stop-color="white" stop-opacity="0"/>
</linearGradient>
</defs>
</svg>
