<svg width="56" height="60" viewBox="0 0 56 60" fill="none" xmlns="http://www.w3.org/2000/svg">
<path d="M44.0758 49.5363L44.4071 49.9703C39.8374 53.3969 34.1481 55.43 27.9903 55.43C21.8326 55.43 16.1547 53.4083 11.5735 49.9703L11.9048 49.5363C5.02734 44.4078 1.08594 36.538 1.08594 27.9829C1.08594 13.1571 13.1615 1.08398 27.9903 1.08398C42.8191 1.08398 54.8947 13.1457 54.8947 27.9829C54.8947 36.538 50.9533 44.4078 44.0758 49.5363Z" fill="#33333A"/>
<path opacity="0.8" d="M7.29992 19.6439C7.18567 20.1008 7.1057 20.4777 7.08285 20.7747C7.00288 21.5971 6.94576 22.3167 7.97395 22.6251C7.97395 22.6251 7.98538 22.6251 7.9968 22.6251L8.54517 22.7621L8.83078 22.8307L9.99607 23.1276L11.9382 23.6074C11.9382 23.6074 11.9496 23.6074 11.9611 23.6074C13.0121 23.813 13.2977 23.1619 13.6176 22.3966C13.7433 22.1339 13.8347 21.7684 13.9603 21.3001L14.1545 21.3458C14.5315 21.4372 14.92 21.2087 15.0114 20.8318L15.2741 19.7581C15.3655 19.3812 15.137 18.9929 14.76 18.9015L14.4973 18.8329C14.5544 18.5246 14.5887 18.2504 14.6229 18.022C14.6229 18.022 14.6229 18.022 14.6229 18.0106C14.7372 16.994 14.4401 16.6285 13.9603 16.3886H13.9375C13.9375 16.3886 13.9032 16.3658 13.8918 16.3544C13.6404 16.263 12.7722 16.046 11.824 15.8061C10.613 15.5091 9.92752 15.3378 9.72188 15.315C9.72188 15.315 9.71046 15.315 9.69903 15.315H9.66476C9.05927 15.2693 8.59087 15.452 8.23671 16.4343L7.97395 17.211L7.75689 17.1539C7.37989 17.0625 6.99146 17.291 6.90006 17.6679L6.6373 18.7416C6.54591 19.1185 6.7744 19.5068 7.1514 19.5982L7.28849 19.6325L7.29992 19.6439Z" fill="#B4BCD0"/>
<path opacity="0.8" d="M21.5909 6.53222L22.0934 5.50424C22.162 5.3786 22.0934 5.21869 21.9678 5.15016C21.8421 5.08162 21.6822 5.15016 21.6137 5.2758L21.1226 6.28094L20.2316 5.78979C20.106 5.72126 19.9461 5.76695 19.8776 5.89259C19.809 6.01823 19.8547 6.17814 19.9804 6.24667L20.8941 6.73782L20.4601 7.64016L19.592 7.16043C19.4664 7.0919 19.3065 7.13759 19.2379 7.26323C19.1694 7.38888 19.2151 7.54878 19.3407 7.61732L20.2316 8.10846L19.7176 9.17071L18.8039 8.67957C18.6782 8.61103 18.5183 8.65672 18.4498 8.78236C18.3813 8.90801 18.427 9.06791 18.5526 9.13645L19.4892 9.63902L19.1237 10.3929C19.0552 10.5185 19.1237 10.6784 19.2493 10.747C19.2836 10.7698 19.3293 10.7698 19.3636 10.7698C19.4664 10.7698 19.5577 10.7127 19.6034 10.6213L19.9575 9.8903L20.7571 10.3243C20.7571 10.3243 20.837 10.3586 20.8827 10.3586C20.9741 10.3586 21.0654 10.3129 21.1111 10.2215C21.1797 10.0959 21.134 9.93599 21.0083 9.86746L20.186 9.422L20.6999 8.35975L21.5452 8.81663C21.5452 8.81663 21.6251 8.8509 21.6708 8.8509C21.7622 8.8509 21.8536 8.80521 21.8993 8.71383C21.9678 8.58819 21.9221 8.42828 21.7965 8.35975L20.9398 7.89144L21.3738 6.9891L22.1962 7.43456C22.1962 7.43456 22.2762 7.46883 22.3219 7.46883C22.4133 7.46883 22.5046 7.42314 22.5503 7.33177C22.6188 7.20612 22.5732 7.04621 22.4475 6.97768L21.6023 6.5208L21.5909 6.53222Z" fill="#B4BCD0"/>
<path opacity="0.8" d="M25.5817 8.93025L24.805 9.34144L24.3596 8.45052L25.0791 8.06217C25.2048 7.99364 25.2505 7.83373 25.1819 7.70809C25.1134 7.58245 24.9535 7.53676 24.8279 7.60529L24.1197 7.98222L23.8341 7.41112C23.7656 7.28547 23.6057 7.22836 23.4801 7.2969C23.3544 7.36543 23.2973 7.52534 23.3658 7.65098L23.6628 8.2335L22.9432 8.62185C22.8176 8.69038 22.7719 8.85029 22.8404 8.97594C22.8861 9.06731 22.9775 9.113 23.0689 9.113C23.1146 9.113 23.1488 9.113 23.1945 9.07873L23.9027 8.70181L24.3481 9.59273L23.5372 10.0153C23.4115 10.0839 23.3544 10.2438 23.423 10.3694C23.4686 10.4608 23.56 10.5065 23.6514 10.5065C23.6971 10.5065 23.7313 10.5065 23.777 10.4722L24.5766 10.0496L24.9535 10.8035C24.9992 10.8948 25.0906 10.9519 25.1934 10.9519C25.2276 10.9519 25.2733 10.9519 25.3076 10.9291C25.4332 10.8606 25.4903 10.7007 25.4218 10.575L25.0335 9.80974L25.8216 9.39855C25.9472 9.33002 26.0043 9.17011 25.9358 9.04447C25.8673 8.91883 25.7074 8.86172 25.5817 8.93025Z" fill="#B4BCD0"/>
<path opacity="0.8" d="M43.6063 21.3481L42.6239 18.8696L43.7777 18.4127C43.9148 18.3556 43.9834 18.2071 43.9262 18.07L43.5378 17.0877C42.8295 15.2945 41.1958 14.9746 39.8706 15.4544C39.8249 15.4544 39.7792 15.4772 39.7449 15.5C39.1394 15.9227 37.9399 16.4138 37.2201 16.5166C37.1859 16.5166 37.1516 16.528 37.1287 16.5509C37.1059 16.5509 37.0945 16.5509 37.0716 16.5509C35.7464 17.0877 34.7296 18.4584 35.4494 20.2745L35.8378 21.2568C35.8949 21.3938 36.0434 21.4624 36.1805 21.4052L37.3344 20.9484L38.3169 23.4269C38.374 23.564 38.5225 23.6325 38.6596 23.5754L43.4464 21.6794C43.5835 21.6223 43.652 21.4738 43.5949 21.3367L43.6063 21.3481ZM38.8995 17.1791C38.1341 17.4532 37.7799 17.2933 37.5743 17.0078C37.9056 16.9278 38.294 16.8136 38.6824 16.6537C39.0595 16.5052 39.4365 16.3224 39.7449 16.1397C39.7906 16.4938 39.6421 16.8593 38.8995 17.1791Z" fill="#B4BCD0"/>
<path opacity="0.8" d="M6.08915 27.0586C5.74649 27.0586 5.46094 27.3441 5.46094 27.6868C5.46094 28.0295 5.74649 28.315 6.08915 28.315C6.43181 28.315 6.71736 28.0295 6.71736 27.6868C6.71736 27.3441 6.43181 27.0586 6.08915 27.0586Z" fill="#B4BCD0"/>
<path opacity="0.8" d="M51.1946 25.7891C50.852 25.7891 50.5664 26.0746 50.5664 26.4173C50.5664 26.7599 50.852 27.0455 51.1946 27.0455C51.5373 27.0455 51.8228 26.7599 51.8228 26.4173C51.8228 26.0746 51.5373 25.7891 51.1946 25.7891Z" fill="#B4BCD0"/>
<path opacity="0.8" d="M40.9569 43.4473C40.6257 43.4473 40.3516 43.7214 40.3516 44.0526C40.3516 44.3839 40.6257 44.658 40.9569 44.658C41.2882 44.658 41.5623 44.3839 41.5623 44.0526C41.5623 43.7214 41.2882 43.4473 40.9569 43.4473Z" fill="#B4BCD0"/>
<path opacity="0.8" d="M30.9918 10.6556C31.4145 10.6556 31.7571 10.3129 31.7571 9.89028C31.7571 9.46763 31.4145 9.125 30.9918 9.125C30.5692 9.125 30.2266 9.46763 30.2266 9.89028C30.2266 10.3129 30.5692 10.6556 30.9918 10.6556Z" fill="#B4BCD0"/>
<path opacity="0.8" d="M15.3227 43.9736C15.8526 43.9736 16.2822 43.544 16.2822 43.0141C16.2822 42.4842 15.8526 42.0547 15.3227 42.0547C14.7928 42.0547 14.3633 42.4842 14.3633 43.0141C14.3633 43.544 14.7928 43.9736 15.3227 43.9736Z" fill="#B4BCD0"/>
<path opacity="0.8" d="M20.0494 28.7148C19.8552 28.7148 19.6953 28.8748 19.6953 29.0689C19.6953 29.2631 19.8552 29.423 20.0494 29.423C20.2436 29.423 20.4035 29.2631 20.4035 29.0689C20.4035 28.8748 20.2436 28.7148 20.0494 28.7148Z" fill="#B4BCD0"/>
<path opacity="0.8" d="M14.3565 11.2032C14.5849 11.2032 14.7677 11.0205 14.7677 10.7921C14.7677 10.5636 14.5849 10.3809 14.3565 10.3809C14.1281 10.3809 13.9453 10.5636 13.9453 10.7921C13.9453 11.0205 14.1281 11.2032 14.3565 11.2032Z" fill="#B4BCD0"/>
<path opacity="0.8" d="M36.7491 28.3711L36.4978 29.0564L35.8125 29.3191L36.4978 29.5704L36.7491 30.2557L37.0118 29.5704L37.6971 29.3191L37.0118 29.0564L36.7491 28.3711Z" fill="#B4BCD0"/>
<path opacity="0.8" d="M50.0866 20.5357L49.6754 19.4277L49.2642 20.5357L48.1562 20.9469L49.2642 21.3581L49.6754 22.466L50.0866 21.3581L51.1945 20.9469L50.0866 20.5357Z" fill="#B4BCD0"/>
<path opacity="0.8" d="M47.208 30.5879C47.208 30.5879 47.1395 30.5536 47.0938 30.5536C47.0367 30.5536 46.9681 30.5764 46.8653 30.7021C46.4312 31.2275 46.077 31.6273 45.4487 31.6273C45.2431 31.6273 45.026 31.5816 44.7747 31.5016C43.7579 31.159 43.6322 30.428 43.5751 29.5028C43.5751 29.3885 43.4723 29.3086 43.3466 29.3086C43.2552 29.3086 41.1189 29.3086 39.5994 30.2566C39.5194 30.3137 39.4737 30.4165 39.508 30.5079C39.7936 31.3074 40.0564 32.2212 40.0564 32.2326C40.0792 32.324 40.1478 32.3811 40.2392 32.3811L41.553 32.4953L41.3016 33.649L38.7654 36.2418C38.7654 36.2418 38.6969 36.3446 38.7083 36.4131C38.7083 36.4702 38.7426 36.5273 38.8683 36.6073C39.9764 37.3611 41.1874 37.9665 42.4555 38.3891C43.7579 38.8232 45.106 39.0744 46.4769 39.1315C46.4769 39.1315 46.5911 39.1087 46.6254 39.063C46.6711 39.0173 46.6825 38.9602 46.6825 38.8917L46.3055 35.2595L46.7968 34.2429L47.9963 34.9397C47.9963 34.9397 48.0877 34.9282 48.1106 34.9054C48.122 34.894 48.8417 34.38 49.6186 33.8888C49.71 33.8317 49.7443 33.7175 49.6986 33.6261C48.796 31.6158 47.1966 30.5879 47.1738 30.5764L47.208 30.5879Z" fill="#B4BCD0"/>
<path opacity="0.8" d="M16.7964 32.1175L9.7818 29.4219C9.71325 29.4219 9.64471 29.4676 9.62186 29.5247L7.02853 35.407C6.91428 35.704 7.05138 36.0467 7.33699 36.1495L9.65613 37.0518C9.71325 37.0746 9.7818 37.0861 9.85035 37.0861C10.0331 37.0861 10.2045 36.9947 10.3187 36.8348L11.644 35.1329L11.4726 37.2688C11.4383 37.5315 11.5754 37.7828 11.8153 37.8742L14.1345 38.7765C14.1916 38.7994 14.2602 38.8108 14.3173 38.8108C14.5572 38.8108 14.7742 38.6623 14.8656 38.4224L16.8992 32.3459C16.9335 32.2545 16.8878 32.1632 16.7964 32.1175Z" fill="#B4BCD0"/>
<path opacity="0.15" d="M38.5215 53.3201C35.2884 54.6793 31.724 55.4218 27.9882 55.4218C21.8305 55.4218 16.1526 53.4001 11.5714 49.9735C4.87671 44.9706 0.546875 36.9866 0.546875 27.986C0.546875 13.3773 11.9598 1.44123 26.3545 0.607422C16.4267 4.71935 9.44646 14.508 9.44646 25.9301C9.44646 34.9306 13.7763 42.9146 20.4824 47.9289C25.0521 51.3441 30.7415 53.3772 36.8992 53.3772C37.4476 53.3772 37.9845 53.3772 38.5329 53.3201H38.5215Z" fill="url(#paint0_linear_3373_22678)"/>
<g opacity="0.8">
<path d="M36.0997 37.8866C36.0312 37.8066 35.9626 37.7152 35.8712 37.6239C35.8027 37.5439 35.7341 37.4411 35.6427 37.3611C35.5856 37.2812 35.5285 37.2012 35.4485 37.1441C35.4371 37.1327 35.4257 37.1213 35.4142 37.0984C34.7402 36.139 33.6206 35.4994 32.3525 35.4994H32.3182V17.2241C32.3182 16.1276 31.9412 15.2367 31.3129 14.6313C31.2329 14.5399 31.1644 14.4485 31.0844 14.3686C31.0044 14.2772 30.9359 14.1858 30.8559 14.1059C30.776 14.0145 30.7074 13.9231 30.6274 13.8318C30.5932 13.7975 30.5703 13.7632 30.536 13.729C29.9305 12.8837 28.9252 12.3926 27.6571 12.3926C25.8635 12.3926 24.4583 12.7581 23.0988 13.5919L20.654 15.0653C19.443 15.7621 18.7461 16.9157 18.7461 18.2064C18.7461 19.1773 19.1459 20.1139 19.7971 20.7649H19.8086C19.8771 20.8677 19.9571 20.9591 20.037 21.0391C20.117 21.119 20.1856 21.2104 20.2655 21.3018C20.3455 21.3817 20.4141 21.4731 20.494 21.5645C20.574 21.6558 20.6425 21.7472 20.7225 21.8272C20.9624 22.1127 21.2366 22.3754 21.5565 22.5696C22.1963 22.958 22.916 23.0836 23.6928 22.958V35.4994H22.5047C20.4483 35.4994 18.7689 37.1784 18.7689 39.2458C18.7689 40.2738 19.1802 41.1875 19.8428 41.8614C19.8428 41.8729 19.8543 41.8843 19.8657 41.8957C19.9457 41.9985 20.037 42.0899 20.1284 42.1812C20.197 42.2726 20.2655 42.364 20.3569 42.444C20.4255 42.5353 20.5054 42.6267 20.5854 42.7067C20.6654 42.798 20.7339 42.8894 20.8139 42.9694C21.4994 43.7803 22.5047 44.3057 23.6471 44.3057H33.495C35.5513 44.3057 37.2307 42.6267 37.2307 40.5593C37.2307 39.5199 36.7966 38.5719 36.0997 37.8866ZM32.3525 41.9985H22.5047C20.9853 41.9985 19.7514 40.7649 19.7514 39.2458C19.7514 37.7267 20.9853 36.4931 22.5047 36.4931H24.1841C24.4583 36.4931 24.6753 36.2761 24.6753 36.0019V20.4337C24.6753 20.2509 24.5839 20.091 24.424 19.9997C24.2641 19.9197 24.0813 19.9197 23.9213 20.0111L23.4529 20.308C22.2762 20.9363 21.4194 20.7078 20.9167 20.3994C20.197 19.9768 19.7286 19.1087 19.7286 18.2064C19.7286 17.3041 20.2427 16.436 21.1566 15.9106L23.6129 14.4371C24.8124 13.7061 26.0577 13.3749 27.6571 13.3749C29.942 13.3749 30.1819 15.1453 30.1819 15.9106V36.0019C30.1819 36.2761 30.3989 36.4931 30.6731 36.4931H32.3525C33.872 36.4931 35.1058 37.7267 35.1058 39.2458C35.1058 40.7649 33.872 41.9985 32.3525 41.9985Z" fill="#B4BCD0"/>
<path d="M35.1038 39.2479C35.1038 40.767 33.8699 42.0006 32.3505 42.0006H22.5027C20.9832 42.0006 19.7494 40.767 19.7494 39.2479C19.7494 37.7287 20.9832 36.4952 22.5027 36.4952H24.1821C24.4562 36.4952 24.6733 36.2781 24.6733 36.004V20.4358C24.6733 20.253 24.5819 20.0931 24.422 20.0017C24.262 19.9218 24.0792 19.9218 23.9193 20.0132L23.4509 20.3101C22.2742 20.9383 21.4174 20.7099 20.9147 20.4015C20.195 19.9789 19.7266 19.1108 19.7266 18.2085C19.7266 17.3061 20.2407 16.4381 21.1546 15.9126L23.6108 14.4392C24.8104 13.7082 26.0557 13.377 27.6551 13.377C29.9399 13.377 30.1799 15.1474 30.1799 15.9126V36.004C30.1799 36.2781 30.3969 36.4952 30.6711 36.4952H32.3505C33.8699 36.4952 35.1038 37.7287 35.1038 39.2479Z" fill="#454A60"/>
</g>
<path d="M27.9897 0C12.5554 0 0 12.5528 0 27.984C0 36.8932 4.10135 45.0714 11.253 50.4054L11.5729 49.9714C11.8928 50.2113 12.2126 50.4397 12.544 50.6567C14.6346 52.0845 16.9309 53.2267 19.3871 54.0377C20.2668 54.3346 21.1808 54.5745 22.1061 54.7687C24.0026 55.1913 25.9562 55.4083 27.9897 55.4083C29.6462 55.4083 31.2685 55.2598 32.8451 54.9743C33.4505 54.86 34.0675 54.7458 34.6501 54.5973C37.5747 53.8663 40.3166 52.667 42.7728 51.0908C43.3326 50.7481 43.8696 50.3598 44.3951 49.9714L44.715 50.4054C51.8552 45.0714 55.968 36.8932 55.968 27.984C55.9794 12.5528 43.424 0 27.9897 0ZM48.6107 43.7921C46.4629 43.7921 44.5665 44.9914 43.5383 46.7847C42.5329 45.9623 41.2534 45.4711 39.8825 45.4711C38.3744 45.4711 36.9921 46.0536 35.9525 47.0245C34.9243 43.5751 31.1771 41.0165 26.6987 41.0165C22.9972 41.0165 19.787 42.7641 18.199 45.3341C17.1137 44.763 15.8799 44.4546 14.5775 44.4546C12.921 44.4546 11.4015 44.9571 10.122 45.8252C9.21946 45.117 8.08845 44.7059 6.88889 44.6602C3.15313 39.9657 1.08531 34.1633 1.08531 27.984C1.08531 13.1582 13.1609 1.08509 27.9897 1.08509C42.8185 1.08509 54.8941 13.1468 54.8941 27.984C54.8941 33.8321 53.0548 39.3603 49.6846 43.9063C49.3304 43.8378 48.9763 43.7921 48.6107 43.7921Z" fill="white"/>
<path d="M35.9645 6.04394C35.6447 5.92972 35.3135 5.8155 34.9823 5.7127C34.3883 5.51853 33.7373 5.86119 33.5545 6.45513C33.3603 7.0605 33.703 7.70014 34.2969 7.88289C34.5939 7.97427 34.8909 8.07706 35.1878 8.17986C35.3135 8.22555 35.4506 8.24839 35.5762 8.24839C36.0445 8.24839 36.4785 7.96284 36.6499 7.49454C36.8669 6.90059 36.5585 6.24954 35.9645 6.03252V6.04394Z" fill="white"/>
<path d="M39.0573 7.43489C38.5089 7.13791 37.812 7.34351 37.515 7.89177C37.218 8.45145 37.4236 9.13677 37.972 9.43374C40.9652 11.0557 43.5585 13.4086 45.4664 16.2413C45.6834 16.5725 46.049 16.7438 46.4146 16.7438C46.6316 16.7438 46.8601 16.6753 47.0543 16.5497C47.5799 16.1956 47.717 15.4874 47.3628 14.962C45.2493 11.8209 42.3818 9.21672 39.0573 7.42346V7.43489Z" fill="white"/>
<path d="M48.6128 56.1375H47.5161L46.328 52.688C47.1505 52.5167 47.7789 51.7857 47.7789 50.9062V50.7006C47.7789 49.6954 46.9563 48.873 45.951 48.873H10.0327C9.0274 48.873 8.20485 49.6954 8.20485 50.7006V50.9062C8.20485 51.7857 8.82176 52.5167 9.65574 52.688L8.46761 56.1375H7.37087C6.36552 56.1375 5.54297 56.9598 5.54297 57.965V58.1706C5.54297 59.1757 6.36552 59.9981 7.37087 59.9981H48.6128C49.6182 59.9981 50.4407 59.1757 50.4407 58.1706V57.965C50.4407 56.9598 49.6182 56.1375 48.6128 56.1375Z" fill="#B4BCD0"/>
<path d="M44.5102 50.1081H11.391C11.311 50.1081 11.2539 50.051 11.2539 49.971C11.2539 49.8911 11.311 49.834 11.391 49.834H44.5102C44.5902 49.834 44.6473 49.8911 44.6473 49.971C44.6473 50.051 44.5902 50.1081 44.5102 50.1081Z" fill="white"/>
<path d="M16.7578 56.1173V52.6679C16.7578 52.3252 16.9977 52.0625 17.3061 52.0625H18.6082C19.6704 52.0625 20.2986 52.7136 20.2986 53.6958C20.2986 54.7924 19.5334 55.3749 18.6082 55.3749H17.9229V56.1287C17.9229 56.4714 17.6602 56.7227 17.3518 56.7227C17.0434 56.7227 16.7807 56.4714 16.7807 56.1287L16.7578 56.1173ZM17.9114 54.2555H18.4825C18.9166 54.2555 19.1793 54.1185 19.1793 53.7415C19.1793 53.3418 18.9166 53.2504 18.494 53.2504H17.9229V54.2669L17.9114 54.2555Z" fill="white"/>
<path d="M20.8125 56.1629V52.5421C20.8125 52.188 21.0866 51.9824 21.3722 51.9824C21.6692 51.9824 21.9319 52.1994 21.9319 52.5421V52.9761C21.9319 53.1932 21.8748 53.7414 21.8176 54.0955H21.8862C22.0004 53.2731 22.5372 53.0333 23.017 53.0333C23.7023 53.0333 24.1135 53.4673 24.1135 54.2554V56.1629C24.1135 56.5055 23.8393 56.7226 23.5538 56.7226C23.2682 56.7226 22.9941 56.5055 22.9941 56.1629V54.6438C22.9941 54.3468 22.8685 54.1755 22.5601 54.1755C22.206 54.1755 21.9319 54.4039 21.9319 54.7237V56.1629C21.9319 56.4941 21.6692 56.7226 21.3608 56.7226C21.0638 56.7226 20.8125 56.5055 20.8125 56.1629Z" fill="white"/>
<path d="M24.6325 55.6146C24.6325 55.0092 25.1008 54.6437 25.8661 54.6437C26.4829 54.6437 26.7342 54.8721 26.8484 55.1463H26.8712V54.6551C26.8712 54.3239 26.6314 54.1411 26.2544 54.1411C25.9575 54.1411 25.8204 54.2211 25.7062 54.3353C25.592 54.4381 25.4892 54.5752 25.2379 54.5752C24.9181 54.5752 24.7353 54.3353 24.7353 54.0498C24.7353 53.353 25.5805 53.0332 26.3344 53.0332C27.2824 53.0332 27.9678 53.4216 27.9678 54.4838V55.5346L28.0363 56.06C28.0934 56.4598 27.8078 56.6997 27.5223 56.6997C27.2139 56.6997 27.0083 56.5169 26.9626 56.2314L26.9055 55.843H26.8598C26.757 56.3799 26.3344 56.6883 25.6719 56.6883C25.0437 56.6768 24.6211 56.2999 24.6211 55.5917L24.6325 55.6146ZM26.8941 55.5118C26.8941 55.329 26.6314 55.2377 26.3001 55.2377C25.9689 55.2377 25.7176 55.3176 25.7176 55.5232C25.7176 55.7288 25.9575 55.7973 26.3001 55.7973C26.5971 55.7973 26.8941 55.706 26.8941 55.5118Z" fill="white"/>
<path d="M28.4492 55.843C28.4492 55.5575 28.6777 55.3176 28.9175 55.3176C29.0889 55.3176 29.1917 55.409 29.3173 55.5004C29.4886 55.6146 29.66 55.7174 30.0483 55.7174C30.4367 55.7174 30.6994 55.6831 30.6994 55.4547C30.6994 55.2605 30.2653 55.2377 29.8998 55.2148C29.1688 55.1577 28.552 55.0206 28.552 54.1754C28.552 53.4558 29.1231 53.0332 30.1168 53.0332C31.0078 53.0332 31.6588 53.3188 31.6588 53.8442C31.6588 54.1297 31.4304 54.3696 31.1791 54.3696C31.0649 54.3696 30.9506 54.3239 30.8593 54.2325C30.7108 54.084 30.4938 54.0269 30.1625 54.0269C29.797 54.0269 29.5914 54.1183 29.5914 54.2554C29.5914 54.461 29.8998 54.4724 30.3453 54.5066C31.0306 54.5523 31.7388 54.6551 31.7388 55.4547C31.7388 56.2542 31.0192 56.6997 30.1054 56.6997C29.0317 56.6997 28.4606 56.3799 28.4606 55.8316L28.4492 55.843Z" fill="white"/>
<path d="M35.5246 55.7631C35.5246 56.4141 34.6793 56.7111 33.9483 56.7111C32.8175 56.7111 32.1094 56.0372 32.1094 54.8836C32.1094 53.7299 32.8632 53.0332 33.9141 53.0332C35.022 53.0332 35.6274 53.65 35.6274 54.5066C35.6274 54.9178 35.4103 55.1006 34.9649 55.1006H33.2287C33.2858 55.4547 33.6285 55.626 34.0054 55.626C34.3252 55.626 34.5194 55.5118 34.6908 55.409C34.805 55.3405 34.9192 55.2833 35.0791 55.2833C35.319 55.2833 35.5246 55.4775 35.5246 55.7631ZM33.2173 54.5523L34.5423 54.5295C34.5423 54.2668 34.3024 54.0269 33.9026 54.0269C33.56 54.0269 33.2744 54.1982 33.2173 54.5523Z" fill="white"/>
<path d="M39.2176 52.5645V56.0825C39.2176 56.4365 39.0234 56.7107 38.6465 56.7107C38.2924 56.7107 38.0868 56.4365 38.0868 56.1167V53.364L37.9954 53.4211C37.55 53.661 37.2188 53.3298 37.2188 52.9757C37.2188 52.8043 37.3101 52.6216 37.5043 52.4959L37.9383 52.2332C38.1782 52.0847 38.4181 52.0391 38.6922 52.0391C39.0577 52.0391 39.2176 52.2789 39.2176 52.5645Z" fill="white"/>
<defs>
<linearGradient id="paint0_linear_3373_22678" x1="19.8998" y1="46.0785" x2="17.3189" y2="11.4925" gradientUnits="userSpaceOnUse">
<stop stop-color="white"/>
<stop offset="1" stop-color="white" stop-opacity="0"/>
</linearGradient>
</defs>
</svg>
