<svg width="56" height="60" viewBox="0 0 56 60" fill="none" xmlns="http://www.w3.org/2000/svg">
<path d="M44.0677 49.5382L44.3989 49.9723C39.83 53.3989 34.1418 55.432 27.9852 55.432C21.8286 55.432 16.1518 53.4103 11.5715 49.9723L11.9028 49.5382C5.0266 44.4097 1.08594 36.5399 1.08594 27.9848C1.08594 13.159 13.1592 1.08594 27.9852 1.08594C42.8112 1.08594 54.8845 13.1476 54.8845 27.9848C54.8845 36.5399 50.9438 44.4097 44.0677 49.5382Z" fill="#17171E" fill-opacity="0.6"/>
<path opacity="0.15" d="M38.5143 53.3182C35.2818 54.6774 31.7181 55.4198 27.983 55.4198C21.8264 55.4198 16.1496 53.3981 11.5693 49.9715C4.87589 44.9687 0.546875 36.9847 0.546875 27.9841C0.546875 13.3753 11.9577 1.43928 26.3496 0.605469C16.4237 4.7174 9.44477 14.5061 9.44477 25.9281C9.44477 34.9287 13.7738 42.9127 20.4786 47.927C25.0475 51.3422 30.7357 53.3753 36.8923 53.3753C37.4406 53.3753 37.9774 53.3753 38.5257 53.3182H38.5143Z" fill="url(#paint0_linear_3373_22680)"/>
<path opacity="0.8" d="M6.08903 28.3148C6.43163 28.3148 6.71712 28.0293 6.71712 27.6867C6.71712 27.3441 6.43163 27.0586 6.08903 27.0586C5.74643 27.0586 5.46094 27.3441 5.46094 27.6867C5.46094 28.0293 5.74643 28.3148 6.08903 28.3148Z" fill="#B4BCD0"/>
<path opacity="0.8" d="M32.7023 9.67383C32.3597 9.67383 32.0742 9.95933 32.0742 10.3019C32.0742 10.6445 32.3597 10.93 32.7023 10.93C33.0449 10.93 33.3304 10.6445 33.3304 10.3019C33.3304 9.95933 33.0449 9.67383 32.7023 9.67383Z" fill="#B4BCD0"/>
<path opacity="0.8" d="M15.1125 29.1953C14.7699 29.1953 14.4844 29.4808 14.4844 29.8234C14.4844 30.166 14.7699 30.4515 15.1125 30.4515C15.4551 30.4515 15.7406 30.166 15.7406 29.8234C15.7406 29.4808 15.4551 29.1953 15.1125 29.1953Z" fill="#B4BCD0"/>
<path opacity="0.8" d="M42.8703 44.4434C42.5277 44.4434 42.2422 44.7289 42.2422 45.0715C42.2422 45.414 42.5277 45.6995 42.8703 45.6995C43.2129 45.6995 43.4984 45.414 43.4984 45.0715C43.4984 44.7289 43.2129 44.4434 42.8703 44.4434Z" fill="#B4BCD0"/>
<path opacity="0.8" d="M11.4914 42.7305C11.1488 42.7305 10.8633 43.016 10.8633 43.3586C10.8633 43.7012 11.1488 43.9867 11.4914 43.9867C11.834 43.9867 12.1195 43.7012 12.1195 43.3586C12.1195 43.016 11.834 42.7305 11.4914 42.7305Z" fill="#B4BCD0"/>
<path opacity="0.8" d="M13.5596 24.7857C13.5596 24.5915 13.3997 24.4316 13.2056 24.4316C13.0114 24.4316 12.8516 24.5915 12.8516 24.7857C12.8516 24.9798 13.0114 25.1397 13.2056 25.1397C13.3997 25.1397 13.5596 24.9798 13.5596 24.7857Z" fill="#B4BCD0"/>
<path opacity="0.8" d="M52.2134 31.9121C52.0193 31.9121 51.8594 32.072 51.8594 32.2661C51.8594 32.4603 52.0193 32.6201 52.2134 32.6201C52.4075 32.6201 52.5674 32.4603 52.5674 32.2661C52.5674 32.072 52.4075 31.9121 52.2134 31.9121Z" fill="#B4BCD0"/>
<path opacity="0.8" d="M43.4985 16.9287C43.6927 16.9287 43.8526 16.7689 43.8526 16.5747C43.8526 16.3806 43.6927 16.2207 43.4985 16.2207C43.3044 16.2207 43.1445 16.3806 43.1445 16.5747C43.1445 16.7689 43.3044 16.9287 43.4985 16.9287Z" fill="#B4BCD0"/>
<path opacity="0.8" d="M5.45022 19.3384C5.45022 19.1443 5.29034 18.9844 5.0962 18.9844C4.90207 18.9844 4.74219 19.1443 4.74219 19.3384C4.74219 19.5325 4.90207 19.6924 5.0962 19.6924C5.29034 19.6924 5.45022 19.5325 5.45022 19.3384Z" fill="#B4BCD0"/>
<path opacity="0.8" d="M14.4061 10.0387L14.1549 9.35352L13.8922 10.0387L13.207 10.3014L13.8922 10.5526L14.1549 11.2378L14.4061 10.5526L15.0913 10.3014L14.4061 10.0387Z" fill="#B4BCD0"/>
<path opacity="0.8" d="M39.9212 30.9766L39.5101 32.0843L38.4023 32.4954L39.5101 32.9065L39.9212 34.0142L40.3323 32.9065L41.44 32.4954L40.3323 32.0843L39.9212 30.9766Z" fill="#B4BCD0"/>
<path opacity="0.8" d="M27.3797 2.96974C27.0827 3.004 26.8542 3.2096 26.7629 3.51799C26.7057 3.70075 26.6486 3.90634 26.5801 4.14621L26.5001 4.32896C26.1575 5.04855 25.6892 5.11708 25.3122 5.08281C24.9924 5.05997 24.1814 5.03712 23.5304 5.34552C23.5304 5.34552 23.439 5.37979 23.4047 5.40263C22.7879 5.73387 22.4567 6.12222 22.1711 6.4763L22.0912 6.5791C21.8742 6.84181 21.5429 7.23015 20.7319 7.01314L20.5263 6.95603C20.2979 6.86465 20.1151 6.77327 19.9438 6.70474C19.6468 6.5791 19.3384 6.62479 19.1214 6.83038C18.8473 7.09309 18.7902 7.54997 18.9729 7.98401C19.2242 8.6008 19.8296 9.13763 20.6177 9.45745C21.2574 9.72016 21.7828 9.72016 22.0226 9.69731C22.5938 10.177 23.9873 11.0451 25.8377 10.177C27.1169 9.58309 27.7794 8.46374 27.7337 7.02456C27.9051 6.84181 28.2363 6.44203 28.4419 5.79098C28.7046 4.98001 28.6818 4.18047 28.362 3.58653C28.1449 3.16391 27.7566 2.92405 27.3797 2.95831V2.96974ZM20.8119 8.95488C20.1722 8.69218 19.6697 8.25814 19.4755 7.77841C19.3727 7.51571 19.4184 7.31011 19.4983 7.21873C19.5212 7.19589 19.5783 7.13878 19.7154 7.20731C19.921 7.29869 20.1722 7.40149 20.4692 7.53855C20.7776 8.16676 21.1089 8.7036 21.463 9.13764C21.2688 9.10337 21.0518 9.05768 20.8005 8.95488H20.8119ZM26.1803 7.19589C26.1803 7.19589 25.6892 7.70988 24.8097 8.12107C24.3642 8.32667 23.8045 8.52085 23.142 8.62364C22.9935 8.64649 22.8565 8.54369 22.8336 8.3952C22.8108 8.24672 22.9136 8.10965 23.0621 8.08681C24.8211 7.81268 25.7805 6.83038 25.792 6.81896C25.8948 6.70474 26.0661 6.70474 26.1803 6.81896C26.2945 6.93318 26.2945 7.09309 26.1803 7.20731V7.19589ZM27.9165 5.64249C27.8365 5.89378 27.7337 6.09937 27.6309 6.25928C27.5281 5.6996 27.3225 5.10566 27.037 4.47744C27.1284 4.16905 27.2083 3.90634 27.2769 3.68932C27.3225 3.54084 27.4025 3.52942 27.4253 3.52942C27.551 3.51799 27.7337 3.62079 27.8708 3.87208C28.1107 4.32896 28.1221 4.99144 27.9051 5.65391L27.9165 5.64249Z" fill="#B4BCD0"/>
<path opacity="0.8" d="M44.6152 36.2078C44.718 36.1735 44.7979 36.105 44.8664 36.0022C44.9578 35.8423 44.9578 35.6595 44.8664 35.5111L45.0149 35.2712C45.4032 35.374 45.9056 35.2369 46.1683 34.8029C46.4766 34.2889 46.3624 33.7178 45.8828 33.4322C45.563 33.2381 45.0948 33.1581 44.7065 33.4893C44.6038 33.5807 44.5809 33.5693 44.5353 33.535C44.4211 33.4665 44.2726 33.5008 44.2041 33.615C44.1356 33.7292 44.1698 33.8777 44.284 33.9462C44.5353 34.1061 44.7751 34.0719 45.0377 33.8549C45.2661 33.6607 45.5402 33.7863 45.643 33.8549C45.8942 34.0033 45.9399 34.2775 45.7686 34.563C45.5973 34.8486 45.2319 34.8714 45.0606 34.7686C44.9464 34.7001 44.7979 34.7344 44.7294 34.8486L44.4782 35.2712C44.3069 35.2712 44.1356 35.3511 44.0442 35.5111C43.9871 35.6138 43.9643 35.7166 43.9757 35.8194L43.7244 35.671C43.6102 35.6024 43.4618 35.6367 43.3933 35.7509C43.3362 35.8423 43.3476 35.9451 43.4047 36.025L42.6624 36.4705L42.5825 36.4248C42.4683 36.3563 42.3198 36.3905 42.2513 36.5048C42.1828 36.619 42.217 36.7561 42.3198 36.8246C42.1713 36.9388 42.0571 37.0644 41.9544 37.2244C41.5432 37.9097 41.7602 38.8006 42.434 39.2004C43.1078 39.6116 43.9985 39.3831 44.4096 38.6978C44.501 38.5379 44.5695 38.3666 44.6038 38.1838C44.7065 38.2181 44.8322 38.1838 44.8893 38.081C44.9578 37.9668 44.9235 37.8183 44.8093 37.7498L44.7522 37.7155L44.7865 36.836C44.8778 36.8474 44.9806 36.8017 45.0263 36.7218C45.0948 36.6076 45.0606 36.4591 44.9464 36.3905L44.6495 36.2078H44.6152Z" fill="#B4BCD0"/>
<path opacity="0.8" d="M49.3008 35.5006C48.981 35.3064 48.5128 35.2265 48.1245 35.5577C48.0217 35.6491 47.9989 35.6377 47.9532 35.6034C47.839 35.5349 47.6906 35.5691 47.622 35.6834C47.5535 35.7976 47.5878 35.9461 47.702 36.0146C47.9532 36.1745 48.193 36.1402 48.4557 35.9232C48.6841 35.729 48.9582 35.8547 49.0609 35.9232C49.3122 36.0717 49.3579 36.3458 49.1866 36.6314C49.0153 36.9169 48.6498 36.9398 48.4785 36.837C48.3643 36.7684 48.2159 36.8027 48.1474 36.9169L47.8961 37.3395C47.7248 37.3395 47.5535 37.4195 47.4622 37.5794C47.4051 37.6822 47.3822 37.785 47.3936 37.8878L47.1424 37.7393C47.0282 37.6708 46.8798 37.7051 46.8112 37.8193C46.7541 37.9107 46.7656 38.0134 46.8227 38.0934L46.0804 38.5389L46.0004 38.4817C45.8862 38.4132 45.7378 38.4475 45.6692 38.5617C45.6007 38.6759 45.635 38.813 45.7378 38.8815C45.5893 38.9957 45.4751 39.1214 45.3723 39.2813C44.9612 39.9666 45.1782 40.8575 45.852 41.2573C46.5257 41.6685 47.4165 41.4401 47.8276 40.7547C47.919 40.5948 47.9875 40.4235 48.0217 40.2407C48.1245 40.275 48.2501 40.2407 48.3072 40.1379C48.3758 40.0237 48.3415 39.8752 48.2273 39.8067L48.1702 39.7724L48.2045 38.8929C48.2958 38.9044 48.3986 38.8587 48.4443 38.7787C48.5128 38.6645 48.4785 38.516 48.3643 38.4475L48.0674 38.2647C48.1702 38.2305 48.2501 38.1619 48.3187 38.0591C48.41 37.8992 48.41 37.7165 48.3187 37.568L48.4671 37.3281C48.8554 37.4309 49.3579 37.2939 49.6205 36.8598C49.9289 36.3458 49.8147 35.7747 49.335 35.4892L49.3008 35.5006Z" fill="#B4BCD0"/>
<path opacity="0.8" d="M43.7929 23.747C43.7929 23.747 43.7358 23.7242 43.7244 23.7356C43.7016 23.7356 43.6445 23.7356 43.5646 23.8498C43.2676 24.3295 43.4047 24.7063 43.5303 24.7862C43.6559 24.8776 44.1584 24.8776 44.6723 24.8319C44.3068 24.1125 43.9757 23.827 43.7929 23.7585V23.747Z" fill="#B4BCD0"/>
<path opacity="0.8" d="M49.793 21.1763C49.6902 21.1763 49.5874 21.222 49.5417 21.2905C49.5417 21.3134 48.9592 22.2272 48.5594 22.8097C47.5771 21.9759 46.3435 21.4961 45.0528 21.4162C45.1556 20.7309 45.3612 19.6686 45.3726 19.6458C45.3841 19.5544 45.3498 19.4516 45.2698 19.3831C45.1785 19.326 45.0757 19.3145 44.9843 19.3602C43.9563 19.8971 42.6998 21.736 41.9003 23.3122C41.4891 24.1232 41.0322 25.5167 40.918 26.2591C40.918 26.3391 40.9408 26.4305 40.9979 26.4876C41.4777 26.8988 42.0716 26.7845 42.5513 26.716C42.8483 26.6589 43.111 26.6132 43.2824 26.6817C43.5222 26.7731 43.6707 26.9102 43.8421 27.0587C44.0362 27.23 44.2418 27.4242 44.6188 27.5727C44.9957 27.7212 45.2927 27.7326 45.5668 27.7326C45.8067 27.7326 46.0008 27.744 46.2636 27.8468C46.4235 27.9153 46.5948 28.1209 46.7661 28.3722C46.9946 28.6692 47.2687 29.0347 47.6571 29.1946C47.7713 29.2403 47.9084 29.2745 48.0454 29.2745C48.1482 29.2745 48.2282 29.2403 48.2739 29.1603C49.7587 26.9102 50.6154 23.0381 50.0215 21.3477C49.9872 21.2563 49.8958 21.1877 49.793 21.1763ZM45.2927 25.1855C45.247 25.254 45.1899 25.2997 45.0985 25.3111C44.8015 25.3568 43.8192 25.4596 43.3509 25.2654C43.3052 25.254 43.2709 25.2311 43.2367 25.2083C42.9169 24.9913 42.6541 24.3288 43.111 23.5635C43.3166 23.2323 43.6022 23.198 43.7507 23.1866C44.4474 23.2437 45.03 24.306 45.3041 24.9342C45.3384 25.0027 45.3384 25.1055 45.3041 25.174L45.2927 25.1855ZM48.4909 25.6995C48.3081 26.5561 47.737 26.8873 47.2916 26.8188C47.223 26.8074 47.1659 26.796 47.0974 26.7731C46.5605 26.5561 45.9552 25.768 45.8409 25.5967C45.7952 25.5395 45.7724 25.4482 45.7952 25.3682C45.8181 25.2883 45.8752 25.2311 45.9437 25.1969C46.572 24.9342 47.737 24.5572 48.2739 24.9913C48.3767 25.0941 48.5594 25.3111 48.4795 25.6995H48.4909Z" fill="#B4BCD0"/>
<path opacity="0.8" d="M46.4883 25.5518C46.7738 25.8944 47.1506 26.2598 47.3562 26.2826C47.5846 26.3169 47.8701 26.0999 47.9729 25.586C48.0071 25.449 47.9614 25.4033 47.9386 25.4033C47.8244 25.3119 47.379 25.232 46.4883 25.5518Z" fill="#B4BCD0"/>
<path opacity="0.8" d="M13.4674 19.7604L13.1133 19.8175C13.1133 19.8175 13.1133 19.8175 13.1133 19.806L12.2338 16.448C12.1881 16.2766 12.1424 16.0939 12.0853 15.9111C11.9596 15.4657 11.7083 15.3172 11.5256 15.2715C11.0344 15.1573 10.4747 15.6256 10.212 15.9225C9.89221 16.2881 9.59523 16.3223 9.13834 16.0596C8.65861 15.7741 8.16746 15.717 7.81337 15.8997C7.53924 16.0482 7.37932 16.3223 7.35648 16.6764C7.32221 17.3846 7.37932 20.5256 7.39075 20.6513C7.39075 20.6513 7.39075 20.6513 7.39075 20.6741L7.03666 20.7312C6.78537 20.7655 6.61404 21.0168 6.65973 21.2795C6.72826 21.7706 7.15088 22.1133 7.60777 22.0448L13.3189 21.1881C13.7643 21.1196 14.0727 20.6627 13.9928 20.1715C13.9585 19.9088 13.7186 19.7147 13.4674 19.7489V19.7604ZM13.2503 20.7541L7.53924 21.6107C7.33364 21.645 7.12804 21.4622 7.09377 21.211C7.09377 21.1767 7.09377 21.1538 7.10519 21.1538L13.5359 20.1944C13.5359 20.1944 13.5587 20.2058 13.5702 20.2401C13.6044 20.4914 13.4674 20.7198 13.2618 20.7541H13.2503Z" fill="#B4BCD0"/>
<path opacity="0.8" d="M13.401 35.4305L12.6471 31.2614C12.5672 30.8274 12.156 30.5533 11.7219 30.6218L11.3107 30.6903C11.1737 30.7132 11.0823 30.8388 11.1051 30.9759C11.128 31.1129 11.2536 31.2043 11.3907 31.1815L11.8019 31.1129C11.9618 31.0901 12.1217 31.1929 12.1446 31.3528L12.67 34.2997C12.3502 34.0256 11.9275 33.8542 11.4707 33.8542C10.5455 33.8542 9.79159 34.5396 9.66594 35.4305H9.04914C8.9235 34.5396 8.16963 33.8542 7.24444 33.8542C6.78755 33.8542 6.36493 34.0256 6.04511 34.3111L6.57053 31.3642C6.60479 31.2043 6.75328 31.0901 6.91319 31.1244L7.32439 31.1929C7.46146 31.2157 7.5871 31.1244 7.60995 30.9873C7.63279 30.8502 7.54141 30.7246 7.40435 30.7018L6.99315 30.6332C6.5591 30.5647 6.15933 30.8388 6.06795 31.2729L5.32551 35.4419C5.18844 35.4419 5.07422 35.5561 5.07422 35.6932C5.07422 35.8302 5.18844 35.9445 5.32551 35.9445H5.42831C5.55395 36.8354 6.30782 37.5207 7.23301 37.5207C8.15821 37.5207 8.91208 36.8354 9.03772 35.9445H9.65452C9.78016 36.8354 10.534 37.5207 11.4592 37.5207C12.3844 37.5207 13.1383 36.8354 13.2639 35.9445H13.3439C13.481 35.9445 13.5952 35.8302 13.5952 35.6932C13.5952 35.5561 13.4924 35.4533 13.3667 35.4419L13.401 35.4305ZM7.26728 37.0067C6.53626 37.0067 5.94231 36.4128 5.94231 35.6818C5.94231 34.9508 6.53626 34.3568 7.26728 34.3568C7.9983 34.3568 8.59226 34.9508 8.59226 35.6818C8.59226 36.4128 7.9983 37.0067 7.26728 37.0067ZM11.4935 37.0067C10.7625 37.0067 10.1685 36.4128 10.1685 35.6818C10.1685 34.9508 10.7625 34.3568 11.4935 34.3568C12.2245 34.3568 12.8185 34.9508 12.8185 35.6818C12.8185 36.4128 12.2245 37.0067 11.4935 37.0067Z" fill="#B4BCD0"/>
<g opacity="0.8">
<path d="M38.7209 36.1857C38.6067 36.0487 38.4811 35.923 38.344 35.7974C38.2526 35.6946 38.1612 35.6032 38.0699 35.5232C38.0584 35.5118 38.0584 35.5004 38.0356 35.489C37.2589 34.5524 36.0938 34.0384 34.963 34.0384H31.228L33.3753 32.3022C34.8488 31.0915 38.7438 27.8705 38.7438 22.8562C38.7438 20.4576 37.9328 17.8533 35.991 15.9459C35.8654 15.8088 35.7283 15.6946 35.6027 15.5575C35.4199 15.3519 35.2257 15.1577 35.0201 14.975C34.9859 14.9407 34.963 14.9065 34.9173 14.8836C33.2269 13.1589 30.6226 11.9824 26.8647 11.9824C19.5887 11.9824 15.7852 16.4713 15.7852 20.903C15.7852 22.3194 16.3106 23.4844 17.1901 24.1812C17.2129 24.204 17.2244 24.2268 17.2472 24.2383C17.3157 24.3182 17.3957 24.3982 17.4756 24.4667C17.5899 24.6152 17.7155 24.7294 17.8526 24.8551C18.4922 25.6203 19.4288 26.0886 20.5368 26.0886C22.8441 26.0886 23.5523 24.7408 24.1234 23.6557L24.2604 23.3816C24.8087 22.3651 25.5283 21.7368 27.413 21.7368C28.1668 21.7368 28.7151 21.8625 29.1377 22.0567C29.2519 22.3651 29.2748 22.6506 29.2748 22.8448C29.2748 24.5924 27.2645 26.2942 25.494 27.8019L18.1952 33.8899C16.7218 35.1006 16.1164 36.3342 16.1164 38.1617C16.1164 39.6238 16.7446 40.7774 17.647 41.5312C17.7612 41.6569 17.8868 41.7711 18.0125 41.8853C18.1267 42.011 18.2524 42.148 18.3894 42.2622C19.2347 43.1874 20.434 43.7128 21.6333 43.7128H35.6826C37.91 43.7128 40.183 42.2508 40.183 39.4638C40.183 38.0361 39.5776 36.9167 38.7209 36.1857ZM18.8235 34.6552L25.7453 28.8756L26.1222 28.5558C28.064 26.911 30.2685 25.0492 30.2685 22.8448C30.2685 21.28 29.2177 19.6123 26.2707 19.6123C23.7579 19.6123 22.8212 20.6974 22.2501 21.7711L22.1016 22.0567C21.5648 23.0732 21.1079 23.9527 19.3946 23.9527C17.8297 23.9527 16.7675 22.7306 16.7675 20.903C16.7675 16.9624 20.2398 12.9647 26.8647 12.9647C34.0493 12.9647 36.6192 17.4764 36.6192 21.714C36.6192 26.26 32.9756 29.264 31.6163 30.3947L26.9675 34.1412C26.8076 34.2782 26.7505 34.4953 26.819 34.6894C26.8875 34.895 27.0703 35.0207 27.2873 35.0207H34.963C36.4822 35.0207 38.047 36.2542 38.047 38.3216C38.047 40.5604 36.2309 41.5883 34.5404 41.5883H20.4911C18.8235 41.5883 17.1101 40.2977 17.1101 38.1617C17.1101 36.6312 17.567 35.6831 18.8235 34.6552Z" fill="#B4BCD0"/>
<path d="M38.0491 38.3218C38.0491 40.5605 36.233 41.5885 34.5425 41.5885H20.4932C18.8255 41.5885 17.1122 40.2978 17.1122 38.1619C17.1122 36.6313 17.5691 35.6833 18.8255 34.6553L25.7474 28.8757L26.1243 28.5559C28.0661 26.9111 30.2706 25.0494 30.2706 22.8449C30.2706 21.2801 29.2197 19.6125 26.2728 19.6125C23.7599 19.6125 22.8233 20.6976 22.2522 21.7712L22.1037 22.0568C21.5669 23.0733 21.11 23.9528 19.3966 23.9528C17.8318 23.9528 16.7695 22.7307 16.7695 20.9032C16.7695 16.9626 20.2419 12.9648 26.8668 12.9648C34.0513 12.9648 36.6213 17.4765 36.6213 21.7141C36.6213 26.2601 32.9776 29.2641 31.6184 30.3949L26.9696 34.1413C26.8096 34.2784 26.7525 34.4954 26.8211 34.6896C26.8896 34.8952 27.0724 35.0208 27.2894 35.0208H34.9651C36.4842 35.0208 38.0491 36.2544 38.0491 38.3218Z" fill="#17171E"/>
</g>
<path d="M27.9844 0C12.553 0 0 12.5528 0 27.984C0 36.8932 4.10057 45.0714 11.2509 50.4054L11.5707 49.9714C11.8905 50.2113 12.2103 50.4397 12.5416 50.6567C14.6318 52.0845 16.9277 53.2267 19.3835 54.0377C20.263 54.3346 21.1768 54.5745 22.102 54.7687C23.998 55.1913 25.9512 55.4083 27.9844 55.4083C29.6406 55.4083 31.2626 55.2598 32.8388 54.9743C33.4442 54.86 34.061 54.7458 34.6435 54.5973C37.5676 53.8663 40.3089 52.667 42.7647 51.0908C43.3244 50.7481 43.8612 50.3598 44.3867 49.9714L44.7065 50.4054C51.8454 45.0714 55.9574 36.8932 55.9574 27.984C55.9688 12.5528 43.4158 0 27.9844 0ZM48.6015 43.7921C46.4541 43.7921 44.558 44.9914 43.53 46.7847C42.5248 45.9623 41.2456 45.4711 39.8749 45.4711C38.3672 45.4711 36.9851 46.0536 35.9457 47.0245C34.9177 43.5751 31.1712 41.0165 26.6937 41.0165C22.9929 41.0165 19.7832 42.7641 18.1956 45.3341C17.1105 44.763 15.8769 44.4546 14.5747 44.4546C12.9185 44.4546 11.3994 44.9571 10.1201 45.8252C9.21771 45.117 8.08692 44.7059 6.88759 44.6602C3.15253 39.9657 1.08511 34.1633 1.08511 27.984C1.08511 13.1582 13.1584 1.08509 27.9844 1.08509C42.8104 1.08509 54.8837 13.1468 54.8837 27.984C54.8837 33.8321 53.0447 39.3603 49.6751 43.9063C49.3211 43.8378 48.967 43.7921 48.6015 43.7921Z" fill="white"/>
<path d="M35.9563 6.04192C35.6365 5.92772 35.3053 5.81352 34.9742 5.71074C34.3803 5.5166 33.7294 5.8592 33.5467 6.45303C33.3525 7.05828 33.6951 7.6978 34.289 7.88051C34.5859 7.97187 34.8828 8.07465 35.1797 8.17743C35.3053 8.22311 35.4424 8.24595 35.568 8.24595C36.0362 8.24595 36.4702 7.96045 36.6415 7.49224C36.8584 6.89841 36.5501 6.24747 35.9563 6.0305V6.04192Z" fill="white"/>
<path d="M39.0531 7.43489C38.5048 7.13791 37.808 7.34351 37.5111 7.89177C37.2141 8.45145 37.4197 9.13677 37.9679 9.43374C40.9606 11.0557 43.5534 13.4086 45.4609 16.2413C45.6779 16.5725 46.0434 16.7438 46.409 16.7438C46.626 16.7438 46.8544 16.6753 47.0486 16.5497C47.574 16.1956 47.7111 15.4874 47.357 14.962C45.2439 11.8209 42.3769 9.21672 39.0531 7.42346V7.43489Z" fill="white"/>
<path d="M48.6008 56.1394H47.5042L46.3163 52.69C47.1387 52.5186 47.7669 51.7876 47.7669 50.9081V50.7025C47.7669 49.6974 46.9445 48.875 45.9394 48.875H10.028C9.02283 48.875 8.20043 49.6974 8.20043 50.7025V50.9081C8.20043 51.7876 8.81723 52.5186 9.65105 52.69L8.46315 56.1394H7.36661C6.36146 56.1394 5.53906 56.9618 5.53906 57.9669V58.1725C5.53906 59.1777 6.36146 60.0001 7.36661 60.0001H48.6008C49.6059 60.0001 50.4283 59.1777 50.4283 58.1725V57.9669C50.4283 56.9618 49.6059 56.1394 48.6008 56.1394Z" fill="#B4BCD0"/>
<path d="M44.5 50.1081H11.3871C11.3071 50.1081 11.25 50.051 11.25 49.971C11.25 49.8911 11.3071 49.834 11.3871 49.834H44.5C44.58 49.834 44.6371 49.8911 44.6371 49.971C44.6371 50.051 44.58 50.1081 44.5 50.1081Z" fill="white"/>
<path d="M15.8984 56.1146V52.6658C15.8984 52.3232 16.1383 52.0605 16.4466 52.0605H17.7485C18.8105 52.0605 19.4386 52.7115 19.4386 53.6936C19.4386 54.7899 18.6735 55.3723 17.7485 55.3723H17.0633V56.126C17.0633 56.4686 16.8006 56.7199 16.4923 56.7199C16.1839 56.7199 15.9213 56.4686 15.9213 56.126L15.8984 56.1146ZM17.0518 54.2532H17.6228C18.0568 54.2532 18.3195 54.1161 18.3195 53.7393C18.3195 53.3396 18.0568 53.2482 17.6343 53.2482H17.0633V54.2646L17.0518 54.2532Z" fill="white"/>
<path d="M19.9531 56.1601V52.54C19.9531 52.186 20.2272 51.9805 20.5127 51.9805C20.8096 51.9805 21.0723 52.1974 21.0723 52.54V52.974C21.0723 53.191 21.0152 53.7391 20.9581 54.0931H21.0266C21.1408 53.2709 21.6775 53.0311 22.1572 53.0311C22.8424 53.0311 23.2535 53.4651 23.2535 54.253V56.1601C23.2535 56.5027 22.9794 56.7197 22.6939 56.7197C22.4084 56.7197 22.1343 56.5027 22.1343 56.1601V54.6413C22.1343 54.3444 22.0087 54.1731 21.7004 54.1731C21.3464 54.1731 21.0723 54.4015 21.0723 54.7212V56.1601C21.0723 56.4913 20.8096 56.7197 20.5013 56.7197C20.2158 56.7197 19.9645 56.5027 19.9645 56.1601H19.9531Z" fill="white"/>
<path d="M23.7692 55.6121C23.7692 55.0069 24.2374 54.6415 25.0026 54.6415C25.6193 54.6415 25.8705 54.8698 25.9847 55.1439H26.0075V54.6529C26.0075 54.3217 25.7677 54.139 25.3909 54.139C25.0939 54.139 24.9569 54.2189 24.8427 54.3331C24.7285 54.4359 24.6257 54.5729 24.3745 54.5729C24.0547 54.5729 23.872 54.3331 23.872 54.0476C23.872 53.351 24.7171 53.0312 25.4708 53.0312C26.4186 53.0312 27.1038 53.4195 27.1038 54.4816V55.5322L27.1724 56.0575C27.2295 56.4572 26.944 56.697 26.6585 56.697C26.3501 56.697 26.1446 56.5143 26.0989 56.2288L26.0418 55.8405H25.9961C25.8933 56.3773 25.4708 56.6856 24.8084 56.6856C24.1803 56.6742 23.7578 56.2973 23.7578 55.5893L23.7692 55.6121ZM26.0304 55.5094C26.0304 55.3266 25.7677 55.2353 25.4365 55.2353C25.1054 55.2353 24.8541 55.3152 24.8541 55.5208C24.8541 55.7263 25.0939 55.7949 25.4365 55.7949C25.7335 55.7949 26.0304 55.7035 26.0304 55.5094Z" fill="white"/>
<path d="M27.582 55.8405C27.582 55.555 27.8104 55.3152 28.0502 55.3152C28.2215 55.3152 28.3243 55.4066 28.4499 55.4979C28.6212 55.6121 28.7925 55.7149 29.1808 55.7149C29.5691 55.7149 29.8317 55.6807 29.8317 55.4523C29.8317 55.2581 29.3978 55.2353 29.0324 55.2124C28.3015 55.1553 27.6848 55.0183 27.6848 54.1732C27.6848 53.4538 28.2558 53.0312 29.2493 53.0312C30.1401 53.0312 30.791 53.3167 30.791 53.8421C30.791 54.1276 30.5626 54.3674 30.3114 54.3674C30.1972 54.3674 30.083 54.3217 29.9802 54.2303C29.8317 54.0819 29.6148 54.0248 29.2836 54.0248C28.9067 54.0248 28.7126 54.1161 28.7126 54.2532C28.7126 54.4587 29.0209 54.4702 29.4663 54.5044C30.1515 54.5501 30.8595 54.6529 30.8595 55.4523C30.8595 56.2517 30.1401 56.697 29.2265 56.697C28.153 56.697 27.582 56.3773 27.582 55.8291V55.8405Z" fill="white"/>
<path d="M34.6645 55.7606C34.6645 56.4115 33.8195 56.7084 33.0886 56.7084C31.958 56.7084 31.25 56.0347 31.25 54.8813C31.25 53.7279 32.0037 53.0312 33.0543 53.0312C34.1621 53.0312 34.7673 53.6479 34.7673 54.5044C34.7673 54.9155 34.5503 55.0982 34.105 55.0982H32.3691C32.4262 55.4523 32.7688 55.6236 33.1457 55.6236C33.4655 55.6236 33.6596 55.5094 33.8309 55.4066C33.9451 55.3381 34.0593 55.281 34.2192 55.281C34.459 55.281 34.6645 55.4751 34.6645 55.7606ZM32.3577 54.5501L33.6824 54.5273C33.6824 54.2646 33.4426 54.0248 33.0429 54.0248C32.7117 54.0248 32.4148 54.1961 32.3577 54.5501Z" fill="white"/>
<path d="M39.5094 55.4524C39.8063 55.4524 40.069 55.6922 40.069 56.0462C40.069 56.4345 39.7607 56.6401 39.4409 56.6401H37.2369C36.9285 56.6401 36.6316 56.4117 36.6316 56.0234C36.6316 55.7607 36.7116 55.5894 36.9285 55.4181L38.0134 54.516C38.3218 54.2533 38.6986 53.9564 38.6986 53.6252C38.6986 53.4197 38.5616 53.1913 38.1505 53.1913C37.8079 53.1913 37.6822 53.3169 37.5909 53.4882C37.4995 53.6595 37.4196 53.8765 37.077 53.8765C36.7801 53.8765 36.5859 53.6481 36.5859 53.3169C36.5859 52.666 37.1455 51.9922 38.2532 51.9922C39.4295 51.9922 39.8634 52.7345 39.8634 53.4425C39.8634 54.1505 39.3153 54.653 39.0526 54.87L38.3218 55.4638H39.5208L39.5094 55.4524Z" fill="white"/>
<defs>
<linearGradient id="paint0_linear_3373_22680" x1="19.8961" y1="46.0766" x2="17.3147" y2="11.4907" gradientUnits="userSpaceOnUse">
<stop stop-color="white"/>
<stop offset="1" stop-color="white" stop-opacity="0"/>
</linearGradient>
</defs>
</svg>
