<svg width="56" height="60" viewBox="0 0 56 60" fill="none" xmlns="http://www.w3.org/2000/svg">
<path d="M44.0759 49.5363L44.4072 49.9703C39.8374 53.3969 34.1481 55.4301 27.9903 55.4301C21.8326 55.4301 16.1547 53.4084 11.5735 49.9703L11.9048 49.5363C5.02735 44.4078 1.08594 36.538 1.08594 27.9829C1.08594 13.1571 13.1615 1.08398 27.9903 1.08398C42.8192 1.08398 54.8947 13.1457 54.8947 27.9829C54.8947 36.538 50.9533 44.4078 44.0759 49.5363Z" fill="#33333A"/>
<path opacity="0.8" d="M24.9173 8.5C24.5746 8.5 24.2891 8.78555 24.2891 9.12821C24.2891 9.47087 24.5746 9.75642 24.9173 9.75642C25.2599 9.75642 25.5455 9.47087 25.5455 9.12821C25.5455 8.78555 25.2599 8.5 24.9173 8.5Z" fill="#B4BCD0"/>
<path opacity="0.8" d="M10.0618 19.9219C9.71915 19.9219 9.43359 20.2074 9.43359 20.5501C9.43359 20.8927 9.71915 21.1783 10.0618 21.1783C10.4045 21.1783 10.69 20.8927 10.69 20.5501C10.69 20.2074 10.4045 19.9219 10.0618 19.9219Z" fill="#B4BCD0"/>
<path opacity="0.8" d="M43.7884 18.8345C44.131 18.8345 44.4166 18.549 44.4166 18.2063C44.4166 17.8637 44.131 17.5781 43.7884 17.5781C43.4457 17.5781 43.1602 17.8637 43.1602 18.2063C43.1602 18.549 43.4457 18.8345 43.7884 18.8345Z" fill="#B4BCD0"/>
<path opacity="0.8" d="M9.59306 42.2168C9.25039 42.2168 8.96484 42.5023 8.96484 42.845C8.96484 43.1877 9.25039 43.4732 9.59306 43.4732C9.93572 43.4732 10.2213 43.1877 10.2213 42.845C10.2213 42.5023 9.93572 42.2168 9.59306 42.2168Z" fill="#B4BCD0"/>
<path opacity="0.8" d="M12.8498 14.7465C12.9755 14.7465 13.0668 14.6437 13.0668 14.5295C13.0668 14.4153 12.9641 14.3125 12.8498 14.3125C12.7356 14.3125 12.6328 14.4153 12.6328 14.5295C12.6328 14.6437 12.7356 14.7465 12.8498 14.7465Z" fill="#B4BCD0"/>
<path opacity="0.8" d="M41.4084 43.9961C41.2828 43.9961 41.1914 44.0989 41.1914 44.2131C41.1914 44.3273 41.2942 44.4301 41.4084 44.4301C41.5226 44.4301 41.6254 44.3273 41.6254 44.2131C41.6254 44.0989 41.5226 43.9961 41.4084 43.9961Z" fill="#B4BCD0"/>
<path opacity="0.8" d="M34.5569 9.73047C34.4312 9.73047 34.3398 9.83327 34.3398 9.94749C34.3398 10.0617 34.4426 10.1645 34.5569 10.1645C34.6711 10.1645 34.7739 10.0617 34.7739 9.94749C34.7739 9.83327 34.6711 9.73047 34.5569 9.73047Z" fill="#B4BCD0"/>
<path opacity="0.8" d="M40.315 23.757C40.5106 23.757 40.6691 23.5985 40.6691 23.4029C40.6691 23.2074 40.5106 23.0488 40.315 23.0488C40.1195 23.0488 39.9609 23.2074 39.9609 23.4029C39.9609 23.5985 40.1195 23.757 40.315 23.757Z" fill="#B4BCD0"/>
<path opacity="0.8" d="M52.5142 24.125C52.3201 24.125 52.1602 24.2849 52.1602 24.4791C52.1602 24.6733 52.3201 24.8332 52.5142 24.8332C52.7084 24.8332 52.8683 24.6733 52.8683 24.4791C52.8683 24.2849 52.7084 24.125 52.5142 24.125Z" fill="#B4BCD0"/>
<path opacity="0.8" d="M49.7369 31.3996C49.9325 31.3996 50.091 31.241 50.091 31.0455C50.091 30.8499 49.9325 30.6914 49.7369 30.6914C49.5413 30.6914 49.3828 30.8499 49.3828 31.0455C49.3828 31.241 49.5413 31.3996 49.7369 31.3996Z" fill="#B4BCD0"/>
<path opacity="0.8" d="M5.26424 22.9445C5.45979 22.9445 5.61832 22.786 5.61832 22.5904C5.61832 22.3949 5.45979 22.2363 5.26424 22.2363C5.06868 22.2363 4.91016 22.3949 4.91016 22.5904C4.91016 22.786 5.06868 22.9445 5.26424 22.9445Z" fill="#B4BCD0"/>
<path opacity="0.8" d="M19.2566 4.56836L18.5484 6.46442L16.6523 7.16116L18.5484 7.86933L19.2566 9.76539L19.9533 7.86933L21.8494 7.16116L19.9533 6.46442L19.2566 4.56836Z" fill="#B4BCD0"/>
<path opacity="0.8" d="M44.3894 31.9805L43.6812 33.8765L41.7852 34.5733L43.6812 35.2814L44.3894 37.1775L45.0861 35.2814L46.9822 34.5733L45.0861 33.8765L44.3894 31.9805Z" fill="#B4BCD0"/>
<path opacity="0.8" d="M6.54388 34.3C6.30402 34.4599 6.22407 34.7911 6.38398 35.031C6.54388 35.2823 6.87512 35.3508 7.11499 35.1909C7.36627 35.031 7.4348 34.6998 7.27489 34.4599C7.11499 34.22 6.78375 34.1401 6.54388 34.3Z" fill="#B4BCD0"/>
<path opacity="0.8" d="M9.51493 29.4596C9.85759 29.4596 10.1431 29.174 10.1431 28.8313C10.1431 28.4887 9.85759 28.2031 9.51493 28.2031C9.17227 28.2031 8.88672 28.4887 8.88672 28.8313C8.88672 29.174 9.17227 29.4596 9.51493 29.4596Z" fill="#B4BCD0"/>
<path opacity="0.15" d="M38.5215 53.3202C35.2884 54.6794 31.724 55.4218 27.9882 55.4218C21.8305 55.4218 16.1526 53.4001 11.5714 49.9735C4.87671 44.9706 0.546875 36.9866 0.546875 27.9861C0.546875 13.3773 11.9598 1.44123 26.3545 0.607422C16.4268 4.71936 9.44646 14.5081 9.44646 25.9301C9.44646 34.9307 13.7763 42.9147 20.4824 47.929C25.0522 51.3441 30.7415 53.3773 36.8992 53.3773C37.4476 53.3773 37.9846 53.3773 38.5329 53.3202H38.5215Z" fill="url(#paint0_linear_3412_26532)"/>
<path d="M32.7107 38.4338H23C23.6855 35.8296 24.9307 33.6708 26.8614 31.8433C27.4212 31.3179 28.2895 31.3179 28.8493 31.8433C30.78 33.6708 32.0253 35.8296 32.7107 38.4338Z" fill="#B4BCD0"/>
<path d="M26.3475 27.4333C26.3475 27.9816 26.0848 28.4841 25.6392 28.804C23.7885 30.1518 21.2522 31.9793 21.2522 37.1763V38.2957C21.2522 38.2957 21.2522 38.3871 21.218 38.4327C21.1723 38.5927 21.0238 38.7069 20.841 38.7069C20.6582 38.7069 20.5097 38.5927 20.464 38.4327C20.4411 38.3871 20.4297 38.3414 20.4297 38.2957V37.1763C20.4297 31.5567 23.2744 29.5007 25.1594 28.1415C25.3879 27.9702 25.525 27.7189 25.525 27.4333C25.525 27.1478 25.3879 26.8965 25.1594 26.7366C23.2744 25.3774 20.4297 23.3214 20.4297 17.7017V16.8565C20.4297 16.8565 20.4411 16.7651 20.464 16.7194C20.5097 16.5595 20.6582 16.4453 20.841 16.4453C21.0238 16.4453 21.1723 16.5595 21.218 16.7194C21.2408 16.7651 21.2522 16.8108 21.2522 16.8565V17.7017C21.2522 22.8988 23.7885 24.7263 25.6392 26.0741C26.0848 26.3939 26.3475 26.8851 26.3475 27.4333Z" fill="#B4BCD0"/>
<path d="M31.0662 23.4827L28.9641 25.6758C28.3701 26.304 27.3419 26.304 26.7478 25.6758L24.6457 23.4827C24.4515 23.2886 24.5886 22.9688 24.8628 22.9688H30.8492C31.1119 22.9688 31.2604 23.2886 31.0662 23.4827Z" fill="#B4BCD0"/>
<path d="M43.666 42.2833H12.3175C12.089 42.2833 11.9062 42.1006 11.9062 41.8721C11.9062 41.6437 12.089 41.4609 12.3175 41.4609H43.6546C43.8831 41.4609 44.0659 41.6437 44.0659 41.8721C44.0659 42.1006 43.8831 42.2833 43.6546 42.2833H43.666Z" fill="#B4BCD0"/>
<path d="M37.6104 39.2571C37.382 39.2571 37.1992 39.0743 37.1992 38.8459V30.919C37.1992 30.6906 37.382 30.5078 37.6104 30.5078C37.8388 30.5078 38.0216 30.6906 38.0216 30.919V38.8459C38.0216 39.0743 37.8388 39.2571 37.6104 39.2571Z" fill="#B4BCD0"/>
<path d="M37.6104 24.6257C37.382 24.6257 37.1992 24.4087 37.1992 24.146V15.2825C37.1992 15.0198 37.382 14.8027 37.6104 14.8027C37.8388 14.8027 38.0216 15.0198 38.0216 15.2825V24.146C38.0216 24.4087 37.8388 24.6257 37.6104 24.6257Z" fill="#B4BCD0"/>
<path d="M38.967 12.8711H16.7352C16.5067 12.8711 16.3125 13.0538 16.3125 13.2823C16.3125 14.4245 16.8609 15.4411 17.6834 16.0578C17.9348 16.252 18.2089 16.4005 18.506 16.5147C18.8601 16.6518 19.2371 16.7203 19.6256 16.7203H36.0652C36.4651 16.7203 36.8421 16.6518 37.1963 16.5033C37.4933 16.4005 37.7675 16.252 38.0188 16.0578C38.8414 15.4296 39.3783 14.4245 39.3783 13.2823C39.3783 13.0538 39.1955 12.8711 38.967 12.8711Z" fill="#B4BCD0"/>
<path d="M39.3789 41.4585C39.2989 40.4533 38.762 39.5738 37.9737 39.0142C37.7452 38.8543 37.4825 38.7172 37.1968 38.6258C36.8541 38.5002 36.4771 38.4316 36.0887 38.4316H19.649C19.2492 38.4316 18.8607 38.5116 18.5066 38.6487C18.2324 38.7515 17.981 38.8885 17.7526 39.0599C16.9986 39.5967 16.473 40.4648 16.3588 41.4585C16.3474 41.5955 16.3359 41.7326 16.3359 41.8697C16.3359 42.0981 16.5187 42.2809 16.7472 42.2809H38.9905C39.219 42.2809 39.4018 42.0981 39.4018 41.8697V41.744C39.4018 41.6527 39.4018 41.5499 39.3789 41.4585Z" fill="#B4BCD0"/>
<path d="M18.0987 39.2571C17.8703 39.2571 17.6875 39.0743 17.6875 38.8459V30.919C17.6875 30.6906 17.8703 30.5078 18.0987 30.5078C18.3271 30.5078 18.5099 30.6906 18.5099 30.919V38.8459C18.5099 39.0743 18.3271 39.2571 18.0987 39.2571Z" fill="#B4BCD0"/>
<path d="M18.0987 24.6257C17.8703 24.6257 17.6875 24.4087 17.6875 24.146V15.2825C17.6875 15.0198 17.8703 14.8027 18.0987 14.8027C18.3271 14.8027 18.5099 15.0198 18.5099 15.2825V24.146C18.5099 24.4087 18.3271 24.6257 18.0987 24.6257Z" fill="#B4BCD0"/>
<path d="M34.4596 37.1756C34.4596 31.9786 31.9234 30.1511 30.0612 28.8033C29.6271 28.4835 29.3643 27.9809 29.3643 27.4326C29.3643 26.8844 29.6271 26.3932 30.0612 26.0734C31.9234 24.7256 34.4596 22.8981 34.4596 17.701V16.8558C34.4596 16.8558 34.471 16.7644 34.4939 16.7188H21.2188C21.2188 16.7188 21.253 16.8101 21.253 16.8558V17.701C21.253 22.8981 23.7892 24.7256 25.64 26.0734C26.0855 26.3932 26.3483 26.8844 26.3483 27.4326C26.3483 27.9809 26.0855 28.4835 25.64 28.8033C23.7892 30.1511 21.253 31.9786 21.253 37.1756V38.295C21.253 38.295 21.253 38.3864 21.2188 38.4321H23.001C23.6864 35.8278 24.9317 33.6691 26.8624 31.8415C27.4222 31.3161 28.2904 31.3161 28.8502 31.8415C30.781 33.6691 32.0262 35.8278 32.7117 38.4321H34.4939C34.4939 38.4321 34.4596 38.3407 34.4596 38.295V37.1756ZM26.7481 25.6736L24.6461 23.4806C24.4518 23.2864 24.5889 22.9666 24.8631 22.9666H30.8495C31.1123 22.9666 31.2608 23.2864 31.0666 23.4806L28.9645 25.6736C28.3704 26.3018 27.3422 26.3018 26.7481 25.6736Z" fill="#454A60"/>
<path d="M30.5553 26.7366C30.3268 26.8965 30.1897 27.1592 30.1897 27.4333C30.1897 27.7074 30.3268 27.9702 30.5553 28.1415C32.4403 29.5007 35.285 31.5567 35.285 37.1763V38.2957C35.285 38.2957 35.2736 38.3871 35.2507 38.4327C35.205 38.5927 35.0565 38.7069 34.8737 38.7069C34.6909 38.7069 34.5424 38.5927 34.4967 38.4327C34.4739 38.3871 34.4625 38.3414 34.4625 38.2957V37.1763C34.4625 31.9793 31.9262 30.1518 30.0641 28.804C29.6299 28.4841 29.3672 27.9816 29.3672 27.4333C29.3672 26.8851 29.6299 26.3939 30.0641 26.0741C31.9262 24.7263 34.4625 22.8988 34.4625 17.7017V16.8565C34.4625 16.8565 34.4739 16.7651 34.4967 16.7194C34.5424 16.5595 34.6909 16.4453 34.8737 16.4453C35.0565 16.4453 35.205 16.5595 35.2507 16.7194C35.2736 16.7651 35.285 16.8108 35.285 16.8565V17.7017C35.285 23.3214 32.4403 25.3774 30.5553 26.7366Z" fill="#B4BCD0"/>
<path opacity="0.8" d="M18.0973 26.2012L17.6861 27.3091L16.5781 27.7203L17.6861 28.1201L18.0973 29.2394L18.5085 28.1201L19.6164 27.7203L18.5085 27.3091L18.0973 26.2012Z" fill="#B4BCD0"/>
<path opacity="0.8" d="M37.6129 26.2012L37.2017 27.3091L36.0938 27.7203L37.2017 28.1201L37.6129 29.2394L38.0241 28.1201L39.132 27.7203L38.0241 27.3091L37.6129 26.2012Z" fill="#B4BCD0"/>
<path d="M27.9897 0C12.5554 0 0 12.5528 0 27.984C0 36.8932 4.10135 45.0714 11.253 50.4055L11.5729 49.9714C11.8928 50.2113 12.2127 50.4398 12.544 50.6568C14.6346 52.0845 16.9309 53.2267 19.3872 54.0377C20.2668 54.3347 21.1808 54.5745 22.1062 54.7687C24.0026 55.1913 25.9562 55.4083 27.9897 55.4083C29.6463 55.4083 31.2685 55.2599 32.8451 54.9743C33.4506 54.8601 34.0675 54.7459 34.6501 54.5974C37.5748 53.8664 40.3166 52.667 42.7729 51.0908C43.3327 50.7481 43.8696 50.3598 44.3951 49.9714L44.715 50.4055C51.8552 45.0714 55.968 36.8932 55.968 27.984C55.9794 12.5528 43.424 0 27.9897 0ZM48.6107 43.7921C46.4629 43.7921 44.5665 44.9914 43.5383 46.7847C42.5329 45.9623 41.2534 45.4712 39.8825 45.4712C38.3745 45.4712 36.9921 46.0537 35.9525 47.0246C34.9243 43.5751 31.1771 41.0166 26.6988 41.0166C22.9973 41.0166 19.787 42.7641 18.199 45.3341C17.1137 44.763 15.8799 44.4546 14.5775 44.4546C12.921 44.4546 11.4015 44.9572 10.122 45.8252C9.21947 45.1171 8.08846 44.7059 6.8889 44.6602C3.15313 39.9657 1.08532 34.1633 1.08532 27.984C1.08532 13.1582 13.1609 1.08509 27.9897 1.08509C42.8186 1.08509 54.8941 13.1468 54.8941 27.984C54.8941 33.8321 53.0548 39.3604 49.6846 43.9063C49.3305 43.8378 48.9763 43.7921 48.6107 43.7921Z" fill="white"/>
<path d="M35.9645 6.04394C35.6447 5.92972 35.3135 5.8155 34.9823 5.7127C34.3883 5.51853 33.7373 5.86119 33.5545 6.45514C33.3603 7.0605 33.703 7.70014 34.2969 7.88289C34.5939 7.97427 34.8909 8.07707 35.1878 8.17986C35.3135 8.22555 35.4506 8.2484 35.5762 8.2484C36.0445 8.2484 36.4785 7.96285 36.6499 7.49454C36.8669 6.90059 36.5585 6.24954 35.9645 6.03252V6.04394Z" fill="white"/>
<path d="M39.0573 7.43489C38.5089 7.13791 37.812 7.34351 37.515 7.89177C37.218 8.45145 37.4236 9.13677 37.972 9.43375C40.9652 11.0557 43.5585 13.4086 45.4664 16.2413C45.6834 16.5725 46.049 16.7439 46.4146 16.7439C46.6316 16.7439 46.8601 16.6753 47.0543 16.5497C47.5799 16.1956 47.717 15.4874 47.3628 14.962C45.2493 11.821 42.3818 9.21673 39.0573 7.42346V7.43489Z" fill="white"/>
<path d="M48.6129 56.1375H47.5161L46.328 52.688C47.1505 52.5167 47.7789 51.7857 47.7789 50.9062V50.7006C47.7789 49.6954 46.9563 48.873 45.951 48.873H10.0327C9.0274 48.873 8.20485 49.6954 8.20485 50.7006V50.9062C8.20485 51.7857 8.82176 52.5167 9.65574 52.688L8.46761 56.1375H7.37087C6.36552 56.1375 5.54297 56.9599 5.54297 57.965V58.1706C5.54297 59.1757 6.36552 59.9981 7.37087 59.9981H48.6129C49.6182 59.9981 50.4408 59.1757 50.4408 58.1706V57.965C50.4408 56.9599 49.6182 56.1375 48.6129 56.1375Z" fill="#B4BCD0"/>
<path d="M44.5103 50.1081H11.391C11.311 50.1081 11.2539 50.051 11.2539 49.971C11.2539 49.8911 11.311 49.834 11.391 49.834H44.5103C44.5902 49.834 44.6474 49.8911 44.6474 49.971C44.6474 50.051 44.5902 50.1081 44.5103 50.1081Z" fill="white"/>
<path d="M12.3359 56.2619V53.1551C12.3359 52.584 12.6443 52.207 13.2383 52.207C13.8322 52.207 14.0607 52.5269 14.2206 53.098L14.8945 55.2796L15.5455 53.098C15.7054 52.5497 15.9453 52.207 16.5278 52.207C17.1104 52.207 17.4302 52.5954 17.4302 53.098V56.2619C17.4302 56.5703 17.236 56.8444 16.8933 56.8444C16.5507 56.8444 16.3451 56.5703 16.3451 56.2619V53.7719H16.3337L15.5227 56.3647C15.4427 56.6616 15.2143 56.8558 14.8945 56.8558C14.5747 56.8558 14.3462 56.6845 14.2548 56.3761L13.4439 53.7719H13.421V56.2619C13.421 56.5703 13.2383 56.8444 12.8842 56.8444C12.5301 56.8444 12.3359 56.5703 12.3359 56.2619Z" fill="white"/>
<path d="M19.0668 53.3042C19.2952 53.3042 19.5008 53.4641 19.5008 53.7497V56.2968C19.5008 56.6395 19.2267 56.8451 18.9526 56.8451C18.6785 56.8451 18.4043 56.6281 18.4043 56.2968V54.4579C18.0617 54.4236 17.8789 54.1495 17.8789 53.8753C17.8789 53.5669 18.1073 53.3042 18.4614 53.3042H19.0668ZM18.2673 52.4933C18.2673 52.1735 18.45 51.9336 18.9069 51.9336C19.3638 51.9336 19.5465 52.162 19.5465 52.4819C19.5465 52.8017 19.3409 53.0415 18.9069 53.0415C18.4729 53.0415 18.2673 52.8017 18.2673 52.4933Z" fill="white"/>
<path d="M20.2285 56.2988V54.5398L20.16 53.8088C20.1257 53.5118 20.3313 53.2377 20.6968 53.2377C20.9709 53.2377 21.1879 53.409 21.2108 53.706L21.245 54.2542H21.2907C21.405 53.4433 21.9304 53.2148 22.3987 53.2148C23.0726 53.2148 23.4723 53.6375 23.4723 54.4142V56.2988C23.4723 56.6415 23.1982 56.8471 22.9241 56.8471C22.65 56.8471 22.3758 56.63 22.3758 56.2988V54.7911C22.3758 54.4941 22.2502 54.3228 21.9418 54.3228C21.5991 54.3228 21.325 54.5512 21.325 54.8596V56.2874C21.325 56.6072 21.0623 56.8356 20.7653 56.8356C20.4683 56.8356 20.2285 56.63 20.2285 56.2874V56.2988Z" fill="white"/>
<path d="M24.3548 55.6006V54.3899H24.2177C23.9207 54.4127 23.7266 54.15 23.7266 53.8759C23.7266 53.6018 23.9322 53.3391 24.2177 53.3505H24.3776V52.9964C24.3776 52.688 24.6175 52.4824 24.9259 52.4824C25.2571 52.4824 25.4627 52.7223 25.4513 53.0307V53.3733L25.9082 53.3391C26.2051 53.3277 26.4107 53.5675 26.4107 53.8645C26.4107 54.1615 26.2051 54.4242 25.9082 54.4013L25.4513 54.3785V55.3379C25.4513 55.6121 25.5769 55.7149 25.7254 55.7149C25.8396 55.7149 25.9424 55.6806 26.0224 55.6235C26.1023 55.5892 26.1595 55.5664 26.2166 55.5664C26.3879 55.5664 26.525 55.7263 26.525 56.0118C26.525 56.5715 25.9995 56.8571 25.417 56.8571C24.8345 56.8571 24.3434 56.5372 24.3434 55.6121L24.3548 55.6006Z" fill="white"/>
<path d="M28.2383 55.7038C28.2383 55.384 28.4896 55.167 28.7751 55.167C29.015 55.167 29.1064 55.2812 29.232 55.4183C29.3805 55.5782 29.5747 55.7381 30.1001 55.7381C30.557 55.7381 30.8882 55.601 30.8882 55.2926C30.8882 55.0299 30.5341 54.9842 30.1115 54.9271C29.3805 54.8472 28.3411 54.8015 28.3411 53.6479C28.3411 52.7684 29.0036 52.1973 30.1572 52.1973C31.1623 52.1973 31.9733 52.5856 31.9733 53.2481C31.9733 53.5679 31.7106 53.7849 31.4365 53.7849C31.2651 53.7849 31.1509 53.7164 31.0253 53.6136C30.8311 53.4537 30.6369 53.2938 30.1686 53.2938C29.7688 53.2938 29.4833 53.4194 29.4833 53.6593C29.4833 53.9448 29.8488 54.0134 30.2714 54.0476C31.0024 54.1162 32.0418 54.1619 32.0418 55.2926C32.0418 56.2978 31.2423 56.8346 30.1343 56.8346C29.0264 56.8346 28.2383 56.3206 28.2383 55.6924V55.7038Z" fill="white"/>
<path d="M32.4531 55.0273C32.4531 53.9651 33.0471 53.2227 34.2007 53.2227C35.3543 53.2227 35.9483 53.9651 35.9483 55.0273C35.9483 56.0896 35.3543 56.8434 34.2007 56.8434C33.0471 56.8434 32.4531 56.0782 32.4531 55.0273ZM34.9317 55.0273C34.9317 54.5476 34.6804 54.3306 34.2121 54.3306C33.7438 54.3306 33.4811 54.5476 33.4811 55.0273C33.4811 55.5071 33.7324 55.7584 34.2121 55.7584C34.6918 55.7584 34.9431 55.5185 34.9431 55.0273H34.9317Z" fill="white"/>
<path d="M36.3711 55.0273C36.3711 53.9651 36.965 53.2227 38.1187 53.2227C39.2723 53.2227 39.8662 53.9651 39.8662 55.0273C39.8662 56.0896 39.2723 56.8434 38.1187 56.8434C36.965 56.8434 36.3711 56.0782 36.3711 55.0273ZM38.8497 55.0273C38.8497 54.5476 38.5984 54.3306 38.1301 54.3306C37.6618 54.3306 37.3991 54.5476 37.3991 55.0273C37.3991 55.5071 37.6504 55.7584 38.1301 55.7584C38.6098 55.7584 38.8611 55.5185 38.8611 55.0273H38.8497Z" fill="white"/>
<path d="M40.3965 56.2988V54.5398L40.3279 53.8088C40.2937 53.5118 40.4993 53.2377 40.8648 53.2377C41.1389 53.2377 41.3559 53.409 41.3788 53.706L41.413 54.2542H41.4587C41.5729 53.4433 42.0983 53.2148 42.5666 53.2148C43.2405 53.2148 43.6403 53.6375 43.6403 54.4142V56.2988C43.6403 56.6415 43.3662 56.8471 43.0921 56.8471C42.8065 56.8471 42.5438 56.63 42.5438 56.2988V54.7911C42.5438 54.4941 42.4182 54.3228 42.1098 54.3228C41.7671 54.3228 41.493 54.5512 41.493 54.8596V56.2874C41.493 56.6072 41.2303 56.8356 40.9333 56.8356C40.6363 56.8356 40.3965 56.63 40.3965 56.2874V56.2988Z" fill="white"/>
<defs>
<linearGradient id="paint0_linear_3412_26532" x1="19.8998" y1="46.0786" x2="17.3189" y2="11.4926" gradientUnits="userSpaceOnUse">
<stop stop-color="white"/>
<stop offset="1" stop-color="white" stop-opacity="0"/>
</linearGradient>
</defs>
</svg>
