<svg width="60" height="60" viewBox="0 0 60 60" fill="none" xmlns="http://www.w3.org/2000/svg">
<circle cx="30" cy="30" r="30" fill="#D9D9D9"/>
<path d="M27.536 31.776C26.864 26.752 33.68 25.632 33.68 22.528C33.68 20.576 32.144 19.488 29.616 19.488C27.664 19.488 26.064 20.384 24.496 22.016L21.872 19.616C23.92 17.248 26.736 15.68 30.16 15.68C34.8 15.68 38.192 17.856 38.192 22.112C38.192 26.784 31.184 27.36 31.696 31.776H27.536ZM29.648 40.32C27.984 40.32 26.8 39.136 26.8 37.472C26.8 35.808 28.016 34.656 29.648 34.656C31.248 34.656 32.464 35.808 32.464 37.472C32.464 39.136 31.248 40.32 29.648 40.32Z" fill="black"/>
</svg>
