<svg width="235" height="20" viewBox="0 0 235 20" fill="none" xmlns="http://www.w3.org/2000/svg">
<path d="M1.01059 1.53112H5.42205C5.81244 1.53112 6.13186 1.84936 6.13186 2.23833V7.39038C6.13186 7.77935 6.45127 8.0976 6.84166 8.0976H11.5832C11.9736 8.0976 12.293 7.77935 12.293 7.39038V2.23833C12.293 1.84936 12.6124 1.53112 13.0028 1.53112H17.4143C17.8047 1.53112 18.1241 1.84936 18.1241 2.23833V18.5042C18.1241 18.8932 17.8047 19.2115 17.4143 19.2115H13.0028C12.6124 19.2115 12.293 18.8932 12.293 18.5042V13.3522C12.293 12.9632 11.9736 12.645 11.5832 12.645H6.84166C6.45127 12.645 6.13186 12.9632 6.13186 13.3522V18.5042C6.13186 18.8932 5.81244 19.2115 5.42205 19.2115H1.01059C0.620195 19.2115 0.300781 18.8932 0.300781 18.5042V2.23833C0.300781 1.84936 0.620195 1.53112 1.01059 1.53112Z" fill="white"/>
<path d="M54.1788 1.53112C54.5053 1.53112 54.7928 1.75389 54.8673 2.07214L57.8201 14.1796C57.852 14.3175 57.9763 14.413 58.1182 14.413C58.2602 14.413 58.3808 14.3175 58.4163 14.1796L61.394 2.0686C61.4721 1.75389 61.756 1.53112 62.0825 1.53112H66.5081C66.9731 1.53112 67.3138 1.96959 67.1931 2.41867L62.9946 18.1577C62.8278 18.7765 62.267 19.2079 61.6211 19.2079H54.5514C53.909 19.2079 53.3448 18.7765 53.1779 18.1577L48.9794 2.41867C48.8588 1.96959 49.1995 1.53112 49.6644 1.53112H54.1788Z" fill="white"/>
<path d="M218.787 7.77581L217.247 9.55092C217.115 9.70297 216.881 9.71711 216.739 9.57567C215.749 8.60679 214.312 8.10113 212.569 8.10113H208.236C207.551 8.10113 206.969 7.82178 206.969 7.08982C206.969 6.35785 207.551 6.0785 208.236 6.0785H216.65C217.041 6.0785 217.36 5.76025 217.36 5.37129V2.23833C217.36 1.84936 217.041 1.53112 216.65 1.53112H207.068C203.824 1.53112 201.414 3.3239 201.414 7.06153C201.414 10.7992 203.824 12.645 207.068 12.645H211.302C212.239 12.645 212.619 12.9986 212.619 13.7058C212.619 14.3105 212.239 14.6641 211.327 14.6641H202.479C202.089 14.6641 201.769 14.9823 201.769 15.3713V18.5042C201.769 18.8932 202.089 19.2115 202.479 19.2115H209.914L216.295 11.7221L218.861 8.76945C219.117 8.47242 219.085 8.02687 218.79 7.77228L218.787 7.77581Z" fill="white"/>
<path d="M213.694 18.0092C213.871 18.0092 214.045 17.995 214.216 17.9774C214.489 17.9491 214.741 17.8147 214.922 17.6061L218.993 12.8289C219.167 12.6238 219.259 12.3586 219.245 12.0898C219.238 11.9024 219.223 11.7221 219.202 11.5453L213.694 18.0092Z" fill="white"/>
<path d="M217.761 11.0962L210.844 19.215H211.235C211.547 19.215 211.845 19.0771 212.047 18.8402L217.562 12.3656C217.864 12.012 217.939 11.524 217.761 11.0962Z" fill="white"/>
<path d="M218.031 15.0389L214.911 18.7023C216.434 18.0127 217.598 16.6761 218.031 15.0389Z" fill="white"/>
<path d="M187.995 1.53112H194.912C195.725 1.53112 196.435 2.08274 196.634 2.86775L200.534 18.331C200.648 18.7765 200.307 19.2115 199.846 19.2115H195.509C195.182 19.2115 194.898 18.9887 194.82 18.674L194.334 16.7044C194.295 16.5453 194.153 16.4356 193.99 16.4356H188.918C188.755 16.4356 188.613 16.5453 188.574 16.7044L188.088 18.674C188.01 18.9887 187.726 19.2115 187.399 19.2115H183.062C182.601 19.2115 182.26 18.7801 182.374 18.331L186.278 2.86775C186.476 2.08274 187.186 1.53112 187.999 1.53112H187.995ZM190.153 12.0898H192.733C192.975 12.0898 193.152 11.867 193.095 11.6337L191.807 6.36139C191.768 6.19519 191.619 6.0785 191.445 6.0785C191.275 6.0785 191.126 6.19519 191.083 6.36139L189.795 11.6337C189.738 11.867 189.915 12.0898 190.157 12.0898H190.153Z" fill="white"/>
<path d="M128.602 1.53112H142.216C142.607 1.53112 142.926 1.84936 142.926 2.23833V5.37129C142.926 5.76025 142.607 6.0785 142.216 6.0785H133.979C133.784 6.0785 133.624 6.23762 133.624 6.43211V7.74399C133.624 7.93847 133.784 8.0976 133.979 8.0976H142.216C142.607 8.0976 142.926 8.41584 142.926 8.80481V11.9378C142.926 12.3267 142.607 12.645 142.216 12.645H133.979C133.784 12.645 133.624 12.8041 133.624 12.9986V14.3105C133.624 14.5049 133.784 14.6641 133.979 14.6641H142.216C142.607 14.6641 142.926 14.9823 142.926 15.3713V18.5042C142.926 18.8932 142.607 19.2115 142.216 19.2115H128.602C128.212 19.2115 127.892 18.8932 127.892 18.5042V2.23833C127.892 1.84936 128.212 1.53112 128.602 1.53112Z" fill="white"/>
<path d="M223.866 1.78218L220.206 6.0785H220.76C220.97 6.0785 221.165 5.98656 221.3 5.82744L224.959 1.53112H224.405C224.196 1.53112 224 1.62306 223.866 1.78218Z" fill="white"/>
<path d="M220.235 1.78218L218.893 3.35573C218.783 3.48303 218.723 3.64569 218.723 3.81188V4.58982L221.328 1.53112H220.774C220.565 1.53112 220.37 1.62306 220.235 1.78218Z" fill="white"/>
<path d="M219.436 1.53112C219.046 1.53112 218.727 1.84936 218.727 2.23833V2.45757L219.518 1.53112H219.436Z" fill="white"/>
<path d="M221.633 2.2454L218.123 6.36492L218.453 6.43564C218.709 6.49222 218.975 6.40028 219.145 6.20226L222.73 1.99788H222.176C221.967 1.99788 221.772 2.08982 221.637 2.24894L221.633 2.2454Z" fill="white"/>
<path d="M225.892 1.53112L222.02 6.0785H223.443C223.638 6.0785 223.798 6.23762 223.798 6.43211V18.5042C223.798 18.8932 224.118 19.2115 224.508 19.2115H228.919C229.31 19.2115 229.629 18.8932 229.629 18.5042V6.43211C229.629 6.23762 229.789 6.0785 229.984 6.0785H233.991C234.381 6.0785 234.701 5.76025 234.701 5.37129V2.23833C234.701 1.84936 234.381 1.53112 233.991 1.53112H225.892Z" fill="white"/>
<path d="M36.0822 13.2037L31.6069 18.4583L31.6601 18.6775C31.7027 18.8508 31.8092 18.9958 31.9511 19.0912L36.2845 14.0064L36.0822 13.2072V13.2037Z" fill="white"/>
<path d="M28.072 12.0898H26.9718C26.7411 12.0898 26.5743 11.8741 26.6276 11.6513L27.9265 6.34724C27.9656 6.18812 28.1075 6.0785 28.2708 6.0785H28.2956C28.4589 6.0785 28.6008 6.19166 28.6399 6.34724L29.6088 10.3147C29.6762 10.5941 30.0382 10.6789 30.2227 10.4597L32.2599 8.06931L33.1081 7.0686L34.2048 5.78147L36.3555 3.24611L36.139 2.40806L34.439 4.40948C34.2509 4.62871 33.896 4.54738 33.825 4.26803L33.4701 2.86775C33.2714 2.08274 32.5616 1.53112 31.7488 1.53112H24.8318C24.019 1.53112 23.3092 2.08274 23.1105 2.86775L19.2065 18.331C19.093 18.7765 19.4337 19.2115 19.895 19.2115H22.7627L28.3347 12.6697C28.5299 12.4399 28.3666 12.0863 28.0649 12.0863L28.072 12.0898Z" fill="white"/>
<path d="M36.4974 14.8479L32.7781 19.2115H33.6618L36.6997 15.6471L36.4974 14.8479Z" fill="white"/>
<path d="M36.2845 9.75247L36.0822 8.95332L30.528 15.4738H31.4117L36.2845 9.75247Z" fill="white"/>
<path d="M36.9127 16.4887L34.5916 19.2115H35.4753L37.115 17.2914L36.9127 16.4887Z" fill="white"/>
<path d="M35.4292 7.6768L28.4766 15.8416H29.3603L35.6315 8.47595L35.4292 7.6768Z" fill="white"/>
<path d="M35.3192 11.9696L30.8545 17.2136L31.0532 18.0163L35.5215 12.7687L35.3192 11.9696Z" fill="white"/>
<path d="M37.3279 18.133L36.4087 19.2115H36.6891C37.1505 19.2115 37.4912 18.7801 37.3776 18.331L37.3279 18.133Z" fill="white"/>
<path d="M43.6523 6.43211L37.9916 13.0799C37.8816 13.2072 37.8212 13.3699 37.8212 13.5361V14.314L43.482 7.66973C43.592 7.54243 43.6523 7.37977 43.6523 7.21358V6.43211Z" fill="white"/>
<path d="M42.183 1.78218L38.6375 5.94059C38.5275 6.06789 38.4672 6.23055 38.4672 6.39675V7.17468L43.2761 1.53112H42.7225C42.5131 1.53112 42.3179 1.62306 42.183 1.78218Z" fill="white"/>
<path d="M38.4707 15.7001L44.1314 9.05587C44.2415 8.92857 44.3018 8.76591 44.3018 8.59972V7.82178L38.6411 14.4661C38.5311 14.5934 38.4707 14.756 38.4707 14.9222V15.7001Z" fill="white"/>
<path d="M44.0569 1.71146L38.6375 8.07284C38.5275 8.20014 38.4672 8.3628 38.4672 8.529V9.30693L44.0747 2.72631C44.2237 2.54951 44.2805 2.31259 44.2202 2.08982C44.1776 1.93069 44.1208 1.76804 44.0534 1.71146H44.0569Z" fill="white"/>
<path d="M39.0599 10.7992L44.7206 4.15134C44.8306 4.02404 44.8909 3.86139 44.8909 3.69519V2.91726L39.2302 9.56153C39.1202 9.68883 39.0599 9.85148 39.0599 10.0177V10.7992Z" fill="white"/>
<path d="M45.512 14.9151L41.853 19.2115H42.4066C42.616 19.2115 42.8112 19.1195 42.9461 18.9604L46.6051 14.6641H46.0515C45.8421 14.6641 45.6469 14.756 45.512 14.9151Z" fill="white"/>
<path d="M44.0818 14.4661L40.0394 19.2115H40.593C40.8024 19.2115 40.9976 19.1195 41.1325 18.9604L44.5928 14.901C44.6957 14.7808 44.678 14.6004 44.5538 14.4979C44.5396 14.4873 44.5289 14.4767 44.5147 14.4625C44.387 14.3388 44.1918 14.3317 44.0782 14.4625L44.0818 14.4661Z" fill="white"/>
<path d="M47.3291 14.9151L43.6701 19.2115H44.2237C44.4331 19.2115 44.6283 19.1195 44.7632 18.9604L48.4222 14.6641H47.8686C47.6592 14.6641 47.464 14.756 47.3291 14.9151Z" fill="white"/>
<path d="M40.3659 1.78218L38.6375 3.81188C38.5275 3.93918 38.4672 4.10184 38.4672 4.26803V5.04597L41.4626 1.53112H40.9089C40.6995 1.53112 40.5043 1.62306 40.3695 1.78218H40.3659Z" fill="white"/>
<path d="M44.2982 12.0792L38.5488 18.8296C38.7085 19.1372 39.1308 19.1832 39.3544 18.918L44.1279 13.3133C44.2379 13.186 44.2982 13.0233 44.2982 12.8571V12.0792Z" fill="white"/>
<path d="M51.045 14.8161L47.2972 19.2115L46.7613 19.8409H47.6911L48.0141 19.459C48.149 19.2999 48.3477 19.2079 48.5571 19.2079H50.612C51.0024 19.2079 51.3218 18.8897 51.3218 18.5007V15.3678C51.3218 15.1379 51.2118 14.9399 51.045 14.8091V14.8161Z" fill="white"/>
<path d="M44.2982 9.94696L38.6375 16.5912C38.5275 16.7185 38.4672 16.8812 38.4672 17.0474V17.8253L44.1279 11.181C44.2379 11.0538 44.2982 10.8911 44.2982 10.7249V9.94696Z" fill="white"/>
<path d="M39.1805 1.53112C38.7901 1.53112 38.4707 1.84936 38.4707 2.23833V2.91372L39.649 1.53112H39.1805Z" fill="white"/>
<path d="M34.4568 6.76096L26.1768 16.4356H26.9541L34.6271 7.42928L34.4568 6.76096Z" fill="white"/>
<path d="M24.2426 19.2115C24.5691 19.2115 24.853 18.9887 24.9311 18.674L25.2009 17.5778L23.8025 19.2115H24.2426Z" fill="white"/>
<path d="M49.6857 14.6676C49.4763 14.6676 49.2811 14.7595 49.1462 14.9187L45.4872 19.215H45.9556C46.165 19.215 46.3602 19.1231 46.4951 18.9675L50.1755 14.6676H49.6857Z" fill="white"/>
<path d="M78.4223 14.9151L74.7632 19.2115H75.324C75.5334 19.2115 75.7286 19.1195 75.8634 18.9604L79.5225 14.6641H78.9617C78.7523 14.6641 78.5571 14.756 78.4223 14.9151Z" fill="white"/>
<path d="M80.2429 14.9151L76.5839 19.2115H77.1446C77.354 19.2115 77.5492 19.1195 77.6841 18.9604L81.3431 14.6641H80.7824C80.573 14.6641 80.3778 14.756 80.2429 14.9151Z" fill="white"/>
<path d="M83.288 8.15417C83.2099 8.12942 82.965 8.11528 82.7557 8.1082C82.5463 8.10113 82.3298 8.19307 82.1878 8.35573L78.5323 12.645H79.093C79.2989 12.645 79.4976 12.553 79.6325 12.3975L83.2845 8.15417H83.288Z" fill="white"/>
<path d="M82.7982 12.645C82.9225 12.645 83.0396 12.6096 83.1425 12.553L83.4655 12.1747C83.4939 12.1004 83.5081 12.0226 83.5081 11.9378V11.082L82.1736 12.645H82.7982Z" fill="white"/>
<path d="M76.6016 14.9151L72.9426 19.2115H73.5033C73.7127 19.2115 73.9079 19.1195 74.0428 18.9604L77.7018 14.6641H77.1411C76.9317 14.6641 76.7365 14.756 76.6016 14.9151Z" fill="white"/>
<path d="M82.7982 1.53112H69.1841C68.7937 1.53112 68.4743 1.84936 68.4743 2.23833V18.5042C68.4743 18.8932 68.7937 19.2115 69.1841 19.2115H69.2693L68.6021 20H69.2019C69.4113 20 69.61 19.9081 69.7449 19.7489L72.3605 16.669L74.1315 14.5898C74.1847 14.5262 74.2167 14.4448 74.2167 14.36C74.2167 13.9958 74.2096 12.995 74.2096 12.995C74.2096 12.8006 74.3693 12.6414 74.5645 12.6414H75.4624C75.6718 12.6414 75.867 12.5495 76.0018 12.3904L79.6609 8.09406H74.5609C74.3657 8.09406 74.206 7.93494 74.206 7.74045V6.42857C74.206 6.23409 74.3657 6.07496 74.5609 6.07496H81.0521C81.2615 6.07496 81.4567 5.98303 81.5916 5.8239L83.3377 3.77298C83.4477 3.64569 83.5081 3.48303 83.5081 3.31683V2.23479C83.5081 1.84583 83.1886 1.52758 82.7982 1.52758V1.53112Z" fill="white"/>
<path d="M83.146 18.9569L83.3377 18.7305C83.4477 18.6033 83.5045 18.4441 83.5081 18.2744C83.5081 17.9632 83.5081 17.4859 83.5081 17.4859L82.0387 19.2079C82.0387 19.2079 82.3546 19.2079 82.6137 19.2008C82.8195 19.2008 83.0112 19.1054 83.146 18.9498V18.9569Z" fill="white"/>
<path d="M80.2216 19.2115H80.7824C80.9918 19.2115 81.187 19.1195 81.3218 18.9604L83.3412 16.5912C83.4513 16.4639 83.5116 16.3013 83.5116 16.1351V15.3536L80.2252 19.2115H80.2216Z" fill="white"/>
<path d="M81.9678 11.7716L83.8488 9.56153C83.9588 9.43423 84.0191 9.27157 84.0191 9.10537V8.3239L80.8676 12.0226H81.4283C81.6377 12.0226 81.8329 11.9307 81.9678 11.7716Z" fill="white"/>
<path d="M82.603 14.6676C82.3937 14.6676 82.1985 14.7595 82.0636 14.9187L78.4045 19.215H78.9653C79.1747 19.215 79.3699 19.1231 79.5047 18.9639L83.107 14.7383C83.0147 14.6959 82.9118 14.6676 82.8018 14.6676H82.603Z" fill="white"/>
<path d="M71.0083 20C71.2177 20 71.4129 19.9081 71.5478 19.7489L75.2068 15.4526H74.7774C74.568 15.4526 74.3728 15.5446 74.238 15.7037L70.5754 20H71.0083Z" fill="white"/>
<path d="M82.4434 6.0785H82.7983C83.1887 6.0785 83.5081 5.76025 83.5081 5.37129V4.83027L82.4434 6.0785Z" fill="white"/>
<path d="M77.2866 12.645C77.496 12.645 77.6912 12.553 77.826 12.3939L81.4851 8.0976H81.0486C80.8392 8.0976 80.644 8.18953 80.5091 8.34866L76.8465 12.645H77.2866Z" fill="white"/>
<path d="M167.202 10.5693L160.955 17.8996H161.509C161.718 17.8996 161.913 17.8076 162.048 17.6485L167.237 11.5594C167.425 11.3402 167.468 11.0255 167.326 10.7744C167.287 10.7037 167.244 10.633 167.198 10.5658L167.202 10.5693Z" fill="white"/>
<path d="M150.152 1.53112C149.762 1.53112 149.442 1.84936 149.442 2.23833V18.5042C149.442 18.8932 149.762 19.2115 150.152 19.2115H157.126C157.427 19.2115 157.591 19.5651 157.396 19.7949L157.222 20H157.829C158.034 20 158.233 19.9081 158.368 19.7525L158.833 19.2115L160.998 16.6761L165.558 11.3225C165.157 10.9123 164.653 10.5728 164.046 10.297C165.771 9.74187 166.683 8.15064 166.683 6.40736C166.683 3.62801 164.884 1.53112 161.03 1.53112H150.152ZM159.582 14.6641H155.248C155.053 14.6641 154.893 14.5049 154.893 14.3105V12.4929C154.893 12.2984 155.053 12.1393 155.248 12.1393H159.582C160.391 12.1393 161.051 12.4929 161.051 13.3522C161.051 14.2857 160.391 14.6641 159.582 14.6641ZM159.582 8.60325H155.248C155.053 8.60325 154.893 8.44413 154.893 8.24965V6.43211C154.893 6.23762 155.053 6.0785 155.248 6.0785H159.582C160.391 6.0785 161.051 6.40736 161.051 7.34088C161.051 8.22489 160.391 8.60325 159.582 8.60325Z" fill="white"/>
<path d="M161.598 19.1938C161.85 19.1796 162.087 19.1549 162.318 19.1231C162.485 19.0983 162.637 19.0099 162.747 18.8826L166.499 14.4802C166.612 14.3458 166.68 14.169 166.669 13.9922C166.655 13.7624 166.63 13.5467 166.591 13.338L161.601 19.1973L161.598 19.1938Z" fill="white"/>
<path d="M166.57 15.488L163.794 18.7447C165.363 18.133 166.275 16.9625 166.57 15.488Z" fill="white"/>
<path d="M174.332 14.8975L170.655 19.215H171.208C171.418 19.215 171.613 19.1231 171.748 18.9639L175.407 14.6676C175.407 14.6676 175.137 14.6605 174.903 14.6499C174.683 14.6393 174.47 14.7313 174.324 14.8975H174.332Z" fill="white"/>
<path d="M175.229 7.4611L169.569 14.1054C169.459 14.2327 169.398 14.3953 169.398 14.5615V15.3395L175.059 8.69519C175.169 8.56789 175.229 8.40523 175.229 8.23904V7.4611Z" fill="white"/>
<path d="M174.115 10.8911L168.454 17.5354C168.344 17.6627 168.284 17.8253 168.284 17.9915V18.5042C168.284 18.582 168.298 18.6563 168.323 18.7235L173.945 12.1216C174.055 11.9943 174.115 11.8317 174.115 11.6655V10.8876V10.8911Z" fill="white"/>
<path d="M174.115 2.36917L168.454 9.01344C168.344 9.14073 168.284 9.30339 168.284 9.46959V10.2475L173.945 3.60325C174.055 3.47595 174.115 3.3133 174.115 3.1471V2.36917Z" fill="white"/>
<path d="M174.115 13.0198L168.941 19.0948L168.994 19.2115H169.395C169.604 19.2115 169.799 19.1195 169.934 18.9604L173.952 14.2468C174.062 14.116 174.122 13.9533 174.122 13.7836C174.122 13.4795 174.119 13.0163 174.119 13.0163L174.115 13.0198Z" fill="white"/>
<path d="M174.115 6.63013L168.454 13.2744C168.344 13.4017 168.284 13.5644 168.284 13.7306V14.5085L173.945 7.86421C174.055 7.73692 174.115 7.57426 174.115 7.40806V6.63013Z" fill="white"/>
<path d="M174.115 4.49788L168.454 11.1421C168.344 11.2694 168.284 11.4321 168.284 11.5983V12.3762L173.945 5.73197C174.055 5.60467 174.115 5.44201 174.115 5.27581V4.49788Z" fill="white"/>
<path d="M173.405 1.53112H168.994C168.603 1.53112 168.284 1.84936 168.284 2.23833V8.11881L173.796 1.65134C173.682 1.57709 173.551 1.53465 173.405 1.53465V1.53112Z" fill="white"/>
<path d="M180.429 14.6676H180.301C180.092 14.6676 179.896 14.7595 179.762 14.9187L176.103 19.215H176.656C176.866 19.215 177.061 19.1231 177.196 18.9639L180.777 14.7631C180.674 14.703 180.557 14.6676 180.429 14.6676Z" fill="white"/>
<path d="M180.429 19.2115C180.819 19.2115 181.139 18.8932 181.139 18.5042V17.5601L179.73 19.2115H180.429Z" fill="white"/>
<path d="M177.916 19.2115H178.47C178.679 19.2115 178.874 19.1195 179.009 18.9604L180.968 16.662C181.078 16.5347 181.139 16.372 181.139 16.2058V15.4279L177.916 19.2115Z" fill="white"/>
<path d="M178.157 14.6676L174.285 19.2115H175.169L179.041 14.6676H178.157Z" fill="white"/>
<path d="M176.131 14.9151L172.472 19.2115H173.026C173.235 19.2115 173.43 19.1195 173.565 18.9604L177.224 14.6641H176.67C176.461 14.6641 176.266 14.756 176.131 14.9151Z" fill="white"/>
<path d="M120.5 0H119.886C119.68 0 119.485 0.0884017 119.35 0.243989L118.548 1.1669C118.345 1.40028 118.051 1.53465 117.742 1.53465H110.165C109.775 1.53465 109.455 1.8529 109.455 2.24187V12.9279L118.945 1.78925L120.5 0Z" fill="white"/>
<path d="M107.773 15.9936L105.029 19.2115H105.583C105.792 19.2115 105.988 19.1195 106.123 18.9604L107.734 17.0686C107.883 16.8953 107.936 16.6584 107.879 16.4392L107.766 15.9901L107.773 15.9936Z" fill="white"/>
<path d="M108.188 17.6379L106.847 19.2115C106.847 19.2115 107.155 19.2115 107.411 19.2079C107.617 19.2079 107.812 19.116 107.947 18.9569L108.149 18.7164C108.295 18.5467 108.351 18.3133 108.298 18.0941C108.245 17.8748 108.188 17.6308 108.188 17.6308V17.6379Z" fill="white"/>
<path d="M115.499 9.05587L109.625 15.9512C109.515 16.0785 109.455 16.2412 109.455 16.4074V17.1853L116.596 8.80481H116.042C115.833 8.80481 115.638 8.89675 115.503 9.05587H115.499Z" fill="white"/>
<path d="M114.576 19.2115C114.967 19.2115 115.286 18.8932 115.286 18.5042V17.8253L114.104 19.2115H114.576Z" fill="white"/>
<path d="M117.856 8.80835C117.646 8.80835 117.451 8.90028 117.316 9.05941L109.459 18.2815V18.5078C109.459 18.7199 109.554 18.9074 109.7 19.0347L118.413 8.80835H117.856Z" fill="white"/>
<path d="M118.917 6.0785L122.537 1.82815C122.441 1.79986 122.345 1.77511 122.246 1.75035C121.98 1.6867 121.699 1.77157 121.525 1.97666L118.033 6.0785H118.917Z" fill="white"/>
<path d="M119.875 1.78925L116.22 6.0785H116.773C116.983 6.0785 117.178 5.98656 117.313 5.82744L120.954 1.55233C120.848 1.54526 120.624 1.53819 120.429 1.53465C120.216 1.53112 120.01 1.62306 119.872 1.78571L119.875 1.78925Z" fill="white"/>
<path d="M115.286 7.17468L109.625 13.819C109.515 13.9463 109.455 14.1089 109.455 14.2751V15.053L115.116 8.40877C115.226 8.28147 115.286 8.11881 115.286 7.95262V7.17468Z" fill="white"/>
<path d="M126.352 9.0983L123.161 12.8465C124.822 12.1818 125.937 10.8769 126.352 9.0983Z" fill="white"/>
<path d="M113.387 18.9639L115.116 16.9342C115.226 16.8069 115.286 16.6443 115.286 16.4781V15.7001L112.291 19.215H112.844C113.054 19.215 113.249 19.1231 113.384 18.9639H113.387Z" fill="white"/>
<path d="M120.365 6.5099L123.609 2.70156C123.751 2.53182 123.694 2.27723 123.495 2.18175C123.495 2.18175 123.492 2.18175 123.488 2.18175C123.353 2.1181 123.19 2.157 123.094 2.27016L119.786 6.15276C120.017 6.21994 120.216 6.3331 120.365 6.5099Z" fill="white"/>
<path d="M126.146 5.08133L119.098 13.3522H119.652C119.861 13.3522 120.056 13.2603 120.191 13.1011L126.129 6.13154C126.281 5.9512 126.334 5.70721 126.27 5.4809C126.231 5.343 126.189 5.20863 126.143 5.08133H126.146Z" fill="white"/>
<path d="M124.755 4.657L116.596 14.2362H117.149C117.359 14.2362 117.554 14.1443 117.689 13.9851L124.798 5.64003C125.007 5.39604 125.021 5.0389 124.837 4.77369C124.808 4.73479 124.78 4.69236 124.751 4.65346L124.755 4.657Z" fill="white"/>
<path d="M124.741 2.99858C124.602 2.87129 124.382 2.88897 124.262 3.03041L120.645 7.27369C120.649 7.33027 120.659 7.37977 120.659 7.44342C120.659 8.26379 120.198 8.66337 119.573 8.76945C119.417 8.79774 119.272 8.8826 119.169 9.00283L110.474 19.2115H111.027C111.237 19.2115 111.432 19.1195 111.567 18.9604L115.112 14.7984C115.222 14.6711 115.283 14.5085 115.283 14.3423V13.7058C115.283 13.5113 115.442 13.3522 115.638 13.3522H116.347L124.769 3.46535C124.886 3.32744 124.872 3.12235 124.741 3.00212C124.741 3.00212 124.741 3.00212 124.737 2.99858H124.741Z" fill="white"/>
<path d="M126.515 6.77864L120.933 13.331C121.188 13.3133 121.433 13.285 121.671 13.2496C121.834 13.2249 121.983 13.1365 122.09 13.0092L126.359 7.99858C126.469 7.87129 126.526 7.71216 126.53 7.54243C126.53 7.28783 126.53 6.92716 126.515 6.77864Z" fill="white"/>
<path d="M107.184 13.6598L104.462 2.87129C104.263 2.08628 103.553 1.53465 102.74 1.53465H95.8232C95.0105 1.53465 94.3007 2.08628 94.1019 2.87129L90.198 18.3345C90.0844 18.7801 90.4251 19.215 90.8865 19.215H95.2234C95.5499 19.215 95.8339 18.9922 95.9119 18.6775L96.3982 16.7079C96.4372 16.5488 96.5792 16.4392 96.7424 16.4392H101.814C101.977 16.4392 102.119 16.5488 102.158 16.7079L102.644 18.6775C102.723 18.9922 103.006 19.215 103.333 19.215H104.096L107.301 15.4526L108.486 14.0877C108.635 13.9144 108.692 13.681 108.639 13.4618L108.522 12.9668L107.791 13.8083C107.602 14.024 107.248 13.9392 107.177 13.6634L107.184 13.6598ZM100.558 12.0898H97.9775C97.7362 12.0898 97.5587 11.867 97.6155 11.6337L98.9038 6.36139C98.9428 6.19519 99.0919 6.0785 99.2658 6.0785C99.4397 6.0785 99.5852 6.19519 99.6278 6.36139L100.916 11.6337C100.973 11.867 100.795 12.0898 100.554 12.0898L100.558 12.0898Z" fill="white"/>
</svg>
