<svg id="Layer_1" data-name="Layer 1" xmlns="http://www.w3.org/2000/svg" xmlns:xlink="http://www.w3.org/1999/xlink" viewBox="0 0 100 100"><defs><style>.cls-1{fill:url(#linear-gradient);}.cls-2{fill:url(#linear-gradient-2);}.cls-3{fill:#fff0a6;}.cls-4{fill:#86c0f7;}.cls-5{fill:#d6e7f6;}.cls-6{fill:url(#linear-gradient-3);}.cls-7{fill:url(#linear-gradient-4);}.cls-8{fill:url(#linear-gradient-5);}.cls-9{fill:url(#linear-gradient-6);}.cls-10{fill:url(#linear-gradient-7);}.cls-11{fill:url(#linear-gradient-8);}.cls-12{fill:url(#linear-gradient-9);}</style><linearGradient id="linear-gradient" x1="15.77" y1="37.6" x2="66.58" y2="37.6" gradientUnits="userSpaceOnUse"><stop offset="0" stop-color="#b1d9f7"/><stop offset="0.26" stop-color="#abd3f8"/><stop offset="0.6" stop-color="#99c2fb"/><stop offset="1" stop-color="#7da6ff"/></linearGradient><linearGradient id="linear-gradient-2" x1="6.41" y1="37.55" x2="15.77" y2="37.55" gradientUnits="userSpaceOnUse"><stop offset="0.01" stop-color="#f3c0ff"/><stop offset="1" stop-color="#f07fff"/></linearGradient><linearGradient id="linear-gradient-3" x1="51.49" y1="32.36" x2="87.29" y2="32.36" xlink:href="#linear-gradient"/><linearGradient id="linear-gradient-4" x1="51.49" y1="36.83" x2="87.29" y2="36.83" xlink:href="#linear-gradient"/><linearGradient id="linear-gradient-5" x1="51.49" y1="41.31" x2="87.29" y2="41.31" xlink:href="#linear-gradient"/><linearGradient id="linear-gradient-6" x1="51.49" y1="45.78" x2="87.29" y2="45.78" xlink:href="#linear-gradient"/><linearGradient id="linear-gradient-7" x1="51.49" y1="69.88" x2="87.29" y2="69.88" xlink:href="#linear-gradient"/><linearGradient id="linear-gradient-8" x1="51.49" y1="74.7" x2="68.36" y2="74.7" xlink:href="#linear-gradient"/><linearGradient id="linear-gradient-9" x1="51.49" y1="57.83" x2="87.29" y2="57.83" xlink:href="#linear-gradient"/></defs><rect class="cls-1" x="15.77" y="0.45" width="50.81" height="74.3"/><path d="M66.93,75.09H15.43V.11h51.5Zm-50.81-.68H66.24V.8H16.12Z"/><rect class="cls-2" x="6.41" y="0.34" width="9.36" height="74.41"/><path d="M16.12,75.09h-10V0H16.12Zm-9.36-.68h8.67V.69H6.76Z"/><rect class="cls-3" x="15.89" y="0.34" width="4.97" height="74.41"/><path d="M21,75.09H15.71V0H21Zm-5-.68h4.61V.69H16.07Z"/><polyline class="cls-4" points="42.8 24.81 66.58 1.03 66.58 24.81"/><polygon points="43.05 25.06 42.56 24.57 66.93 0.2 66.93 24.81 66.24 24.81 66.24 1.86 43.05 25.06"/><rect class="cls-5" x="42.9" y="25.05" width="50.68" height="74.61"/><path d="M93.93,100H42.56V24.7H93.93Zm-50.68-.69h50V25.39h-50Z"/><rect class="cls-6" x="51.49" y="31.5" width="35.8" height="1.72"/><rect class="cls-7" x="51.49" y="35.97" width="35.8" height="1.72"/><rect class="cls-8" x="51.49" y="40.45" width="35.8" height="1.72"/><rect class="cls-9" x="51.49" y="44.92" width="35.8" height="1.72"/><rect class="cls-10" x="51.49" y="69.02" width="35.8" height="1.72"/><rect class="cls-11" x="51.49" y="73.84" width="16.87" height="1.72"/><rect class="cls-12" x="51.49" y="49.74" width="35.8" height="16.18"/></svg>