<svg id="Layer_1" data-name="Layer 1" xmlns="http://www.w3.org/2000/svg" xmlns:xlink="http://www.w3.org/1999/xlink" viewBox="0 0 100 100"><defs><style>.cls-1{fill:#86c0f7;}.cls-2{fill:url(#linear-gradient);}.cls-3{fill:url(#linear-gradient-2);}.cls-4{fill:url(#linear-gradient-3);}.cls-5{fill:url(#linear-gradient-4);}.cls-6{fill:url(#linear-gradient-5);}.cls-7{fill:url(#linear-gradient-6);}.cls-8{fill:url(#linear-gradient-7);}.cls-9{fill:#f3c0ff;}.cls-10{fill:#fff0a6;}</style><linearGradient id="linear-gradient" x1="42.34" y1="70.47" x2="70.02" y2="98.15" gradientUnits="userSpaceOnUse"><stop offset="0" stop-color="#b1d9f7"/><stop offset="0.26" stop-color="#abd3f8"/><stop offset="0.6" stop-color="#99c2fb"/><stop offset="1" stop-color="#7da6ff"/></linearGradient><linearGradient id="linear-gradient-2" x1="25.81" y1="70.47" x2="53.49" y2="98.15" gradientUnits="userSpaceOnUse"><stop offset="0" stop-color="#b1d9f7"/><stop offset="0.33" stop-color="#aed6f7"/><stop offset="0.58" stop-color="#a5cdf9"/><stop offset="0.79" stop-color="#95bdfb"/><stop offset="0.99" stop-color="#7fa8ff"/><stop offset="1" stop-color="#7da6ff"/></linearGradient><linearGradient id="linear-gradient-3" x1="21.55" y1="18.4" x2="70.7" y2="67.55" gradientUnits="userSpaceOnUse"><stop offset="0.01" stop-color="#d6e7f6"/><stop offset="0.23" stop-color="#d2e5f6"/><stop offset="0.45" stop-color="#c6dff6"/><stop offset="0.68" stop-color="#b1d5f6"/><stop offset="0.9" stop-color="#95c7f7"/><stop offset="1" stop-color="#86c0f7"/></linearGradient><linearGradient id="linear-gradient-4" x1="44" y1="0.18" x2="70.96" y2="27.14" gradientUnits="userSpaceOnUse"><stop offset="0.01" stop-color="#d6e7f6"/><stop offset="1" stop-color="#86c0f7"/></linearGradient><linearGradient id="linear-gradient-5" x1="42.3" y1="14.22" x2="45.4" y2="14.22" xlink:href="#linear-gradient-4"/><linearGradient id="linear-gradient-6" x1="7.08" y1="33.11" x2="41.94" y2="67.97" gradientUnits="userSpaceOnUse"><stop offset="0.01" stop-color="#d6e7f6"/><stop offset="0.46" stop-color="#d4e6f6"/><stop offset="0.63" stop-color="#cde3f6"/><stop offset="0.75" stop-color="#c1ddf6"/><stop offset="0.85" stop-color="#b0d4f6"/><stop offset="0.94" stop-color="#9acaf7"/><stop offset="1" stop-color="#86c0f7"/></linearGradient><linearGradient id="linear-gradient-7" x1="15.75" y1="74.48" x2="36.88" y2="95.61" gradientUnits="userSpaceOnUse"><stop offset="0.01" stop-color="#d6e7f6"/><stop offset="0.26" stop-color="#d3e5f6"/><stop offset="0.47" stop-color="#c8e0f6"/><stop offset="0.67" stop-color="#b7d8f6"/><stop offset="0.85" stop-color="#9fccf7"/><stop offset="1" stop-color="#86c0f7"/></linearGradient></defs><path class="cls-1" d="M67.56,78.42l0,0c-.13.22-2.19,3.73-3.09,5.68s-2.27,4.54,0,5.67,3.57.51,4.79-1.51c.72-1.19,1.13-2,1.35-2.36a.15.15,0,0,1,.28,0,10.79,10.79,0,0,1-.78,5.62,11.36,11.36,0,0,1-2.24,3.76.15.15,0,0,0,0,.18c.4.76,3,5.22,6.33,2.15a.15.15,0,0,1,.22,0c.38.45,1.87,2,3.65,1.56,1.37-.34,1.81-.71,2-.91a.14.14,0,0,1,.21,0,3.89,3.89,0,0,0,4.62.39c2.69-1.59,5.77-9.81,5.63-13a42,42,0,0,0-3.44-13,.16.16,0,0,0-.12-.09C85.69,72.45,73.22,71.59,67.56,78.42Z"/><path d="M77.37,99.57a4.63,4.63,0,0,1-3.14-1.65,3.46,3.46,0,0,1-3,1c-2-.35-3.31-2.61-3.67-3.3a.39.39,0,0,1,.08-.47,11.1,11.1,0,0,0,2.19-3.68,10.64,10.64,0,0,0,.79-5.19c-.24.45-.62,1.13-1.21,2.11-1.37,2.26-2.85,2.73-5.11,1.6s-1.2-3.64-.28-5.63l.17-.36c.91-2,3-5.55,3.1-5.7a.1.1,0,0,1,0,0h0c5.72-6.89,18.12-6.08,19.52-6a.4.4,0,0,1,.33.23,42.18,42.18,0,0,1,3.45,13.12c.15,3.26-2.91,11.59-5.75,13.26a4.12,4.12,0,0,1-4.82-.35,4.29,4.29,0,0,1-2,.93A2.89,2.89,0,0,1,77.37,99.57Zm-3.13-2.18h0a.37.37,0,0,1,.27.13C74.93,98,76.32,99.42,78,99c1.37-.34,1.73-.68,1.82-.81A.37.37,0,0,1,80,98a.33.33,0,0,1,.3.09,3.66,3.66,0,0,0,4.33.36c2.67-1.57,5.65-9.74,5.51-12.82a42,42,0,0,0-3.39-12.89c-1.61-.13-13.55-.82-19,5.79-.14.24-2.19,3.72-3.08,5.66l-.17.36c-1.09,2.36-1.73,4.09.06,5,2,1,3.23.62,4.47-1.42.72-1.19,1.12-1.94,1.34-2.35a.39.39,0,0,1,.42-.21.38.38,0,0,1,.32.34,11.11,11.11,0,0,1-.8,5.75,11.81,11.81,0,0,1-2.25,3.79c.31.57,1.56,2.68,3.29,3a3.08,3.08,0,0,0,2.63-1A.38.38,0,0,1,74.24,97.39Z"/><path class="cls-2" d="M46.46,66.36V95.51s-.83,3.92,1.72,4.25H68.1s1.12-.05,1.49-2.24-.41-3.37-1.71-3.86-3.38-.81-5-2.44-.64-24.86-.64-24.86Z"/><path d="M48.18,100h0a2,2,0,0,1-1.49-.87c-.89-1.24-.5-3.37-.45-3.64V66.36a.25.25,0,0,1,.25-.25H62.27a.25.25,0,0,1,.18.08.24.24,0,0,1,.07.18c-.39,9.29-.55,23.54.56,24.68A8.65,8.65,0,0,0,67,93.12c.34.11.66.21.95.32,1.1.41,2.31,1.46,1.87,4.12-.4,2.36-1.66,2.44-1.72,2.44Zm0-.49H68.1s.92-.09,1.25-2-.21-3.08-1.56-3.59c-.27-.1-.59-.2-.93-.3a9.15,9.15,0,0,1-4.13-2.2c-1.57-1.61-.84-21.46-.71-24.79H46.7V95.51a.09.09,0,0,1,0,0s-.44,2.16.37,3.29A1.55,1.55,0,0,0,48.19,99.51Zm-1.73-4Z"/><path d="M59.19,100a.25.25,0,0,1-.12-.46,1.19,1.19,0,0,1,.5-.11c.39,0,.88,0,1.22-2.38a3.29,3.29,0,0,0-2.46-3.76.24.24,0,1,1,.12-.47,3.82,3.82,0,0,1,2.82,4.3c-.37,2.53-1,2.76-1.67,2.8a.76.76,0,0,0-.29,0A.27.27,0,0,1,59.19,100Z"/><path d="M64.13,100a.23.23,0,0,1-.21-.13.25.25,0,0,1,.09-.33,1.16,1.16,0,0,1,.5-.11c.39,0,.88,0,1.22-2.38a3.29,3.29,0,0,0-2.46-3.76.24.24,0,1,1,.12-.47,3.82,3.82,0,0,1,2.82,4.3c-.37,2.53-1,2.76-1.68,2.8a.74.74,0,0,0-.28,0A.27.27,0,0,1,64.13,100Z"/><path class="cls-3" d="M29.93,66.36V95.51s-.83,3.92,1.72,4.25H51.57s1.12-.05,1.49-2.24-.41-3.37-1.71-3.86-3.38-.81-5-2.44-.64-24.86-.64-24.86Z"/><path d="M31.65,100h0a2,2,0,0,1-1.49-.87c-.89-1.24-.5-3.37-.45-3.64V66.36a.25.25,0,0,1,.25-.25H45.74a.25.25,0,0,1,.18.08.24.24,0,0,1,.07.18c-.39,9.29-.55,23.54.56,24.68a8.65,8.65,0,0,0,3.93,2.07c.34.11.66.21,1,.32,1.1.41,2.31,1.46,1.87,4.12-.4,2.36-1.66,2.44-1.72,2.44Zm0-.49H51.57s.92-.09,1.25-2-.21-3.08-1.56-3.59c-.27-.1-.59-.2-.93-.3a9.15,9.15,0,0,1-4.13-2.2c-1.57-1.61-.84-21.46-.71-24.79H30.17V95.51a.09.09,0,0,1,0,0s-.44,2.16.37,3.29A1.55,1.55,0,0,0,31.66,99.51Zm-1.73-4Z"/><path d="M42.66,100a.25.25,0,0,1-.12-.46,1.19,1.19,0,0,1,.5-.11c.39,0,.88,0,1.22-2.38a3.29,3.29,0,0,0-2.46-3.76.24.24,0,1,1,.12-.47,3.82,3.82,0,0,1,2.82,4.3c-.37,2.53-1,2.76-1.67,2.8a.76.76,0,0,0-.29,0A.27.27,0,0,1,42.66,100Z"/><path d="M47.6,100a.23.23,0,0,1-.21-.13.25.25,0,0,1,.09-.33,1.16,1.16,0,0,1,.5-.11c.39,0,.88,0,1.22-2.38a3.29,3.29,0,0,0-2.46-3.76.24.24,0,1,1,.12-.47,3.82,3.82,0,0,1,2.82,4.3c-.37,2.53-1,2.76-1.68,2.8a.74.74,0,0,0-.28,0A.27.27,0,0,1,47.6,100Z"/><path class="cls-1" d="M67,70.38a26.87,26.87,0,0,1,.56,5.33c-.19,1.54-.38,2.16,0,2.72,0,0,4.36-6.19,19.41-5.88,0,0-3.06-17.26-17.4-45.23l-6.72.95L59.59,50.08Z"/><path d="M67.55,78.67a.23.23,0,0,1-.2-.1C67,78,67,77.46,67.18,76.42c0-.22.06-.47.1-.74a26.47,26.47,0,0,0-.55-5.23L59.36,50.16a.37.37,0,0,1,0-.11L62.6,28.24a.24.24,0,0,1,.2-.21l6.72-1a.24.24,0,0,1,.26.13C84,54.89,87.17,72.33,87.2,72.51a.25.25,0,0,1-.06.2.26.26,0,0,1-.19.08c-14.71-.3-19.16,5.72-19.2,5.78A.21.21,0,0,1,67.55,78.67ZM59.84,50.06,67.19,70.3s0,0,0,0a26,26,0,0,1,.56,5.4c0,.27-.07.52-.1.75A4.12,4.12,0,0,0,67.6,78c1.1-1.26,6-5.88,19.06-5.68-.48-2.38-4.15-19.14-17.24-44.72l-6.37.91Z"/><path class="cls-4" d="M67.09,30.11a16.78,16.78,0,0,1,0,5.1c-.39,3.27-1.36,7.42-1.32,8.71s2.14,9.38,2.54,13.77,3.44,23.12-22.76,19.86c0,0-8.73-4.84-10.1-4.21,0,0-15.56-6.45-19.22-20.53S20.46,17.6,27.64,12.53,39.6,1.74,42.77,1.92,65.28,8.25,67.09,30.11Z"/><path d="M51.24,78.17a47,47,0,0,1-5.72-.38l-.09,0c-3.33-1.85-9-4.62-9.88-4.2a.21.21,0,0,1-.19,0C35.2,73.5,19.65,66.91,16,52.87c-1.67-6.41-1.07-15,1.64-23.66,2.47-7.86,6.25-14.33,9.86-16.88,2.65-1.88,5-3.83,7-5.56,3.58-3,6.17-5.2,8.27-5.09,1.74.1,7.38,1.75,12.8,6A30.83,30.83,0,0,1,67.33,30.07a17,17,0,0,1,0,5.17c-.18,1.49-.48,3.18-.74,4.68a27.31,27.31,0,0,0-.57,4c0,.49.37,2.16.78,4.08a97.75,97.75,0,0,1,1.76,9.68c0,.18,0,.38.06.61.33,3.2,1.1,10.69-3.85,15.53C61.81,76.71,57.27,78.17,51.24,78.17Zm-5.61-.86c8.76,1.08,15.09-.21,18.8-3.85,4.78-4.67,4-12,3.7-15.13,0-.23,0-.43-.06-.61a97.63,97.63,0,0,0-1.74-9.63c-.44-2-.78-3.63-.8-4.16a29.61,29.61,0,0,1,.58-4.1c.26-1.48.56-3.17.74-4.65a17.58,17.58,0,0,0,0-5,0,0,0,0,1,0,0,30.38,30.38,0,0,0-11.56-22C50,3.88,44.45,2.26,42.76,2.17c-1.9-.11-4.56,2.13-7.93,5-2,1.74-4.38,3.7-7,5.58-3.53,2.49-7.24,8.87-9.68,16.64-2.68,8.54-3.28,17.06-1.63,23.39,3.45,13.27,17.77,19.8,19,20.33C37.1,72.67,44.1,76.47,45.63,77.31Z"/><path class="cls-5" d="M42.77,1.92A57.3,57.3,0,0,1,53.2.42C58.6.21,67.71,0,68.48.91s.12,2.92,0,3.3a23.62,23.62,0,0,0,0,14.15A8.86,8.86,0,0,1,70,26.05c-1.32,4.34-1.82,3.81-2.37,3.93s-16.09.47-18.31-.91-8.66-10.12-9-17C40,5.61,40.18,2.8,42.77,1.92Z"/><path d="M61.7,30.37c-4.86,0-11.13-.22-12.53-1.1C47,27.94,40.39,19.14,40.05,12.06c-.3-6.34-.14-9.42,2.65-10.37h0A56.43,56.43,0,0,1,53.19.18C58.6,0,67.8-.25,68.66.75c.55.64.57,1.85.06,3.51l0,.08a23.22,23.22,0,0,0,.06,13.9,9,9,0,0,1,1.45,7.88c-1.13,3.71-1.68,4-2.39,4.08a.47.47,0,0,0-.16,0C67.35,30.28,64.82,30.37,61.7,30.37ZM42.84,2.16C40.5,3,40.22,5.33,40.54,12c.33,6.93,6.81,15.53,8.88,16.83s17.35,1,18.13.88l.23,0c.37,0,.84-.06,2-3.73a8.72,8.72,0,0,0-1.38-7.47l0-.07a23.81,23.81,0,0,1-.07-14.25l0-.07c.45-1.47.46-2.56,0-3S61.73.33,53.21.66A57,57,0,0,0,42.84,2.16Z"/><path class="cls-1" d="M44.41,9.93a12.5,12.5,0,0,0-3.45.44c-.82.41-.76,7-.27,7.63s3.4.54,3.4.54Z"/><path d="M43.58,18.8c-.93,0-2.64-.08-3.08-.65s-.53-5.33-.14-7.06c.12-.54.27-.83.49-.94a12.34,12.34,0,0,1,3.56-.46.27.27,0,0,1,.18.07.25.25,0,0,1,.06.18l-.32,8.61a.24.24,0,0,1-.23.24Zm.58-8.62a11,11,0,0,0-3.09.4s-.15.11-.29.87c-.37,2.07-.2,6,.11,6.4s1.82.48,3,.46Z"/><path class="cls-6" d="M45.07,9.93s-1.71-.21-2.32.36-.53,5.27-.19,6.87,1.8,1.37,2.79,1.37C45.35,18.53,45.59,11.26,45.07,9.93Z"/><path d="M44.66,18.79c-.9,0-2-.15-2.33-1.58s-.49-6.4.26-7.1,2.32-.44,2.51-.42a.22.22,0,0,1,.19.16c.54,1.35.31,8.39.3,8.69a.24.24,0,0,1-.24.24h-.69Zm-.31-8.65a2.31,2.31,0,0,0-1.43.33c-.48.45-.49,4.91-.12,6.64.25,1.14,1.07,1.21,2.21,1.19h.1c.07-2.08.13-6.87-.22-8.13Z"/><path class="cls-7" d="M24.48,15.71S12.21,28.1,10.13,44s2.17,34,2.17,34,9.11-9.38,23.54-3.87c0,0,.51-.26-1-1.74C32.47,70,28.19,57.76,28,51.41s.92-9.43,2.81-10.8c2.62-1.89,4.53-6.62,3.81-14.06S28.48,12.76,24.48,15.71Z"/><path d="M12.3,78.17h-.06a.24.24,0,0,1-.18-.18c0-.18-4.22-18.35-2.17-34.06S24.18,15.67,24.31,15.54l0,0a3.87,3.87,0,0,1,4.08-.38c3.18,1.41,6,6.31,6.45,11.39.65,6.7-.81,12-3.91,14.28-2,1.46-2.87,4.82-2.71,10.59.18,6.29,4.4,18.45,6.75,20.75.84.82,1.22,1.41,1.16,1.81a.47.47,0,0,1-.21.32.21.21,0,0,1-.19,0,22.76,22.76,0,0,0-17-.13,19.71,19.71,0,0,0-6.29,3.95A.29.29,0,0,1,12.3,78.17ZM24.64,15.9c-.46.47-12.26,12.73-14.27,28.09-1.87,14.3,1.47,30.66,2.08,33.46a21,21,0,0,1,6.12-3.75,23.22,23.22,0,0,1,17.07,0,4.07,4.07,0,0,0-1-1.23c-2.4-2.34-6.71-14.7-6.9-21.08-.17-5.94.76-9.44,2.92-11,3-2.14,4.34-7.31,3.71-13.83-.48-4.92-3.13-9.65-6.17-11A3.41,3.41,0,0,0,24.64,15.9Z"/><path class="cls-8" d="M35.84,74.06A23.23,23.23,0,0,1,37.62,89.9c-2.08,9.33-4,10-7.59,7.72,0,0-1.75,3.32-5.33.65,0,0-1.83,2.1-4.93.48s-1.14-4.8-.66-5.54,1.57-5.64-1.44-8.74-5.28-4.4-5.37-6.54a21.07,21.07,0,0,1,11.44-5.38A23.2,23.2,0,0,1,35.84,74.06Z"/><path d="M22,99.6A5.22,5.22,0,0,1,19.65,99a3.2,3.2,0,0,1-1.74-2,5,5,0,0,1,1-3.9c.38-.59,1.52-5.41-1.41-8.43-.84-.86-1.62-1.58-2.31-2.22-1.85-1.71-3.06-2.84-3.13-4.48a.23.23,0,0,1,.07-.18,21.41,21.41,0,0,1,11.58-5.45A23.63,23.63,0,0,1,36,73.84a.22.22,0,0,1,.1.09,23.74,23.74,0,0,1,1.8,16c-1.22,5.5-2.44,8.14-4.08,8.82-1,.4-2.08.15-3.66-.83A3.63,3.63,0,0,1,28,99.48a4.15,4.15,0,0,1-3.28-.89A4,4,0,0,1,22,99.6ZM12.55,78c.11,1.4,1.26,2.46,3,4,.69.64,1.48,1.37,2.32,2.24,3,3.12,2.07,8.11,1.48,9a4.57,4.57,0,0,0-.94,3.51,2.76,2.76,0,0,0,1.5,1.69,3.74,3.74,0,0,0,4.64-.43.24.24,0,0,1,.33,0,3.74,3.74,0,0,0,3,.92,3.17,3.17,0,0,0,1.92-1.5.28.28,0,0,1,.16-.12.26.26,0,0,1,.19,0c1.55,1,2.57,1.27,3.42.92,1.46-.6,2.63-3.22,3.8-8.48a23.36,23.36,0,0,0-1.71-15.6,23.38,23.38,0,0,0-11.9-1.46A21.06,21.06,0,0,0,12.55,78Z"/><path d="M24.7,98.51a.26.26,0,0,1-.18-.07.25.25,0,0,1,0-.34c1-.92,1.94-2.8,2.9-5.59a15.41,15.41,0,0,1,1.91-3.75.25.25,0,0,1,.34-.06.24.24,0,0,1,.05.34,16.06,16.06,0,0,0-1.84,3.62c-1,2.87-2,4.82-3,5.79A.27.27,0,0,1,24.7,98.51Z"/><path d="M30,97.86a.2.2,0,0,1-.13,0,.24.24,0,0,1-.08-.33,74.53,74.53,0,0,0,3.4-7.39,6.23,6.23,0,0,1,1.28-1.9.25.25,0,0,1,.34,0,.24.24,0,0,1,0,.35,5.61,5.61,0,0,0-1.16,1.72,75.11,75.11,0,0,1-3.45,7.48A.23.23,0,0,1,30,97.86Z"/><path d="M74.26,97.81a.23.23,0,0,1-.16-.06.25.25,0,0,1,0-.34c.7-.8,3.53-5.29,4.59-7l.46-.72a7.55,7.55,0,0,1,1-1.16.24.24,0,1,1,.33.36A7.15,7.15,0,0,0,79.52,90l-.45.71c-1.17,1.86-3.91,6.21-4.63,7A.25.25,0,0,1,74.26,97.81Z"/><path d="M80.08,98.49a.22.22,0,0,1-.19-.1.24.24,0,0,1,0-.34c1.66-1.22,4.08-6,4.88-7.6l.28-.55a10.48,10.48,0,0,1,.64-.83.24.24,0,0,1,.34,0,.25.25,0,0,1,0,.35s-.41.49-.6.78l-.25.51c-.81,1.6-3.28,6.49-5,7.78A.28.28,0,0,1,80.08,98.49Z"/><path class="cls-9" d="M64.11,41.47,63,42.5,63.24,44a3,3,0,0,1-4.34,3l-1.32-.73L56.23,47A3,3,0,0,1,52,43.8l.28-1.48-1.06-1.07a3,3,0,0,1,1.73-5L54.43,36l.69-1.34a3,3,0,0,1,5.31.09l.64,1.36,1.49.24A3,3,0,0,1,64.11,41.47Z"/><path d="M54.48,47.58a3.26,3.26,0,0,1-2.78-3.84L52,42.42l-1-1a3.26,3.26,0,0,1,1.9-5.53l1.34-.17.61-1.2a3.26,3.26,0,0,1,5.85.1l.58,1.22,1.33.22a3.26,3.26,0,0,1,1.71,5.59h0l-1,.92.2,1.33a3.26,3.26,0,0,1-4.79,3.36l-1.18-.65-1.2.61A3.22,3.22,0,0,1,54.48,47.58Zm3.63-14.16a3,3,0,0,0-.31,0,2.61,2.61,0,0,0-2.41,1.44l-.77,1.48L53,36.52A2.67,2.67,0,0,0,51.42,41l1.17,1.18-.31,1.63a2.67,2.67,0,0,0,3.82,2.87L57.58,46l1.46.8A2.66,2.66,0,0,0,63,44l-.25-1.65,1.21-1.14a2.66,2.66,0,0,0-1.4-4.56l-1.64-.27-.71-1.5A2.6,2.6,0,0,0,58.11,33.42Z"/><path class="cls-10" d="M60.71,40.64c-2.21.42-2.57.77-3,3-.42-2.2-.77-2.56-3-3,2.2-.41,2.56-.77,3-3C58.16,39.82,58.51,40.18,60.71,40.64Z"/></svg>