<svg id="Layer_1" data-name="Layer 1" xmlns="http://www.w3.org/2000/svg" xmlns:xlink="http://www.w3.org/1999/xlink" viewBox="0 0 100 100"><defs><style>.cls-1{fill:url(#linear-gradient);}.cls-2{fill:url(#linear-gradient-2);}.cls-3{fill:#86c0f7;}.cls-4{fill:url(#linear-gradient-3);}.cls-5{fill:#f3c0ff;}.cls-6{fill:#fff0a6;}</style><linearGradient id="linear-gradient" x1="21.47" y1="93.84" x2="77.63" y2="93.84" gradientUnits="userSpaceOnUse"><stop offset="0" stop-color="#b1d9f7"/><stop offset="0.26" stop-color="#abd3f8"/><stop offset="0.6" stop-color="#99c2fb"/><stop offset="1" stop-color="#7da6ff"/></linearGradient><linearGradient id="linear-gradient-2" x1="21.69" y1="88.18" x2="77.56" y2="88.18" gradientUnits="userSpaceOnUse"><stop offset="0.01" stop-color="#d6e7f6"/><stop offset="0.46" stop-color="#d4e6f6"/><stop offset="0.63" stop-color="#cde3f6"/><stop offset="0.75" stop-color="#c1ddf6"/><stop offset="0.85" stop-color="#b0d4f6"/><stop offset="0.94" stop-color="#9acaf7"/><stop offset="1" stop-color="#86c0f7"/></linearGradient><linearGradient id="linear-gradient-3" x1="9.47" y1="40.99" x2="90.53" y2="40.99" gradientUnits="userSpaceOnUse"><stop offset="0.01" stop-color="#d6e7f6"/><stop offset="1" stop-color="#86c0f7"/></linearGradient></defs><path class="cls-1" d="M21.59,88.15S20.85,92.49,23,94s9.9,5.75,26.55,5.52c16.64.23,24.42-4,26.55-5.52s1.41-5.86,1.41-5.86"/><path d="M48.24,100C32,100,24.63,95.72,22.73,94.39c-2.36-1.67-1.63-6.13-1.59-6.32l.9.15s-.66,4.08,1.22,5.42,9.37,5.66,26.28,5.43c16.92.24,24.41-4.1,26.3-5.43s1.22-5.37,1.22-5.42l.9-.15c0,.19.77,4.65-1.59,6.32-2,1.37-9.65,5.83-26.83,5.6Z"/><path class="cls-2" d="M28,80a23,23,0,0,1-2.53,3.67C24,85.3,21.27,86.8,21.74,89c0,0,3,7.61,28.79,7.37v0c24.64,0,27-7.2,27-7.2.47-2.23-2.28-3.72-3.73-5.4a23.13,23.13,0,0,1-2.54-3.66"/><path d="M49.35,96.86c-24.77,0-27.92-7.36-28-7.68l0-.07c-.4-1.88,1.14-3.26,2.5-4.49a15.17,15.17,0,0,0,1.34-1.3,22.78,22.78,0,0,0,2.47-3.58l.81.44a24.54,24.54,0,0,1-2.59,3.75A15.45,15.45,0,0,1,24.4,85.3c-1.27,1.15-2.47,2.24-2.22,3.58.23.47,4,7.18,27.87,7.06v-.06h.47c23.22,0,26.38-6.48,26.55-6.87.26-1.35-.95-2.44-2.23-3.59a16.69,16.69,0,0,1-1.41-1.37,24.54,24.54,0,0,1-2.59-3.75l.81-.44a22.78,22.78,0,0,0,2.47,3.58,16.78,16.78,0,0,0,1.34,1.3c1.36,1.22,2.9,2.61,2.5,4.49v0c-.1.3-2.71,7.41-26.95,7.52v0H49.35Z"/><ellipse class="cls-3" cx="49.66" cy="80.64" rx="21.66" ry="4.96"/><path d="M49.66,86.06c-10.72,0-22.12-1.9-22.12-5.42s11.4-5.42,22.12-5.42,22.12,1.9,22.12,5.42S60.38,86.06,49.66,86.06Zm0-9.92c-12.49,0-21.2,2.37-21.2,4.5s8.71,4.5,21.2,4.5,21.2-2.37,21.2-4.5S62.15,76.14,49.66,76.14Z"/><circle class="cls-4" cx="50" cy="40.99" r="40.53"/><path d="M50,82A41,41,0,1,1,91,41,41,41,0,0,1,50,82ZM50,.92A40.08,40.08,0,1,0,90.08,41,40.12,40.12,0,0,0,50,.92Z"/><path class="cls-5" d="M76.2,25.5a11.57,11.57,0,0,1-10-5.52.44.44,0,0,0-.5-.19h0a.44.44,0,0,0-.32.43,11.59,11.59,0,0,1-5.51,10,.44.44,0,0,0-.2.49h0a.45.45,0,0,0,.43.32,11.59,11.59,0,0,1,10,5.51.45.45,0,0,0,.5.2h0a.44.44,0,0,0,.31-.43,11.6,11.6,0,0,1,5.52-10,.42.42,0,0,0,.19-.49h0A.43.43,0,0,0,76.2,25.5Z"/><path d="M70.73,37.15a.89.89,0,0,1-1-.4,11.17,11.17,0,0,0-9.57-5.29.9.9,0,0,1-.48-1.67A11.14,11.14,0,0,0,65,20.22a.91.91,0,0,1,.65-.87.9.9,0,0,1,1,.39A11.13,11.13,0,0,0,76.2,25a.92.92,0,0,1,.88.65.91.91,0,0,1-.4,1,11.15,11.15,0,0,0-5.3,9.57A.9.9,0,0,1,70.73,37.15ZM65.84,20.22a12,12,0,0,1-5.69,10.36A12,12,0,0,1,70.5,36.27,12,12,0,0,1,76.13,26,12.1,12.1,0,0,1,65.84,20.22Z"/><path class="cls-6" d="M68.43,37.7a8.41,8.41,0,0,1-7.94-2.22.32.32,0,0,0-.38-.06h0a.31.31,0,0,0-.15.36,8.37,8.37,0,0,1-2.22,7.93.32.32,0,0,0-.05.38h0a.3.3,0,0,0,.35.15A8.42,8.42,0,0,1,66,46.46a.32.32,0,0,0,.38.06h0a.34.34,0,0,0,.15-.36,8.37,8.37,0,0,1,2.22-7.93.32.32,0,0,0,0-.38h0A.3.3,0,0,0,68.43,37.7Z"/><path d="M66.52,46.81a.67.67,0,0,1-.78-.11,8.05,8.05,0,0,0-7.62-2.13.65.65,0,0,1-.61-1.09,8.1,8.1,0,0,0,2.13-7.62.65.65,0,0,1,.31-.73.67.67,0,0,1,.78.11,8,8,0,0,0,7.62,2.13A.65.65,0,0,1,69,38.46a8.08,8.08,0,0,0-2.13,7.62A.67.67,0,0,1,66.52,46.81Zm-6.26-11.1A8.67,8.67,0,0,1,58,44a8.63,8.63,0,0,1,8.23,2.28A8.66,8.66,0,0,1,68.45,38,8.71,8.71,0,0,1,60.26,35.71Z"/></svg>