<svg id="Layer_1" data-name="Layer 1" xmlns="http://www.w3.org/2000/svg" xmlns:xlink="http://www.w3.org/1999/xlink" viewBox="0 0 100 100"><defs><style>.cls-1,.cls-8{fill:#ece4d9;}.cls-2{fill:#f3c0ff;}.cls-3{fill:#86c0f7;}.cls-4{fill:url(#linear-gradient);}.cls-5{fill:#d6e7f6;}.cls-6{fill:#6bb2ed;}.cls-7{fill:url(#linear-gradient-2);}.cls-8{stroke:#000;stroke-miterlimit:10;stroke-width:2px;}.cls-9{fill:#fff0a6;}</style><linearGradient id="linear-gradient" x1="23.47" y1="39.04" x2="61.27" y2="39.04" gradientUnits="userSpaceOnUse"><stop offset="0.01" stop-color="#f3c0ff"/><stop offset="1" stop-color="#f07fff"/></linearGradient><linearGradient id="linear-gradient-2" x1="29.79" y1="40.84" x2="59.87" y2="40.84" gradientTransform="translate(47.61 -19.74) rotate(50.29)" gradientUnits="userSpaceOnUse"><stop offset="0.01" stop-color="#d6e7f6"/><stop offset="1" stop-color="#86c0f7"/></linearGradient></defs><rect class="cls-1" x="67.34" y="95.8" width="1.98" height="1.32" transform="matrix(0.28, 0.96, -0.96, 0.28, 142.15, 4.13)"/><path d="M68,98a.34.34,0,0,1-.17,0,.36.36,0,0,1-.17-.21l-.54-1.9a.35.35,0,0,1,.24-.44L68.6,95a.3.3,0,0,1,.26,0,.36.36,0,0,1,.17.21l.55,1.9a.37.37,0,0,1-.24.44l-1.27.36Zm-.11-2,.35,1.23.6-.17-.36-1.23Z"/><rect class="cls-1" x="63.01" y="96.85" width="1.98" height="1.32" transform="translate(147.36 15.93) rotate(78.9)"/><path d="M63.54,99a.36.36,0,0,1-.34-.28l-.39-2a.39.39,0,0,1,.06-.26.34.34,0,0,1,.22-.15l1.3-.26a.39.39,0,0,1,.26.06.34.34,0,0,1,.15.22l.38,2a.34.34,0,0,1-.27.41l-1.3.25Zm0-2,.25,1.26.61-.12-.25-1.26Z"/><circle class="cls-2" cx="66.27" cy="97.05" r="1.87"/><path d="M66.26,99.28A2.14,2.14,0,0,1,65.19,99a2.2,2.2,0,0,1-1.06-1.33A2.17,2.17,0,0,1,64.32,96a2.22,2.22,0,1,1,2.56,3.21h0A2.16,2.16,0,0,1,66.26,99.28Zm0-3.75a1.52,1.52,0,0,0-.42.06,1.5,1.5,0,0,0-.92.73,1.53,1.53,0,0,0,1.76,2.2h0a1.53,1.53,0,0,0,1-1.89A1.53,1.53,0,0,0,66.27,95.53Z"/><rect class="cls-1" x="71.48" y="94.26" width="1.98" height="1.32" transform="translate(131.19 -9.08) rotate(66.81)"/><path d="M72.26,96.44a.36.36,0,0,1-.33-.21l-.78-1.82a.42.42,0,0,1,0-.27.3.3,0,0,1,.19-.19l1.21-.52a.34.34,0,0,1,.46.18l.78,1.82a.36.36,0,0,1,0,.27.32.32,0,0,1-.19.19l-1.22.53Zm-.32-2,.5,1.18.57-.24-.5-1.18Z"/><circle class="cls-2" cx="70.5" cy="95.77" r="1.87"/><path d="M70.5,98a2.22,2.22,0,1,1,2-3.1,2.23,2.23,0,0,1-1.17,2.92h0A2.22,2.22,0,0,1,70.5,98Zm.74-.5Zm-.74-3.25a1.41,1.41,0,0,0-.6.13,1.5,1.5,0,1,0,.6-.13Z"/><rect class="cls-1" x="75.42" y="92.26" width="1.98" height="1.32" transform="translate(116.16 -20.63) rotate(58.72)"/><path d="M76.36,94.47a.35.35,0,0,1-.3-.17l-1-1.7a.35.35,0,0,1,.12-.48l1.13-.69a.41.41,0,0,1,.27,0,.37.37,0,0,1,.21.16l1,1.7a.3.3,0,0,1,0,.26.36.36,0,0,1-.16.22l-1.13.69A.37.37,0,0,1,76.36,94.47Zm-.55-1.93.67,1.09.53-.32-.67-1.09Z"/><circle class="cls-2" cx="74.58" cy="94.04" r="1.87"/><path d="M74.58,96.27a2.23,2.23,0,0,1-1.16-4.13,2.22,2.22,0,1,1,2.31,3.8h0A2.21,2.21,0,0,1,74.58,96.27Zm1-.63Zm-1-3.12a1.52,1.52,0,0,0-.79.22,1.54,1.54,0,0,0-.51,2.09,1.53,1.53,0,0,0,2.1.51h0a1.54,1.54,0,0,0,.51-2.09A1.53,1.53,0,0,0,74.57,92.52Z"/><rect class="cls-1" x="78.96" y="89.67" width="1.98" height="1.32" transform="translate(100.36 -28.56) rotate(51.25)"/><path d="M80.05,91.87h0a.35.35,0,0,1-.24-.12l-1.24-1.55a.35.35,0,0,1-.08-.26.38.38,0,0,1,.13-.24l1-.82a.36.36,0,0,1,.5,0l1.24,1.55a.33.33,0,0,1,.07.26.32.32,0,0,1-.13.23l-1,.83A.35.35,0,0,1,80.05,91.87ZM79.3,90l.81,1,.48-.39-.8-1Z"/><circle class="cls-2" cx="78.27" cy="91.67" r="1.87"/><path d="M78.27,93.9A2.23,2.23,0,1,1,80,90.28a2.2,2.2,0,0,1,.47,1.64,2.16,2.16,0,0,1-.82,1.49h0A2.21,2.21,0,0,1,78.27,93.9Zm0-3.75a1.49,1.49,0,0,0-1,.34,1.52,1.52,0,1,0,1.91,2.37,1.52,1.52,0,0,0,.23-2.14,1.48,1.48,0,0,0-1-.56Zm1.18,3Z"/><rect class="cls-1" x="82.31" y="86.72" width="1.98" height="1.32" transform="translate(89.44 -33.18) rotate(46.55)"/><path d="M83.5,88.91h0a.36.36,0,0,1-.25-.11l-1.36-1.44a.36.36,0,0,1,0-.5l1-.91a.38.38,0,0,1,.25-.09.33.33,0,0,1,.25.11l1.36,1.44a.34.34,0,0,1,0,.49l-1,.91A.31.31,0,0,1,83.5,88.91Zm-.87-1.78.88.93.45-.42-.88-.94Z"/><circle class="cls-2" cx="81.74" cy="88.86" r="1.87"/><path d="M81.74,91.08a2.21,2.21,0,1,1,1.53-.6h0A2.24,2.24,0,0,1,81.74,91.08Zm0-3.74a1.53,1.53,0,0,0-1.11,2.57,1.52,1.52,0,1,0,1.11-2.57ZM83,90.22Z"/><rect class="cls-1" x="85.15" y="83.5" width="1.98" height="1.32" transform="translate(63.67 -34.15) rotate(34.91)"/><path d="M86.57,85.62a.36.36,0,0,1-.2-.06l-1.63-1.14a.36.36,0,0,1-.08-.49l.75-1.08a.35.35,0,0,1,.49-.09l1.63,1.14a.35.35,0,0,1,.09.49l-.76,1.08a.3.3,0,0,1-.23.14Zm-1.14-1.57,1.06.73.35-.51-1-.73Z"/><circle class="cls-2" cx="84.91" cy="85.92" r="1.87"/><path d="M84.9,88.15a2.25,2.25,0,0,1-1.27-.4,2.21,2.21,0,0,1-.91-1.44,2.18,2.18,0,0,1,.36-1.66,2.22,2.22,0,1,1,3.65,2.54h0a2.19,2.19,0,0,1-1.43.92A2.71,2.71,0,0,1,84.9,88.15Zm0-3.75-.27,0a1.51,1.51,0,0,0-1,.63,1.53,1.53,0,0,0-.25,1.14,1.48,1.48,0,0,0,.63,1,1.52,1.52,0,0,0,2.12-.38h0a1.52,1.52,0,0,0,.25-1.14,1.54,1.54,0,0,0-.63-1A1.52,1.52,0,0,0,84.91,84.4Z"/><rect class="cls-1" x="87.42" y="79.81" width="1.98" height="1.32" transform="translate(49.09 -32.43) rotate(28.49)"/><path d="M89,81.88a.47.47,0,0,1-.17,0l-1.74-1a.35.35,0,0,1-.14-.48l.63-1.16a.35.35,0,0,1,.47-.14l1.75,1a.31.31,0,0,1,.16.21.34.34,0,0,1,0,.26l-.63,1.16A.37.37,0,0,1,89,81.88ZM87.7,80.44l1.13.61.29-.54L88,79.89Z"/><circle class="cls-2" cx="87.39" cy="82.36" r="1.87"/><path d="M87.38,84.59a2.19,2.19,0,0,1-1-.27A2.23,2.23,0,0,1,85.25,83a2.26,2.26,0,0,1,.18-1.69,2.22,2.22,0,0,1,3.91,2.12h0A2.22,2.22,0,0,1,87.38,84.59Zm0-3.75a1.67,1.67,0,0,0-.44.06,1.51,1.51,0,0,0-.9.74,1.52,1.52,0,0,0,.61,2.06,1.52,1.52,0,0,0,2.06-.61h0a1.52,1.52,0,0,0-1.33-2.25ZM89,83.26h0Z"/><rect class="cls-1" x="89.05" y="75.78" width="1.98" height="1.32" transform="translate(23.48 -21.13) rotate(15.37)"/><path d="M90.82,77.69h-.09l-1.92-.53a.35.35,0,0,1-.24-.43l.35-1.27a.35.35,0,0,1,.43-.25l1.91.53a.35.35,0,0,1,.25.43l-.35,1.27A.36.36,0,0,1,90.82,77.69Zm-1.48-1.12,1.23.34.17-.6L89.5,76Z"/><circle class="cls-2" cx="89.47" cy="78.51" r="1.87"/><path d="M89.47,80.74a2.33,2.33,0,0,1-.59-.08,2.23,2.23,0,0,1-1.56-2.74,2.22,2.22,0,1,1,2.15,2.82Zm0-3.75a1.53,1.53,0,0,0-1.33,2.28,1.56,1.56,0,0,0,.92.71A1.52,1.52,0,1,0,89.87,77,1.83,1.83,0,0,0,89.47,77Z"/><rect class="cls-1" x="58.58" y="97.09" width="1.98" height="1.32" transform="translate(158.11 39.49) rotate(90.77)"/><path d="M60.22,99.1h0l-1.33,0a.35.35,0,0,1-.34-.35l0-2a.35.35,0,0,1,.35-.34h1.33a.36.36,0,0,1,.25.11.39.39,0,0,1,.1.25l0,2a.37.37,0,0,1-.1.25A.39.39,0,0,1,60.22,99.1Zm-1-.72h.63V97.11h-.62Z"/><circle class="cls-2" cx="61.72" cy="97.78" r="1.87"/><path d="M61.72,100h0a2.23,2.23,0,0,1-1.56-.67,2.19,2.19,0,0,1-.63-1.58,2.22,2.22,0,0,1,2.22-2.2h0a2.23,2.23,0,0,1,0,4.45Zm0-.7a1.53,1.53,0,0,0,0-3h0a1.53,1.53,0,0,0,0,3Z"/><rect class="cls-1" x="54.15" y="97.03" width="1.98" height="1.32" transform="translate(153.56 43.86) rotate(90.77)"/><path d="M55.79,99h0l-1.33,0a.34.34,0,0,1-.34-.35l0-2a.35.35,0,0,1,.35-.34h1.32a.38.38,0,0,1,.25.11.39.39,0,0,1,.1.25l0,2A.35.35,0,0,1,55.79,99Zm-1-.71h.63V97.05h-.62Z"/><circle class="cls-2" cx="57.29" cy="97.72" r="1.87"/><path d="M57.29,99.94h0a2.23,2.23,0,0,1,0-4.45h0a2.23,2.23,0,0,1,0,4.45Zm0-.7h0a1.53,1.53,0,1,0-1.52-1.54,1.52,1.52,0,0,0,1.5,1.54Z"/><rect class="cls-1" x="49.72" y="96.97" width="1.98" height="1.32" transform="translate(149.01 48.23) rotate(90.77)"/><path d="M51.36,99h0L50,99a.36.36,0,0,1-.25-.1.35.35,0,0,1-.1-.25l0-2a.35.35,0,0,1,.1-.24.37.37,0,0,1,.25-.1h1.32a.36.36,0,0,1,.25.11.35.35,0,0,1,.1.25l0,2A.35.35,0,0,1,51.36,99Zm-1-.71H51V97h-.62Z"/><circle class="cls-2" cx="52.86" cy="97.66" r="1.87"/><path d="M52.86,99.88h0a2.23,2.23,0,1,1,2.26-2.19A2.23,2.23,0,0,1,52.83,99.88Zm0-.7a1.52,1.52,0,0,0,1.55-1.5,1.54,1.54,0,0,0-1.51-1.55h0a1.53,1.53,0,0,0,0,3.05Z"/><rect class="cls-1" x="45.34" y="96.54" width="1.98" height="1.32" transform="translate(150.37 69.42) rotate(100.53)"/><path d="M46.8,98.65h-.06l-1.3-.25a.34.34,0,0,1-.28-.4l.36-2a.37.37,0,0,1,.41-.29l1.3.25a.34.34,0,0,1,.28.41l-.36,2A.36.36,0,0,1,46.8,98.65Zm-.89-.87.61.11.24-1.26-.61-.11Z"/><circle class="cls-2" cx="48.45" cy="97.6" r="1.87"/><path d="M48.45,99.82a2,2,0,0,1-.41,0,2.19,2.19,0,0,1-1.43-.92,2.23,2.23,0,1,1,3.67-2.52A2.18,2.18,0,0,1,50.63,98a2.14,2.14,0,0,1-.92,1.43A2.21,2.21,0,0,1,48.45,99.82Zm0-3.75a1.53,1.53,0,0,0-.85.27,1.49,1.49,0,0,0-.64,1,1.53,1.53,0,0,0,1.22,1.78h0a1.54,1.54,0,0,0,1.14-.25,1.53,1.53,0,0,0-.58-2.75A1.43,1.43,0,0,0,48.44,96.07Z"/><rect class="cls-1" x="41.16" y="95.45" width="1.98" height="1.32" transform="translate(146.5 84.95) rotate(107.58)"/><path d="M42.48,97.61l-.1,0-1.26-.4a.34.34,0,0,1-.23-.44l.6-1.89a.34.34,0,0,1,.44-.23l1.26.4a.34.34,0,0,1,.2.17.37.37,0,0,1,0,.27l-.6,1.89A.36.36,0,0,1,42.48,97.61Zm-.82-1,.59.19.39-1.23-.59-.19Z"/><circle class="cls-2" cx="44.2" cy="96.76" r="1.87"/><path d="M44.2,99a2.22,2.22,0,1,1,.67-4.34,2.2,2.2,0,0,1,1.45,2.79A2.22,2.22,0,0,1,44.2,99Zm0-3.74a1.45,1.45,0,0,0-.7.17,1.48,1.48,0,0,0-.75.89,1.52,1.52,0,1,0,2.9.92,1.52,1.52,0,0,0-1.45-2Z"/><rect class="cls-1" x="37.06" y="93.8" width="1.98" height="1.32" transform="translate(139.77 99.4) rotate(114.72)"/><path d="M38.24,96a.4.4,0,0,1-.15,0l-1.2-.56a.34.34,0,0,1-.17-.46l.83-1.8a.37.37,0,0,1,.2-.19A.34.34,0,0,1,38,93l1.2.56a.35.35,0,0,1,.18.46l-.83,1.8a.37.37,0,0,1-.2.19Zm-.74-1.08.57.26L38.6,94,38,93.75Z"/><circle class="cls-2" cx="40" cy="95.36" r="1.87"/><path d="M40,97.58a2.2,2.2,0,0,1-.93-.2h0A2.23,2.23,0,0,1,38,94.43a2.22,2.22,0,0,1,3-1.09,2.23,2.23,0,0,1,1.09,3,2.26,2.26,0,0,1-1.25,1.16A2.36,2.36,0,0,1,40,97.58Zm-.63-.84a1.52,1.52,0,0,0,2-.74,1.53,1.53,0,0,0-.75-2,1.52,1.52,0,0,0-2,.74,1.53,1.53,0,0,0,.75,2Z"/><rect class="cls-1" x="33.18" y="91.7" width="1.98" height="1.32" transform="translate(130.31 113.69) rotate(122.81)"/><path d="M34.19,93.9a.38.38,0,0,1-.19-.05l-1.11-.72a.34.34,0,0,1-.11-.48L33.86,91a.35.35,0,0,1,.48-.11l1.11.72a.36.36,0,0,1,.16.22.34.34,0,0,1,0,.26l-1.08,1.67a.36.36,0,0,1-.22.16Zm-.63-1.17.52.34.7-1.08-.52-.34Z"/><circle class="cls-2" cx="35.98" cy="93.52" r="1.87"/><path d="M36,95.75A2.24,2.24,0,0,1,33.8,94a2.19,2.19,0,0,1,.31-1.67,2.22,2.22,0,0,1,1.4-1,2.19,2.19,0,0,1,1.67.31A2.22,2.22,0,0,1,36,95.75ZM36,92a1.24,1.24,0,0,0-.33,0,1.52,1.52,0,0,0-.5,2.76A1.52,1.52,0,1,0,36,92Z"/><rect class="cls-1" x="29.71" y="89.01" width="1.98" height="1.32" transform="translate(118.96 124.22) rotate(130.28)"/><path d="M30.57,91.2a.34.34,0,0,1-.23-.08l-1-.85a.37.37,0,0,1-.12-.24.34.34,0,0,1,.08-.26l1.28-1.51a.33.33,0,0,1,.24-.12.35.35,0,0,1,.26.08l1,.85a.37.37,0,0,1,0,.5l-1.29,1.51A.32.32,0,0,1,30.57,91.2ZM30.05,90l.48.4.83-1-.48-.4Z"/><circle class="cls-2" cx="32.34" cy="91.06" r="1.87"/><path d="M32.34,93.28a2.19,2.19,0,0,1-1.43-.52,2.24,2.24,0,1,1,1.43.52Zm0-3.74h-.13a1.53,1.53,0,0,0-.86,2.68,1.52,1.52,0,0,0,2.5-1.29,1.52,1.52,0,0,0-1.51-1.39Z"/><rect class="cls-1" x="26.44" y="85.97" width="1.98" height="1.32" transform="translate(108.11 128.48) rotate(134.99)"/><path d="M27.2,88.16a.36.36,0,0,1-.25-.11L26,87.12a.35.35,0,0,1,0-.5l1.4-1.4a.35.35,0,0,1,.5,0l.93.93a.36.36,0,0,1,0,.5l-1.4,1.4A.36.36,0,0,1,27.2,88.16Zm-.44-1.29.44.44.91-.91L27.67,86Z"/><circle class="cls-2" cx="28.96" cy="88.16" r="1.87"/><path d="M29,90.38a2.22,2.22,0,0,1-1.58-.65h0a2.23,2.23,0,1,1,3.15-3.15A2.23,2.23,0,0,1,29,90.38Zm0-3.75a1.53,1.53,0,0,0-1.08,2.6h0a1.51,1.51,0,0,0,1.08.45h0A1.52,1.52,0,0,0,30,87.08,1.48,1.48,0,0,0,29,86.63Z"/><rect class="cls-1" x="23.69" y="82.68" width="1.98" height="1.32" transform="translate(91.14 139.35) rotate(146.62)"/><path d="M24.22,84.79h-.07a.34.34,0,0,1-.22-.15l-.73-1.11a.34.34,0,0,1-.05-.26A.34.34,0,0,1,23.3,83L25,82a.33.33,0,0,1,.27,0,.31.31,0,0,1,.22.15l.73,1.1a.36.36,0,0,1-.1.49l-1.66,1.09A.33.33,0,0,1,24.22,84.79ZM24,83.43l.34.52,1.07-.71-.34-.52Z"/><circle class="cls-2" cx="25.86" cy="85.13" r="1.87"/><path d="M25.87,87.36a2.3,2.3,0,0,1-.45,0,2.23,2.23,0,0,1-1.73-2.63A2.21,2.21,0,0,1,26.31,83,2.23,2.23,0,0,1,28,85.58a2.22,2.22,0,0,1-2.17,1.78Zm0-3.75a1.47,1.47,0,0,0-.83.25,1.51,1.51,0,0,0-.66,1A1.55,1.55,0,0,0,24.59,86a1.52,1.52,0,0,0,1,.65,1.44,1.44,0,0,0,1.14-.22,1.49,1.49,0,0,0,.66-1,1.55,1.55,0,0,0-.22-1.15,1.52,1.52,0,0,0-1-.65A1.63,1.63,0,0,0,25.86,83.61Z"/><rect class="cls-1" x="21.52" y="78.93" width="1.98" height="1.32" transform="translate(78.65 140.33) rotate(153.05)"/><path d="M21.92,81a.35.35,0,0,1-.31-.19L21,79.61a.36.36,0,0,1,0-.27.34.34,0,0,1,.17-.2l1.77-.9a.36.36,0,0,1,.27,0,.34.34,0,0,1,.2.17l.6,1.18a.34.34,0,0,1-.15.47l-1.77.9A.29.29,0,0,1,21.92,81ZM21.8,79.6l.28.56,1.14-.58L22.94,79Z"/><circle class="cls-2" cx="23.48" cy="81.51" r="1.87"/><path d="M23.49,83.73a2.22,2.22,0,0,1-2-1.21h0a2.22,2.22,0,1,1,3,1A2.26,2.26,0,0,1,23.49,83.73ZM22.12,82.2A1.56,1.56,0,0,0,23,83a1.53,1.53,0,0,0,1.83-2.14,1.53,1.53,0,1,0-2.72,1.38Z"/><rect class="cls-1" x="20" y="74.86" width="1.98" height="1.32" transform="translate(59.43 143.82) rotate(166.16)"/><path d="M20.18,76.75a.36.36,0,0,1-.34-.27l-.31-1.28a.36.36,0,0,1,0-.27.33.33,0,0,1,.22-.16l1.92-.47a.36.36,0,0,1,.43.25l.31,1.29a.35.35,0,0,1-.25.42l-1.93.48Zm.11-1.38.15.6,1.25-.3-.15-.61Z"/><circle class="cls-2" cx="21.5" cy="77.6" r="1.87"/><path d="M21.5,79.83a2.23,2.23,0,1,1,2.16-2.76A2.21,2.21,0,0,1,22,79.76,2,2,0,0,1,21.5,79.83Zm0-3.75a2.21,2.21,0,0,0-.37,0,1.54,1.54,0,0,0-.94.7A1.49,1.49,0,0,0,20,78,1.52,1.52,0,1,0,23,77.24a1.47,1.47,0,0,0-.69-.94A1.56,1.56,0,0,0,21.51,76.08Z"/><rect class="cls-1" x="19.37" y="70.58" width="1.98" height="1.32" transform="translate(46.62 140.53) rotate(175.19)"/><path d="M19.43,72.34a.35.35,0,0,1-.23-.09.35.35,0,0,1-.12-.23L19,70.7a.34.34,0,0,1,.32-.38l2-.17a.34.34,0,0,1,.26.08.33.33,0,0,1,.12.24l.11,1.32a.35.35,0,0,1-.32.38l-2,.17ZM19.7,71l.05.62L21,71.5,21,70.88Z"/><circle class="cls-2" cx="20.54" cy="73.39" r="1.87"/><path d="M20.54,75.61a2.22,2.22,0,0,1-2.21-2h0a2.21,2.21,0,0,1,2-2.4,2.19,2.19,0,0,1,1.62.52,2.22,2.22,0,0,1-1.25,3.91ZM19,73.51a1.53,1.53,0,0,0,3-.25,1.46,1.46,0,0,0-.54-1A1.53,1.53,0,0,0,19,73.51Z"/><rect class="cls-1" x="19.16" y="66.16" width="1.98" height="1.32" transform="translate(39.4 133.91) rotate(-179.23)"/><path d="M21.13,67.85h0l-2,0a.35.35,0,0,1-.24-.1.31.31,0,0,1-.1-.25V66.14a.35.35,0,0,1,.36-.34l2,0a.33.33,0,0,1,.25.1.39.39,0,0,1,.1.25l0,1.32A.35.35,0,0,1,21.13,67.85Zm-1.63-.72h1.28v-.62l-1.28,0Z"/><circle class="cls-2" cx="20.12" cy="68.97" r="1.87"/><path d="M20.12,71.2h0a2.24,2.24,0,0,1-2.2-2.26h0a2.2,2.2,0,0,1,.68-1.56,2.16,2.16,0,0,1,1.58-.63,2.23,2.23,0,0,1,1.56.67A2.19,2.19,0,0,1,22.34,69a2.21,2.21,0,0,1-.67,1.57A2.25,2.25,0,0,1,20.12,71.2Zm0-3.75A1.53,1.53,0,0,0,19,70a1.51,1.51,0,0,0,2.15,0A1.48,1.48,0,0,0,21.64,69a1.52,1.52,0,0,0-1.5-1.54Z"/><rect class="cls-1" x="89.91" y="71.48" width="1.98" height="1.32" transform="translate(171.69 155.44) rotate(-172.56)"/><path d="M91.8,73.27h0l-2-.26a.36.36,0,0,1-.23-.13.35.35,0,0,1-.07-.26l.17-1.31a.35.35,0,0,1,.14-.23.3.3,0,0,1,.26-.07l2,.25a.36.36,0,0,1,.31.4L92.14,73A.34.34,0,0,1,91.8,73.27Zm-1.58-.91,1.27.17.08-.62-1.27-.16Z"/><circle class="cls-2" cx="90.62" cy="74.27" r="1.87"/><path d="M90.63,76.49h-.3a2.21,2.21,0,0,1-1.47-.85A2.24,2.24,0,0,1,88.41,74a2.21,2.21,0,0,1,.85-1.47,2.24,2.24,0,0,1,1.65-.45,2.21,2.21,0,0,1,1.47.85,2.24,2.24,0,0,1,.45,1.65A2.21,2.21,0,0,1,92,76,2.18,2.18,0,0,1,90.63,76.49Zm0-3.74a1.55,1.55,0,0,0-.93.31,1.53,1.53,0,1,0,1.13-.3Z"/><rect class="cls-1" x="90.17" y="67.06" width="1.98" height="1.32" transform="translate(181.41 136.65) rotate(-179.23)"/><path d="M92.15,68.74h0l-2,0a.34.34,0,0,1-.25-.11.39.39,0,0,1-.1-.25l0-1.32a.35.35,0,0,1,.35-.35h0l2,0a.36.36,0,0,1,.34.36V68.4A.35.35,0,0,1,92.15,68.74ZM90.52,68l1.28,0v-.62l-1.28,0Z"/><circle class="cls-2" cx="91.13" cy="69.87" r="1.87"/><path d="M91.13,72.09h0a2.22,2.22,0,0,1-2.19-2.25,2.22,2.22,0,0,1,2.25-2.2,2.22,2.22,0,0,1,1.57.68,2.2,2.2,0,0,1,.63,1.58,2.22,2.22,0,0,1-2.23,2.19Zm0-3.75a1.54,1.54,0,0,0-1.52,1.51,1.52,1.52,0,0,0,1.5,1.54A1.58,1.58,0,0,0,92.2,71a1.56,1.56,0,0,0,.46-1.07,1.52,1.52,0,0,0-1.51-1.55Z"/><rect class="cls-1" x="19.21" y="61.75" width="1.98" height="1.32" transform="translate(39.58 125.1) rotate(-179.23)"/><path d="M21.19,63.44h0l-2,0a.35.35,0,0,1-.35-.35l0-1.32a.36.36,0,0,1,.36-.35l2,0a.34.34,0,0,1,.35.35l0,1.32a.33.33,0,0,1-.11.25A.35.35,0,0,1,21.19,63.44Zm-1.63-.72h1.28v-.62H19.57Z"/><circle class="cls-2" cx="20.18" cy="64.56" r="1.87"/><path d="M20.18,66.79h0a2.25,2.25,0,0,1-1.57-.67A2.28,2.28,0,0,1,18,64.53h0A2.23,2.23,0,0,1,21.77,63a2.19,2.19,0,0,1,.63,1.58,2.25,2.25,0,0,1-.67,1.57A2.2,2.2,0,0,1,20.18,66.79Zm0-3.75a1.53,1.53,0,0,0-1.07.43,1.56,1.56,0,0,0-.46,1.07,1.54,1.54,0,0,0,1.51,1.55,1.52,1.52,0,0,0,1.54-1.51,1.51,1.51,0,0,0-.43-1.08A1.56,1.56,0,0,0,20.2,63Z"/><rect class="cls-1" x="19.27" y="57.35" width="1.98" height="1.32" transform="translate(39.75 116.28) rotate(-179.23)"/><path d="M21.25,59h0l-2,0A.41.41,0,0,1,19,58.9a.39.39,0,0,1-.1-.25l0-1.32a.35.35,0,0,1,.35-.35h0l2,0a.34.34,0,0,1,.35.35l0,1.33a.32.32,0,0,1-.11.24A.31.31,0,0,1,21.25,59Zm-1.63-.72,1.28,0V57.7H19.63Z"/><circle class="cls-2" cx="20.24" cy="60.16" r="1.87"/><path d="M20.24,62.38h0a2.25,2.25,0,0,1-1.57-.67A2.23,2.23,0,0,1,18,60.13a2.22,2.22,0,0,1,2.26-2.2,2.23,2.23,0,0,1,1.52,3.82A2.2,2.2,0,0,1,20.24,62.38Zm0-3.75a1.52,1.52,0,0,0-1.53,1.51h0a1.53,1.53,0,0,0,2.59,1.11,1.56,1.56,0,0,0,.46-1.07,1.58,1.58,0,0,0-.43-1.09,1.56,1.56,0,0,0-1.07-.46Zm-1.88,1.5h0Z"/><rect class="cls-1" x="19.33" y="52.94" width="1.98" height="1.32" transform="translate(39.93 107.47) rotate(-179.23)"/><path d="M21.31,54.62h0l-2,0a.36.36,0,0,1-.35-.36l0-1.32a.35.35,0,0,1,.35-.35h0l2,0a.36.36,0,0,1,.35.36l0,1.32a.32.32,0,0,1-.11.24A.31.31,0,0,1,21.31,54.62Zm-1.63-.72,1.28,0V53.3l-1.28,0Z"/><circle class="cls-2" cx="20.3" cy="55.75" r="1.87"/><path d="M20.3,58h0a2.22,2.22,0,0,1-2.2-2.25h0a2.23,2.23,0,1,1,3.78,1.62A2.2,2.2,0,0,1,20.3,58Zm0-3.75a1.53,1.53,0,0,0-1.53,1.51,1.55,1.55,0,0,0,.43,1.08,1.52,1.52,0,0,0,1.07.46,1.56,1.56,0,0,0,1.09-.43,1.53,1.53,0,0,0-1-2.62Z"/><rect class="cls-1" x="19.39" y="48.53" width="1.98" height="1.32" transform="translate(40.11 98.65) rotate(-179.23)"/><path d="M21.37,50.22h0l-2,0a.35.35,0,0,1-.35-.36l0-1.32a.36.36,0,0,1,.11-.25.32.32,0,0,1,.24-.09l2,0a.34.34,0,0,1,.34.36v1.32a.36.36,0,0,1-.11.25A.35.35,0,0,1,21.37,50.22Zm-1.63-.73,1.28,0v-.62l-1.28,0Z"/><circle class="cls-2" cx="20.35" cy="51.34" r="1.87"/><path d="M20.36,53.56h0a2.17,2.17,0,0,1-1.56-.67,2.21,2.21,0,0,1-.63-1.58h0a2.22,2.22,0,0,1,2.22-2.19h0a2.22,2.22,0,0,1,0,4.44Zm0-3.74a1.52,1.52,0,0,0,0,3,1.61,1.61,0,0,0,1.09-.43,1.52,1.52,0,0,0-1.05-2.61Z"/><rect class="cls-1" x="19.45" y="44.12" width="1.98" height="1.32" transform="translate(40.28 89.83) rotate(-179.23)"/><path d="M21.43,45.81h0l-2,0a.35.35,0,0,1-.35-.35l0-1.33a.35.35,0,0,1,.1-.24.33.33,0,0,1,.25-.1l2,0a.35.35,0,0,1,.34.36v1.32a.41.41,0,0,1-.11.25A.37.37,0,0,1,21.43,45.81Zm-1.63-.73,1.28,0v-.62l-1.29,0Z"/><circle class="cls-2" cx="20.41" cy="46.93" r="1.87"/><path d="M20.41,49.16h0a2.24,2.24,0,0,1-2.19-2.26,2.23,2.23,0,0,1,2.22-2.19h0a2.23,2.23,0,0,1,0,4.45Zm0-3.75a1.52,1.52,0,0,0-1.52,1.5h0A1.49,1.49,0,0,0,19.32,48a1.48,1.48,0,0,0,1.07.46,1.52,1.52,0,1,0,0-3Zm-1.87,1.5Z"/><rect class="cls-1" x="19.51" y="39.71" width="1.98" height="1.32" transform="translate(40.46 81.02) rotate(-179.23)"/><path d="M21.48,41.4h0l-2,0a.35.35,0,0,1-.35-.35l0-1.33a.34.34,0,0,1,.35-.34l2,0a.35.35,0,0,1,.34.35l0,1.32a.32.32,0,0,1-.1.25A.37.37,0,0,1,21.48,41.4Zm-1.62-.72h1.28v-.62H19.86Z"/><circle class="cls-1" cx="20.47" cy="42.52" r="1.87"/><path d="M20.47,44.75h0a2.2,2.2,0,0,1-1.56-.68,2.16,2.16,0,0,1-.63-1.58,2.22,2.22,0,0,1,2.22-2.19h0a2.23,2.23,0,0,1,0,4.45ZM18.6,42.5H19A1.53,1.53,0,1,0,20.49,41h0A1.52,1.52,0,0,0,19,42.5Z"/><path class="cls-3" d="M6.45,30.78c2.25,1.58,11.47,8.51,16.91,19.45,0-.09,0-.17,0-.25.35-5.59,3.59-12.83,9.16-19.43S44.77,19.49,50.24,18.23C39.23,15.29,29,6.55,27.34,5.08v0c-4.42-.66-10.68,2.58-15.56,8.46-5,6-7,13-5.32,17.22"/><path class="cls-4" d="M61.27,21.94,58.4,19.52c-5.3-4.47-16.82.47-25.74,11S20.81,53.31,26.11,57.78L29,60.2"/><path d="M28.76,60.47,25.88,58c-5.44-4.58-2.51-17,6.51-27.71A40.8,40.8,0,0,1,46.75,19.07c5-2.14,9.2-2.07,11.87.18l2.88,2.43-.45.53-2.88-2.43c-2.46-2.07-6.41-2.09-11.15-.06s-9.81,6-14.09,11.06c-8.78,10.4-11.74,22.39-6.6,26.73l2.88,2.43Z"/><ellipse class="cls-5" cx="44.99" cy="40.98" rx="25.03" ry="12.55" transform="translate(-15.28 49.41) rotate(-50.29)"/><path d="M33.89,62.18a7.8,7.8,0,0,1-5.11-1.67c-2.69-2.23-3.49-6.37-2.26-11.66a40.73,40.73,0,0,1,8.55-16.11c4.3-5.18,9.37-9.22,14.26-11.37s9.19-2.15,11.88.09,3.49,6.37,2.26,11.65S59.22,44,54.92,49.22C48.2,57.31,39.92,62.18,33.89,62.18ZM56.05,20.46A16.28,16.28,0,0,0,49.62,22c-4.8,2.1-9.77,6.07-14,11.17S28.38,43.91,27.2,49s-.45,8.91,2,11c5.18,4.3,16.46-.72,25.16-11.19A40.23,40.23,0,0,0,62.79,33c1.16-5,.44-8.91-2-11A7.19,7.19,0,0,0,56.05,20.46Z"/><path class="cls-6" d="M6.88,33.69,3.12,30.41C-1.27,26.7.57,17.3,7.23,9.41s15.61-11.28,20-7.58L30.7,5.07"/><path d="M6.65,34,2.89,30.67C-1.64,26.85.19,17.21,7,9.19s16-11.45,20.5-7.62l3.48,3.25-.48.51L27,2.09c-4.22-3.56-13-.18-19.5,7.55S-.89,26.57,3.34,30.14l3.77,3.29Z"/><ellipse class="cls-7" cx="44.83" cy="40.84" rx="20.47" ry="9.66" transform="translate(-15.23 49.23) rotate(-50.29)"/><path d="M35.36,58.11a5.84,5.84,0,0,1-3.83-1.25c-2.1-1.74-2.64-5.06-1.54-9.33a35.08,35.08,0,0,1,7.14-13.08c7.33-8.83,16.75-13.15,21-9.62s1.73,13.58-5.61,22.41A35.16,35.16,0,0,1,41,56.66,13.6,13.6,0,0,1,35.36,58.11ZM54.27,24.26c-4.54,0-11.13,4-16.6,10.64a34.35,34.35,0,0,0-7,12.8c-1,4-.57,7.06,1.3,8.62s5,1.45,8.72-.3A34.52,34.52,0,0,0,52,46.79c7.08-8.53,9.64-18.14,5.69-21.42A5.2,5.2,0,0,0,54.27,24.26Z"/><path class="cls-8" d="M11,34.34a5.79,5.79,0,0,1-2.88-1.26C4,29.67,5.65,20.93,11.77,13.56S26.19,3,30.29,6.37A5.82,5.82,0,0,1,32,8.81"/><path class="cls-3" d="M12.31,35.63a5.31,5.31,0,0,1-1.53,0,7.26,7.26,0,0,1-3.49-1.54c-2.36-2-3.22-5.33-2.44-9.5a27,27,0,0,1,5.94-11.83,27,27,0,0,1,10.54-8c4-1.53,7.42-1.3,9.78.66a7.16,7.16,0,0,1,2.09,3A5.46,5.46,0,0,1,33.46,10"/><path d="M11.66,36a5.14,5.14,0,0,1-.94-.08,7.49,7.49,0,0,1-3.65-1.61C4.61,32.29,3.7,28.8,4.5,24.51a27.26,27.26,0,0,1,6-12A27.35,27.35,0,0,1,21.2,4.4c4.07-1.58,7.67-1.32,10.13.72a7.4,7.4,0,0,1,2.19,3.1A5.56,5.56,0,0,1,33.81,10h-.7a5.29,5.29,0,0,0-.24-1.56,6.77,6.77,0,0,0-2-2.8c-2.25-1.88-5.6-2.09-9.43-.61A26.78,26.78,0,0,0,11.06,13,26.73,26.73,0,0,0,5.19,24.64c-.75,4,.07,7.28,2.33,9.16a6.79,6.79,0,0,0,3.32,1.46,5,5,0,0,0,1.41,0l.12.69A4.34,4.34,0,0,1,11.66,36Z"/><path class="cls-3" d="M11,34.34a5.79,5.79,0,0,1-2.88-1.26C4,29.67,5.65,20.93,11.77,13.56S26.19,3,30.29,6.37A5.82,5.82,0,0,1,32,8.81.52.52,0,0,1,32,9"/><path d="M15.68,39.42c-1.61-2.6.23-11.8,5.56-18.23C26.4,15,35.2,11.47,38,12.56l-.25.65c-2.56-1-11.07,2.53-16,8.43s-6.94,15.09-5.5,17.41Z"/><path d="M17.19,41.17c-1.58-2.54.41-12,5.77-18.48s14.14-10,16.92-8.88l-.25.65c-2.54-1-11.14,2.65-16.14,8.68s-7.15,15.34-5.7,17.66Z"/><path d="M50.13,18.5C37.79,15.2,28.88,7,27.21,5.35l.49-.5c1.64,1.59,10.44,9.71,22.61,13Z"/><path d="M23.23,50.49C18,39.81,8.87,32.85,6.21,31l.41-.57c2.69,1.9,11.89,9,17.23,19.77Z"/><path class="cls-3" d="M82.63,76.43,80,74.89a1.21,1.21,0,0,1-.54-1.08l.18-13.88A7.14,7.14,0,0,1,80,58a1.59,1.59,0,0,1-.57-.18,2.67,2.67,0,0,1-.4-.13,5.24,5.24,0,0,1-2.95-4,.68.68,0,0,0,.45-.67,1,1,0,0,0-.43-.81,3.82,3.82,0,0,1,2.12-2.89l.1-.05a2.07,2.07,0,0,0,1.18-1,4.65,4.65,0,0,0,.45-1.64.41.41,0,0,1,.55-.37l1.09.33a.75.75,0,0,0,.89-.26,2.68,2.68,0,0,1,3.87-.46l1.38.82"/><path d="M82.63,76.92a.43.43,0,0,1-.25-.07l-2.6-1.54A1.7,1.7,0,0,1,79,73.8l.18-13.88a7.49,7.49,0,0,1,.19-1.57l-.16-.07a2.93,2.93,0,0,1-.42-.14,5.7,5.7,0,0,1-3.23-4.42.48.48,0,0,1,.31-.52A.26.26,0,0,0,76,53a.5.5,0,0,0-.22-.39.5.5,0,0,1-.21-.49A4.27,4.27,0,0,1,78,48.84l.1-.05A1.59,1.59,0,0,0,79,48a4.07,4.07,0,0,0,.39-1.47.9.9,0,0,1,1.19-.77l1.08.33A.29.29,0,0,0,82,46a3.16,3.16,0,0,1,4.54-.58l1.36.8a.5.5,0,0,1,.18.67.49.49,0,0,1-.67.17l-1.39-.82a2.22,2.22,0,0,0-3.23.33A1.26,1.26,0,0,1,81.4,47l-1-.31a4.9,4.9,0,0,1-.5,1.75,2.56,2.56,0,0,1-1.41,1.22l-.1,0A3.32,3.32,0,0,0,76.6,52,1.46,1.46,0,0,1,77,53a1.19,1.19,0,0,1-.4.91,4.73,4.73,0,0,0,2.61,3.36l.32.1.11,0h0a1.23,1.23,0,0,0,.4.12.47.47,0,0,1,.35.21.5.5,0,0,1,.06.41,6.74,6.74,0,0,0-.27,1.79L80,73.81a.76.76,0,0,0,.31.66L82.88,76a.5.5,0,0,1,.17.67A.49.49,0,0,1,82.63,76.92Z"/><line class="cls-1" x1="79.96" y1="58" x2="82.83" y2="59.41"/><path d="M82.83,59.9a.54.54,0,0,1-.21,0l-2.87-1.41a.49.49,0,1,1,.43-.87L83.05,59a.49.49,0,0,1,.22.66A.49.49,0,0,1,82.83,59.9Z"/><path class="cls-9" d="M99.11,64.83v-.22h0c0-.15,0-.29,0-.43a9.57,9.57,0,0,0-.25-1.62,3.89,3.89,0,0,0-2.32-2.8,1.5,1.5,0,0,1-.83-.51,3.23,3.23,0,0,1-.47-1.19,11.11,11.11,0,0,0-3.39-5.71,1.33,1.33,0,0,1-.42-.94,5.39,5.39,0,0,0-2.22-4.16,2.66,2.66,0,0,0-3.86.46.79.79,0,0,1-.9.26l-1.08-.33a.4.4,0,0,0-.55.36,4.64,4.64,0,0,1-.45,1.65,2.07,2.07,0,0,1-1.18,1l-.1,0a3.82,3.82,0,0,0-2.12,2.89,1,1,0,0,1,.43.8.7.7,0,0,1-.45.68,5.24,5.24,0,0,0,3,4,2.71,2.71,0,0,0,.39.13,1.68,1.68,0,0,0,.58.18,7.13,7.13,0,0,0-.29,1.92L82.34,76a.43.43,0,0,0,.6.44l4.52-1.51a.71.71,0,0,0,.4-.4h0a.88.88,0,0,0,.07-.23s0-.07,0-.11c.15-.58.45-1.63.9-1.73a4.09,4.09,0,0,0,.56-.13l6.32-1.79a2.43,2.43,0,0,0,.38-.13s.49.07.78.84c0,.09.06.19.08.28s.15.23.26.19l1.55-.52A.33.33,0,0,0,99,71a.87.87,0,0,0,.07-.31Z"/><path d="M82.76,76.92a.84.84,0,0,1-.53-.17.92.92,0,0,1-.37-.79l.19-14.63a7.49,7.49,0,0,1,.19-1.57l-.16-.07a3.15,3.15,0,0,1-.42-.15,5.67,5.67,0,0,1-3.23-4.41.5.5,0,0,1,.31-.53c.12,0,.13-.18.14-.22a.47.47,0,0,0-.22-.39.5.5,0,0,1-.21-.49,4.31,4.31,0,0,1,2.39-3.26l.1,0a1.62,1.62,0,0,0,1-.79,4.13,4.13,0,0,0,.39-1.47.93.93,0,0,1,.4-.68,1,1,0,0,1,.79-.1l1.08.33c.16,0,.28,0,.35-.07a3.15,3.15,0,0,1,4.54-.59,5.92,5.92,0,0,1,2.43,4.55.87.87,0,0,0,.25.59,11.52,11.52,0,0,1,3.54,6,3,3,0,0,0,.39,1,1,1,0,0,0,.58.35,4.33,4.33,0,0,1,2.65,3.13,10.62,10.62,0,0,1,.27,1.7c0,.14,0,.3,0,.47h0v.24h0l-.08,5.85a1.19,1.19,0,0,1-.13.53.85.85,0,0,1-.46.42l-1.54.52a.65.65,0,0,1-.53-.05.77.77,0,0,1-.36-.49,1.55,1.55,0,0,0-.07-.23,1.14,1.14,0,0,0-.32-.49l-.24.08-6.33,1.79a4.76,4.76,0,0,1-.57.13,3.05,3.05,0,0,0-.54,1.36v.07a1.36,1.36,0,0,1-.11.38h0a1.24,1.24,0,0,1-.7.65l-4.52,1.51A1,1,0,0,1,82.76,76.92ZM82.49,58.8a1.4,1.4,0,0,0,.4.13.47.47,0,0,1,.35.21.49.49,0,0,1,.06.41A6.74,6.74,0,0,0,83,61.34l-.2,14.58,4.47-1.49s.08-.05.12-.14h0a.19.19,0,0,0,0-.09v-.09s0-.06,0-.08c.34-1.34.71-2,1.26-2.09a3.92,3.92,0,0,0,.54-.12L95.6,70l.32-.11a.46.46,0,0,1,.26,0c.08,0,.78.14,1.16,1.16l0,.08,1.17-.39a.13.13,0,0,1,0-.06l.07-5.85V64.6c0-.15,0-.26,0-.37a9.73,9.73,0,0,0-.24-1.55,3.42,3.42,0,0,0-2-2.46,1.89,1.89,0,0,1-1.06-.69,3.54,3.54,0,0,1-.57-1.36,10.54,10.54,0,0,0-3.23-5.46,1.84,1.84,0,0,1-.59-1.29,5,5,0,0,0-2-3.78,2.2,2.2,0,0,0-3.2.35,1.26,1.26,0,0,1-1.43.44l-1-.31a4.68,4.68,0,0,1-.49,1.75,2.54,2.54,0,0,1-1.41,1.21l-.1.05a3.29,3.29,0,0,0-1.78,2.27,1.46,1.46,0,0,1,.38,1,1.21,1.21,0,0,1-.4.91,4.7,4.7,0,0,0,2.61,3.35l.32.11.11,0ZM97.08,71.22Zm2-6.39h0Z"/><line class="cls-1" x1="76.04" y1="53.65" x2="78.91" y2="55.06"/><path d="M78.91,55.55a.5.5,0,0,1-.21,0l-2.87-1.41a.48.48,0,0,1-.23-.65.49.49,0,0,1,.66-.22l2.87,1.4a.49.49,0,0,1,.22.66A.5.5,0,0,1,78.91,55.55Z"/><line class="cls-1" x1="76.06" y1="52.17" x2="78.93" y2="53.58"/><path d="M78.93,54.07a.5.5,0,0,1-.21,0l-2.87-1.41a.48.48,0,0,1-.23-.65.49.49,0,0,1,.66-.22l2.86,1.4a.49.49,0,0,1,.23.66A.5.5,0,0,1,78.93,54.07Z"/><line class="cls-1" x1="80.11" y1="46.25" x2="82.96" y2="47.67"/><path d="M83,48.16a.42.42,0,0,1-.22,0l-2.85-1.42a.49.49,0,1,1,.44-.87l2.84,1.42a.49.49,0,0,1-.21.92Z"/></svg>