<svg id="Layer_1" data-name="Layer 1" xmlns="http://www.w3.org/2000/svg" xmlns:xlink="http://www.w3.org/1999/xlink" viewBox="0 0 100 100"><defs><style>.cls-1{fill:#86c0f7;}.cls-2{fill:url(#linear-gradient);}.cls-3{fill:url(#linear-gradient-2);}.cls-4{fill:url(#linear-gradient-3);}.cls-5{fill:url(#linear-gradient-4);}.cls-6{fill:url(#linear-gradient-5);}.cls-7{fill:url(#linear-gradient-6);}.cls-8{fill:url(#linear-gradient-7);}.cls-9{fill:#e9b0f7;}.cls-10{fill:#fff;}.cls-11{fill:#2b2928;}.cls-12{fill:#fff0a6;}.cls-13{fill:#f9deff;}</style><linearGradient id="linear-gradient" x1="31.89" y1="69.77" x2="58.62" y2="96.5" gradientUnits="userSpaceOnUse"><stop offset="0" stop-color="#b1d9f7"/><stop offset="0.26" stop-color="#abd3f8"/><stop offset="0.6" stop-color="#99c2fb"/><stop offset="1" stop-color="#7da6ff"/></linearGradient><linearGradient id="linear-gradient-2" x1="15.92" y1="69.77" x2="42.66" y2="96.5" gradientUnits="userSpaceOnUse"><stop offset="0" stop-color="#b1d9f7"/><stop offset="0.33" stop-color="#aed6f7"/><stop offset="0.58" stop-color="#a5cdf9"/><stop offset="0.79" stop-color="#95bdfb"/><stop offset="0.99" stop-color="#7fa8ff"/><stop offset="1" stop-color="#7da6ff"/></linearGradient><linearGradient id="linear-gradient-3" x1="11.8" y1="19.48" x2="59.27" y2="66.94" gradientUnits="userSpaceOnUse"><stop offset="0.01" stop-color="#d6e7f6"/><stop offset="0.23" stop-color="#d2e5f6"/><stop offset="0.45" stop-color="#c6dff6"/><stop offset="0.68" stop-color="#b1d5f6"/><stop offset="0.9" stop-color="#95c7f7"/><stop offset="1" stop-color="#86c0f7"/></linearGradient><linearGradient id="linear-gradient-4" x1="33.49" y1="1.89" x2="59.52" y2="27.92" gradientUnits="userSpaceOnUse"><stop offset="0.01" stop-color="#d6e7f6"/><stop offset="1" stop-color="#86c0f7"/></linearGradient><linearGradient id="linear-gradient-5" x1="31.85" y1="15.44" x2="34.84" y2="15.44" xlink:href="#linear-gradient-4"/><linearGradient id="linear-gradient-6" x1="-2.17" y1="33.69" x2="31.5" y2="67.35" gradientUnits="userSpaceOnUse"><stop offset="0.01" stop-color="#d6e7f6"/><stop offset="0.46" stop-color="#d4e6f6"/><stop offset="0.63" stop-color="#cde3f6"/><stop offset="0.75" stop-color="#c1ddf6"/><stop offset="0.85" stop-color="#b0d4f6"/><stop offset="0.94" stop-color="#9acaf7"/><stop offset="1" stop-color="#86c0f7"/></linearGradient><linearGradient id="linear-gradient-7" x1="6.2" y1="73.64" x2="26.61" y2="94.05" gradientUnits="userSpaceOnUse"><stop offset="0.01" stop-color="#d6e7f6"/><stop offset="0.26" stop-color="#d3e5f6"/><stop offset="0.47" stop-color="#c8e0f6"/><stop offset="0.67" stop-color="#b7d8f6"/><stop offset="0.85" stop-color="#9fccf7"/><stop offset="1" stop-color="#86c0f7"/></linearGradient></defs><path class="cls-1" d="M56.24,77.45l0,0c-.12.21-2.12,3.6-3,5.49s-2.19,4.38,0,5.47,3.45.49,4.62-1.46c.7-1.15,1.1-1.88,1.31-2.28a.14.14,0,0,1,.27,0,10.53,10.53,0,0,1-.75,5.43,11,11,0,0,1-2.17,3.62.15.15,0,0,0,0,.18c.38.74,2.84,5,6.11,2.08a.13.13,0,0,1,.2,0c.38.43,1.82,1.93,3.53,1.5,1.33-.33,1.76-.68,1.89-.88a.14.14,0,0,1,.21,0,3.77,3.77,0,0,0,4.46.38c2.6-1.54,5.58-9.49,5.44-12.6A40.34,40.34,0,0,0,75,71.86a.14.14,0,0,0-.12-.09C73.76,71.68,61.71,70.85,56.24,77.45Z"/><path d="M65.71,97.88a4.4,4.4,0,0,1-3-1.6,3.38,3.38,0,0,1-2.87,1c-1.91-.34-3.19-2.53-3.54-3.19a.38.38,0,0,1,.08-.46,10.51,10.51,0,0,0,2.11-3.55,10.27,10.27,0,0,0,.77-5c-.23.44-.61,1.1-1.18,2-1.32,2.19-2.75,2.64-4.93,1.55s-1.15-3.52-.27-5.43l.16-.35c.88-1.91,2.92-5.37,3-5.51l0,0h0c5.52-6.66,17.5-5.87,18.85-5.76a.35.35,0,0,1,.31.22,40.5,40.5,0,0,1,3.34,12.67c.14,3.15-2.81,11.19-5.55,12.81a4,4,0,0,1-4.66-.34,4,4,0,0,1-2,.89A2.71,2.71,0,0,1,65.71,97.88Zm-3-2.11h0a.41.41,0,0,1,.26.13c.38.44,1.72,1.83,3.29,1.44,1.33-.33,1.67-.66,1.76-.79a.4.4,0,0,1,.26-.16.38.38,0,0,1,.29.09,3.53,3.53,0,0,0,4.19.35c2.58-1.52,5.45-9.4,5.32-12.38A40.57,40.57,0,0,0,74.82,72c-1.56-.12-13.09-.79-18.4,5.59-.13.23-2.11,3.6-3,5.46l-.16.35c-1.06,2.28-1.67,4,.05,4.82,2,1,3.13.61,4.32-1.37.69-1.14,1.09-1.87,1.3-2.27a.38.38,0,0,1,.71.13,10.69,10.69,0,0,1-.77,5.55,11.47,11.47,0,0,1-2.17,3.66c.29.55,1.5,2.59,3.17,2.89a3,3,0,0,0,2.54-.94A.4.4,0,0,1,62.7,95.77Z"/><path class="cls-2" d="M35.86,65.8V94s-.8,3.79,1.66,4.1H56.77s1.08,0,1.43-2.16-.39-3.25-1.65-3.72-3.27-.79-4.8-2.36-.61-24-.61-24Z"/><path d="M37.52,98.29h0a2,2,0,0,1-1.43-.84c-.86-1.2-.49-3.26-.44-3.52V65.8a.24.24,0,0,1,.24-.24H51.14a.28.28,0,0,1,.17.07.28.28,0,0,1,.06.18c-.37,9-.53,22.73.55,23.83a8.46,8.46,0,0,0,3.79,2c.33.1.64.19.92.3,1.06.4,2.23,1.41,1.8,4-.38,2.28-1.6,2.36-1.65,2.36Zm0-.47H56.77s.88-.1,1.2-2-.2-3-1.51-3.47c-.26-.1-.57-.2-.89-.3a8.67,8.67,0,0,1-4-2.12c-1.51-1.55-.82-20.72-.69-23.94H36.09V94s-.43,2.09.35,3.18A1.56,1.56,0,0,0,37.54,97.82ZM35.86,94Z"/><path d="M48.16,98.29a.27.27,0,0,1-.21-.12.23.23,0,0,1,.1-.32,1.08,1.08,0,0,1,.48-.11c.37,0,.84,0,1.17-2.3a3.17,3.17,0,0,0-2.37-3.63.24.24,0,0,1,.11-.46,3.7,3.7,0,0,1,2.73,4.16c-.36,2.44-1,2.67-1.62,2.7a.74.74,0,0,0-.28.05A.2.2,0,0,1,48.16,98.29Z"/><path d="M52.93,98.29a.27.27,0,0,1-.21-.12.23.23,0,0,1,.1-.32,1.07,1.07,0,0,1,.47-.11c.38,0,.85,0,1.18-2.3a3.17,3.17,0,0,0-2.37-3.63.24.24,0,0,1,.11-.46,3.7,3.7,0,0,1,2.73,4.16c-.36,2.44-.95,2.67-1.62,2.7a.74.74,0,0,0-.28.05A.2.2,0,0,1,52.93,98.29Z"/><path class="cls-3" d="M19.89,65.8V94s-.79,3.79,1.67,4.1H40.8s1.08,0,1.44-2.16-.4-3.25-1.66-3.72-3.26-.79-4.8-2.36-.61-24-.61-24Z"/><path d="M21.56,98.29h0a2,2,0,0,1-1.44-.84c-.85-1.2-.48-3.26-.43-3.52V65.8a.24.24,0,0,1,.23-.24H35.17a.24.24,0,0,1,.24.25c-.37,9-.53,22.73.54,23.83a8.52,8.52,0,0,0,3.79,2c.33.1.65.19.93.3,1.06.4,2.23,1.41,1.8,4-.38,2.28-1.61,2.36-1.66,2.36Zm0-.47H40.8s.89-.1,1.2-2-.2-3-1.5-3.47q-.41-.15-.9-.3a8.64,8.64,0,0,1-4-2.12C34.1,88.42,34.8,69.25,34.93,66H20.13V94a.07.07,0,0,1,0,0s-.42,2.09.36,3.18A1.56,1.56,0,0,0,21.57,97.82ZM19.89,94h0Z"/><path d="M32.2,98.29a.24.24,0,0,1-.21-.12.24.24,0,0,1,.09-.32,1.08,1.08,0,0,1,.48-.11c.38,0,.85,0,1.18-2.3a3.17,3.17,0,0,0-2.38-3.63.24.24,0,0,1-.17-.29.25.25,0,0,1,.29-.17,3.69,3.69,0,0,1,2.72,4.16c-.35,2.44-.94,2.67-1.61,2.7a.7.7,0,0,0-.28.05Z"/><path d="M37,98.29a.24.24,0,0,1-.11-.44,1.08,1.08,0,0,1,.48-.11c.38,0,.85,0,1.18-2.3a3.17,3.17,0,0,0-2.38-3.63.24.24,0,0,1,.12-.46A3.7,3.7,0,0,1,39,95.51c-.35,2.44-.94,2.67-1.61,2.7a.67.67,0,0,0-.28.05A.27.27,0,0,1,37,98.29Z"/><path class="cls-1" d="M55.66,69.69a25.38,25.38,0,0,1,.54,5.14c-.18,1.49-.36,2.09,0,2.63,0,0,4.22-6,18.74-5.68,0,0-3-16.67-16.8-43.69L51.68,29,48.55,50.08Z"/><path d="M56.23,77.69A.22.22,0,0,1,56,77.6c-.38-.52-.3-1.08-.16-2.08,0-.22.06-.45.09-.72a25.76,25.76,0,0,0-.53-5L48.33,50.16a.25.25,0,0,1,0-.12L51.45,29a.22.22,0,0,1,.2-.19l6.49-.93a.23.23,0,0,1,.24.13c13.71,26.73,16.8,43.58,16.83,43.75a.22.22,0,0,1-.06.19A.23.23,0,0,1,75,72c-14.21-.29-18.51,5.53-18.55,5.58A.19.19,0,0,1,56.23,77.69ZM48.79,50.05l7.09,19.56a0,0,0,0,1,0,0,24.65,24.65,0,0,1,.54,5.22q0,.39-.09.72A4.14,4.14,0,0,0,56.28,77c1.07-1.23,5.83-5.69,18.41-5.49-.46-2.3-4-18.49-16.65-43.19l-6.15.88Z"/><path class="cls-4" d="M55.79,30.79a16.51,16.51,0,0,1,0,4.93c-.38,3.15-1.31,7.16-1.27,8.41s2.06,9.06,2.45,13.3S60.28,79.75,35,76.6c0,0-8.44-4.67-9.76-4.06,0,0-15-6.23-18.56-19.83s4.08-34,11-38.9S29.24,3.4,32.3,3.57,54,9.68,55.79,30.79Z"/><path d="M40.48,77.2A45.55,45.55,0,0,1,35,76.84l-.09,0c-3.22-1.78-8.66-4.46-9.54-4.06a.25.25,0,0,1-.19,0c-.15-.07-15.17-6.43-18.7-20C4.83,46.58,5.41,38.25,8,29.92c2.39-7.59,6-13.84,9.52-16.3,2.57-1.81,4.8-3.7,6.78-5.37,3.46-2.92,6-5,8-4.92C34,3.43,39.45,5,44.69,9.14A29.84,29.84,0,0,1,56,30.75a16.67,16.67,0,0,1,0,5c-.17,1.45-.46,3.08-.72,4.52a27.56,27.56,0,0,0-.55,3.86c0,.48.36,2.08.76,3.94a93.34,93.34,0,0,1,1.69,9.35c0,.17,0,.37.06.58.32,3.09,1.06,10.33-3.71,15C50.69,75.79,46.3,77.2,40.48,77.2Zm-5.42-.82c8.46,1,14.57-.21,18.16-3.72,4.61-4.51,3.89-11.59,3.57-14.62,0-.22,0-.41,0-.59-.24-2.54-1.08-6.44-1.69-9.29-.42-2-.75-3.51-.77-4a28.27,28.27,0,0,1,.56-4c.26-1.44.55-3.06.72-4.49a16.56,16.56,0,0,0,0-4.85v0A29.39,29.39,0,0,0,44.4,9.51c-5.16-4-10.47-5.61-12.11-5.71-1.84-.1-4.41,2.07-7.66,4.81-2,1.67-4.23,3.57-6.81,5.39-3.4,2.41-7,8.56-9.34,16.07C5.88,38.31,5.31,46.54,6.9,52.65c3.33,12.83,17.16,19.12,18.34,19.64C26.83,71.89,33.58,75.56,35.06,76.38Z"/><path class="cls-5" d="M32.3,3.57A55,55,0,0,1,42.37,2.12c5.22-.21,14-.38,14.76.47s.11,2.82,0,3.19a22.82,22.82,0,0,0,0,13.66,8.56,8.56,0,0,1,1.38,7.43c-1.27,4.19-1.74,3.68-2.28,3.79s-15.54.46-17.68-.88S30.23,20,29.91,13.34C29.61,7.13,29.8,4.42,32.3,3.57Z"/><path d="M50.59,31c-4.7,0-10.76-.21-12.11-1.06C36.42,28.7,30,20.2,29.68,13.36c-.3-6.12-.14-9.1,2.55-10h0A55.8,55.8,0,0,1,42.36,1.88c5.23-.2,14.11-.41,15,.56.53.61.55,1.78,0,3.39l0,.07a22.49,22.49,0,0,0,0,13.43,8.68,8.68,0,0,1,1.4,7.61c-1.09,3.58-1.62,3.88-2.3,3.93l-.16,0C56,31,53.59,31,50.59,31ZM32.37,3.79c-2.26.78-2.54,3.07-2.23,9.54.33,6.7,6.58,15,8.59,16.26s16.75,1,17.5.84l.22,0c.36,0,.82-.07,1.89-3.6A8.37,8.37,0,0,0,57,19.59a.25.25,0,0,1,0-.07,23,23,0,0,1-.07-13.76l0-.07c.44-1.42.46-2.47,0-2.94S50.61,2,42.38,2.35A55.87,55.87,0,0,0,32.37,3.79Z"/><path class="cls-1" d="M33.89,11.3a12.29,12.29,0,0,0-3.34.42c-.79.41-.73,6.75-.26,7.37s3.28.53,3.28.53Z"/><path d="M33.08,19.86c-.89,0-2.55-.07-3-.62s-.52-5.15-.14-6.82c.12-.52.27-.8.48-.91a12,12,0,0,1,3.43-.44.22.22,0,0,1,.17.07.23.23,0,0,1,.07.17l-.31,8.32a.25.25,0,0,1-.23.23Zm.56-8.32a10.3,10.3,0,0,0-3,.39s-.15.1-.28.84c-.36,2-.19,5.8.1,6.18s1.76.46,2.87.44Z"/><path class="cls-6" d="M34.52,11.31s-1.65-.21-2.24.34-.51,5.09-.18,6.63,1.73,1.33,2.69,1.33C34.79,19.61,35,12.58,34.52,11.31Z"/><path d="M34.12,19.86c-.87,0-1.95-.15-2.25-1.53s-.47-6.18.25-6.85,2.25-.43,2.43-.41a.24.24,0,0,1,.19.15c.51,1.31.29,8.11.29,8.4a.24.24,0,0,1-.24.23h-.67Zm-.29-8.36a2.28,2.28,0,0,0-1.38.32c-.47.43-.48,4.74-.12,6.41.24,1.11,1,1.18,2.13,1.15h.1c.06-2,.12-6.63-.22-7.86Z"/><path class="cls-7" d="M14.64,16.89S2.78,28.85.78,44.16,2.87,77,2.87,77s8.8-9,22.74-3.74c0,0,.49-.24-1-1.67-2.28-2.23-6.41-14.07-6.59-20.2s.89-9.11,2.72-10.43c2.53-1.82,4.38-6.39,3.68-13.58S18.5,14,14.64,16.89Z"/><path d="M2.87,77.21H2.81A.24.24,0,0,1,2.65,77c0-.17-4.09-17.71-2.1-32.89s13.8-27.29,13.92-27.41l0,0a3.73,3.73,0,0,1,3.94-.37c3.07,1.37,5.75,6.1,6.23,11C25.3,33.8,23.89,39,20.9,41.12c-1.95,1.41-2.78,4.66-2.62,10.23.17,6.08,4.25,17.83,6.51,20,.82.79,1.19,1.37,1.13,1.75a.4.4,0,0,1-.21.3.19.19,0,0,1-.18,0,22,22,0,0,0-16.41-.13A19.5,19.5,0,0,0,3,77.13.21.21,0,0,1,2.87,77.21ZM14.79,17.06C14.34,17.52,3,29.36,1,44.19-.79,58,2.42,73.81,3,76.51a20.51,20.51,0,0,1,5.92-3.62,22.41,22.41,0,0,1,16.49,0,4.31,4.31,0,0,0-1-1.19c-2.32-2.26-6.49-14.2-6.66-20.36-.17-5.74.73-9.11,2.81-10.62,2.86-2.06,4.2-7.06,3.58-13.36-.46-4.75-3-9.32-5.95-10.62A3.31,3.31,0,0,0,14.79,17.06Z"/><path class="cls-8" d="M25.61,73.23a22.49,22.49,0,0,1,1.71,15.31c-2,9-3.91,9.64-7.33,7.45,0,0-1.68,3.2-5.14.63,0,0-1.77,2-4.77.46S9,92.44,9.45,91.73,11,86.29,8.06,83.29,3,79,2.87,77a20.38,20.38,0,0,1,11.05-5.19A22.46,22.46,0,0,1,25.61,73.23Z"/><path d="M12.27,97.9A4.91,4.91,0,0,1,10,97.29a3.08,3.08,0,0,1-1.69-1.93,4.87,4.87,0,0,1,1-3.76c.38-.58,1.47-5.23-1.36-8.14-.81-.84-1.56-1.54-2.23-2.15-1.78-1.65-2.95-2.74-3-4.33a.22.22,0,0,1,.07-.17,20.63,20.63,0,0,1,11.18-5.26A23,23,0,0,1,25.71,73a.19.19,0,0,1,.1.1,22.85,22.85,0,0,1,1.74,15.47c-1.18,5.32-2.36,7.86-3.95,8.52-.94.39-2,.15-3.53-.8a3.46,3.46,0,0,1-2,1.47,3.94,3.94,0,0,1-3.17-.86A3.91,3.91,0,0,1,12.27,97.9ZM3.12,77.06C3.22,78.41,4.33,79.43,6,81c.67.62,1.43,1.33,2.25,2.17,2.92,3,2,7.83,1.42,8.72a4.38,4.38,0,0,0-.9,3.39,2.56,2.56,0,0,0,1.44,1.63,3.61,3.61,0,0,0,4.48-.41.24.24,0,0,1,.32,0,3.63,3.63,0,0,0,2.94.89,3.14,3.14,0,0,0,1.86-1.44.23.23,0,0,1,.15-.12.19.19,0,0,1,.18,0c1.49,1,2.48,1.22,3.3.88,1.41-.58,2.54-3.1,3.67-8.18a22.5,22.5,0,0,0-1.65-15.07A22.58,22.58,0,0,0,14,72,20.34,20.34,0,0,0,3.12,77.06Z"/><path d="M14.85,96.85a.23.23,0,0,1-.17-.07.23.23,0,0,1,0-.33c.93-.89,1.87-2.7,2.8-5.4a15.29,15.29,0,0,1,1.84-3.62.24.24,0,1,1,.38.28,14.81,14.81,0,0,0-1.78,3.49C17,94,16,95.85,15,96.79A.23.23,0,0,1,14.85,96.85Z"/><path d="M20,96.22a.27.27,0,0,1-.12,0,.24.24,0,0,1-.07-.33,72.81,72.81,0,0,0,3.28-7.13,5.9,5.9,0,0,1,1.23-1.84.24.24,0,0,1,.33,0,.25.25,0,0,1,0,.34,5.57,5.57,0,0,0-1.12,1.66,71.32,71.32,0,0,1-3.33,7.22A.23.23,0,0,1,20,96.22Z"/><path d="M62.71,96.18a.2.2,0,0,1-.15-.06.24.24,0,0,1,0-.33C63.21,95,65.94,90.68,67,89c.24-.36.39-.62.44-.69a7.39,7.39,0,0,1,1-1.12.25.25,0,0,1,.34,0,.24.24,0,0,1,0,.33,8,8,0,0,0-.9,1l-.43.68c-1.13,1.8-3.78,6-4.47,6.81A.25.25,0,0,1,62.71,96.18Z"/><path d="M68.34,96.83a.22.22,0,0,1-.19-.09.23.23,0,0,1,0-.33c1.6-1.18,3.94-5.82,4.71-7.35l.27-.52a9.76,9.76,0,0,1,.62-.81.23.23,0,0,1,.36.3,8.21,8.21,0,0,0-.58.76l-.25.48c-.78,1.55-3.16,6.27-4.86,7.52A.22.22,0,0,1,68.34,96.83Z"/><path class="cls-9" d="M45.62,13c-1.37,2.65-1.31,4,.3,6.51a.37.37,0,0,1-.48.53c-2.66-1.37-4-1.31-6.52.3a.37.37,0,0,1-.53-.48c1.37-2.66,1.31-4-.3-6.51a.37.37,0,0,1,.48-.54c2.66,1.37,4,1.31,6.52-.3A.37.37,0,0,1,45.62,13Z"/><path d="M45.75,20.18a.56.56,0,0,1-.38,0c-2.63-1.35-3.88-1.3-6.36.29a.51.51,0,0,1-.64-.05.52.52,0,0,1-.12-.63c1.36-2.63,1.3-3.87-.29-6.36a.53.53,0,0,1,0-.64.51.51,0,0,1,.63-.11c2.63,1.35,3.88,1.29,6.36-.3a.53.53,0,0,1,.64.05.54.54,0,0,1,.12.64h0c-1.36,2.62-1.3,3.87.29,6.35A.54.54,0,0,1,46,20,.64.64,0,0,1,45.75,20.18ZM41.15,19c1.36-.39,2.56-.1,4.36.82a.2.2,0,0,0,.26,0,.22.22,0,0,0,0-.27c-1.65-2.58-1.71-4-.31-6.67h0a.22.22,0,0,0-.31-.28c-2.58,1.65-4,1.71-6.67.31a.2.2,0,0,0-.26.05.19.19,0,0,0,0,.26c1.65,2.58,1.71,4,.31,6.67a.2.2,0,0,0,0,.26.21.21,0,0,0,.27,0A9,9,0,0,1,41.15,19Z"/><path class="cls-10" d="M67,39.07c-1.37-3.21-18-5.46-18.32-2.38-1.41,13.34,6.68,7.89,6.68,7.89A9.93,9.93,0,0,0,47.22,50c-.86,1.55-.2,5.47,4.08,5.9.6.06,8.6,3.29,11.18,3,0,0,9.85-9.6,4.47-19.91Z"/><path class="cls-10" d="M99.76,61.93,94.1,39.36,77.76,47.24A84.74,84.74,0,0,0,67,39.07C72.53,48.2,62.48,59,62.48,59h0l8.6,4.52A18.56,18.56,0,0,0,83.6,65.24l14-3h0Z"/><path class="cls-11" d="M82,65.74a18.84,18.84,0,0,1-11-2l-8.6-4.52a.25.25,0,0,1-.13-.17.24.24,0,0,1,.06-.2c.1-.11,9.87-10.76,4.45-19.63a.23.23,0,0,1,.33-.32A85.62,85.62,0,0,1,77.8,47L94,39.14a.26.26,0,0,1,.21,0,.26.26,0,0,1,.13.16L100,61.87a.22.22,0,0,1,0,.19.27.27,0,0,1-.16.1l-2.15.33h0l-14,3C83.11,65.58,82.57,65.68,82,65.74ZM62.86,58.91l8.33,4.38A18.3,18.3,0,0,0,83.56,65l13.89-3,.06,0,2-.3-5.53-22L77.87,47.45a.24.24,0,0,1-.27,0,84.65,84.65,0,0,0-10-7.63c1.84,3.65,1.64,8-.6,12.77A29.31,29.31,0,0,1,62.86,58.91Z"/><path class="cls-10" d="M77.58,47.06a17.48,17.48,0,0,1,1.93,2.77"/><path class="cls-11" d="M79.54,50.07a.25.25,0,0,1-.24-.13,17.17,17.17,0,0,0-1.9-2.72.25.25,0,0,1,0-.34.24.24,0,0,1,.33,0,17.79,17.79,0,0,1,2,2.81.23.23,0,0,1-.1.32S79.57,50.06,79.54,50.07Z"/><rect class="cls-9" x="49.63" y="27.98" width="11.63" height="35.28" transform="translate(-14.54 29.57) rotate(-26.53)"/><path d="M58.15,64.24a.23.23,0,0,1-.24-.13L42.15,32.54a.23.23,0,0,1,0-.18.24.24,0,0,1,.12-.14L52.66,27a.24.24,0,0,1,.32.11L68.74,58.7a.28.28,0,0,1,0,.18.24.24,0,0,1-.12.14l-10.4,5.19ZM42.68,32.54,58.23,63.68l10-5L52.66,27.56Z"/><rect class="cls-12" x="55.11" y="55" width="11.63" height="3.22" transform="translate(-18.87 33.18) rotate(-26.53)"/><path d="M56.47,60.88a.17.17,0,0,1-.1,0,.24.24,0,0,1-.14-.12L54.8,57.87a.23.23,0,0,1,.1-.31l10.41-5.2a.23.23,0,0,1,.31.11l1.44,2.88a.24.24,0,0,1-.1.32L56.55,60.86Zm-1.14-3,1.22,2.46,10-5-1.22-2.46Z"/><rect class="cls-12" x="42.47" y="29.67" width="11.63" height="3.22" transform="translate(-8.89 24.86) rotate(-26.53)"/><path d="M43.83,35.55h-.11a.2.2,0,0,1-.13-.12l-1.44-2.88a.24.24,0,0,1,.11-.32L52.66,27a.24.24,0,0,1,.32.11L54.41,30a.23.23,0,0,1-.1.32L43.9,35.53Zm-1.15-3L43.9,35l10-5-1.22-2.45Z"/><polygon class="cls-10" points="42.36 32.44 43.34 21.45 52.77 27.24 42.36 32.44"/><path d="M42.09,32.84l1-11.79,10.11,6.21Zm1.45-11L42.64,32l9.64-4.81Z"/><polygon class="cls-13" points="43.04 24.77 46.2 23.19 43.34 21.45 43.04 24.77"/><path d="M43.07,25a.24.24,0,0,1-.16,0,.23.23,0,0,1-.1-.22l.29-3.31a.24.24,0,0,1,.13-.19.21.21,0,0,1,.23,0L46.33,23a.24.24,0,0,1,.11.21.23.23,0,0,1-.13.2L43.15,25Zm.47-3.15-.22,2.51,2.39-1.19Z"/><path class="cls-10" d="M49.7,41.38c-.37-1.92,3-2.1,3.41-5.24l0-.29a3.31,3.31,0,0,0-4.78-3.08c-2,1-5,2.8-5.87,5.27-.49,1.37.36,5.08,3.7,4.51"/><path d="M46,42.81a3.1,3.1,0,0,1-2.9-1.07A4.38,4.38,0,0,1,42.27,38c.89-2.49,3.74-4.31,6-5.41a3.59,3.59,0,0,1,3.58.25,3.39,3.39,0,0,1,1.54,3.06c0,.1,0,.2,0,.31a4.89,4.89,0,0,1-2.24,3.36c-.85.67-1.32,1.08-1.18,1.8a.24.24,0,0,1-.19.28.23.23,0,0,1-.27-.19c-.21-1,.55-1.63,1.34-2.26a4.46,4.46,0,0,0,2.07-3,2.64,2.64,0,0,0,0-.28,3,3,0,0,0-1.33-2.63A3.1,3.1,0,0,0,48.46,33c-1.77.86-4.86,2.68-5.74,5.13a3.93,3.93,0,0,0,.75,3.32,2.67,2.67,0,0,0,2.68.88.24.24,0,0,1,.27.2.24.24,0,0,1-.19.27Z"/><path class="cls-10" d="M53.1,45A4.28,4.28,0,0,0,55,42.35c.55-2.83-2.4-3.76-2.4-3.76a8.71,8.71,0,0,0-7.53,5.08c-.73,1.48-1.11,5.37,2.92,5"/><path d="M48,49h0a3.15,3.15,0,0,1-3.11-1.17,4.62,4.62,0,0,1,0-4.21,9,9,0,0,1,7.75-5.21h.06s3.14,1,2.56,4a4.47,4.47,0,0,1-2,2.79.24.24,0,0,1-.28-.38,4,4,0,0,0,1.78-2.5,3.09,3.09,0,0,0-2.2-3.48,8.57,8.57,0,0,0-7.28,5,4.14,4.14,0,0,0,0,3.74,2.72,2.72,0,0,0,2.67,1,.24.24,0,0,1,.26.22A.25.25,0,0,1,48,49Z"/><path d="M54.73,57.52a.23.23,0,0,1-.11,0c-1-.35-1.69-.65-2.15-.86a3.05,3.05,0,0,0-.71-.27,5.55,5.55,0,0,1-4.44-2.79A4.1,4.1,0,0,1,47,49.92a10.5,10.5,0,0,1,8.28-5.58h.09s3.35,1.09,2.73,4.3c-.34,1.75-1.91,2.59-3.18,3.27s-1.87,1-1.78,1.71a.25.25,0,0,1-.21.27h0a.24.24,0,0,1-.26-.21c-.13-1,.91-1.6,2-2.19s2.64-1.41,2.93-2.94a3.31,3.31,0,0,0-2.36-3.74,10,10,0,0,0-7.85,5.31,3.65,3.65,0,0,0,.31,3.22A5,5,0,0,0,51.8,55.9a3.17,3.17,0,0,1,.87.31c.44.2,1.11.5,2.11.85a.24.24,0,0,1-.05.46Z"/><path class="cls-10" d="M51.78,56.13c-4.06-.39-5.5-4.25-4.56-6.1a10.18,10.18,0,0,1,8.09-5.45s3.16,1,2.57,4-5.2,3.16-5,5"/><path d="M51.81,56.37h-.05a5.55,5.55,0,0,1-4.44-2.79A4.1,4.1,0,0,1,47,49.92a10.5,10.5,0,0,1,8.28-5.58h.09s3.35,1.09,2.73,4.3c-.34,1.75-1.91,2.59-3.18,3.27s-1.87,1-1.78,1.71a.25.25,0,0,1-.21.27h0a.24.24,0,0,1-.26-.21c-.13-1,.91-1.6,2-2.19s2.64-1.41,2.93-2.94a3.31,3.31,0,0,0-2.36-3.74,10,10,0,0,0-7.85,5.31,3.65,3.65,0,0,0,.31,3.22A5,5,0,0,0,51.8,55.9a.24.24,0,0,1,.22.25A.24.24,0,0,1,51.81,56.37Z"/><path class="cls-10" d="M58,37.21l-6.26.4a4.23,4.23,0,0,1-3.92-2.19h0A3.14,3.14,0,0,1,50,30.92l4.42-.67a6.73,6.73,0,0,1,4.52.58c1.59.83,6.67,6.08,8,8.24"/><path class="cls-11" d="M67,39.3a.24.24,0,0,1-.23-.11C65.44,37,60.42,31.85,58.86,31a6.55,6.55,0,0,0-4.36-.56l-4.43.68A2.84,2.84,0,0,0,48,32.72a2.88,2.88,0,0,0,0,2.59,4,4,0,0,0,3.7,2.06L58,37a.24.24,0,0,1,.25.22.24.24,0,0,1-.22.26l-6.26.39a4.46,4.46,0,0,1-4.14-2.31A3.38,3.38,0,0,1,50,30.69L54.41,30a7,7,0,0,1,4.67.61c1.6.84,6.74,6.12,8.07,8.32a.23.23,0,0,1-.08.33Z"/></svg>