<svg id="Layer_1" data-name="Layer 1" xmlns="http://www.w3.org/2000/svg" xmlns:xlink="http://www.w3.org/1999/xlink" viewBox="0 0 100 100"><defs><style>.cls-1{fill:none;}.cls-2{fill:url(#linear-gradient);}.cls-3{fill:url(#linear-gradient-2);}.cls-4{fill:#d6e7f6;}.cls-5{fill:#86c0f7;}.cls-6{fill:#62b6ef;}.cls-7{fill:url(#linear-gradient-3);}.cls-8{fill:url(#linear-gradient-4);}.cls-9{clip-path:url(#clip-path);}.cls-10{fill:#ece4d9;}.cls-11{fill:#fff;}.cls-12{clip-path:url(#clip-path-2);}.cls-13{fill:#fff0a6;}.cls-14{fill:#e9b0f7;}</style><linearGradient id="linear-gradient" x1="3.85" y1="20.05" x2="46.13" y2="62.33" gradientUnits="userSpaceOnUse"><stop offset="0.01" stop-color="#d6e7f6"/><stop offset="0.23" stop-color="#d2e5f6"/><stop offset="0.45" stop-color="#c6dff6"/><stop offset="0.68" stop-color="#b1d5f6"/><stop offset="0.9" stop-color="#95c7f7"/><stop offset="1" stop-color="#86c0f7"/></linearGradient><linearGradient id="linear-gradient-2" x1="45.18" y1="11.59" x2="104.49" y2="70.9" gradientUnits="userSpaceOnUse"><stop offset="0" stop-color="#b1d9f7"/><stop offset="0.17" stop-color="#a1c9f9"/><stop offset="0.44" stop-color="#8db6fd"/><stop offset="0.72" stop-color="#81aafe"/><stop offset="1" stop-color="#7da6ff"/></linearGradient><linearGradient id="linear-gradient-3" x1="0.16" y1="49.58" x2="2.18" y2="49.58" gradientUnits="userSpaceOnUse"><stop offset="0" stop-color="#b1d9f7"/><stop offset="0.26" stop-color="#abd3f8"/><stop offset="0.6" stop-color="#99c2fb"/><stop offset="1" stop-color="#7da6ff"/></linearGradient><linearGradient id="linear-gradient-4" x1="97.82" y1="49.58" x2="99.84" y2="49.58" xlink:href="#linear-gradient-3"/><clipPath id="clip-path"><rect class="cls-1" x="42.59" y="62.3" width="6.81" height="7.68"/></clipPath><clipPath id="clip-path-2"><path class="cls-1" d="M47.75,63.65a11,11,0,0,0,6.87-1.15A31.12,31.12,0,0,1,55.05,67a30.78,30.78,0,0,0,0,4.6A6.7,6.7,0,0,1,55.33,74c0,1.2.16,1.69,1.31,2.94a.7.7,0,0,0,.49.2c.34,0,.47-.39.47-.54a.75.75,0,0,0,.73.35.54.54,0,0,0,.51-.6.63.63,0,0,0,.56.3c.38,0,.5-.69.44-1.12a8.51,8.51,0,0,0-1-1.74,4,4,0,0,1-.42-1.88c0-1.13-.06-5.79.31-7a34.64,34.64,0,0,0,1.83-8.39,30.15,30.15,0,0,0-.75-8.38L45.43,49.92Z"/></clipPath></defs><polygon class="cls-2" points="49.82 58.63 2.18 77.45 2.18 21.71 49.82 6.94 49.82 58.63"/><path d="M2.18,77.61a.16.16,0,0,1-.09,0A.17.17,0,0,1,2,77.45V21.71a.16.16,0,0,1,.11-.15L49.78,6.8a.13.13,0,0,1,.13,0,.15.15,0,0,1,.07.12v51.7a.15.15,0,0,1-.1.14L2.24,77.6Zm.15-55.78v55.4l47.34-18.7V7.15ZM49.82,58.64Z"/><polygon class="cls-3" points="49.82 58.63 97.82 77.57 97.82 21.83 49.82 6.94 49.82 58.63"/><path d="M97.82,77.73h-.06l-48-18.94a.16.16,0,0,1-.09-.14V6.94a.14.14,0,0,1,.06-.12.14.14,0,0,1,.14,0l48,14.88a.16.16,0,0,1,.11.15V77.57a.17.17,0,0,1-.07.13A.16.16,0,0,1,97.82,77.73ZM50,58.53,97.67,77.34V22L50,7.15Z"/><polygon class="cls-4" points="2.18 77.45 50.29 93.06 98.18 77.45 49.82 58.63 2.18 77.45"/><path d="M50.29,93.21h0L2.13,77.6A.18.18,0,0,1,2,77.46a.15.15,0,0,1,.1-.15L49.76,58.49a.24.24,0,0,1,.12,0L98.23,77.31a.15.15,0,0,1,.1.15.15.15,0,0,1-.1.14L50.34,93.2ZM2.64,77.44,50.29,92.89,97.72,77.44,49.82,58.8Z"/><polygon class="cls-4" points="49.82 6.94 2.18 21.71 0.15 20.88 49.82 4.92 49.82 6.94"/><path d="M2.18,21.87H2.12L.1,21a.15.15,0,0,1-.1-.15.16.16,0,0,1,.11-.14l49.66-16a.16.16,0,0,1,.21.15v2a.16.16,0,0,1-.11.15L2.23,21.86Zm-1.57-1,1.58.65L49.67,6.83V5.13Zm49.21-14Z"/><polygon class="cls-4" points="49.82 6.94 97.82 21.71 99.84 20.76 49.82 4.92 49.82 6.94"/><path d="M97.82,21.87h0l-48-14.77a.15.15,0,0,1-.11-.15v-2a.16.16,0,0,1,.06-.13.17.17,0,0,1,.14,0l50,15.84a.16.16,0,0,1,.11.14.16.16,0,0,1-.09.15l-2,1ZM50,6.83,97.81,21.55l1.61-.76L50,5.13Z"/><polygon class="cls-5" points="50.18 93.06 2.18 77.45 0.15 78.29 50.18 95.08 50.18 93.06"/><path d="M50.18,95.24h0l-50-16.8A.14.14,0,0,1,0,78.29a.18.18,0,0,1,.1-.15l2-.83a.14.14,0,0,1,.11,0l48,15.6a.15.15,0,0,1,.1.15v2a.15.15,0,0,1-.15.16ZM.6,78.27,50,94.87v-1.7L2.19,77.62Z"/><polygon class="cls-6" points="50.06 93.06 97.82 77.45 99.84 78.29 50.06 95.08 50.06 93.06"/><path d="M50.06,95.24a.16.16,0,0,1-.09,0,.17.17,0,0,1-.07-.13v-2a.16.16,0,0,1,.11-.15l47.76-15.6a.14.14,0,0,1,.11,0l2,.83a.18.18,0,0,1,.1.15.14.14,0,0,1-.11.14L50.11,95.23Zm.15-2.07v1.69L99.4,78.27l-1.59-.65Z"/><polygon class="cls-7" points="0.15 78.29 2.18 77.45 2.18 21.71 0.15 20.88 0.15 78.29"/><path d="M.16,78.44l-.09,0A.17.17,0,0,1,0,78.29V20.88a.17.17,0,0,1,.07-.13.14.14,0,0,1,.14,0l2,.83a.14.14,0,0,1,.09.14V77.45a.16.16,0,0,1-.09.15l-2,.83ZM.31,21.11v57L2,77.35V21.82Z"/><polygon class="cls-8" points="99.84 78.29 97.82 77.45 97.82 21.83 99.84 20.88 99.84 78.29"/><path d="M99.84,78.44h0l-2-.83a.16.16,0,0,1-.09-.15V21.83a.16.16,0,0,1,.08-.14l2-1a.16.16,0,0,1,.15,0,.17.17,0,0,1,.07.13V78.29a.17.17,0,0,1-.07.13ZM98,77.35l1.71.71V21.12L98,21.93Z"/><g class="cls-9"><path class="cls-10" d="M62.27,24.4c-.64-.21-3.88,1.75-3.88,1.75a23.07,23.07,0,0,0-6,.33c-.93-2.16-1.67-1.81-2.95.11a6.45,6.45,0,0,0-.87,4.25c-.58.58-1,4.09-1,4.09h0a11.81,11.81,0,0,0-5.82-1.16c-2.89.33-4.09,5.68-4.27,7.08A68.43,68.43,0,0,0,36.73,48a16.74,16.74,0,0,1-1,4.85c-.31.78-.21,6.32-.21,6.32s.53,1.45,1.21,1.59.65-.43.65-.43a.51.51,0,0,0,.57.32c.46-.06.47-.4.47-.4a.42.42,0,0,0,.47.2c.37,0,.58-.42.52-.93a2.5,2.5,0,0,0-.69-1.08,1.7,1.7,0,0,1-.44-.85,9.82,9.82,0,0,1,0-3.61c.42-2.23,2-2.63,2.57-3.75.25-.52.52-1.46.77-2.07a5.4,5.4,0,0,1,.58-1.07s.58.49.76.67.89,1.2.89,1.2.59,5.71.56,7.59-.28,6-.28,6a3,3,0,0,0,.2,1.32,11.54,11.54,0,0,1,.22,2.85s.83,1.78,1.37,1.91a.58.58,0,0,0,.79-.41,1.38,1.38,0,0,0,.76.3A.53.53,0,0,0,48,68a.54.54,0,0,0,.59.19c.4-.09.53-.84.43-1.22s-1.14-1.38-1.2-1.6a7.66,7.66,0,0,1-.41-1.71c0-.49-.58-5.11,1.64-8.12,2-2.76.3-4.86.38-7s.24-7.32.24-7.32l-.07-1.39,11.76-4.11c1.21-2.16.49-5.45.9-6.81a13.2,13.2,0,0,0,.52-3C62.77,25.7,62.91,24.61,62.27,24.4Z"/><path d="M46.16,68.76a.93.93,0,0,1-.27,0c-.58-.14-1.36-1.79-1.45-2a.13.13,0,0,1,0-.06,11.8,11.8,0,0,0-.21-2.79A3,3,0,0,1,44,62.5s.25-4.1.28-6-.51-7.06-.56-7.54c-.11-.16-.64-.92-.86-1.16s-.46-.42-.63-.57a5.83,5.83,0,0,0-.49.93c-.11.27-.22.6-.33.93s-.3.85-.44,1.14A3.86,3.86,0,0,1,40,51.38,4.38,4.38,0,0,0,38.42,54a9.68,9.68,0,0,0,0,3.55,1.7,1.7,0,0,0,.4.79,2.39,2.39,0,0,1,.74,1.15c.06.59-.2,1-.65,1.09a.64.64,0,0,1-.43-.09.68.68,0,0,1-.5.28.7.7,0,0,1-.53-.14.53.53,0,0,1-.12.14.73.73,0,0,1-.62.11c-.72-.15-1.24-1.52-1.3-1.68a.06.06,0,0,1,0,0c0-.23-.1-5.57.22-6.37a17,17,0,0,0,1-4.8,53.73,53.73,0,0,1,.65-6.33c0-.32.08-.6.11-.81s1-6.81,4.39-7.2a10.39,10.39,0,0,1,4,.46,13.2,13.2,0,0,1,1.68.63c.1-.76.45-3.29,1-3.93a6.51,6.51,0,0,1,.9-4.29c.68-1,1.26-1.7,1.86-1.64s.85.49,1.28,1.46A23.54,23.54,0,0,1,58.36,26c.62-.38,3.3-2,4-1.75s.61,1.16.59,1.56V26a13,13,0,0,1-.52,3,7.85,7.85,0,0,0-.14,2.1,10,10,0,0,1-.77,4.74.11.11,0,0,1-.07.06L49.73,39.94l.06,1.28c0,.06-.15,5.24-.23,7.34a7,7,0,0,0,.29,2c.34,1.47.73,3.12-.7,5.06-1.93,2.62-1.71,6.44-1.63,7.7,0,.17,0,.28,0,.35a5.67,5.67,0,0,0,.33,1.4,2.19,2.19,0,0,1,.08.27,4.2,4.2,0,0,0,.44.55,3.6,3.6,0,0,1,.76,1A1.66,1.66,0,0,1,49,68a.58.58,0,0,1-.37.29.69.69,0,0,1-.55-.08.66.66,0,0,1-.57.39,1.22,1.22,0,0,1-.7-.23.65.65,0,0,1-.24.26A.7.7,0,0,1,46.16,68.76ZM44.7,66.65c.31.67.92,1.73,1.26,1.82a.61.61,0,0,0,.45,0,.41.41,0,0,0,.18-.27.12.12,0,0,1,.09-.1.13.13,0,0,1,.13,0,1.18,1.18,0,0,0,.66.27.41.41,0,0,0,.39-.36.14.14,0,0,1,.09-.13.13.13,0,0,1,.15.06.45.45,0,0,0,.45.13.3.3,0,0,0,.2-.17,1.29,1.29,0,0,0,.13-.89,4.55,4.55,0,0,0-.7-.94,2.45,2.45,0,0,1-.5-.66s0-.14-.08-.25a5.82,5.82,0,0,1-.34-1.49,2,2,0,0,0,0-.33c-.08-1.28-.3-5.17,1.68-7.87,1.36-1.84,1-3.36.65-4.84a7.76,7.76,0,0,1-.29-2.06c.08-2.1.23-7.28.23-7.33l-.06-1.37a.13.13,0,0,1,.09-.13l11.71-4.1A9.75,9.75,0,0,0,62,31.06a8.51,8.51,0,0,1,.15-2.18A12.64,12.64,0,0,0,62.63,26a.76.76,0,0,1,0-.14c0-.34,0-1.13-.41-1.28h0c-.42-.14-2.54,1-3.77,1.74l-.08,0a22.9,22.9,0,0,0-6,.32.12.12,0,0,1-.15-.07c-.39-.92-.75-1.37-1.1-1.41s-.88.42-1.62,1.53a6.43,6.43,0,0,0-.85,4.16.11.11,0,0,1,0,.11c-.45.45-.84,3-1,4a.12.12,0,0,1-.07.11.13.13,0,0,1-.12,0,11.67,11.67,0,0,0-5.75-1.15c-2.68.31-3.93,5.26-4.15,7,0,.21-.07.49-.11.82A55.66,55.66,0,0,0,36.86,48a16.6,16.6,0,0,1-1,4.91,41.51,41.51,0,0,0-.2,6.24c.15.4.61,1.39,1.1,1.48a.45.45,0,0,0,.39,0,.36.36,0,0,0,.1-.25.12.12,0,0,1,.11-.13.13.13,0,0,1,.15.09.37.37,0,0,0,.43.22c.32,0,.35-.25.35-.27a.13.13,0,0,1,.11-.12.14.14,0,0,1,.15.08s.07.15.32.12.46-.35.41-.79a2.28,2.28,0,0,0-.66-1,1.89,1.89,0,0,1-.47-.92,9.77,9.77,0,0,1,0-3.65,4.57,4.57,0,0,1,1.69-2.76,3.68,3.68,0,0,0,.89-1A10.4,10.4,0,0,0,41.16,49c.12-.33.23-.67.35-.94A5.37,5.37,0,0,1,42.1,47a.14.14,0,0,1,.1-.05.08.08,0,0,1,.09,0,9.87,9.87,0,0,1,.77.68c.26.28.88,1.18.91,1.21a.14.14,0,0,1,0,.07s.6,5.73.57,7.61-.28,5.94-.28,6a2.65,2.65,0,0,0,.19,1.26A11.85,11.85,0,0,1,44.7,66.65ZM61.35,35.73h0Z"/></g><path class="cls-11" d="M47.75,63.65a11,11,0,0,0,6.87-1.15A31.12,31.12,0,0,1,55.05,67a30.78,30.78,0,0,0,0,4.6A6.7,6.7,0,0,1,55.33,74c0,1.2.16,1.69,1.31,2.94a.7.7,0,0,0,.49.2c.34,0,.47-.39.47-.54a.75.75,0,0,0,.73.35.54.54,0,0,0,.51-.6.63.63,0,0,0,.56.3c.38,0,.5-.69.44-1.12a8.51,8.51,0,0,0-1-1.74,4,4,0,0,1-.42-1.88c0-1.13-.06-5.79.31-7a34.64,34.64,0,0,0,1.83-8.39,30.15,30.15,0,0,0-.75-8.38L45.63,51.11Z"/><path d="M57.15,77.29h0a.79.79,0,0,1-.59-.24c-1.15-1.24-1.39-1.78-1.34-3a6.74,6.74,0,0,0-.27-2.41,16.31,16.31,0,0,1,0-3.25c0-.47,0-1,0-1.39a30.43,30.43,0,0,0-.4-4.26,11.34,11.34,0,0,1-6.79,1.07.13.13,0,0,1-.11-.11L45.5,51.13a.13.13,0,0,1,.1-.15L59.83,48a.12.12,0,0,1,.15.1,30.48,30.48,0,0,1,.75,8.42,32.78,32.78,0,0,1-1.67,7.92c-.06.19-.11.36-.16.5a37.39,37.39,0,0,0-.3,6.21v.74A4,4,0,0,0,59,73.75a7.53,7.53,0,0,1,1,1.78,1.57,1.57,0,0,1-.22,1.1.47.47,0,0,1-.35.17.8.8,0,0,1-.47-.14.49.49,0,0,1-.13.23.62.62,0,0,1-.46.21,1,1,0,0,1-.67-.2.76.76,0,0,1-.15.23A.49.49,0,0,1,57.15,77.29ZM54.62,62.37h.06a.16.16,0,0,1,.08.1A34,34,0,0,1,55.19,67c0,.43,0,.93,0,1.4a17.89,17.89,0,0,0,0,3.16,6.73,6.73,0,0,1,.29,2.5c0,1.18.15,1.63,1.27,2.84a.57.57,0,0,0,.4.15.28.28,0,0,0,.19-.07.54.54,0,0,0,.13-.33.14.14,0,0,1,.1-.13.14.14,0,0,1,.16.07.58.58,0,0,0,.6.27.41.41,0,0,0,.39-.46A.13.13,0,0,1,59,76.3a.52.52,0,0,0,.43.24h0a.17.17,0,0,0,.14-.08,1.26,1.26,0,0,0,.16-.9,7.4,7.4,0,0,0-.93-1.67,4.07,4.07,0,0,1-.44-2v-.74a36.45,36.45,0,0,1,.32-6.29c0-.14.1-.31.16-.51a33.25,33.25,0,0,0,1.66-7.85,30.14,30.14,0,0,0-.72-8.21l-14,2.88,2.09,12.33a11,11,0,0,0,6.69-1.15A.07.07,0,0,1,54.62,62.37Z"/><g class="cls-12"><path d="M56.63,77.1h0c-.12,0-.3,0-5.12-6.78-2.36-3.32-4.71-6.68-4.73-6.71s0,0,0-.07l-.45-14.45a.14.14,0,0,1,.12-.14L59,47.74a.14.14,0,0,1,.13.07c0,.06.88,1.65.43,6.14a15.1,15.1,0,0,1-1.92,6,6.9,6.9,0,0,0-.83,2,9.8,9.8,0,0,0-.1,2.42q0,.28,0,.6c0,.39,0,1.84-.1,3.38-.06,1.88-.13,4-.12,4.6a4.46,4.46,0,0,0,.14,1,3.88,3.88,0,0,1,.12,1c0,.37,0,.7.06,1,.05.51.08.85-.09,1A.14.14,0,0,1,56.63,77.1ZM47,63.49c3.49,5,8.72,12.37,9.58,13.27a3.89,3.89,0,0,0,0-.74,9.64,9.64,0,0,1-.06-1,3.48,3.48,0,0,0-.12-1A4.28,4.28,0,0,1,56.25,73c0-.59,0-2.73.12-4.62.05-1.54.1-3,.09-3.36a5.54,5.54,0,0,0,0-.59,9.92,9.92,0,0,1,.11-2.48,7,7,0,0,1,.85-2.12,14.61,14.61,0,0,0,1.9-5.89c.38-3.85-.21-5.54-.37-5.91L46.56,49.2Z"/></g><polygon class="cls-10" points="32.53 35 32.53 35 32.53 35 32.53 35"/><path class="cls-13" d="M37.35,35a12.65,12.65,0,0,0-.12,3,26.48,26.48,0,0,1,0,3.6L39.51,41l.3.1c2.3.65,3.23-1.52,3.49-3.88s-.86-5.31-3.49-5c-1.54.19-2.2,1.39-2.46,2.79"/><path d="M39.26,41H39.2c-.31-.16-.45-.3-.47-.46a.39.39,0,0,1,.18-.34l0,0,0-.05c.08-.07.18-.16.13-2.06-.05-2.16-1-2.83-1-2.83a.14.14,0,0,1-.05-.18.13.13,0,0,1,.18-.06s1.12.71,1.18,3.06c.05,2-.06,2.13-.22,2.27l0,0-.06.06s-.1.08-.1.11,0,.09.33.25a.13.13,0,0,1,.06.18A.12.12,0,0,1,39.26,41Z"/><path class="cls-13" d="M61.68,30.46c-.71-.23-4.34,2-4.34,2a25.34,25.34,0,0,0-6.7.37c-1-2.43-1.87-2-3.3.12a7.2,7.2,0,0,0-1,4.75c-.65.65-1.11,4.58-1.11,4.58h0a13.19,13.19,0,0,0-6.51-1.3c-3.24.37-4.58,6.36-4.78,7.93a76.12,76.12,0,0,0-.86,8A18.72,18.72,0,0,1,32,62.26c-.29.74-.26,5.16-.24,6.61a2.16,2.16,0,0,0,.23,1c.24.5.65,1.17,1.12,1.27.76.15.73-.48.73-.48a.57.57,0,0,0,.64.36c.51-.06.53-.45.53-.45s.1.28.52.23.65-.48.58-1a2.72,2.72,0,0,0-.78-1.2,2,2,0,0,1-.48-1,10.91,10.91,0,0,1,0-4c.48-2.49,2.27-2.94,2.88-4.2.28-.58.58-1.63.86-2.31a5.53,5.53,0,0,1,.65-1.2s.66.54.85.75,1,1.34,1,1.34.66,6.39.63,8.5-.32,6.69-.32,6.69a3.26,3.26,0,0,0,.23,1.47,10.19,10.19,0,0,1,.25,2.66,2.25,2.25,0,0,0,.27,1.08c.32.6.85,1.49,1.25,1.59a.65.65,0,0,0,.89-.46,1.52,1.52,0,0,0,.85.34.6.6,0,0,0,.57-.55.6.6,0,0,0,.66.21c.45-.11.59-.94.48-1.37s-1.28-1.54-1.34-1.79a8.35,8.35,0,0,1-.46-1.91c0-.55-.65-5.71,1.83-9.08,2.28-3.1.34-5.44.43-7.81s.26-8.2.26-8.2l-.07-1.55,13.16-4.59c1.35-2.43.54-6.1,1-7.62a14.66,14.66,0,0,0,.58-3.33C62.24,31.91,62.4,30.69,61.68,30.46Z"/><path d="M43.66,80.07a1.13,1.13,0,0,1-.3,0c-.34-.09-.79-.64-1.33-1.66a2.38,2.38,0,0,1-.29-1.14,8.61,8.61,0,0,0-.24-2.6,3.55,3.55,0,0,1-.23-1.55s.28-4.59.31-6.67S41,58.47,41,58c-.12-.17-.72-1-1-1.3s-.53-.48-.72-.65a6.18,6.18,0,0,0-.55,1.06c-.13.3-.26.67-.38,1a12.46,12.46,0,0,1-.49,1.28,4.43,4.43,0,0,1-1.06,1.24A5,5,0,0,0,35,63.56a10.83,10.83,0,0,0,0,4,1.81,1.81,0,0,0,.45.88,2.82,2.82,0,0,1,.82,1.29c.07.65-.22,1.14-.71,1.19a.65.65,0,0,1-.48-.1.75.75,0,0,1-.56.32.72.72,0,0,1-.6-.17.55.55,0,0,1-.14.18.77.77,0,0,1-.67.11c-.52-.1-.95-.78-1.22-1.34a2.41,2.41,0,0,1-.25-1c0-1.75,0-5.92.25-6.66A18.57,18.57,0,0,0,33,56.84a61.69,61.69,0,0,1,.73-7.08c0-.36.09-.67.12-.91,0-.08,1.11-7.61,4.9-8A13.13,13.13,0,0,1,45.15,42c.11-.83.5-3.71,1.08-4.42a7.18,7.18,0,0,1,1-4.79C48,31.69,48.64,30.94,49.3,31c.5,0,.94.55,1.42,1.64a25.45,25.45,0,0,1,6.59-.36c.52-.31,3.68-2.19,4.42-2s.67,1.28.65,1.72a.82.82,0,0,0,0,.14,14.52,14.52,0,0,1-.58,3.36,9.3,9.3,0,0,0-.16,2.36c0,1.66,0,3.73-.85,5.29a.16.16,0,0,1-.08.06L47.64,47.83l.06,1.45c0,.06-.16,5.86-.26,8.21a8.85,8.85,0,0,0,.33,2.23c.38,1.63.82,3.49-.78,5.65-2.16,2.93-1.91,7.21-1.83,8.62,0,.19,0,.32,0,.39A6.47,6.47,0,0,0,45.54,76c.05.14.08.24.1.3a4,4,0,0,0,.49.62A4.1,4.1,0,0,1,47,78a1.76,1.76,0,0,1-.18,1.21.65.65,0,0,1-.4.32.79.79,0,0,1-.62-.09.7.7,0,0,1-.63.43,1.41,1.41,0,0,1-.79-.26.76.76,0,0,1-.27.31A.93.93,0,0,1,43.66,80.07ZM39.24,55.69l.09,0s.66.55.86.76,1,1.31,1,1.36a.14.14,0,0,1,0,.06c0,.06.66,6.41.63,8.51s-.31,6.65-.31,6.69a3,3,0,0,0,.21,1.42A9.31,9.31,0,0,1,42,77.23a2.18,2.18,0,0,0,.26,1c.47.89.91,1.46,1.16,1.52a.62.62,0,0,0,.51,0,.51.51,0,0,0,.22-.32.12.12,0,0,1,.09-.09.11.11,0,0,1,.12,0,1.44,1.44,0,0,0,.76.31.47.47,0,0,0,.44-.42.13.13,0,0,1,.1-.13.12.12,0,0,1,.15.05.49.49,0,0,0,.52.16.41.41,0,0,0,.24-.2,1.57,1.57,0,0,0,.14-1,4.89,4.89,0,0,0-.79-1,2.76,2.76,0,0,1-.55-.73L45.29,76a6.23,6.23,0,0,1-.38-1.66c0-.06,0-.19,0-.37-.09-1.43-.34-5.78,1.87-8.79,1.53-2.06,1.13-3.77.74-5.43a8.48,8.48,0,0,1-.33-2.31c.09-2.34.26-8.13.26-8.19l-.07-1.54a.13.13,0,0,1,.09-.13L60.57,43a11,11,0,0,0,.79-5.12,9.87,9.87,0,0,1,.17-2.43,14.18,14.18,0,0,0,.57-3.29s0-.09,0-.15c0-.38.06-1.28-.47-1.46s-2.85,1.12-4.23,2a.08.08,0,0,1-.08,0,25.41,25.41,0,0,0-6.66.37.14.14,0,0,1-.15-.08c-.44-1-.85-1.54-1.25-1.58s-1,.48-1.82,1.72a7.19,7.19,0,0,0-1,4.66.11.11,0,0,1,0,.12c-.5.5-.94,3.41-1.07,4.49a.14.14,0,0,1-.19.11,13,13,0,0,0-6.44-1.28c-3,.34-4.41,5.89-4.66,7.8,0,.24-.08.55-.13.92a66,66,0,0,0-.73,7,18.62,18.62,0,0,1-1.09,5.48,41,41,0,0,0-.23,6.56,2.26,2.26,0,0,0,.22.92c.34.7.71,1.12,1,1.19a.53.53,0,0,0,.45-.06.4.4,0,0,0,.12-.28.12.12,0,0,1,.11-.14.14.14,0,0,1,.15.09.42.42,0,0,0,.5.26c.37,0,.4-.29.4-.32a.14.14,0,0,1,.11-.12.13.13,0,0,1,.15.08s.09.18.38.15.53-.4.47-.9a2.56,2.56,0,0,0-.74-1.13,2,2,0,0,1-.52-1,11.15,11.15,0,0,1,0-4.08,5.14,5.14,0,0,1,1.89-3.07,4.14,4.14,0,0,0,1-1.17A11.2,11.2,0,0,0,38.08,58c.13-.37.26-.75.39-1.05a5.53,5.53,0,0,1,.66-1.23.14.14,0,0,1,.1-.05ZM60.66,43.14Z"/><path class="cls-11" d="M47.71,36.35s-.56-.86.29-2.5,1.33-2.24,2-1.5.65,1.25,0,2.22S48.17,37.35,47.71,36.35Z"/><path d="M48.07,36.77h0a.54.54,0,0,1-.45-.36c-.06-.1-.55-1,.29-2.62.6-1.17,1-1.81,1.5-1.88a.88.88,0,0,1,.74.35c.79.85.64,1.44,0,2.38v0C49.41,35.73,48.66,36.77,48.07,36.77Zm1.39-4.6h0c-.37,0-.79.73-1.3,1.73-.8,1.54-.3,2.36-.3,2.37h0c.09.21.2.21.23.22.49,0,1.4-1.34,1.84-2v0c.64-1,.64-1.38,0-2.05A.69.69,0,0,0,49.46,32.17Z"/><path class="cls-11" d="M59.1,32.6s1.68-1.59,2.35-1.29.22,4.5-.44,4.37S58.84,32.84,59.1,32.6Z"/><path d="M61.05,35.81H61c-.59-.12-1.82-2.16-2-2.91,0-.13-.07-.3,0-.39s1.77-1.65,2.5-1.32.44,2.8.08,3.91C61.53,35.28,61.37,35.81,61.05,35.81ZM59.2,32.69A5.07,5.07,0,0,0,60,34.32c.51.8.91,1.2,1.06,1.23s.15-.07.3-.53c.38-1.21.42-3.42.06-3.59S59.83,32.1,59.2,32.69Zm-.1-.09Z"/><ellipse class="cls-10" cx="54.52" cy="37.34" rx="0.37" ry="0.82" transform="translate(-8.21 58.11) rotate(-52.73)"/><path d="M55,38.05a1.37,1.37,0,0,1-.75-.31c-.43-.33-.62-.75-.45-1s.63-.15,1.06.18.63.75.46,1h0A.41.41,0,0,1,55,38.05Zm.21-.22Zm-1.1-.94a.13.13,0,0,0-.1,0c0,.07.07.35.4.61s.64.29.69.22-.06-.34-.4-.6A1.05,1.05,0,0,0,54.07,36.89Z"/><ellipse class="cls-10" cx="58.81" cy="37" rx="0.65" ry="0.3" transform="translate(-4.27 66.13) rotate(-56.96)"/><path d="M58.54,37.71a.3.3,0,0,1-.16-.05c-.07,0-.17-.15-.13-.4a1.13,1.13,0,0,1,.2-.49c.21-.33.55-.58.78-.42.07,0,.17.15.13.4a1.31,1.31,0,0,1-.19.49A.92.92,0,0,1,58.54,37.71Zm.53-1.14a.7.7,0,0,0-.4.35,1,1,0,0,0-.16.38.31.31,0,0,0,0,.14s.24-.07.42-.35a1.11,1.11,0,0,0,.16-.38.28.28,0,0,0,0-.14Z"/><path d="M54.59,39.18a1.09,1.09,0,0,0-1.8,0A1.22,1.22,0,0,0,54.59,39.18Z"/><path d="M58.49,39.09a.91.91,0,0,1,.93-.85S59.63,39.3,58.49,39.09Z"/><path class="cls-11" d="M47.69,47.55l.18-2.45a4.54,4.54,0,0,1-.9-3.28c.32-1.75,1.76-2.4,2.59-2.08s1.15-.17,2.68.36a3.2,3.2,0,0,0,2.52.1c.7-.15.85.28,1,.59s1.29,2.8,3,2.46,1.36-1,.94-1.72-1.09-1.73-.49-1.62.7-.12.83-.6,1.15-.46,1.44-.62.41,2.21-.24,3.41a8.42,8.42,0,0,1-.6,1s.36,1.58-.79,2.17c0,0,.17,3.49-4.63,3.44S48,48.59,47.69,47.55Z"/><path d="M55.35,48.88h-.11c-5.21-.05-7.36-.19-7.68-1.29a.09.09,0,0,1,0-.05l.18-2.4a4.54,4.54,0,0,1-.89-3.34,2.76,2.76,0,0,1,1.33-2,1.71,1.71,0,0,1,1.44-.17,1.82,1.82,0,0,0,.88.1,4.18,4.18,0,0,1,1.79.25,2.92,2.92,0,0,0,2.14.18l.31-.08a.89.89,0,0,1,1.12.57.56.56,0,0,0,0,.08l.05.11c.88,1.72,1.82,2.49,2.81,2.29.64-.13,1-.31,1.13-.55s0-.56-.29-1l-.17-.31c-.43-.72-.69-1.18-.52-1.41a.31.31,0,0,1,.34-.1c.5.09.55,0,.69-.51s.64-.5,1.07-.59a1.38,1.38,0,0,0,.42-.11.18.18,0,0,1,.23,0c.3.28.32,2.43-.28,3.55-.35.65-.51.91-.58,1A2.15,2.15,0,0,1,60,45.39a3.45,3.45,0,0,1-.93,2.23A5,5,0,0,1,55.35,48.88Zm-7.53-1.34c.32,1,3,1,7.42,1.08a4.8,4.8,0,0,0,3.64-1.18,3.17,3.17,0,0,0,.86-2.12.13.13,0,0,1,.07-.13c1-.54.72-2,.72-2a.13.13,0,0,1,0-.12,8.45,8.45,0,0,0,.58-1,5.61,5.61,0,0,0,.36-3.2,4.38,4.38,0,0,1-.43.11c-.34.06-.81.15-.88.4-.14.5-.28.82-1,.69h-.08c0,.13.33.77.54,1.11l.18.31c.22.39.47.83.3,1.22s-.57.55-1.33.7c-1.12.23-2.16-.59-3.1-2.43l-.05-.1,0-.08c-.16-.3-.3-.55-.83-.44l-.3.08a3.2,3.2,0,0,1-2.3-.19A3.94,3.94,0,0,0,50.51,40a2.12,2.12,0,0,1-1-.11A1.44,1.44,0,0,0,48.3,40a2.5,2.5,0,0,0-1.2,1.83A4.37,4.37,0,0,0,48,45a.1.1,0,0,1,0,.09Z"/><path class="cls-11" d="M37.23,41.59a26.48,26.48,0,0,0,0-3.6c-.12-2.17,0-5.45,2.58-5.78s3.74,2.64,3.49,5-1.19,4.53-3.49,3.88a4.85,4.85,0,0,1-.66-.25c-.13-.07.52.28.67-1.48s.11-3.7-.54-4.82c-.07-.12-1.27-1.94-1.93.47"/><path d="M37.23,41.72h0a.13.13,0,0,1-.12-.14,28.81,28.81,0,0,0,0-3.59c-.14-2.38,0-5.58,2.69-5.91a2.79,2.79,0,0,1,2.37.78,5.47,5.47,0,0,1,1.27,4.36c-.14,1.3-.54,3-1.63,3.75a2.35,2.35,0,0,1-2,.24,5.73,5.73,0,0,1-.68-.26.14.14,0,0,1-.08-.16.14.14,0,0,1,.14-.1c.2,0,.45-.37.54-1.35a8.7,8.7,0,0,0-.53-4.74c-.08-.16-.53-.76-.94-.71s-.55.44-.74,1.14v0a12.54,12.54,0,0,0-.1,2.93,29.21,29.21,0,0,1,0,3.62A.14.14,0,0,1,37.23,41.72Zm2.24-.9a3.46,3.46,0,0,0,.38.13,2.08,2.08,0,0,0,1.8-.2c1-.68,1.38-2.32,1.51-3.56A5.24,5.24,0,0,0,42,33.05a2.5,2.5,0,0,0-2.14-.71,2.4,2.4,0,0,0-1.95,1.41.59.59,0,0,1,.31-.12c.65-.09,1.2.82,1.21.83.56,1,.75,2.62.55,4.9C39.88,40.22,39.69,40.64,39.47,40.82Z"/><line class="cls-10" x1="45.26" y1="42.24" x2="45.18" y2="42.88"/><path d="M45.18,43h0a.14.14,0,0,1-.12-.15l.08-.65a.14.14,0,0,1,.15-.12.13.13,0,0,1,.11.15l-.07.65A.14.14,0,0,1,45.18,43Z"/><path class="cls-14" d="M45.18,42.88a3,3,0,0,0-.57,2.87c.63,2,5.22,8.24,9,10.21A1.24,1.24,0,0,0,55,55.85c1.59-1.19,5.68-4.85,4.92-10.54,0,0,.05,2.18-4.09,3.07S44,48.05,45.18,42.88Z"/><path d="M54.2,56.24a1.44,1.44,0,0,1-.64-.16c-3.78-2-8.4-8.11-9.07-10.29a3.08,3.08,0,0,1,.6-3,.13.13,0,0,1,.16,0,.11.11,0,0,1,.06.14,3.59,3.59,0,0,0,.94,3.48c2,2,6.47,2.51,9.5,1.86,4-.85,4-2.92,4-2.94a.13.13,0,0,1,.26,0C60.76,51,56.78,54.65,55,56A1.43,1.43,0,0,1,54.2,56.24ZM45,43.43a2.86,2.86,0,0,0-.22,2.28c.64,2.09,5.29,8.23,8.95,10.13a1.12,1.12,0,0,0,1.18-.09c1.63-1.23,5.26-4.55,4.94-9.68-.35.75-1.31,1.86-4,2.44-3.1.67-7.71.12-9.75-1.93A3.73,3.73,0,0,1,45,43.43Z"/><path d="M33.87,70.77h0a.13.13,0,0,1-.12-.14,2.76,2.76,0,0,0-.06-.66,1.59,1.59,0,0,0-.45-.53.14.14,0,0,1,0-.19.13.13,0,0,1,.19,0,1.91,1.91,0,0,1,.52.65,2.68,2.68,0,0,1,.07.75A.13.13,0,0,1,33.87,70.77Z"/><path d="M35,70.7h0a.13.13,0,0,1-.12-.14,2.15,2.15,0,0,0,0-.65,1.68,1.68,0,0,0-.44-.53.14.14,0,0,1,.17-.21,2.09,2.09,0,0,1,.52.66,2.54,2.54,0,0,1,.06.75A.14.14,0,0,1,35,70.7Z"/><path d="M44.29,79.59h0a.15.15,0,0,1-.13-.14,2.32,2.32,0,0,0-.06-.66,1.66,1.66,0,0,0-.44-.53.13.13,0,1,1,.17-.2,1.8,1.8,0,0,1,.53.65,2.7,2.7,0,0,1,.07.75A.13.13,0,0,1,44.29,79.59Z"/><path d="M57.61,76.82h0a.14.14,0,0,1-.13-.14,2.32,2.32,0,0,0-.06-.66,1.8,1.8,0,0,0-.44-.53.13.13,0,1,1,.17-.2,1.8,1.8,0,0,1,.53.65,3.18,3.18,0,0,1,.07.75A.13.13,0,0,1,57.61,76.82Z"/><path d="M58.84,76.56h0a.13.13,0,0,1-.13-.13,2.3,2.3,0,0,0-.06-.66,1.68,1.68,0,0,0-.44-.53.14.14,0,0,1,.17-.21,2,2,0,0,1,.53.66,3.15,3.15,0,0,1,.07.75A.12.12,0,0,1,58.84,76.56Z"/><path d="M45.7,79.42h0a.13.13,0,0,1-.13-.14,2.72,2.72,0,0,0-.06-.65,1.68,1.68,0,0,0-.44-.53.14.14,0,1,1,.17-.21,2,2,0,0,1,.53.66,3.08,3.08,0,0,1,.07.74A.13.13,0,0,1,45.7,79.42Z"/><path d="M46.72,68.33h0a.13.13,0,0,1-.13-.14,2.11,2.11,0,0,0-.06-.58,1.42,1.42,0,0,0-.39-.47.14.14,0,0,1,.18-.21,1.81,1.81,0,0,1,.47.6,2.36,2.36,0,0,1,.06.67A.13.13,0,0,1,46.72,68.33Z"/><path d="M48,68.18h0a.14.14,0,0,1-.13-.14,2.09,2.09,0,0,0-.05-.58,1.42,1.42,0,0,0-.39-.47.13.13,0,1,1,.17-.2,1.76,1.76,0,0,1,.48.59,2.86,2.86,0,0,1,.06.67A.13.13,0,0,1,48,68.18Z"/><path class="cls-10" d="M60.84,41.84a3.06,3.06,0,0,0-.18,1.3"/><path d="M60.66,43.27a.13.13,0,0,1-.13-.13,3,3,0,0,1,.19-1.35.14.14,0,0,1,.18-.07.14.14,0,0,1,.06.18,2.93,2.93,0,0,0-.17,1.23.13.13,0,0,1-.12.14Z"/><path d="M60.39,43.67c0,.77-1.09,1.14-1.39,1.14s-1.39-.37-1.39-1.14a1.39,1.39,0,0,1,2.78,0Z"/><path d="M57,46.57a6.07,6.07,0,0,1-1.4-.13c-.92-.24-4.51-.87-4.55-.87a.14.14,0,1,1,.05-.27c.15,0,3.63.63,4.57.88a6.38,6.38,0,0,0,3.79-.38.63.63,0,0,0,.3-.47.14.14,0,0,1,.15-.12.13.13,0,0,1,.12.14.92.92,0,0,1-.41.67A5.09,5.09,0,0,1,57,46.57Z"/><path class="cls-10" d="M57.73,45.66s.18,1.55,1.15,1.4c.74-.12.79-.93.68-1.61"/><path d="M58.74,47.2c-.71,0-1-.82-1.09-1.19s-.06-.44,0-.47a.14.14,0,0,1,.18.14,1.83,1.83,0,0,0,.48,1.1.59.59,0,0,0,.51.14.66.66,0,0,0,.44-.25,1.69,1.69,0,0,0,.13-1.2.13.13,0,1,1,.26,0,2,2,0,0,1-.18,1.41.91.91,0,0,1-.61.36Z"/><path d="M57.71,45.79a5.56,5.56,0,0,1-3.2-.84c-1.46-1-2.12-.82-2.13-.81a.14.14,0,0,1-.17-.08.13.13,0,0,1,.08-.17s.78-.3,2.38.84,3.86.79,4.54.67a2.28,2.28,0,0,0,.6-.21.14.14,0,0,1,.18.05.15.15,0,0,1-.05.19,2.85,2.85,0,0,1-.69.24A10.81,10.81,0,0,1,57.71,45.79Z"/><path class="cls-10" d="M58.78,45.61a2,2,0,0,1,.08.56"/><path d="M58.86,46.3a.13.13,0,0,1-.14-.13,2,2,0,0,0-.07-.52.14.14,0,0,1,.09-.17.14.14,0,0,1,.17.09,2.45,2.45,0,0,1,.08.6A.13.13,0,0,1,58.86,46.3Z"/><path d="M58.74,45.75a.18.18,0,0,1-.09,0,.14.14,0,0,1,0-.19,1.56,1.56,0,0,0,.27-1,.14.14,0,0,1,.13-.15.14.14,0,0,1,.14.12,1.78,1.78,0,0,1-.35,1.22A.12.12,0,0,1,58.74,45.75Z"/><path d="M15.54,34l3.67-6.69L23,31.73Zm3.74-6.37-3.41,6.07,6.72-2.08Z"/><polygon class="cls-14" points="26.36 45.24 12.73 49.78 12.73 34.33 26.36 29.78 26.36 45.24"/><path d="M12.61,49.94V34.25l.08,0,13.79-4.6v15.7l-.08,0Zm.23-15.53V49.62l13.41-4.47V29.94Z"/></svg>