<svg width="28" height="29" viewBox="0 0 28 29" fill="none" xmlns="http://www.w3.org/2000/svg">
<g clip-path="url(#clip0_984_13280)">
<path d="M14 0.5C6.272 0.5 0 6.772 0 14.5C0 22.228 6.272 28.5 14 28.5C21.728 28.5 28 22.228 28 14.5C28 6.772 21.728 0.5 14 0.5ZM21.476 10.692C21.56 13.24 20.832 15.284 19.88 16.88C18.956 18.448 17.696 19.708 16.184 20.604C14.672 21.528 12.656 22.2 10.276 22.116C8.064 22.06 6.3 21.416 4.872 20.548C4.788 20.492 4.676 20.436 4.62 20.352C7.084 20.632 8.96 19.82 10.304 18.784C9.324 18.756 8.568 18.42 8.008 17.944C7.448 17.496 6.972 16.88 6.72 16.096C7.224 16.208 7.952 16.18 8.4 16.04C7.476 15.844 6.804 15.34 6.272 14.724C5.74 14.136 5.376 13.324 5.376 12.204C5.404 12.148 5.488 12.232 5.544 12.26C5.964 12.456 6.496 12.624 7.084 12.652C6.132 11.98 5.18 10.692 5.46 8.872C5.544 8.34 5.712 7.892 5.936 7.5C6.188 7.752 6.412 8.032 6.664 8.284C8.4 10.02 10.64 11.28 13.888 11.532C13.44 9.544 14.476 8.06 15.736 7.332C16.436 6.94 17.416 6.744 18.368 6.94C19.236 7.108 19.908 7.556 20.412 8.06C21.364 7.892 22.12 7.528 22.848 7.136C22.512 8.06 21.98 8.788 21.168 9.236C21.952 9.18 22.708 8.9 23.352 8.648C22.876 9.46 22.204 10.104 21.476 10.692Z" fill="white"/>
</g>
<defs>
<clipPath id="clip0_984_13280">
<rect width="28" height="28" fill="white" transform="translate(0 0.5)"/>
</clipPath>
</defs>
</svg>
