<svg width="15" height="14" viewBox="0 0 15 14" fill="none" xmlns="http://www.w3.org/2000/svg">
<path fill-rule="evenodd" clip-rule="evenodd" d="M7.97266 14C11.8386 14 14.9727 10.866 14.9727 7C14.9727 3.13401 11.8386 0 7.97266 0C4.10666 0 0.972656 3.13401 0.972656 7C0.972656 10.866 4.10666 14 7.97266 14ZM8.97266 7C8.97266 7.55228 8.52494 8 7.97266 8C7.42037 8 6.97266 7.55228 6.97266 7C6.97266 6.44772 7.42037 6 7.97266 6C8.52494 6 8.97266 6.44772 8.97266 7ZM11.9727 7C11.9727 9.20914 10.1818 11 7.97266 11C5.76352 11 3.97266 9.20914 3.97266 7C3.97266 4.79086 5.76352 3 7.97266 3C10.1818 3 11.9727 4.79086 11.9727 7Z" fill="#979797"/>
</svg>
