<svg width="15" height="14" viewBox="0 0 15 14" fill="none" xmlns="http://www.w3.org/2000/svg">
<path fill-rule="evenodd" clip-rule="evenodd" d="M7.20117 14C11.0672 14 14.2012 10.866 14.2012 7C14.2012 3.13401 11.0672 0 7.20117 0C3.33518 0 0.201172 3.13401 0.201172 7C0.201172 10.866 3.33518 14 7.20117 14ZM8.20117 7C8.20117 7.55228 7.75346 8 7.20117 8C6.64889 8 6.20117 7.55228 6.20117 7C6.20117 6.44772 6.64889 6 7.20117 6C7.75346 6 8.20117 6.44772 8.20117 7ZM11.2012 7C11.2012 9.20914 9.41031 11 7.20117 11C4.99203 11 3.20117 9.20914 3.20117 7C3.20117 4.79086 4.99203 3 7.20117 3C9.41031 3 11.2012 4.79086 11.2012 7Z" fill="#979797"/>
</svg>
