<svg width="15" height="14" viewBox="0 0 15 14" fill="none" xmlns="http://www.w3.org/2000/svg">
<mask id="path-1-inside-1_2553_35400" fill="white">
<path fill-rule="evenodd" clip-rule="evenodd" d="M7.20117 14C11.0672 14 14.2012 10.866 14.2012 7C14.2012 3.13401 11.0672 0 7.20117 0C3.33518 0 0.201172 3.13401 0.201172 7C0.201172 10.866 3.33518 14 7.20117 14ZM8.70117 4.5C8.70117 3.67157 8.0296 3 7.20117 3C6.37275 3 5.70117 3.67157 5.70117 4.5L5.70117 9.5C5.70117 10.3284 6.37274 11 7.20117 11C8.0296 11 8.70117 10.3284 8.70117 9.5V4.5Z"/>
</mask>
<path fill-rule="evenodd" clip-rule="evenodd" d="M7.20117 14C11.0672 14 14.2012 10.866 14.2012 7C14.2012 3.13401 11.0672 0 7.20117 0C3.33518 0 0.201172 3.13401 0.201172 7C0.201172 10.866 3.33518 14 7.20117 14ZM8.70117 4.5C8.70117 3.67157 8.0296 3 7.20117 3C6.37275 3 5.70117 3.67157 5.70117 4.5L5.70117 9.5C5.70117 10.3284 6.37274 11 7.20117 11C8.0296 11 8.70117 10.3284 8.70117 9.5V4.5Z" fill="#00A337"/>
<path d="M5.70117 4.5H7.70117H5.70117ZM5.70117 9.5H3.70117H5.70117ZM12.2012 7C12.2012 9.76142 9.9626 12 7.20117 12V16C12.1717 16 16.2012 11.9706 16.2012 7H12.2012ZM7.20117 2C9.9626 2 12.2012 4.23858 12.2012 7H16.2012C16.2012 2.02944 12.1717 -2 7.20117 -2V2ZM2.20117 7C2.20117 4.23858 4.43975 2 7.20117 2V-2C2.23061 -2 -1.79883 2.02944 -1.79883 7H2.20117ZM7.20117 12C4.43975 12 2.20117 9.76142 2.20117 7H-1.79883C-1.79883 11.9706 2.23061 16 7.20117 16V12ZM7.20117 5C6.92503 5 6.70117 4.77614 6.70117 4.5H10.7012C10.7012 2.567 9.13417 1 7.20117 1V5ZM7.70117 4.5C7.70117 4.77614 7.47731 5 7.20117 5V1C5.26818 1 3.70117 2.567 3.70117 4.5H7.70117ZM7.70117 9.5L7.70117 4.5H3.70117L3.70117 9.5H7.70117ZM7.20117 9C7.47731 9 7.70117 9.22386 7.70117 9.5H3.70117C3.70117 11.433 5.26818 13 7.20117 13V9ZM6.70117 9.5C6.70117 9.22386 6.92503 9 7.20117 9V13C9.13417 13 10.7012 11.433 10.7012 9.5H6.70117ZM6.70117 4.5V9.5H10.7012V4.5H6.70117Z" fill="#00A337" mask="url(#path-1-inside-1_2553_35400)"/>
</svg>
