<svg width="15" height="14" viewBox="0 0 15 14" fill="none" xmlns="http://www.w3.org/2000/svg">
<mask id="path-1-inside-1_2618_3819" fill="white">
<path fill-rule="evenodd" clip-rule="evenodd" d="M7.97266 14C11.8386 14 14.9727 10.866 14.9727 7C14.9727 3.13401 11.8386 0 7.97266 0C4.10666 0 0.972656 3.13401 0.972656 7C0.972656 10.866 4.10666 14 7.97266 14ZM9.47266 4.5C9.47266 3.67157 8.80108 3 7.97266 3C7.14423 3 6.47266 3.67157 6.47266 4.5L6.47266 9.5C6.47266 10.3284 7.14423 11 7.97266 11C8.80108 11 9.47266 10.3284 9.47266 9.5V4.5Z"/>
</mask>
<path fill-rule="evenodd" clip-rule="evenodd" d="M7.97266 14C11.8386 14 14.9727 10.866 14.9727 7C14.9727 3.13401 11.8386 0 7.97266 0C4.10666 0 0.972656 3.13401 0.972656 7C0.972656 10.866 4.10666 14 7.97266 14ZM9.47266 4.5C9.47266 3.67157 8.80108 3 7.97266 3C7.14423 3 6.47266 3.67157 6.47266 4.5L6.47266 9.5C6.47266 10.3284 7.14423 11 7.97266 11C8.80108 11 9.47266 10.3284 9.47266 9.5V4.5Z" fill="#00A337"/>
<path d="M6.47266 4.5H8.47266H6.47266ZM6.47266 9.5H4.47266H6.47266ZM12.9727 7C12.9727 9.76142 10.7341 12 7.97266 12V16C12.9432 16 16.9727 11.9706 16.9727 7H12.9727ZM7.97266 2C10.7341 2 12.9727 4.23858 12.9727 7H16.9727C16.9727 2.02944 12.9432 -2 7.97266 -2V2ZM2.97266 7C2.97266 4.23858 5.21123 2 7.97266 2V-2C3.00209 -2 -1.02734 2.02944 -1.02734 7H2.97266ZM7.97266 12C5.21123 12 2.97266 9.76142 2.97266 7H-1.02734C-1.02734 11.9706 3.00209 16 7.97266 16V12ZM7.97266 5C7.69651 5 7.47266 4.77614 7.47266 4.5H11.4727C11.4727 2.567 9.90565 1 7.97266 1V5ZM8.47266 4.5C8.47266 4.77614 8.2488 5 7.97266 5V1C6.03966 1 4.47266 2.567 4.47266 4.5H8.47266ZM8.47266 9.5L8.47266 4.5H4.47266L4.47266 9.5H8.47266ZM7.97266 9C8.2488 9 8.47266 9.22386 8.47266 9.5H4.47266C4.47266 11.433 6.03966 13 7.97266 13V9ZM7.47266 9.5C7.47266 9.22386 7.69651 9 7.97266 9V13C9.90565 13 11.4727 11.433 11.4727 9.5H7.47266ZM7.47266 4.5V9.5H11.4727V4.5H7.47266Z" fill="#00A337" mask="url(#path-1-inside-1_2618_3819)"/>
</svg>
