<svg width="12" height="12" viewBox="0 0 12 12" fill="none" xmlns="http://www.w3.org/2000/svg">
<path fill-rule="evenodd" clip-rule="evenodd" d="M3.17666 1.41176C3.17666 0.631434 3.80878 0 4.58842 0H10.5884C11.3681 0 12.0002 0.631434 12.0002 1.41176V7.41176C12.0002 7.90395 11.7486 8.33686 11.3672 8.59053C11.144 8.73805 10.8762 8.82353 10.5884 8.82353H9.88254V3.52941C9.88254 2.74908 9.25042 2.11765 8.47078 2.11765H3.17666V1.41176ZM1.41176 3.17578C0.632069 3.17578 0 3.80785 0 4.58755V10.5875C0 11.3672 0.632069 11.9993 1.41176 11.9993H7.41176C8.19146 11.9993 8.82353 11.3672 8.82353 10.5875V4.58755C8.82353 3.80785 8.19146 3.17578 7.41176 3.17578H1.41176Z" fill="white"/>
</svg>
