<svg width="16" height="16" viewBox="0 0 16 16" fill="none" xmlns="http://www.w3.org/2000/svg">
<path d="M10.0702 14.8516H7.70024C7.03024 14.8516 5.48025 14.8516 4.31025 14.8516C2.31025 14.8516 2.09024 13.4716 1.85024 11.9216C1.7693 11.2581 1.72922 10.5901 1.73024 9.92163C1.28285 9.93428 0.841479 9.81612 0.460245 9.58163C0.0802449 9.31163 -0.0597551 8.58163 0.0302449 7.36163C0.120245 6.14163 0.150245 5.71163 0.670245 5.36163C1.05945 5.20192 1.48099 5.13681 1.90024 5.17163C1.94024 4.61163 2.01024 4.07163 2.01024 3.68163C2.24024 1.61163 3.16024 1.20163 4.01024 1.08163C4.62024 0.981633 7.41025 1.00163 8.01025 1.00163C8.61025 1.00163 11.3402 1.00163 11.8602 1.07163C12.8602 1.20163 13.7602 1.61163 13.9802 3.69163C13.9802 4.11163 14.0702 4.61163 14.1102 5.17163C14.5317 5.12951 14.9567 5.20207 15.3402 5.38163C15.8602 5.71163 15.9402 6.11163 15.9802 7.38163C16.0202 8.65163 15.9302 9.30163 15.5502 9.57163C15.4602 9.64163 15.2102 9.82163 14.2802 9.86163C14.2816 10.5301 14.2415 11.1981 14.1602 11.8616C13.9202 13.4216 13.7202 14.7716 11.7002 14.8016L10.0702 14.8516ZM8.51025 13.8516C9.24025 13.8516 10.6302 13.8516 11.6902 13.8516C12.7502 13.8516 12.9102 13.5816 13.1802 11.7716C13.2656 10.9813 13.3024 10.1865 13.2902 9.39163V8.89163H13.8202C14.2214 8.9152 14.6236 8.87126 15.0102 8.76163C15.0429 8.32224 15.0429 7.88103 15.0102 7.44163C15.0383 7.04763 14.9977 6.65174 14.8902 6.27163C14.4979 6.17605 14.093 6.14231 13.6902 6.17163H13.2102V5.69163C13.1102 4.98163 13.0102 4.32163 13.0102 3.79163C12.8402 2.21163 12.2802 2.13163 11.8302 2.07163H11.7302C11.3902 2.02163 9.27025 2.01163 8.03025 2.02163C6.79025 2.03163 4.65025 2.00163 4.31025 2.07163H4.20024C3.75024 2.13163 3.20024 2.21163 3.02024 3.79163C3.02024 4.32163 2.91024 4.98163 2.86024 5.71163V6.19163H2.38024C1.98885 6.17114 1.5964 6.19462 1.21024 6.26163C1.11024 6.32163 1.01024 6.58163 1.01024 7.41163C0.953076 7.88219 0.97675 8.35905 1.08024 8.82163C1.08024 8.82163 1.49024 8.88163 2.18024 8.88163H2.71024V9.38163C2.69835 10.1731 2.73509 10.9646 2.82024 11.7516C3.09024 13.5616 3.27025 13.8216 4.31025 13.8316C5.81025 13.8316 7.99024 13.8316 7.99024 13.8316H8.49024L8.51025 13.8516Z" fill="#7B7B7B"/>
</svg>
