<svg width="16" height="16" viewBox="0 0 16 16" fill="none" xmlns="http://www.w3.org/2000/svg">
<path fill-rule="evenodd" clip-rule="evenodd" d="M5.05481 4L7.01954 6.06296L6.28882 6.75889L4.8899 5.29003L3.78061 6.15698C4.76053 6.40794 5.54892 7.13708 5.88243 8.08105H7.15082C7.54813 6.87254 8.68581 6 10.0273 6C10.6129 6 11.1598 6.16631 11.6231 6.45428L13.9148 4.35352L15.9994 6.4655L15.2812 7.17436L13.8798 5.75452L12.3834 7.12626C12.8032 7.6459 13.0546 8.30723 13.0546 9.02728C13.0546 10.6992 11.6992 12.0546 10.0273 12.0546C8.37637 12.0546 7.03411 10.733 7.00064 9.09015H6.05456C6.05436 10.7619 4.69907 12.1171 3.02728 12.1171C1.35536 12.1171 0 10.7617 0 9.08978C0 7.65896 0.992642 6.45998 2.32684 6.14394L5.05481 4ZM8 8.9375C8 7.83293 8.89543 6.9375 10 6.9375C11.1046 6.9375 12 7.83293 12 8.9375C12 10.0421 11.1046 10.9375 10 10.9375C8.89543 10.9375 8 10.0421 8 8.9375ZM1 9C1 7.89543 1.89543 7 3 7C4.10457 7 5 7.89543 5 9C5 10.1046 4.10457 11 3 11C1.89543 11 1 10.1046 1 9Z" fill="#7B7B7B"/>
</svg>
