<svg width="16" height="16" viewBox="0 0 16 16" fill="none" xmlns="http://www.w3.org/2000/svg">
<path fill-rule="evenodd" clip-rule="evenodd" d="M8.3296 15.501L8.32868 15.5001L8.32254 15.4932C8.21559 15.4977 8.10806 15.5 8 15.5C7.89194 15.5 7.78443 15.4977 7.67749 15.4932C7.6705 15.5011 7.67045 15.501 7.6704 15.501L7.66999 15.5006L7.66895 15.4997L7.66606 15.4972L7.6608 15.4925C3.67609 15.3151 0.5 12.0285 0.5 8C0.5 3.97153 3.67611 0.684877 7.66083 0.507532L7.66606 0.502861L7.66895 0.500307L7.66999 0.499394L7.6704 0.49903C7.67045 0.498987 7.6705 0.498944 7.67746 0.50681C7.78441 0.502285 7.89194 0.5 8 0.5C8.10805 0.5 8.21558 0.502285 8.32252 0.50681C8.3295 0.498916 8.32955 0.498959 8.3296 0.499002L8.33002 0.499366L8.33105 0.500278L8.33394 0.502833L8.3392 0.507534C12.3239 0.684896 15.5 3.97154 15.5 8C15.5 12.0285 12.3239 15.3151 8.33917 15.4925L8.33394 15.4971L8.33105 15.4997L8.33001 15.5006L8.3296 15.501ZM14.4811 8.5C14.3868 9.73894 13.9452 10.8808 13.2535 11.8284C13.1917 11.7832 13.1085 11.725 13.0043 11.6578C12.7662 11.5044 12.4177 11.3038 11.9631 11.1046C11.7138 10.9953 11.4327 10.8864 11.1206 10.786C11.3138 10.0926 11.4488 9.32902 11.4882 8.5H14.4811ZM14.4811 7.5C14.3796 6.16686 13.8761 4.94613 13.0914 3.95885L13.0476 3.99452C12.8097 4.18616 12.4601 4.43778 12.0031 4.68828C11.736 4.83468 11.432 4.98073 11.0923 5.11418C11.3006 5.83389 11.4469 6.631 11.4882 7.5H14.4811ZM10.4869 7.5C10.4473 6.74568 10.3202 6.05154 10.1402 5.42182C9.51186 5.58313 8.79747 5.6875 8.00092 5.6875C7.20365 5.6875 6.48869 5.58295 5.85995 5.42138C5.67986 6.05123 5.55272 6.7455 5.51309 7.5H10.4869ZM10.4869 8.5H5.51309C5.55172 9.23541 5.67348 9.9136 5.84637 10.5307C6.47763 10.3984 7.19699 10.3125 8.00051 10.3125C8.80362 10.3125 9.52265 10.3983 10.1537 10.5305C10.3265 9.91345 10.4483 9.23532 10.4869 8.5ZM4.51183 8.5C4.55117 9.32914 4.68618 10.0928 4.87946 10.7863C4.56773 10.8867 4.28695 10.9954 4.03791 11.1046C3.58335 11.3038 3.23484 11.5044 2.99672 11.6578C2.89211 11.7252 2.80871 11.7836 2.74687 11.8289C2.05492 10.8812 1.61321 9.73915 1.51894 8.5H4.51183ZM4.51183 7.5C4.55307 6.63074 4.69948 5.83342 4.90793 5.11354C4.56882 4.98026 4.26542 4.83444 3.99875 4.68828C3.5417 4.43778 3.19215 4.18616 2.95427 3.99452L2.90932 3.95794C2.12423 4.94538 1.62039 6.16645 1.51894 7.5H4.51183ZM12.4626 12.4984C12.5165 12.5331 12.5627 12.5644 12.6011 12.5912C11.7268 13.4675 10.6037 14.0955 9.34683 14.3603C9.53185 14.1152 9.72892 13.832 9.92583 13.512C10.2349 13.0098 10.5444 12.4155 10.8063 11.7353C11.088 11.8257 11.34 11.9233 11.5616 12.0204C11.9625 12.1962 12.2643 12.3706 12.4626 12.4984ZM9.07417 12.9879C9.33861 12.5582 9.6026 12.0559 9.83026 11.4853C9.29121 11.3801 8.68043 11.3125 8.00051 11.3125C7.32018 11.3125 6.70909 11.3801 6.1698 11.4855C6.39745 12.056 6.66142 12.5583 6.92583 12.988C7.28306 13.5685 7.63968 14.0139 7.90495 14.3124C7.93815 14.3497 7.96989 14.3847 7.99999 14.4174C8.0301 14.3847 8.06184 14.3497 8.09505 14.3123C8.36032 14.0139 8.71694 13.5684 9.07417 12.9879ZM4.4394 12.0204C4.66079 11.9234 4.91249 11.8259 5.19383 11.7356C5.45563 12.4157 5.76515 13.0099 6.07417 13.5121C6.27107 13.832 6.46813 14.1153 6.65315 14.3603C5.39648 14.0955 4.27358 13.4677 3.39928 12.5917C3.43783 12.5647 3.48423 12.5333 3.53838 12.4984C3.73673 12.3706 4.03853 12.1962 4.4394 12.0204ZM12.4095 3.22438C11.5652 2.44444 10.5137 1.88558 9.34685 1.63972C9.53187 1.88475 9.72893 2.16797 9.92583 2.48794C10.22 2.96598 10.5146 3.52744 10.7681 4.167C11.0492 4.05454 11.3009 3.93279 11.5225 3.81135C11.9138 3.59689 12.2109 3.3835 12.4095 3.22438ZM9.81344 4.4728C9.58965 3.91948 9.33212 3.4312 9.07417 3.01204C8.71694 2.43154 8.36032 1.98607 8.09505 1.68764C8.06185 1.6503 8.03012 1.61528 8.00001 1.58262C7.9699 1.61529 7.93816 1.65031 7.90495 1.68767C7.63968 1.9861 7.28306 2.43156 6.92583 3.01206C6.66795 3.43112 6.41049 3.91925 6.18674 4.4724C6.72133 4.60344 7.32687 4.6875 8.00092 4.6875C8.67427 4.6875 9.27925 4.60361 9.81344 4.4728ZM5.23214 4.16637C5.48556 3.52708 5.78009 2.96584 6.07417 2.48797C6.27108 2.16798 6.46815 1.88475 6.65318 1.63971C5.48669 1.88549 4.43547 2.44406 3.59134 3.22359C3.78996 3.3828 4.08744 3.59654 4.47938 3.81135C4.70053 3.93257 4.95166 4.05408 5.23214 4.16637Z" fill="#7B7B7B"/>
</svg>
