<svg width="30" height="30" viewBox="0 0 30 30" fill="none" xmlns="http://www.w3.org/2000/svg">
<rect width="30" height="30" rx="15" fill="white"/>
<path fill-rule="evenodd" clip-rule="evenodd" d="M24.9201 7.58948C24.2291 6.73825 23.2035 6.25 22.1069 6.25H19.5687L19.1257 8.35292H22.1069C22.5667 8.35292 22.9968 8.55701 23.2862 8.91481C23.5755 9.2713 23.6879 9.73498 23.5936 10.1845L23.1505 12.2887H25.2999L25.6525 10.6185C25.8773 9.5451 25.6112 8.44071 24.9201 7.58948ZM11.123 13.3207C11.123 12.7511 11.5853 12.2887 12.155 12.2887C12.7247 12.2887 13.1858 12.7511 13.187 13.3207C13.187 13.8904 12.7247 14.3528 12.155 14.3528C11.5853 14.3528 11.123 13.8904 11.123 13.3207ZM20.9543 13.4267C20.9543 14.0552 20.4449 14.5648 19.8164 14.5648C19.1879 14.5648 18.6784 14.0552 18.6784 13.4267C18.6784 12.7982 19.1879 12.2887 19.8164 12.2887C20.4449 12.2887 20.9543 12.7982 20.9543 13.4267ZM18.5865 21.6471C20.0914 21.6471 21.4076 20.5789 21.7176 19.1063L21.9979 17.7694H24.1472L23.7752 19.539C23.2624 21.9791 21.0795 23.75 18.5865 23.75H15.8844L16.3274 21.6471H18.5865ZM6.22524 10.4609L5.84032 12.2901H7.98968L8.28288 10.8949C8.59292 9.42246 9.90914 8.35416 11.4139 8.35416H13.5787L14.0218 6.25131H11.4139C8.92097 6.25 6.73807 8.02093 6.22524 10.4609ZM6.40651 19.8142C6.31223 20.2637 6.4246 20.7274 6.71393 21.0839C7.00326 21.4417 7.4334 21.6458 7.89321 21.6471H10.7801L10.3371 23.75H7.89321C6.79655 23.75 5.77097 23.2618 5.07994 22.4105C4.38891 21.5593 4.12152 20.4548 4.34757 19.3814L4.52577 18.5367L6.79917 17.9503L6.40651 19.8142Z" fill="#8CDD00"/>
<path d="M15.2665 11.4426L14.1259 16.8652C14.02 17.3716 13.5666 17.7384 13.0499 17.7384C12.7154 17.7384 12.4041 17.5886 12.1936 17.329C12.0295 17.1261 11.9469 16.8768 11.9507 16.6211L9.89053 17.1533C9.97833 17.6932 10.2005 18.2086 10.5544 18.6491C11.1654 19.4073 12.0748 19.8426 13.0487 19.8426C14.5548 19.8426 15.8723 18.7731 16.1823 17.2992L17.4145 11.444H15.2665V11.4426Z" fill="#C1C1C1"/>
</svg>
