<svg width="30" height="30" viewBox="0 0 30 30" fill="none" xmlns="http://www.w3.org/2000/svg">
<circle cx="15" cy="15" r="15" fill="#D9D9D9"/>
<path d="M24.004 6L16.1998 11.9544L17.6433 8.44125L24.004 6Z" fill="#E2761B"/>
<path d="M5.9881 6L13.7296 12.0107L12.3567 8.44125L5.9881 6Z" fill="#E4761B"/>
<path d="M21.196 19.8023L19.1176 23.0738L23.5648 24.3305L24.8433 19.8749L21.196 19.8023Z" fill="#E4761B"/>
<path d="M5.16455 19.8749L6.4352 24.3305L10.8824 23.0738L8.80404 19.8023L5.16455 19.8749Z" fill="#E4761B"/>
<path d="M10.6315 14.2748L9.39201 16.2008L13.8077 16.4023L13.651 11.5275L10.6315 14.2748Z" fill="#E4761B"/>
<path d="M19.3606 14.2748L16.302 11.4711L16.1998 16.4023L20.608 16.2008L19.3606 14.2748Z" fill="#E4761B"/>
<path d="M10.8824 23.0738L13.5334 21.7441L11.2431 19.9069L10.8824 23.0738Z" fill="#E4761B"/>
<path d="M16.4587 21.7441L19.1176 23.0738L18.749 19.9069L16.4587 21.7441Z" fill="#E4761B"/>
<path d="M19.1176 23.0738L16.4587 21.7441L16.6706 23.525L16.6469 24.2741L19.1176 23.0738Z" fill="#D7C1B3"/>
<path d="M10.8824 23.0738L13.3531 24.2741L13.3373 23.525L13.5334 21.7441L10.8824 23.0738Z" fill="#D7C1B3"/>
<path d="M13.3922 18.7308L11.1804 18.062L12.7411 17.3286L13.3922 18.7308Z" fill="#233447"/>
<path d="M16.5999 18.7308L17.2511 17.3286L18.8196 18.062L16.5999 18.7308Z" fill="#233447"/>
<path d="M10.8824 23.0738L11.2589 19.8023L8.80404 19.8749L10.8824 23.0738Z" fill="#CD6116"/>
<path d="M18.7411 19.8023L19.1176 23.0738L21.196 19.8749L18.7411 19.8023Z" fill="#CD6116"/>
<path d="M20.608 16.2008L16.1998 16.4023L16.6078 18.7308L17.2589 17.3286L18.8275 18.062L20.608 16.2008Z" fill="#CD6116"/>
<path d="M11.1804 18.062L12.7489 17.3286L13.3922 18.7308L13.8077 16.4023L9.39201 16.2008L11.1804 18.062Z" fill="#CD6116"/>
<path d="M9.39201 16.2008L11.2431 19.9069L11.1804 18.062L9.39201 16.2008Z" fill="#E4751F"/>
<path d="M18.8275 18.062L18.749 19.9069L20.608 16.2008L18.8275 18.062Z" fill="#E4751F"/>
<path d="M13.8077 16.4023L13.3922 18.7308L13.9099 21.4782L14.0275 17.8605L13.8077 16.4023Z" fill="#E4751F"/>
<path d="M16.1998 16.4023L15.9883 17.8524L16.0822 21.4782L16.6078 18.7308L16.1998 16.4023Z" fill="#E4751F"/>
<path d="M16.6078 18.7308L16.0822 21.4782L16.4587 21.7441L18.749 19.9069L18.8275 18.062L16.6078 18.7308Z" fill="#F6851B"/>
<path d="M11.1804 18.062L11.2431 19.9069L13.5334 21.7441L13.9099 21.4782L13.3922 18.7308L11.1804 18.062Z" fill="#F6851B"/>
<path d="M16.6469 24.2741L16.6706 23.525L16.4745 23.3474H13.5176L13.3373 23.525L13.3531 24.2741L10.8824 23.0738L11.7451 23.7986L13.494 25.0476H16.4981L18.2549 23.7986L19.1176 23.0738L16.6469 24.2741Z" fill="#C0AD9E"/>
<path d="M16.4587 21.7441L16.0822 21.4782H13.9099L13.5334 21.7441L13.3373 23.525L13.5176 23.3474H16.4745L16.6706 23.525L16.4587 21.7441Z" fill="#161616"/>
<path d="M24.3335 12.3411L25 9.0538L24.004 6L16.4587 11.7529L19.3606 14.2748L23.4626 15.5076L24.3726 14.4199L23.9803 14.1301L24.6078 13.5419L24.1216 13.1551L24.749 12.6634L24.3335 12.3411Z" fill="#763D16"/>
<path d="M5 9.0538L5.6665 12.3411L5.24308 12.6634L5.87051 13.1551L5.39224 13.5419L6.01967 14.1301L5.62743 14.4199L6.52951 15.5076L10.6315 14.2748L13.5334 11.7529L5.9881 6L5 9.0538Z" fill="#763D16"/>
<path d="M23.4626 15.5076L19.3606 14.2748L20.608 16.2008L18.749 19.9069L21.196 19.8749H24.8433L23.4626 15.5076Z" fill="#F6851B"/>
<path d="M10.6315 14.2748L6.52951 15.5076L5.16455 19.8749H8.80404L11.2431 19.9069L9.39201 16.2008L10.6315 14.2748Z" fill="#F6851B"/>
<path d="M16.1998 16.4023L16.4587 11.7529L17.6512 8.44125H12.3567L13.5334 11.7529L13.8077 16.4023L13.902 17.8686L13.9099 21.4782H16.0822L16.098 17.8686L16.1998 16.4023Z" fill="#F6851B"/>
</svg>
