<svg width="40" height="40" viewBox="0 0 40 40" fill="none" xmlns="http://www.w3.org/2000/svg">
<rect width="40" height="40" rx="16" fill="white"/>
<path fill-rule="evenodd" clip-rule="evenodd" d="M15.4658 9H8.53326C8.2387 9 8 9.22341 8 9.49899V15.9859C8 16.2615 8.2387 16.4849 8.53326 16.4849H15.4658C15.7604 16.4849 15.9993 16.2615 15.9993 15.9859V9.49899C15.9993 9.22341 15.7604 9 15.4658 9ZM23.4632 16.4855H16.5305C16.2361 16.4855 15.9972 16.7089 15.9972 16.9844V23.4714C15.9972 23.7469 16.2361 23.9704 16.5305 23.9704H23.4632C23.7578 23.9704 23.9965 23.7469 23.9965 23.4714V16.9844C23.9965 16.7089 23.7578 16.4855 23.4632 16.4855ZM24.534 9H31.4667C31.7613 9 32 9.22341 32 9.49899V15.9859C32 16.2615 31.7613 16.4849 31.4667 16.4849H24.534C24.2396 16.4849 24.0007 16.2615 24.0007 15.9859V9.49899C24.0007 9.22341 24.2396 9 24.534 9ZM15.4658 23.9702H8.53326C8.2387 23.9702 8 24.1936 8 24.4692V30.9562C8 31.2317 8.2387 31.4552 8.53326 31.4552H15.4658C15.7604 31.4552 15.9993 31.2317 15.9993 30.9562V24.4692C15.9993 24.1936 15.7604 23.9702 15.4658 23.9702ZM24.534 23.9702H31.4667C31.7613 23.9702 32 24.1936 32 24.4692V30.9562C32 31.2317 31.7613 31.4552 31.4667 31.4552H24.534C24.2396 31.4552 24.0007 31.2317 24.0007 30.9562V24.4692C24.0007 24.1936 24.2396 23.9702 24.534 23.9702Z" fill="black"/>
</svg>
