<svg width="48" height="48" viewBox="0 0 48 48" fill="none" xmlns="http://www.w3.org/2000/svg">
<g filter="url(#filter0_d_418_6250)">
<rect x="18" y="16" width="19.7988" height="2.66667" transform="rotate(45 18 16)" fill="#7B7B7B"/>
<rect x="16" y="30" width="19.7988" height="2.66667" transform="rotate(-45 16 30)" fill="#7B7B7B"/>
<path d="M12 5H36.0001V3H12V5ZM43.0001 12V36H45.0001V12H43.0001ZM36.0001 43H12V45H36.0001V43ZM5 36V12H3V36H5ZM12 43C8.134 43 5 39.866 5 36H3C3 40.9706 7.02943 45 12 45V43ZM43.0001 36C43.0001 39.866 39.8661 43 36.0001 43V45C40.9707 45 45.0001 40.9706 45.0001 36H43.0001ZM36.0001 5C39.8661 5 43.0001 8.13401 43.0001 12H45.0001C45.0001 7.02944 40.9707 3 36.0001 3V5ZM12 3C7.02944 3 3 7.02944 3 12H5C5 8.13401 8.13401 5 12 5V3Z" fill="#7B7B7B"/>
</g>
<defs>
<filter id="filter0_d_418_6250" x="0" y="0" width="48" height="48" filterUnits="userSpaceOnUse" color-interpolation-filters="sRGB">
<feFlood flood-opacity="0" result="BackgroundImageFix"/>
<feColorMatrix in="SourceAlpha" type="matrix" values="0 0 0 0 0 0 0 0 0 0 0 0 0 0 0 0 0 0 127 0" result="hardAlpha"/>
<feOffset/>
<feGaussianBlur stdDeviation="2"/>
<feComposite in2="hardAlpha" operator="out"/>
<feColorMatrix type="matrix" values="0 0 0 0 0 0 0 0 0 0 0 0 0 0 0 0 0 0 0.25 0"/>
<feBlend mode="normal" in2="BackgroundImageFix" result="effect1_dropShadow_418_6250"/>
<feBlend mode="normal" in="SourceGraphic" in2="effect1_dropShadow_418_6250" result="shape"/>
</filter>
</defs>
</svg>
