<svg width="30" height="30" viewBox="0 0 30 30" fill="none" xmlns="http://www.w3.org/2000/svg">
<circle cx="15" cy="15" r="15" fill="#D9D9D9"/>
<path fill-rule="evenodd" clip-rule="evenodd" d="M22.96 7.36818C21.5053 7.03837 20.0183 6.8718 18.5267 6.87158C18.3177 6.87158 18.1049 6.87538 17.8934 6.88425H17.6983L17.8541 6.77024C18.4644 6.30959 19.1993 6.0434 19.9631 6.00634C20.0366 6 20.105 6 20.1734 6C20.7106 5.99959 21.242 6.11215 21.733 6.3304C22.224 6.54864 22.6636 6.86769 23.0233 7.26683L23.15 7.41125L22.96 7.36818ZM23.9556 10.1476C23.763 10.0893 23.5946 10.0412 23.4388 9.99936C21.1901 9.39791 18.8462 9.2383 16.5368 9.52936L16.4468 9.54203L16.3354 9.55724V9.60791C16.3354 9.65142 16.3333 9.69218 16.3313 9.73127C16.3295 9.76729 16.3278 9.80192 16.3278 9.83594V10.4846L16.462 10.4656L16.6533 10.4402C17.3676 10.3504 18.0867 10.3052 18.8066 10.3047C20.5403 10.3041 22.264 10.5689 23.9176 11.0901L23.9986 11.1154V10.1602L23.9556 10.1476ZM16.8586 11.2346C16.7129 11.2536 16.5558 11.2751 16.3785 11.303L16.3253 11.3106V12.2404L16.3975 12.229C16.6154 12.1936 16.7978 12.167 16.9713 12.1454C17.6246 12.0622 18.2824 12.0199 18.941 12.0187C20.6335 12.0177 22.3148 12.2946 23.9177 12.8384L24 12.8662V11.9022L23.9569 11.8882C21.6673 11.1529 19.244 10.9297 16.8586 11.2346ZM17.5006 14.6461C17.04 14.7035 16.5825 14.7843 16.1301 14.8881L16.0984 14.8957L16.0858 14.9261C15.9578 15.2641 15.7811 15.5816 15.5614 15.8686L15.4461 16.0181L15.6272 15.9662C16.79 15.6287 17.9948 15.4581 19.2055 15.4594C20.8074 15.4571 22.3947 15.7634 23.8808 16.3614L23.9581 16.3931L23.9657 16.3095C23.9885 16.0371 23.9999 15.7647 23.9999 15.5012V15.4227L23.9593 15.4075C21.8999 14.6339 19.6834 14.3726 17.5006 14.6461ZM12.5455 17.3292L12.3872 17.4306C11.1678 18.2111 10.0915 19.1954 9.20533 20.3405C8.7336 20.9472 8.31731 21.595 7.96147 22.2762L7.92347 22.3497L7.86394 22.2914C7.6676 22.0976 7.47127 21.8898 7.2876 21.6757L7.25974 21.6428L7.28 21.6061C8.25337 19.828 9.60869 18.2877 11.2484 17.0961L11.275 17.0771L11.3067 17.0885C11.6442 17.2154 11.9984 17.2922 12.358 17.3165L12.5455 17.3292ZM16.7496 18.33C14.5082 18.9141 12.5238 20.2248 11.1066 22.057C10.6826 22.6015 10.3123 23.1856 10.0008 23.8014L9.9742 23.8546L10.0274 23.8838C10.2617 24.0105 10.5036 24.1258 10.7468 24.2296L10.8 24.2537L10.8266 24.2018C11.1097 23.6439 11.4456 23.1144 11.8298 22.6208C13.1164 20.9732 14.9018 19.7866 16.9189 19.2386C18.936 18.6905 21.0763 18.8104 23.0195 19.5804L23.074 19.6019L23.0981 19.5487C23.2108 19.3092 23.3159 19.061 23.4084 18.8127L23.4287 18.7557L23.3729 18.7329C21.264 17.8983 18.9441 17.7572 16.7496 18.33ZM13.379 24.8442C13.4867 24.6694 13.6134 24.4984 13.74 24.3374C14.6488 23.1684 15.8796 22.2908 17.2808 21.8125C18.682 21.3341 20.1924 21.2761 21.6262 21.6454L21.7238 21.6707L21.6566 21.7467C21.4519 21.9817 21.2354 22.2062 21.0081 22.4195L20.9853 22.441H20.9536C19.7506 22.2171 18.5091 22.328 17.3648 22.7617C16.2205 23.1953 15.2172 23.935 14.4646 24.8999L14.4253 24.9519L14.3886 25H14.3582C14.044 24.9949 13.7286 24.9746 13.4234 24.9404L13.3233 24.9291L13.379 24.8442ZM15.64 24.82C16.7742 23.7285 18.289 23.1218 19.863 23.1288L19.9618 23.1301H20.1506L19.9973 23.239C18.7224 24.1468 17.243 24.7256 15.6906 24.9239L15.5044 24.9467L15.64 24.82ZM10.4606 16.6389L10.396 16.6883V16.6794C8.92625 17.8238 7.69361 19.2438 6.76709 20.86L6.71769 20.9449L6.66196 20.8638C6.49223 20.6218 6.33263 20.3634 6.18823 20.1037L6.17049 20.072L6.18949 20.0403C6.48717 19.5552 6.81108 19.0866 7.15975 18.6367C7.90914 17.6714 8.77204 16.7999 9.72981 16.0409L9.77541 16.0055L9.81341 16.0536C9.98812 16.2523 10.183 16.4323 10.3948 16.5908L10.4606 16.6389ZM8.89878 13.4311L8.87344 13.4489C7.50381 14.423 6.28417 15.5924 5.25333 16.92L5.12667 17.0796L5.10387 16.9365C5.04615 16.5589 5.01146 16.1781 5 15.7963V15.7723L5.02027 15.752C6.11625 14.46 7.38964 13.3297 8.80251 12.3949L8.89878 12.3315V13.4311ZM8.86458 11.3563L8.82784 11.3791C7.46066 12.2251 6.20999 13.2464 5.10767 14.4169L5 14.5297V13.2185L5.019 13.202C6.05392 12.1905 7.19895 11.2981 8.43265 10.5417L8.48078 10.5125L8.51498 10.5581C8.68286 10.7835 8.79918 11.043 8.85571 11.3182L8.86458 11.3563ZM7.68497 10.0234L7.78756 9.95881L7.67484 9.91321C7.44406 9.82085 7.19772 9.77356 6.94914 9.77388C6.65417 9.77308 6.3629 9.83965 6.09755 9.9685C5.8322 10.0973 5.59976 10.2851 5.41795 10.5174C5.14588 10.8603 4.9985 11.2855 5.00001 11.7233V12.0779L5.10386 11.9855C5.90951 11.2624 6.77274 10.6062 7.68497 10.0234ZM22.2558 13.5807C22.2671 13.4674 22.2357 13.354 22.1677 13.2626C22.0998 13.1712 22.0002 13.1085 21.8885 13.0867C20.3361 12.7901 18.7467 12.741 17.179 12.941C16.9194 12.9727 16.6496 13.0145 16.3772 13.0677L16.3253 13.0765V13.6112C16.3253 13.7125 16.3253 13.8189 16.3114 13.9279V14.0102L16.3912 13.9937C16.7015 13.9354 17.0068 13.8873 17.2994 13.8506C17.8876 13.7771 18.4798 13.7399 19.0727 13.7391C19.9595 13.7398 20.8441 13.8247 21.7149 13.9924C21.7776 14.0042 21.842 14.0027 21.9041 13.9881C21.9661 13.9736 22.0245 13.9462 22.0753 13.9078C22.1262 13.8694 22.1686 13.8209 22.1997 13.7652C22.2307 13.7095 22.2498 13.648 22.2558 13.5845V13.5807ZM23.4513 13.477C23.6223 13.5289 23.7908 13.5833 23.9579 13.6416L23.9972 13.6568V14.6309L23.9136 14.6005C23.6722 14.5118 23.4285 14.4299 23.1829 14.3547C23.082 14.3238 22.9948 14.259 22.936 14.1714C22.8771 14.0838 22.8503 13.9785 22.8599 13.8734C22.8661 13.8055 22.8874 13.7398 22.9222 13.6811C22.957 13.6224 23.0045 13.5723 23.0612 13.5343C23.1179 13.4963 23.1823 13.4714 23.2498 13.4615C23.3173 13.4516 23.3862 13.4569 23.4513 13.477ZM18.0856 8.20164C18.0915 8.13597 18.0833 8.06981 18.0613 8.00762C18.0394 7.94544 18.0044 7.88869 17.9586 7.84124C17.9129 7.79379 17.8574 7.75673 17.7961 7.73258C17.7347 7.70844 17.6689 7.69778 17.6031 7.70131C17.3941 7.71144 17.1839 7.72664 16.9699 7.74438H16.9382L16.9217 7.76971C16.7562 8.03737 16.6235 8.32402 16.5266 8.62344L16.4962 8.71464L16.5924 8.70451C16.9471 8.66524 17.3029 8.63611 17.6576 8.61584C17.7675 8.61052 17.8718 8.5657 17.9514 8.48961C18.031 8.41352 18.0805 8.31127 18.0907 8.20164H18.0856ZM23.7048 8.36261C23.8257 8.6527 23.9107 8.95645 23.9582 9.26713L23.9696 9.37228L23.8771 9.34567C23.7264 9.30134 23.587 9.26206 23.4502 9.22532C22.053 8.85216 20.6171 8.64299 19.1714 8.60204C19.1081 8.60047 19.0458 8.5858 18.9885 8.55895C18.9311 8.53211 18.8799 8.49367 18.8382 8.44607C18.7964 8.39846 18.7649 8.34271 18.7458 8.28235C18.7266 8.22198 18.7202 8.1583 18.7268 8.09531C18.7377 7.97975 18.792 7.87261 18.8787 7.7955C18.9655 7.71838 19.0782 7.67703 19.1942 7.67979C20.7039 7.72126 22.2036 7.93851 23.663 8.32714L23.6922 8.33474L23.7048 8.36261ZM9.92836 21.6415C9.8802 21.5937 9.82201 21.557 9.75803 21.5343C9.69404 21.5115 9.62581 21.5032 9.55824 21.51C9.49067 21.5168 9.42544 21.5385 9.36724 21.5735C9.30904 21.6085 9.25932 21.656 9.22164 21.7124C8.98019 22.0801 8.75906 22.4606 8.55927 22.8524L8.53647 22.8981L8.57573 22.9297C8.78597 23.0969 9.00507 23.2578 9.22797 23.4073L9.2875 23.4465L9.3179 23.3832C9.51738 22.9836 9.74025 22.5962 9.98532 22.223C10.0438 22.1346 10.07 22.0288 10.0596 21.9234C10.0493 21.818 10.0029 21.7193 9.92836 21.6441V21.6415ZM16.4803 16.5958C18.9193 16.0055 21.4814 16.1893 23.8111 17.1216L23.858 17.1443L23.8491 17.1938C23.8365 17.2647 23.8238 17.3344 23.8099 17.4041C23.7706 17.5953 23.725 17.7917 23.6731 17.9843L23.6541 18.0527L23.5895 18.0248C22.2426 17.4633 20.7977 17.1752 19.3385 17.1773C18.8694 17.1774 18.4007 17.2066 17.9351 17.2647C15.2027 17.5987 12.6925 18.9381 10.8937 21.0222C10.8527 21.07 10.8022 21.1089 10.7454 21.1364C10.6886 21.1638 10.6268 21.1793 10.5639 21.1818C10.5008 21.1843 10.438 21.1737 10.3793 21.1509C10.3205 21.128 10.2671 21.0932 10.2224 21.0487C10.1386 20.9659 10.0896 20.8541 10.0856 20.7363C10.0815 20.6185 10.1228 20.5036 10.2009 20.4153C11.8467 18.5209 14.0414 17.186 16.4803 16.5958ZM22.6572 20.2266C21.5694 19.8354 20.4166 19.6565 19.2614 19.6996C19.1988 19.7023 19.1376 19.7179 19.0813 19.7453C19.025 19.7727 18.975 19.8113 18.9343 19.8588C18.8936 19.9063 18.863 19.9617 18.8445 20.0214C18.8261 20.0812 18.82 20.1441 18.8269 20.2064C18.8402 20.3215 18.8966 20.4275 18.9846 20.5028C19.0727 20.5783 19.186 20.6176 19.3019 20.613H19.597C20.4721 20.6122 21.3417 20.7525 22.1721 21.0285L22.2152 21.0437L22.2431 21.0044C22.4027 20.7815 22.5509 20.5522 22.6902 20.3166L22.7282 20.2519L22.6572 20.2266ZM18.1417 20.1205C18.1738 20.1756 18.1941 20.2367 18.2012 20.3V20.2873C18.2147 20.4001 18.1856 20.5138 18.1195 20.6062C18.0533 20.6986 17.9551 20.7629 17.844 20.7864C15.9779 21.1891 14.3137 22.2375 13.1447 23.747C12.9031 24.0589 12.6839 24.3874 12.4885 24.7301L12.4657 24.7706L12.4214 24.7605C12.1554 24.701 11.8843 24.63 11.631 24.5477L11.5563 24.5236L11.5918 24.4577C11.833 24.0133 12.1105 23.5896 12.4214 23.1909C13.6062 21.6602 15.2528 20.5523 17.1169 20.0314C17.2959 19.9866 17.4745 19.9444 17.6527 19.9047C17.715 19.8914 17.7794 19.8913 17.8417 19.9044C17.904 19.9175 17.9629 19.9435 18.0146 19.9807C18.0663 20.0179 18.1096 20.0656 18.1417 20.1205ZM9.2875 15.2655C9.16527 15.021 9.07095 14.7636 9.00634 14.498L8.98354 14.4068L8.90755 14.4638C8.49805 14.7754 8.10375 15.106 7.72465 15.4556C7.67894 15.4973 7.64216 15.5479 7.61654 15.6043C7.59092 15.6607 7.57697 15.7217 7.57555 15.7835C7.57413 15.8455 7.58527 15.907 7.60828 15.9645C7.63129 16.022 7.6657 16.0742 7.70945 16.118C7.79357 16.2005 7.90605 16.2476 8.0238 16.2497C8.14156 16.2518 8.25566 16.2088 8.34269 16.1294C8.64074 15.8541 8.94892 15.5915 9.26723 15.3415L9.30649 15.3112L9.2875 15.2655ZM7.11441 16.4689C7.17255 16.4918 7.22538 16.5264 7.2697 16.5705H7.26717C7.35041 16.654 7.3984 16.7662 7.40122 16.8841C7.40406 17.002 7.36151 17.1164 7.28237 17.2038C7.03329 17.4791 6.79435 17.7645 6.56553 18.0601C6.30717 18.3932 6.05387 18.7479 5.81451 19.1127L5.74991 19.2114L5.70558 19.1026C5.58027 18.7959 5.47078 18.4831 5.37757 18.1652L5.3687 18.1361L5.38643 18.112C5.53841 17.8979 5.69166 17.6902 5.84236 17.4964C6.08638 17.1857 6.33968 16.8838 6.60226 16.5908C6.64383 16.544 6.69447 16.5064 6.7511 16.4799C6.80773 16.4535 6.86915 16.4389 6.93162 16.437C6.99409 16.4351 7.05628 16.4459 7.11441 16.4689Z" fill="#7073FF"/>
</svg>
