<svg width="40" height="40" viewBox="0 0 40 40" fill="none" xmlns="http://www.w3.org/2000/svg">
<rect width="40" height="40" rx="16" fill="white"/>
<path fill-rule="evenodd" clip-rule="evenodd" d="M25.7924 11.2346C25.9423 11.3844 26.0264 11.5873 26.0264 11.7989V15.7208C26.0264 15.9327 26.1108 16.1359 26.261 16.2857C26.4111 16.4355 26.6149 16.5197 26.8272 16.5197H31.2267C31.3311 16.5177 31.4348 16.5373 31.5313 16.5771C31.6278 16.6169 31.715 16.6762 31.7876 16.7511C31.8601 16.8261 31.9164 16.9152 31.9527 17.0128C31.9892 17.1105 32.005 17.2146 31.9994 17.3186C31.594 23.114 26.8091 27.7456 20.8278 28.1269C20.7235 28.1321 20.6192 28.1159 20.5216 28.0793C20.4238 28.0427 20.3346 27.9864 20.2595 27.9139C20.1844 27.8416 20.1251 27.7545 20.0851 27.6582C20.0451 27.562 20.0254 27.4585 20.0271 27.3544V23.1338C20.0349 22.9198 20.1201 22.716 20.2671 22.5599C20.4141 22.4039 20.6126 22.3064 20.8262 22.2853C23.3791 21.9552 25.4192 20.0702 25.9156 17.6421C25.9321 17.5376 25.9251 17.4307 25.8951 17.3292C25.8653 17.2277 25.8132 17.1341 25.7425 17.0551C25.6719 16.9762 25.5846 16.9138 25.4869 16.8726C25.3892 16.8314 25.2836 16.8123 25.1777 16.8168H20.8278C20.6158 16.8168 20.4124 16.7329 20.2623 16.5834C20.112 16.4339 20.0275 16.2312 20.0271 16.0196V11.7989C20.0271 11.587 20.1114 11.3838 20.2617 11.234C20.4118 11.0842 20.6155 11 20.8278 11H25.2274C25.4394 11.0004 25.6427 11.0848 25.7924 11.2346ZM13.7655 27.9254C13.9153 27.7756 13.9995 27.5726 13.9995 27.361V23.4309C13.9999 23.2192 14.0845 23.0166 14.2346 22.8671C14.3848 22.7176 14.5882 22.6337 14.8003 22.6337H19.1997C19.3041 22.6356 19.4078 22.6161 19.5043 22.5763C19.6009 22.5364 19.6881 22.4772 19.7606 22.4022C19.8331 22.3272 19.8893 22.2381 19.9258 22.1405C19.9623 22.0429 19.9781 21.9388 19.9724 21.8347C19.5637 16.0394 14.7821 11.4094 8.80091 11.0264C8.6966 11.0212 8.59234 11.0374 8.49457 11.0741C8.39681 11.1107 8.30762 11.167 8.23255 11.2394C8.15747 11.3118 8.0981 11.3989 8.05812 11.4951C8.01814 11.5914 7.99839 11.6948 8.0001 11.7989V16.0196C8.00782 16.2333 8.09285 16.4369 8.23946 16.5929C8.38607 16.7489 8.58434 16.8466 8.79759 16.868C10.0251 17.0162 11.1756 17.5432 12.0883 18.3753C13.001 19.2075 13.6304 20.3032 13.8886 21.5096C13.9062 21.6147 13.9 21.7223 13.8706 21.8247C13.8412 21.9272 13.7892 22.0217 13.7186 22.1016C13.6479 22.1814 13.5602 22.2446 13.462 22.2863C13.3637 22.3281 13.2574 22.3475 13.1507 22.3431H8.79925C8.58731 22.3431 8.38404 22.4271 8.23417 22.5767C8.0843 22.7262 8.0001 22.929 8.0001 23.1404V27.361C8.0001 27.5726 8.08425 27.7756 8.23407 27.9254C8.38389 28.0751 8.58715 28.1595 8.79925 28.16H13.2003C13.4124 28.1595 13.6157 28.0751 13.7655 27.9254Z" fill="black"/>
</svg>
