<svg width="40" height="40" viewBox="0 0 40 40" fill="none" xmlns="http://www.w3.org/2000/svg">
<rect width="40" height="40" rx="16" fill="white"/>
<g clip-path="url(#clip0_4588_16534)">
<path d="M24.4808 8.519L30.2268 14.21C30.7159 14.6934 30.9566 15.1825 30.9491 15.6754C30.9415 16.1683 30.7311 16.6176 30.3197 17.0252C29.8893 17.4517 29.4249 17.6678 28.9282 17.6773C28.4315 17.6849 27.9386 17.446 27.4495 16.9626L21.5728 11.1427C20.9055 10.4811 20.2609 10.0128 19.641 9.73796C19.0211 9.46308 18.369 9.41948 17.6865 9.60905C17.0021 9.79673 16.2685 10.2801 15.4818 11.0574C14.3974 12.1323 13.8799 13.1408 13.933 14.083C13.986 15.0252 14.5244 16.0034 15.5462 17.0138L21.4704 22.883C21.9652 23.3721 22.2078 23.8612 22.2002 24.3465C22.1927 24.8337 21.9803 25.283 21.5614 25.6982C21.1443 26.1114 20.6837 26.3275 20.1832 26.3446C19.6827 26.3617 19.1841 26.1247 18.6912 25.6356L12.9453 19.9446C12.0107 19.0195 11.3358 18.1436 10.9206 17.3171C10.5055 16.4906 10.35 15.556 10.4581 14.5133C10.5548 13.6204 10.841 12.756 11.3187 11.9181C11.7946 11.0801 12.477 10.2233 13.3623 9.34554C14.4164 8.30099 15.423 7.50099 16.3822 6.94365C17.3396 6.3863 18.2666 6.0773 19.1614 6.01284C20.0581 5.94839 20.9415 6.12658 21.8154 6.54744C22.6893 6.96829 23.5766 7.62422 24.4789 8.519H24.4808Z" fill="url(#paint0_linear_4588_16534)"/>
<path d="M15.4665 31.4825L9.72245 25.7915C9.23335 25.3061 8.99259 24.8189 9.00017 24.3261C9.00776 23.8332 9.21818 23.3839 9.62956 22.9763C10.0599 22.5498 10.5243 22.3336 11.021 22.3242C11.5177 22.3166 12.0106 22.5535 12.4997 23.0388L18.3746 28.8588C19.0438 29.5204 19.6864 29.9886 20.3063 30.2635C20.9262 30.5384 21.5784 30.5801 22.2627 30.3924C22.9471 30.2047 23.6807 29.7213 24.4675 28.9422C25.5518 27.8673 26.0694 26.8588 26.0163 25.9166C25.9632 24.9744 25.4248 23.9962 24.403 22.9839L21.2466 19.8843C20.7518 19.3952 20.5092 18.9061 20.5168 18.4208C20.5243 17.9336 20.7367 17.4843 21.1556 17.0692C21.5727 16.6559 22.0333 16.4398 22.5338 16.4227C23.0343 16.4057 23.5329 16.6426 24.0258 17.1317L27.0021 20.0531C27.9367 20.9782 28.6115 21.854 29.0267 22.6806C29.4419 23.5071 29.5973 24.4417 29.4893 25.4843C29.3926 26.3772 29.1063 27.2417 28.6286 28.0796C28.1528 28.9175 27.4703 29.7744 26.585 30.6521C25.531 31.6967 24.5243 32.4967 23.5651 33.054C22.6059 33.6114 21.6788 33.9223 20.7822 33.9867C19.8855 34.0512 19.0021 33.873 18.1281 33.4521C17.2542 33.0313 16.367 32.3753 15.4646 31.4806L15.4665 31.4825Z" fill="url(#paint1_linear_4588_16534)"/>
<path d="M19.0494 16.798C20.2147 16.798 21.1594 15.8534 21.1594 14.6881C21.1594 13.5228 20.2147 12.5781 19.0494 12.5781C17.8841 12.5781 16.9395 13.5228 16.9395 14.6881C16.9395 15.8534 17.8841 16.798 19.0494 16.798Z" fill="url(#paint2_radial_4588_16534)"/>
</g>
<defs>
<linearGradient id="paint0_linear_4588_16534" x1="29.2817" y1="11.8346" x2="11.4747" y2="19.7481" gradientUnits="userSpaceOnUse">
<stop stop-color="#201C1B"/>
<stop offset="0.36" stop-color="#77390D"/>
<stop offset="0.67" stop-color="#EA8101"/>
<stop offset="1" stop-color="#F4B852"/>
</linearGradient>
<linearGradient id="paint1_linear_4588_16534" x1="11.1578" y1="28.4013" x2="31.7929" y2="22.2599" gradientUnits="userSpaceOnUse">
<stop stop-color="#1F1D1C"/>
<stop offset="0.37" stop-color="#77390D"/>
<stop offset="0.67" stop-color="#EA8101"/>
<stop offset="1" stop-color="#F4FB52"/>
</linearGradient>
<radialGradient id="paint2_radial_4588_16534" cx="0" cy="0" r="1" gradientUnits="userSpaceOnUse" gradientTransform="translate(19.0494 14.69) scale(2.10995)">
<stop stop-color="#F4B852"/>
<stop offset="0.33" stop-color="#EA8101"/>
<stop offset="0.64" stop-color="#77390D"/>
<stop offset="1" stop-color="#211C1D"/>
</radialGradient>
<clipPath id="clip0_4588_16534">
<rect width="21.9469" height="28" fill="white" transform="translate(9 6)"/>
</clipPath>
</defs>
</svg>
