<svg width="30" height="30" viewBox="0 0 30 30" fill="none" xmlns="http://www.w3.org/2000/svg">
<circle cx="15" cy="15" r="15" fill="white"/>
<path d="M8.50387 10.7354C12.0916 7.08821 17.9084 7.08821 21.4962 10.7354L21.9279 11.1743C22.1073 11.3567 22.1073 11.6523 21.9279 11.8347L20.4509 13.3362C20.3612 13.4274 20.2158 13.4274 20.126 13.3362L19.5319 12.7322C17.029 10.1878 12.971 10.1878 10.4681 12.7322L9.83177 13.379C9.74211 13.4702 9.59671 13.4702 9.50699 13.379L8.02995 11.8775C7.85051 11.6951 7.85051 11.3995 8.02995 11.2171L8.50387 10.7354ZM24.5509 13.8407L25.8655 15.177C26.0448 15.3594 26.0448 15.655 25.8655 15.8374L19.9379 21.8633C19.7585 22.0456 19.4677 22.0456 19.2883 21.8633L15.0812 17.5866C15.0364 17.5409 14.9637 17.5409 14.9188 17.5866L10.7119 21.8633C10.5325 22.0456 10.2416 22.0456 10.0623 21.8633L4.13454 15.8373C3.95515 15.655 3.95515 15.3593 4.13454 15.1769L5.44913 13.8406C5.62852 13.6582 5.91936 13.6582 6.09875 13.8406L10.3059 18.1173C10.3507 18.163 10.4234 18.163 10.4682 18.1173L14.6751 13.8406C14.8545 13.6582 15.1453 13.6582 15.3247 13.8406L19.5318 18.1173C19.5767 18.163 19.6494 18.163 19.6942 18.1173L23.9012 13.8407C24.0807 13.6583 24.3715 13.6583 24.5509 13.8407Z" fill="#3396FF"/>
</svg>
