<svg width="48" height="48" viewBox="0 0 48 48" fill="none" xmlns="http://www.w3.org/2000/svg">
<g clip-path="url(#clip0_1304_23253)">
<path d="M42 0H6C2.68629 0 0 2.68629 0 6V42C0 45.3137 2.68629 48 6 48H42C45.3137 48 48 45.3137 48 42V6C48 2.68629 45.3137 0 42 0Z" fill="white" fill-opacity="0.8"/>
<path d="M34.7822 40.7973C34.7822 40.1329 35.3208 39.5943 35.9852 39.5943H37.4889C38.6516 39.5943 39.5942 38.6517 39.5942 37.489V36.5868C39.5942 35.9224 40.1328 35.3838 40.7972 35.3838C41.4616 35.3838 42.0002 35.9224 42.0002 36.5868V39.0003C42.0002 40.6572 40.6571 42.0003 39.0002 42.0003H35.9852C35.3208 42.0003 34.7822 41.4617 34.7822 40.7973Z" fill="#888888"/>
<path d="M7.20301 35.3838C7.86741 35.3838 8.40601 35.9224 8.40601 36.5868V37.489C8.40601 38.6517 9.34857 39.5943 10.5113 39.5943H11.4135C12.0779 39.5943 12.6165 40.1329 12.6165 40.7973C12.6165 41.4617 12.0779 42.0003 11.4135 42.0003H9C7.34315 42.0003 6 40.6572 6 39.0003V36.5868C6 35.9224 6.5386 35.3838 7.20301 35.3838Z" fill="#888888"/>
<path d="M12.6165 7.20301C12.6165 7.86741 12.0779 8.40601 11.4135 8.40601H10.5113C9.34857 8.40601 8.40601 9.34857 8.40601 10.5113V12.015C8.40601 12.6794 7.86741 13.218 7.20301 13.218C6.5386 13.218 6 12.6794 6 12.015V9C6 7.34315 7.34314 6 9 6H11.4135C12.0779 6 12.6165 6.5386 12.6165 7.20301Z" fill="#888888"/>
<path d="M34.7822 7.20301C34.7822 7.86741 35.3208 8.40601 35.9852 8.40601H37.1882C38.517 8.40601 39.5942 9.48323 39.5942 10.812V12.015C39.5942 12.6794 40.1328 13.218 40.7972 13.218C41.4616 13.218 42.0002 12.6794 42.0002 12.015V9C42.0002 7.34314 40.6571 6 39.0002 6H35.9852C35.3208 6 34.7822 6.5386 34.7822 7.20301Z" fill="#888888"/>
<mask id="mask0_1304_23253" style="mask-type:luminance" maskUnits="userSpaceOnUse" x="10" y="10" width="28" height="28">
<path d="M38 10H10V38H38V10Z" fill="white"/>
</mask>
<g mask="url(#mask0_1304_23253)">
<path d="M20.3949 37.9999H19.1909C19.5059 37.9575 19.7509 37.6892 19.7509 37.3574C19.7509 37.7104 20.0379 37.9999 20.3949 37.9999Z" fill="#888888"/>
<path d="M21.9281 38.0001H20.6401C20.9971 38.0001 21.2841 37.7106 21.2841 37.3506C21.2841 37.7106 21.5711 38.0001 21.9281 38.0001Z" fill="#888888"/>
<path d="M27.3529 38.0001H26.0649C26.4219 38.0001 26.7089 37.7106 26.7089 37.3506C26.7089 37.7106 26.9959 38.0001 27.3529 38.0001Z" fill="#888888"/>
<path d="M28.809 37.9999H27.605C27.955 37.9999 28.242 37.7104 28.249 37.3574C28.249 37.6892 28.494 37.9575 28.809 37.9999Z" fill="#888888"/>
<path d="M21.9285 36.3125H22.1805C22.3975 36.3125 22.5655 36.489 22.5655 36.7008V37.3503C22.5655 37.5692 22.3905 37.7386 22.1805 37.7386H21.9285C21.7115 37.7386 21.5435 37.5621 21.5435 37.3503V36.7008C21.5435 36.4819 21.7185 36.3125 21.9285 36.3125Z" fill="#888888"/>
<path d="M18.6034 37.647C18.6034 37.647 18.6034 37.647 18.6104 37.654C18.6174 37.6611 18.6314 37.6682 18.6384 37.6752C18.6384 37.6752 18.6524 37.6823 18.6594 37.6893C18.6594 37.6893 18.6804 37.7035 18.6944 37.7105H18.7014C18.7014 37.7105 18.7084 37.7105 18.7154 37.7105C18.7224 37.7105 18.7294 37.7105 18.7434 37.7105C18.7504 37.7105 18.7574 37.7105 18.7574 37.7105C18.7574 37.7105 18.7574 37.7105 18.7644 37.7105C18.7644 37.7105 18.7644 37.7105 18.7714 37.7105C18.7784 37.7105 18.7924 37.7105 18.7994 37.7105C18.7994 37.7105 18.8064 37.7105 18.8134 37.7105H19.1284C19.3174 37.6823 19.4574 37.5199 19.4574 37.3222V36.6656C19.4574 36.4538 19.2824 36.2773 19.0724 36.2773H18.8204C18.8204 36.2773 18.7994 36.2773 18.7854 36.2773C18.7854 36.2773 18.7784 36.2773 18.7714 36.2773C18.7714 36.2773 18.7714 36.2773 18.7644 36.2773C18.7644 36.2773 18.7504 36.2773 18.7434 36.2773C18.7434 36.2773 18.7294 36.2773 18.7224 36.2773C18.7154 36.2773 18.7084 36.2773 18.7014 36.2844H18.6944C18.6944 36.2844 18.6944 36.2844 18.6874 36.2844C18.6874 36.2844 18.6594 36.2985 18.6454 36.3056C18.6384 36.3056 18.6314 36.3126 18.6244 36.3197C18.6034 36.3338 18.5824 36.355 18.5614 36.3762C18.5614 36.3762 18.5614 36.3832 18.5544 36.3903C18.5544 36.3903 18.5544 36.3903 18.5544 36.3974L18.5404 36.4185C18.5404 36.4185 18.5404 36.4327 18.5334 36.4327C18.5334 36.4327 18.5264 36.4468 18.5194 36.4538C18.5194 36.4538 18.5194 36.4609 18.5124 36.468C18.5124 36.468 18.5124 36.475 18.5124 36.4821C18.5124 36.4821 18.5124 36.4821 18.5124 36.4891V36.5033C18.5124 36.5033 18.5124 36.5103 18.5124 36.5174C18.5124 36.5174 18.5124 36.5456 18.5054 36.5527C18.5054 36.5597 18.5054 36.5668 18.5054 36.5668C18.5054 36.5739 18.5054 36.5809 18.5054 36.588C18.5054 36.588 18.5054 36.588 18.5054 36.595V36.6092C18.5054 36.6092 18.5054 36.6233 18.5054 36.6303V37.2869C18.5054 37.2869 18.5054 37.2869 18.5054 37.294C18.5054 37.301 18.5054 37.3081 18.5054 37.3152C18.5054 37.3152 18.5054 37.3293 18.5054 37.3363C18.5124 37.3858 18.5334 37.4352 18.5614 37.4846C18.5614 37.4846 18.5614 37.4846 18.5614 37.4917C18.5614 37.4917 18.5614 37.4987 18.5684 37.5058C18.5684 37.5058 18.5684 37.5128 18.5754 37.5199L18.5894 37.534C18.5894 37.534 18.6104 37.5552 18.6244 37.5693L18.6034 37.647Z" fill="#888888"/>
<path d="M20.3953 36.3125H20.6473C20.8643 36.3125 21.0323 36.489 21.0323 36.7008V37.3503C21.0323 37.5692 20.8573 37.7386 20.6473 37.7386H20.3953C20.1783 37.7386 20.0103 37.5621 20.0103 37.3503V36.7008C20.0103 36.4819 20.1853 36.3125 20.3953 36.3125Z" fill="#888888"/>
<path d="M27.3538 36.3125H27.6056C27.8226 36.3125 27.9907 36.489 27.9907 36.7008V37.3503C27.9907 37.5692 27.8156 37.7386 27.6056 37.7386H27.3538C27.1368 37.7386 26.9688 37.5621 26.9688 37.3503V36.7008C26.9688 36.4819 27.1438 36.3125 27.3538 36.3125Z" fill="#888888"/>
<path d="M28.8236 37.7452H29.1386C29.1386 37.7452 29.1456 37.7452 29.1526 37.7452C29.3276 37.7382 29.4816 37.6111 29.5166 37.4346V37.4205C29.5166 37.4205 29.5166 37.4064 29.5166 37.3993C29.5166 37.3993 29.5166 37.3852 29.5166 37.3781C29.5166 37.3781 29.5166 37.3711 29.5166 37.364V36.7145C29.5166 36.7145 29.5166 36.7004 29.5166 36.6933V36.6792C29.5166 36.6792 29.5166 36.6651 29.5166 36.658C29.5166 36.658 29.5166 36.658 29.5166 36.6509C29.5166 36.6439 29.5166 36.6368 29.5166 36.6227C29.5166 36.6227 29.5166 36.6227 29.5166 36.6156C29.5166 36.6156 29.5166 36.6015 29.5166 36.5945C29.5166 36.5945 29.5166 36.5874 29.5166 36.5803C29.5166 36.5733 29.5096 36.5592 29.5026 36.5521C29.4396 36.4109 29.2996 36.3262 29.1526 36.3262H28.9006C28.6906 36.3262 28.5156 36.5027 28.5156 36.7145V37.364C28.5156 37.5546 28.6556 37.717 28.8446 37.7523L28.8236 37.7452Z" fill="#888888"/>
<path d="M25.8205 36.3125H26.0725C26.2895 36.3125 26.4575 36.489 26.4575 36.7008V37.3503C26.4575 37.5692 26.2825 37.7386 26.0725 37.7386H25.8205C25.6035 37.7386 25.4355 37.5621 25.4355 37.3503V36.7008C25.4355 36.4819 25.6105 36.3125 25.8205 36.3125Z" fill="#888888"/>
<path d="M36.4951 30.2764C36.4951 30.2764 36.5581 30.2834 36.5861 30.2904C36.5581 30.2904 36.5231 30.2834 36.4951 30.2764Z" fill="#888888"/>
<path d="M36.6001 30.29C36.6001 30.29 36.6561 30.297 36.6841 30.304C36.6561 30.304 36.6281 30.297 36.6001 30.29Z" fill="#888888"/>
<path d="M36.3833 30.2695C36.3833 30.2695 36.4533 30.2765 36.4813 30.2835C36.4463 30.2835 36.4113 30.2765 36.3833 30.2695Z" fill="#888888"/>
<path d="M36.2642 30.2549C36.2992 30.2549 36.3342 30.2549 36.3692 30.2619C36.3342 30.2619 36.2992 30.2619 36.2642 30.2549Z" fill="#888888"/>
<path d="M36.1313 30.248C36.1663 30.248 36.2083 30.248 36.2433 30.255C36.2083 30.255 36.1663 30.255 36.1313 30.248Z" fill="#888888"/>
<path d="M37.6641 30.7559C37.6641 30.7559 37.6851 30.7769 37.6991 30.7909C37.6851 30.7769 37.6781 30.7699 37.6641 30.7559Z" fill="#888888"/>
<path d="M31.0073 31.0879C31.0073 31.0879 31.0283 31.0669 31.0563 31.0459C31.0283 31.0669 31.0143 31.0879 31.0073 31.0879Z" fill="#888888"/>
<path d="M36.7051 30.3115C36.7051 30.3115 36.7611 30.3185 36.7821 30.3255C36.7541 30.3255 36.7261 30.3185 36.7051 30.3115Z" fill="#888888"/>
<path d="M37.79 30.8906C37.79 30.8906 37.811 30.9186 37.825 30.9326C37.811 30.9186 37.804 30.9046 37.79 30.8906Z" fill="#888888"/>
<path d="M37.874 30.9893C37.874 30.9893 37.895 31.0173 37.909 31.0313C37.895 31.0173 37.888 31.0033 37.874 30.9893Z" fill="#888888"/>
<path d="M37.9233 31.0527C37.9233 31.0527 37.9373 31.0667 37.9443 31.0737C37.9443 31.0667 37.9303 31.0597 37.9233 31.0527Z" fill="#888888"/>
<path d="M36.8872 30.3467C36.8872 30.3467 36.9362 30.3607 36.9572 30.3677C36.9362 30.3677 36.9082 30.3537 36.8872 30.3467Z" fill="#888888"/>
<path d="M36.8032 30.333C36.8032 30.333 36.8592 30.347 36.8802 30.347C36.8522 30.347 36.8312 30.333 36.8032 30.333Z" fill="#888888"/>
<path d="M37.7061 30.7988C37.7061 30.7988 37.7271 30.8268 37.7411 30.8338C37.7271 30.8198 37.7201 30.8058 37.7061 30.7988Z" fill="#888888"/>
<path d="M36.9644 30.3682C36.9644 30.3682 37.0064 30.3822 37.0274 30.3892C37.0064 30.3892 36.9854 30.3752 36.9644 30.3682Z" fill="#888888"/>
<path d="M37.9583 31.5969C37.8113 31.5969 37.6713 31.5334 37.5733 31.4133C37.3423 31.1309 37.2303 31.0039 36.9993 30.9121C36.6913 30.785 36.1733 30.7285 35.3613 30.7285C35.0953 30.7285 34.8013 30.7285 34.4583 30.7497C32.1063 30.8344 31.4063 31.4133 31.3713 31.4486C31.2733 31.5475 31.1473 31.5969 31.0143 31.5969C30.9863 31.5969 30.9653 31.5969 30.9373 31.5969C30.8463 31.5828 30.7623 31.5404 30.6993 31.4839C30.3913 31.8793 29.9433 32.4935 29.7333 32.9595C29.3903 33.7149 29.0263 34.6821 29.6703 35.134C30.3143 35.5858 30.7903 35.0845 30.8743 34.8657C30.9513 34.6821 31.0423 34.2868 31.1753 34.1032C31.1963 34.075 31.2453 34.0961 31.2383 34.1314C31.1473 34.5621 30.8253 36.2071 30.8393 36.786C30.8603 37.4567 31.2733 37.5838 31.6303 37.605C31.9873 37.6261 32.3863 37.5697 32.5613 36.8072C32.7363 36.0447 32.8063 35.3387 32.9953 35.0775C33.1773 34.8163 33.1213 35.9812 33.0933 36.2212C33.0583 36.4612 32.7993 37.6685 33.6533 37.7603C34.5073 37.845 34.7453 37.4214 34.8223 36.5318C34.8993 35.6352 34.9553 35.1693 35.1023 35.1834C35.2563 35.1975 35.2073 36.4895 35.1793 36.6448C35.1443 36.8001 35.0043 37.7815 36.0123 37.7744C37.0833 37.7744 36.9293 36.7578 37.0203 36.2283C37.1113 35.6988 37.3843 33.6372 37.5803 33.0018C37.7203 32.55 37.9583 32.0558 38.0143 31.604C38.0003 31.604 37.9863 31.604 37.9723 31.604L37.9583 31.5969Z" fill="#888888"/>
<path d="M37.832 30.9395C37.832 30.9395 37.853 30.9675 37.867 30.9815C37.853 30.9675 37.846 30.9535 37.832 30.9395Z" fill="#888888"/>
<path d="M37.748 30.8477C37.748 30.8477 37.769 30.8757 37.783 30.8897C37.769 30.8757 37.762 30.8617 37.748 30.8477Z" fill="#888888"/>
<path d="M37.4263 30.5654C37.4263 30.5654 37.4543 30.5864 37.4683 30.5934C37.4543 30.5864 37.4403 30.5724 37.4263 30.5654Z" fill="#888888"/>
<path d="M37.3774 30.5371C37.3774 30.5371 37.4124 30.5581 37.4264 30.5651C37.4124 30.5581 37.3984 30.5441 37.3774 30.5371Z" fill="#888888"/>
<path d="M37.6152 30.7139C37.6152 30.7139 37.6432 30.7349 37.6502 30.7489C37.6362 30.7349 37.6222 30.7279 37.6152 30.7139Z" fill="#888888"/>
<path d="M37.4751 30.6006C37.4751 30.6006 37.5031 30.6216 37.5171 30.6286C37.5031 30.6216 37.4891 30.6076 37.4751 30.6006Z" fill="#888888"/>
<path d="M37.5312 30.6436C37.5312 30.6436 37.5592 30.6646 37.5732 30.6716C37.5592 30.6576 37.5454 30.6506 37.5312 30.6436Z" fill="#888888"/>
<path d="M37.5732 30.6787C37.5732 30.6787 37.6012 30.6997 37.6152 30.7137C37.6012 30.6997 37.5872 30.6927 37.5732 30.6787Z" fill="#888888"/>
<path d="M37.3145 30.502C37.3145 30.502 37.3495 30.516 37.3635 30.53C37.3495 30.523 37.3285 30.516 37.3145 30.502Z" fill="#888888"/>
<path d="M37.1255 30.417C37.1255 30.417 37.1675 30.431 37.1885 30.438C37.1675 30.431 37.1465 30.424 37.1255 30.417Z" fill="#888888"/>
<path d="M37.1885 30.4453C37.1885 30.4453 37.2235 30.4593 37.2445 30.4663C37.2235 30.4593 37.2095 30.4523 37.1885 30.4453Z" fill="#888888"/>
<path d="M37.2515 30.4736C37.2515 30.4736 37.2865 30.4876 37.3005 30.5016C37.2865 30.4946 37.2655 30.4876 37.2515 30.4736Z" fill="#888888"/>
<path d="M37.0483 30.3965C37.0483 30.3965 37.0903 30.4105 37.1113 30.4175C37.0903 30.4105 37.0693 30.4035 37.0483 30.3965Z" fill="#888888"/>
<path d="M10.7563 30.4663C10.7563 30.4663 10.7913 30.4523 10.8053 30.4453C10.7843 30.4523 10.7703 30.4593 10.7563 30.4663Z" fill="#888888"/>
<path d="M10.9663 30.3892C10.9663 30.3892 11.0083 30.3752 11.0293 30.3682C11.0083 30.3682 10.9873 30.3822 10.9663 30.3892Z" fill="#888888"/>
<path d="M10.8193 30.4458C10.8193 30.4458 10.8543 30.4318 10.8753 30.4248C10.8543 30.4318 10.8333 30.4388 10.8193 30.4458Z" fill="#888888"/>
<path d="M10.7002 30.4946C10.7002 30.4946 10.7352 30.4806 10.7492 30.4736C10.7352 30.4806 10.7142 30.4876 10.7002 30.4946Z" fill="#888888"/>
<path d="M10.8892 30.4175C10.8892 30.4175 10.9312 30.4035 10.9522 30.3965C10.9312 30.3965 10.9102 30.4105 10.8892 30.4175Z" fill="#888888"/>
<path d="M10.6372 30.53C10.6372 30.53 10.6652 30.516 10.6862 30.502C10.6722 30.509 10.6512 30.516 10.6372 30.53Z" fill="#888888"/>
<path d="M10.5811 30.5651C10.5811 30.5651 10.6091 30.5441 10.6301 30.5371C10.6161 30.5441 10.6021 30.5581 10.5811 30.5651Z" fill="#888888"/>
<path d="M10.4834 30.6286C10.4834 30.6286 10.5114 30.6076 10.5254 30.6006C10.5114 30.6076 10.4974 30.6216 10.4834 30.6286Z" fill="#888888"/>
<path d="M10.4341 30.6716C10.4341 30.6716 10.4621 30.6506 10.4761 30.6436C10.4621 30.6506 10.4481 30.6646 10.4341 30.6716Z" fill="#888888"/>
<path d="M10.5322 30.5934C10.5322 30.5934 10.5602 30.5724 10.5742 30.5654C10.5602 30.5724 10.5462 30.5864 10.5322 30.5934Z" fill="#888888"/>
<path d="M10.0562 31.0737C10.0562 31.0737 10.0702 31.0597 10.0772 31.0527C10.0772 31.0597 10.0632 31.0667 10.0562 31.0737Z" fill="#888888"/>
<path d="M10.1753 30.9326C10.1753 30.9326 10.1963 30.9046 10.2103 30.8906C10.1963 30.9046 10.1893 30.9186 10.1753 30.9326Z" fill="#888888"/>
<path d="M10.1333 30.9815C10.1333 30.9815 10.1543 30.9535 10.1683 30.9395C10.1543 30.9535 10.1473 30.9675 10.1333 30.9815Z" fill="#888888"/>
<path d="M10.2173 30.8828C10.2173 30.8828 10.2383 30.8548 10.2523 30.8408C10.2383 30.8548 10.2313 30.8688 10.2173 30.8828Z" fill="#888888"/>
<path d="M11.043 30.3675C11.043 30.3675 11.085 30.3535 11.113 30.3535C11.092 30.3535 11.064 30.3675 11.043 30.3675Z" fill="#888888"/>
<path d="M10.2593 30.8407C10.2593 30.8407 10.2803 30.8127 10.2943 30.8057C10.2803 30.8197 10.2733 30.8267 10.2593 30.8407Z" fill="#888888"/>
<path d="M10.3013 30.7909C10.3013 30.7909 10.3223 30.7699 10.3363 30.7559C10.3223 30.7699 10.3153 30.7769 10.3013 30.7909Z" fill="#888888"/>
<path d="M10.0913 31.0313C10.0913 31.0313 10.1123 31.0033 10.1263 30.9893C10.1123 31.0033 10.1053 31.0173 10.0913 31.0313Z" fill="#888888"/>
<path d="M11.1201 30.347C11.1201 30.347 11.1691 30.333 11.1971 30.333C11.1691 30.333 11.1481 30.347 11.1201 30.347Z" fill="#888888"/>
<path d="M10.3853 30.7137C10.3853 30.7137 10.4133 30.6927 10.4273 30.6787C10.4133 30.6927 10.3993 30.6997 10.3853 30.7137Z" fill="#888888"/>
<path d="M11.2183 30.3255C11.2183 30.3255 11.2673 30.3185 11.2953 30.3115C11.2673 30.3115 11.2393 30.3185 11.2183 30.3255Z" fill="#888888"/>
<path d="M18.2812 32.9595C18.0712 32.4935 17.6232 31.8793 17.3152 31.4839C17.2452 31.5404 17.1612 31.5828 17.0772 31.5969C17.0492 31.5969 17.0212 31.5969 17.0002 31.5969C16.8672 31.5969 16.7342 31.5404 16.6432 31.4486C16.6082 31.4204 15.9152 30.8415 13.5562 30.7497C13.2132 30.7356 12.9192 30.7285 12.6532 30.7285C11.8412 30.7285 11.3232 30.785 11.0152 30.9121C10.7842 31.0039 10.6722 31.1309 10.4412 31.4063C10.3432 31.5263 10.1962 31.5898 10.0562 31.5898C10.0422 31.5898 10.0282 31.5898 10.0142 31.5898C10.0702 32.0417 10.3082 32.5359 10.4482 32.9877C10.6442 33.6231 10.9172 35.6776 11.0082 36.2141C11.0992 36.7436 10.9452 37.7603 12.0162 37.7603C13.0242 37.7603 12.8842 36.7789 12.8492 36.6307C12.8142 36.4754 12.7722 35.1834 12.9262 35.1693C13.0802 35.1551 13.1292 35.6282 13.2062 36.5177C13.2832 37.4143 13.5212 37.8379 14.3752 37.7462C15.2292 37.6614 14.9702 36.4471 14.9352 36.2071C14.9002 35.967 14.8512 34.8021 15.0332 35.0634C15.2152 35.3246 15.2922 36.0306 15.4672 36.7931C15.6422 37.5555 16.0412 37.612 16.3982 37.5908C16.7552 37.5697 17.1682 37.4355 17.1892 36.7719C17.2032 36.193 16.8812 34.548 16.7902 34.1173C16.7832 34.082 16.8252 34.0608 16.8532 34.0891C16.9862 34.2726 17.0842 34.668 17.1542 34.8516C17.2452 35.0704 17.7142 35.5717 18.3582 35.1198C19.0022 34.668 18.6382 33.7008 18.2952 32.9454L18.2812 32.9595Z" fill="#888888"/>
<path d="M16.9933 31.0879C16.9933 31.0879 16.9723 31.0669 16.9443 31.0459C16.9723 31.0669 16.9863 31.0879 16.9933 31.0879Z" fill="#888888"/>
<path d="M11.6313 30.2619C11.6313 30.2619 11.7013 30.2619 11.7363 30.2549C11.7013 30.2549 11.6663 30.2549 11.6313 30.2619Z" fill="#888888"/>
<path d="M11.3159 30.304C11.3159 30.304 11.3719 30.297 11.3999 30.29C11.3719 30.29 11.3439 30.297 11.3159 30.304Z" fill="#888888"/>
<path d="M11.4141 30.2904C11.4141 30.2904 11.4701 30.2834 11.5051 30.2764C11.4771 30.2764 11.4421 30.2834 11.4141 30.2904Z" fill="#888888"/>
<path d="M11.5122 30.2757C11.5122 30.2757 11.5752 30.2687 11.6102 30.2617C11.5752 30.2617 11.5402 30.2687 11.5122 30.2757Z" fill="#888888"/>
<path d="M10.3433 30.7489C10.3433 30.7489 10.3713 30.7279 10.3783 30.7139C10.3643 30.7279 10.3503 30.7349 10.3433 30.7489Z" fill="#888888"/>
<path d="M11.7573 30.255C11.7923 30.255 11.8273 30.255 11.8693 30.248C11.8343 30.248 11.7923 30.248 11.7573 30.255Z" fill="#888888"/>
<path d="M18.6663 35.8249C18.6663 35.8249 18.6733 35.8249 18.6803 35.8249C18.6943 35.8249 18.7153 35.8249 18.7293 35.8178C18.7363 35.8178 18.7433 35.8178 18.7503 35.8178C18.7643 35.8178 18.7713 35.8178 18.7853 35.8178C18.7853 35.8178 18.8343 35.8178 18.8553 35.8178H19.1073C19.3593 35.8178 19.5833 35.9237 19.7443 36.0932C19.9053 35.9237 20.1363 35.8178 20.3883 35.8178H20.6403C20.8923 35.8178 21.1163 35.9237 21.2843 36.0932C21.4453 35.9237 21.6763 35.8178 21.9283 35.8178H22.1803C22.5653 35.8178 22.8943 36.0649 23.0203 36.4109C22.9713 35.4154 22.9083 33.6998 22.8663 32.2949C22.8523 32.2949 22.8383 32.2949 22.8243 32.2949C21.9913 32.2525 21.2493 32.1537 20.6263 31.9913C19.9403 31.8148 19.3943 31.5677 18.9953 31.25C18.9113 32.6761 18.7783 34.9141 18.7153 35.4719C18.6943 35.6131 18.6733 35.7402 18.6523 35.8531C18.6523 35.8531 18.6663 35.8531 18.6733 35.8531L18.6663 35.8249Z" fill="#888888"/>
<path d="M25.8203 35.797H26.0723C26.3243 35.797 26.5483 35.9029 26.7163 36.0723C26.8773 35.9029 27.1083 35.797 27.3603 35.797H27.6123C27.8643 35.797 28.0953 35.9029 28.2563 36.0723C28.4173 35.9029 28.6483 35.797 28.8933 35.797H29.1453C29.2153 35.797 29.2923 35.804 29.3553 35.8252C29.3343 35.7122 29.3133 35.5851 29.2923 35.4369C29.2223 34.8862 29.0963 32.6976 29.0123 31.2715C28.0463 31.9916 26.4363 32.2105 25.1763 32.2669C25.1623 32.2669 25.1483 32.2669 25.1413 32.2669C25.0993 33.6719 25.0363 35.3875 24.9873 36.3829C25.1133 36.037 25.4423 35.7899 25.8273 35.7899L25.8203 35.797Z" fill="#888888"/>
<path d="M15.8592 25.193C15.9082 23.3432 16.7622 22.1642 17.2732 21.6206C17.2522 21.5853 17.2382 21.55 17.2102 21.5147C17.1612 21.43 17.1402 21.3311 17.1472 21.2323C17.3782 17.4128 17.1402 15.083 17.0492 14.4053C15.4742 15.5702 12.4502 19.0931 11.2112 22.9196C9.86026 27.1062 10.0352 30.9539 10.0422 31.081C10.5812 30.4315 10.8332 30.135 13.5702 30.2338C16.2232 30.3327 16.9512 31.0316 16.9932 31.074C16.9932 31.074 17.0702 30.9257 16.6222 30.2056C16.1812 29.4855 15.7822 27.8475 15.8592 25.1859V25.193Z" fill="#888888"/>
<path d="M30.475 14.1084C30.475 14.1084 30.055 16.5512 30.342 21.2672C30.342 21.2672 30.356 21.2814 30.391 21.3025C30.398 21.2884 30.405 21.2743 30.412 21.2672C30.146 16.8547 30.496 14.4332 30.545 14.1366C30.524 14.1225 30.503 14.1155 30.489 14.1084H30.475Z" fill="#888888"/>
<path d="M36.789 22.9193C35.564 19.1351 32.603 15.6545 31.007 14.4473C30.916 15.1744 30.692 17.4689 30.909 21.1825C30.93 21.2955 30.909 21.4155 30.853 21.5214V21.5355C30.818 21.5849 30.79 21.6273 30.769 21.6697C31.287 22.2345 32.092 23.3994 32.141 25.1997C32.218 27.8613 31.819 29.4992 31.378 30.2193C30.937 30.9395 31.007 31.0877 31.007 31.0877C31.049 31.0453 31.777 30.3393 34.43 30.2476C37.167 30.1487 37.412 30.4452 37.958 31.0948C37.958 30.9677 38.14 27.12 36.789 22.9334V22.9193Z" fill="#888888"/>
<path d="M20.332 16.6927C20.493 17.8012 20.626 18.3024 21.599 18.3165C21.599 18.3165 21.599 18.3165 21.606 18.3165C21.606 18.3165 21.606 18.3165 21.599 18.3165C20.626 18.3024 20.5 17.8012 20.332 16.6927C20.276 16.3186 20.255 15.7467 20.255 15.1042C20.003 15.1042 19.527 15.0831 19.373 14.9701C19.156 14.8148 19.233 13.8264 19.233 13.8264C19.254 13.1557 19.296 12.9651 19.394 12.8662C19.289 12.9721 19.247 13.1627 19.233 13.8264C19.233 13.8264 19.156 14.8148 19.373 14.9701C19.534 15.0831 20.003 15.1042 20.255 15.1042C20.255 15.7467 20.276 16.3115 20.332 16.6927Z" fill="#888888"/>
<path d="M29.3202 13.3037C29.3342 13.4449 29.3412 13.6073 29.3482 13.7979C29.3482 13.8615 29.3692 14.0944 29.3622 14.3557C29.3482 14.9063 29.2362 15.217 28.9982 15.3935C28.9212 15.45 28.7672 15.5629 28.2562 15.6053C28.2492 16.0924 28.2212 16.4878 28.1792 16.7702C28.0322 17.7727 27.8782 18.8105 26.4152 18.8317C26.1282 18.8317 25.7712 18.8388 25.3582 18.8388C24.7002 18.8388 24.0982 18.8388 24.0352 18.8317C23.9652 18.8317 23.3422 18.8388 22.6562 18.8388C22.2362 18.8388 21.8722 18.8388 21.5852 18.8317C20.1292 18.8035 19.9752 17.7727 19.8282 16.7702C19.7862 16.4807 19.7582 16.0854 19.7512 15.5982C19.3592 15.5559 19.1842 15.4711 19.0792 15.3935C18.8412 15.224 18.7292 14.9134 18.7152 14.3627C18.7082 14.1086 18.7222 13.8685 18.7292 13.805C18.7292 13.6144 18.7432 13.452 18.7572 13.3108C18.3302 13.5861 17.8752 13.8615 17.5322 14.1156C17.5322 14.1156 17.9522 16.5584 17.6652 21.2745C17.6652 21.2745 17.8822 21.6769 17.9102 21.6981C17.9102 21.6981 18.1062 22.7429 17.8682 24.8398C17.6232 26.9295 17.9312 28.9558 18.9742 30.4737C18.9952 30.5019 19.0162 30.5372 19.0442 30.5654C19.7722 31.4762 21.6202 31.7162 22.8592 31.7727C23.5522 31.808 24.0492 31.7798 24.0492 31.7798C24.0492 31.7798 24.5112 31.8009 25.1692 31.7798C26.3662 31.7303 28.2002 31.5044 28.9842 30.6502C29.0332 30.5937 29.0822 30.5372 29.1242 30.4807C30.1602 28.9699 30.4682 26.9437 30.2302 24.8468C29.9852 22.7571 30.1882 21.7051 30.1882 21.7051C30.2092 21.6839 30.4122 21.3168 30.4262 21.2815C30.1392 16.5654 30.5592 14.1227 30.5592 14.1227C30.2232 13.8685 29.7682 13.5932 29.3342 13.3178L29.3202 13.3037Z" fill="#888888"/>
<path d="M28.6972 14.9702C28.5222 15.0972 27.9692 15.1043 27.7452 15.1043C27.7452 15.7468 27.7242 16.3116 27.6682 16.6928C27.5072 17.8012 27.3742 18.3025 26.4012 18.3166C25.4282 18.3307 24.0352 18.3166 24.0352 18.3166C24.0352 18.3166 22.5652 18.3307 21.5922 18.3166C20.6192 18.3025 20.4932 17.8012 20.3252 16.6928C20.2692 16.3186 20.2482 15.7468 20.2482 15.1043C19.9962 15.1043 19.5202 15.0831 19.3662 14.9702C19.1492 14.8148 19.2262 13.8264 19.2262 13.8264C19.2472 13.1557 19.2892 12.9651 19.3872 12.8663C19.4222 12.838 19.4572 12.8169 19.4852 12.7886C19.6322 12.7039 20.1362 12.7039 20.3322 12.7039C20.3602 12.3085 20.3882 11.9414 20.4162 11.6378C20.4162 11.5743 20.4302 11.5108 20.4372 11.4543C20.5842 10.0917 21.2072 10.0917 21.5292 10.0423C21.8512 9.99285 24.0352 9.99991 24.0352 9.99991C24.0352 9.99991 26.1352 9.98579 26.4642 10.0352C26.7932 10.0846 27.4092 10.0846 27.5562 11.4472C27.5562 11.4472 27.5562 11.4613 27.5562 11.4684C27.5912 11.8073 27.6262 12.2379 27.6612 12.7039C27.7522 12.7039 28.4032 12.6827 28.5712 12.7886C28.6062 12.8169 28.6342 12.838 28.6692 12.8663C28.7742 12.9722 28.8162 13.1628 28.8302 13.8264C28.8302 13.8264 28.9072 14.8148 28.6902 14.9702H28.6972Z" fill="#888888"/>
</g>
</g>
<defs>
<clipPath id="clip0_1304_23253">
<rect width="48" height="48" fill="white"/>
</clipPath>
</defs>
</svg>
