<svg width="34" height="34" viewBox="0 0 34 34" fill="none" xmlns="http://www.w3.org/2000/svg">
<path fill-rule="evenodd" clip-rule="evenodd" d="M1 11.1175C1 9.2795 2.48995 7.78955 4.3279 7.78955H10.0877C11.9257 7.78955 13.4156 9.2795 13.4156 11.1175C13.4156 12.9554 11.9257 14.4454 10.0877 14.4454H4.32791C2.48996 14.4454 1 12.9554 1 11.1175ZM4.3279 9.06951C3.19686 9.06951 2.27996 9.98641 2.27996 11.1175C2.27996 12.2485 3.19686 13.1654 4.32791 13.1654H10.0877C11.2188 13.1654 12.1357 12.2485 12.1357 11.1175C12.1357 9.98641 11.2188 9.06951 10.0877 9.06951H4.3279Z" fill="white"/>
<path fill-rule="evenodd" clip-rule="evenodd" d="M1 16.7493C1 14.9113 2.48995 13.4214 4.3279 13.4214H10.0877C11.9257 13.4214 13.4156 14.9113 13.4156 16.7493C13.4156 18.5872 11.9257 20.0772 10.0877 20.0772H4.32791C2.48996 20.0772 1 18.5872 1 16.7493ZM4.3279 14.7013C3.19686 14.7013 2.27996 15.6182 2.27996 16.7493C2.27996 17.8803 3.19686 18.7972 4.32791 18.7972H10.0877C11.2188 18.7972 12.1357 17.8803 12.1357 16.7493C12.1357 15.6182 11.2188 14.7013 10.0877 14.7013H4.3279Z" fill="white"/>
<path fill-rule="evenodd" clip-rule="evenodd" d="M1 22.1253C1 20.2873 2.48995 18.7974 4.3279 18.7974H10.0877C11.9257 18.7974 13.4156 20.2873 13.4156 22.1253C13.4156 23.9632 11.9257 25.4532 10.0877 25.4532H4.32791C2.48996 25.4532 1 23.9632 1 22.1253ZM4.3279 20.0773C3.19686 20.0773 2.27996 20.9942 2.27996 22.1253C2.27996 23.2563 3.19686 24.1732 4.32791 24.1732H10.0877C11.2188 24.1732 12.1357 23.2563 12.1357 22.1253C12.1357 20.9942 11.2188 20.0773 10.0877 20.0773H4.3279Z" fill="white"/>
<path fill-rule="evenodd" clip-rule="evenodd" d="M8.03973 0.493896C7.33282 0.493896 6.75977 1.06695 6.75977 1.77386V8.42952H8.03973V1.77386L13.1596 1.77386V26.7331H8.03973V24.8132H6.75977V26.7331C6.75977 27.44 7.33282 28.013 8.03973 28.013H13.1596C13.8665 28.013 14.4395 27.44 14.4395 26.7331V1.77386C14.4395 1.06695 13.8665 0.493896 13.1596 0.493896H8.03973ZM6.75977 19.4373H8.03973V19.4373H6.75977V19.4373ZM6.75977 14.0614H8.03973V13.8054H6.75977V14.0614Z" fill="white"/>
<path fill-rule="evenodd" clip-rule="evenodd" d="M11.7657 32.7558C11.3109 33.7562 9.88994 33.7562 9.43521 32.7558L7.2292 27.9026C6.84399 27.0551 7.46353 26.093 8.39443 26.093L12.8064 26.093C13.7373 26.093 14.3569 27.0551 13.9717 27.9026L11.7657 32.7558ZM8.39443 27.3729L10.6004 32.2261L12.8064 27.3729L8.39443 27.3729Z" fill="white"/>
<path fill-rule="evenodd" clip-rule="evenodd" d="M7.39873 1.94556C7.15021 1.95502 6.89662 1.99561 6.64004 2.07319C6.01315 2.26271 5.41323 2.65929 4.84742 3.27654C4.24569 3.93297 3.99742 4.60244 3.9671 5.2543C3.93808 5.8782 4.11326 6.43777 4.25218 6.85452C4.4043 7.31091 4.74344 7.76541 5.04494 8.11305C5.14077 8.22355 5.23868 8.32984 5.33476 8.42953H6.99665L7.03365 8.24791L6.74428 8.00306C6.56721 7.85323 6.27848 7.5818 6.0119 7.27443C5.73243 6.95219 5.53506 6.65558 5.46645 6.44976C5.32945 6.03875 5.22871 5.67858 5.24568 5.31377C5.26134 4.97692 5.38097 4.58869 5.79094 4.14144C6.23684 3.65501 6.64862 3.40777 7.01045 3.29838C7.14039 3.25909 7.2697 3.23581 7.39873 3.22719V1.94556ZM13.7985 7.63856V6.2917C14.1374 6.4072 14.5246 6.52422 14.9414 6.64329C15.1668 6.70769 15.3997 6.77238 15.633 6.8372L15.6332 6.83725C16.348 7.03584 17.0674 7.23568 17.5924 7.43251C18.1591 7.645 18.7665 8.04606 19.2775 8.42851C19.7992 8.81887 20.2674 9.22598 20.5588 9.48406L20.7267 9.63267L20.7651 9.85355C21.1962 12.3322 21.7469 16.0693 21.9958 19.2229C22.1199 20.7947 22.1715 22.2502 22.0885 23.3396C22.0474 23.8786 21.9706 24.3722 21.831 24.7564C21.7072 25.0972 21.4404 25.5987 20.8689 25.6804C20.7687 25.6947 20.6526 25.712 20.5215 25.7316L20.5202 25.7318C19.3301 25.9093 16.9013 26.2715 13.7985 26.2677V24.9879C16.7996 24.9909 19.1611 24.6398 20.3432 24.464L20.4534 24.4476L20.5818 24.4287C20.5942 24.4044 20.6099 24.3691 20.6281 24.3192C20.7081 24.099 20.7741 23.7423 20.8122 23.2424C20.8875 22.2542 20.8425 20.8781 20.7198 19.3236C20.4824 16.3164 19.9634 12.7487 19.5424 10.2947C19.2673 10.0547 18.903 9.74695 18.5106 9.45328C18.0213 9.08708 17.533 8.7772 17.143 8.63101C16.6754 8.4557 16.0398 8.27903 15.3431 8.08538L15.3431 8.08536C15.098 8.01724 14.8453 7.94701 14.5898 7.87401C14.3289 7.79947 14.0615 7.72116 13.7985 7.63856ZM5.90164 13.8054L5.8495 14.0614H4.54325L4.5954 13.8054H5.90164ZM3.47622 19.2999L3.41601 19.5955C3.70043 19.4931 4.00711 19.4372 4.32683 19.4372C4.02955 19.4372 3.74355 19.389 3.47622 19.2999ZM2.49924 24.0963L2.43555 24.4089L2.97344 24.5882C4.47526 25.0889 5.96122 25.4522 7.39873 25.7101V24.8132H4.32683C3.62107 24.8132 2.97883 24.5412 2.49924 24.0963ZM20.5523 24.4757C20.5523 24.4757 20.5544 24.4722 20.5592 24.4675C20.5548 24.4738 20.5523 24.4757 20.5523 24.4757ZM28.9395 9.78007L28.9393 9.78006C28.1854 9.70443 27.3804 9.62368 26.5908 9.54796C25.3869 9.43252 24.2268 9.32977 23.3725 9.27958C22.9488 9.25469 22.5825 9.24158 22.3192 9.24859C22.1951 9.25189 22.0554 9.26024 21.9353 9.28609C21.8865 9.29659 21.7664 9.32432 21.6486 9.40351C21.5849 9.44631 21.482 9.5307 21.4136 9.67517C21.3366 9.83775 21.3337 10.0126 21.3823 10.1628C21.5529 10.6894 21.7484 11.8213 21.9418 13.293C22.1323 14.7428 22.3138 16.4647 22.467 18.1311C22.6202 19.7971 22.7446 21.4025 22.821 22.618C22.8593 23.2264 22.8853 23.733 22.897 24.0992C22.9029 24.2831 22.905 24.4254 22.9037 24.5248C22.9031 24.5675 22.902 24.597 22.9008 24.6158C22.8653 24.7751 22.8868 24.9427 22.9651 25.0902C23.0424 25.236 23.1529 25.321 23.2208 25.3648C23.3522 25.4497 23.4981 25.4901 23.5926 25.5123C23.8024 25.5617 24.0798 25.5906 24.3794 25.6093C24.9919 25.6476 25.8398 25.6507 26.769 25.6338C28.6336 25.6 30.8906 25.4842 32.3996 25.3878L32.9988 25.3496L32.9993 10.1186L32.3849 10.0941C31.8603 10.0731 30.511 9.93773 28.9396 9.78009L28.9395 9.78007ZM22.8989 24.6381C22.8989 24.6381 22.8991 24.6349 22.8998 24.6296C22.8993 24.6356 22.8989 24.6381 22.8989 24.6381ZM23.2108 13.1263C23.079 12.1228 22.9391 11.2149 22.7948 10.5331C22.9417 10.5382 23.1098 10.5463 23.2974 10.5573C24.1259 10.606 25.2653 10.7067 26.4687 10.8221C27.2174 10.8939 27.9942 10.9718 28.733 11.0459L28.733 11.0459L28.7335 11.0459L28.734 11.046C29.9177 11.1647 31.0036 11.2736 31.7193 11.3318L31.7189 24.1473C30.2623 24.2337 28.352 24.3249 26.7458 24.3541C25.8238 24.3708 25.0182 24.3667 24.4592 24.3318C24.3538 24.3252 24.2618 24.3178 24.1826 24.3099C24.1813 24.2327 24.1792 24.1486 24.1763 24.0583C24.164 23.6732 24.1371 23.1518 24.0985 22.5377C24.0212 21.308 23.8958 19.6902 23.7416 18.0139C23.5875 16.3381 23.4042 14.5984 23.2108 13.1263Z" fill="white"/>
</svg>
