<svg width="28" height="28" viewBox="0 0 28 28" fill="none" xmlns="http://www.w3.org/2000/svg">
<path d="M23.5114 12.2683C23.1941 12.2779 22.944 12.5472 22.9633 12.8741C23.021 14.1531 22.9921 15.7014 22.8863 16.4034C22.8575 16.5765 22.7229 16.7111 22.5401 16.7304C22.2901 16.7592 21.867 16.7784 21.1938 16.7784C20.8669 16.7784 20.5976 17.0477 20.5976 17.3747C20.5976 18.8749 20.5399 20 20.4341 20.7309C20.0783 23.1735 19.8379 23.7505 18.2415 23.7697C16.1259 23.7985 13.1063 23.7697 13.0967 23.7697C13.0678 23.7697 9.88473 23.7985 7.78832 23.7697C6.20158 23.7505 5.97078 23.2119 5.59574 20.7212C5.48996 20.0096 5.43226 18.8845 5.43226 17.3651C5.43226 17.0381 5.16299 16.7688 4.83603 16.7688C4.28788 16.7688 3.85514 16.7207 3.59549 16.6919C3.40316 16.663 3.26853 16.5188 3.23006 16.3265C3.16275 15.9226 3.16275 15.2302 3.20121 14.5859C3.27815 13.2203 3.33584 12.9318 3.40316 12.8741C3.44163 12.8453 3.47048 12.826 3.50894 12.7972C3.63396 12.7587 3.98977 12.701 5.02836 12.701C5.33609 12.701 5.59574 12.4606 5.61497 12.1529C5.67267 11.3066 5.73999 10.5084 5.79769 9.80643C5.79769 9.73911 5.8073 9.6718 5.81692 9.6141L5.83615 9.46985C6.08618 7.13302 6.95167 7.00801 7.58637 6.92146L7.73062 6.90223C8.21145 6.82529 11.2791 6.81568 13.0967 6.81568C13.414 6.81568 13.6737 6.55603 13.6737 6.23868C13.6737 5.92134 13.414 5.66169 13.0967 5.66169C12.6062 5.66169 8.27876 5.65207 7.5479 5.75785L7.42289 5.77709C6.64394 5.88287 5.02836 6.10405 4.68216 9.33522V9.43138C4.65331 9.54678 4.63408 9.68141 4.63408 9.74873C4.586 10.2776 4.53792 10.8931 4.48983 11.547C3.63396 11.5663 3.17236 11.6432 2.89348 11.8067C2.8454 11.8355 2.74923 11.9125 2.71077 11.9413L2.5569 12.0663C2.17224 12.4606 2.08569 13.0568 2.03761 14.5185C1.95106 15.6437 1.97029 17.0862 2.57614 17.5189C2.87425 17.7401 3.44163 17.8747 4.25904 17.9132C4.26865 19.2211 4.32635 20.2212 4.43213 20.8943C4.76871 23.1254 5.03798 24.8756 7.74985 24.9237C9.84626 24.9525 13.0486 24.9237 13.0678 24.9237C13.087 24.9237 14.4334 24.9333 15.9528 24.9333C16.7221 24.9333 17.5299 24.9333 18.2319 24.9237C20.9726 24.8852 21.2419 23.0388 21.5496 20.8943C21.6554 20.2019 21.7131 19.2211 21.7227 17.9228C22.9152 17.8747 23.3383 17.692 23.5595 17.5285C23.6172 17.4901 23.6557 17.442 23.6941 17.3843C23.9345 17.0766 24.2327 16.1822 24.0884 12.8164C24.0788 12.4991 23.8095 12.2587 23.4826 12.2683H23.5114Z" fill="white"/>
<path d="M18.0785 4.57471L10.3468 12.3064C10.2506 12.4026 10.1929 12.518 10.1833 12.6526L9.62551 17.7206C9.60628 17.8937 9.66397 18.0668 9.78899 18.1918C9.89477 18.2976 10.0486 18.3649 10.1929 18.3649C10.2121 18.3649 10.2314 18.3649 10.2602 18.3649L15.3281 17.8071C15.4628 17.7879 15.5782 17.7302 15.6743 17.6436L23.8965 9.42146C25.3678 7.95013 25.3678 5.56522 23.8965 4.1035C22.4252 2.63217 20.0403 2.63217 18.5785 4.1035L18.0881 4.59395L18.0785 4.57471ZM14.9916 16.6724L10.8468 17.134L11.3084 12.9892L18.492 5.80563L22.1847 9.4984L15.0012 16.682L14.9916 16.6724ZM23.0887 4.89206C23.5792 5.3825 23.8484 6.03643 23.8484 6.73844C23.8484 7.44045 23.5792 8.09438 23.0887 8.58482L23.0022 8.67137L19.3094 4.97861L19.3959 4.89206C20.3768 3.91117 22.0982 3.91117 23.0887 4.89206Z" fill="white"/>
</svg>
