<svg width="26" height="18" viewBox="0 0 26 18" fill="none" xmlns="http://www.w3.org/2000/svg">
<rect x="0.154297" y="0.0966797" width="25.4135" height="17.4551" rx="8.72754" fill="#C0C0EB"/>
<path fill-rule="evenodd" clip-rule="evenodd" d="M12.5649 15.814H14.9371L16.5686 15.7635C18.5829 15.7333 18.7892 14.3811 19.0282 12.8144L19.0309 12.7965C19.1123 12.1268 19.1524 11.4527 19.1511 10.7781C20.0819 10.7377 20.3322 10.5561 20.4223 10.4854C20.8026 10.2129 20.8927 9.55695 20.8527 8.27527C20.8126 6.99359 20.7325 6.58992 20.2121 6.25688C19.8281 6.07567 19.4027 6.00245 18.9809 6.04495C18.9644 5.81191 18.9394 5.58916 18.9157 5.37813C18.8819 5.07738 18.8508 4.80042 18.8508 4.55134C18.6306 2.45222 17.7297 2.03845 16.7288 1.90725C16.2083 1.83661 13.4757 1.83661 12.8752 1.83661C12.8086 1.83661 12.7152 1.83636 12.6007 1.83606C11.6825 1.83362 9.41434 1.82761 8.87142 1.91734C8.02063 2.03845 7.09976 2.45222 6.86955 4.54125C6.86955 4.7925 6.841 5.10544 6.80993 5.44593C6.79233 5.63883 6.77393 5.84057 6.75945 6.04495C6.3398 6.00981 5.91786 6.07552 5.52829 6.2367C5.00961 6.58869 4.97799 7.02086 4.88863 8.24231L4.88769 8.25509C4.79761 9.48631 4.93774 10.223 5.3181 10.4955C5.69969 10.7321 6.14147 10.8514 6.58929 10.8386C6.58826 11.5133 6.62837 12.1873 6.7094 12.857C6.94962 14.4213 7.16983 15.814 9.17171 15.814H12.5649ZM9.74556 4.36129V13.1192H15.8087V11.4771H11.7666V9.28762H15.3035V7.64551H11.7666V6.0034H15.8087V4.36129H9.74556Z" fill="white"/>
</svg>
