<svg width="17" height="15" viewBox="0 0 17 15" fill="none" xmlns="http://www.w3.org/2000/svg">
<path fill-rule="evenodd" clip-rule="evenodd" d="M8.03364 14.3188H10.4059L12.0374 14.2684C14.0516 14.2382 14.2579 12.886 14.497 11.3192L14.4997 11.3013C14.5811 10.6317 14.6212 9.95761 14.6198 9.28296C15.5507 9.24259 15.8009 9.06094 15.891 8.99029C16.2714 8.71781 16.3614 8.06183 16.3214 6.78015C16.2814 5.49848 16.2013 5.0948 15.6808 4.76177C15.2969 4.58055 14.8715 4.50733 14.4497 4.54983C14.4331 4.31679 14.4081 4.09405 14.3844 3.88301C14.3506 3.58227 14.3195 3.30531 14.3195 3.05623C14.0993 0.9571 13.1985 0.54333 12.1975 0.412135C11.6771 0.341491 8.94449 0.341491 8.34393 0.341491C8.27738 0.341491 8.18391 0.341244 8.06948 0.34094C7.15124 0.338505 4.88309 0.332491 4.34017 0.422227C3.48938 0.54333 2.56851 0.9571 2.3383 3.04613C2.3383 3.29738 2.30975 3.61032 2.27868 3.95081C2.26108 4.14371 2.24268 4.34545 2.2282 4.54983C1.80855 4.51469 1.38661 4.5804 0.997041 4.74158C0.478358 5.09357 0.44674 5.52574 0.357377 6.74719L0.356441 6.75997C0.266357 7.99119 0.406489 8.7279 0.786845 9.00038C1.16844 9.23703 1.61022 9.35628 2.05804 9.34351C2.05701 10.0182 2.09712 10.6922 2.17815 11.3619C2.41837 12.9262 2.63858 14.3188 4.64046 14.3188H8.03364ZM5.21431 2.86617V11.6241H11.2775V9.98198H7.23537V7.7925H10.7722V6.15039H7.23537V4.50828H11.2775V2.86617H5.21431Z" fill="white"/>
</svg>
