<svg width="48" height="48" viewBox="0 0 48 48" fill="none" xmlns="http://www.w3.org/2000/svg">
<rect width="48" height="48" rx="6" fill="white" fill-opacity="0.8"/>
<path d="M34.782 40.797C34.782 40.1326 35.3206 39.594 35.985 39.594H37.4887C38.6514 39.594 39.594 38.6514 39.594 37.4887V36.5865C39.594 35.9221 40.1326 35.3835 40.797 35.3835C41.4614 35.3835 42 35.9221 42 36.5865V39C42 40.6569 40.6569 42 39 42H35.985C35.3206 42 34.782 41.4614 34.782 40.797Z" fill="#888888"/>
<path d="M7.20301 35.3835C7.86741 35.3835 8.40601 35.9221 8.40601 36.5865V37.4887C8.40601 38.6514 9.34857 39.594 10.5113 39.594H11.4135C12.0779 39.594 12.6165 40.1326 12.6165 40.797C12.6165 41.4614 12.0779 42 11.4135 42H9C7.34315 42 6 40.6569 6 39V36.5865C6 35.9221 6.5386 35.3835 7.20301 35.3835Z" fill="#888888"/>
<path d="M12.6165 7.20301C12.6165 7.86741 12.0779 8.40601 11.4135 8.40601H10.5113C9.34857 8.40601 8.40601 9.34857 8.40601 10.5113V12.015C8.40601 12.6794 7.86741 13.218 7.20301 13.218C6.5386 13.218 6 12.6794 6 12.015V9C6 7.34315 7.34314 6 9 6H11.4135C12.0779 6 12.6165 6.5386 12.6165 7.20301Z" fill="#888888"/>
<path d="M34.782 7.20301C34.782 7.86741 35.3206 8.40601 35.985 8.40601H37.188C38.5168 8.40601 39.594 9.48323 39.594 10.812V12.015C39.594 12.6794 40.1326 13.218 40.797 13.218C41.4614 13.218 42 12.6794 42 12.015V9C42 7.34314 40.6569 6 39 6H35.985C35.3206 6 34.782 6.5386 34.782 7.20301Z" fill="#888888"/>
<path d="M10 35.902V21.2109C10.2808 20.9696 10.5464 20.7566 10.7932 20.5741C10.9661 21.8618 11.4183 26.2884 10.9794 33.5454C10.9661 33.7332 11.006 33.921 11.0991 34.082C11.1345 34.1267 11.1582 34.1714 11.1818 34.2161C11.1936 34.2385 11.2055 34.2608 11.2188 34.2832C10.864 34.6606 10.4223 35.1991 10 35.902Z" fill="#888888"/>
<path d="M35.6203 36.0036H12.5616C12.5273 34.9544 12.4291 34.4307 12.4291 34.4307C12.3759 34.3905 11.9636 33.6259 11.9636 33.6259C12.5089 24.6653 11.7109 20.0241 11.7109 20.0241C12.1914 19.668 12.7875 19.2901 13.3928 18.9064C13.6084 18.7697 13.8252 18.6323 14.0384 18.4949C14.0118 18.7632 13.9852 19.0717 13.9852 19.4339C13.9719 19.5546 13.9453 20.0107 13.9586 20.4936C13.9852 21.5399 14.198 22.1301 14.6502 22.452C14.8497 22.5996 15.1822 22.7605 15.927 22.841C15.9403 23.7666 15.9935 24.5178 16.0733 25.0678C16.3526 26.9725 16.6452 28.931 19.4116 28.9847C19.9569 28.9981 20.6485 28.9981 21.4465 28.9981C22.4342 28.9981 23.3532 28.9904 23.7983 28.9866C23.9404 28.9854 24.0344 28.9847 24.0666 28.9847C24.1863 28.9981 25.3301 28.9981 26.5803 28.9981C27.0082 28.9981 27.4045 28.9941 27.7649 28.9904L27.7666 28.9904C28.0662 28.9874 28.3412 28.9847 28.5886 28.9847C31.3683 28.9444 31.6609 26.9725 31.9402 25.0678C32.02 24.5312 32.0732 23.78 32.0865 22.8544C33.0574 22.774 33.35 22.5593 33.4963 22.452C33.9485 22.1167 34.1613 21.5265 34.1879 20.4802C34.1973 20.1264 34.1798 19.7999 34.1689 19.5978C34.1645 19.5164 34.1613 19.4551 34.1613 19.4205C34.148 19.0583 34.1347 18.7498 34.1081 18.4815L34.1347 18.5083C34.2976 18.6116 34.462 18.715 34.626 18.818C35.292 19.2366 35.9499 19.65 36.4622 20.0375C36.4622 20.0375 35.6642 24.6788 36.2095 33.6393C36.1829 33.7064 35.7972 34.4039 35.7573 34.4442C35.7573 34.4442 35.6567 34.9652 35.6203 36.0036Z" fill="#888888"/>
<path d="M38 35.9091C37.6099 35.2592 37.2027 34.7495 36.8612 34.3771C36.9011 34.2966 36.9543 34.2161 37.0208 34.1222V34.0954C37.1272 33.8942 37.1671 33.6661 37.1272 33.4515C36.7149 26.3957 37.1405 22.0362 37.3134 20.6545C37.5297 20.8182 37.7593 21.0039 38 21.2102V35.9091Z" fill="#888888"/>
<path d="M31.1154 21.9021C31.541 21.9021 32.5917 21.8887 32.9242 21.6472H32.9109C33.3232 21.3521 33.1769 19.4741 33.1769 19.4741C33.1503 18.2132 33.0705 17.851 32.871 17.6498C32.8378 17.623 32.8078 17.5995 32.7779 17.5761C32.748 17.5526 32.7181 17.5291 32.6848 17.5023C32.3971 17.3209 31.3641 17.3357 31.0363 17.3404C31.0003 17.3409 30.9729 17.3413 30.9558 17.3413C30.8893 16.456 30.8228 15.6377 30.7563 14.9939V14.9536C30.4933 12.5153 29.4398 12.3735 28.7959 12.2868C28.7561 12.2814 28.7179 12.2763 28.6815 12.2708C28.0564 12.1769 24.0664 12.2037 24.0664 12.2037C24.0664 12.2037 19.9168 12.1903 19.305 12.2842C19.2685 12.2898 19.23 12.2951 19.1897 12.3006C18.5552 12.3873 17.4928 12.5326 17.2302 14.967C17.2263 14.9988 17.2212 15.0318 17.2159 15.0656C17.2035 15.1459 17.1903 15.2309 17.1903 15.3158C17.1371 15.8926 17.0839 16.5901 17.0307 17.3413C16.6583 17.3413 15.7007 17.3413 15.4214 17.5023C15.3877 17.5363 15.3487 17.5649 15.3077 17.5949C15.284 17.6123 15.2596 17.6302 15.2352 17.6498C15.049 17.8376 14.9692 18.1998 14.9293 19.4741C14.9293 19.4741 14.783 21.3521 15.1953 21.6472C15.4879 21.8618 16.3923 21.9021 16.8711 21.9021C16.8711 23.1228 16.911 24.2093 17.0174 24.9202C17.3366 27.0262 17.576 27.9786 19.4247 28.0055C21.2734 28.0323 24.0666 28.0054 24.0666 28.0054C24.0666 28.0054 26.7131 28.0323 28.5618 28.0055C30.4105 27.9786 30.6632 27.0262 30.9691 24.9202C31.0755 24.1959 31.1154 23.1228 31.1154 21.9021Z" fill="#888888"/>
</svg>
