<svg width="48" height="48" viewBox="0 0 48 48" fill="none" xmlns="http://www.w3.org/2000/svg">
<g clip-path="url(#clip0_1304_23243)">
<path d="M42 0H6C2.68629 0 0 2.68629 0 6V42C0 45.3137 2.68629 48 6 48H42C45.3137 48 48 45.3137 48 42V6C48 2.68629 45.3137 0 42 0Z" fill="white" fill-opacity="0.8"/>
<path d="M34.7822 40.7973C34.7822 40.1329 35.3208 39.5943 35.9852 39.5943H37.4889C38.6516 39.5943 39.5942 38.6517 39.5942 37.489V36.5868C39.5942 35.9224 40.1328 35.3838 40.7972 35.3838C41.4616 35.3838 42.0002 35.9224 42.0002 36.5868V39.0003C42.0002 40.6572 40.6571 42.0003 39.0002 42.0003H35.9852C35.3208 42.0003 34.7822 41.4617 34.7822 40.7973Z" fill="#888888"/>
<path d="M7.20301 35.3838C7.86741 35.3838 8.40601 35.9224 8.40601 36.5868V37.489C8.40601 38.6517 9.34857 39.5943 10.5113 39.5943H11.4135C12.0779 39.5943 12.6165 40.1329 12.6165 40.7973C12.6165 41.4617 12.0779 42.0003 11.4135 42.0003H9C7.34315 42.0003 6 40.6572 6 39.0003V36.5868C6 35.9224 6.5386 35.3838 7.20301 35.3838Z" fill="#888888"/>
<path d="M12.6165 7.20301C12.6165 7.86741 12.0779 8.40601 11.4135 8.40601H10.5113C9.34857 8.40601 8.40601 9.34857 8.40601 10.5113V12.015C8.40601 12.6794 7.86741 13.218 7.20301 13.218C6.5386 13.218 6 12.6794 6 12.015V9C6 7.34315 7.34314 6 9 6H11.4135C12.0779 6 12.6165 6.5386 12.6165 7.20301Z" fill="#888888"/>
<path d="M34.7822 7.20301C34.7822 7.86741 35.3208 8.40601 35.9852 8.40601H37.1882C38.517 8.40601 39.5942 9.48323 39.5942 10.812V12.015C39.5942 12.6794 40.1328 13.218 40.7972 13.218C41.4616 13.218 42.0002 12.6794 42.0002 12.015V9C42.0002 7.34314 40.6571 6 39.0002 6H35.9852C35.3208 6 34.7822 6.5386 34.7822 7.20301Z" fill="#888888"/>
<path d="M10 37.9021V23.211C10.2808 22.9697 10.5464 22.7567 10.7932 22.5742C10.9661 23.8619 11.4183 28.2885 10.9794 35.5455C10.9661 35.7333 11.006 35.9211 11.0991 36.0821C11.1345 36.1268 11.1582 36.1715 11.1818 36.2162C11.1936 36.2386 11.2055 36.2609 11.2188 36.2833C10.864 36.6607 10.4223 37.1992 10 37.9021Z" fill="#888888"/>
<path d="M35.6203 38.0035H12.5616C12.5273 36.9543 12.4291 36.4306 12.4291 36.4306C12.3759 36.3904 11.9636 35.6258 11.9636 35.6258C12.5089 26.6652 11.7109 22.024 11.7109 22.024C12.1914 21.6679 12.7875 21.29 13.3928 20.9063C13.6084 20.7696 13.8252 20.6322 14.0384 20.4948C14.0118 20.7631 13.9852 21.0716 13.9852 21.4338C13.9719 21.5545 13.9453 22.0106 13.9586 22.4935C13.9852 23.5398 14.198 24.13 14.6502 24.4519C14.8497 24.5995 15.1822 24.7604 15.927 24.8409C15.9403 25.7665 15.9935 26.5177 16.0733 27.0677C16.3526 28.9724 16.6452 30.9309 19.4116 30.9846C19.9569 30.998 20.6485 30.998 21.4465 30.998C22.4342 30.998 23.3532 30.9903 23.7983 30.9865C23.9404 30.9853 24.0344 30.9846 24.0666 30.9846C24.1863 30.998 25.3301 30.998 26.5803 30.998C27.0082 30.998 27.4045 30.994 27.7649 30.9903H27.7666C28.0662 30.9873 28.3412 30.9846 28.5886 30.9846C31.3683 30.9443 31.6609 28.9724 31.9402 27.0677C32.02 26.5311 32.0732 25.7799 32.0865 24.8543C33.0574 24.7739 33.35 24.5592 33.4963 24.4519C33.9485 24.1166 34.1613 23.5264 34.1879 22.4801C34.1973 22.1263 34.1798 21.7998 34.1689 21.5977C34.1645 21.5163 34.1613 21.455 34.1613 21.4204C34.148 21.0582 34.1347 20.7497 34.1081 20.4814L34.1347 20.5082C34.2976 20.6115 34.462 20.7149 34.626 20.8179C35.292 21.2365 35.9499 21.6499 36.4622 22.0374C36.4622 22.0374 35.6642 26.6787 36.2095 35.6392C36.1829 35.7063 35.7972 36.4038 35.7573 36.4441C35.7573 36.4441 35.6567 36.9651 35.6203 38.0035Z" fill="#888888"/>
<path d="M38.0001 37.9089C37.61 37.259 37.2028 36.7493 36.8613 36.3769C36.9012 36.2964 36.9544 36.2159 37.0209 36.122V36.0952C37.1273 35.894 37.1672 35.6659 37.1273 35.4513C36.715 28.3955 37.1406 24.036 37.3135 22.6543C37.5298 22.818 37.7594 23.0037 38.0001 23.21V37.9089Z" fill="#888888"/>
<path d="M31.1156 23.9021C31.5412 23.9021 32.5919 23.8887 32.9244 23.6472H32.9111C33.3234 23.3521 33.1771 21.4741 33.1771 21.4741C33.1505 20.2132 33.0707 19.851 32.8712 19.6498C32.838 19.623 32.808 19.5995 32.7781 19.5761C32.7482 19.5526 32.7183 19.5291 32.685 19.5023C32.3973 19.3209 31.3643 19.3357 31.0365 19.3404C31.0005 19.3409 30.9731 19.3413 30.956 19.3413C30.8895 18.456 30.823 17.6377 30.7565 16.9939V16.9536C30.4935 14.5153 29.44 14.3735 28.7961 14.2868C28.7563 14.2814 28.7181 14.2763 28.6817 14.2708C28.0566 14.1769 24.0666 14.2037 24.0666 14.2037C24.0666 14.2037 19.917 14.1903 19.3052 14.2842C19.2687 14.2898 19.2302 14.2951 19.1899 14.3006C18.5554 14.3873 17.493 14.5326 17.2304 16.967C17.2265 16.9988 17.2214 17.0318 17.2161 17.0656C17.2037 17.1459 17.1905 17.2309 17.1905 17.3158C17.1373 17.8926 17.0841 18.5901 17.0309 19.3413C16.6585 19.3413 15.7009 19.3413 15.4216 19.5023C15.3879 19.5363 15.3489 19.5649 15.3079 19.5949C15.2842 19.6123 15.2598 19.6302 15.2354 19.6498C15.0492 19.8376 14.9694 20.1998 14.9295 21.4741C14.9295 21.4741 14.7832 23.3521 15.1955 23.6472C15.4881 23.8618 16.3925 23.9021 16.8713 23.9021C16.8713 25.1228 16.9112 26.2093 17.0176 26.9202C17.3368 29.0262 17.5762 29.9786 19.4249 30.0055C21.2736 30.0323 24.0668 30.0054 24.0668 30.0054C24.0668 30.0054 26.7133 30.0323 28.562 30.0055C30.4107 29.9786 30.6634 29.0262 30.9693 26.9202C31.0757 26.1959 31.1156 25.1228 31.1156 23.9021Z" fill="#888888"/>
</g>
<defs>
<clipPath id="clip0_1304_23243">
<rect width="48" height="48" fill="white"/>
</clipPath>
</defs>
</svg>
