<svg width="64" height="64" viewBox="0 0 64 64" fill="none" xmlns="http://www.w3.org/2000/svg">
<g filter="url(#filter0_d_1300_19825)">
<rect x="8" y="8" width="48" height="48" rx="6" fill="white" fill-opacity="0.8" shape-rendering="crispEdges"/>
<path d="M42.782 48.797C42.782 48.1326 43.3206 47.594 43.985 47.594H45.4887C46.6514 47.594 47.594 46.6514 47.594 45.4887V44.5865C47.594 43.9221 48.1326 43.3835 48.797 43.3835C49.4614 43.3835 50 43.9221 50 44.5865V47C50 48.6569 48.6569 50 47 50H43.985C43.3206 50 42.782 49.4614 42.782 48.797Z" fill="#888888"/>
<path d="M15.203 43.3835C15.8674 43.3835 16.406 43.9221 16.406 44.5865V45.4887C16.406 46.6514 17.3486 47.594 18.5113 47.594H19.4135C20.0779 47.594 20.6165 48.1326 20.6165 48.797C20.6165 49.4614 20.0779 50 19.4135 50H17C15.3431 50 14 48.6569 14 47V44.5865C14 43.9221 14.5386 43.3835 15.203 43.3835Z" fill="#888888"/>
<path d="M20.6165 15.203C20.6165 15.8674 20.0779 16.406 19.4135 16.406H18.5113C17.3486 16.406 16.406 17.3486 16.406 18.5113V20.015C16.406 20.6794 15.8674 21.218 15.203 21.218C14.5386 21.218 14 20.6794 14 20.015V17C14 15.3431 15.3431 14 17 14H19.4135C20.0779 14 20.6165 14.5386 20.6165 15.203Z" fill="#888888"/>
<path d="M42.782 15.203C42.782 15.8674 43.3206 16.406 43.985 16.406H45.188C46.5168 16.406 47.594 17.4832 47.594 18.812V20.015C47.594 20.6794 48.1326 21.218 48.797 21.218C49.4614 21.218 50 20.6794 50 20.015V17C50 15.3431 48.6569 14 47 14H43.985C43.3206 14 42.782 14.5386 42.782 15.203Z" fill="#888888"/>
<path d="M18 43.902V29.2109C18.2808 28.9696 18.5464 28.7566 18.7932 28.5741C18.9661 29.8618 19.4183 34.2884 18.9794 41.5454C18.9661 41.7332 19.006 41.921 19.0991 42.082C19.1345 42.1267 19.1582 42.1714 19.1818 42.2161C19.1936 42.2385 19.2055 42.2608 19.2188 42.2832C18.864 42.6606 18.4223 43.1991 18 43.902Z" fill="#888888"/>
<path d="M43.6203 44.0036H20.5616C20.5273 42.9544 20.4291 42.4307 20.4291 42.4307C20.3759 42.3905 19.9636 41.6259 19.9636 41.6259C20.5089 32.6653 19.7109 28.0241 19.7109 28.0241C20.1914 27.668 20.7875 27.2901 21.3928 26.9064C21.6084 26.7697 21.8252 26.6323 22.0384 26.4949C22.0118 26.7632 21.9852 27.0717 21.9852 27.4339C21.9719 27.5546 21.9453 28.0107 21.9586 28.4936C21.9852 29.5399 22.198 30.1301 22.6502 30.452C22.8497 30.5996 23.1822 30.7605 23.927 30.841C23.9403 31.7666 23.9935 32.5178 24.0733 33.0678C24.3526 34.9725 24.6452 36.931 27.4116 36.9847C27.9569 36.9981 28.6485 36.9981 29.4465 36.9981C30.4342 36.9981 31.3532 36.9904 31.7983 36.9866C31.9404 36.9854 32.0344 36.9847 32.0666 36.9847C32.1863 36.9981 33.3301 36.9981 34.5803 36.9981C35.0082 36.9981 35.4045 36.9941 35.7649 36.9904L35.7666 36.9904C36.0662 36.9874 36.3412 36.9847 36.5886 36.9847C39.3683 36.9444 39.6609 34.9725 39.9402 33.0678C40.02 32.5312 40.0732 31.78 40.0865 30.8544C41.0574 30.774 41.35 30.5593 41.4963 30.452C41.9485 30.1167 42.1613 29.5265 42.1879 28.4802C42.1973 28.1264 42.1798 27.7999 42.1689 27.5978C42.1645 27.5164 42.1613 27.4551 42.1613 27.4205C42.148 27.0583 42.1347 26.7498 42.1081 26.4815L42.1347 26.5083C42.2976 26.6116 42.462 26.715 42.626 26.818C43.292 27.2366 43.9499 27.65 44.4622 28.0375C44.4622 28.0375 43.6642 32.6788 44.2095 41.6393C44.1829 41.7064 43.7972 42.4039 43.7573 42.4442C43.7573 42.4442 43.6567 42.9652 43.6203 44.0036Z" fill="#888888"/>
<path d="M46 43.9091C45.6099 43.2592 45.2027 42.7495 44.8612 42.3771C44.9011 42.2966 44.9543 42.2161 45.0208 42.1222V42.0954C45.1272 41.8942 45.1671 41.6661 45.1272 41.4515C44.7149 34.3957 45.1405 30.0362 45.3134 28.6545C45.5297 28.8182 45.7593 29.0039 46 29.2102V43.9091Z" fill="#888888"/>
<path d="M39.1154 29.9021C39.541 29.9021 40.5917 29.8887 40.9242 29.6472H40.9109C41.3232 29.3521 41.1769 27.4741 41.1769 27.4741C41.1503 26.2132 41.0705 25.851 40.871 25.6498C40.8378 25.623 40.8078 25.5995 40.7779 25.5761C40.748 25.5526 40.7181 25.5291 40.6848 25.5023C40.3971 25.3209 39.3641 25.3357 39.0363 25.3404C39.0003 25.3409 38.9729 25.3413 38.9558 25.3413C38.8893 24.456 38.8228 23.6377 38.7563 22.9939V22.9536C38.4933 20.5153 37.4398 20.3735 36.7959 20.2868C36.7561 20.2814 36.7179 20.2763 36.6815 20.2708C36.0564 20.1769 32.0664 20.2037 32.0664 20.2037C32.0664 20.2037 27.9168 20.1903 27.305 20.2842C27.2685 20.2898 27.23 20.2951 27.1897 20.3006C26.5552 20.3873 25.4928 20.5326 25.2302 22.967C25.2263 22.9988 25.2212 23.0318 25.2159 23.0656C25.2035 23.1459 25.1903 23.2309 25.1903 23.3158C25.1371 23.8926 25.0839 24.5901 25.0307 25.3413C24.6583 25.3413 23.7007 25.3413 23.4214 25.5023C23.3877 25.5363 23.3487 25.5649 23.3077 25.5949C23.284 25.6123 23.2596 25.6302 23.2352 25.6498C23.049 25.8376 22.9692 26.1998 22.9293 27.4741C22.9293 27.4741 22.783 29.3521 23.1953 29.6472C23.4879 29.8618 24.3923 29.9021 24.8711 29.9021C24.8711 31.1228 24.911 32.2093 25.0174 32.9202C25.3366 35.0262 25.576 35.9786 27.4247 36.0055C29.2734 36.0323 32.0666 36.0054 32.0666 36.0054C32.0666 36.0054 34.7131 36.0323 36.5618 36.0055C38.4105 35.9786 38.6632 35.0262 38.9691 32.9202C39.0755 32.1959 39.1154 31.1228 39.1154 29.9021Z" fill="#888888"/>
</g>
<defs>
<filter id="filter0_d_1300_19825" x="0" y="0" width="64" height="64" filterUnits="userSpaceOnUse" color-interpolation-filters="sRGB">
<feFlood flood-opacity="0" result="BackgroundImageFix"/>
<feColorMatrix in="SourceAlpha" type="matrix" values="0 0 0 0 0 0 0 0 0 0 0 0 0 0 0 0 0 0 127 0" result="hardAlpha"/>
<feOffset/>
<feGaussianBlur stdDeviation="4"/>
<feComposite in2="hardAlpha" operator="out"/>
<feColorMatrix type="matrix" values="0 0 0 0 0 0 0 0 0 0 0 0 0 0 0 0 0 0 0.12 0"/>
<feBlend mode="normal" in2="BackgroundImageFix" result="effect1_dropShadow_1300_19825"/>
<feBlend mode="normal" in="SourceGraphic" in2="effect1_dropShadow_1300_19825" result="shape"/>
</filter>
</defs>
</svg>
