<svg width="41" height="41" viewBox="0 0 41 41" fill="none" xmlns="http://www.w3.org/2000/svg">
<g clip-path="url(#clip0_2707_25821)">
<path d="M18.9515 25.8433C16.6115 28.0633 15.0915 30.6833 14.2715 33.8433H26.0315C25.2115 30.6833 23.6915 28.0633 21.3515 25.8433C20.6915 25.2033 19.6315 25.2033 18.9515 25.8433Z" fill="#51E97C"/>
<path d="M16.2716 15.7047L18.8116 18.3647C19.5316 19.1247 20.7916 19.1247 21.5116 18.3647L24.0516 15.7047C24.2716 15.4647 24.1116 15.0847 23.7916 15.0847H16.5316C16.2116 15.0647 16.0516 15.4647 16.2716 15.7047Z" fill="#51E97C"/>
<path d="M39.332 37.5037H34.132C34.032 36.2838 33.392 35.2238 32.432 34.5638C32.472 34.5038 32.492 34.4237 32.492 34.3438V24.7437C32.492 24.4638 32.272 24.2437 31.992 24.2437C31.712 24.2437 31.492 24.4638 31.492 24.7437V34.1038C31.072 33.9438 30.612 33.8438 30.132 33.8438H29.132C29.152 33.7838 29.172 33.7438 29.172 33.6838V32.3238C29.172 25.5038 25.712 23.0238 23.432 21.3638C23.152 21.1637 22.992 20.8637 22.992 20.5037C22.992 20.1637 23.152 19.8438 23.432 19.6438C25.712 17.9838 29.172 15.5037 29.172 8.68375V7.66375C29.172 7.60375 29.152 7.54375 29.132 7.50375H30.132C30.612 7.50375 31.072 7.40375 31.492 7.24375V15.9438C31.492 16.2238 31.712 16.4438 31.992 16.4438C32.272 16.4438 32.492 16.2238 32.492 15.9438V6.68375C33.492 5.92375 34.132 4.70375 34.132 3.34375C34.132 3.06375 33.912 2.84375 33.632 2.84375H6.69203C6.41203 2.84375 6.19203 3.06375 6.19203 3.34375C6.19203 4.72375 6.85203 5.92375 7.83203 6.68375V15.9438C7.83203 16.2238 8.05203 16.4438 8.33203 16.4438C8.61203 16.4438 8.83203 16.2238 8.83203 15.9438V7.22375C9.25203 7.38375 9.71203 7.48375 10.192 7.48375H11.192C11.172 7.54375 11.152 7.58375 11.152 7.64375V8.66375C11.152 15.4838 14.612 17.9638 16.892 19.6238C17.172 19.8238 17.332 20.1237 17.332 20.4837C17.332 20.8237 17.172 21.1438 16.892 21.3438C14.612 23.0037 11.152 25.4838 11.152 32.3038V33.6638C11.152 33.7238 11.172 33.7838 11.192 33.8238H10.212C9.73203 33.8238 9.25203 33.9238 8.83203 34.1038V24.7238C8.83203 24.4438 8.61203 24.2238 8.33203 24.2238C8.05203 24.2238 7.83203 24.4438 7.83203 24.7238V34.3238C7.83203 34.4238 7.87203 34.5038 7.91203 34.5838C7.01203 35.2438 6.39203 36.2838 6.25203 37.4838H1.33203C1.05203 37.4838 0.832031 37.7038 0.832031 37.9838C0.832031 38.2638 1.05203 38.4838 1.33203 38.4838H6.69203H33.652H39.332C39.612 38.4838 39.832 38.2638 39.832 37.9838C39.832 37.7238 39.612 37.5037 39.332 37.5037ZM12.172 33.6638V32.3038C12.172 26.0038 15.252 23.7838 17.492 22.1637C18.032 21.7638 18.332 21.1637 18.332 20.5037C18.332 19.8438 18.032 19.2238 17.492 18.8438C15.252 17.2238 12.172 15.0038 12.172 8.70375V7.66375C12.172 7.60375 12.152 7.54375 12.132 7.50375H28.192C28.172 7.56375 28.152 7.60375 28.152 7.66375V8.68375C28.152 14.9838 25.072 17.2038 22.832 18.8238C22.292 19.2238 21.992 19.8237 21.992 20.4837C21.992 21.1437 22.292 21.7638 22.832 22.1438C25.072 23.7638 28.152 25.9838 28.152 32.2838V33.6438C28.152 33.7038 28.172 33.7638 28.192 33.8038H12.132C12.152 33.7838 12.172 33.7238 12.172 33.6638Z" fill="#B4BCD0"/>
<path d="M8.31203 22.8034L10.252 20.8634C10.352 20.7634 10.352 20.5834 10.252 20.4634L8.31203 18.5234C8.13203 18.3434 7.83203 18.4634 7.83203 18.7234V22.6234C7.83203 22.8634 8.13203 22.9834 8.31203 22.8034Z" fill="#B4BCD0"/>
<path d="M32.0326 18.5234L30.0926 20.4634C29.9926 20.5634 29.9926 20.7434 30.0926 20.8634L32.0326 22.8034C32.2126 22.9834 32.5126 22.8634 32.5126 22.6034V18.7234C32.4926 18.4634 32.1926 18.3434 32.0326 18.5234Z" fill="#B4BCD0"/>
</g>
<defs>
<clipPath id="clip0_2707_25821">
<rect width="40" height="40" fill="white" transform="translate(0.332031 0.664062)"/>
</clipPath>
</defs>
</svg>
