<svg width="41" height="41" viewBox="0 0 41 41" fill="none" xmlns="http://www.w3.org/2000/svg">
<g clip-path="url(#clip0_2707_25998)">
<path d="M39.332 37.8377H34.132C34.032 36.6177 33.392 35.5577 32.432 34.8977C32.472 34.8377 32.492 34.7577 32.492 34.6777V25.0777C32.492 24.7977 32.272 24.5777 31.992 24.5777C31.712 24.5777 31.492 24.7977 31.492 25.0777V34.4377C31.072 34.2777 30.612 34.1777 30.132 34.1777H29.132C29.152 34.1177 29.172 34.0777 29.172 34.0177V32.6577C29.172 25.8377 25.712 23.3577 23.432 21.6977C23.152 21.4977 22.992 21.1977 22.992 20.8377C22.992 20.4977 23.152 20.1777 23.432 19.9777C25.712 18.3177 29.172 15.8377 29.172 9.01773V7.99773C29.172 7.93773 29.152 7.87773 29.132 7.83773H30.132C30.612 7.83773 31.072 7.73773 31.492 7.57773V16.2777C31.492 16.5577 31.712 16.7777 31.992 16.7777C32.272 16.7777 32.492 16.5577 32.492 16.2777V7.01773C33.492 6.25773 34.132 5.03773 34.132 3.67773C34.132 3.39773 33.912 3.17773 33.632 3.17773H6.69203C6.41203 3.17773 6.19203 3.39773 6.19203 3.67773C6.19203 5.05773 6.85203 6.25773 7.83203 7.01773V16.2777C7.83203 16.5577 8.05203 16.7777 8.33203 16.7777C8.61203 16.7777 8.83203 16.5577 8.83203 16.2777V7.55773C9.25203 7.71773 9.71203 7.81773 10.192 7.81773H11.192C11.172 7.87773 11.152 7.91773 11.152 7.97774V8.99773C11.152 15.8177 14.612 18.2977 16.892 19.9577C17.172 20.1577 17.332 20.4577 17.332 20.8177C17.332 21.1577 17.172 21.4777 16.892 21.6777C14.612 23.3377 11.152 25.8177 11.152 32.6377V33.9977C11.152 34.0577 11.172 34.1177 11.192 34.1577H10.212C9.73203 34.1577 9.25203 34.2577 8.83203 34.4377V25.0577C8.83203 24.7777 8.61203 24.5577 8.33203 24.5577C8.05203 24.5577 7.83203 24.7777 7.83203 25.0577V34.6577C7.83203 34.7577 7.87203 34.8377 7.91203 34.9177C7.01203 35.5777 6.39203 36.6177 6.25203 37.8177H1.33203C1.05203 37.8177 0.832031 38.0377 0.832031 38.3177C0.832031 38.5977 1.05203 38.8177 1.33203 38.8177H6.69203H33.652H39.332C39.612 38.8177 39.832 38.5977 39.832 38.3177C39.832 38.0577 39.612 37.8377 39.332 37.8377ZM12.172 33.9977V32.6377C12.172 26.3377 15.252 24.1177 17.492 22.4977C18.032 22.0977 18.332 21.4977 18.332 20.8377C18.332 20.1777 18.032 19.5577 17.492 19.1777C15.252 17.5577 12.172 15.3377 12.172 9.03773V7.99773C12.172 7.93773 12.152 7.87773 12.132 7.83773H28.192C28.172 7.89773 28.152 7.93773 28.152 7.99773V9.01773C28.152 15.3177 25.072 17.5377 22.832 19.1577C22.292 19.5577 21.992 20.1577 21.992 20.8177C21.992 21.4777 22.292 22.0977 22.832 22.4777C25.072 24.0977 28.152 26.3177 28.152 32.6177V33.9777C28.152 34.0377 28.172 34.0977 28.192 34.1377H12.132C12.152 34.1177 12.172 34.0577 12.172 33.9977Z" fill="#B4BCD0"/>
<path d="M8.31203 23.1374L10.252 21.1974C10.352 21.0974 10.352 20.9174 10.252 20.7974L8.31203 18.8574C8.13203 18.6774 7.83203 18.7974 7.83203 19.0574V22.9574C7.83203 23.1974 8.13203 23.3174 8.31203 23.1374Z" fill="#B4BCD0"/>
<path d="M32.0326 18.8574L30.0926 20.7974C29.9926 20.8974 29.9926 21.0774 30.0926 21.1974L32.0326 23.1374C32.2126 23.3174 32.5126 23.1974 32.5126 22.9374V19.0574C32.4926 18.7974 32.1926 18.6774 32.0326 18.8574Z" fill="#B4BCD0"/>
<path d="M21.5312 15.8184C23.8712 13.5984 25.3912 10.9784 26.2112 7.81836H14.4512C15.2712 10.9784 16.7912 13.5984 19.1312 15.8184C19.8112 16.4584 20.8512 16.4584 21.5312 15.8184Z" fill="#8F98B7"/>
</g>
<defs>
<clipPath id="clip0_2707_25998">
<rect width="40" height="40" fill="white" transform="translate(0.332031 0.998047)"/>
</clipPath>
</defs>
</svg>
