<svg width="37" height="43" viewBox="0 0 37 43" fill="none" xmlns="http://www.w3.org/2000/svg">
<path fill-rule="evenodd" clip-rule="evenodd" d="M5.69231 16.125V12.0938C5.69231 5.41456 11.4265 0 18.5 0C25.5735 0 31.3077 5.41456 31.3077 12.0938V16.125C34.4515 16.125 37 18.5315 37 21.5V37.625C37 40.5935 34.4515 43 31.3077 43H5.69231C2.54853 43 0 40.5935 0 37.625V21.5C0 18.5315 2.54853 16.125 5.69231 16.125ZM11.3846 12.0938C11.3846 8.38309 14.5703 5.375 18.5 5.375C22.4297 5.375 25.6154 8.38309 25.6154 12.0938V16.125H11.3846V12.0938Z" fill="#D2D2D2" fill-opacity="0.8"/>
</svg>
