<svg width="34" height="31" viewBox="0 0 34 31" fill="none" xmlns="http://www.w3.org/2000/svg">
<g clip-path="url(#clip0_3077_74002)">
<path d="M22.83 30.05H9.3C4.17 30.05 0 25.86 0 20.72V20.56C0 20.09 0.38 19.7 0.86 19.7H8.4C8.64 19.7 8.87 19.8 9.04 19.98C9.21 20.16 9.29 20.41 9.27 20.66C9.23 21.05 9.3 21.43 9.47 21.77C9.81 22.46 10.52 22.9 11.29 22.9H14.4V21.24H11.33C11.01 21.24 10.72 21.06 10.57 20.77C10.42 20.48 10.44 20.14 10.63 19.88L10.76 19.68C10.96 19.4 11.48 18.64 12.07 17.59C12.45 16.93 12.74 16.34 12.97 15.8C13.02 15.69 13.05 15.6 13.09 15.51L13.14 15.36C13.2 15.19 13.25 15.07 13.28 14.94C13.33 14.79 13.36 14.67 13.39 14.56L13.42 14.46C13.52 14.01 13.58 13.5 13.58 12.92C13.58 12.71 13.58 12.48 13.55 12.27C13.54 12.01 13.51 11.78 13.48 11.55C13.46 11.31 13.42 11.1 13.38 10.89C13.33 10.55 13.26 10.24 13.18 9.91997L13.11 9.62997C13.06 9.44997 13.02 9.29997 12.97 9.14997C12.77 8.44997 12.54 7.75997 12.27 7.07997C12.17 6.80997 12.07 6.56997 11.97 6.32997C11.85 6.02997 11.73 5.76997 11.61 5.50997L11.57 5.40997L11.51 5.27997C11.44 5.14997 11.38 5.00997 11.31 4.85997C11.24 4.70997 11.17 4.55997 11.1 4.40997L11.04 4.27997C11 4.18997 10.96 4.10997 10.92 4.02997L10.5 3.24997C10.35 2.98997 10.38 2.64997 10.57 2.39997C10.76 2.14997 11.08 2.04997 11.38 2.12997L14.4 2.94997V2.07997C14.4 0.919971 15.34 -0.0300293 16.49 -0.0300293C17.05 -0.0300293 17.58 0.189971 17.97 0.589971C18.36 0.989971 18.58 1.51997 18.58 2.06997V4.12997L19.18 4.57997C19.25 4.63997 19.31 4.68997 19.39 4.74997C19.68 4.98997 20.02 5.27997 20.39 5.61997C20.48 5.69997 20.59 5.79997 20.68 5.88997C21.27 6.43997 21.76 6.92997 22.19 7.41997C22.33 7.57997 22.47 7.74997 22.62 7.91997L22.77 8.09997C22.87 8.21997 22.96 8.32997 23.05 8.44997L23.15 8.57997C23.3 8.76997 23.45 8.97997 23.59 9.18997L23.83 9.53997C24.04 9.84997 24.23 10.19 24.41 10.52C24.5 10.7 24.58 10.87 24.65 11.04C24.86 11.5 25.01 11.97 25.12 12.43C25.15 12.51 25.18 12.66 25.19 12.78C25.22 12.88 25.23 13.05 25.25 13.22C25.3 13.72 25.27 14.23 25.16 14.73C25.12 14.94 25.06 15.14 24.98 15.35C24.89 15.61 24.82 15.79 24.74 15.96C24.56 16.38 24.35 16.77 24.12 17.13C24.06 17.24 23.96 17.39 23.87 17.53L23.59 17.93C23.45 18.12 23.32 18.3 23.18 18.46C23.08 18.6 22.95 18.77 22.81 18.93C22.64 19.13 22.47 19.34 22.28 19.54C22.18 19.66 22.05 19.8 21.92 19.93C21.84 20.02 21.73 20.13 21.63 20.23C21.4 20.46 21.24 20.61 21.11 20.73L20.82 21C20.65 21.15 20.45 21.22 20.24 21.22H18.59V22.88H20.82C21.31 22.88 21.77 22.71 22.15 22.39C22.74 21.87 23.32 21.31 23.86 20.71C23.97 20.59 24.12 20.5 24.28 20.46L32.16 18.18C32.42 18.11 32.7 18.16 32.91 18.32C33.12 18.48 33.25 18.74 33.25 19.01V20.68C33.25 21.02 33.05 21.33 32.73 21.47C31.71 21.91 30.45 22.63 29.93 23.34C29.53 23.89 29.16 24.49 28.77 25.12C27.33 27.43 25.72 30.02 22.83 30.02V30.05ZM1.25 20.95C1.38 25.3 4.94 28.79 9.3 28.79H22.83C25.02 28.79 26.32 26.71 27.69 24.5C28.09 23.85 28.49 23.21 28.92 22.62C29.66 21.6 31.18 20.81 32 20.43V19.53L24.71 21.64C24.16 22.24 23.58 22.81 22.98 23.33C22.36 23.86 21.6 24.14 20.82 24.14H17.34V19.98H20.09L20.27 19.82C20.39 19.71 20.53 19.58 20.7 19.41C20.83 19.28 20.93 19.19 21.02 19.08C21.15 18.95 21.25 18.84 21.34 18.73C21.53 18.52 21.7 18.33 21.87 18.13C22 17.99 22.1 17.85 22.2 17.71C22.35 17.53 22.46 17.38 22.57 17.23L22.83 16.86C22.91 16.75 22.98 16.63 23.05 16.51C23.26 16.19 23.43 15.85 23.59 15.48C23.66 15.33 23.71 15.19 23.76 15.05L23.79 14.96C23.83 14.82 23.88 14.67 23.92 14.5C24 14.12 24.02 13.75 23.98 13.36C23.98 13.25 23.97 13.14 23.94 13.05L23.92 12.9C23.92 12.9 23.91 12.83 23.89 12.78C23.79 12.35 23.66 11.96 23.48 11.56C23.41 11.4 23.35 11.25 23.28 11.12C23.13 10.84 22.96 10.54 22.77 10.25L22.53 9.89997C22.41 9.71997 22.28 9.53997 22.15 9.36997L22.06 9.24997C21.98 9.14997 21.9 9.04997 21.81 8.94997L21.65 8.75997C21.52 8.59997 21.39 8.44997 21.25 8.28997C20.85 7.83997 20.39 7.36997 19.81 6.83997C19.72 6.74997 19.64 6.67997 19.55 6.59997C19.19 6.26997 18.87 5.98997 18.6 5.77997C18.52 5.71997 18.43 5.64997 18.36 5.57997L18.1 5.36997L18.04 5.32997L17.32 5.09997V2.10997C17.32 1.87997 17.23 1.65997 17.07 1.49997C16.91 1.33997 16.7 1.24997 16.48 1.24997C16.02 1.24997 15.64 1.62997 15.64 2.10997V4.62997L12.1 3.64997C12.1 3.64997 12.13 3.70997 12.14 3.72997L12.22 3.87997C12.29 4.01997 12.37 4.17997 12.44 4.33997C12.5 4.46997 12.56 4.59997 12.63 4.74997L12.74 4.99997C12.86 5.26997 12.99 5.54997 13.11 5.84997C13.22 6.10997 13.33 6.37997 13.43 6.64997C13.7 7.34997 13.94 8.06997 14.15 8.78997C14.2 8.94997 14.25 9.10997 14.29 9.27997L14.38 9.62997C14.47 9.96997 14.54 10.33 14.6 10.69C14.64 10.92 14.69 11.16 14.71 11.41C14.74 11.67 14.78 11.94 14.79 12.2C14.81 12.42 14.82 12.68 14.82 12.93C14.82 13.61 14.76 14.21 14.63 14.77L14.6 14.88C14.56 15.03 14.52 15.18 14.47 15.32C14.44 15.44 14.38 15.6 14.32 15.75L14.26 15.9C14.2 16.07 14.15 16.19 14.1 16.3C13.86 16.87 13.55 17.5 13.14 18.21C12.71 18.97 12.32 19.58 12.05 19.99H15.63V24.15H11.27C10.03 24.15 8.88 23.43 8.33 22.32C8.11 21.89 7.99 21.42 7.98 20.94H1.25V20.95ZM24.62 21.68H24.6C24.6 21.68 24.61 21.68 24.62 21.68Z" fill="white"/>
<path d="M9.67094 18.05H2.72094C2.40094 18.05 2.12094 17.88 1.96094 17.6C1.81094 17.32 1.82094 16.99 1.99094 16.73L8.85094 6.00004C9.02094 5.73004 9.32094 5.59004 9.64094 5.61004C9.95094 5.63004 10.2309 5.83004 10.3609 6.11004C11.2309 8.06004 12.6109 11.7 12.0409 14.13C11.7809 15.2 11.0509 16.52 10.6409 17.21C10.5709 17.35 10.4709 17.51 10.3709 17.66C10.2109 17.9 9.94094 18.04 9.66094 18.04L9.67094 18.05ZM3.45094 16.8H9.46094C9.50094 16.73 9.54094 16.67 9.57094 16.6C10.2209 15.5 10.6809 14.5 10.8409 13.84C11.1609 12.46 10.6709 10.05 9.52094 7.29004L3.44094 16.8H3.45094Z" fill="white"/>
</g>
<defs>
<clipPath id="clip0_3077_74002">
<rect width="33.25" height="30.05" fill="white"/>
</clipPath>
</defs>
</svg>
