<svg width="28" height="28" viewBox="0 0 28 28" fill="none" xmlns="http://www.w3.org/2000/svg">
<g clip-path="url(#clip0_3358_3189)">
<path d="M17.4242 5.78188C17.4242 5.78188 17.3456 5.75942 17.3232 5.75942C16.8404 5.70329 15.3248 5.70329 13.7306 5.70329C12.6977 5.70329 11.8893 5.70329 11.2943 5.70329C10.733 5.70329 10.3288 5.72574 10.1155 5.7482C10.0818 5.7482 10.0481 5.7482 10.0369 5.75942H10.0144C9.47554 5.86047 8.93665 6.06255 8.52125 6.55654C8.10585 7.03929 7.88131 7.73536 7.7915 8.70088L7.71291 9.6664C6.83721 9.70008 6.12991 10.4635 6.12991 11.3953V13.3152C6.12991 14.1909 6.74739 14.9094 7.54451 15.0329C7.54451 15.5156 7.57819 15.9423 7.62309 16.3352C7.60064 16.3352 7.58941 16.3352 7.56696 16.3352C5.43384 17.0425 3.99679 19.0184 3.99679 21.2751C3.99679 21.567 4.23256 21.8027 4.52446 21.8027C4.81636 21.8027 5.05212 21.567 5.05212 21.2751C5.05212 19.5237 6.15236 17.9743 7.78027 17.3793C7.87009 17.8396 7.99358 18.2999 8.21812 18.6816C8.61107 19.344 9.26223 19.737 10.2727 19.7931H17.0986C18.1091 19.737 18.7602 19.344 19.1532 18.6816C19.4002 18.2662 19.5237 17.7723 19.6135 17.2783C21.3986 17.761 22.6784 19.4002 22.6784 21.2638C22.6784 21.5557 22.9142 21.7915 23.2061 21.7915C23.498 21.7915 23.7338 21.5557 23.7338 21.2638C23.7338 18.8725 22.0722 16.7955 19.7706 16.2342C19.8043 15.8749 19.838 15.4932 19.838 15.0441C20.68 14.9655 21.3424 14.2245 21.3424 13.3152V11.3953C21.3424 10.4411 20.6014 9.6664 19.6921 9.6664H19.6808C19.6584 9.31837 19.6247 8.99278 19.6022 8.70088C19.6022 8.70088 19.6022 8.70088 19.6022 8.68966C19.6022 8.67843 19.6022 8.6672 19.6022 8.65597C19.49 7.73536 19.2654 7.06175 18.8837 6.59022C18.502 6.10746 18.008 5.89415 17.514 5.78188H17.4242ZM18.6255 8.77947C18.6255 8.77947 18.6255 8.80193 18.6255 8.81315C18.6592 9.21732 18.6929 9.67763 18.7378 10.2165L18.7715 10.6881H19.6696C20.0513 10.6881 20.3544 11.0136 20.3544 11.4066V13.3264C20.3544 13.7306 20.0513 14.0449 19.6696 14.0449H18.8613V14.5501C18.8613 15.4034 18.8388 15.9984 18.7602 16.4475V16.4587C18.648 17.1997 18.5581 17.7498 18.3224 18.1427C18.1315 18.4683 17.7947 18.7378 17.0425 18.7715H10.2839C9.53168 18.7265 9.19487 18.4683 9.00401 18.1427C8.76824 17.7498 8.67843 17.1997 8.56616 16.4587V16.4362C8.48757 15.9872 8.46512 15.3697 8.46512 14.5389V14.0337H7.74659C7.36488 14.0337 7.06175 13.7081 7.06175 13.3152V11.3953C7.06175 10.9912 7.36488 10.6768 7.74659 10.6768H8.56616L8.71211 8.7907C8.7907 7.93745 8.98155 7.48837 9.20609 7.23015C9.41941 6.98316 9.71131 6.83721 10.1492 6.75862H10.2277V6.74739C10.3737 6.73617 10.7105 6.71371 11.2831 6.71371C11.8669 6.71371 12.6752 6.70249 13.7081 6.70249C15.3472 6.70249 16.7843 6.70249 17.1884 6.75862H17.2446L17.3007 6.76985C17.66 6.85966 17.9182 6.98316 18.1091 7.23015C18.3224 7.48837 18.502 7.94868 18.6143 8.76824L18.6255 8.77947Z" fill="white"/>
<path d="M27.3937 5.71452C27.2927 5.44507 26.9896 5.31035 26.7201 5.41139C26.4507 5.51243 26.316 5.81556 26.417 6.085C26.765 6.99439 26.9447 7.9599 26.9447 8.93665V19.0521C26.9447 23.4082 23.4082 26.9447 19.0521 26.9447H8.93665C4.58059 26.9447 1.04411 23.4082 1.04411 19.0521V8.94788C1.04411 4.60305 4.59182 1.05533 8.93665 1.05533H17.0874C17.3793 1.05533 17.6151 0.819567 17.6151 0.527666C17.6151 0.235766 17.3793 0 17.0874 0H8.93665C4.00802 0.0112269 0 4.01925 0 8.94788V19.0634C0 23.992 4.00802 28 8.93665 28H19.0521C23.9808 28 27.9888 23.992 27.9888 19.0634V8.94788C27.9888 7.83641 27.7867 6.74739 27.3825 5.71452H27.3937Z" fill="white"/>
<path d="M19.8492 5.38893L23.7899 5.42262C23.9358 5.42262 24.0144 5.24298 23.9134 5.14194L22.9479 4.17642L23.3184 3.80593C25.1933 1.93103 26.664 2.14435 27.4274 2.51484C27.6407 2.61588 27.3152 2.20048 27.2366 2.13312C25.1371 0.213312 22.5774 0.95429 20.9046 2.14435L19.9391 1.1676C19.838 1.06656 19.6584 1.13392 19.6584 1.2911L19.6921 5.23176C19.6921 5.32157 19.7706 5.40016 19.8605 5.40016L19.8492 5.38893Z" fill="white"/>
</g>
<defs>
<clipPath id="clip0_3358_3189">
<rect width="28" height="28" fill="white"/>
</clipPath>
</defs>
</svg>
