<svg width="34" height="34" viewBox="0 0 34 34" fill="none" xmlns="http://www.w3.org/2000/svg">
<path d="M9.78127 20.3217C6.79844 21.5575 4.33543 23.5785 2.77292 26.0903L2.63477 26.3124L2.70212 26.5682C3.80969 30.7758 7.47125 33.8652 11.8192 33.8652H21.4498C25.7985 33.8652 29.4606 30.7748 30.5675 26.5661L30.6348 26.3102L30.4966 26.0881C28.8109 23.3797 26.0781 21.2419 22.7756 20.0446C22.76 20.1922 22.7408 20.331 22.717 20.4617C22.678 20.7214 22.6398 20.9755 22.595 21.2198C25.5112 22.3176 27.9087 24.1926 29.4237 26.5084C28.3687 30.0913 25.1969 32.6928 21.4498 32.6928H11.8192C8.07273 32.6928 4.90146 30.0923 3.84583 26.5103C5.23864 24.3805 7.37771 22.6234 9.98025 21.5005C9.90988 21.1727 9.85774 20.8226 9.80448 20.4617C9.7962 20.4162 9.78848 20.3695 9.78127 20.3217Z" fill="white"/>
<path fill-rule="evenodd" clip-rule="evenodd" d="M13.4889 7.87824C14.1803 7.86834 15.1213 7.86523 16.3139 7.86523C18.1607 7.86523 19.9293 7.86819 20.4824 7.9354L20.4876 7.93604C20.4897 7.93632 20.4923 7.93667 20.4954 7.93706C20.5175 7.93987 20.5636 7.94571 20.6137 7.95595L20.6753 7.96461L20.6968 7.96948C21.2709 8.09936 21.8355 8.34509 22.2808 8.90827C22.7132 9.4552 22.9781 10.2329 23.1108 11.3054C23.1114 11.3086 23.112 11.3123 23.1126 11.3163C23.1139 11.3255 23.1157 11.3384 23.1171 11.3538C23.1176 11.3583 23.118 11.3633 23.1184 11.3687C23.1489 11.7052 23.1793 12.0737 23.211 12.482H23.2247C24.2796 12.482 25.135 13.3825 25.135 14.4938V16.7235C25.135 17.7744 24.3701 18.6368 23.3949 18.7275C23.3854 19.4404 23.3575 20.0496 23.2653 20.5622C23.263 20.5772 23.2608 20.5923 23.2585 20.6074C23.1419 21.3862 23.0106 22.2636 22.6045 22.9457C22.1461 23.7159 21.3916 24.171 20.2209 24.23L20.2076 24.2307H12.3139L12.3006 24.23C11.1285 24.171 10.3727 23.7163 9.91399 22.9457C9.50657 22.2612 9.37679 21.3808 9.26171 20.6C9.25982 20.5871 9.25793 20.5743 9.25604 20.5615C9.1639 20.0484 9.13604 19.4207 9.12654 18.715C8.20071 18.5757 7.4888 17.7374 7.4888 16.7235V14.4938C7.4888 13.4105 8.30158 12.5276 9.31965 12.4837L9.40795 11.3622C9.5101 10.2514 9.78059 9.44311 10.2571 8.88067C10.7405 8.31006 11.3649 8.0763 11.9925 7.95738L12.0024 7.95551L12.0299 7.95137C12.0528 7.94536 12.0862 7.93794 12.1271 7.9341C12.3649 7.90322 12.8321 7.88765 13.4889 7.87824ZM12.2857 9.09494L12.2745 9.0989L12.1799 9.11312C11.6755 9.20989 11.3345 9.36967 11.0875 9.6613C10.8323 9.96254 10.6071 10.4877 10.5162 11.4713L10.3443 13.6544H9.39911C8.95851 13.6544 8.60177 14.0304 8.60177 14.4938V16.7235C8.60177 17.187 8.95851 17.5629 9.39911 17.5629H10.2326L10.235 18.1466C10.239 19.1116 10.2562 19.8301 10.351 20.3514L10.3529 20.3615L10.3544 20.3716C10.4814 21.2326 10.587 21.8694 10.8569 22.3229C11.0829 22.7025 11.4638 23.0113 12.3409 23.0583H20.18C21.0546 23.0114 21.4354 22.703 21.6616 22.3229C21.9319 21.8688 22.0382 21.2316 22.1673 20.3702L22.1687 20.3608L22.1704 20.3514C22.2653 19.83 22.2825 19.1401 22.2865 18.1467L22.2888 17.5629H23.2247C23.6653 17.5629 24.022 17.187 24.022 16.7235V14.4938C24.022 14.0304 23.6653 13.6544 23.2247 13.6544H22.1828L22.1425 13.1141C22.096 12.4893 22.0535 11.9557 22.0112 11.4881L22.0105 11.4839C22.0092 11.475 22.0075 11.4626 22.0061 11.4478C21.8863 10.488 21.6663 9.96315 21.4255 9.65857C21.1995 9.37267 20.9061 9.2188 20.4839 9.12052L20.4237 9.11207L20.4005 9.10664C20.4005 9.10664 20.3975 9.10599 20.3897 9.10482L20.3734 9.10255L20.3528 9.09985C19.8798 9.04297 18.2108 9.03766 16.3139 9.03766C15.1215 9.03766 14.1872 9.04077 13.5041 9.05056C12.8474 9.05996 12.4556 9.0755 12.2857 9.09494ZM22.0159 11.5151C22.0162 11.5169 22.0159 11.5154 22.0155 11.5134L22.0159 11.5151Z" fill="white"/>
<path fill-rule="evenodd" clip-rule="evenodd" d="M20.6217 1.79112L21.6805 7.82946L27.7362 6.49856L25.4836 5.00811C25.6058 4.78182 25.7408 4.55914 25.8887 4.34102C27.0338 2.65225 28.7306 1.56712 30.5283 1.19078C27.7552 0.0482541 24.5046 0.769675 22.4757 3.0179L20.6217 1.79112Z" fill="white"/>
</svg>
