<svg width="23" height="23" viewBox="0 0 23 23" fill="none" xmlns="http://www.w3.org/2000/svg">
<rect x="0.236328" y="0.794922" width="21.8119" height="21.8119" rx="10.906" fill="#7355B4"/>
<path d="M13.6729 11.5139C13.6529 11.5219 11.4849 12.3419 8.5769 11.5019C8.3289 11.4299 8.0729 11.5739 8.0049 11.8179C7.9329 12.0619 8.07691 12.3219 8.32091 12.3899C9.40891 12.7059 10.3969 12.8099 11.2369 12.8099C12.8849 12.8099 13.9489 12.4019 14.0169 12.3779C14.2529 12.2859 14.3689 12.0179 14.2769 11.7779C14.1809 11.5379 13.9129 11.4219 13.6729 11.5139Z" fill="#B4BCD0"/>
<path d="M18.8818 6.74956C18.4058 6.58156 17.8978 6.72956 17.5298 7.14556C17.3218 7.38156 17.0778 7.65356 16.7978 7.96956L16.5418 8.18556C15.5018 9.05756 14.7338 8.81356 14.1778 8.50156C13.7018 8.23756 12.4698 7.62156 11.2538 7.62156C11.1738 7.61356 11.0898 7.61356 11.0138 7.62556V7.62156C9.83379 7.68956 9.04578 8.06156 8.34578 8.39356L8.14178 8.48956C7.62178 8.73356 6.83379 9.09756 5.74978 8.18556L5.46978 7.94956C5.19778 7.64156 4.95778 7.37356 4.75378 7.14556C4.38578 6.72956 3.88178 6.58156 3.40178 6.74956C2.79778 6.96156 2.38178 7.61756 2.34578 8.41756C2.28978 9.54956 2.82578 10.8056 3.81378 11.8616C4.61378 12.7176 5.42578 13.1016 5.80578 13.2496C6.34178 14.3896 7.86178 16.7216 11.3258 16.7216C13.7138 16.7216 15.5378 15.4896 16.4978 13.2416C16.8858 13.0896 17.6818 12.7056 18.4698 11.8616C19.4578 10.8056 19.9938 9.55356 19.9378 8.41756C19.8978 7.61756 19.4858 6.96156 18.8818 6.74956ZM4.48978 11.2256C3.68578 10.3656 3.22978 9.33356 3.26978 8.46156C3.29378 7.98156 3.51378 7.68956 3.70978 7.62156C3.75378 7.60556 3.88578 7.56156 4.05778 7.75756C4.31378 8.04556 4.62178 8.39356 4.98978 8.80556C5.00578 9.98556 5.13378 11.0456 5.36978 11.9736C5.10178 11.7976 4.79378 11.5536 4.48978 11.2256ZM11.3258 15.7936C8.22178 15.7936 6.98178 13.6656 6.59378 12.7696C6.58178 12.7216 6.56178 12.6736 6.53778 12.6336C6.48578 12.4976 6.45779 12.4056 6.44978 12.3856L6.44178 12.3656C6.26578 11.8376 6.13378 11.2496 6.04578 10.6096C6.01378 10.3936 6.03778 10.1616 6.14178 9.96956C6.18578 9.88956 6.23778 9.82156 6.29778 9.76156C6.39378 9.66556 6.53378 9.64156 6.66178 9.66556C7.48978 9.81756 8.14578 9.51356 8.52978 9.33356L8.73778 9.23756C9.41778 8.91356 10.0618 8.60956 11.0618 8.55356L11.1098 8.54956C11.1178 8.54956 11.1258 8.54956 11.1338 8.54956L11.2538 8.55356C12.2778 8.55356 13.4058 9.13756 13.7258 9.31756C14.2298 9.59756 14.7298 9.73356 15.2258 9.71756C15.3218 9.71356 15.4178 9.69356 15.5138 9.66956C16.0978 9.53756 16.3458 9.82156 16.2298 10.6616C16.1298 11.3576 15.9818 11.9976 15.7778 12.5536C15.7658 12.5816 15.7538 12.6056 15.7458 12.6336C15.7178 12.6816 15.6978 12.7296 15.6858 12.7856C14.6698 15.2576 12.7698 15.7936 11.3258 15.7936ZM17.7938 11.2256C17.4898 11.5496 17.1898 11.7896 16.9218 11.9696C17.1578 11.0416 17.2818 9.97756 17.2978 8.80156C17.6618 8.39356 17.9698 8.04556 18.2218 7.75756C18.3978 7.56156 18.5298 7.60556 18.5698 7.62156C18.7658 7.68956 18.9858 7.98156 19.0098 8.46156C19.0538 9.33356 18.5978 10.3696 17.7938 11.2256Z" fill="#B4BCD0"/>
</svg>
