<svg width="40" height="40" viewBox="0 0 40 40" fill="none" xmlns="http://www.w3.org/2000/svg">
<circle cx="20" cy="20" r="20" fill="#D9D9D9"/>
<path d="M30.5014 27.0769C30.1972 27.0769 29.9208 26.9982 29.6721 26.8408C29.4234 26.6833 29.2248 26.4471 29.0763 26.1322C28.9278 25.8173 28.8535 25.4264 28.8535 24.9594C28.8535 24.4746 28.9305 24.0756 29.0843 23.7625C29.2382 23.4493 29.4395 23.2176 29.6882 23.0674C29.9387 22.9171 30.2079 22.8419 30.496 22.8419C30.7125 22.8419 30.8977 22.8795 31.0515 22.9546C31.2054 23.028 31.3325 23.1228 31.4326 23.2391C31.5328 23.3554 31.6089 23.4762 31.6608 23.6014H31.6876V21.5215H33V27.0179H31.701V26.3496H31.6608C31.6053 26.4767 31.5266 26.5956 31.4246 26.7066C31.3226 26.8175 31.1947 26.907 31.0408 26.975C30.8887 27.0429 30.7089 27.0769 30.5014 27.0769ZM30.9576 26.0544C31.1169 26.0544 31.2528 26.0097 31.3655 25.9202C31.4783 25.829 31.565 25.7011 31.6259 25.5364C31.6867 25.3718 31.7171 25.1786 31.7171 24.9567C31.7171 24.7313 31.6867 24.5372 31.6259 24.3744C31.5668 24.2115 31.4801 24.0863 31.3655 23.9986C31.2528 23.911 31.1169 23.8671 30.9576 23.8671C30.7948 23.8671 30.657 23.9119 30.5443 24.0013C30.4316 24.0908 30.3457 24.2169 30.2867 24.3797C30.2294 24.5425 30.2008 24.7349 30.2008 24.9567C30.2008 25.1786 30.2303 25.3718 30.2893 25.5364C30.3484 25.7011 30.4334 25.829 30.5443 25.9202C30.657 26.0097 30.7948 26.0544 30.9576 26.0544Z" fill="black"/>
<path d="M26.7479 27.0946C26.3167 27.0946 25.9446 27.0097 25.6314 26.8397C25.3201 26.6679 25.0804 26.4237 24.9122 26.107C24.7458 25.7885 24.6626 25.4101 24.6626 24.9718C24.6626 24.5459 24.7467 24.1738 24.9149 23.8553C25.0831 23.535 25.3201 23.2863 25.6261 23.1092C25.932 22.9303 26.2926 22.8408 26.7077 22.8408C27.0011 22.8408 27.2695 22.8864 27.5128 22.9777C27.7561 23.0689 27.9664 23.204 28.1435 23.3829C28.3206 23.5619 28.4584 23.7828 28.5568 24.0458C28.6552 24.3071 28.7044 24.6068 28.7044 24.9449V25.2723H25.1215V24.5101H27.4833C27.4815 24.3706 27.4484 24.2462 27.384 24.1371C27.3196 24.028 27.231 23.943 27.1183 23.8821C27.0073 23.8195 26.8794 23.7882 26.7345 23.7882C26.5878 23.7882 26.4563 23.8213 26.34 23.8875C26.2237 23.9519 26.1315 24.0405 26.0635 24.1532C25.9956 24.2641 25.9598 24.3903 25.9562 24.5316V25.3072C25.9562 25.4754 25.9893 25.623 26.0555 25.7501C26.1217 25.8753 26.2156 25.9728 26.3373 26.0426C26.459 26.1124 26.6039 26.1473 26.7721 26.1473C26.8884 26.1473 26.9939 26.1312 27.0888 26.0989C27.1836 26.0667 27.265 26.0193 27.333 25.9567C27.401 25.8941 27.452 25.8172 27.486 25.7259L28.691 25.7608C28.6409 26.031 28.5308 26.2662 28.3609 26.4666C28.1927 26.6652 27.9717 26.82 27.698 26.9309C27.4242 27.0401 27.1075 27.0946 26.7479 27.0946Z" fill="black"/>
<path d="M24.5728 22.8978V23.864H21.9722V22.8978H24.5728ZM22.517 21.9102H23.8294V25.7238C23.8294 25.8043 23.8419 25.8696 23.8669 25.9197C23.8938 25.9681 23.9322 26.0029 23.9823 26.0244C24.0324 26.0441 24.0924 26.0539 24.1621 26.0539C24.2122 26.0539 24.265 26.0495 24.3205 26.0405C24.3777 26.0298 24.4207 26.0208 24.4493 26.0137L24.6479 26.9611C24.5853 26.979 24.4967 27.0013 24.3822 27.0282C24.2695 27.055 24.1344 27.072 23.977 27.0791C23.6692 27.0935 23.4053 27.0577 23.1852 26.9718C22.967 26.8841 22.7997 26.7481 22.6834 26.5639C22.5689 26.3796 22.5134 26.1479 22.517 25.8688V21.9102Z" fill="black"/>
<path d="M19.3582 27.0866C19.0952 27.0866 18.8617 27.0428 18.6578 26.9551C18.4556 26.8656 18.2955 26.7314 18.1774 26.5525C18.0611 26.3718 18.0029 26.1455 18.0029 25.8735C18.0029 25.6445 18.0432 25.4513 18.1237 25.2938C18.2042 25.1364 18.3151 25.0084 18.4565 24.91C18.5978 24.8116 18.7607 24.7374 18.9449 24.6873C19.1292 24.6354 19.326 24.6005 19.5354 24.5826C19.7698 24.5611 19.9585 24.5388 20.1017 24.5155C20.2448 24.4905 20.3486 24.4556 20.413 24.4108C20.4792 24.3643 20.5123 24.299 20.5123 24.2149V24.2015C20.5123 24.0637 20.4649 23.9573 20.37 23.8821C20.2752 23.807 20.1473 23.7694 19.9863 23.7694C19.8127 23.7694 19.6731 23.807 19.5676 23.8821C19.462 23.9573 19.3949 24.0611 19.3663 24.1935L18.1559 24.1505C18.1917 23.9 18.2838 23.6764 18.4323 23.4796C18.5826 23.281 18.7884 23.1253 19.0496 23.0126C19.3126 22.8981 19.6284 22.8408 19.997 22.8408C20.26 22.8408 20.5024 22.8721 20.7243 22.9348C20.9462 22.9956 21.1394 23.085 21.304 23.2031C21.4686 23.3194 21.5956 23.4626 21.6851 23.6325C21.7763 23.8025 21.822 23.9966 21.822 24.2149V27.0168H20.5874V26.4425H20.5552C20.4819 26.582 20.3879 26.7001 20.2734 26.7967C20.1607 26.8934 20.0274 26.9658 19.8735 27.0141C19.7215 27.0624 19.5497 27.0866 19.3582 27.0866ZM19.7635 26.2278C19.9048 26.2278 20.0319 26.1991 20.1446 26.1419C20.2591 26.0846 20.3504 26.0059 20.4183 25.9057C20.4863 25.8037 20.5203 25.6856 20.5203 25.5515V25.1596C20.4828 25.1793 20.4371 25.1972 20.3835 25.2133C20.3316 25.2294 20.2743 25.2446 20.2117 25.2589C20.1491 25.2732 20.0847 25.2858 20.0185 25.2965C19.9523 25.3072 19.8887 25.3171 19.8279 25.326C19.7045 25.3457 19.5989 25.3761 19.5112 25.4173C19.4253 25.4584 19.3591 25.5121 19.3126 25.5783C19.2679 25.6427 19.2455 25.7196 19.2455 25.8091C19.2455 25.9451 19.2938 26.0489 19.3905 26.1204C19.4889 26.192 19.6132 26.2278 19.7635 26.2278Z" fill="black"/>
<path d="M15.9471 27.0946C15.5159 27.0946 15.1438 27.0097 14.8307 26.8397C14.5193 26.6679 14.2796 26.4237 14.1114 26.107C13.945 25.7885 13.8618 25.4101 13.8618 24.9718C13.8618 24.5459 13.9459 24.1738 14.1141 23.8553C14.2823 23.535 14.5193 23.2863 14.8253 23.1092C15.1313 22.9303 15.4918 22.8408 15.9069 22.8408C16.2003 22.8408 16.4687 22.8864 16.712 22.9777C16.9553 23.0689 17.1656 23.204 17.3427 23.3829C17.5198 23.5619 17.6576 23.7828 17.756 24.0458C17.8544 24.3071 17.9036 24.6068 17.9036 24.9449V25.2723H14.3207V24.5101H16.6825C16.6807 24.3706 16.6476 24.2462 16.5832 24.1371C16.5188 24.028 16.4302 23.943 16.3175 23.8821C16.2066 23.8195 16.0786 23.7882 15.9337 23.7882C15.787 23.7882 15.6555 23.8213 15.5392 23.8875C15.4229 23.9519 15.3307 24.0405 15.2628 24.1532C15.1948 24.2641 15.159 24.3903 15.1554 24.5316V25.3072C15.1554 25.4754 15.1885 25.623 15.2547 25.7501C15.3209 25.8753 15.4148 25.9728 15.5365 26.0426C15.6582 26.1124 15.8031 26.1473 15.9713 26.1473C16.0876 26.1473 16.1931 26.1312 16.288 26.0989C16.3828 26.0667 16.4642 26.0193 16.5322 25.9567C16.6002 25.8941 16.6512 25.8172 16.6852 25.7259L17.8902 25.7608C17.8401 26.031 17.7301 26.2662 17.5601 26.4666C17.3919 26.6652 17.1709 26.82 16.8972 26.9309C16.6234 27.0401 16.3068 27.0946 15.9471 27.0946Z" fill="black"/>
<path d="M11.4302 27.0195V22.8972H12.705V23.6486H12.7479C12.8231 23.3767 12.9456 23.1745 13.1156 23.0421C13.2856 22.9079 13.4833 22.8408 13.7087 22.8408C13.7696 22.8408 13.8322 22.8453 13.8966 22.8542C13.961 22.8614 14.0209 22.873 14.0764 22.8891V24.0297C14.0138 24.0083 13.9315 23.9913 13.8295 23.9787C13.7293 23.9662 13.6398 23.96 13.5611 23.96C13.4055 23.96 13.265 23.9949 13.1398 24.0646C13.0163 24.1326 12.9188 24.2283 12.8472 24.3518C12.7774 24.4735 12.7426 24.6166 12.7426 24.7812V27.0195H11.4302Z" fill="black"/>
<path d="M11.0482 23.5138H9.70632C9.68843 23.376 9.65175 23.2517 9.59629 23.1407C9.54082 23.0298 9.46746 22.935 9.37622 22.8563C9.28497 22.7775 9.17672 22.7176 9.05148 22.6764C8.92802 22.6335 8.79115 22.612 8.64086 22.612C8.37427 22.612 8.14435 22.6773 7.95112 22.808C7.75968 22.9386 7.61207 23.1273 7.50829 23.3742C7.40631 23.6211 7.35532 23.9199 7.35532 24.2706C7.35532 24.6356 7.4072 24.9416 7.51098 25.1885C7.61654 25.4336 7.76415 25.6188 7.9538 25.744C8.14525 25.8675 8.37158 25.9292 8.6328 25.9292C8.77952 25.9292 8.91281 25.9104 9.03269 25.8728C9.15436 25.8353 9.26081 25.7807 9.35206 25.7091C9.4451 25.6358 9.52114 25.5472 9.58018 25.4434C9.64102 25.3379 9.68306 25.2189 9.70632 25.0865L11.0482 25.0945C11.025 25.3379 10.9543 25.5776 10.8362 25.8138C10.7199 26.05 10.5598 26.2656 10.3558 26.4606C10.1518 26.6538 9.90313 26.8077 9.60971 26.9222C9.31807 27.0367 8.98349 27.094 8.60597 27.094C8.10857 27.094 7.66306 26.9848 7.26944 26.7666C6.8776 26.5465 6.56807 26.2262 6.34084 25.8058C6.11361 25.3853 6 24.8736 6 24.2706C6 23.6659 6.1154 23.1533 6.34621 22.7328C6.57702 22.3123 6.88923 21.993 7.28285 21.7747C7.67648 21.5564 8.11752 21.4473 8.60597 21.4473C8.93876 21.4473 9.2465 21.4938 9.52919 21.5868C9.81189 21.6781 10.0606 21.8123 10.2753 21.9894C10.49 22.1647 10.6644 22.3803 10.7986 22.6362C10.9328 22.892 11.016 23.1846 11.0482 23.5138Z" fill="black"/>
<path d="M25.6365 14.8418V15.8536H23.0923V14.8418H25.6365Z" fill="black"/>
<path d="M20.6232 17.6474C20.1902 17.6474 19.818 17.5588 19.5067 17.3817C19.1972 17.2028 18.9583 16.9541 18.7901 16.6356C18.6237 16.3153 18.5405 15.9441 18.5405 15.5218C18.5405 15.0978 18.6237 14.7265 18.7901 14.408C18.9583 14.0878 19.1972 13.8391 19.5067 13.6619C19.818 13.483 20.1902 13.3936 20.6232 13.3936C21.0561 13.3936 21.4274 13.483 21.7369 13.6619C22.0483 13.8391 22.2871 14.0878 22.4535 14.408C22.6217 14.7265 22.7058 15.0978 22.7058 15.5218C22.7058 15.9441 22.6217 16.3153 22.4535 16.6356C22.2871 16.9541 22.0483 17.2028 21.7369 17.3817C21.4274 17.5588 21.0561 17.6474 20.6232 17.6474ZM20.6312 16.6571C20.7887 16.6571 20.9219 16.6087 21.0311 16.5121C21.1402 16.4155 21.2234 16.2813 21.2807 16.1096C21.3397 15.9378 21.3692 15.7392 21.3692 15.5138C21.3692 15.2847 21.3397 15.0843 21.2807 14.9126C21.2234 14.7408 21.1402 14.6066 21.0311 14.51C20.9219 14.4134 20.7887 14.3651 20.6312 14.3651C20.4684 14.3651 20.3306 14.4134 20.2179 14.51C20.107 14.6066 20.022 14.7408 19.9629 14.9126C19.9057 15.0843 19.8771 15.2847 19.8771 15.5138C19.8771 15.7392 19.9057 15.9378 19.9629 16.1096C20.022 16.2813 20.107 16.4155 20.2179 16.5121C20.3306 16.6087 20.4684 16.6571 20.6312 16.6571Z" fill="black"/>
<path d="M18.3153 14.0665H16.9734C16.9555 13.9288 16.9188 13.8044 16.8634 13.6935C16.8079 13.5825 16.7346 13.4877 16.6433 13.409C16.5521 13.3303 16.4438 13.2703 16.3186 13.2292C16.1951 13.1862 16.0582 13.1648 15.9079 13.1648C15.6414 13.1648 15.4114 13.2301 15.2182 13.3607C15.0268 13.4913 14.8792 13.6801 14.7754 13.927C14.6734 14.1739 14.6224 14.4727 14.6224 14.8234C14.6224 15.1884 14.6743 15.4943 14.7781 15.7412C14.8836 15.9863 15.0312 16.1715 15.2209 16.2968C15.4123 16.4202 15.6387 16.4819 15.8999 16.4819C16.0466 16.4819 16.1799 16.4632 16.2998 16.4256C16.4214 16.388 16.5279 16.3334 16.6192 16.2619C16.7122 16.1885 16.7882 16.0999 16.8473 15.9962C16.9081 15.8906 16.9502 15.7716 16.9734 15.6392L18.3153 15.6473C18.2921 15.8906 18.2214 16.1304 18.1033 16.3665C17.987 16.6027 17.8269 16.8183 17.6229 17.0133C17.4189 17.2066 17.1702 17.3604 16.8768 17.4749C16.5852 17.5895 16.2506 17.6467 15.8731 17.6467C15.3757 17.6467 14.9301 17.5376 14.5365 17.3193C14.1447 17.0992 13.8352 16.7789 13.6079 16.3585C13.3807 15.938 13.2671 15.4263 13.2671 14.8234C13.2671 14.2186 13.3825 13.706 13.6133 13.2855C13.8441 12.8651 14.1563 12.5457 14.5499 12.3274C14.9436 12.1091 15.3846 12 15.8731 12C16.2058 12 16.5136 12.0465 16.7963 12.1396C17.079 12.2308 17.3277 12.365 17.5424 12.5421C17.7571 12.7175 17.9315 12.9331 18.0657 13.1889C18.1999 13.4448 18.2831 13.7373 18.3153 14.0665Z" fill="black"/>
</svg>
