<svg width="1120" height="140" viewBox="0 0 1120 140" fill="none" xmlns="http://www.w3.org/2000/svg">
<mask id="mask0_1673_23024" style="mask-type:alpha" maskUnits="userSpaceOnUse" x="0" y="0" width="1120" height="140">
<rect width="1120" height="140" fill="#D9D9D9"/>
</mask>
<g mask="url(#mask0_1673_23024)">
<path d="M927.936 139.983L930.347 128.883L941.387 128.701L945.176 122.183L947.76 123.39L949 107.161L937.348 118.521L939.949 119.736L938.02 124.474L930.976 124.283L931.484 120.621L935.609 121.793C935.609 121.793 934.972 95.6968 938.227 71.7966C938.278 71.4494 937.796 71.3106 937.65 71.623C931.406 84.7621 923.389 96.582 917.516 104.445L917.533 104.071H917.387L918.368 76.8647L924.035 77.0036C924.035 77.0036 916.138 50.7168 913.15 24.2997C913.107 23.9179 912.564 23.8919 912.487 24.2737C906.915 52.4437 894.282 76.2486 894.282 76.2486L900.869 76.4221L901.067 105.217L899.776 105.304L899.905 107.491L897.416 107.673L897.149 105.486L895.074 105.625L895.392 107.742L892.929 108.15L892.43 105.807L890.63 105.937L889.071 94.9071L892.886 94.2389C892.886 94.2389 885.653 81.0824 878.884 66.1643C878.798 65.982 878.522 66.0428 878.531 66.2511C878.901 82.2887 877.583 96.9292 877.583 96.9292L881.907 96.1655L884.077 106.389L881.82 106.545L882.466 109.07L879.607 109.322L878.953 106.744L875 107.022L877.179 119.016L880.425 118.929L882.466 138.516C880.933 138.49 880.425 139.323 881.45 139.731L927.919 140L927.936 139.983ZM923.501 129.265L923.096 132.684C923.062 132.823 922.924 132.91 922.786 132.884L921.029 132.554C920.892 132.528 920.797 132.389 920.814 132.25L921.253 128.857C921.27 128.701 921.425 128.597 921.572 128.631L923.294 128.935C923.449 128.97 923.535 129.117 923.501 129.265ZM922.433 122.947L924.551 123.407C924.698 123.442 924.793 123.589 924.75 123.737L923.957 127C923.923 127.139 923.785 127.225 923.647 127.199L921.89 126.87C921.753 126.844 921.658 126.713 921.675 126.566L922.114 123.173C922.132 123.016 922.287 122.912 922.442 122.938L922.433 122.947ZM907.483 85.7774C907.44 84.5538 908.405 83.5297 909.619 83.5124C910.868 83.4863 911.875 84.5277 911.823 85.7861L911.677 89.7695L907.612 89.6567L907.483 85.7774ZM890.303 121.923L890.794 127.685L887.943 127.937L887.048 122.018L890.303 121.932V121.923Z" fill="#190623"/>
<path opacity="0.4" d="M278.457 99.72C278.457 99.72 278.457 99.66 278.457 99.64C278.457 99.62 278.457 99.6 278.457 99.59C278.457 99.56 278.437 99.53 278.417 99.5C278.417 99.49 278.407 99.47 278.397 99.46C278.387 99.44 278.367 99.43 278.357 99.42C278.337 99.4 278.317 99.38 278.287 99.36C278.267 99.36 278.247 99.35 278.237 99.34C278.207 99.34 278.187 99.32 278.157 99.31C278.127 99.31 278.087 99.31 278.057 99.31C278.047 99.31 278.037 99.31 278.017 99.31C278.017 99.31 278.017 99.31 278.007 99.31C268.597 101.59 253.247 100.35 236.737 96.83C235.227 94.97 233.747 92.96 232.307 90.81C224.847 79.68 219.337 66.23 217.537 54.79C225.717 49.8 232.707 44.31 238.517 38.99C260.677 18.7 271.037 -3.5 271.137 -3.72C271.227 -3.91 271.137 -4.13 270.957 -4.22C270.767 -4.31 270.547 -4.22 270.457 -4.04C270.357 -3.82 260.047 18.26 237.987 38.45C232.047 43.89 224.867 49.5 216.447 54.56C207.107 59.19 191.227 61.11 179.557 55.58C172.467 52.22 167.877 46.48 166.267 38.98C177.557 25.3 189.457 7.65 197.997 -13.39C198.077 -13.58 197.987 -13.8 197.787 -13.88C197.597 -13.96 197.377 -13.87 197.297 -13.67C188.747 7.39 176.817 25.03 165.527 38.68C164.067 39.22 151.537 43.48 141.997 39.79C137.697 38.13 134.707 35.06 133.087 30.68L133.177 -18.62C133.177 -18.83 133.007 -19 132.807 -19C132.597 -19 132.437 -18.83 132.427 -18.63L132.337 30.5C130.257 34.11 127.627 36.26 124.307 37.08C119.357 38.3 112.867 36.39 105.017 31.43C90.5271 9.4 76.1871 -13.33 75.9271 -13.74C75.8171 -13.91 75.5871 -13.97 75.4071 -13.86C75.2371 -13.75 75.1771 -13.52 75.2871 -13.34C75.5471 -12.93 89.7371 9.56 104.157 31.49C99.2571 50.48 81.4671 54.01 45.9171 54.41C45.8471 54.41 45.7871 54.44 45.7371 54.47C32.5171 48.9 21.0671 42.61 11.6771 36.68C-17.6629 18.13 -33.6029 -0.57 -34.2429 -1.82C-34.2729 -1.96 -34.3729 -2.08 -34.5229 -2.11C-34.7229 -2.16 -34.9229 -2.04 -34.9829 -1.84C-35.0329 -1.65 -35.0229 -1.51 -34.2329 -0.530001C-29.7129 5.12 -11.9029 23.44 15.8371 40.13C25.8671 46.17 36.0671 51.35 46.4171 55.68C47.3571 56.43 48.5471 57.31 49.8971 58.31C60.0371 65.83 81.1371 81.48 74.0971 98.24C74.0971 98.26 74.0971 98.27 74.0971 98.29C74.0971 98.31 74.0871 98.33 74.0771 98.35C74.0771 98.35 74.0771 98.36 74.0771 98.37C74.0771 98.39 74.0771 98.42 74.0771 98.44C74.0771 98.46 74.0771 98.47 74.0771 98.49C74.0771 98.49 74.0771 98.5 74.0771 98.51C74.0771 98.54 74.0971 98.56 74.1171 98.58C74.1171 98.6 74.1271 98.61 74.1471 98.63C74.1571 98.64 74.1771 98.65 74.1871 98.66C74.1971 98.67 74.2071 98.68 74.2271 98.69C74.2271 98.69 74.2271 98.69 74.2371 98.69C74.2471 98.69 74.2571 98.71 74.2771 98.72C74.3271 98.74 74.3771 98.75 74.4271 98.75C74.4571 98.75 74.4971 98.75 74.5271 98.74L88.2071 94.73C88.2871 100.6 90.9271 104.21 95.3471 104.43C95.4871 104.43 95.6271 104.44 95.7671 104.44C99.5871 104.44 103.977 101.97 107.607 97.75C110.117 94.83 112.067 91.27 113.397 87.34L162.817 72.85C162.927 72.82 163.007 72.74 163.047 72.65C163.077 72.65 163.097 72.65 163.127 72.65C164.477 74.08 165.867 74.81 167.157 75.11C169.767 75.73 172.287 74.71 174.127 73.26C174.967 73.85 175.847 74.43 176.747 75.01C177.797 78.88 179.087 82.01 180.477 83.47C180.917 83.93 181.367 84.21 181.817 84.32C181.817 85.12 181.827 85.89 181.837 86.63C181.857 89.54 181.877 91.93 181.857 93.05C181.857 93.26 182.017 93.43 182.227 93.43C182.437 93.43 182.597 93.26 182.607 93.06C182.617 91.94 182.607 89.55 182.587 86.63C182.587 85.9 182.577 85.14 182.567 84.35C184.017 84.13 185.227 82.53 186.227 80.39C200.517 87.62 218.967 93.79 236.227 97.5C242.747 105.53 250.197 111.35 257.507 112.67C258.577 112.86 259.627 112.96 260.647 112.96C267.577 112.96 273.527 108.58 278.387 99.89C278.387 99.89 278.387 99.89 278.387 99.88C278.387 99.86 278.387 99.85 278.407 99.83C278.417 99.8 278.427 99.78 278.437 99.75L278.457 99.72ZM211.727 57.26C201.597 62.78 189.827 67.39 176.397 70.01C175.327 64.65 174.687 58.61 174.837 53.65C176.177 54.63 177.637 55.5 179.227 56.25C189.207 60.98 202.197 60.36 211.737 57.25L211.727 57.26ZM182.617 69.41C184.757 68.88 186.847 68.3 188.887 67.68C188.427 70.59 187.367 75.69 185.867 79.33C184.737 78.75 183.627 78.16 182.557 77.57C182.557 74.46 182.567 71.53 182.617 69.41ZM181.807 77.15C180.277 76.29 178.827 75.41 177.447 74.53C177.127 73.34 176.827 72.07 176.557 70.76C178.367 70.41 180.127 70.01 181.877 69.59C181.827 71.6 181.817 74.29 181.817 77.15H181.807ZM174.107 53.1C173.907 57.98 174.527 64.4 175.657 70.16C171.737 70.9 167.677 71.48 163.467 71.85C159.127 66.89 157.667 56.19 157.177 49.33C159.917 46.39 162.757 43.18 165.657 39.7C166.957 45.19 169.837 49.73 174.107 53.09V53.1ZM75.8871 97.56C80.4171 93.2 82.7571 88.01 82.6571 82.46C82.5271 75.21 78.3771 68.9 74.3871 65.18C81.9671 67.18 89.6171 68.73 97.3271 69.84C99.8171 71.8 103.057 74.85 103.237 78.97C103.397 82.75 100.967 87.02 95.9971 91.66L75.8871 97.56ZM114.707 78.21C114.707 78.21 114.707 78.21 114.697 78.22C114.627 78.26 114.577 78.32 114.547 78.39C114.547 78.4 114.547 78.41 114.547 78.42C114.547 78.45 114.527 78.47 114.527 78.5C114.277 81.36 113.727 84.01 112.967 86.43L97.5971 91.16C102.067 86.71 104.167 82.7 103.997 78.93C103.827 75.03 101.177 72.08 98.7671 70.03C104.547 70.82 110.347 71.36 116.187 71.64C117.727 72.34 118.527 73.16 118.567 74.08C118.617 75.35 117.177 76.89 114.727 78.2L114.707 78.21ZM126.017 64.32C125.997 64.06 125.987 63.81 125.977 63.56C128.347 66.82 130.347 69.41 131.807 71.07C128.267 71.17 124.787 71.16 121.347 71.07C123.027 70.66 124.217 70.05 124.987 69.19C126.267 67.77 126.137 65.94 126.017 64.32ZM127.037 63.75C128.767 64.71 130.107 65.03 131.117 64.69C131.617 64.52 131.977 64.21 132.267 63.85V70.44C130.917 68.91 129.137 66.61 127.037 63.75ZM133.017 63.81C133.537 64.6 134.157 65.18 134.907 65.5C136.367 66.14 138.027 65.82 139.577 65.3C136.367 68.07 134.037 69.89 133.007 70.67V63.81H133.017ZM140.957 65.1C140.717 67.46 141.407 69.79 142.857 71.36C143.117 71.64 143.397 71.89 143.687 72.1C140.397 71.91 137.047 71.6 133.607 71.16C134.817 70.24 137.407 68.2 140.957 65.1ZM141.187 63.9L140.987 63.98C139.177 64.69 136.927 65.57 135.217 64.82C134.277 64.4 133.557 63.54 133.027 62.18V55.12C134.467 57.99 136.187 59.78 138.287 60.53C140.357 61.26 142.767 61.02 145.757 59.76C144.117 61.3 142.587 62.68 141.187 63.92V63.9ZM132.277 62.23C131.937 63.22 131.497 63.78 130.887 63.98C129.847 64.33 128.157 63.71 125.867 62.13C124.277 59.92 122.527 57.44 120.667 54.76C125.407 57.94 128.507 57.65 130.007 57.12C130.947 56.8 131.717 56.23 132.277 55.49V62.23ZM125.207 62.52C125.177 63.12 125.207 63.76 125.257 64.38C125.367 65.92 125.487 67.51 124.417 68.69C123.207 70.03 120.587 70.75 116.447 70.89C111.487 70.64 106.637 70.21 101.897 69.62C111.017 68.82 115.427 65.58 117.527 62.79C119.287 60.46 120.067 57.57 119.757 54.78C121.697 57.6 123.537 60.2 125.197 62.51L125.207 62.52ZM119.297 74.07C119.267 73.19 118.747 72.41 117.797 71.73C120.587 71.84 123.387 71.91 126.187 71.91C128.317 71.91 130.467 71.88 132.607 71.81C136.417 72.32 140.137 72.66 143.767 72.87C136.387 74.22 121.987 76.86 116.767 77.82C118.437 76.61 119.347 75.29 119.297 74.07ZM145.567 72.22C144.787 72.02 144.037 71.56 143.397 70.87C141.917 69.27 141.317 66.78 141.817 64.36C143.467 62.9 145.307 61.23 147.277 59.35C146.917 61.86 147.657 64.42 149.457 66.81C151.377 69.35 154.217 71.32 156.647 72.27C153.057 72.4 149.367 72.39 145.577 72.22H145.567ZM147.497 58.09C143.697 60.09 140.847 60.65 138.527 59.82C136.327 59.04 134.557 56.97 133.097 53.49C133.087 53.46 133.047 53.44 133.027 53.41L133.047 43.34C134.667 47.88 137.307 51.02 140.767 52.45C144.607 54.03 149.367 53.49 154.657 50.91C152.137 53.56 149.727 55.94 147.487 58.09H147.497ZM132.277 53.84C131.887 55.07 131.017 55.99 129.757 56.43C128.217 56.96 124.827 57.21 119.367 52.9C117.417 50.07 115.367 47.04 113.257 43.89C120.027 47.4 124.647 47.2 127.377 46.34C129.447 45.69 131.117 44.48 132.297 42.8L132.277 53.83V53.84ZM118.727 53.29C119.587 56.34 118.917 59.73 116.937 62.36C114.637 65.4 109.437 69.02 97.7271 69.08C90.1571 67.98 82.8771 66.49 75.9271 64.7C102.257 64.26 110.347 53.41 112.307 43.81C114.527 47.12 116.687 50.31 118.737 53.3L118.727 53.29ZM115.217 78.88C117.957 78.38 141.117 74.12 147.017 73.05C147.017 73.05 147.017 73.05 147.027 73.05C148.637 73.11 150.237 73.14 151.807 73.14C153.377 73.14 154.967 73.1 156.527 73.05L113.787 86.21C114.487 83.87 114.977 81.42 115.217 78.89V78.88ZM159.357 72.17C156.977 72.11 152.597 69.74 150.057 66.37C148.717 64.59 147.307 61.77 148.217 58.46C150.777 56 153.567 53.21 156.477 50.1C157.407 62.13 159.837 68.59 162.527 71.94C161.477 72.03 160.427 72.11 159.357 72.17ZM143.887 41.21C151.847 43.3 161.037 40.99 164.587 39.83C161.737 43.23 158.937 46.36 156.247 49.24C150.387 52.57 145.137 53.45 141.057 51.76C137.327 50.22 134.587 46.56 133.137 41.17C133.127 41.12 133.087 41.08 133.057 41.04L133.077 32.56C135.197 36.96 138.807 39.87 143.897 41.21H143.887ZM124.477 37.84C127.617 37.07 130.247 35.08 132.327 31.94L132.307 41.35C131.237 43.43 129.467 44.91 127.167 45.63C124.417 46.49 119.617 46.66 112.377 42.56C110.277 39.43 108.137 36.19 105.987 32.93C113.397 37.37 119.617 39.02 124.477 37.83V37.84ZM104.707 32.35C107.057 35.93 109.417 39.48 111.717 42.91C110.017 52.73 101.907 64.28 73.1271 63.95C63.9371 61.45 55.3271 58.45 47.3471 55.16C77.3571 54.77 99.0271 52.66 104.707 32.34V32.35ZM50.3371 57.72C49.9071 57.4 49.4971 57.09 49.0971 56.8C56.9071 59.94 64.7971 62.6 72.7571 64.76C76.9271 68.17 81.7671 74.8 81.9071 82.49C82.0071 87.92 79.7871 92.82 75.3271 97.08C80.8471 80.35 60.3471 65.14 50.3371 57.72ZM95.3971 103.69C91.3171 103.49 88.9871 100.15 88.9671 94.52L112.557 87.6C108.847 98.08 100.987 103.94 95.3871 103.69H95.3971ZM149.837 75.89L159.507 72.91C159.717 72.9 159.927 72.88 160.137 72.87L149.837 75.89ZM167.347 74.39C166.127 74.1 165.057 73.46 164.107 72.56C167.977 72.2 171.727 71.67 175.357 71C175.007 71.46 174.587 71.92 174.097 72.35C173.937 72.3 173.767 72.35 173.667 72.48C173.607 72.56 173.587 72.66 173.607 72.76C171.937 74.05 169.677 74.95 167.357 74.39H167.347ZM174.737 72.77C175.187 72.36 175.577 71.93 175.917 71.51C176.097 72.35 176.287 73.16 176.487 73.96C175.887 73.57 175.307 73.17 174.737 72.77ZM181.037 82.96C179.877 81.75 178.727 79.07 177.737 75.64C179.037 76.45 180.397 77.24 181.807 78.03C181.807 79.87 181.817 81.75 181.827 83.54C181.577 83.44 181.307 83.25 181.037 82.96ZM182.577 83.6C182.567 81.93 182.557 80.18 182.557 78.45C183.537 78.99 184.537 79.52 185.567 80.05C184.697 81.97 183.687 83.36 182.577 83.6ZM186.547 79.71C188.447 75.21 189.477 68.89 189.687 67.46C199.817 64.29 208.827 60.03 216.737 55.28C216.767 55.27 216.787 55.26 216.817 55.24C219.027 68.86 226.297 84.89 235.527 96.59C218.567 92.88 200.547 86.8 186.537 79.7L186.547 79.71ZM257.657 111.94C251.247 110.78 244.127 105.73 237.477 97.77C248.037 99.97 258.087 101.24 266.397 101.24C270.527 101.24 274.217 100.92 277.337 100.26C272.007 109.4 265.387 113.34 257.667 111.94H257.657Z" fill="white"/>
<path d="M355.281 116.564C355.281 116.564 355.281 116.524 355.281 116.504C355.321 114.194 357.681 112.674 359.801 113.564C361.681 114.354 363.831 114.964 365.591 114.704C366.671 114.544 367.261 114.124 367.301 113.574C367.391 112.524 366.711 112.274 364.421 111.734L363.551 111.524C362.491 111.274 361.461 110.914 360.481 110.424C357.821 109.104 356.251 107.254 355.851 103.744C355.081 96.9939 360.361 93.4639 366.761 93.4639C368.961 93.4639 371.071 93.7639 372.381 94.1939C375.731 95.2839 376.461 97.1439 376.241 98.9739C375.981 101.094 373.871 102.494 371.791 101.994C370.671 101.724 369.311 101.494 367.931 101.494C366.721 101.494 365.881 101.824 365.921 102.664C366.051 103.454 366.421 103.714 368.221 104.174L370.481 104.764C376.121 106.224 377.551 109.154 377.841 112.544C378.471 119.444 372.951 122.744 366.221 122.744C364.791 122.744 363.191 122.594 361.891 122.414C360.691 122.244 359.511 121.924 358.401 121.444C356.751 120.734 355.231 119.664 355.281 116.584V116.564Z" fill="#FEF4EA"/>
<path d="M10.0012 116.354C10.0012 116.354 10.0012 116.314 10.0012 116.294C10.0412 113.984 12.4012 112.464 14.5212 113.354C16.4012 114.144 18.5512 114.754 20.3112 114.494C21.3912 114.334 21.9812 113.914 22.0212 113.364C22.1112 112.314 21.4312 112.064 19.1412 111.524L18.2712 111.314C17.2112 111.064 16.1812 110.704 15.2012 110.214C12.5412 108.894 10.9712 107.044 10.5712 103.534C9.8112 96.7939 15.0912 93.2539 21.4912 93.2539C23.6912 93.2539 25.8012 93.5539 27.1112 93.9839C30.4612 95.0739 31.1912 96.9339 30.9712 98.7639C30.7112 100.884 28.6012 102.284 26.5212 101.784C25.4012 101.514 24.0412 101.284 22.6612 101.284C21.4512 101.284 20.6112 101.614 20.6512 102.454C20.7812 103.244 21.1512 103.504 22.9512 103.964L25.2112 104.554C30.8512 106.014 32.2812 108.944 32.5712 112.334C33.2012 119.234 27.6812 122.534 20.9512 122.534C19.5212 122.534 17.9212 122.384 16.6212 122.204C15.4212 122.034 14.2412 121.714 13.1312 121.234C11.4712 120.504 9.9512 119.434 10.0012 116.354Z" fill="#FEF4EA"/>
<path d="M115.841 99.0943C115.801 96.7143 114.921 93.4443 119.101 93.4543H122.991C126.501 93.4543 126.631 96.2543 126.541 98.4243L126.361 103.184C126.351 103.524 126.621 103.814 126.961 103.814C127.231 103.814 127.471 103.634 127.541 103.374C128.151 101.184 128.921 97.9743 129.591 95.7443C130.011 94.3243 130.551 93.4443 132.471 93.4443H138.821C140.701 93.4443 141.791 95.4043 140.871 97.0343C139.991 98.7043 138.031 103.474 135.981 107.274C137.111 110.034 138.071 112.244 138.701 113.374C139.481 114.854 141.521 115.614 142.881 114.744C143.011 114.664 143.181 114.764 143.181 114.914C143.011 120.094 139.491 122.644 135.191 122.284C131.871 122.004 129.991 120.404 129.091 117.604C128.591 116.054 127.651 112.304 127.081 110.604C127.011 110.394 126.811 110.254 126.591 110.254C126.311 110.254 126.081 110.484 126.071 110.764C126.031 113.064 126.001 115.104 126.071 116.234C126.241 118.614 126.611 121.874 122.851 121.874H118.961C115.451 121.874 115.361 119.034 115.451 116.854C115.621 111.294 115.871 100.714 115.831 99.0843L115.841 99.0943Z" fill="#F2853B"/>
<path d="M149.411 110.434C148.621 108.444 145.161 100.574 143.301 96.3543C142.741 95.0843 143.671 93.6543 145.061 93.6543H149.581C151.061 93.6543 152.351 94.6743 152.701 96.1143C153.311 98.6643 154.201 102.484 154.481 104.104C154.511 104.254 154.631 104.354 154.781 104.354C154.921 104.354 155.051 104.254 155.081 104.114C155.471 102.184 156.301 98.5843 156.861 96.1543C157.201 94.6943 158.501 93.6643 160.001 93.6743L164.831 93.7043C166.231 93.7043 167.151 95.1643 166.561 96.4343C164.531 100.814 160.661 109.104 159.751 110.684C159.771 111.244 159.871 113.214 159.981 115.454C160.131 118.524 161.411 122.124 154.601 122.124C149.161 122.124 149.091 119.574 149.221 116.504C149.321 114.144 149.421 110.974 149.421 110.444L149.411 110.434Z" fill="#BF47BC"/>
<path d="M181.021 99.5336C180.981 97.1536 180.431 93.8836 184.561 93.8936H188.431C189.481 93.8936 190.471 94.4136 191.071 95.2836L196.541 103.284C196.661 103.454 196.861 103.564 197.071 103.564C197.441 103.564 197.731 103.254 197.711 102.884C197.571 100.754 197.321 97.5336 197.281 96.9036C197.281 96.7536 197.261 96.5636 197.241 96.3536C197.121 95.0336 198.161 93.8936 199.481 93.9036C199.891 93.9036 200.311 93.9036 200.691 93.9036H204.371C208.501 93.9036 208.111 96.7136 207.881 98.8736C207.721 100.444 207.441 110.274 207.801 116.364C207.941 118.744 208.791 122.324 204.151 122.324H200.431C197.381 122.324 197.121 119.684 196.501 117.854C195.641 115.324 193.871 111.354 191.911 108.124C191.801 107.934 191.591 107.814 191.371 107.814C191.011 107.814 190.731 108.104 190.741 108.464C190.831 111.294 191.401 115.434 191.481 116.674C191.651 119.054 192.861 122.314 188.221 122.314H184.331C180.821 122.314 180.781 119.474 180.821 117.294C181.031 111.734 181.051 101.154 181.001 99.5236L181.021 99.5336Z" fill="#FEF4EA"/>
<path d="M210.621 100.734C210.561 97.1438 209.791 93.8738 213.981 93.8838H227.111C229.791 93.8838 230.201 95.0538 230.201 96.8538V97.3938C230.241 99.3138 229.071 100.154 226.901 100.074C225.821 100.044 222.201 100.034 219.741 100.034C219.031 100.034 218.461 100.604 218.461 101.314V103.394C218.461 104.104 219.031 104.674 219.741 104.674C221.861 104.674 226.041 104.674 226.751 104.634C228.131 104.594 229.261 105.224 229.261 106.854V107.654C229.261 109.614 228.721 109.874 227.001 109.914C226.081 109.944 221.681 109.924 219.501 109.914C218.801 109.914 218.221 110.474 218.211 111.184C218.211 111.804 218.201 112.494 218.201 113.094C218.201 113.804 218.781 114.384 219.491 114.374C222.131 114.364 225.931 114.324 227.101 114.254C229.321 114.124 230.281 115.044 230.281 116.974V120.064C230.281 121.904 229.821 122.324 227.151 122.324H213.771C210.261 122.324 210.221 119.484 210.261 117.304C210.471 111.744 210.651 102.374 210.621 100.744V100.734Z" fill="#F2853B"/>
<path d="M333.881 99.5336C333.841 97.1536 332.581 93.8936 337.221 93.8936H350.351C353.031 93.8936 353.441 95.0636 353.441 96.8636V97.4036C353.481 99.3236 352.311 100.164 350.141 100.084C349.061 100.054 345.441 100.044 342.981 100.044C342.271 100.044 341.701 100.614 341.701 101.324V103.404C341.701 104.114 342.271 104.684 342.981 104.684C345.101 104.684 349.281 104.684 349.991 104.644C351.371 104.604 352.501 105.234 352.501 106.864V107.664C352.501 109.624 351.961 109.884 350.241 109.924C349.321 109.954 344.921 109.934 342.741 109.924C342.041 109.924 341.461 110.484 341.451 111.194C341.451 111.814 341.441 112.504 341.441 113.104C341.441 113.814 342.021 114.394 342.731 114.384C345.371 114.374 349.171 114.334 350.341 114.264C352.561 114.134 353.521 115.054 353.521 116.984V120.074C353.521 121.914 353.061 122.334 350.391 122.334H337.011C333.501 122.334 333.461 119.494 333.501 117.314C333.711 111.754 333.921 101.174 333.881 99.5436V99.5336Z" fill="#F2853B"/>
<path d="M257.461 99.1538C257.001 96.7238 255.951 93.8838 259.381 93.8838H263.061C266.531 93.8838 266.991 96.6438 267.201 97.8538C267.881 101.654 268.861 110.244 269.381 113.244C269.421 113.454 269.601 113.614 269.821 113.614C270.041 113.614 270.231 113.444 270.261 113.224C270.831 108.864 272.051 99.1138 272.171 97.8538C272.421 95.4738 272.461 93.8838 275.681 93.8838H280.741C283.331 93.8838 283.121 96.8138 282.581 98.9038C281.121 104.674 278.651 116.584 278.321 118.214C277.821 120.594 277.941 122.314 273.681 122.314H265.281C262.101 122.314 261.521 120.724 261.101 118.674C260.681 116.874 258.221 102.784 257.461 99.1538Z" fill="#BF47BC"/>
<path d="M99.5911 93.7236C93.1211 93.7236 88.6011 97.2936 86.6511 102.354C84.7311 97.4336 80.2811 93.7236 73.6911 93.7236C64.8511 93.7236 59.6611 100.394 59.6611 108.424C59.6611 116.454 65.8511 122.054 73.2111 122.054C79.0211 122.054 84.3611 118.984 86.6111 113.764C88.6811 118.744 93.5611 122.054 99.1211 122.054C106.781 122.054 113.631 116.714 113.631 108.164C113.631 100.684 108.621 93.7236 99.6011 93.7236H99.5911ZM75.5211 116.854C71.4711 116.854 69.5911 113.834 69.5911 110.744C69.5911 106.914 71.9111 104.294 75.4811 104.294C79.0511 104.294 80.8911 107.354 80.8911 110.224C80.8911 114.124 78.7911 116.854 75.5111 116.854H75.5211ZM101.421 116.854C97.3711 116.854 95.4911 113.834 95.4911 110.744C95.4911 106.914 97.8111 104.294 101.381 104.294C104.951 104.294 106.791 107.354 106.791 110.224C106.791 114.124 104.691 116.854 101.411 116.854H101.421Z" fill="#FEF4EA"/>
<path d="M76.2611 115.144C77.6916 115.144 78.8511 113.984 78.8511 112.554C78.8511 111.123 77.6916 109.964 76.2611 109.964C74.8307 109.964 73.6711 111.123 73.6711 112.554C73.6711 113.984 74.8307 115.144 76.2611 115.144Z" fill="#FEF4EA"/>
<path d="M102.171 115.144C103.602 115.144 104.761 113.984 104.761 112.554C104.761 111.123 103.602 109.964 102.171 109.964C100.741 109.964 99.5811 111.123 99.5811 112.554C99.5811 113.984 100.741 115.144 102.171 115.144Z" fill="#FEF4EA"/>
<path d="M46.6909 93.884H38.0409C33.4009 93.884 34.6509 97.144 34.7009 99.524C34.7409 100.984 34.5709 109.584 34.3909 115.364C34.3809 115.684 34.3309 117.124 34.2909 118.564C34.2309 120.374 35.6809 121.874 37.4909 121.874H41.9909C43.8609 121.874 45.3309 120.284 45.1809 118.414C45.1109 117.534 45.0509 116.684 45.0109 116.164C44.9709 115.534 44.9409 115.274 44.9409 114.184H47.0709C54.5509 114.184 57.8609 109.754 58.1509 103.944C58.4809 98.054 54.3509 93.874 46.7009 93.874L46.6909 93.884ZM46.9109 108.104H46.4309C45.5809 108.104 44.9109 107.394 44.9509 106.554L45.1909 101.564C45.2309 100.774 45.8809 100.154 46.6709 100.154C47.4609 100.154 48.1109 100.774 48.1509 101.564L48.3909 106.554C48.4309 107.394 47.7609 108.104 46.9109 108.104Z" fill="#F2853B"/>
<path d="M320.441 93.7939H311.601C306.861 93.7939 308.141 97.1239 308.181 99.5639C308.221 101.054 308.051 109.844 307.861 115.754C307.851 116.084 307.801 117.554 307.751 119.024C307.691 120.874 309.171 122.404 311.021 122.404H315.611C317.521 122.404 319.021 120.774 318.871 118.874C318.801 117.974 318.731 117.104 318.701 116.574C318.661 115.934 318.631 115.664 318.631 114.554H320.811C328.461 114.554 331.831 110.024 332.131 104.084C332.471 98.0639 328.241 93.7939 320.431 93.7939H320.441ZM320.171 108.324C319.311 108.324 318.621 107.604 318.661 106.734L318.911 101.634C318.951 100.824 319.611 100.194 320.421 100.194C321.231 100.194 321.891 100.824 321.931 101.634L322.181 106.734C322.221 107.594 321.531 108.324 320.671 108.324H320.171Z" fill="#FEF4EA"/>
<path d="M258.481 115.144C258.461 115.034 258.351 114.974 258.241 115.004C256.761 115.424 255.041 115.004 253.741 113.614C253.201 113.034 252.071 110.934 252.071 110.934C254.371 109.384 255.831 106.964 256.001 103.744C256.251 97.8538 252.151 93.6738 244.501 93.6738H235.851C231.211 93.6738 232.551 96.9338 232.591 99.3138C232.631 100.944 232.381 111.524 232.211 117.084C232.131 119.254 232.211 122.104 235.721 122.104H239.611C242.241 122.104 243.001 121.104 242.791 118.134C242.681 116.554 242.621 114.724 242.661 113.424C242.661 113.094 242.941 112.824 243.271 112.824C243.531 112.824 243.761 112.984 243.841 113.224L245.551 117.844C246.801 120.724 248.401 122.314 251.651 122.524C255.371 122.764 259.661 120.564 258.481 115.154V115.144ZM244.271 107.884C243.291 107.884 242.511 107.064 242.561 106.094L242.791 101.344C242.831 100.554 243.481 99.9338 244.271 99.9338C245.061 99.9338 245.711 100.554 245.751 101.344L245.981 106.094C246.031 107.074 245.251 107.884 244.271 107.884Z" fill="#FEF4EA"/>
<path d="M306.011 117.044C305.451 114.184 302.991 101.514 301.961 96.2139C301.701 94.8539 300.501 93.8739 299.121 93.8839L288.331 93.9239C286.971 93.9239 285.801 94.8839 285.521 96.2139C284.481 101.164 282.031 112.804 280.891 117.284C280.361 119.374 280.101 122.324 282.691 122.304H287.791C291.011 122.304 291.061 120.784 291.261 118.334C291.261 118.354 296.261 118.354 296.281 118.334C296.571 119.544 296.911 122.304 300.421 122.304H304.061C307.531 122.304 306.531 119.464 306.021 117.034L306.011 117.044ZM292.791 113.554C292.201 113.554 291.731 113.054 291.771 112.464L292.481 101.114C292.511 100.574 292.961 100.154 293.501 100.154C294.041 100.154 294.491 100.574 294.521 101.114L295.231 112.464C295.271 113.054 294.801 113.554 294.211 113.554H292.791Z" fill="#F2853B"/>
<path d="M972.371 70.1548C969.531 69.6048 966.531 70.6548 965.751 71.2048C965.551 71.3448 967.281 72.1548 967.831 74.7548C968.111 77.8648 965.401 79.4648 965.401 79.4648L961.961 77.3148L962.261 79.5548L961.341 80.2048L959.331 79.1748L960.211 83.1448C960.211 83.1448 957.801 85.1648 954.961 83.8648C952.701 82.4748 952.511 80.5748 952.311 80.7248C951.531 81.2748 949.541 83.7548 949.111 86.6148C948.621 89.9048 949.901 92.5648 950.121 92.7248C950.341 92.8848 951.991 90.2348 955.441 90.1348C958.271 90.0548 959.601 91.7848 959.891 91.8948C960.181 92.0048 962.771 90.0748 965.551 90.2448C967.081 90.3348 968.531 91.1848 969.591 91.9648C970.171 92.4148 970.661 92.8648 970.971 93.0848C971.091 93.1848 971.171 93.2548 971.211 93.2748C971.231 93.2748 971.281 93.2548 971.271 93.2348C971.271 93.1848 971.231 93.0848 971.171 92.9448C971.061 92.5848 970.801 91.9748 970.571 91.2648C970.191 90.0048 969.871 88.3548 970.301 86.8848C971.071 84.2048 973.761 82.4148 973.751 82.1048C973.741 81.7948 972.551 79.9648 973.571 77.3248C974.811 74.0948 977.861 73.4348 977.781 73.1748C977.701 72.9148 975.621 70.8148 972.351 70.1848L972.371 70.1548Z" fill="#190623"/>
<path d="M858.34 74.7438C857.71 73.4738 856.42 72.6238 855.97 72.4838C855.86 72.4438 856.05 73.3538 855.21 74.3438C854.08 75.3738 852.66 74.7938 852.66 74.7938L852.48 72.8238L851.7 73.6038L851.18 73.4438L850.99 72.3538L849.71 73.8738C849.71 73.8738 848.21 73.5338 847.88 72.0438C847.75 70.7538 848.43 70.1238 848.32 70.0838C847.87 69.9438 846.33 69.9038 845.09 70.5838C843.65 71.3638 843 72.6438 843 72.7838C843 72.9238 844.52 72.7738 845.58 74.0838C846.45 75.1638 846.17 76.1838 846.21 76.3338C846.25 76.4838 847.77 76.9138 848.53 78.0438C848.95 78.6638 849.05 79.4838 849.06 80.1238C849.06 80.4838 849.03 80.8038 849.03 80.9938C849.03 81.0638 849.03 81.1238 849.03 81.1438C849.03 81.1538 849.06 81.1638 849.07 81.1538C849.09 81.1338 849.12 81.0938 849.16 81.0238C849.27 80.8738 849.43 80.5938 849.63 80.2938C850.01 79.7738 850.55 79.1638 851.25 78.8938C852.52 78.4038 854.01 78.9138 854.13 78.8138C854.25 78.7138 854.61 77.7138 855.93 77.3338C857.55 76.8638 858.71 77.8538 858.79 77.7438C858.87 77.6338 859.07 76.2038 858.35 74.7538L858.34 74.7438Z" fill="#190623"/>
<path d="M413.983 70.7095C400.343 74.7895 405.293 93.4495 389.353 98.8295C388.913 98.9795 388.863 99.6695 389.323 99.7695C398.983 102.069 414.683 103.139 424.893 99.0995C429.513 97.2695 433.213 93.1195 433.663 88.5095C435.083 74.0695 423.843 67.7595 413.983 70.7095ZM418.923 83.0795C418.003 83.1795 417.123 81.9595 416.953 80.3695C416.783 78.7795 417.393 77.3995 418.313 77.2995C419.233 77.1995 420.113 78.4195 420.283 80.0095C420.453 81.5995 419.843 82.9795 418.923 83.0795ZM425.983 82.3195C425.063 82.4195 424.183 81.1995 424.013 79.6095C423.843 78.0095 424.453 76.6395 425.373 76.5395C426.293 76.4395 427.173 77.6595 427.343 79.2495C427.513 80.8395 426.903 82.2195 425.983 82.3195Z" fill="url(#paint0_linear_1673_23024)"/>
<path d="M166.727 81.6203C166.788 81.6203 166.847 81.6003 166.887 81.5603L169.867 78.5803C169.917 78.5303 169.927 78.4403 169.867 78.3803C169.817 78.3203 169.727 78.3203 169.667 78.3803L166.657 81.1903L164.037 80.8503H164.028C164.028 80.8503 164.028 80.8503 164.017 80.8503L166.347 80.0903C166.417 80.0703 166.467 80.0103 166.487 79.9403L167.267 76.6703C167.278 76.6103 167.267 76.5503 167.237 76.5003L165.047 73.3803C165.007 73.3203 164.918 73.3003 164.858 73.3403C164.788 73.3803 164.778 73.4703 164.818 73.5403L166.837 76.6603L166.108 79.7203L163.878 80.3103C163.847 80.2403 163.798 80.1703 163.758 80.1203C164.378 79.7003 164.797 78.8203 164.787 77.9803C164.787 77.9503 164.787 77.9203 164.787 77.8903C164.787 77.8603 164.787 77.8403 164.787 77.8103C164.767 76.9403 164.177 76.4103 163.398 76.2703L162.948 -5H162.448L162.878 76.2203C162.798 76.2203 162.707 76.2203 162.628 76.2203H162.598C161.738 76.3503 161.088 76.9303 161.108 77.8603C161.108 77.8903 161.108 77.9103 161.108 77.9403C161.108 77.9703 161.108 78.0003 161.108 78.0303C161.128 78.8703 161.588 79.7303 162.227 80.1303C162.188 80.1903 162.148 80.2503 162.118 80.3303L159.857 79.8303L158.997 76.8103L160.888 73.6103C160.928 73.5403 160.908 73.4603 160.838 73.4203C160.767 73.3803 160.688 73.4003 160.638 73.4603L158.577 76.6703C158.577 76.6703 158.537 76.7803 158.557 76.8403L159.477 80.0803C159.497 80.1503 159.547 80.2103 159.627 80.2303L161.997 80.8903C161.987 80.8903 161.978 80.8903 161.968 80.8903L159.357 81.3403L156.238 78.6603C156.178 78.6103 156.088 78.6103 156.038 78.6703C155.988 78.7303 155.988 78.8203 156.038 78.8703L159.148 81.7203C159.148 81.7203 159.247 81.7803 159.307 81.7703L161.778 81.4703L159.987 82.2703C159.987 82.2703 159.938 82.3003 159.918 82.3203L158.388 83.9203C158.388 83.9203 158.327 84.0303 158.337 84.0903L158.597 86.2603C158.597 86.3303 158.668 86.3903 158.747 86.3903C158.827 86.3903 158.887 86.3203 158.877 86.2403L158.767 84.1503L160.198 82.6503L162.068 81.9603L160.488 83.9903C160.448 84.0503 160.438 84.1203 160.457 84.1903L161.428 87.2403C161.448 87.3103 161.528 87.3503 161.598 87.3303C161.678 87.3103 161.718 87.2303 161.698 87.1603L160.898 84.1903L162.608 82.2303C162.608 82.2303 162.608 82.2303 162.608 82.2203C162.608 82.2203 162.608 82.2003 162.618 82.1903C162.738 82.2603 162.878 82.3003 163.018 82.3003C163.158 82.3003 163.298 82.2503 163.418 82.1803C163.418 82.1903 163.427 82.2103 163.438 82.2203L165.227 84.1103L164.557 87.1103C164.537 87.1803 164.587 87.2603 164.657 87.2803C164.737 87.3003 164.807 87.2603 164.827 87.1803L165.667 84.1003C165.688 84.0403 165.667 83.9703 165.627 83.9103L163.957 81.9503L165.858 82.5603L167.358 83.9903L167.337 86.0803C167.337 86.1503 167.398 86.2203 167.467 86.2203C167.547 86.2203 167.617 86.1703 167.617 86.0903L167.787 83.9103C167.787 83.8503 167.767 83.7903 167.727 83.7503L166.127 82.2103C166.107 82.1903 166.087 82.1803 166.057 82.1703L164.237 81.4503L166.717 81.6403H166.727V81.6203Z" fill="#FEF4EA"/>
<path d="M11.3857 65.0952C-1.82997 66.7155 -2.51961 81.0619 4.10697 93C3.25241 82.7926 14.624 88.7432 20.6884 81.9677C25.9657 76.0612 21.9328 63.7991 11.3857 65.0952ZM13.2897 74.5736C12.9449 75.6194 12.1653 76.3116 11.5581 76.1202C10.9509 75.9287 10.7336 74.9197 11.0859 73.8666C11.4307 72.8208 12.2103 72.1285 12.8175 72.32C13.4247 72.5115 13.6421 73.5204 13.2897 74.5736ZM18.7019 76.3043C18.3571 77.3501 17.5775 78.0423 16.9703 77.8509C16.3631 77.6594 16.1458 76.6504 16.4981 75.5973C16.8429 74.5515 17.6225 73.8592 18.2297 74.0507C18.8369 74.2422 19.0543 75.2511 18.7019 76.3043Z" fill="url(#paint1_linear_1673_23024)"/>
</g>
<defs>
<linearGradient id="paint0_linear_1673_23024" x1="422" y1="70" x2="389" y2="109.5" gradientUnits="userSpaceOnUse">
<stop stop-color="#FEF4EA"/>
<stop offset="1" stop-color="#FEF4EA" stop-opacity="0.1"/>
</linearGradient>
<linearGradient id="paint1_linear_1673_23024" x1="11.5" y1="65" x2="11.5" y2="93" gradientUnits="userSpaceOnUse">
<stop stop-color="#FEF4EA"/>
<stop offset="1" stop-color="#FEF4EA" stop-opacity="0"/>
</linearGradient>
</defs>
</svg>
