<svg width="347" height="102" viewBox="0 0 347 102" fill="none" xmlns="http://www.w3.org/2000/svg">
<mask id="mask0_1675_23598" style="mask-type:alpha" maskUnits="userSpaceOnUse" x="0" y="0" width="347" height="102">
<rect width="347" height="102" fill="#D9D9D9"/>
</mask>
<g mask="url(#mask0_1675_23598)">
<path d="M283.872 102.287L285.231 96.0311L291.454 95.9284L293.59 92.2549L295.046 92.9348L295.745 83.7879L289.178 90.1908L290.643 90.8756L289.556 93.5463L285.586 93.4387L285.872 91.3745L288.197 92.0348C288.197 92.0348 287.838 77.3264 289.673 63.8555C289.702 63.6599 289.43 63.5816 289.347 63.7577C285.828 71.1633 281.31 77.8253 277.999 82.2569L278.009 82.0466H277.926L278.48 66.7121L281.674 66.7904C281.674 66.7904 277.223 51.9743 275.538 37.085C275.514 36.8697 275.208 36.8551 275.165 37.0703C272.024 52.9477 264.904 66.3648 264.904 66.3648L268.617 66.4626L268.729 82.6923L268 82.7412L268.073 83.9738L266.671 84.0765L266.52 82.8439L265.35 82.9222L265.53 84.1157L264.142 84.3456L263.86 83.0249L262.846 83.0983L261.967 76.8813L264.117 76.5047C264.117 76.5047 260.04 69.0893 256.225 60.681C256.177 60.5783 256.021 60.6125 256.026 60.7299C256.235 69.7692 255.492 78.021 255.492 78.021L257.929 77.5906L259.152 83.3526L257.88 83.4407L258.244 84.864L256.633 85.0059L256.264 83.5532L254.036 83.7097L255.264 90.4696L257.094 90.4207L258.244 101.461C257.38 101.446 257.094 101.915 257.672 102.145L283.863 102.297L283.872 102.287ZM281.373 96.2463L281.145 98.1735C281.125 98.2518 281.047 98.3007 280.97 98.286L279.98 98.1001C279.902 98.0855 279.849 98.0072 279.858 97.929L280.106 96.0164C280.115 95.9284 280.203 95.8697 280.285 95.8892L281.256 96.0604C281.344 96.08 281.392 96.1632 281.373 96.2463ZM280.771 92.6854L281.965 92.9446C282.047 92.9642 282.101 93.0473 282.076 93.1305L281.63 94.9697C281.61 95.0479 281.533 95.0968 281.455 95.0822L280.465 94.8963C280.387 94.8816 280.334 94.8082 280.344 94.7251L280.591 92.8126C280.601 92.7245 280.688 92.6658 280.776 92.6805L280.771 92.6854ZM272.345 71.7356C272.32 71.0459 272.864 70.4687 273.548 70.4589C274.252 70.4442 274.82 71.0312 274.791 71.7405L274.708 73.9856L272.417 73.922L272.345 71.7356ZM262.661 92.1082L262.938 95.3561L261.331 95.4979L260.827 92.162L262.661 92.1131V92.1082Z" fill="#190623"/>
<path opacity="0.4" d="M178.911 58.914C178.911 58.914 178.911 58.8802 178.911 58.8689C178.911 58.8577 178.911 58.8464 178.911 58.8408C178.911 58.8238 178.899 58.8069 178.888 58.79C178.888 58.7844 178.883 58.7731 178.877 58.7675C178.871 58.7562 178.86 58.7506 178.854 58.7449C178.843 58.7337 178.832 58.7224 178.815 58.7111C178.804 58.7111 178.792 58.7055 178.787 58.6998C178.77 58.6998 178.759 58.6886 178.742 58.6829C178.725 58.6829 178.702 58.6829 178.685 58.6829C178.68 58.6829 178.674 58.6829 178.663 58.6829C178.663 58.6829 178.663 58.6829 178.657 58.6829C173.353 59.968 164.702 59.2691 155.396 57.2851C154.545 56.2368 153.711 55.1039 152.899 53.8921C148.695 47.6189 145.589 40.0381 144.574 33.5902C149.185 30.7777 153.125 27.6834 156.399 24.6849C168.889 13.2488 184.729 -9.26374 184.785 -9.38774C184.836 -9.49483 184.785 -9.61883 184.684 -9.66955C184.576 -9.72028 184.452 -9.66955 184.402 -9.5681C184.345 -9.4441 168.534 13.0008 156.101 24.3805C152.753 27.4467 148.706 30.6086 143.96 33.4606C138.696 36.0702 129.745 37.1523 123.168 34.0355C119.172 32.1417 116.585 28.9065 115.677 24.6792C122.041 16.9688 128.748 7.02073 133.561 -4.83803C133.606 -4.94512 133.556 -5.06911 133.443 -5.1142C133.336 -5.1593 133.212 -5.10857 133.167 -4.99584C128.348 6.87418 121.624 16.8166 115.26 24.5101C114.437 24.8145 107.375 27.2156 101.998 25.1358C99.5744 24.2002 97.8891 22.4698 96.9761 20.0011L97.0268 -7.7858C97.0268 -7.90417 96.931 -7.99998 96.8182 -7.99998C96.6999 -7.99998 96.6097 -7.90417 96.604 -7.79144L96.5533 19.8996C95.381 21.9343 93.8986 23.1462 92.0274 23.6083C89.2374 24.296 85.5795 23.2194 81.155 20.4238C72.988 8.00707 64.9056 -4.80421 64.759 -5.0353C64.697 -5.13111 64.5674 -5.16493 64.4659 -5.10293C64.3701 -5.04093 64.3363 -4.9113 64.3983 -4.80985C64.5449 -4.57876 72.5427 8.09725 80.6703 20.4576C77.9085 31.1609 67.8815 33.1506 47.8445 33.376C47.8051 33.376 47.7713 33.3929 47.7431 33.4099C40.2919 30.2704 33.8384 26.7252 28.5459 23.3829C12.009 12.9276 -0.981126 -1.632 -1.34185 -2.33653C-1.35876 -2.41544 -1.41512 -2.48308 -1.49966 -2.49998C-1.61239 -2.52817 -1.72512 -2.46053 -1.75893 -2.3478C-1.78712 -2.24071 -1.78148 -2.16181 -1.33621 -1.60945C1.21139 1.57505 15.2555 15.9204 30.8906 25.3274C36.5438 28.7317 42.2928 31.6513 48.1263 34.0918C48.6562 34.5146 49.3269 35.0106 50.0878 35.5742C55.803 39.8127 67.6955 48.6334 63.7276 58.0799C63.7276 58.0911 63.7276 58.0968 63.7276 58.108C63.7276 58.1193 63.722 58.1306 63.7163 58.1419C63.7163 58.1419 63.7163 58.1475 63.7163 58.1531C63.7163 58.1644 63.7163 58.1813 63.7163 58.1926C63.7163 58.2039 63.7163 58.2095 63.7163 58.2208C63.7163 58.2208 63.7163 58.2264 63.7163 58.232C63.7163 58.2489 63.7276 58.2602 63.7389 58.2715C63.7389 58.2828 63.7445 58.2884 63.7558 58.2997C63.7614 58.3053 63.7727 58.3109 63.7783 58.3166C63.784 58.3222 63.7896 58.3279 63.8009 58.3335C63.8009 58.3335 63.8009 58.3335 63.8065 58.3335C63.8121 58.3335 63.8178 58.3448 63.829 58.3504C63.8572 58.3617 63.8854 58.3673 63.9136 58.3673C63.9305 58.3673 63.953 58.3673 63.9699 58.3617L71.6804 56.1015C71.7255 59.41 73.2134 61.4447 75.7047 61.5687C75.7836 61.5687 75.8625 61.5744 75.9414 61.5744C78.0945 61.5744 80.5688 60.1822 82.6148 57.8037C84.0295 56.1579 85.1286 54.1514 85.8782 51.9363L113.733 43.7693C113.795 43.7524 113.84 43.7074 113.862 43.6566C113.879 43.6566 113.891 43.6566 113.907 43.6566C114.668 44.4626 115.452 44.8741 116.179 45.0432C117.65 45.3926 119.07 44.8177 120.107 44.0004C120.581 44.333 121.077 44.6599 121.584 44.9868C122.176 47.168 122.903 48.9322 123.686 49.7551C123.934 50.0144 124.188 50.1722 124.442 50.2342C124.442 50.6851 124.447 51.1191 124.453 51.5362C124.464 53.1763 124.475 54.5234 124.464 55.1547C124.464 55.273 124.554 55.3688 124.673 55.3688C124.791 55.3688 124.881 55.273 124.887 55.1603C124.893 54.529 124.887 53.182 124.876 51.5362C124.876 51.1247 124.87 50.6964 124.864 50.2511C125.682 50.1271 126.364 49.2253 126.927 48.0191C134.982 52.0941 145.38 55.5717 155.109 57.6628C158.784 62.1887 162.983 65.469 167.103 66.213C167.706 66.3201 168.298 66.3765 168.873 66.3765C172.778 66.3765 176.132 63.9078 178.871 59.0098C178.871 59.0098 178.871 59.0098 178.871 59.0042C178.871 58.9929 178.871 58.9873 178.883 58.976C178.888 58.9591 178.894 58.9478 178.899 58.9309L178.911 58.914ZM141.3 34.9824C135.59 38.0936 128.956 40.6919 121.387 42.1686C120.784 39.1476 120.423 35.7433 120.508 32.9477C121.263 33.5 122.086 33.9904 122.982 34.4131C128.607 37.0791 135.928 36.7296 141.305 34.9767L141.3 34.9824ZM124.893 41.8305C126.099 41.5317 127.277 41.2048 128.426 40.8554C128.167 42.4955 127.57 45.3701 126.724 47.4217C126.087 47.0948 125.462 46.7622 124.859 46.4297C124.859 44.6768 124.864 43.0254 124.893 41.8305ZM124.436 46.193C123.574 45.7082 122.756 45.2122 121.979 44.7162C121.798 44.0455 121.629 43.3297 121.477 42.5914C122.497 42.3941 123.489 42.1686 124.475 41.9319C124.447 43.0648 124.442 44.581 124.442 46.193H124.436ZM120.096 32.6377C119.983 35.3882 120.333 39.0067 120.97 42.2532C118.76 42.6703 116.472 42.9972 114.099 43.2057C111.653 40.4101 110.83 34.3793 110.554 30.5128C112.098 28.8557 113.699 27.0465 115.333 25.085C116.066 28.1794 117.689 30.7383 120.096 32.632V32.6377ZM64.7365 57.6966C67.2897 55.2392 68.6086 52.314 68.5522 49.1858C68.479 45.0995 66.1399 41.543 63.891 39.4463C68.1633 40.5736 72.4751 41.4472 76.8207 42.0728C78.2241 43.1775 80.0503 44.8966 80.1517 47.2188C80.2419 49.3493 78.8723 51.756 76.0711 54.3712L64.7365 57.6966ZM86.6165 46.7904C86.6165 46.7904 86.6166 46.7904 86.6109 46.796C86.5715 46.8186 86.5433 46.8524 86.5264 46.8919C86.5264 46.8975 86.5264 46.9031 86.5264 46.9088C86.5264 46.9257 86.5151 46.9369 86.5151 46.9539C86.3742 48.5658 86.0642 50.0594 85.6358 51.4234L76.9729 54.0894C79.4923 51.5812 80.6759 49.3211 80.5801 47.1962C80.4843 44.9981 78.9906 43.3354 77.6323 42.1799C80.8901 42.6252 84.1591 42.9295 87.4507 43.0874C88.3187 43.4819 88.7696 43.9441 88.7922 44.4626C88.8203 45.1784 88.0087 46.0464 86.6278 46.7848L86.6165 46.7904ZM92.9912 38.9616C92.9799 38.815 92.9743 38.6741 92.9686 38.5332C94.3044 40.3707 95.4317 41.8305 96.2546 42.7661C94.2594 42.8225 92.2979 42.8168 90.359 42.7661C91.3059 42.535 91.9767 42.1912 92.4107 41.7065C93.1321 40.9061 93.0588 39.8747 92.9912 38.9616ZM93.5661 38.6403C94.5412 39.1814 95.2964 39.3618 95.8657 39.1701C96.1475 39.0743 96.3504 38.8996 96.5139 38.6967V42.411C95.753 41.5487 94.7497 40.2523 93.5661 38.6403ZM96.9366 38.6741C97.2297 39.1194 97.5791 39.4463 98.0018 39.6267C98.8247 39.9874 99.7604 39.807 100.634 39.514C98.8248 41.0752 97.5115 42.101 96.931 42.5406V38.6741H96.9366ZM101.412 39.4012C101.277 40.7314 101.665 42.0446 102.483 42.9295C102.629 43.0874 102.787 43.2283 102.951 43.3466C101.096 43.2395 99.208 43.0648 97.2691 42.8168C97.9511 42.2983 99.4109 41.1485 101.412 39.4012ZM101.541 38.7249L101.429 38.77C100.409 39.1701 99.1404 39.6661 98.1766 39.2434C97.6468 39.0067 97.241 38.522 96.9422 37.7554V33.7762C97.7539 35.3938 98.7233 36.4027 99.9069 36.8254C101.074 37.2369 102.432 37.1016 104.117 36.3914C103.193 37.2594 102.331 38.0373 101.541 38.7361V38.7249ZM96.5195 37.7836C96.3279 38.3416 96.0799 38.6572 95.7361 38.77C95.1499 38.9672 94.1974 38.6178 92.9066 37.7272C92.0105 36.4816 91.0241 35.0838 89.9758 33.5733C92.6474 35.3656 94.3946 35.2022 95.2401 34.9035C95.7699 34.7231 96.2039 34.4018 96.5195 33.9848V37.7836ZM92.5347 37.9471C92.5177 38.2852 92.5347 38.646 92.5628 38.9954C92.6248 39.8634 92.6925 40.7596 92.0894 41.4247C91.4074 42.1799 89.9307 42.5857 87.5973 42.6646C84.8017 42.5237 82.0681 42.2814 79.3965 41.9488C84.5368 41.4979 87.0224 39.6718 88.206 38.0992C89.198 36.786 89.6376 35.1571 89.4629 33.5846C90.5563 35.174 91.5934 36.6394 92.529 37.9414L92.5347 37.9471ZM89.2036 44.457C89.1867 43.961 88.8936 43.5214 88.3582 43.1381C89.9307 43.2001 91.5088 43.2395 93.087 43.2395C94.2875 43.2395 95.4993 43.2226 96.7055 43.1832C98.8529 43.4706 100.95 43.6623 102.996 43.7806C98.836 44.5415 90.7198 46.0295 87.7776 46.5706C88.7189 45.8886 89.2318 45.1446 89.2036 44.457ZM104.01 43.4143C103.571 43.3015 103.148 43.0423 102.787 42.6534C101.953 41.7516 101.615 40.3481 101.897 38.9841C102.827 38.1612 103.864 37.22 104.974 36.1604C104.771 37.5751 105.188 39.018 106.203 40.365C107.285 41.7967 108.886 42.907 110.255 43.4424C108.232 43.5157 106.152 43.5101 104.016 43.4143H104.01ZM105.098 35.4502C102.956 36.5774 101.35 36.8931 100.042 36.4253C98.8022 35.9856 97.8046 34.8189 96.9817 32.8575C96.976 32.8406 96.9535 32.8293 96.9422 32.8124L96.9535 27.1367C97.8666 29.6955 99.3546 31.4653 101.305 32.2713C103.469 33.1619 106.152 32.8575 109.134 31.4033C107.713 32.8969 106.355 34.2384 105.092 35.4502H105.098ZM96.5195 33.0548C96.2997 33.748 95.8093 34.2666 95.0992 34.5146C94.2312 34.8133 92.3205 34.9542 89.2431 32.525C88.144 30.9299 86.9885 29.2221 85.7993 27.4467C89.6151 29.425 92.219 29.3123 93.7577 28.8275C94.9244 28.4612 95.8657 27.7792 96.5308 26.8323L96.5195 33.0491V33.0548ZM88.8823 32.7448C89.3671 34.4638 88.9894 36.3745 87.8734 37.8569C86.5771 39.5703 83.6462 41.6107 77.0461 41.6445C72.7795 41.0245 68.6762 40.1847 64.759 39.1758C79.5994 38.9278 84.1591 32.8124 85.2638 27.4016C86.5151 29.2672 87.7325 31.0652 88.888 32.7504L88.8823 32.7448ZM86.904 47.168C88.4483 46.8862 101.502 44.4852 104.827 43.8821C104.827 43.8821 104.827 43.8821 104.833 43.8821C105.74 43.9159 106.642 43.9328 107.527 43.9328C108.412 43.9328 109.308 43.9103 110.188 43.8821L86.098 51.2994C86.4925 49.9805 86.7687 48.5996 86.904 47.1737V47.168ZM111.783 43.3861C110.441 43.3523 107.972 42.0165 106.541 40.117C105.786 39.1138 104.991 37.5243 105.504 35.6587C106.947 34.2722 108.519 32.6997 110.159 30.9468C110.684 37.7272 112.053 41.3683 113.569 43.2565C112.977 43.3072 112.386 43.3523 111.783 43.3861ZM103.063 25.9361C107.55 27.1141 112.729 25.8121 114.73 25.1583C113.124 27.0747 111.546 28.8388 110.03 30.4621C106.727 32.339 103.768 32.8349 101.468 31.8824C99.3658 31.0144 97.8215 28.9515 97.0042 25.9136C96.9986 25.8854 96.976 25.8629 96.9591 25.8403L96.9704 21.0607C98.1653 23.5407 100.2 25.1809 103.069 25.9361H103.063ZM92.1232 24.0367C93.893 23.6027 95.3753 22.4811 96.5477 20.7113L96.5364 26.015C95.9333 27.1874 94.9357 28.0216 93.6394 28.4274C92.0894 28.9121 89.384 29.0079 85.3033 26.697C84.1197 24.9329 82.9135 23.1067 81.7017 21.2693C85.8782 23.7718 89.384 24.7018 92.1232 24.0311V24.0367ZM80.9803 20.9424C82.3048 22.9601 83.635 24.9611 84.9313 26.8943C83.9731 32.4291 79.4021 38.9391 63.1809 38.7531C58.0011 37.344 53.1483 35.6531 48.6505 33.7988C65.565 33.5789 77.7788 32.3897 80.9803 20.9367V20.9424ZM50.3358 35.2416C50.0934 35.0613 49.8623 34.8866 49.6369 34.7231C54.0388 36.4929 58.4858 37.9922 62.9723 39.2096C65.3227 41.1316 68.0506 44.8684 68.1295 49.2027C68.1859 52.2632 66.9346 55.025 64.4209 57.426C67.5321 47.9965 55.9777 39.4238 50.3358 35.2416ZM75.7329 61.1516C73.4333 61.0389 72.12 59.1564 72.1087 55.9832L85.4047 52.0829C83.3137 57.9897 78.8836 61.2925 75.7272 61.1516H75.7329ZM106.417 45.4828L111.867 43.8032C111.985 43.7975 112.104 43.7863 112.222 43.7806L106.417 45.4828ZM116.286 44.6373C115.598 44.4739 114.995 44.1132 114.46 43.6059C116.641 43.403 118.755 43.1043 120.801 42.7266C120.603 42.9859 120.367 43.2452 120.09 43.4875C120 43.4594 119.904 43.4875 119.848 43.5608C119.814 43.6059 119.803 43.6623 119.814 43.7186C118.873 44.4457 117.599 44.953 116.292 44.6373H116.286ZM120.451 43.7243C120.705 43.4932 120.925 43.2508 121.116 43.0141C121.218 43.4875 121.325 43.9441 121.438 44.395C121.099 44.1752 120.772 43.9497 120.451 43.7243ZM124.002 49.4676C123.348 48.7856 122.7 47.2751 122.142 45.3419C122.875 45.7984 123.641 46.2437 124.436 46.6889C124.436 47.726 124.442 48.7856 124.447 49.7945C124.306 49.7382 124.154 49.6311 124.002 49.4676ZM124.87 49.8284C124.864 48.8871 124.859 47.9008 124.859 46.9257C125.411 47.23 125.975 47.5288 126.555 47.8275C126.065 48.9096 125.496 49.6931 124.87 49.8284ZM127.108 47.6358C128.178 45.0995 128.759 41.5374 128.877 40.7314C134.587 38.9447 139.665 36.5436 144.124 33.8664C144.14 33.8608 144.152 33.8551 144.169 33.8438C145.414 41.5205 149.512 50.5554 154.714 57.1499C145.155 55.0588 134.998 51.632 127.102 47.6302L127.108 47.6358ZM167.187 65.8016C163.574 65.1478 159.561 62.3014 155.813 57.8149C161.765 59.0549 167.43 59.7707 172.113 59.7707C174.441 59.7707 176.521 59.5904 178.279 59.2184C175.275 64.3699 171.544 66.5906 167.193 65.8016H167.187Z" fill="white"/>
<path d="M64.5 57.5C52 70 42.7 77.1 37.5 81.5" stroke="#858585" stroke-width="0.45"/>
<path d="M188.016 90.647C188.016 90.647 188.016 90.6253 188.016 90.6144C188.037 89.3611 189.288 88.5364 190.412 89.0193C191.408 89.4479 192.548 89.7789 193.481 89.6378C194.053 89.551 194.366 89.3232 194.387 89.0247C194.435 88.4551 194.075 88.3194 192.861 88.0264L192.4 87.9125C191.838 87.7769 191.292 87.5815 190.772 87.3157C189.362 86.5995 188.53 85.5958 188.318 83.6914C187.91 80.0291 190.709 78.1139 194.101 78.1139C195.267 78.1139 196.386 78.2767 197.08 78.51C198.856 79.1014 199.242 80.1105 199.126 81.1034C198.988 82.2536 197.87 83.0132 196.767 82.7419C196.174 82.5954 195.453 82.4707 194.721 82.4707C194.08 82.4707 193.635 82.6497 193.656 83.1054C193.725 83.5341 193.921 83.6751 194.875 83.9247L196.073 84.2448C199.062 85.0369 199.82 86.6266 199.974 88.4659C200.308 92.2096 197.382 94 193.815 94C193.057 94 192.209 93.9186 191.52 93.821C190.884 93.7287 190.258 93.5551 189.67 93.2947C188.795 92.9095 187.99 92.3289 188.016 90.6578V90.647Z" fill="#FEF4EA"/>
<path d="M5.00064 90.5331C5.00064 90.5331 5.00064 90.5114 5.00064 90.5005C5.02184 89.2472 6.27276 88.4225 7.39646 88.9054C8.39295 89.334 9.53256 89.665 10.4654 89.5239C11.0379 89.4371 11.3506 89.2092 11.3718 88.9108C11.4195 88.3411 11.0591 88.2055 9.84529 87.9125L9.38415 87.7986C8.82229 87.6629 8.27634 87.4676 7.75689 87.2018C6.34696 86.4856 5.51478 85.4819 5.30276 83.5775C4.89993 79.9207 7.69859 78 11.0909 78C12.257 78 13.3754 78.1628 14.0698 78.3961C15.8455 78.9875 16.2324 79.9966 16.1158 80.9895C15.978 82.1397 14.8596 82.8993 13.7571 82.628C13.1634 82.4815 12.4425 82.3567 11.7111 82.3567C11.0697 82.3567 10.6245 82.5358 10.6457 82.9915C10.7146 83.4201 10.9107 83.5612 11.8648 83.8108L13.0627 84.1309C16.0522 84.923 16.8101 86.5127 16.9639 88.352C17.2978 92.0956 14.3719 93.8861 10.8047 93.8861C10.0467 93.8861 9.19863 93.8047 8.50956 93.707C7.87351 93.6148 7.24805 93.4412 6.65969 93.1808C5.77981 92.7847 4.97413 92.2042 5.00064 90.5331Z" fill="#FEF4EA"/>
<path d="M61.1011 81.1688C61.0799 79.8775 60.6134 78.1033 62.829 78.1087H64.8909C66.7514 78.1087 66.8203 79.6279 66.7726 80.8053L66.6772 83.3878C66.6719 83.5723 66.815 83.7296 66.9952 83.7296C67.1383 83.7296 67.2655 83.632 67.3026 83.4909C67.626 82.3027 68.0341 80.5611 68.3892 79.3512C68.6119 78.5808 68.8981 78.1033 69.9158 78.1033H73.2816C74.2781 78.1033 74.8559 79.1667 74.3682 80.0511C73.9018 80.9572 72.8629 83.5452 71.7763 85.6069C72.3752 87.1043 72.8841 88.3034 73.218 88.9165C73.6314 89.7195 74.7127 90.1318 75.4336 89.6598C75.5025 89.6164 75.5926 89.6706 75.5926 89.752C75.5025 92.5625 73.6367 93.946 71.3575 93.7507C69.5978 93.5988 68.6013 92.7307 68.1242 91.2115C67.8592 90.3705 67.361 88.336 67.0588 87.4136C67.0217 87.2997 66.9157 87.2237 66.7991 87.2237C66.6507 87.2237 66.5288 87.3485 66.5235 87.5004C66.5023 88.7483 66.4864 89.8551 66.5235 90.4682C66.6136 91.7595 66.8097 93.5282 64.8167 93.5282H62.7548C60.8943 93.5282 60.8466 91.9874 60.8943 90.8046C60.9845 87.788 61.117 82.0477 61.0958 81.1633L61.1011 81.1688Z" fill="#F2853B"/>
<path d="M78.8949 87.3214C78.4761 86.2417 76.6421 81.9717 75.6562 79.6821C75.3594 78.9931 75.8524 78.2172 76.5891 78.2172H78.985C79.7694 78.2172 80.4532 78.7706 80.6387 79.5519C80.962 80.9354 81.4338 83.008 81.5822 83.887C81.5981 83.9683 81.6617 84.0226 81.7412 84.0226C81.8154 84.0226 81.8843 83.9683 81.9002 83.8924C82.1069 82.8453 82.5469 80.892 82.8437 79.5736C83.0239 78.7815 83.713 78.2227 84.5081 78.2281L87.0682 78.2444C87.8103 78.2444 88.2979 79.0365 87.9852 79.7255C86.9092 82.1019 84.8579 86.5997 84.3756 87.457C84.3862 87.7608 84.4392 88.8297 84.4975 90.045C84.577 91.7106 85.2554 93.6638 81.6458 93.6638C78.7623 93.6638 78.7252 92.2803 78.7941 90.6147C78.8471 89.3342 78.9001 87.6143 78.9001 87.3268L78.8949 87.3214Z" fill="#BF47BC"/>
<path d="M95.6495 81.4071C95.6283 80.1158 95.3368 78.3416 97.5259 78.3471H99.5772C100.134 78.3471 100.659 78.6292 100.977 79.1012L103.876 83.4417C103.94 83.5339 104.046 83.5936 104.157 83.5936C104.353 83.5936 104.507 83.4254 104.496 83.2246C104.422 82.069 104.289 80.322 104.268 79.9802C104.268 79.8988 104.258 79.7957 104.247 79.6817C104.183 78.9656 104.735 78.3471 105.434 78.3525C105.652 78.3525 105.874 78.3525 106.076 78.3525H108.026C110.215 78.3525 110.009 79.8771 109.887 81.049C109.802 81.9008 109.653 87.2342 109.844 90.5383C109.918 91.8296 110.369 93.772 107.91 93.772H105.938C104.321 93.772 104.183 92.3396 103.855 91.3467C103.399 89.9741 102.461 87.8201 101.422 86.0677C101.363 85.9646 101.252 85.8995 101.136 85.8995C100.945 85.8995 100.796 86.0568 100.802 86.2521C100.849 87.7876 101.151 90.0337 101.194 90.7065C101.284 91.9978 101.925 93.7665 99.4659 93.7665H97.404C95.5435 93.7665 95.5223 92.2257 95.5435 91.0429C95.6548 88.0263 95.6654 82.286 95.6389 81.4017L95.6495 81.4071Z" fill="#FEF4EA"/>
<path d="M111.339 82.0583C111.307 80.1105 110.899 78.3363 113.12 78.3418H120.079C121.5 78.3418 121.717 78.9766 121.717 79.9532V80.2461C121.739 81.2878 121.118 81.7436 119.968 81.7002C119.396 81.6839 117.477 81.6785 116.173 81.6785C115.797 81.6785 115.495 81.9877 115.495 82.373V83.5015C115.495 83.8867 115.797 84.196 116.173 84.196C117.297 84.196 119.512 84.196 119.889 84.1743C120.62 84.1526 121.219 84.4944 121.219 85.3787V85.8128C121.219 86.8762 120.933 87.0173 120.021 87.039C119.534 87.0552 117.201 87.0444 116.046 87.039C115.675 87.039 115.367 87.3428 115.362 87.728C115.362 88.0644 115.357 88.4388 115.357 88.7643C115.357 89.1495 115.664 89.4642 116.041 89.4588C117.44 89.4533 119.454 89.4316 120.074 89.3937C121.251 89.3231 121.76 89.8223 121.76 90.8694V92.5459C121.76 93.5442 121.516 93.7721 120.101 93.7721H113.009C111.148 93.7721 111.127 92.2312 111.148 91.0485C111.259 88.0318 111.355 82.9481 111.339 82.0637V82.0583Z" fill="#F2853B"/>
<path d="M176.673 81.4071C176.652 80.1158 175.984 78.347 178.443 78.347H185.403C186.823 78.347 187.041 78.9818 187.041 79.9584V80.2514C187.062 81.2931 186.442 81.7489 185.292 81.7055C184.719 81.6892 182.8 81.6838 181.496 81.6838C181.12 81.6838 180.818 81.993 180.818 82.3782V83.5068C180.818 83.892 181.12 84.2012 181.496 84.2012C182.62 84.2012 184.836 84.2012 185.212 84.1795C185.944 84.1578 186.543 84.4996 186.543 85.384V85.8181C186.543 86.8815 186.256 87.0225 185.345 87.0442C184.857 87.0605 182.525 87.0497 181.369 87.0442C180.998 87.0442 180.691 87.3481 180.685 87.7333C180.685 88.0697 180.68 88.444 180.68 88.7696C180.68 89.1548 180.988 89.4695 181.364 89.464C182.763 89.4586 184.777 89.4369 185.398 89.3989C186.574 89.3284 187.083 89.8276 187.083 90.8747V92.5512C187.083 93.5495 186.839 93.7774 185.424 93.7774H178.332C176.472 93.7774 176.45 92.2365 176.472 91.0537C176.583 88.0371 176.694 82.2969 176.673 81.4125V81.4071Z" fill="#F2853B"/>
<path d="M136.167 81.201C135.923 79.8826 135.366 78.3417 137.184 78.3417H139.135C140.974 78.3417 141.218 79.8392 141.329 80.4957C141.69 82.5574 142.209 87.218 142.485 88.8457C142.506 88.9596 142.601 89.0464 142.718 89.0464C142.835 89.0464 142.935 88.9542 142.951 88.8348C143.253 86.4693 143.9 81.1793 143.964 80.4957C144.096 79.2044 144.117 78.3417 145.824 78.3417H148.506C149.879 78.3417 149.768 79.9314 149.481 81.0654C148.708 84.1959 147.398 90.6578 147.223 91.5422C146.958 92.8335 147.022 93.7667 144.764 93.7667H140.312C138.626 93.7667 138.319 92.904 138.096 91.7917C137.873 90.8151 136.569 83.1705 136.167 81.201Z" fill="#BF47BC"/>
<path d="M52.4877 78.2549C49.0583 78.2549 46.6625 80.1918 45.6289 82.9371C44.6112 80.2677 42.2525 78.2549 38.7595 78.2549C34.0738 78.2549 31.3229 81.8737 31.3229 86.2304C31.3229 90.5872 34.6039 93.6255 38.505 93.6255C41.5846 93.6255 44.4151 91.9599 45.6077 89.1277C46.7049 91.8296 49.2915 93.6255 52.2386 93.6255C56.2988 93.6255 59.9296 90.7282 59.9296 86.0894C59.9296 82.0311 57.2741 78.2549 52.493 78.2549H52.4877ZM39.7294 90.8042C37.5827 90.8042 36.5863 89.1657 36.5863 87.4892C36.5863 85.4112 37.816 83.9897 39.7082 83.9897C41.6005 83.9897 42.5758 85.6499 42.5758 87.2071C42.5758 89.323 41.4627 90.8042 39.7242 90.8042H39.7294ZM53.4577 90.8042C51.311 90.8042 50.3145 89.1657 50.3145 87.4892C50.3145 85.4112 51.5443 83.9897 53.4365 83.9897C55.3288 83.9897 56.3041 85.6499 56.3041 87.2071C56.3041 89.323 55.191 90.8042 53.4524 90.8042H53.4577Z" fill="#FEF4EA"/>
<path d="M40.1217 89.8764C40.8799 89.8764 41.4945 89.2473 41.4945 88.4712C41.4945 87.6951 40.8799 87.066 40.1217 87.066C39.3635 87.066 38.7489 87.6951 38.7489 88.4712C38.7489 89.2473 39.3635 89.8764 40.1217 89.8764Z" fill="#FEF4EA"/>
<path d="M53.8553 89.8764C54.6135 89.8764 55.2281 89.2473 55.2281 88.4712C55.2281 87.6951 54.6135 87.066 53.8553 87.066C53.0971 87.066 52.4824 87.6951 52.4824 88.4712C52.4824 89.2473 53.0971 89.8764 53.8553 89.8764Z" fill="#FEF4EA"/>
<path d="M24.448 78.3419H19.863C17.4036 78.3419 18.0662 80.1106 18.0927 81.4019C18.1139 82.194 18.0238 86.86 17.9284 89.996C17.9231 90.1696 17.8966 90.9509 17.8754 91.7322C17.8436 92.7142 18.6121 93.5281 19.5715 93.5281H21.9567C22.9479 93.5281 23.7271 92.6654 23.6476 91.6508C23.6105 91.1734 23.5787 90.7122 23.5575 90.4301C23.5363 90.0882 23.5204 89.9472 23.5204 89.3558H24.6494C28.6142 89.3558 30.3686 86.9523 30.5223 83.8C30.6973 80.6043 28.5082 78.3364 24.4533 78.3364L24.448 78.3419ZM24.5646 86.057H24.3102C23.8596 86.057 23.5045 85.6718 23.5257 85.2161L23.6529 82.5087C23.6741 82.0801 24.0186 81.7437 24.4374 81.7437C24.8561 81.7437 25.2006 82.0801 25.2218 82.5087L25.3491 85.2161C25.3703 85.6718 25.0151 86.057 24.5646 86.057Z" fill="#F2853B"/>
<path d="M169.549 78.293H164.863C162.351 78.293 163.029 80.0997 163.051 81.4236C163.072 82.232 162.982 87.001 162.881 90.2076C162.876 90.3866 162.849 91.1842 162.823 91.9817C162.791 92.9855 163.575 93.8156 164.556 93.8156H166.989C168.001 93.8156 168.796 92.9312 168.717 91.9003C168.68 91.412 168.643 90.94 168.627 90.6525C168.606 90.3052 168.59 90.1587 168.59 89.5565H169.745C173.8 89.5565 175.586 87.0987 175.745 83.8759C175.926 80.6097 173.683 78.293 169.544 78.293H169.549ZM169.406 86.1764C168.95 86.1764 168.584 85.7857 168.606 85.3137L168.738 82.5467C168.759 82.1072 169.109 81.7654 169.538 81.7654C169.968 81.7654 170.318 82.1072 170.339 82.5467L170.471 85.3137C170.493 85.7803 170.127 86.1764 169.671 86.1764H169.406Z" fill="#FEF4EA"/>
<path d="M136.707 89.8765C136.697 89.8169 136.638 89.7843 136.58 89.8006C135.796 90.0285 134.884 89.8006 134.195 89.0464C133.909 88.7317 133.31 87.5924 133.31 87.5924C134.529 86.7514 135.303 85.4384 135.393 83.6914C135.525 80.4957 133.352 78.2278 129.297 78.2278H124.712C122.253 78.2278 122.963 79.9966 122.984 81.2879C123.006 82.1722 122.873 87.9125 122.783 90.9291C122.741 92.1065 122.783 93.6527 124.643 93.6527H126.705C128.099 93.6527 128.502 93.1102 128.391 91.4988C128.333 90.6415 128.301 89.6487 128.322 88.9433C128.322 88.7643 128.47 88.6178 128.645 88.6178C128.783 88.6178 128.905 88.7046 128.947 88.8348L129.854 91.3414C130.516 92.904 131.364 93.7667 133.087 93.8806C135.059 94.0108 137.333 92.8172 136.707 89.882V89.8765ZM129.175 85.9376C128.656 85.9376 128.242 85.4927 128.269 84.9664L128.391 82.3892C128.412 81.9606 128.757 81.6242 129.175 81.6242C129.594 81.6242 129.939 81.9606 129.96 82.3892L130.082 84.9664C130.108 85.4981 129.695 85.9376 129.175 85.9376Z" fill="#FEF4EA"/>
<path d="M161.901 90.9074C161.604 89.3557 160.3 82.4815 159.754 79.6059C159.616 78.8681 158.98 78.3364 158.248 78.3418L152.529 78.3635C151.808 78.3635 151.188 78.8843 151.04 79.6059C150.489 82.2916 149.19 88.607 148.586 91.0376C148.305 92.1716 148.167 93.7721 149.54 93.7613H152.243C153.95 93.7613 153.976 92.9366 154.082 91.6073C154.082 91.6182 156.733 91.6182 156.743 91.6073C156.897 92.2638 157.077 93.7613 158.938 93.7613H160.867C162.706 93.7613 162.176 92.2204 161.906 90.902L161.901 90.9074ZM154.893 89.0139C154.581 89.0139 154.331 88.7426 154.353 88.4225L154.729 82.2645C154.745 81.9715 154.983 81.7436 155.27 81.7436C155.556 81.7436 155.794 81.9715 155.81 82.2645L156.187 88.4225C156.208 88.7426 155.959 89.0139 155.646 89.0139H154.893Z" fill="#F2853B"/>
<path d="M308.917 62.931C307.316 62.621 305.625 63.2128 305.185 63.5228C305.073 63.6017 306.048 64.0583 306.358 65.5237C306.516 67.2766 304.988 68.1784 304.988 68.1784L303.049 66.9666L303.218 68.2291L302.7 68.5955L301.567 68.0149L302.063 70.2526C302.063 70.2526 300.705 71.3911 299.104 70.6584C297.83 69.8749 297.723 68.804 297.61 68.8886C297.171 69.1986 296.049 70.5964 295.807 72.2083C295.53 74.0627 296.252 75.5619 296.376 75.6521C296.5 75.7423 297.43 74.2487 299.374 74.1923C300.969 74.1472 301.719 75.1223 301.883 75.1843C302.046 75.2463 303.506 74.1585 305.073 74.2543C305.935 74.305 306.752 74.7841 307.35 75.2238C307.677 75.4774 307.953 75.731 308.128 75.855C308.195 75.9114 308.24 75.9508 308.263 75.9621C308.274 75.9621 308.302 75.9508 308.297 75.9396C308.297 75.9114 308.274 75.855 308.24 75.7761C308.178 75.5732 308.032 75.2294 307.902 74.8292C307.688 74.119 307.508 73.1891 307.75 72.3605C308.184 70.85 309.7 69.8411 309.694 69.6664C309.689 69.4917 309.018 68.4602 309.593 66.9722C310.292 65.1517 312.011 64.7797 311.966 64.6332C311.921 64.4866 310.748 63.303 308.905 62.9479L308.917 62.931Z" fill="#190623"/>
<path d="M244.646 65.5175C244.291 64.8017 243.564 64.3226 243.31 64.2437C243.248 64.2211 243.355 64.734 242.882 65.292C242.245 65.8726 241.445 65.5456 241.445 65.5456L241.343 64.4353L240.904 64.8749L240.61 64.7847L240.503 64.1704L239.782 65.0271C239.782 65.0271 238.937 64.8355 238.751 63.9957C238.677 63.2686 239.061 62.9135 238.999 62.891C238.745 62.812 237.877 62.7895 237.178 63.1728C236.366 63.6124 236 64.3338 236 64.4128C236 64.4917 236.857 64.4071 237.454 65.1455C237.945 65.7542 237.787 66.3291 237.809 66.4136C237.832 66.4982 238.689 66.7405 239.117 67.3774C239.354 67.7269 239.41 68.1891 239.416 68.5498C239.416 68.7527 239.399 68.9331 239.399 69.0401C239.399 69.0796 239.399 69.1134 239.399 69.1247C239.399 69.1303 239.416 69.136 239.421 69.1303C239.432 69.1191 239.449 69.0965 239.472 69.0571C239.534 68.9725 239.624 68.8147 239.737 68.6456C239.951 68.3525 240.255 68.0087 240.65 67.8565C241.366 67.5803 242.206 67.8678 242.273 67.8114C242.341 67.7551 242.544 67.1914 243.288 66.9773C244.201 66.7124 244.855 67.2704 244.9 67.2084C244.945 67.1464 245.058 66.3404 244.652 65.5231L244.646 65.5175Z" fill="#190623"/>
<path d="M219.388 66.3568C212.079 68.4087 214.731 77.7932 206.189 80.4989C205.953 80.5743 205.927 80.9213 206.173 80.9716C211.35 82.1283 219.763 82.6664 225.235 80.6347C227.711 79.7143 229.693 77.6272 229.935 75.3088C230.696 68.0466 224.672 64.8732 219.388 66.3568ZM222.036 72.5779C221.543 72.6282 221.071 72.0146 220.98 71.215C220.889 70.4154 221.216 69.7213 221.709 69.671C222.202 69.6207 222.673 70.2343 222.764 71.0339C222.855 71.8336 222.529 72.5276 222.036 72.5779ZM225.819 72.1957C225.326 72.246 224.854 71.6324 224.763 70.8328C224.672 70.0281 224.999 69.3391 225.492 69.2888C225.985 69.2385 226.457 69.8521 226.548 70.6517C226.639 71.4514 226.312 72.1454 225.819 72.1957Z" fill="url(#paint0_linear_1675_23598)"/>
<path d="M115.937 48.7123C115.971 48.7123 116.005 48.7011 116.027 48.6785L117.707 46.9989C117.735 46.9707 117.741 46.92 117.707 46.8862C117.679 46.8524 117.628 46.8524 117.594 46.8862L115.897 48.47L114.421 48.2783H114.415C114.415 48.2783 114.415 48.2783 114.41 48.2783L115.723 47.85C115.762 47.8387 115.79 47.8049 115.802 47.7654L116.241 45.9224C116.247 45.8885 116.241 45.8547 116.224 45.8265L114.99 44.068C114.968 44.0342 114.917 44.0229 114.883 44.0455C114.844 44.068 114.838 44.1188 114.86 44.1582L115.999 45.9167L115.588 47.6414L114.331 47.974C114.314 47.9345 114.286 47.8951 114.263 47.8669C114.612 47.6302 114.849 47.1342 114.844 46.6607C114.844 46.6438 114.844 46.6269 114.844 46.61C114.844 46.5931 114.844 46.5818 114.844 46.5649C114.832 46.0745 114.5 45.7758 114.06 45.6969L113.806 -0.109375H113.525L113.767 45.6687C113.722 45.6687 113.671 45.6687 113.626 45.6687H113.609C113.124 45.742 112.758 46.0689 112.769 46.5931C112.769 46.61 112.769 46.6213 112.769 46.6382C112.769 46.6551 112.769 46.672 112.769 46.6889C112.781 47.1623 113.04 47.6471 113.401 47.8725C113.378 47.9063 113.356 47.9402 113.339 47.9852L112.065 47.7034L111.58 46.0013L112.645 44.1977C112.668 44.1582 112.657 44.1131 112.617 44.0906C112.578 44.068 112.533 44.0793 112.504 44.1131L111.343 45.9224C111.343 45.9224 111.321 45.9844 111.332 46.0182L111.851 47.8443C111.862 47.8838 111.89 47.9176 111.935 47.9289L113.271 48.3009C113.265 48.3009 113.26 48.3009 113.254 48.3009L111.783 48.5545L110.024 47.044C109.991 47.0158 109.94 47.0158 109.912 47.0496C109.884 47.0834 109.884 47.1342 109.912 47.1623L111.665 48.7687C111.665 48.7687 111.721 48.8025 111.755 48.7969L113.147 48.6278L112.138 49.0787C112.138 49.0787 112.11 49.0956 112.099 49.1069L111.236 50.0087C111.236 50.0087 111.202 50.0707 111.208 50.1045L111.355 51.3276C111.355 51.367 111.394 51.4008 111.439 51.4008C111.484 51.4008 111.518 51.3614 111.512 51.3163L111.45 50.1383L112.256 49.2929L113.31 48.904L112.42 50.0481C112.397 50.0819 112.392 50.1214 112.403 50.1609L112.95 51.8799C112.961 51.9194 113.006 51.9419 113.046 51.9306C113.091 51.9194 113.113 51.8743 113.102 51.8348L112.651 50.1609L113.615 49.0561C113.615 49.0561 113.615 49.0561 113.615 49.0505C113.615 49.0505 113.615 49.0392 113.62 49.0336C113.688 49.0731 113.767 49.0956 113.846 49.0956C113.925 49.0956 114.004 49.0674 114.071 49.028C114.071 49.0336 114.077 49.0449 114.083 49.0505L115.092 50.1158L114.714 51.8067C114.703 51.8461 114.731 51.8912 114.77 51.9025C114.815 51.9137 114.855 51.8912 114.866 51.8461L115.34 50.1101C115.351 50.0763 115.34 50.0369 115.317 50.003L114.376 48.8983L115.447 49.2421L116.292 50.0481L116.281 51.2261C116.281 51.2656 116.315 51.305 116.354 51.305C116.399 51.305 116.439 51.2768 116.439 51.2317L116.534 50.003C116.534 49.9692 116.523 49.9354 116.501 49.9129L115.599 49.0449C115.588 49.0336 115.576 49.028 115.559 49.0223L114.534 48.6165L115.931 48.7236H115.937V48.7123Z" fill="#FEF4EA"/>
<path d="M5.94037 63.051C-0.954767 63.919 -1.31458 71.6046 2.14277 78C1.69691 72.5317 7.62994 75.7196 10.794 72.0898C13.5473 68.9257 11.4432 62.3566 5.94037 63.051ZM6.93377 68.1287C6.75387 68.6889 6.34712 69.0598 6.03033 68.9572C5.71353 68.8546 5.60011 68.3141 5.78393 67.7499C5.96384 67.1897 6.37059 66.8188 6.68738 66.9214C7.00417 67.024 7.11759 67.5645 6.93377 68.1287ZM9.75754 69.0559C9.57763 69.6161 9.17088 69.987 8.85409 69.8844C8.5373 69.7818 8.42387 69.2413 8.60769 68.6771C8.7876 68.1169 9.19435 67.746 9.51114 67.8486C9.82793 67.9512 9.94135 68.4917 9.75754 69.0559Z" fill="url(#paint1_linear_1675_23598)"/>
<path d="M178.5 59C184.5 48.5 195 10.5 196.5 -8" stroke="#858585" stroke-width="0.5"/>
</g>
<defs>
<linearGradient id="paint0_linear_1675_23598" x1="223.684" y1="66" x2="207.306" y2="86.8894" gradientUnits="userSpaceOnUse">
<stop stop-color="#FEF4EA"/>
<stop offset="1" stop-color="#FEF4EA" stop-opacity="0.1"/>
</linearGradient>
<linearGradient id="paint1_linear_1675_23598" x1="6" y1="63" x2="6" y2="78" gradientUnits="userSpaceOnUse">
<stop stop-color="#FEF4EA"/>
<stop offset="1" stop-color="#FEF4EA" stop-opacity="0"/>
</linearGradient>
</defs>
</svg>
