<svg width="19" height="16" viewBox="0 0 19 16" fill="none" xmlns="http://www.w3.org/2000/svg">
<path fill-rule="evenodd" clip-rule="evenodd" d="M16.5 2.81641H6.5V4.81641H12.5C13.6046 4.81641 14.5 5.71184 14.5 6.81641V9.81641H16.5V2.81641ZM14.5 11.8164V13.8164C14.5 14.921 13.6046 15.8164 12.5 15.8164H2.5C1.39543 15.8164 0.5 14.921 0.5 13.8164V6.81641C0.5 5.71184 1.39543 4.81641 2.5 4.81641H4.5V2.81641C4.5 1.71184 5.39543 0.816406 6.5 0.816406H16.5C17.6046 0.816406 18.5 1.71184 18.5 2.81641V9.81641C18.5 10.921 17.6046 11.8164 16.5 11.8164H14.5ZM2.5 6.81641H12.5V13.8164H2.5L2.5 6.81641Z" fill="white" fill-opacity="0.5"/>
</svg>
