<svg width="16" height="20" viewBox="0 0 16 20" fill="none" xmlns="http://www.w3.org/2000/svg">
<path d="M0.5 19.4199H15.5C15.7761 19.4199 16 19.1961 16 18.9199V17.2999C16 17.0238 15.7761 16.7999 15.5 16.7999H0.5C0.223858 16.7999 0 17.0238 0 17.2999V18.9199C0 19.1961 0.223858 19.4199 0.5 19.4199Z" fill="white"/>
<path d="M9.29984 10.2201L11.9198 7.61008C12.0498 7.48008 12.2498 7.48008 12.3798 7.61008L13.7598 8.99008C13.8898 9.12008 13.8898 9.32008 13.7598 9.45008L8.45984 14.7501C8.20984 15.0001 7.79984 15.0001 7.54984 14.7501L2.24984 9.45008C2.11984 9.32008 2.11984 9.12008 2.24984 8.99008L3.62984 7.61008C3.68984 7.55008 3.76984 7.51008 3.85984 7.51008C3.94984 7.51008 4.02984 7.54008 4.08984 7.61008C4.08984 7.61008 5.58984 9.11008 6.70984 10.2201V1.08008C6.70984 0.810078 6.92984 0.580078 7.20984 0.580078H8.81984C9.08984 0.580078 9.31984 0.800078 9.31984 1.08008V10.2201H9.29984Z" fill="white"/>
</svg>
