<svg width="188" height="16" viewBox="0 0 188 16" fill="none" xmlns="http://www.w3.org/2000/svg">
<path d="M0.567847 1.22489H4.09701C4.40933 1.22489 4.66486 1.47949 4.66486 1.79067V5.91231C4.66486 6.22348 4.92039 6.47808 5.23271 6.47808H9.02592C9.33824 6.47808 9.59377 6.22348 9.59377 5.91231V1.79067C9.59377 1.47949 9.8493 1.22489 10.1616 1.22489H13.6908C14.0031 1.22489 14.2586 1.47949 14.2586 1.79067V14.8034C14.2586 15.1146 14.0031 15.3692 13.6908 15.3692H10.1616C9.8493 15.3692 9.59377 15.1146 9.59377 14.8034V10.6818C9.59377 10.3706 9.33824 10.116 9.02592 10.116H5.23271C4.92039 10.116 4.66486 10.3706 4.66486 10.6818V14.8034C4.66486 15.1146 4.40933 15.3692 4.09701 15.3692H0.567847C0.255531 15.3692 0 15.1146 0 14.8034V1.79067C0 1.47949 0.255531 1.22489 0.567847 1.22489Z" fill="white"/>
<path d="M43.1024 1.22489C43.3636 1.22489 43.5936 1.40311 43.6532 1.65771L46.0154 11.3437C46.041 11.454 46.1404 11.5304 46.2539 11.5304C46.3675 11.5304 46.464 11.454 46.4924 11.3437L48.8746 1.65488C48.937 1.40311 49.1642 1.22489 49.4254 1.22489H52.9659C53.3378 1.22489 53.6104 1.57567 53.5139 1.93494L50.155 14.5262C50.0216 15.0212 49.573 15.3663 49.0563 15.3663H43.4005C42.8866 15.3663 42.4352 15.0212 42.3017 14.5262L38.9429 1.93494C38.8464 1.57567 39.1189 1.22489 39.4909 1.22489H43.1024Z" fill="white"/>
<path d="M174.789 6.22065L173.557 7.64074C173.452 7.76238 173.264 7.77369 173.151 7.66054C172.358 6.88543 171.209 6.48091 169.815 6.48091H166.348C165.8 6.48091 165.334 6.25743 165.334 5.67185C165.334 5.08628 165.8 4.8628 166.348 4.8628H173.08C173.392 4.8628 173.647 4.6082 173.647 4.29703V1.79067C173.647 1.47949 173.392 1.22489 173.08 1.22489H165.414C162.819 1.22489 160.891 2.65912 160.891 5.64922C160.891 8.63932 162.819 10.116 165.414 10.116H168.801C169.55 10.116 169.854 10.3989 169.854 10.9646C169.854 11.4484 169.55 11.7313 168.821 11.7313H161.743C161.43 11.7313 161.175 11.9859 161.175 12.297V14.8034C161.175 15.1146 161.43 15.3692 161.743 15.3692H167.691L172.796 9.37765L174.848 7.01556C175.053 6.77793 175.027 6.4215 174.792 6.21782L174.789 6.22065Z" fill="white"/>
<path d="M170.715 14.4074C170.857 14.4074 170.996 14.396 171.132 14.3819C171.351 14.3593 171.552 14.2518 171.697 14.0849L174.954 10.2631C175.093 10.099 175.166 9.88684 175.155 9.67185C175.149 9.52192 175.138 9.37765 175.121 9.23621L170.715 14.4074Z" fill="white"/>
<path d="M173.968 8.87695L168.435 15.372H168.747C168.997 15.372 169.235 15.2617 169.397 15.0721L173.809 9.8925C174.051 9.60962 174.11 9.21924 173.968 8.87695Z" fill="white"/>
<path d="M174.184 12.0311L171.688 14.9618C172.906 14.4102 173.838 13.3409 174.184 12.0311Z" fill="white"/>
<path d="M150.156 1.22489H155.689C156.34 1.22489 156.907 1.6662 157.066 2.2942L160.187 14.6648C160.278 15.0212 160.005 15.3692 159.636 15.3692H156.166C155.905 15.3692 155.678 15.1909 155.616 14.9392L155.227 13.3635C155.195 13.2362 155.082 13.1485 154.951 13.1485H150.894C150.763 13.1485 150.65 13.2362 150.618 13.3635L150.229 14.9392C150.167 15.1909 149.94 15.3692 149.679 15.3692H146.209C145.84 15.3692 145.567 15.024 145.658 14.6648L148.781 2.2942C148.94 1.6662 149.508 1.22489 150.159 1.22489H150.156ZM151.882 9.67185H153.946C154.139 9.67185 154.281 9.49364 154.236 9.30693L153.205 5.08911C153.174 4.95615 153.055 4.8628 152.915 4.8628C152.779 4.8628 152.66 4.95615 152.626 5.08911L151.595 9.30693C151.55 9.49364 151.692 9.67185 151.885 9.67185H151.882Z" fill="white"/>
<path d="M102.641 1.22489H113.532C113.845 1.22489 114.1 1.47949 114.1 1.79067V4.29703C114.1 4.6082 113.845 4.8628 113.532 4.8628H106.943C106.786 4.8628 106.659 4.9901 106.659 5.14569V6.19519C106.659 6.35078 106.786 6.47808 106.943 6.47808H113.532C113.845 6.47808 114.1 6.73267 114.1 7.04385V9.55021C114.1 9.86139 113.845 10.116 113.532 10.116H106.943C106.786 10.116 106.659 10.2433 106.659 10.3989V11.4484C106.659 11.604 106.786 11.7313 106.943 11.7313H113.532C113.845 11.7313 114.1 11.9859 114.1 12.297V14.8034C114.1 15.1146 113.845 15.3692 113.532 15.3692H102.641C102.329 15.3692 102.073 15.1146 102.073 14.8034V1.79067C102.073 1.47949 102.329 1.22489 102.641 1.22489Z" fill="white"/>
<path d="M178.852 1.42574L175.925 4.8628H176.367C176.535 4.8628 176.691 4.78925 176.799 4.66195L179.726 1.22489H179.283C179.116 1.22489 178.96 1.29844 178.852 1.42574Z" fill="white"/>
<path d="M175.947 1.42574L174.874 2.68458C174.786 2.78642 174.738 2.91655 174.738 3.0495V3.67185L176.822 1.22489H176.379C176.211 1.22489 176.055 1.29844 175.947 1.42574Z" fill="white"/>
<path d="M175.308 1.22489C174.996 1.22489 174.741 1.47949 174.741 1.79067V1.96605L175.374 1.22489H175.308Z" fill="white"/>
<path d="M177.066 1.79632L174.258 5.09194L174.522 5.14852C174.726 5.19378 174.939 5.12023 175.076 4.96181L177.943 1.5983H177.5C177.333 1.5983 177.177 1.67185 177.069 1.79915L177.066 1.79632Z" fill="white"/>
<path d="M180.473 1.22489L177.375 4.8628H178.514C178.67 4.8628 178.798 4.9901 178.798 5.14569V14.8034C178.798 15.1146 179.053 15.3692 179.366 15.3692H182.895C183.207 15.3692 183.463 15.1146 183.463 14.8034V5.14569C183.463 4.9901 183.59 4.8628 183.747 4.8628H186.952C187.264 4.8628 187.52 4.6082 187.52 4.29703V1.79067C187.52 1.47949 187.264 1.22489 186.952 1.22489H180.473Z" fill="white"/>
<path d="M28.6251 10.5629L25.0449 14.7666L25.0875 14.942C25.1215 15.0806 25.2067 15.1966 25.3203 15.273L28.787 11.2051L28.6251 10.5658V10.5629Z" fill="white"/>
<path d="M22.217 9.67185H21.3368C21.1523 9.67185 21.0188 9.49929 21.0614 9.32108L22.1006 5.07779C22.1318 4.9505 22.2454 4.8628 22.376 4.8628H22.3959C22.5265 4.8628 22.64 4.95332 22.6713 5.07779L23.4464 8.25177C23.5003 8.47525 23.7899 8.54314 23.9376 8.36775L25.5673 6.45545L26.2459 5.65488L27.1232 4.62518L28.8438 2.59689L28.6706 1.92645L27.3106 3.52758C27.1601 3.70297 26.8762 3.63791 26.8194 3.41443L26.5355 2.2942C26.3765 1.6662 25.8086 1.22489 25.1584 1.22489H19.6248C18.9746 1.22489 18.4067 1.6662 18.2477 2.2942L15.1246 14.6648C15.0337 15.0212 15.3063 15.3692 15.6754 15.3692H17.9695L22.4271 10.1358C22.5833 9.95191 22.4527 9.66902 22.2113 9.66902L22.217 9.67185Z" fill="white"/>
<path d="M28.9573 11.8784L25.9818 15.3692H26.6888L29.1192 12.5177L28.9573 11.8784Z" fill="white"/>
<path d="M28.787 7.80198L28.6251 7.16266L24.1817 12.3791H24.8887L28.787 7.80198Z" fill="white"/>
<path d="M29.2895 13.1909L27.4327 15.3692H28.1396L29.4514 13.8331L29.2895 13.1909Z" fill="white"/>
<path d="M28.1027 6.14144L22.5407 12.6733H23.2476L28.2646 6.78076L28.1027 6.14144Z" fill="white"/>
<path d="M28.0147 9.57567L24.443 13.7709L24.602 14.413L28.1765 10.215L28.0147 9.57567Z" fill="white"/>
<path d="M29.6217 14.5064L28.8864 15.3692H29.1107C29.4798 15.3692 29.7523 15.024 29.6615 14.6648L29.6217 14.5064Z" fill="white"/>
<path d="M34.6812 5.14569L30.1527 10.4639C30.0646 10.5658 30.0164 10.6959 30.0164 10.8289V11.4512L34.5449 6.13579C34.633 6.03395 34.6812 5.90382 34.6812 5.77086V5.14569Z" fill="white"/>
<path d="M33.5058 1.42574L30.6694 4.75248C30.5814 4.85431 30.5331 4.98444 30.5331 5.1174V5.73975L34.3803 1.22489H33.9373C33.7698 1.22489 33.6137 1.29844 33.5058 1.42574Z" fill="white"/>
<path d="M30.5359 12.5601L35.0645 7.2447C35.1525 7.14286 35.2008 7.01273 35.2008 6.87977V6.25743L30.6722 11.5728C30.5842 11.6747 30.5359 11.8048 30.5359 11.9378V12.5601Z" fill="white"/>
<path d="M35.0049 1.36917L30.6694 6.45827C30.5814 6.56011 30.5331 6.69024 30.5331 6.8232V7.44554L35.0191 2.18105C35.1383 2.0396 35.1838 1.85007 35.1355 1.67185C35.1014 1.54456 35.056 1.41443 35.0021 1.36917H35.0049Z" fill="white"/>
<path d="M31.0073 8.63932L35.5358 3.32107C35.6239 3.21924 35.6721 3.08911 35.6721 2.95615V2.3338L31.1435 7.64922C31.0555 7.75106 31.0073 7.88119 31.0073 8.01414V8.63932Z" fill="white"/>
<path d="M36.169 11.9321L33.2417 15.3692H33.6847C33.8522 15.3692 34.0083 15.2956 34.1162 15.1683L37.0435 11.7313H36.6006C36.433 11.7313 36.2769 11.8048 36.169 11.9321Z" fill="white"/>
<path d="M35.0248 11.5728L31.7909 15.3692H32.2338C32.4013 15.3692 32.5575 15.2956 32.6654 15.1683L35.4336 11.9208C35.516 11.8246 35.5018 11.6803 35.4024 11.5983C35.391 11.5898 35.3825 11.5813 35.3712 11.57C35.269 11.471 35.1128 11.4653 35.0219 11.57L35.0248 11.5728Z" fill="white"/>
<path d="M37.6227 11.9321L34.6954 15.3692H35.1383C35.3059 15.3692 35.462 15.2956 35.5699 15.1683L38.4972 11.7313H38.0542C37.8867 11.7313 37.7306 11.8048 37.6227 11.9321Z" fill="white"/>
<path d="M32.0521 1.42574L30.6694 3.0495C30.5814 3.15134 30.5331 3.28147 30.5331 3.41443V4.03678L32.9294 1.22489H32.4865C32.319 1.22489 32.1628 1.29844 32.0549 1.42574H32.0521Z" fill="white"/>
<path d="M35.198 9.66337L30.5984 15.0636C30.7262 15.3098 31.064 15.3465 31.2429 15.1344L35.0617 10.6506C35.1497 10.5488 35.198 10.4187 35.198 10.2857V9.66337Z" fill="white"/>
<path d="M40.5953 11.8529L37.5971 15.3692L37.1684 15.8727H37.9123L38.1706 15.5672C38.2785 15.4399 38.4375 15.3663 38.605 15.3663H40.249C40.5613 15.3663 40.8168 15.1117 40.8168 14.8006V12.2942C40.8168 12.1103 40.7288 11.9519 40.5953 11.8472V11.8529Z" fill="white"/>
<path d="M35.198 7.95757L30.6694 13.273C30.5814 13.3748 30.5331 13.505 30.5331 13.6379V14.2603L35.0617 8.94484C35.1497 8.843 35.198 8.71287 35.198 8.57992V7.95757Z" fill="white"/>
<path d="M31.1038 1.22489C30.7915 1.22489 30.5359 1.47949 30.5359 1.79067V2.33098L31.4786 1.22489H31.1038Z" fill="white"/>
<path d="M27.3248 5.40877L20.7008 13.1485H21.3226L27.4611 5.94342L27.3248 5.40877Z" fill="white"/>
<path d="M19.1535 15.3692C19.4147 15.3692 19.6418 15.1909 19.7043 14.9392L19.9201 14.0622L18.8014 15.3692H19.1535Z" fill="white"/>
<path d="M39.5079 11.7341C39.3404 11.7341 39.1843 11.8076 39.0764 11.9349L36.1491 15.372H36.5239C36.6914 15.372 36.8476 15.2984 36.9555 15.174L39.8997 11.7341H39.5079Z" fill="white"/>
<path d="M62.4972 11.9321L59.5699 15.3692H60.0185C60.1861 15.3692 60.3422 15.2956 60.4501 15.1683L63.3774 11.7313H62.9288C62.7612 11.7313 62.6051 11.8048 62.4972 11.9321Z" fill="white"/>
<path d="M63.9537 11.9321L61.0265 15.3692H61.4751C61.6426 15.3692 61.7987 15.2956 61.9066 15.1683L64.8339 11.7313H64.3853C64.2178 11.7313 64.0616 11.8048 63.9537 11.9321Z" fill="white"/>
<path d="M66.3898 6.52334C66.3273 6.50354 66.1314 6.49222 65.9639 6.48656C65.7964 6.4809 65.6232 6.55445 65.5096 6.68458L62.5852 10.116H63.0338C63.1985 10.116 63.3575 10.0424 63.4654 9.91796L66.3869 6.52334H66.3898Z" fill="white"/>
<path d="M65.998 10.116C66.0973 10.116 66.191 10.0877 66.2734 10.0424L66.5317 9.73974C66.5545 9.68034 66.5658 9.6181 66.5658 9.55021V8.86563L65.4983 10.116H65.998Z" fill="white"/>
<path d="M61.0407 11.9321L58.1134 15.3692H58.562C58.7295 15.3692 58.8857 15.2956 58.9936 15.1683L61.9208 11.7313H61.4722C61.3047 11.7313 61.1486 11.8048 61.0407 11.9321Z" fill="white"/>
<path d="M65.998 1.22489H55.1067C54.7944 1.22489 54.5388 1.47949 54.5388 1.79066V14.8034C54.5388 15.1146 54.7944 15.3692 55.1067 15.3692H55.1748L54.641 16H55.1209C55.2884 16 55.4474 15.9264 55.5553 15.7991L57.6478 13.3352L59.0646 11.6719C59.1071 11.6209 59.1327 11.5559 59.1327 11.488C59.1327 11.1966 59.127 10.396 59.127 10.396C59.127 10.2405 59.2548 10.1132 59.4109 10.1132H60.1293C60.2968 10.1132 60.4529 10.0396 60.5608 9.9123L63.4881 6.47525H59.4081C59.252 6.47525 59.1242 6.34795 59.1242 6.19236V5.14286C59.1242 4.98727 59.252 4.85997 59.4081 4.85997H64.6011C64.7686 4.85997 64.9247 4.78642 65.0326 4.65912L66.4295 3.01839C66.5175 2.91655 66.5658 2.78642 66.5658 2.65346V1.78784C66.5658 1.47666 66.3103 1.22206 65.998 1.22206V1.22489Z" fill="white"/>
<path d="M66.2762 15.1655L66.4295 14.9844C66.5175 14.8826 66.563 14.7553 66.5658 14.6195C66.5658 14.3706 66.5658 13.9887 66.5658 13.9887L65.3904 15.3663C65.3904 15.3663 65.6431 15.3663 65.8503 15.3607C66.015 15.3607 66.1683 15.2843 66.2762 15.1598V15.1655Z" fill="white"/>
<path d="M63.9367 15.3692H64.3853C64.5528 15.3692 64.709 15.2956 64.8168 15.1683L66.4324 13.273C66.5204 13.1711 66.5687 13.041 66.5687 12.9081V12.2829L63.9395 15.3692H63.9367Z" fill="white"/>
<path d="M65.3336 9.41726L66.8384 7.64922C66.9264 7.54738 66.9747 7.41725 66.9747 7.2843V6.65912L64.4534 9.6181H64.902C65.0695 9.6181 65.2257 9.54455 65.3336 9.41726Z" fill="white"/>
<path d="M65.8418 11.7341C65.6743 11.7341 65.5181 11.8076 65.4102 11.9349L62.483 15.372H62.9316C63.0991 15.372 63.2553 15.2984 63.3632 15.1711L66.245 11.7907C66.1712 11.7567 66.0888 11.7341 66.0008 11.7341H65.8418Z" fill="white"/>
<path d="M56.566 16C56.7336 16 56.8897 15.9264 56.9976 15.7991L59.9249 12.3621H59.5813C59.4138 12.3621 59.2576 12.4356 59.1497 12.5629L56.2197 16H56.566Z" fill="white"/>
<path d="M65.7141 4.8628H65.998C66.3103 4.8628 66.5658 4.6082 66.5658 4.29703V3.86421L65.7141 4.8628Z" fill="white"/>
<path d="M61.5886 10.116C61.7562 10.116 61.9123 10.0424 62.0202 9.91513L64.9474 6.47808H64.5982C64.4307 6.47808 64.2746 6.55163 64.1667 6.67893L61.2366 10.116H61.5886Z" fill="white"/>
<path d="M133.521 8.45545L128.524 14.3197H128.966C129.134 14.3197 129.29 14.2461 129.398 14.1188L133.549 9.24752C133.699 9.07213 133.734 8.82037 133.62 8.61952C133.589 8.56294 133.555 8.50637 133.518 8.45262L133.521 8.45545Z" fill="white"/>
<path d="M119.881 1.22489C119.569 1.22489 119.313 1.47949 119.313 1.79067V14.8034C119.313 15.1146 119.569 15.3692 119.881 15.3692H125.46C125.701 15.3692 125.832 15.6521 125.676 15.8359L125.537 16H126.022C126.187 16 126.346 15.9264 126.454 15.802L126.826 15.3692L128.558 13.3409L132.206 9.05799C131.885 8.72985 131.482 8.45827 130.997 8.23762C132.376 7.79349 133.106 6.52051 133.106 5.12588C133.106 2.9024 131.667 1.22489 128.583 1.22489H119.881ZM127.425 11.7313H123.958C123.802 11.7313 123.674 11.604 123.674 11.4484V9.99434C123.674 9.83875 123.802 9.71146 123.958 9.71146H127.425C128.072 9.71146 128.6 9.99434 128.6 10.6818C128.6 11.4286 128.072 11.7313 127.425 11.7313ZM127.425 6.8826H123.958C123.802 6.8826 123.674 6.7553 123.674 6.59972V5.14569C123.674 4.9901 123.802 4.8628 123.958 4.8628H127.425C128.072 4.8628 128.6 5.12588 128.6 5.8727C128.6 6.57992 128.072 6.8826 127.425 6.8826Z" fill="white"/>
<path d="M129.037 15.355C129.239 15.3437 129.429 15.3239 129.614 15.2984C129.747 15.2786 129.869 15.2079 129.957 15.1061L132.958 11.5842C133.049 11.4767 133.103 11.3352 133.095 11.1938C133.083 11.0099 133.063 10.8373 133.032 10.6704L129.04 15.3578L129.037 15.355Z" fill="white"/>
<path d="M133.015 12.3904L130.795 14.9958C132.05 14.5064 132.78 13.57 133.015 12.3904Z" fill="white"/>
<path d="M139.225 11.918L136.283 15.372H136.726C136.894 15.372 137.05 15.2984 137.158 15.1711L140.085 11.7341C140.085 11.7341 139.869 11.7284 139.682 11.7199C139.506 11.7115 139.335 11.785 139.219 11.918H139.225Z" fill="white"/>
<path d="M139.943 5.96888L135.414 11.2843C135.326 11.3861 135.278 11.5163 135.278 11.6492V12.2716L139.807 6.95615C139.895 6.85431 139.943 6.72419 139.943 6.59123V5.96888Z" fill="white"/>
<path d="M139.051 8.71287L134.523 14.0283C134.435 14.1301 134.387 14.2603 134.387 14.3932V14.8034C134.387 14.8656 134.398 14.925 134.418 14.9788L138.915 9.69731C139.003 9.59547 139.051 9.46535 139.051 9.33239V8.71004V8.71287Z" fill="white"/>
<path d="M139.051 1.89533L134.523 7.21075C134.435 7.31259 134.387 7.44272 134.387 7.57567V8.19802L138.915 2.8826C139.003 2.78076 139.051 2.65064 139.051 2.51768V1.89533Z" fill="white"/>
<path d="M139.051 10.4158L134.912 15.2758L134.954 15.3692H135.275C135.443 15.3692 135.599 15.2956 135.707 15.1683L138.921 11.3975C139.009 11.2928 139.057 11.1627 139.057 11.0269C139.057 10.7836 139.054 10.413 139.054 10.413L139.051 10.4158Z" fill="white"/>
<path d="M139.051 5.3041L134.523 10.6195C134.435 10.7214 134.387 10.8515 134.387 10.9844V11.6068L138.915 6.29137C139.003 6.18953 139.051 6.05941 139.051 5.92645V5.3041Z" fill="white"/>
<path d="M139.051 3.5983L134.523 8.91372C134.435 9.01556 134.387 9.14568 134.387 9.27864V9.90099L138.915 4.58557C139.003 4.48373 139.051 4.35361 139.051 4.22065V3.5983Z" fill="white"/>
<path d="M138.484 1.22489H134.954C134.642 1.22489 134.387 1.47949 134.387 1.79067V6.49505L138.796 1.32108C138.705 1.26167 138.6 1.22772 138.484 1.22772V1.22489Z" fill="white"/>
<path d="M144.102 11.7341H144C143.833 11.7341 143.677 11.8076 143.569 11.9349L140.641 15.372H141.084C141.252 15.372 141.408 15.2984 141.516 15.1711L144.381 11.8105C144.298 11.7624 144.205 11.7341 144.102 11.7341Z" fill="white"/>
<path d="M144.102 15.3692C144.415 15.3692 144.67 15.1146 144.67 14.8034V14.0481L143.543 15.3692H144.102Z" fill="white"/>
<path d="M142.092 15.3692H142.535C142.703 15.3692 142.859 15.2956 142.967 15.1683L144.534 13.3296C144.622 13.2277 144.67 13.0976 144.67 12.9646V12.3423L142.092 15.3692Z" fill="white"/>
<path d="M142.285 11.7341L139.188 15.3692H139.895L142.992 11.7341H142.285Z" fill="white"/>
<path d="M140.664 11.9321L137.737 15.3692H138.18C138.347 15.3692 138.503 15.2956 138.611 15.1683L141.539 11.7313H141.096C140.928 11.7313 140.772 11.8048 140.664 11.9321Z" fill="white"/>
<path d="M96.1591 0H95.668C95.5033 0 95.3471 0.0707213 95.2392 0.195191L94.5976 0.933522C94.4357 1.12023 94.2001 1.22772 93.9531 1.22772H87.8913C87.579 1.22772 87.3234 1.48232 87.3234 1.79349V10.3423L94.9156 1.4314L96.1591 0Z" fill="white"/>
<path d="M85.9777 12.7949L83.7829 15.3692H84.2258C84.3934 15.3692 84.5495 15.2956 84.6574 15.1683L85.9464 13.6549C86.0657 13.5163 86.1083 13.3267 86.0628 13.1513L85.972 12.7921L85.9777 12.7949Z" fill="white"/>
<path d="M86.3098 14.1103L85.2366 15.3692C85.2366 15.3692 85.4836 15.3692 85.6881 15.3663C85.8527 15.3663 86.0089 15.2928 86.1168 15.1655L86.2786 14.9731C86.395 14.8373 86.4404 14.6506 86.3979 14.4752C86.3553 14.2999 86.3098 14.1047 86.3098 14.1047V14.1103Z" fill="white"/>
<path d="M92.1587 7.2447L87.4597 12.761C87.3717 12.8628 87.3234 12.9929 87.3234 13.1259V13.7482L93.036 7.04385H92.5931C92.4255 7.04385 92.2694 7.1174 92.1615 7.2447H92.1587Z" fill="white"/>
<path d="M91.4205 15.3692C91.7328 15.3692 91.9883 15.1146 91.9883 14.8034V14.2603L91.0428 15.3692H91.4205Z" fill="white"/>
<path d="M94.0439 7.04668C93.8764 7.04668 93.7202 7.12023 93.6123 7.24753L87.3263 14.6252V14.8062C87.3263 14.976 87.4029 15.1259 87.5193 15.2277L94.4897 7.04668H94.0439Z" fill="white"/>
<path d="M94.8929 4.8628L97.7889 1.46252C97.7122 1.43989 97.6355 1.42008 97.556 1.40028C97.3431 1.34936 97.1188 1.41726 96.9797 1.58133L94.1859 4.8628H94.8929Z" fill="white"/>
<path d="M95.6594 1.4314L92.735 4.8628H93.1779C93.3455 4.8628 93.5016 4.78925 93.6095 4.66195L96.5226 1.24187C96.4374 1.23621 96.2585 1.23055 96.1024 1.22772C95.932 1.22489 95.7673 1.29844 95.6566 1.42857L95.6594 1.4314Z" fill="white"/>
<path d="M91.9883 5.73975L87.4597 11.0552C87.3717 11.157 87.3234 11.2871 87.3234 11.4201V12.0424L91.852 6.72702C91.94 6.62518 91.9883 6.49505 91.9883 6.36209V5.73975Z" fill="white"/>
<path d="M100.841 7.27864L98.2886 10.2772C99.6173 9.7454 100.509 8.70155 100.841 7.27864Z" fill="white"/>
<path d="M90.4693 15.1711L91.852 13.5474C91.94 13.4455 91.9883 13.3154 91.9883 13.1825V12.5601L89.592 15.372H90.0349C90.2024 15.372 90.3586 15.2984 90.4665 15.1711H90.4693Z" fill="white"/>
<path d="M96.0513 5.20792L98.6463 2.16124C98.7599 2.02546 98.7145 1.82178 98.5555 1.7454C98.5555 1.7454 98.5526 1.7454 98.5498 1.7454C98.4419 1.69448 98.3113 1.7256 98.2346 1.81612L95.5885 4.92221C95.773 4.97595 95.932 5.06648 96.0513 5.20792Z" fill="white"/>
<path d="M100.676 4.06506L95.0377 10.6818H95.4806C95.6481 10.6818 95.8042 10.6082 95.9121 10.4809L100.662 4.90523C100.784 4.76096 100.827 4.56577 100.776 4.38472C100.745 4.2744 100.71 4.1669 100.674 4.06506H100.676Z" fill="white"/>
<path d="M99.5634 3.7256L93.036 11.389H93.4789C93.6464 11.389 93.8026 11.3154 93.9105 11.1881L99.5975 4.51202C99.765 4.31683 99.7763 4.03112 99.6287 3.81895C99.606 3.78784 99.5833 3.75389 99.5605 3.72277L99.5634 3.7256Z" fill="white"/>
<path d="M99.552 2.39887C99.4413 2.29703 99.2653 2.31117 99.1687 2.42433L96.2755 5.81895C96.2784 5.86421 96.2869 5.90382 96.2869 5.95474C96.2869 6.61103 95.9178 6.93069 95.4181 7.01556C95.2932 7.03819 95.1768 7.10608 95.0944 7.20226L88.1383 15.3692H88.5812C88.7487 15.3692 88.9049 15.2956 89.0128 15.1683L91.8492 11.8388C91.9372 11.7369 91.9855 11.6068 91.9855 11.4738V10.9646C91.9855 10.8091 92.1132 10.6818 92.2694 10.6818H92.8372L99.5747 2.77228C99.6684 2.66195 99.6571 2.49788 99.552 2.4017C99.552 2.4017 99.552 2.4017 99.5492 2.39887H99.552Z" fill="white"/>
<path d="M100.972 5.42291L96.5055 10.6648C96.71 10.6506 96.9059 10.628 97.0961 10.5997C97.2267 10.5799 97.3459 10.5092 97.4311 10.4074L100.847 6.39887C100.935 6.29703 100.98 6.16973 100.983 6.03395C100.983 5.83027 100.983 5.54172 100.972 5.42291Z" fill="white"/>
<path d="M85.5063 10.9279L83.3286 2.29703C83.1696 1.66902 82.6018 1.22772 81.9516 1.22772H76.418C75.7678 1.22772 75.1999 1.66902 75.0409 2.29703L71.9178 14.6676C71.8269 15.024 72.0995 15.372 72.4686 15.372H75.9381C76.1993 15.372 76.4265 15.1938 76.4889 14.942L76.8779 13.3663C76.9091 13.239 77.0227 13.1513 77.1533 13.1513H81.2106C81.3412 13.1513 81.4548 13.239 81.486 13.3663L81.875 14.942C81.9374 15.1938 82.1646 15.372 82.4258 15.372H83.0362L85.6 12.3621L86.5483 11.2702C86.6676 11.1315 86.713 10.9448 86.6704 10.7694L86.5767 10.3734L85.9918 11.0467C85.8414 11.2192 85.5574 11.1513 85.5007 10.9307L85.5063 10.9279ZM80.2055 9.67185H78.1414C77.9483 9.67185 77.8064 9.49364 77.8518 9.30693L78.8824 5.08911C78.9136 4.95615 79.0329 4.8628 79.172 4.8628C79.3111 4.8628 79.4275 4.95615 79.4616 5.08911L80.4922 9.30693C80.5377 9.49364 80.3957 9.67185 80.2027 9.67185L80.2055 9.67185Z" fill="white"/>
</svg>
