<svg width="201" height="16" viewBox="0 0 201 16" fill="none" xmlns="http://www.w3.org/2000/svg">
<path d="M187.815 12.647C187.815 12.647 187.815 12.6253 187.815 12.6144C187.836 11.3611 189.117 10.5364 190.267 11.0193C191.287 11.4479 192.454 11.7789 193.409 11.6378C193.994 11.551 194.315 11.3232 194.336 11.0247C194.385 10.4551 194.016 10.3194 192.774 10.0264L192.302 9.91251C191.727 9.77687 191.168 9.58154 190.636 9.31569C189.193 8.59951 188.341 7.59578 188.124 5.69141C187.706 2.02914 190.571 0.113916 194.043 0.113916C195.237 0.113916 196.382 0.276683 197.092 0.509983C198.91 1.10137 199.306 2.11053 199.187 3.10341C199.046 4.25363 197.901 5.01321 196.772 4.74193C196.165 4.59544 195.427 4.47065 194.678 4.47065C194.022 4.47065 193.566 4.6497 193.588 5.10544C193.658 5.53406 193.859 5.67513 194.835 5.92471L196.062 6.24482C199.122 7.03695 199.898 8.62664 200.055 10.4659C200.397 14.2096 197.402 16 193.75 16C192.974 16 192.106 15.9186 191.401 15.821C190.75 15.7287 190.11 15.5551 189.508 15.2947C188.612 14.9095 187.788 14.3289 187.815 12.6578V12.647Z" fill="#FEF4EA"/>
<path d="M0.480632 12.5331C0.480632 12.5331 0.480632 12.5114 0.480632 12.5005C0.502334 11.2472 1.78277 10.4225 2.93299 10.9054C3.953 11.334 5.1195 11.665 6.0744 11.5239C6.66036 11.4371 6.98047 11.2092 7.00217 10.9108C7.051 10.3411 6.68206 10.2055 5.43961 9.91253L4.96758 9.79859C4.39247 9.66295 3.83364 9.46763 3.30193 9.20177C1.85873 8.4856 1.00691 7.48187 0.789889 5.57749C0.377546 1.92065 3.24225 0 6.71462 0C7.90824 0 9.05304 0.162767 9.76379 0.396067C11.5814 0.987455 11.9774 1.99661 11.8581 2.98949C11.717 4.13971 10.5722 4.89929 9.44368 4.62802C8.83602 4.48152 8.09814 4.35674 7.34941 4.35674C6.69291 4.35674 6.23717 4.53578 6.25887 4.99153C6.3294 5.42015 6.53015 5.56121 7.50675 5.81079L8.73293 6.1309C11.793 6.92303 12.5688 8.51273 12.7262 10.352C13.068 14.0956 10.073 15.8861 6.42164 15.8861C5.64578 15.8861 4.77769 15.8047 4.07236 15.707C3.42129 15.6148 2.78108 15.4412 2.17884 15.1808C1.27819 14.7847 0.453504 14.2042 0.480632 12.5331Z" fill="#FEF4EA"/>
<path d="M57.9049 3.16877C57.8832 1.87748 57.4057 0.103319 59.6736 0.108745H61.7842C63.6886 0.108745 63.7591 1.62791 63.7103 2.80526L63.6126 5.38783C63.6072 5.5723 63.7537 5.72964 63.9381 5.72964C64.0846 5.72964 64.2148 5.63198 64.2528 5.49091C64.5838 4.30271 65.0015 2.5611 65.3651 1.3512C65.5929 0.58077 65.8859 0.103319 66.9276 0.103319H70.3729C71.3929 0.103319 71.9843 1.16673 71.4851 2.0511C71.0077 2.95717 69.9442 5.54517 68.832 7.60689C69.4451 9.10435 69.9659 10.3034 70.3078 10.9165C70.7309 11.7195 71.8378 12.1318 72.5757 11.6598C72.6462 11.6164 72.7384 11.6706 72.7384 11.752C72.6462 14.5625 70.7364 15.946 68.4034 15.7507C66.6021 15.5988 65.5821 14.7307 65.0938 13.2115C64.8225 12.3705 64.3125 10.336 64.0032 9.41361C63.9653 9.29967 63.8567 9.22371 63.7374 9.22371C63.5855 9.22371 63.4607 9.3485 63.4553 9.50041C63.4336 10.7483 63.4173 11.8551 63.4553 12.4682C63.5475 13.7595 63.7482 15.5282 61.7082 15.5282H59.5977C57.6933 15.5282 57.6445 13.9874 57.6933 12.8046C57.7855 9.78797 57.9212 4.04771 57.8995 3.16334L57.9049 3.16877Z" fill="#F2853B"/>
<path d="M76.1186 9.32135C75.6899 8.24166 73.8127 3.97173 72.8035 1.68214C72.4997 0.993092 73.0043 0.217235 73.7584 0.217235H76.2108C77.0138 0.217235 77.7137 0.770643 77.9036 1.55193C78.2345 2.93545 78.7174 5.00802 78.8693 5.88696C78.8856 5.96834 78.9507 6.0226 79.0321 6.0226C79.1081 6.0226 79.1786 5.96834 79.1949 5.89239C79.4065 4.84525 79.8568 2.89204 80.1606 1.57363C80.3451 0.781495 81.0504 0.22266 81.8643 0.228086L84.4848 0.244363C85.2444 0.244363 85.7435 1.0365 85.4234 1.72554C84.322 4.10195 82.2223 8.59975 81.7286 9.45699C81.7395 9.76082 81.7937 10.8297 81.8534 12.045C81.9348 13.7106 82.6293 15.6638 78.9344 15.6638C75.9829 15.6638 75.9449 14.2803 76.0155 12.6147C76.0697 11.3342 76.124 9.61433 76.124 9.32678L76.1186 9.32135Z" fill="#BF47BC"/>
<path d="M93.2686 3.40708C93.2469 2.1158 92.9485 0.341633 95.1893 0.347058H97.289C97.8587 0.347058 98.3958 0.629188 98.7213 1.10121L101.689 5.44167C101.754 5.53391 101.863 5.59359 101.977 5.59359C102.177 5.59359 102.335 5.4254 102.324 5.22465C102.248 4.069 102.112 2.32197 102.091 1.98016C102.091 1.89877 102.08 1.79569 102.069 1.68175C102.004 0.965574 102.568 0.347058 103.284 0.352484C103.507 0.352484 103.735 0.352484 103.941 0.352484H105.937C108.178 0.352484 107.966 1.87707 107.842 3.04899C107.755 3.90081 107.603 9.23415 107.798 12.5383C107.874 13.8296 108.335 15.772 105.818 15.772H103.8C102.145 15.772 102.004 14.3396 101.667 13.3467C101.201 11.9741 100.24 9.82011 99.1771 8.06765C99.1174 7.96457 99.0034 7.89946 98.8841 7.89946C98.6888 7.89946 98.5368 8.0568 98.5423 8.25212C98.5911 9.78756 98.9004 12.0337 98.9438 12.7065C99.036 13.9978 99.6925 15.7665 97.175 15.7665H95.0645C93.1601 15.7665 93.1384 14.2257 93.1601 13.0429C93.274 10.0263 93.2849 4.28603 93.2578 3.40166L93.2686 3.40708Z" fill="#FEF4EA"/>
<path d="M109.328 4.05828C109.296 2.1105 108.878 0.336334 111.151 0.34176H118.275C119.729 0.34176 119.952 0.976552 119.952 1.95316V2.24614C119.973 3.28785 119.338 3.7436 118.161 3.70019C117.575 3.68391 115.611 3.67849 114.276 3.67849C113.891 3.67849 113.582 3.98775 113.582 4.37296V5.50148C113.582 5.8867 113.891 6.19596 114.276 6.19596C115.427 6.19596 117.695 6.19596 118.08 6.17425C118.828 6.15255 119.442 6.49436 119.442 7.37873V7.81278C119.442 8.87619 119.149 9.01725 118.215 9.03896C117.716 9.05523 115.329 9.04438 114.146 9.03896C113.766 9.03896 113.452 9.34279 113.446 9.72801C113.446 10.0644 113.441 10.4388 113.441 10.7643C113.441 11.1495 113.756 11.4642 114.141 11.4588C115.573 11.4533 117.635 11.4316 118.27 11.3937C119.474 11.3231 119.995 11.8223 119.995 12.8694V14.5459C119.995 15.5442 119.745 15.7721 118.297 15.7721H111.037C109.133 15.7721 109.111 14.2312 109.133 13.0485C109.247 10.0318 109.345 4.94807 109.328 4.0637V4.05828Z" fill="#F2853B"/>
<path d="M176.204 3.40707C176.182 2.11578 175.499 0.347046 178.016 0.347046H185.14C186.594 0.347046 186.816 0.981838 186.816 1.95844V2.25142C186.838 3.29313 186.203 3.74888 185.026 3.70548C184.44 3.6892 182.476 3.68377 181.141 3.68377C180.756 3.68377 180.447 3.99303 180.447 4.37825V5.50677C180.447 5.89198 180.756 6.20124 181.141 6.20124C182.292 6.20124 184.559 6.20124 184.945 6.17954C185.693 6.15784 186.306 6.49965 186.306 7.38402V7.81806C186.306 8.88147 186.013 9.02254 185.08 9.04424C184.581 9.06052 182.194 9.04967 181.011 9.04424C180.631 9.04424 180.317 9.34807 180.311 9.73329C180.311 10.0697 180.306 10.444 180.306 10.7696C180.306 11.1548 180.62 11.4695 181.006 11.464C182.438 11.4586 184.5 11.4369 185.135 11.3989C186.339 11.3284 186.86 11.8276 186.86 12.8747V14.5512C186.86 15.5495 186.61 15.7774 185.162 15.7774H177.902C175.998 15.7774 175.976 14.2365 175.998 13.0537C176.112 10.0371 176.226 4.29686 176.204 3.4125V3.40707Z" fill="#F2853B"/>
<path d="M134.742 3.20103C134.492 1.88261 133.922 0.341748 135.783 0.341748H137.78C139.663 0.341748 139.912 1.83921 140.026 2.4957C140.395 4.55742 140.927 9.21799 141.209 10.8457C141.231 10.9596 141.328 11.0464 141.448 11.0464C141.567 11.0464 141.67 10.9542 141.686 10.8348C141.996 8.46926 142.658 3.17932 142.723 2.4957C142.858 1.20441 142.88 0.341748 144.627 0.341748H147.372C148.778 0.341748 148.664 1.93144 148.371 3.06539C147.579 6.19594 146.239 12.6578 146.059 13.5422C145.788 14.8335 145.853 15.7667 143.542 15.7667H138.985C137.259 15.7667 136.945 14.904 136.717 13.7917C136.489 12.8151 135.154 5.17051 134.742 3.20103Z" fill="#BF47BC"/>
<path d="M49.0883 0.254854C45.578 0.254854 43.1256 2.19178 42.0676 4.93712C41.0259 2.26774 38.6115 0.254854 35.0361 0.254854C30.2399 0.254854 27.424 3.87371 27.424 8.23045C27.424 12.5872 30.7824 15.6255 34.7757 15.6255C37.9279 15.6255 40.8252 13.9599 42.0459 11.1277C43.169 13.8296 45.8167 15.6255 48.8333 15.6255C52.9893 15.6255 56.7058 12.7282 56.7058 8.08938C56.7058 4.03105 53.9876 0.254854 49.0937 0.254854H49.0883ZM36.029 12.8042C33.8316 12.8042 32.8116 11.1657 32.8116 9.48918C32.8116 7.41119 34.0703 5.98969 36.0073 5.98969C37.9442 5.98969 38.9425 7.64991 38.9425 9.20705C38.9425 11.323 37.8031 12.8042 36.0235 12.8042H36.029ZM50.0812 12.8042C47.8838 12.8042 46.8638 11.1657 46.8638 9.48918C46.8638 7.41119 48.1226 5.98969 50.0595 5.98969C51.9964 5.98969 52.9947 7.64991 52.9947 9.20705C52.9947 11.323 51.8554 12.8042 50.0758 12.8042H50.0812Z" fill="#FEF4EA"/>
<path d="M36.4305 11.8764C37.2065 11.8764 37.8357 11.2473 37.8357 10.4712C37.8357 9.69513 37.2065 9.06599 36.4305 9.06599C35.6544 9.06599 35.0252 9.69513 35.0252 10.4712C35.0252 11.2473 35.6544 11.8764 36.4305 11.8764Z" fill="#FEF4EA"/>
<path d="M50.4881 11.8764C51.2642 11.8764 51.8933 11.2473 51.8933 10.4712C51.8933 9.69513 51.2642 9.06599 50.4881 9.06599C49.712 9.06599 49.0829 9.69513 49.0829 10.4712C49.0829 11.2473 49.712 11.8764 50.4881 11.8764Z" fill="#FEF4EA"/>
<path d="M20.3869 0.341875H15.6938C13.1763 0.341875 13.8545 2.11061 13.8816 3.4019C13.9033 4.19403 13.8111 8.86003 13.7134 11.996C13.708 12.1696 13.6809 12.9509 13.6592 13.7322C13.6266 14.7142 14.4133 15.5281 15.3954 15.5281H17.8369C18.8514 15.5281 19.649 14.6654 19.5676 13.6508C19.5296 13.1734 19.4971 12.7122 19.4754 12.4301C19.4537 12.0882 19.4374 11.9472 19.4374 11.3558H20.5931C24.6514 11.3558 26.4472 8.95226 26.6046 5.8C26.7836 2.60434 24.5429 0.336449 20.3923 0.336449L20.3869 0.341875ZM20.5062 8.05704H20.2458C19.7846 8.05704 19.4211 7.67183 19.4428 7.21608L19.573 4.50872C19.5947 4.0801 19.9474 3.74371 20.376 3.74371C20.8046 3.74371 21.1573 4.0801 21.179 4.50872L21.3092 7.21608C21.3309 7.67183 20.9674 8.05704 20.5062 8.05704Z" fill="#F2853B"/>
<path d="M168.912 0.293002H164.116C161.544 0.293002 162.238 2.09972 162.26 3.42356C162.282 4.23197 162.19 9.00105 162.087 12.2076C162.081 12.3866 162.054 13.1842 162.027 13.9817C161.994 14.9855 162.797 15.8156 163.801 15.8156H166.291C167.328 15.8156 168.142 14.9312 168.06 13.9003C168.022 13.412 167.984 12.94 167.968 12.6525C167.946 12.3052 167.93 12.1587 167.93 11.5565H169.113C173.263 11.5565 175.092 9.09871 175.254 5.87592C175.439 2.60972 173.144 0.293002 168.907 0.293002H168.912ZM168.765 8.17636C168.299 8.17636 167.924 7.78572 167.946 7.3137L168.082 4.54665C168.104 4.10718 168.462 3.76537 168.901 3.76537C169.341 3.76537 169.699 4.10718 169.72 4.54665L169.856 7.3137C169.878 7.7803 169.503 8.17636 169.037 8.17636H168.765Z" fill="#FEF4EA"/>
<path d="M135.295 11.8765C135.284 11.8169 135.225 11.7843 135.165 11.8006C134.362 12.0285 133.429 11.8006 132.724 11.0464C132.431 10.7317 131.817 9.59237 131.817 9.59237C133.065 8.75141 133.857 7.43842 133.95 5.69139C134.085 2.49572 131.861 0.227832 127.71 0.227832H123.017C120.5 0.227832 121.227 1.99657 121.248 3.28786C121.27 4.17222 121.135 9.91248 121.042 12.9291C120.999 14.1065 121.042 15.6527 122.947 15.6527H125.057C126.484 15.6527 126.896 15.1102 126.783 13.4988C126.723 12.6415 126.69 11.6487 126.712 10.9433C126.712 10.7643 126.864 10.6178 127.043 10.6178C127.184 10.6178 127.309 10.7046 127.352 10.8348L128.28 13.3414C128.958 14.904 129.826 15.7667 131.59 15.8806C133.608 16.0108 135.935 14.8172 135.295 11.882V11.8765ZM127.586 7.93757C127.054 7.93757 126.631 7.49268 126.658 6.9664L126.783 4.38925C126.804 3.96063 127.157 3.62424 127.586 3.62424C128.014 3.62424 128.367 3.96063 128.389 4.38925L128.513 6.9664C128.54 7.4981 128.117 7.93757 127.586 7.93757Z" fill="#FEF4EA"/>
<path d="M161.083 12.9074C160.779 11.3557 159.444 4.4815 158.886 1.60595C158.745 0.86807 158.093 0.336363 157.345 0.341789L151.491 0.363491C150.753 0.363491 150.118 0.884346 149.966 1.60595C149.402 4.29161 148.072 10.607 147.454 13.0376C147.166 14.1716 147.025 15.7721 148.431 15.7613H151.198C152.945 15.7613 152.972 14.9366 153.08 13.6073C153.08 13.6182 155.793 13.6182 155.804 13.6073C155.961 14.2638 156.146 15.7613 158.05 15.7613H160.025C161.908 15.7613 161.365 14.2204 161.088 12.902L161.083 12.9074ZM153.91 11.0139C153.59 11.0139 153.335 10.7426 153.357 10.4225L153.742 4.26448C153.758 3.9715 154.003 3.74362 154.296 3.74362C154.589 3.74362 154.833 3.9715 154.849 4.26448L155.234 10.4225C155.256 10.7426 155.001 11.0139 154.681 11.0139H153.91Z" fill="#F2853B"/>
</svg>
