<svg width="71" height="32" viewBox="0 0 71 32" fill="none" xmlns="http://www.w3.org/2000/svg">
<rect width="70.87" height="32" rx="6" fill="white"/>
<g clip-path="url(#clip0_2059_36941)">
<path d="M47.8896 6.1018H38.3596C37.4096 6.1018 36.6396 6.8618 36.6396 7.7918V24.1818C36.6396 24.3618 36.6696 24.5518 36.7296 24.7118C36.9496 25.3818 37.5996 25.8618 38.3596 25.8618H47.8896C48.8396 25.8618 49.5796 25.1318 49.5996 24.1718V21.1718C49.5796 20.5218 49.3096 19.9018 48.8396 19.4418C48.3496 18.9618 47.6996 18.6918 47.0096 18.6918C45.5796 18.6918 44.4196 19.8318 44.4196 21.2318V22.0618C44.4196 22.7518 43.8497 23.3118 43.1497 23.3118C42.4497 23.3118 41.8797 22.7518 41.8797 22.0618V12.4918C41.8797 11.8018 42.4497 11.2418 43.1497 11.2418C43.8497 11.2418 44.4196 11.8018 44.4196 12.4918V13.7618C44.4196 15.1718 45.5796 16.3118 47.0096 16.3118C48.3996 16.3118 49.5696 15.2018 49.5996 13.8418V7.7318C49.5796 6.8118 48.8296 6.0918 47.8896 6.0918V6.1018Z" fill="black"/>
<path d="M20.13 6.0918H9.71C8.76 6.0918 8 6.8418 8 7.7718V23.0718C8 24.7218 9.47 26.0418 11.19 25.8318C12.62 25.6518 13.65 24.3918 13.65 22.9818V12.4718C13.65 11.7018 14.36 11.0918 15.17 11.2518C15.77 11.3718 16.19 11.9218 16.19 12.5318V22.9818C16.19 24.4018 17.23 25.6718 18.67 25.8418C19.9 25.9818 21 25.3518 21.52 24.3718C21.63 24.1718 21.68 23.9418 21.69 23.7218L21.85 18.8518V7.7818C21.85 6.8518 21.08 6.0918 20.13 6.0918Z" fill="black"/>
<path d="M34.5401 6.33086C34.2901 6.18086 33.9901 6.09086 33.6801 6.09086H24.7301C23.8001 6.09086 23.0401 6.81086 23.0101 7.72086L22.5801 21.3509L27.9201 15.1109L28.0401 12.3509C28.0601 11.7209 28.5801 11.2409 29.2201 11.2409C29.8201 11.2409 30.3101 11.6709 30.3901 12.2309L31.1801 11.3109L36.4501 5.13086H35.9101C35.9101 5.13086 35.6801 5.13086 35.5701 5.18086C35.4501 5.24086 35.3801 5.35086 35.3801 5.35086L34.5401 6.33086Z" fill="black"/>
<path d="M35.3499 7.43164L30.4199 13.1916L30.4699 14.4316L35.4099 8.65164L35.3799 7.72164C35.3799 7.62164 35.3599 7.52164 35.3399 7.43164H35.3499Z" fill="black"/>
<path d="M27.87 16.1816L22.54 22.4116L22.5 23.7616L27.81 17.5516L27.87 16.1816Z" fill="black"/>
<path d="M27.7702 18.6211L22.4902 24.7911C22.4902 24.8511 22.5102 24.9111 22.5302 24.9611C22.5902 25.1511 22.6902 25.3311 22.8302 25.4711C22.8602 25.5011 22.9002 25.5411 22.9402 25.5711L27.7102 19.9911L27.7702 18.6211Z" fill="black"/>
<path d="M28.1203 21.2218C28.0103 21.1118 27.9203 20.9818 27.8503 20.8418L23.5703 25.8418C23.6303 25.8418 23.6903 25.8518 23.7403 25.8518H24.6703L28.4303 21.4618C28.3203 21.3918 28.2103 21.3118 28.1203 21.2218Z" fill="black"/>
<path d="M35.5604 13.1309L35.5204 11.8809L30.6104 17.6209L30.6604 18.8609L35.5604 13.1309Z" fill="black"/>
<path d="M35.59 14.1113L30.69 19.8313V20.1413C30.71 20.3213 30.69 20.4913 30.63 20.6613C30.56 20.8713 30.44 21.0613 30.28 21.2213C29.99 21.5113 29.6 21.6713 29.2 21.6713C29.17 21.6713 29.15 21.6713 29.12 21.6713L25.54 25.8513H26.29C26.44 25.8513 26.58 25.8313 26.72 25.7813L27.54 24.8213C27.55 24.7513 27.56 24.6813 27.56 24.6013V24.2413H28.03L35.63 15.3613L35.59 14.1113Z" fill="black"/>
<path d="M35.6702 16.3516L28.9102 24.2516H30.0202L35.7102 17.6016L35.6702 16.3516Z" fill="black"/>
<path d="M35.7398 18.582L30.8398 24.312V24.612C30.8398 24.882 30.9298 25.132 31.0698 25.332L35.7798 19.832L35.7398 18.582Z" fill="black"/>
<path d="M35.8398 21.7205L35.8098 20.8105L31.5898 25.7405C31.7498 25.8105 31.9298 25.8505 32.1098 25.8505H32.6098L35.8498 22.0605C35.8498 21.8505 35.8298 21.7105 35.8298 21.7105L35.8398 21.7205Z" fill="black"/>
<path d="M35.9296 23.8713C35.9296 23.6113 35.9096 23.3113 35.8996 23.0312L33.4796 25.8512H33.7496L32.8896 26.8713H33.3296C33.3296 26.8713 33.5996 26.8813 33.7296 26.8213C33.8296 26.7713 34.0196 26.5413 34.0196 26.5413L35.8296 24.4213L35.9396 24.2913C35.9396 24.1713 35.9396 24.0313 35.9396 23.8813L35.9296 23.8713Z" fill="black"/>
<path d="M30.5098 15.4106L30.5598 16.6506L35.4898 10.9006L35.4498 9.64062L30.5098 15.4106Z" fill="black"/>
<path d="M50.5696 19.0214L55.5496 13.2014V12.4214C55.5496 11.7714 56.0896 11.2514 56.7396 11.2514C56.8896 11.2514 57.0296 11.2814 57.1496 11.3214L58.0696 10.2414L61.5696 6.15135L62.4496 5.13135H61.9696C61.9696 5.13135 61.6396 5.12135 61.5296 5.19135C61.4696 5.23135 61.3596 5.36135 61.3596 5.36135L60.9296 5.87135C60.8096 6.01135 60.6296 6.10135 60.4396 6.10135H52.2796C51.8596 6.10135 51.4696 6.24135 51.1696 6.49135C50.8296 6.77135 50.5996 7.18135 50.5596 7.63135V7.78135V19.0214H50.5696Z" fill="black"/>
<path d="M57.6904 11.7112C57.8404 11.9012 57.9304 12.1512 57.9304 12.4112V12.7412L62.7304 7.13117C62.7104 7.08117 62.6804 7.03117 62.6504 6.98117C62.5304 6.77117 62.3804 6.60117 62.1904 6.45117L57.6904 11.7212V11.7112Z" fill="black"/>
<path d="M57.9801 21.9512L62.8601 16.2512V14.9512L56.8701 21.9512H57.9801Z" fill="black"/>
<path d="M59.9704 21.9515L62.8604 18.5715V17.2715L58.8604 21.9515H59.9704Z" fill="black"/>
<path d="M57.9297 17.3805L62.8597 11.6105V10.3105L57.9297 16.0705V17.3805Z" fill="black"/>
<path d="M57.9297 13.7522V15.0622L62.8697 9.29219V7.99219L57.9297 13.7522Z" fill="black"/>
<path d="M57.3504 19.0709L53.5604 23.5009V23.4809L50.6904 26.8809H51.1204C51.1204 26.8809 51.3704 26.8809 51.5004 26.8309C51.6104 26.7809 51.8404 26.5209 51.8404 26.5209L52.4704 25.7809C52.5404 25.8009 52.6104 25.8209 52.6904 25.8309L55.5704 22.4609V21.9509H56.0104L62.8804 13.9309V12.6309L57.8704 18.4909C57.7704 18.7409 57.5904 18.9409 57.3704 19.0809L57.3504 19.0709Z" fill="black"/>
<path d="M50.5703 21.3409L55.5503 15.5109V14.2109L50.5703 20.0309V21.3409Z" fill="black"/>
<path d="M51.2903 25.1321L56.3803 19.1821C56.1003 19.0921 55.8603 18.9021 55.7103 18.6621L50.7803 24.4221C50.9003 24.6921 51.0803 24.9321 51.2903 25.1321Z" fill="black"/>
<path d="M55.5603 23.4805L53.5703 25.8005C54.6803 25.5705 55.5203 24.6205 55.5603 23.4805Z" fill="black"/>
<path d="M55.5503 16.5312L50.5703 22.3512V23.3913C50.5703 23.4813 50.5703 23.5613 50.5703 23.6513L55.5503 17.8313V16.5312Z" fill="black"/>
<path d="M61.1498 21.9516C61.6598 21.9516 62.1098 21.7416 62.4298 21.4016C62.4598 21.3716 62.4798 21.3416 62.5098 21.3116C62.7198 21.0516 62.8498 20.7316 62.8598 20.3816V19.6016L60.8398 21.9616H61.1498V21.9516Z" fill="black"/>
<path d="M34.1904 6.17158C34.1904 6.17158 34.3704 6.25158 34.4904 6.24158C34.5804 6.24158 34.6704 6.18158 34.8404 5.98158C35.0104 5.78158 34.7604 6.43158 34.7604 6.43158L34.3504 6.67158L34.1904 6.17158Z" fill="black"/>
<path d="M33.4805 25.8609C33.4805 25.8609 33.5805 25.8609 33.6105 25.9309C33.6305 25.9709 33.5805 26.0609 33.5805 26.0609L34.0005 26.0309L34.0205 25.7109L33.4805 25.8609Z" fill="black"/>
<path d="M52.6295 25.8202C52.6295 25.8202 52.5595 25.8202 52.4795 25.8202C52.3895 25.8402 52.2695 26.0002 52.2695 26.0002L52.3295 25.7602L52.5495 25.6602L52.6295 25.8102V25.8202Z" fill="black"/>
</g>
<defs>
<clipPath id="clip0_2059_36941">
<rect width="54.87" height="21.74" fill="white" transform="translate(8 5.13086)"/>
</clipPath>
</defs>
</svg>
