<svg width="90" height="41" viewBox="0 0 90 41" fill="none" xmlns="http://www.w3.org/2000/svg">
<path d="M79.4799 7.95898H6.37988C3.06617 7.95898 0.379883 10.6453 0.379883 13.959V33.959C0.379883 37.2727 3.06617 39.959 6.37988 39.959H79.4799C82.7936 39.959 85.4799 37.2727 85.4799 33.959V13.959C85.4799 10.6453 82.7936 7.95898 79.4799 7.95898Z" fill="#D386F8"/>
<path d="M76.2596 25.5991L74.7996 25.5791C74.9196 25.1891 75.0596 24.9491 75.2096 24.5691L73.1696 24.3691C73.1596 24.7791 73.1696 25.0391 73.1696 25.4491L71.8096 25.1891L71.8896 26.5091C72.2996 26.3191 72.7296 26.2091 73.1696 26.1291C73.1896 26.8891 73.2396 27.6591 73.3296 28.4191C73.6096 28.3991 73.8896 28.4191 74.1696 28.4591C74.2696 27.7291 74.4196 27.0091 74.6196 26.3091C75.0796 26.4591 75.5296 26.6391 75.9396 26.8891L76.2496 25.6091L76.2596 25.5991Z" fill="#605A5B"/>
<path d="M77.7598 31.2186C78.0398 29.6186 76.3598 27.9786 74.0098 27.5686C71.6598 27.1586 69.5298 28.1285 69.2498 29.7385C69.2398 29.8185 69.2298 29.8986 69.2198 29.9885H69.1998L67.7598 38.2386L76.2698 39.7185L77.6998 31.4686H77.6898C77.7098 31.3886 77.7298 31.3086 77.7498 31.2186H77.7598Z" fill="#605A5B"/>
<path d="M77.0095 31.0886C77.2895 29.4886 75.7795 27.8786 73.6395 27.5086C71.4995 27.1386 69.5295 28.1386 69.2495 29.7386C69.2395 29.8186 69.2295 29.8986 69.2195 29.9886H69.1995L67.7695 38.2386L75.5295 39.5886L76.9595 31.3386H76.9495C76.9695 31.2586 76.9895 31.1786 77.0095 31.0886Z" fill="#9E9599"/>
<path d="M68.8398 37.6493C69.2698 35.4893 69.2998 33.2293 70.0598 31.1593C70.3498 30.3693 70.7998 29.5593 71.5898 29.2593C72.2798 28.9893 73.0698 29.1793 73.7598 29.4593C74.4798 29.7493 75.1998 30.1793 75.5098 30.8893C75.7898 31.5293 75.6898 32.2593 75.5798 32.9393L74.6598 38.8693" fill="#878185"/>
<path d="M72.1298 32.2898C72.2398 32.0198 72.2198 31.6098 71.8898 31.5198C71.0998 31.2798 71.0398 33.2898 71.0298 33.6998C71.0298 33.9098 71.3398 33.9198 71.3498 33.7098C71.3498 33.4298 71.3898 33.1398 71.4398 32.8598C71.5998 33.1498 71.7398 33.4598 71.8298 33.7898C71.8798 33.9898 72.1898 33.9198 72.1398 33.7198C72.0398 33.3498 71.8798 32.9898 71.6898 32.6598C71.8798 32.6098 72.0498 32.4898 72.1298 32.2898ZM71.5398 32.3198C71.5398 32.3198 71.5498 32.2498 71.5598 32.2198C71.5898 32.1198 71.6298 32.0198 71.6798 31.9298C71.9998 32.0098 71.9398 32.1398 71.5398 32.3298V32.3198Z" fill="#444142"/>
<path d="M72.8696 31.8999C72.7596 32.5299 72.6596 33.1499 72.5796 33.7799C72.5496 33.9799 72.8696 33.9999 72.8996 33.7899C72.9796 33.1899 73.0696 32.5899 73.1796 31.9899C73.2196 31.7899 72.9096 31.6899 72.8696 31.8999Z" fill="#444142"/>
<path d="M74.4597 31.8005C73.9397 31.4005 73.6797 32.0805 73.5397 32.7905C73.4697 32.8405 73.4497 32.9405 73.4997 33.0205C73.4397 33.4305 73.4197 33.8105 73.4097 33.9405C73.4097 34.1505 73.7197 34.1605 73.7297 33.9505C73.7397 33.6805 73.7997 33.4105 73.8397 33.1305C74.0997 33.1405 74.3597 33.0405 74.5297 32.8105C74.7397 32.5305 74.7597 32.0305 74.4597 31.8005ZM74.3597 32.4105C74.3197 32.6605 74.0997 32.7905 73.8897 32.8005C73.8997 32.7405 73.8997 32.6705 73.9197 32.6005C73.9297 32.5305 73.9597 32.3905 73.9897 32.3305C74.0297 32.2305 74.0697 32.1105 74.2197 32.1405C74.3897 32.1705 74.3897 32.2905 74.3697 32.4105H74.3597Z" fill="#444142"/>
<path d="M52.0697 39.9589L50.9897 36.3689C51.9397 36.9589 52.3397 37.6689 52.8197 38.6789C52.9197 37.5389 53.3097 36.3689 53.7797 35.4189C53.8497 36.5489 53.8297 37.6789 53.7097 38.7989C54.4497 37.5289 55.3697 36.3789 56.4397 35.3789C55.9797 37.1489 55.5997 38.5489 54.8197 39.9489H52.0697V39.9589Z" fill="#155110"/>
<path d="M53.6698 39.9575H7.02979L9.07978 38.9375C9.07978 38.9375 14.0798 34.9675 15.2298 34.4575C15.3198 34.4175 15.4298 34.3775 15.5298 34.3375C16.7598 33.9375 18.8098 33.9375 18.8098 33.9375L21.1198 34.8375L25.2498 35.5675L25.4798 35.6075L29.9598 35.4775L33.6798 35.9875L37.6498 37.2675L42.5198 38.0375L48.9298 38.5475L53.6698 39.9575Z" fill="#AF7E52"/>
<path d="M76.8895 39.9566H56.4595L57.5895 39.3566L58.4595 38.4266L60.0395 37.9166L61.2695 37.1966L62.2395 36.9466L63.3595 37.0466L64.6395 37.2566L67.4995 37.0466L68.2595 36.1766L70.0995 35.9766L71.5295 36.3366L72.9595 37.4066L74.5895 38.8866L76.4295 39.5966L76.8895 39.9566Z" fill="#AF7E52"/>
<path d="M55.9796 39.137L55.4397 39.487L55.2296 39.367L54.6796 39.067L54.6396 38.417L55.2597 38.127L55.7896 37.877L55.9796 39.137Z" fill="#AF7E52"/>
<path d="M59.1099 35.1169L58.3799 36.0369L57.7199 36.1469L57.4599 36.1969L57.1099 35.0069L57.6499 34.3569L58.0199 34.1769L58.2999 34.0469L58.8799 34.3969L59.1099 35.1169Z" fill="#AF7E52"/>
<g style="mix-blend-mode:multiply" opacity="0.5">
<path d="M59.1097 35.1169L58.3797 36.0369L57.7197 36.1469L58.0497 35.5169L58.3597 34.7869L58.0197 34.1769L58.2997 34.0469L58.8797 34.3969L59.1097 35.1169Z" fill="#A67C52"/>
</g>
<path d="M79.8094 32.7674L78.9294 32.3274L78.7294 31.7974L78.6494 31.5974L79.5694 31.1074L80.1894 31.4374L80.3994 31.7074L80.5594 31.9174L80.3694 32.4474L79.8094 32.7674Z" fill="#AF7E52"/>
<g style="mix-blend-mode:multiply" opacity="0.5">
<path d="M79.8095 32.767L78.9295 32.327L78.7295 31.797L79.3095 31.957L79.9595 32.097L80.3995 31.707L80.5595 31.917L80.3695 32.447L79.8095 32.767Z" fill="#A67C52"/>
</g>
<g style="mix-blend-mode:multiply" opacity="0.5">
<path d="M55.9795 39.137L55.4395 39.487L55.2295 39.367L55.3895 38.937L55.2595 38.127L55.7895 37.877L55.9795 39.137Z" fill="#A67C52"/>
</g>
<path d="M66.4696 33.0383L65.7396 34.0683L65.5896 34.0483L65.1196 33.9583L65.1396 33.2483L65.8696 32.7383L65.8896 32.7583L66.4696 33.0383Z" fill="#AF7E52"/>
<g style="mix-blend-mode:multiply" opacity="0.5">
<path d="M66.4698 33.0378L65.7398 34.0678L65.5898 34.0478L65.8898 32.7578L66.4698 33.0378Z" fill="#A67C52"/>
</g>
<g style="mix-blend-mode:multiply" opacity="0.5">
<path d="M76.8898 39.9566H72.9298L71.7698 38.9566L71.1998 37.9966L69.9698 36.8866L68.2598 36.1766L70.0998 35.9766L71.5298 36.3366L72.9598 37.4066L74.5898 38.8866L76.4298 39.5966L76.8898 39.9566Z" fill="#BC9169"/>
</g>
<g style="mix-blend-mode:multiply" opacity="0.5">
<path d="M68.8196 39.9577H66.1396L64.9596 38.9977L63.8096 38.3477L65.7296 38.4577L67.6796 38.8377C67.6796 38.8377 68.2796 39.4377 68.8296 39.9577H68.8196Z" fill="#BC9169"/>
</g>
<g style="mix-blend-mode:multiply" opacity="0.5">
<path d="M29.8996 39.9575H25.7196L24.1396 39.1475L22.0896 38.3775L20.3596 36.9075C20.3596 36.9075 19.0796 36.1375 17.8596 35.3075C17.2696 34.9075 16.3296 34.5675 15.5396 34.3375C16.7696 33.9375 18.8196 33.9375 18.8196 33.9375L21.1296 34.8375L25.2596 35.5675C25.7095 36.3175 26.4396 37.4075 27.2796 38.2575C28.0696 39.0475 29.1296 39.6175 29.8996 39.9675V39.9575Z" fill="#BC9169"/>
</g>
<g style="mix-blend-mode:multiply" opacity="0.5">
<path d="M40.9298 39.9579H36.8098L35.3498 39.0579L33.7698 37.8179L31.0698 36.8379L34.3198 37.2679L37.5198 38.6379L40.9298 39.9579Z" fill="#BC9169"/>
</g>
<path d="M90.0001 13.6583C90.0001 13.7683 90.0001 13.8783 89.9601 13.9983C89.8801 14.2683 89.6501 14.4783 89.3501 14.4983C89.3401 14.4983 89.3201 14.4983 89.3101 14.4983C88.8601 14.4983 88.7101 14.0483 88.3801 13.8683C88.1601 13.7483 87.8901 13.7683 87.6601 13.8683C87.5001 13.9383 87.3601 14.0483 87.2501 14.1783C86.9901 14.5083 86.9101 14.9383 86.8401 15.3483C86.7701 15.7583 86.7001 16.1683 86.6201 16.5783C86.5201 17.1483 86.2301 17.8683 85.6401 17.8183C85.4601 17.7983 85.3101 17.7183 85.1901 17.5883C85.0001 17.3783 84.9001 17.0683 84.8501 16.7883C84.7701 16.2783 84.7401 15.6883 84.2301 15.4383C83.9101 15.2783 83.5201 15.3383 83.2301 15.5483C83.2001 15.5683 83.1701 15.5883 83.1401 15.6183C82.6201 16.0483 82.5201 16.7083 82.4301 17.3283C82.3601 17.8383 82.2901 18.3383 82.2101 18.8483C82.1801 19.0483 82.1501 19.2583 82.1001 19.4583C81.9801 19.9883 81.7701 20.4883 81.2701 20.7683C81.0601 20.8883 80.8001 20.9383 80.5601 20.8583C80.5301 20.8483 80.5001 20.8383 80.4701 20.8183C80.0101 20.5983 79.9401 19.9883 79.9301 19.4883C79.9101 18.9483 79.7901 18.2783 79.2101 18.1683C79.0501 18.1383 78.8801 18.1683 78.7401 18.2283C78.6401 18.2683 78.5601 18.3283 78.4801 18.4083C78.0701 18.8283 78.0501 19.3883 78.0001 19.9183C77.9201 20.8583 77.7101 21.7783 77.3801 22.6683C77.3001 22.8783 77.1901 23.0883 77.0501 23.2583C76.5901 23.8283 76.1701 23.7083 75.8001 23.2183C75.3701 22.6583 75.0101 21.6183 74.7101 20.5783C74.6701 20.4283 74.5701 20.3183 74.4501 20.2483C74.1501 20.0783 73.7101 20.1883 73.5901 20.5783C73.0401 22.5083 72.2501 24.4683 71.2501 23.2483C71.1701 23.1483 71.1101 23.0483 71.0501 22.9383C71.0001 22.8483 70.9601 22.7483 70.9201 22.6483C70.5901 21.7583 70.3901 20.8383 70.3001 19.8983C70.2601 19.4883 70.2401 19.0583 70.0401 18.6883C69.9201 18.4783 69.7201 18.2883 69.4901 18.1983C69.1901 18.0783 68.8401 18.1283 68.5901 18.4883C68.4501 18.6883 68.3801 18.9283 68.3701 19.1683C68.3601 19.7083 68.3801 20.5783 67.7801 20.8183C67.5801 20.8983 67.3701 20.8883 67.1701 20.8183C67.1201 20.7983 67.0701 20.7783 67.0201 20.7483C66.3401 20.3583 66.2001 19.5583 66.0901 18.8283C66.0201 18.3183 65.9401 17.8183 65.8701 17.3083C65.7701 16.6483 65.6601 15.9583 65.0701 15.5283C65.0001 15.4783 64.9301 15.4383 64.8601 15.4083C64.6101 15.2983 64.3201 15.2983 64.0701 15.4183C63.5601 15.6683 63.5301 16.2583 63.4501 16.7683C63.3801 17.2283 63.1401 17.7583 62.6701 17.7983C62.5001 17.8183 62.3501 17.7583 62.2201 17.6683C61.9201 17.4383 61.7501 16.9583 61.6801 16.5583C61.6101 16.1483 61.5401 15.7383 61.4601 15.3283C61.3901 14.9183 61.3101 14.4883 61.0501 14.1583C60.9601 14.0483 60.8501 13.9483 60.7201 13.8783C60.4701 13.7383 60.1701 13.6983 59.9201 13.8383C59.5701 14.0283 59.4301 14.4983 58.9501 14.4683C58.7101 14.4483 58.5101 14.3083 58.4001 14.1083C58.3801 14.0683 58.3601 14.0183 58.3401 13.9683C58.1701 13.3783 58.5301 12.8883 58.8301 12.4183C59.8001 10.9283 60.3601 9.18828 60.4601 7.42828C60.5101 6.56828 60.4501 5.67828 60.6801 4.83828C60.8501 4.23828 61.2201 3.64828 61.7401 3.30828C61.9401 3.17828 62.1701 3.08828 62.4101 3.03828C63.5901 2.82828 64.6001 3.83828 65.3001 4.78828C66.0001 5.73828 66.8201 6.81828 68.0201 6.88828C68.0201 6.88828 68.0201 6.88828 68.0301 6.88828C68.4701 6.90828 68.8701 6.69828 69.1101 6.37828C69.2301 6.20828 69.3201 6.00828 69.3401 5.78828C69.6301 3.10828 71.4301 1.00828 73.6701 0.758281C73.8101 0.738281 73.9601 0.738281 74.1101 0.738281C76.5501 0.738281 78.5701 2.93828 78.8801 5.78828C78.9501 6.42828 79.5301 6.91828 80.1901 6.88828C80.1901 6.88828 80.1901 6.88828 80.2001 6.88828C81.4001 6.81828 82.2201 5.72828 82.9201 4.78828C83.6201 3.83828 84.6301 2.83828 85.8101 3.03828C86.6901 3.18828 87.3101 3.99828 87.5501 4.83828C87.7801 5.67828 87.7201 6.55828 87.7701 7.42828C87.8501 8.90828 88.2701 10.3683 88.9701 11.6783C89.1001 11.9283 89.2501 12.1783 89.4001 12.4183C89.6401 12.7983 89.9201 13.1883 89.9301 13.6283L90.0001 13.6583Z" fill="#FEF4EA"/>
<path d="M73.5802 6.09797C73.5802 7.02797 73.1702 7.77797 72.6602 7.77797C72.1502 7.77797 71.7402 7.02797 71.7402 6.09797C71.7402 5.16797 72.1502 4.41797 72.6602 4.41797C73.1702 4.41797 73.5802 5.16797 73.5802 6.09797Z" fill="#190623"/>
<path d="M76.59 6.09797C76.59 7.02797 76.18 7.77797 75.67 7.77797C75.16 7.77797 74.75 7.02797 74.75 6.09797C74.75 5.16797 75.16 4.41797 75.67 4.41797C76.18 4.41797 76.59 5.16797 76.59 6.09797Z" fill="#190623"/>
<path d="M74.84 9.9382C74.84 10.6382 74.54 11.2182 74.17 11.2182C73.8 11.2182 73.5 10.6482 73.5 9.9382C73.5 9.2282 73.8 8.6582 74.17 8.6582C74.54 8.6582 74.84 9.2282 74.84 9.9382Z" fill="#190623"/>
<path d="M29.35 15.448V26.508L29.19 31.378C29.19 31.608 29.13 31.828 29.02 32.028C28.5 33.008 27.4 33.648 26.17 33.498C24.73 33.328 23.69 32.068 23.69 30.638V20.188C23.69 19.588 23.28 19.028 22.67 18.908C21.86 18.748 21.15 19.358 21.15 20.128V30.638C21.15 32.048 20.12 33.308 18.69 33.488C16.97 33.708 15.5 32.388 15.5 30.728V15.428C15.5 14.498 16.27 13.748 17.21 13.748H27.63C28.58 13.748 29.35 14.508 29.35 15.438V15.448Z" fill="#190623"/>
<path d="M43.3398 29.3778L42.8898 15.3878C42.8598 14.4778 42.1098 13.7578 41.1798 13.7578H32.2298C31.2998 13.7578 30.5398 14.4778 30.5098 15.3878L30.1598 26.5278L29.9898 31.8078V32.2278C29.9698 32.5678 30.0998 32.8878 30.3398 33.1378C30.5798 33.3878 30.8998 33.5178 31.2498 33.5178H33.7998C34.1398 33.5178 34.4598 33.3878 34.6998 33.1578C34.9398 32.9178 35.0698 32.6078 35.0698 32.2678V31.9078H38.3498V32.2678C38.3498 32.9578 38.9198 33.5178 39.6198 33.5178H42.1698C42.5198 33.5178 42.8398 33.3878 43.0798 33.1378C43.2698 32.9478 43.3898 32.6978 43.4198 32.4378C43.4898 32.4378 43.3398 29.3778 43.3398 29.3778ZM37.7898 28.8778C37.4998 29.1678 37.1098 29.3278 36.7098 29.3278C36.3098 29.3278 35.9098 29.1678 35.6198 28.8778C35.3398 28.5878 35.1898 28.1978 35.1998 27.7978L35.5298 20.0178C35.5498 19.3878 36.0698 18.9078 36.7098 18.9078C37.3498 18.9078 37.8598 19.3978 37.8898 20.0178L38.2198 27.7978C38.2298 28.2078 38.0798 28.5878 37.7998 28.8778H37.7898Z" fill="#190623"/>
<path d="M68.6498 13.758H59.7798C58.8798 13.758 58.1298 14.438 58.0698 15.288V15.438V30.738V31.058C58.0698 32.418 59.1798 33.518 60.5598 33.518C61.9398 33.518 63.0598 32.418 63.0598 31.058V29.608H68.6498C69.5698 29.608 70.3198 28.908 70.3598 28.028V15.388C70.3398 14.468 69.5798 13.748 68.6498 13.748V13.758ZM65.4298 25.728C65.4298 26.368 64.8998 26.898 64.2498 26.898C63.5998 26.898 63.0598 26.368 63.0598 25.728V20.068C63.0598 19.428 63.5898 18.898 64.2498 18.898C64.9098 18.898 65.4298 19.418 65.4298 20.068V25.728Z" fill="#190623"/>
<path d="M15.9901 39.9588C18.2545 39.9588 20.0901 37.6844 20.0901 34.8788C20.0901 32.0732 18.2545 29.7988 15.9901 29.7988C13.7258 29.7988 11.8901 32.0732 11.8901 34.8788C11.8901 37.6844 13.7258 39.9588 15.9901 39.9588Z" fill="#CB5124"/>
<path d="M17.06 40.5174C19.3243 40.5174 21.16 38.243 21.16 35.4374C21.16 32.6318 19.3243 30.3574 17.06 30.3574C14.7956 30.3574 12.96 32.6318 12.96 35.4374C12.96 38.243 14.7956 40.5174 17.06 40.5174Z" fill="#D75527"/>
<path d="M16.9401 40.098L17.5001 39.498C17.5001 39.498 17.4901 39.508 17.4701 39.528C17.3801 39.608 17.1101 39.848 16.7401 40.058C16.6701 40.098 16.6101 40.128 16.5201 40.178C16.3801 40.248 16.0601 40.358 16.0601 40.358C16.0601 40.358 17.0901 40.788 18.4501 40.218C18.4501 40.218 16.9901 40.148 16.9501 40.088L16.9401 40.098Z" fill="#C83E27"/>
<path d="M17.06 30.3477C15.85 30.3477 14.77 30.9877 14.02 32.0177C14.05 33.1877 14.09 34.5577 14.12 34.9977C14.16 35.7977 18.98 35.4277 18.98 35.4277C17.53 41.8677 20.38 38.3977 20.42 38.3477C20.89 37.5177 21.16 36.5177 21.16 35.4277C21.16 32.6277 19.32 30.3477 17.06 30.3477Z" fill="#D86926"/>
<path d="M18.4199 34.3581C18.4199 34.3581 18.7999 37.3481 19.4299 38.0281C19.4299 38.0281 19.4399 38.0381 19.4499 38.0481C19.4499 38.0481 19.4499 38.0481 19.4599 38.0581C19.4599 38.0581 19.4599 38.0581 19.4699 38.0681C19.4699 38.0681 19.4699 38.0681 19.4799 38.0681C19.4799 38.0681 19.4899 38.0681 19.4999 38.0781C19.9599 38.3981 20.7399 37.6081 20.7399 37.6081C20.7399 37.6081 20.7399 37.5881 20.7699 37.5581C21.0199 36.9081 21.1499 36.1781 21.1499 35.4081C21.1499 32.6081 19.3099 30.3281 17.0499 30.3281C15.8099 30.3281 14.6999 31.0081 13.9399 32.0881C15.2399 33.0781 17.5799 34.7981 17.5799 34.7981L18.4099 34.3281L18.4199 34.3581Z" fill="#D97326"/>
<path d="M17.0603 30.3479C16.5603 30.3479 16.0803 30.4579 15.6403 30.6579C15.5603 30.7679 15.5103 30.8579 15.5103 30.9079C15.5103 31.0479 16.2703 30.8479 17.1103 30.9079C17.5903 30.9779 18.9103 31.3979 20.2803 33.9679C20.2803 33.9679 20.5403 34.7279 20.7103 35.0179C20.7303 35.0479 20.7503 35.0779 20.7603 35.0979L20.7803 35.1179C20.9703 35.2679 21.1103 34.7479 21.1203 34.7279C20.8503 32.2479 19.1303 30.3379 17.0503 30.3379L17.0603 30.3479Z" fill="#E88828"/>
<path d="M9.89004 39.8787C12.1544 39.8787 13.99 37.6044 13.99 34.7987C13.99 31.9931 12.1544 29.7188 9.89004 29.7188C7.62567 29.7188 5.79004 31.9931 5.79004 34.7987C5.79004 37.6044 7.62567 39.8787 9.89004 39.8787Z" fill="#C7571F"/>
<path d="M12.9599 39.4686C15.2242 39.4686 17.0599 37.1942 17.0599 34.3886C17.0599 31.583 15.2242 29.3086 12.9599 29.3086C10.6955 29.3086 8.85986 31.583 8.85986 34.3886C8.85986 37.1942 10.6955 39.4686 12.9599 39.4686Z" fill="#D57121"/>
<path d="M12.48 27.6784C12.41 27.4384 12.64 27.2084 12.88 27.2784L13.92 27.5584L14.96 27.8384C15.2 27.9084 15.29 28.2084 15.11 28.3884L14.36 29.1384C14.36 29.1384 14.35 29.1484 14.34 29.1584L13.55 30.0984C13.37 30.3084 13.02 30.2184 12.97 29.9384L12.76 28.7384C12.76 28.7384 12.76 28.7184 12.76 28.7084L12.48 27.6884V27.6784Z" fill="#155110"/>
<path d="M8.4501 40.5174C10.7145 40.5174 12.5501 38.243 12.5501 35.4374C12.5501 32.6318 10.7145 30.3574 8.4501 30.3574C6.18573 30.3574 4.3501 32.6318 4.3501 35.4374C4.3501 38.243 6.18573 40.5174 8.4501 40.5174Z" fill="#F16A27"/>
<path d="M15.0302 40.5174C17.2945 40.5174 19.1302 38.243 19.1302 35.4374C19.1302 32.6318 17.2945 30.3574 15.0302 30.3574C12.7658 30.3574 10.9302 32.6318 10.9302 35.4374C10.9302 38.243 12.7658 40.5174 15.0302 40.5174Z" fill="#F16A27"/>
<path d="M7.72 38.9381C7.72 38.9381 8.13 39.5081 8.72 39.8881C8.72 39.8881 9.17 40.1881 9.57 40.3181C9.57 40.3181 9.2 40.4381 9.04 40.4581C8.88 40.4781 8.18 40.6181 7.32 40.3181C7.32 40.3181 6.7 40.0981 6.25 39.7281C6.25 39.7281 7.22 40.0281 7.28 39.9981C7.35 39.9681 7.64 38.9081 7.72 38.9381Z" fill="#C84727"/>
<path d="M16.2299 38.7988C16.2299 38.7988 15.6899 39.8388 14.6499 40.4988C14.6499 40.4988 16.2299 40.8088 17.6499 39.3588C17.6499 39.3588 16.4799 39.5588 16.2699 39.6188L16.2299 38.8088V38.7988Z" fill="#C84727"/>
<path d="M8.4501 30.3574C6.1801 30.3574 4.3501 32.6274 4.3501 35.4374C4.3501 36.7774 4.7701 37.9874 5.4501 38.8974C5.7901 39.0774 6.1101 39.2174 6.2601 39.2074C6.5801 39.1774 7.2301 39.4974 6.9001 38.1374C6.8801 37.3874 7.4501 36.1374 7.5101 35.9474C7.5701 35.7474 8.3801 35.8074 8.2701 35.1774C8.2001 34.7774 7.4401 34.7274 6.8801 34.7474C7.6001 33.3174 9.0001 32.2174 9.0801 32.2174C9.1701 32.2174 9.7101 31.2874 10.0101 30.7474C9.5301 30.5074 9.0001 30.3674 8.4501 30.3674V30.3574Z" fill="#F26F27"/>
<path d="M10.6801 40.5174C12.9444 40.5174 14.7801 38.243 14.7801 35.4374C14.7801 32.6318 12.9444 30.3574 10.6801 30.3574C8.41571 30.3574 6.58008 32.6318 6.58008 35.4374C6.58008 38.243 8.41571 40.5174 10.6801 40.5174Z" fill="#F48026"/>
<path d="M8.22986 39.1477C8.22986 38.8177 8.33986 38.7577 8.43986 38.8477C8.52986 38.9377 8.94986 39.7277 9.01986 38.8877C9.02986 38.7377 8.85986 37.9977 9.27986 38.3677L9.70986 38.7377C9.70986 38.7377 10.3599 38.2877 10.3799 38.2777C10.4099 38.2777 10.8899 37.2977 10.8899 37.2077C10.8899 37.1177 11.0999 35.8977 11.0999 35.8977L12.6399 30.9477C12.0599 30.5677 11.4099 30.3477 10.7099 30.3477C8.43986 30.3477 6.60986 32.6177 6.60986 35.4277C6.60986 36.7777 7.02986 37.9977 7.72986 38.9077C7.75986 38.9377 8.24986 39.4677 8.24986 39.1477H8.22986Z" fill="#F68F26"/>
<path d="M9.61996 38.6875C9.61996 38.6875 9.69996 39.5575 9.56996 39.7875C9.45996 39.9775 8.78996 39.8375 8.55996 39.7575C8.50996 39.7375 8.46996 39.7175 8.46996 39.7175C8.46996 39.7175 8.46996 39.7175 8.47996 39.7175H8.45996C8.45996 39.7175 9.15996 40.3075 10.09 40.4575C10.19 40.4775 10.28 40.4875 10.38 40.4975C10.88 40.5475 11.21 40.4675 11.21 40.4675C10.24 39.8875 9.61996 38.6875 9.61996 38.6875Z" fill="#CD5629"/>
<path d="M11.2302 30.398C11.2302 30.398 9.20015 29.848 7.54015 32.188C7.54015 32.188 6.42015 33.728 6.60015 35.768C6.78015 37.808 7.25015 35.398 7.31015 35.188C7.37015 34.978 7.94015 32.838 9.17015 31.728C10.4002 30.618 10.9102 30.618 10.9102 30.618L11.2302 30.398Z" fill="#EBA021"/>
<path d="M15.0302 30.3477C12.7602 30.3477 10.9302 32.6177 10.9302 35.4277C10.9302 36.9077 11.4402 38.2377 12.2602 39.1677C13.1602 38.8477 15.8902 38.0377 15.9602 37.7877C16.0402 37.4977 16.7802 37.7077 16.7602 38.0577C16.7402 38.4077 16.7402 38.5277 16.9502 38.5077C17.1602 38.4877 17.5102 37.8677 17.4402 38.4677C17.4102 38.7677 17.5502 39.0177 17.8202 39.1577C18.6302 38.2277 19.1302 36.9077 19.1302 35.4377C19.1302 32.6377 17.2902 30.3577 15.0302 30.3577V30.3477Z" fill="#F37927"/>
<path d="M17.06 35.4387C17.06 32.3687 15.22 29.8887 12.96 29.8887V40.9987C15.23 40.9987 17.06 38.5087 17.06 35.4487V35.4387Z" fill="#F48026"/>
<path d="M8.85986 35.4389C8.85986 38.5089 10.6999 40.9889 12.9599 40.9889V29.8789C10.6899 29.8789 8.85986 32.3689 8.85986 35.4289V35.4389Z" fill="#F69226"/>
<path d="M12.9599 29.8574C10.6899 29.8574 8.85986 32.3474 8.85986 35.4074C8.85986 35.8774 8.89986 36.3374 8.97986 36.7674C9.09986 37.3474 9.32986 38.1374 9.79986 38.9574C9.79986 38.9474 10.1599 36.1574 11.6099 37.9674C13.0599 39.7874 12.2899 36.1774 12.8099 36.0874C12.8599 36.0874 12.8999 36.0874 12.9499 36.0874V29.8574H12.9599Z" fill="#F89C25"/>
<path d="M9.82992 38.3784L9.16992 37.5684C9.16992 37.5684 9.72992 39.6984 11.4199 40.5884C11.8599 40.8284 12.3699 40.9884 12.9699 40.9984C12.9699 40.9984 14.6799 41.1284 15.9999 39.1884C15.9999 39.1884 13.2499 42.2284 9.82992 38.3884V38.3784Z" fill="#D25E2A"/>
<path d="M15.0302 30.3479C14.9102 30.3479 14.7802 30.3479 14.6602 30.3679C14.6702 30.3679 15.2302 30.7079 15.8402 31.4579C15.8402 31.4579 17.5102 32.6779 18.0502 34.5879C18.5902 36.5079 18.5602 37.6279 18.5402 37.8579C18.5402 37.9079 18.5502 37.9479 18.5802 37.9879C18.9402 37.2379 19.1402 36.3579 19.1402 35.4179C19.1402 32.6179 17.3002 30.3379 15.0402 30.3379L15.0302 30.3479Z" fill="#F69126"/>
<path d="M14.3602 37.5391C14.6402 38.3391 14.8502 38.6791 15.2302 38.5291C15.6002 38.3791 16.5702 36.9191 16.8602 37.1591C16.9902 36.6091 17.0702 36.0291 17.0702 35.4191C17.0702 32.3491 15.2302 29.8691 12.9702 29.8691V36.0991C13.4802 36.1391 14.1202 36.8191 14.3702 37.5491L14.3602 37.5391Z" fill="#F58A26"/>
<path d="M20.1902 32.8078C20.1902 32.8078 20.2302 32.7978 20.2602 32.7878C20.2302 32.7878 20.1902 32.7678 20.1602 32.7578C20.1802 32.7878 20.2002 32.7978 20.2002 32.7978L20.1902 32.8078Z" fill="#F16A27"/>
<path d="M11.4399 33.089L10.7499 32.159C10.5899 31.939 10.2499 32.089 10.2799 32.349L10.4099 33.249C10.4299 33.369 10.3599 33.479 10.2499 33.529L9.30994 33.909C9.05994 34.009 9.10994 34.369 9.36994 34.409L10.5599 34.559L12.1199 34.759C12.3499 34.789 12.4999 34.529 12.3599 34.349L11.4199 33.089H11.4399Z" fill="#4A1F34"/>
<path d="M14.4498 33.0885L15.1198 32.1485C15.2798 31.9285 15.6198 32.0585 15.5898 32.3285L15.4798 33.2385C15.4698 33.3585 15.5298 33.4685 15.6398 33.5085L16.5798 33.8685C16.8298 33.9685 16.7898 34.3285 16.5298 34.3685L15.3498 34.5485L13.7898 34.7785C13.5598 34.8085 13.4098 34.5585 13.5398 34.3685L14.4498 33.0885Z" fill="#4A1F34"/>
<path d="M12.86 38.6084L12.32 38.0084C12.16 37.8284 11.86 37.8484 11.73 38.0584L11.4 38.5784C11.28 38.7684 11.01 38.8084 10.84 38.6584L9.02997 37.0284C8.83997 36.8584 8.80997 36.5384 8.94997 36.3284C9.08997 36.1184 9.36998 36.0684 9.55998 36.2384L10.66 37.2384C10.83 37.3884 11.1 37.3584 11.22 37.1584L11.6 36.5484C11.73 36.3384 12.02 36.3184 12.19 36.4984L12.74 37.1084C12.9 37.2884 13.19 37.2684 13.33 37.0584L13.84 36.2684C13.99 36.0384 14.33 36.0484 14.47 36.2784L14.8 36.8284C14.92 37.0284 15.19 37.0684 15.36 36.9184L16.34 36.0684C16.53 35.8984 16.8 35.9484 16.95 36.1684C17.09 36.3884 17.05 36.7084 16.86 36.8684L15.16 38.3484C14.99 38.4984 14.72 38.4584 14.6 38.2584L14.44 37.9884C14.3 37.7584 13.96 37.7484 13.81 37.9784L13.43 38.5584C13.3 38.7584 13.01 38.7884 12.84 38.6084H12.86Z" fill="#190623"/>
<path d="M11.4399 33.089L10.7499 32.159C10.5899 31.939 10.2499 32.089 10.2799 32.349L10.4099 33.249C10.4299 33.369 10.3599 33.479 10.2499 33.529L9.30994 33.909C9.05994 34.009 9.10994 34.369 9.36994 34.409L10.5599 34.559L12.1199 34.759C12.3499 34.789 12.4999 34.529 12.3599 34.349L11.4199 33.089H11.4399Z" fill="#190623"/>
<path d="M14.4503 33.0885L15.1203 32.1485C15.2803 31.9285 15.6203 32.0585 15.5903 32.3285L15.4803 33.2385C15.4703 33.3585 15.5303 33.4685 15.6403 33.5085L16.5803 33.8685C16.8303 33.9685 16.7903 34.3285 16.5303 34.3685L15.3503 34.5485L13.7903 34.7785C13.5603 34.8085 13.4103 34.5585 13.5403 34.3685L14.4503 33.0885Z" fill="#190623"/>
<path d="M12.26 34.1777C12.26 34.1777 12.19 34.1977 12.15 34.1877L10.59 33.9877L9.48996 33.8477L9.32996 33.9077C9.07996 34.0077 9.12996 34.3677 9.38996 34.4077L10.58 34.5577L12.14 34.7577C12.37 34.7877 12.52 34.5277 12.38 34.3477L12.25 34.1777H12.26Z" fill="#6C2A4E"/>
<path d="M16.5903 33.8686L16.4303 33.8086L15.3503 33.9686L13.7903 34.1986C13.7903 34.1986 13.7003 34.1986 13.6703 34.1886L13.5403 34.3686C13.4103 34.5586 13.5603 34.8086 13.7903 34.7786L15.3503 34.5486L16.5303 34.3686C16.7903 34.3286 16.8303 33.9686 16.5803 33.8686H16.5903Z" fill="#6C2A4E"/>
<path d="M16.8801 36.3075L15.1801 37.7875C15.0101 37.9375 14.7401 37.8975 14.6201 37.6975L14.4601 37.4275C14.3201 37.1975 13.9801 37.1875 13.8301 37.4175L13.4501 37.9975C13.3201 38.1975 13.0301 38.2275 12.8601 38.0475L12.3201 37.4475C12.1601 37.2675 11.8601 37.2875 11.7301 37.4975L11.4001 38.0175C11.2801 38.2075 11.0101 38.2475 10.8401 38.0975L9.0301 36.4675C9.0301 36.4675 8.9701 36.3975 8.9401 36.3575C8.8101 36.5775 8.8501 36.8775 9.0301 37.0375L10.8401 38.6675C11.0101 38.8175 11.2801 38.7875 11.4001 38.5875L11.7301 38.0675C11.8601 37.8575 12.1501 37.8375 12.3201 38.0175L12.8601 38.6175C13.0201 38.7975 13.3101 38.7775 13.4501 38.5675L13.8301 37.9875C13.9801 37.7575 14.3201 37.7675 14.4601 37.9975L14.6201 38.2675C14.7401 38.4675 15.0101 38.5075 15.1801 38.3575L16.8801 36.8775C17.0701 36.7175 17.1101 36.4075 16.9801 36.1875C16.9501 36.2275 16.9201 36.2675 16.8801 36.2975V36.3075Z" fill="#6C2A4E"/>
<path d="M10.3399 22.4087C10.3399 22.4087 10.3999 22.4087 10.4199 22.3787L11.9199 20.8787C11.9199 20.8787 11.9499 20.8087 11.9199 20.7787C11.8899 20.7487 11.8499 20.7487 11.8199 20.7787L10.3099 22.1987L8.98985 22.0287L10.1699 21.6488C10.1699 21.6488 10.2299 21.6088 10.2399 21.5688L10.6399 19.9187C10.6399 19.9187 10.6399 19.8587 10.6199 19.8287L9.51985 18.2587C9.51985 18.2587 9.44985 18.2187 9.41985 18.2387C9.38985 18.2587 9.37985 18.3087 9.39985 18.3387L10.4199 19.9087L10.0499 21.4487L8.91985 21.7487C8.91985 21.7487 8.87985 21.6788 8.85985 21.6488C9.16985 21.4388 9.38985 20.9888 9.37985 20.5688C9.37985 20.5588 9.37985 20.5387 9.37985 20.5287C9.37985 20.5187 9.37985 20.4987 9.37985 20.4887C9.37985 20.0487 9.06985 19.7787 8.67985 19.7087L8.45985 7.96875H8.20985L8.42985 19.6987C8.38985 19.6987 8.34985 19.6987 8.29985 19.6987H8.27985C7.84985 19.7687 7.51985 20.0587 7.52985 20.5287C7.52985 20.5387 7.52985 20.5588 7.52985 20.5688C7.52985 20.5788 7.52985 20.5987 7.52985 20.6087C7.52985 21.0287 7.76985 21.4687 8.08985 21.6687C8.06985 21.6987 8.04985 21.7287 8.02985 21.7687L6.88985 21.5187L6.45985 19.9987L7.40985 18.3888C7.40985 18.3888 7.40985 18.3088 7.38985 18.2887C7.35985 18.2687 7.30985 18.2788 7.28985 18.3088L6.24985 19.9287C6.24985 19.9287 6.22985 19.9787 6.23985 20.0087L6.69985 21.6388C6.70985 21.6687 6.73985 21.6987 6.76985 21.7087L7.95985 22.0387C7.95985 22.0387 7.94985 22.0387 7.93985 22.0387L6.62985 22.2687L5.05985 20.9187C5.05985 20.9187 4.98985 20.8987 4.95985 20.9187C4.92985 20.9487 4.93985 20.9887 4.95985 21.0187L6.52985 22.4587C6.52985 22.4587 6.57985 22.4887 6.60985 22.4887L7.84985 22.3387L6.94985 22.7387C6.94985 22.7387 6.92985 22.7487 6.91985 22.7687L6.14985 23.5787C6.14985 23.5787 6.11985 23.6287 6.11985 23.6587L6.24985 24.7487C6.24985 24.7487 6.28985 24.8188 6.32985 24.8088C6.36985 24.8088 6.39985 24.7688 6.39985 24.7288L6.33985 23.6787L7.05985 22.9287L7.99985 22.5787L7.19985 23.5987C7.19985 23.5987 7.16985 23.6687 7.17985 23.6987L7.66985 25.2288C7.66985 25.2288 7.71985 25.2887 7.75985 25.2787C7.79985 25.2687 7.81985 25.2288 7.80985 25.1887L7.40985 23.6887L8.26985 22.6987C8.26985 22.6987 8.26985 22.6987 8.26985 22.6887C8.32985 22.7287 8.39985 22.7387 8.46985 22.7387C8.53985 22.7387 8.60985 22.7187 8.66985 22.6787C8.66985 22.6787 8.66985 22.6887 8.67985 22.6987L9.57985 23.6488L9.23985 25.1587C9.23985 25.1587 9.24985 25.2287 9.28985 25.2387C9.32985 25.2487 9.36985 25.2288 9.37985 25.1887L9.79985 23.6388C9.79985 23.6388 9.79985 23.5688 9.77985 23.5487L8.93985 22.5588L9.89985 22.8687L10.6499 23.5887V24.6388C10.6499 24.6388 10.6699 24.7087 10.6999 24.7087C10.7399 24.7087 10.7699 24.6788 10.7799 24.6388L10.8599 23.5387C10.8599 23.5387 10.8599 23.4788 10.8299 23.4587L10.0199 22.6887C10.0199 22.6887 9.99985 22.6687 9.98985 22.6687L9.06985 22.3088L10.3199 22.4087H10.3399Z" fill="#190623"/>
<path d="M51.9197 21.4278V20.1578C51.9197 19.4678 51.3497 18.9078 50.6497 18.9078C49.9497 18.9078 49.3797 19.4678 49.3797 20.1578V29.7278C49.3797 30.4178 49.9497 30.9778 50.6497 30.9778C51.3497 30.9778 51.9197 30.4178 51.9197 29.7278V28.8978C51.9197 27.4978 53.0797 26.3578 54.5097 26.3578C55.1997 26.3578 55.8496 26.6278 56.3396 27.1078C56.8096 27.5678 57.0797 28.1878 57.0997 28.8378V31.8378C57.0797 32.7978 56.3396 33.5278 55.3896 33.5278H45.8596C45.0996 33.5278 44.4596 33.0478 44.2296 32.3778C44.1696 32.2078 44.1396 32.0278 44.1396 31.8478V15.4478C44.1396 14.5178 44.9096 13.7578 45.8596 13.7578H55.3896C56.3296 13.7578 57.0796 14.4778 57.1096 15.3978V21.5078C57.0696 22.8678 55.9096 23.9778 54.5196 23.9778C53.0896 23.9778 51.9296 22.8278 51.9296 21.4278H51.9197Z" fill="#190623"/>
<path d="M75.4197 39.9591L74.4497 36.7491C75.2997 37.2791 75.8497 37.9691 76.2797 38.8691C76.3697 37.8391 76.6897 36.8991 76.9497 35.8991C77.0197 36.9091 77.2297 37.9291 77.1297 38.9391C77.7897 37.7991 78.3697 36.7591 79.3297 35.8691C78.7597 37.1991 78.3097 38.5791 77.8797 39.9691H75.4197V39.9591Z" fill="#155110"/>
</svg>
