<svg width="10" height="14" viewBox="0 0 10 14" fill="none" xmlns="http://www.w3.org/2000/svg">
<path fill-rule="evenodd" clip-rule="evenodd" d="M4.22577 0C3.67348 0 3.22577 0.447716 3.22577 1V2.88889C3.22577 3.44117 3.67349 3.88889 4.22577 3.88889H6.11466C6.66694 3.88889 7.11466 3.44117 7.11466 2.88889V1C7.11466 0.447715 6.66694 0 6.11466 0H4.22577ZM2.08085 5.44482H6.07159C6.62388 5.44482 7.07159 5.89254 7.07159 6.44482V11.0991C7.07159 11.6514 7.51931 12.0991 8.07159 12.0991H8.49752C9.02253 12.0991 9.44813 12.5248 9.44813 13.0498C9.44813 13.5748 9.02253 14.0004 8.49752 14.0004H1.8432C1.31818 14.0004 0.892578 13.5748 0.892578 13.0498C0.892578 12.5248 1.31818 12.0991 1.8432 12.0991H2.26912C2.82141 12.0991 3.26912 11.6514 3.26912 11.0991V7.82137C3.26912 7.29636 2.84352 6.87075 2.3185 6.87075H2.08085C1.68709 6.87075 1.36789 6.55155 1.36789 6.15779C1.36789 5.76403 1.68709 5.44482 2.08085 5.44482Z" fill="white"/>
</svg>
