<svg width="19" height="20" viewBox="0 0 19 20" fill="none" xmlns="http://www.w3.org/2000/svg">
<path d="M14.5699 3.18594H10.8699C10.6899 3.18594 10.5499 3.03594 10.5499 2.85594V0.905938C10.5499 0.725938 10.6999 0.585938 10.8699 0.585938H18.3599C18.7199 0.585938 18.9999 0.875937 18.9999 1.22594V8.71594C18.9999 8.89594 18.8499 9.03594 18.6799 9.03594H16.7299C16.6399 9.03594 16.5599 9.00594 16.4999 8.93594C16.4399 8.86594 16.3999 8.79594 16.3999 8.70594C16.3999 8.70594 16.3999 6.58594 16.3999 5.00594L11.4799 9.92594C11.2899 10.1159 10.9699 10.1159 10.7799 9.92594L9.63992 8.78594C9.44992 8.59594 9.44992 8.27594 9.63992 8.08594L14.5599 3.16594L14.5699 3.18594Z" fill="white"/>
<path d="M16.3799 11.9659V13.7959C16.3799 15.4559 15.0399 16.7959 13.3799 16.7959H5.78992C4.12992 16.7959 2.78992 15.4559 2.78992 13.7959V6.20594C2.78992 4.54594 4.12992 3.20594 5.78992 3.20594H7.63992C7.80992 3.20594 7.93992 3.06594 7.93992 2.90594V0.885938C7.93992 0.715938 7.79992 0.585938 7.63992 0.585938H5.16992C2.40992 0.585938 0.169922 2.82594 0.169922 5.58594V14.4159C0.169922 17.1759 2.40992 19.4159 5.16992 19.4159H13.9999C16.7599 19.4159 18.9999 17.1759 18.9999 14.4159V11.9659C18.9999 11.7959 18.8599 11.6559 18.6899 11.6559H16.6799C16.5099 11.6559 16.3699 11.7959 16.3699 11.9659H16.3799Z" fill="white"/>
</svg>
