<svg width="24" height="24" viewBox="0 0 24 24" fill="none" xmlns="http://www.w3.org/2000/svg">
<path d="M23.6409 14.9029C22.0381 21.3315 15.5262 25.2438 9.09605 23.6407C2.66863 22.038 -1.24415 15.5265 0.359423 9.09837C1.96159 2.66903 8.47348 -1.24361 14.9016 0.359081C21.3313 1.96177 25.2438 8.47404 23.6408 14.903L23.6409 14.9029H23.6409Z" fill="#F7931A"/>
<path d="M17.2923 10.2894C17.5312 8.69242 16.3153 7.834 14.6526 7.26136L15.192 5.09816L13.875 4.77005L13.3499 6.87629C13.0037 6.78995 12.6482 6.70859 12.2948 6.62794L12.8237 4.5078L11.5075 4.17969L10.9679 6.34218C10.6814 6.27695 10.4 6.21249 10.1269 6.14457L10.1285 6.13776L8.31237 5.6843L7.96204 7.09073C7.96204 7.09073 8.93911 7.31467 8.91852 7.32846C9.45181 7.46155 9.54825 7.81453 9.53223 8.09432L8.91781 10.5587C8.95453 10.568 9.00217 10.5815 9.05473 10.6026C9.01079 10.5917 8.96404 10.5798 8.91552 10.5682L8.05432 14.0205C7.98914 14.1825 7.82372 14.4256 7.45086 14.3333C7.46406 14.3524 6.49369 14.0944 6.49369 14.0944L5.83984 15.6017L7.55364 16.0289C7.87246 16.1089 8.1849 16.1925 8.49258 16.2712L7.94761 18.4592L9.26304 18.7873L9.80272 16.6225C10.1621 16.72 10.5108 16.81 10.8522 16.8948L10.3144 19.0494L11.6314 19.3775L12.1763 17.1936C14.422 17.6186 16.1105 17.4472 16.8213 15.4163C17.394 13.7811 16.7928 12.8379 15.6113 12.2229C16.4718 12.0244 17.12 11.4585 17.2928 10.2895L17.2924 10.2892L17.2923 10.2894ZM14.2834 14.5082C13.8764 16.1433 11.123 15.2594 10.2302 15.0378L10.9534 12.139C11.8461 12.3619 14.7088 12.8028 14.2835 14.5082H14.2834ZM14.6907 10.2657C14.3194 11.753 12.0277 10.9974 11.2843 10.8121L11.9399 8.18312C12.6834 8.36841 15.0774 8.71424 14.6908 10.2657H14.6907Z" fill="white"/>
</svg>
