<svg width="24" height="24" viewBox="0 0 24 24" fill="none" xmlns="http://www.w3.org/2000/svg">
<rect width="24" height="24" rx="12" fill="white"/>
<g clip-path="url(#clip0_1832_12679)">
<path d="M11.9983 3L11.8765 3.41007V15.3094L11.9983 15.4298L17.5767 12.1649L11.9983 3Z" fill="#343434"/>
<path d="M11.9983 3L6.41992 12.1649L11.9983 15.4299V9.6543V3Z" fill="#8C8C8C"/>
<path d="M11.9983 16.4762L11.9297 16.5591V20.7979L11.9983 20.9965L17.58 13.2129L11.9983 16.4762Z" fill="#3C3C3B"/>
<path d="M11.9983 20.9965V16.4762L6.41992 13.2129L11.9983 20.9965Z" fill="#8C8C8C"/>
<path d="M11.998 15.4298L17.5763 12.1649L11.998 9.6543V15.4298Z" fill="#141414"/>
<path d="M6.41992 12.1649L11.9982 15.4298V9.6543L6.41992 12.1649Z" fill="#393939"/>
</g>
<defs>
<clipPath id="clip0_1832_12679">
<rect width="11.16" height="18" fill="white" transform="translate(6.41992 3)"/>
</clipPath>
</defs>
</svg>
