<svg width="24" height="24" viewBox="0 0 24 24" fill="none" xmlns="http://www.w3.org/2000/svg">
<rect width="24" height="24" rx="12" fill="white"/>
<path d="M10.5849 5.20703C8.97109 5.20703 7.42337 5.84812 6.28223 6.98926C5.14109 8.1304 4.5 9.67812 4.5 11.2919V18.7919H13.4151C15.0289 18.7919 16.5766 18.1509 17.7178 17.0097C18.8589 15.8686 19.5 14.3208 19.5 12.707V5.20703H10.5849Z" fill="black"/>
<path d="M10.9603 6.73438C9.67983 6.73452 8.45163 7.24237 7.54496 8.1466C6.63829 9.05083 6.12713 10.2777 6.12354 11.5581V14.6148H7.78203V11.57C7.78203 10.727 8.11686 9.91857 8.7129 9.32244C9.30893 8.7263 10.1173 8.39132 10.9603 8.39117H17.8711V6.73438H10.9603Z" fill="#00CC9B"/>
<path d="M16.2126 9.38677H10.9603C10.3946 9.38687 9.85099 9.60656 9.44406 9.99956C9.03712 10.3926 8.79862 10.9282 8.77882 11.4936V14.617H13.0852C13.1127 14.6171 13.1396 14.609 13.1624 14.5937C13.1853 14.5785 13.203 14.5568 13.2135 14.5314C13.2239 14.506 13.2266 14.4781 13.2211 14.4512C13.2156 14.4243 13.2022 14.3996 13.1826 14.3804L12.1745 13.387L11.4324 12.6545C11.4324 12.6545 10.9688 12.1604 10.7962 11.986C10.722 11.9102 10.5477 11.7647 10.5477 11.5711C10.5477 11.4612 10.5913 11.3558 10.669 11.2781C10.7467 11.2004 10.8521 11.1568 10.962 11.1568H16.2143V12.4281C16.2141 13.2711 15.8792 14.0796 15.2831 14.6757C14.6869 15.2718 13.8785 15.6068 13.0354 15.607H6.12354V17.2632H13.0337C14.3142 17.263 15.5424 16.7552 16.4491 15.851C17.3558 14.9467 17.8669 13.7199 17.8705 12.4394V9.38281L16.2126 9.38677Z" fill="#FEFEFE"/>
</svg>
