<svg width="24" height="24" viewBox="0 0 24 24" fill="none" xmlns="http://www.w3.org/2000/svg">
<rect width="24" height="24" rx="12" fill="white"/>
<path fill-rule="evenodd" clip-rule="evenodd" d="M19.9364 6.07158C19.3836 5.3906 18.5631 5 17.6858 5H15.6553L15.3008 6.68233H17.6858C18.0537 6.68233 18.3977 6.84561 18.6293 7.13185C18.8607 7.41704 18.9506 7.78798 18.8752 8.14761L18.5207 9.83099H20.2402L20.5223 8.49481C20.7021 7.63608 20.4892 6.75257 19.9364 6.07158ZM8.89868 10.6566C8.89868 10.2009 9.26857 9.83093 9.72427 9.83093C10.18 9.83093 10.5489 10.2009 10.5499 10.6566C10.5499 11.1123 10.18 11.4822 9.72427 11.4822C9.26857 11.4822 8.89868 11.1123 8.89868 10.6566ZM16.7638 10.7414C16.7638 11.2442 16.3562 11.6518 15.8534 11.6518C15.3506 11.6518 14.943 11.2442 14.943 10.7414C14.943 10.2386 15.3506 9.83099 15.8534 9.83099C16.3562 9.83099 16.7638 10.2386 16.7638 10.7414ZM14.8695 17.3177C16.0734 17.3177 17.1264 16.4631 17.3743 15.285L17.5986 14.2155H19.3181L19.0204 15.6312C18.6102 17.5833 16.8639 19 14.8695 19H12.7078L13.0622 17.3177H14.8695ZM4.98049 8.36875L4.67255 9.83204H6.39204L6.6266 8.71595C6.87463 7.53797 7.9276 6.68333 9.13143 6.68333H10.8633L11.2177 5.00105H9.13143C7.13707 5 5.39075 6.41674 4.98049 8.36875ZM5.1255 15.8513C5.05008 16.211 5.13997 16.5819 5.37144 16.8672C5.6029 17.1534 5.94701 17.3167 6.31486 17.3177H8.6244L8.26996 19H6.31486C5.43753 19 4.61707 18.6094 4.06425 17.9284C3.51142 17.2474 3.29751 16.3639 3.47835 15.5051L3.62091 14.8293L5.43963 14.3602L5.1255 15.8513Z" fill="#8CDD00"/>
<path d="M12.2135 9.15411L11.301 13.4922C11.2163 13.8973 10.8536 14.1907 10.4402 14.1907C10.1726 14.1907 9.92359 14.0709 9.75518 13.8632C9.62393 13.7009 9.55778 13.5015 9.56087 13.2969L7.91272 13.7226C7.98295 14.1546 8.1607 14.5669 8.44385 14.9193C8.93262 15.5259 9.66009 15.8741 10.4393 15.8741C11.6441 15.8741 12.6981 15.0185 12.9461 13.8394L13.9319 9.15516H12.2135V9.15411Z" fill="#C1C1C1"/>
</svg>
