<svg width="59" height="22" viewBox="0 0 59 22" fill="none" xmlns="http://www.w3.org/2000/svg">
<path d="M58.9533 3.00967C58.9198 1.88214 58.1387 0.960814 57.0807 0.688802C57.0205 0.66906 56.9602 0.651511 56.8977 0.633961C56.8375 0.614219 56.7772 0.59667 56.7147 0.579121C56.6545 0.559378 56.5942 0.541829 56.5317 0.52428C56.4714 0.504537 56.4112 0.486988 56.3487 0.469439C56.2884 0.449696 56.2282 0.432147 56.1657 0.414598C56.1054 0.394855 56.0451 0.377306 55.9827 0.359757C55.9224 0.340014 55.8621 0.322465 55.7996 0.304916C55.7394 0.285173 55.6791 0.267624 55.6166 0.250075C55.5564 0.230332 55.4961 0.212783 55.4336 0.195234C55.3733 0.175491 55.3131 0.157942 55.2506 0.140393C54.9917 0.0526473 54.7127 0.00219364 54.4226 0.00219364L45.5597 0.00877455C44.8901 0.00877455 44.283 0.267624 43.83 0.686609C43.8188 0.684415 43.8054 0.682222 43.7942 0.680028C43.734 0.660285 43.6737 0.640542 43.6112 0.625187C43.551 0.605444 43.4907 0.585701 43.4282 0.570346C43.368 0.550603 43.3077 0.53086 43.2452 0.515505C43.1849 0.495762 43.1247 0.47602 43.0622 0.460664C43.0019 0.440921 42.9417 0.421179 42.8792 0.405823C42.8189 0.38608 42.7586 0.366338 42.6962 0.350982C42.6359 0.331239 42.5756 0.311497 42.5131 0.296141C42.4529 0.276398 42.3926 0.256656 42.3301 0.2413C42.2699 0.221557 42.2096 0.201815 42.1471 0.186459C42.0868 0.166717 42.0266 0.146974 41.9641 0.131618C41.7119 0.0482601 41.4441 0 41.1628 0H31.6349C30.9273 0 30.2935 0.291754 29.8359 0.754612C29.7623 0.728288 29.6864 0.704158 29.6083 0.682222C29.548 0.662479 29.4878 0.64493 29.4253 0.627381C29.365 0.607638 29.3048 0.590089 29.2423 0.57254C29.182 0.552797 29.1217 0.535248 29.0592 0.517699C28.999 0.497956 28.9387 0.480407 28.8762 0.462858C28.816 0.443115 28.7557 0.425566 28.6932 0.408017C28.633 0.388274 28.5727 0.370725 28.5102 0.353176C28.4499 0.333433 28.3897 0.315884 28.3272 0.298335C28.2669 0.278592 28.2067 0.261043 28.1442 0.243494C28.0839 0.223751 28.0236 0.206202 27.9612 0.188653C27.9009 0.16891 27.8406 0.151361 27.7781 0.133812C27.5282 0.0636155 27.2492 0.00877455 26.9523 0.00877455H18.0024C17.3038 0.00877455 16.6767 0.287367 16.2214 0.737062C16.1656 0.71732 16.1098 0.701964 16.0517 0.688802C15.9915 0.666866 15.9312 0.649317 15.871 0.633961C15.8107 0.614219 15.7504 0.59667 15.6879 0.579121C15.6277 0.559378 15.5674 0.541829 15.5049 0.52428C15.4447 0.504537 15.3844 0.486988 15.3219 0.469439C15.2616 0.449696 15.2014 0.432147 15.1389 0.414598C15.0786 0.394855 15.0184 0.377306 14.9559 0.359757C14.8956 0.340014 14.8354 0.322465 14.7729 0.304916C14.7126 0.285173 14.6523 0.267624 14.5898 0.250075C14.5296 0.230332 14.4693 0.212783 14.4068 0.195234C14.3466 0.175491 14.2863 0.157942 14.2238 0.140393C13.9738 0.0614219 13.6993 0.00877455 13.4136 0.00877455H2.99735C1.60911 0.00877455 0.477539 1.12095 0.477539 2.48759V17.7838C0.477539 19.4225 1.60688 20.8023 3.1402 21.2213C3.20046 21.241 3.26072 21.2585 3.32321 21.2761C3.38347 21.2958 3.44373 21.3134 3.50623 21.3309C3.56649 21.3507 3.62675 21.3682 3.68924 21.3858C3.7495 21.4055 3.80977 21.4231 3.87226 21.4406C3.93252 21.4604 3.99278 21.4779 4.05527 21.4955C4.11554 21.5152 4.1758 21.5328 4.23829 21.5503C4.29855 21.57 4.35881 21.5876 4.42131 21.6051C4.48157 21.6249 4.54183 21.6424 4.60432 21.66C4.66458 21.6797 4.72484 21.6973 4.78734 21.7148C4.8476 21.7346 4.90786 21.7521 4.97035 21.7697C5.33192 21.8881 5.71804 21.9561 6.11978 21.9561C7.56605 21.9561 8.81145 21.1182 9.39621 19.9138C9.8716 20.5456 10.5523 21.0151 11.3424 21.23C11.4027 21.2498 11.4629 21.2673 11.5254 21.2849C11.5857 21.3046 11.646 21.3222 11.7085 21.3397C11.7687 21.3595 11.829 21.377 11.8915 21.3946C11.9517 21.4143 12.012 21.4318 12.0745 21.4494C12.1348 21.4691 12.195 21.4867 12.2575 21.5042C12.3178 21.524 12.378 21.5415 12.4405 21.5591C12.5008 21.5788 12.561 21.5964 12.6235 21.6139C12.6838 21.6337 12.7441 21.6512 12.8066 21.6688C12.8668 21.6885 12.9271 21.7061 12.9896 21.7236C13.0498 21.7433 13.1101 21.7609 13.1726 21.7784C13.5342 21.8969 13.9203 21.9649 14.322 21.9649C15.1188 21.9649 15.8509 21.7082 16.4512 21.2783C16.5115 21.2958 16.5673 21.32 16.6298 21.3309C16.6901 21.3485 16.7503 21.3726 16.8128 21.3858C16.8731 21.4033 16.9333 21.4275 16.9958 21.4406C17.0561 21.4582 17.1164 21.4823 17.1788 21.4955C17.2391 21.513 17.2994 21.5371 17.3619 21.5503C17.4221 21.5679 17.4824 21.592 17.5449 21.6051C17.6051 21.6227 17.6654 21.6468 17.7279 21.66C17.7882 21.6775 17.8484 21.7017 17.9109 21.7148C17.9712 21.7324 18.0314 21.7565 18.0939 21.7697C18.1542 21.7872 18.2144 21.8113 18.2769 21.8245C18.3372 21.8421 18.3975 21.8662 18.46 21.8793C18.6497 21.9342 18.8461 21.9737 19.0514 21.9737H21.6002C22.1537 21.9737 22.6738 21.7631 23.0644 21.3814C23.3523 21.0962 23.5442 20.7474 23.6268 20.3679C23.8946 20.8198 24.3365 21.1554 24.8588 21.3002C24.9168 21.3222 24.9793 21.3375 25.0418 21.3551C25.0999 21.377 25.1623 21.3924 25.2248 21.4099C25.2829 21.4318 25.3454 21.4472 25.4079 21.4648C25.4659 21.4867 25.5284 21.502 25.5909 21.5196C25.6489 21.5415 25.7114 21.5569 25.7739 21.5744C25.8319 21.5964 25.8944 21.6117 25.9569 21.6293C26.0149 21.6512 26.0774 21.6666 26.1399 21.6841C26.198 21.7061 26.2604 21.7214 26.3229 21.739C26.381 21.7609 26.4435 21.7762 26.506 21.7938C26.564 21.8157 26.6265 21.8311 26.689 21.8486C26.9189 21.9342 27.1666 21.9846 27.4255 21.9846H29.9833C30.5211 21.9846 31.0211 21.7806 31.4072 21.4187C31.4541 21.434 31.5009 21.4472 31.5478 21.4604C31.6081 21.4823 31.6683 21.4977 31.7308 21.5152C31.7911 21.5371 31.8514 21.5525 31.9138 21.57C31.9741 21.592 32.0344 21.6073 32.0969 21.6249C32.1571 21.6468 32.2174 21.6622 32.2799 21.6797C32.3401 21.7017 32.4004 21.717 32.4629 21.7346C32.5232 21.7565 32.5834 21.7719 32.6459 21.7894C32.7062 21.8113 32.7664 21.8267 32.8289 21.8443C33.0945 21.9386 33.3824 21.9912 33.6815 21.9912H43.2095C43.9795 21.9912 44.6468 21.6666 45.1021 21.1445C45.2517 21.2081 45.4101 21.2564 45.5708 21.2958C45.6311 21.3156 45.6914 21.3331 45.7539 21.3507C45.8141 21.3704 45.8744 21.388 45.9369 21.4055C45.9971 21.4253 46.0574 21.4428 46.1199 21.4604C46.1801 21.4801 46.2404 21.4998 46.3029 21.5152C46.3632 21.5349 46.4234 21.5525 46.4859 21.57C46.5462 21.5898 46.6064 21.6073 46.6689 21.6249C46.7292 21.6446 46.7895 21.6622 46.852 21.6797C46.9122 21.6995 46.9725 21.717 47.035 21.7346C47.0952 21.7543 47.1555 21.7719 47.218 21.7894C47.2782 21.8092 47.3385 21.8289 47.401 21.8443C47.7157 21.943 48.0482 22 48.3942 22C50.2154 22 51.6996 20.5434 51.6996 18.7512V18.0953H56.4826C57.8262 18.0953 58.931 17.0709 58.9979 15.7635V15.7437V15.724L59.0002 3.08864V3.07767L58.9533 3.00967Z" fill="black"/>
<path d="M22.4859 5.94922C21.8498 5.94922 21.332 6.4384 21.3075 7.06359L20.9816 14.8466C20.966 15.2546 21.1133 15.6363 21.399 15.9303C21.6846 16.222 22.0708 16.3844 22.4837 16.3844C22.8943 16.3844 23.2805 16.222 23.5684 15.9303C23.854 15.6385 24.0014 15.2546 23.9857 14.8466L23.6599 7.06359C23.6376 6.4384 23.1198 5.94922 22.4859 5.94922ZM22.9881 15.3797C22.8564 15.5223 22.6778 15.5925 22.4859 15.5925C22.2895 15.5925 22.1154 15.5223 21.9793 15.3841C21.8476 15.2459 21.7784 15.0726 21.7873 14.8773L22.1087 7.0943C22.1176 6.89248 22.2806 6.73893 22.4859 6.73893C22.6912 6.73893 22.8519 6.89248 22.8586 7.0943L23.1845 14.8795C23.1934 15.0704 23.1242 15.2459 22.9881 15.3797Z" fill="black"/>
<path d="M54.4312 0.0141529L45.5594 0.00976562C44.6198 0.00976562 43.794 0.516496 43.361 1.26453V1.26233C42.9325 0.512109 42.1156 0.00976562 41.167 0.00976562H31.6413C30.5767 0.00976562 29.6638 0.661276 29.2933 1.5826C28.9362 0.656889 28.0234 0.00976562 26.9543 0.00976562H18.0044C16.9799 0.00976562 16.0983 0.602048 15.71 1.46415C15.3105 0.606435 14.4333 0.00976562 13.4134 0.00976562H2.99484C1.60883 0.00976562 0.479492 1.11975 0.479492 2.48858V17.7848C0.479492 19.7525 2.10655 21.3539 4.10856 21.3539C6.11058 21.3539 7.73763 19.7525 7.73763 17.7848V7.17858C7.73763 6.92631 7.94743 6.72011 8.2041 6.72011C8.46077 6.72011 8.67056 6.92631 8.67056 7.17858V17.7826C8.67056 19.7503 10.2976 21.3517 12.2996 21.3517C13.42 21.3517 14.4266 20.8493 15.0895 20.064C15.1899 20.3097 15.3395 20.5334 15.5314 20.7309C15.9242 21.1301 16.4554 21.3517 17.0223 21.3517H19.5712C20.1269 21.3517 20.6447 21.1433 21.0353 20.7594C21.3254 20.4742 21.5174 20.1232 21.6022 19.7437H23.3632C23.564 20.6607 24.3965 21.3517 25.392 21.3517H27.9475C28.5144 21.3517 29.0456 21.1301 29.4384 20.7309C29.5299 20.6366 29.6102 20.5378 29.6794 20.4303C30.1414 20.9919 30.8489 21.3517 31.6413 21.3517H41.167C42.2517 21.3517 43.1489 20.7155 43.5105 19.7745C43.5105 19.7723 43.5127 19.7701 43.5127 19.7679C44.0908 20.7155 45.142 21.3517 46.345 21.3517C48.1707 21.3517 49.6482 19.8929 49.6482 18.1029V17.447H54.4312C55.7726 17.447 56.8796 16.4226 56.9466 15.1152V15.0757L56.951 2.44032V2.41619C56.9108 1.06929 55.8016 0.0141529 54.4312 0.0141529Z" fill="black"/>
<path d="M50.026 5.94922C49.3699 5.94922 48.8364 6.47131 48.8364 7.11623V12.7714C48.8364 13.4164 49.3721 13.9406 50.026 13.9406C50.68 13.9406 51.2112 13.4142 51.2112 12.7714V7.11623C51.2112 6.47131 50.6822 5.94922 50.026 5.94922ZM50.4077 12.7714C50.4077 12.9798 50.2358 13.1509 50.026 13.1509C49.814 13.1509 49.6399 12.982 49.6399 12.7714V7.11623C49.6399 6.91003 49.8118 6.74112 50.026 6.74112C50.2358 6.74112 50.4077 6.91003 50.4077 7.11623V12.7714Z" fill="black"/>
<path d="M15.1297 2.48793V13.5504L14.9735 18.4159C14.9668 18.6441 14.911 18.8678 14.8038 19.0696C14.2838 20.048 13.1835 20.6864 11.9537 20.5416C10.5164 20.3749 9.47183 19.1069 9.47183 17.6833V7.23058C9.47183 6.62733 9.05893 6.07014 8.45632 5.95388C7.64614 5.79813 6.93193 6.40796 6.93193 7.17793V17.6877C6.93193 19.1004 5.90079 20.3595 4.47461 20.5372C2.75158 20.7522 1.28076 19.4338 1.28076 17.782V2.48354C1.28076 1.55344 2.0463 0.798828 2.99263 0.798828H13.4111C14.3575 0.798828 15.1297 1.56002 15.1297 2.48793Z" fill="white"/>
<path d="M29.1209 16.4239L28.6679 2.43285C28.6389 1.52029 27.8845 0.800781 26.956 0.800781H18.0038C17.0709 0.800781 16.3165 1.52029 16.2875 2.43285L15.9349 13.5743L15.7653 18.85L15.7541 19.2734C15.7429 19.6134 15.8702 19.9381 16.1112 20.1816C16.3522 20.4273 16.6736 20.5611 17.024 20.5611H19.5729C19.9099 20.5611 20.2313 20.4317 20.4723 20.1969C20.7089 19.96 20.8428 19.6485 20.8428 19.3107V18.9509H24.1215V19.3129C24.1215 20.0039 24.6884 20.5611 25.3914 20.5611H27.947C28.2929 20.5611 28.6188 20.4273 28.8598 20.1816C29.0495 19.9885 29.17 19.7428 29.2013 19.4818C29.2682 19.4752 29.1209 16.4239 29.1209 16.4239ZM23.5702 15.9281C23.2801 16.2199 22.8939 16.3822 22.4855 16.3822C22.0726 16.3822 21.6865 16.2199 21.4008 15.9281C21.1151 15.6364 20.9678 15.2525 20.9834 14.8445L21.3093 7.06143C21.3338 6.43624 21.8516 5.94706 22.4877 5.94706C23.1238 5.94706 23.6416 6.43624 23.6662 7.06143L23.992 14.8445C24.0032 15.2525 23.8559 15.6364 23.5702 15.9281Z" fill="white"/>
<path d="M37.7037 8.46755V7.19962C37.7037 6.51082 37.1323 5.95144 36.4337 5.95144C35.7307 5.95144 35.1593 6.51302 35.1593 7.19962V16.7727C35.1593 17.4637 35.7307 18.0252 36.4337 18.0252C37.1323 18.0252 37.7037 17.4637 37.7037 16.7727V15.9391C37.7037 14.5352 38.8643 13.3945 40.2927 13.3945C40.9846 13.3945 41.634 13.6599 42.1251 14.1425C42.596 14.6053 42.8638 15.2218 42.8817 15.8733V18.8742C42.8571 19.835 42.1228 20.5611 41.1698 20.5611H31.6441C30.8852 20.5611 30.2402 20.0785 30.017 19.4072C29.9612 19.2405 29.9277 19.0584 29.9277 18.8742V2.48769C29.9277 1.55978 30.6955 0.800781 31.6441 0.800781H41.1698C42.1072 0.800781 42.8571 1.52029 42.8861 2.43724L42.8817 8.54871C42.8504 9.90877 41.6876 11.0187 40.2927 11.0187C38.8643 11.0166 37.7037 9.87367 37.7037 8.46755Z" fill="white"/>
<path d="M54.4314 0.803215L45.5596 0.798828C44.6601 0.798828 43.908 1.47886 43.8477 2.33657L43.8522 2.48574V17.7864L43.8433 18.1023C43.8433 19.4579 44.9637 20.5613 46.343 20.5613C47.7223 20.5613 48.8427 19.4579 48.8427 18.1023V16.6566H54.4292C55.3465 16.6566 56.0964 15.9569 56.141 15.075L56.1455 2.43967C56.1187 1.52273 55.3643 0.803215 54.4314 0.803215ZM51.2108 12.7717C51.2108 13.4166 50.6796 13.9409 50.0256 13.9409C49.3717 13.9409 48.836 13.4144 48.836 12.7717V7.11651C48.836 6.47158 49.3717 5.94949 50.0256 5.94949C50.6796 5.94949 51.2108 6.47158 51.2108 7.11651V12.7717Z" fill="white"/>
</svg>
