<svg width="64" height="14" viewBox="0 0 64 14" fill="none" xmlns="http://www.w3.org/2000/svg">
<path d="M63.9996 3.09574V3.04917C63.9996 2.34917 63.6986 1.71856 63.2202 1.28263C63.2128 1.27565 63.2055 1.26866 63.1981 1.26168C63.1907 1.25469 63.1833 1.2477 63.1754 1.24072C63.1681 1.23373 63.1607 1.22675 63.1533 1.21976C63.1459 1.21277 63.1385 1.20579 63.1311 1.1988C63.1237 1.19182 63.1164 1.18483 63.109 1.17784C63.1016 1.17086 63.0942 1.16387 63.0863 1.15689C63.079 1.1499 63.0716 1.14291 63.0642 1.13593C63.0568 1.12894 63.0494 1.12196 63.042 1.11497C63.0346 1.10798 63.0272 1.101 63.0199 1.09401C63.0125 1.08703 63.0051 1.08004 62.9972 1.07305C62.9898 1.06607 62.9825 1.05908 62.9751 1.0521C62.9677 1.04511 62.9603 1.03812 62.9529 1.03114C62.9455 1.02415 62.9381 1.01717 62.9307 1.01018C62.9234 1.00319 62.916 0.996208 62.9086 0.989222C62.9012 0.982235 62.8938 0.97525 62.8864 0.968264C62.879 0.961277 62.8716 0.954291 62.8643 0.947305C62.8569 0.940319 62.8495 0.933333 62.8421 0.926347C62.8347 0.919361 62.8273 0.912375 62.8199 0.905389C62.8125 0.898403 62.8052 0.891417 62.7978 0.884431C62.7904 0.877445 62.783 0.870459 62.7756 0.863473C62.7682 0.856487 62.7608 0.849501 62.7535 0.842515C62.7461 0.835529 62.7387 0.828543 62.7313 0.821557C62.7239 0.814571 62.7165 0.807585 62.7091 0.800599C62.7017 0.793613 62.6944 0.786627 62.687 0.779641C62.6796 0.772655 62.6722 0.765669 62.6648 0.758683C62.6574 0.751697 62.65 0.744711 62.6426 0.737725C62.6353 0.730739 62.6279 0.723752 62.6205 0.716766C62.6131 0.70978 62.6057 0.702794 62.5983 0.695808C62.5909 0.688822 62.5835 0.681836 62.5762 0.67485C62.5688 0.667864 62.5614 0.660878 62.554 0.653892C62.1325 0.25988 61.5692 0.0181637 60.9505 0.0181637H56.1714C55.4087 0.0181637 54.7452 0.454558 54.4128 1.09308C54.4077 1.08842 54.4026 1.0833 54.3975 1.07864C54.3901 1.07166 54.3828 1.06467 54.3754 1.05768C54.368 1.0507 54.3606 1.04371 54.3532 1.03673C54.3458 1.02974 54.3384 1.02275 54.3311 1.01577C54.3237 1.00878 54.3163 1.0018 54.3089 0.99481C54.3015 0.987824 54.2941 0.980838 54.2867 0.973852C54.2793 0.966866 54.2719 0.95988 54.2646 0.952894C54.2572 0.945908 54.2498 0.938922 54.2424 0.931936C54.235 0.92495 54.2276 0.917964 54.2202 0.910978C54.2129 0.903992 54.2055 0.897006 54.1981 0.89002C54.1907 0.883034 54.1833 0.876048 54.1759 0.869062C54.1685 0.862076 54.1611 0.85509 54.1538 0.848104C54.1464 0.841118 54.139 0.834132 54.1316 0.827146C54.1242 0.82016 54.1168 0.813174 54.1094 0.806188C54.102 0.799202 54.0947 0.792216 54.0873 0.78523C54.0799 0.778244 54.0725 0.771257 54.0651 0.764271C54.0577 0.757285 54.0503 0.750299 54.0429 0.743313C54.0356 0.736327 54.0282 0.729341 54.0208 0.722355C54.0134 0.715369 54.006 0.708383 53.9986 0.701397C53.5619 0.292947 52.9778 0.0428476 52.3369 0.0428476H47.8566C46.7628 0.0428476 45.8731 0.940319 45.8731 2.04365V2.25416C45.7872 2.15542 45.6976 2.05948 45.603 1.96773C45.5758 1.94118 45.5481 1.9151 45.5204 1.88949C45.513 1.8825 45.5056 1.87552 45.4982 1.86853C45.4908 1.86154 45.4834 1.85456 45.4756 1.84757C45.4682 1.84059 45.4608 1.8336 45.4534 1.82661C45.446 1.81963 45.4386 1.81264 45.4312 1.80566C45.4239 1.79867 45.4165 1.79168 45.4091 1.7847C45.4017 1.77771 45.3943 1.77073 45.3865 1.76374C45.3791 1.75675 45.3717 1.74977 45.3643 1.74278C45.3569 1.7358 45.3495 1.72881 45.3421 1.72182C45.3348 1.71484 45.3274 1.70785 45.32 1.70086C45.3126 1.69388 45.3052 1.68689 45.2974 1.67991C45.29 1.67292 45.2826 1.66593 45.2752 1.65895C45.2678 1.65196 45.2604 1.64498 45.253 1.63799C45.2456 1.631 45.2383 1.62402 45.2309 1.61703C45.2235 1.61005 45.2161 1.60306 45.2087 1.59607C45.2013 1.58909 45.1939 1.5821 45.1861 1.57512C45.1787 1.56813 45.1713 1.56114 45.1639 1.55416C45.1565 1.54717 45.1491 1.54019 45.1418 1.5332C45.1344 1.52621 45.127 1.51923 45.1196 1.51224C45.1122 1.50526 45.1048 1.49827 45.097 1.49128C45.0896 1.4843 45.0822 1.47731 45.0748 1.47033C45.0674 1.46334 45.06 1.45635 45.0527 1.44937C45.0453 1.44238 45.0379 1.4354 45.03 1.42841C45.0226 1.42142 45.0153 1.41444 45.0079 1.40745C45.0005 1.40047 44.9931 1.39348 44.9852 1.38649C44.9779 1.37951 44.9705 1.37252 44.9631 1.36554C44.9557 1.35855 44.9483 1.35156 44.9405 1.34458C44.9331 1.33759 44.9257 1.33061 44.9183 1.32362C44.9109 1.31663 44.9035 1.30965 44.8957 1.30266C44.8883 1.29568 44.8809 1.28869 44.8735 1.2817C44.8661 1.27472 44.8587 1.26773 44.8509 1.26075C44.0115 0.475981 42.9233 0.0447106 41.7759 0.0447106C40.6286 0.0447106 39.4877 0.496939 38.6405 1.31803C38.4724 1.48057 38.3192 1.65522 38.1797 1.83826C38.1035 1.72555 38.0186 1.61843 37.9249 1.5183C37.8893 1.48011 37.8524 1.44378 37.8145 1.40792C37.8071 1.40093 37.7997 1.39395 37.7924 1.38696C37.785 1.37997 37.7776 1.37299 37.7702 1.366C37.7628 1.35902 37.7554 1.35203 37.748 1.34504C37.7406 1.33806 37.7333 1.33107 37.7259 1.32409C37.7185 1.3171 37.7111 1.31011 37.7037 1.30313C37.6963 1.29614 37.6889 1.28916 37.6811 1.28217C37.6737 1.27518 37.6663 1.2682 37.6589 1.26121C37.6515 1.25422 37.6441 1.24724 37.6368 1.24025C37.6294 1.23327 37.622 1.22628 37.6146 1.21929C37.6072 1.21231 37.5998 1.20532 37.592 1.19834C37.5846 1.19135 37.5772 1.18436 37.5698 1.17738C37.5624 1.17039 37.555 1.16341 37.5477 1.15642C37.5403 1.14943 37.5329 1.14245 37.5255 1.13546C37.5181 1.12848 37.5107 1.12149 37.5033 1.1145C37.4959 1.10752 37.4886 1.10053 37.4812 1.09355C37.4738 1.08656 37.4664 1.07957 37.459 1.07259C37.4516 1.0656 37.4442 1.05862 37.4368 1.05163C37.4295 1.04464 37.4221 1.03766 37.4147 1.03067C37.4073 1.02369 37.3999 1.0167 37.3925 1.00971C37.3851 1.00273 37.3777 0.995742 37.3704 0.988756C37.363 0.98177 37.3556 0.974784 37.3482 0.967798C37.3408 0.960812 37.3334 0.953826 37.326 0.94684C37.3186 0.939854 37.3113 0.932868 37.3039 0.925882C37.2965 0.918895 37.2891 0.91191 37.2817 0.904923C37.2743 0.897937 37.2669 0.890951 37.2596 0.883965C37.2522 0.876979 37.2448 0.869993 37.2374 0.863007C37.23 0.856021 37.2226 0.849035 37.2152 0.842049C37.2078 0.835063 37.2005 0.828077 37.1931 0.821091C37.1857 0.814105 37.1783 0.807119 37.1709 0.800133C37.1635 0.793147 37.1561 0.786161 37.1487 0.779175C36.6676 0.312508 36.0185 0.0470393 35.3486 0.0470393C34.3217 0.0470393 33.4279 0.651564 33.0077 1.53367C32.9615 1.48383 32.9135 1.43586 32.8637 1.38975C32.8563 1.38277 32.8489 1.37578 32.8415 1.3688C32.8341 1.36181 32.8267 1.35482 32.8189 1.34784C32.8115 1.34085 32.8041 1.33387 32.7967 1.32688C32.7893 1.31989 32.7819 1.31291 32.7746 1.30592C32.7672 1.29894 32.7598 1.29195 32.7524 1.28496C32.745 1.27798 32.7376 1.27099 32.7298 1.26401C32.7224 1.25702 32.715 1.25003 32.7076 1.24305C32.7002 1.23606 32.6928 1.22908 32.6855 1.22209C32.6781 1.2151 32.6707 1.20812 32.6633 1.20113C32.6559 1.19415 32.6485 1.18716 32.6407 1.18017C32.6333 1.17319 32.6259 1.1662 32.6185 1.15921C32.6111 1.15223 32.6037 1.14524 32.5963 1.13826C32.589 1.13127 32.5816 1.12428 32.5742 1.1173C32.5668 1.11031 32.5594 1.10333 32.552 1.09634C32.5446 1.08935 32.5372 1.08237 32.5299 1.07538C32.5225 1.0684 32.5151 1.06141 32.5077 1.05442C32.5003 1.04744 32.4929 1.04045 32.4855 1.03347C32.4781 1.02648 32.4708 1.01949 32.4634 1.01251C32.456 1.00552 32.4486 0.998536 32.4412 0.99155C32.4338 0.984564 32.4264 0.977578 32.419 0.970592C32.4117 0.963606 32.4043 0.95662 32.3969 0.949634C32.3895 0.942648 32.3821 0.935662 32.3747 0.928676C32.3673 0.92169 32.3599 0.914704 32.3526 0.907718C32.3452 0.900732 32.3378 0.893746 32.3304 0.88676C32.323 0.879774 32.3156 0.872788 32.3082 0.865802C32.3009 0.858816 32.2935 0.85183 32.2861 0.844844C32.2787 0.837858 32.2713 0.830872 32.2639 0.823886C32.2565 0.8169 32.2491 0.809914 32.2418 0.802927C32.2344 0.795941 32.227 0.788955 32.2196 0.781969C32.2122 0.774983 32.2048 0.767997 32.1974 0.761011C31.7316 0.319029 31.105 0.0493679 30.4213 0.0493679H30.4139C29.7019 0.0493679 29.0135 0.349301 28.525 0.871856C28.4221 0.982235 28.3302 1.101 28.2485 1.22628C28.2425 1.22069 28.2365 1.21464 28.23 1.20905C28.2226 1.20206 28.2152 1.19508 28.2078 1.18809C28.2005 1.1811 28.1931 1.17412 28.1857 1.16713C28.1783 1.16015 28.1709 1.15316 28.1635 1.14617C28.1561 1.13919 28.1487 1.1322 28.1409 1.12522C28.1335 1.11823 28.1261 1.11124 28.1187 1.10426C28.1114 1.09727 28.104 1.09029 28.0966 1.0833C28.0892 1.07631 28.0818 1.06933 28.0744 1.06234C28.067 1.05536 28.0596 1.04837 28.0523 1.04138C28.0449 1.0344 28.0375 1.02741 28.0301 1.02043C28.0227 1.01344 28.0153 1.00645 28.0079 0.999468C28.0005 0.992482 27.9932 0.985496 27.9858 0.97851C27.9784 0.971524 27.971 0.964538 27.9636 0.957552C27.9562 0.950566 27.9488 0.94358 27.9414 0.936594C27.9341 0.929608 27.9267 0.922621 27.9193 0.915635C27.9119 0.908649 27.9045 0.901663 27.8971 0.894677C27.8897 0.887691 27.8823 0.880705 27.875 0.873719C27.8676 0.866733 27.8602 0.859747 27.8528 0.852761C27.8454 0.845775 27.838 0.838789 27.8306 0.831803C27.8232 0.824817 27.8159 0.817831 27.8085 0.810845C27.8011 0.803859 27.7937 0.796873 27.7863 0.789887C27.7789 0.782901 27.7715 0.775915 27.7641 0.768929C27.7568 0.761943 27.7494 0.754957 27.742 0.747971C27.7346 0.740985 27.7272 0.733999 27.7198 0.727013C27.7124 0.720027 27.705 0.713041 27.6977 0.706055C27.2443 0.283167 26.6593 0.0512309 26.0383 0.0512309H20.7744C20.0422 0.0512309 19.4018 0.453626 19.0578 1.05023C19.055 1.04744 19.0523 1.04511 19.0495 1.04278C19.0421 1.0358 19.0347 1.02881 19.0273 1.02182C19.0199 1.01484 19.0126 1.00785 19.0052 1.00086C18.9978 0.993879 18.9904 0.986893 18.983 0.979907C18.9756 0.972921 18.9682 0.965935 18.9608 0.958949C18.9535 0.951963 18.9461 0.944977 18.9387 0.937991C18.9313 0.931005 18.9239 0.924019 18.9165 0.917033C18.9091 0.910047 18.9017 0.903061 18.8944 0.896075C18.887 0.889088 18.8796 0.882102 18.8722 0.875116C18.8648 0.86813 18.8574 0.861144 18.85 0.854158C18.8426 0.847172 18.8353 0.840186 18.8279 0.8332C18.8205 0.826214 18.8131 0.819228 18.8057 0.812242C18.7983 0.805256 18.7909 0.79827 18.7831 0.791284C18.7757 0.784298 18.7683 0.777312 18.7609 0.770326C18.7535 0.76334 18.7461 0.756354 18.7388 0.749368C18.7314 0.742382 18.724 0.735396 18.7166 0.72841C18.7092 0.721424 18.7018 0.714438 18.694 0.707452C18.6866 0.700466 18.6792 0.69348 18.6718 0.686494C18.6644 0.679508 18.657 0.672522 18.6497 0.665536C18.2281 0.271058 17.6648 0.0298071 17.0462 0.0298071H12.2671C11.4868 0.0298071 10.8099 0.486693 10.4858 1.14897C10.4793 1.14291 10.4729 1.13686 10.4664 1.13081C10.459 1.12382 10.4516 1.11683 10.4443 1.10985C10.4369 1.10286 10.4295 1.09587 10.4221 1.08889C10.4147 1.0819 10.4073 1.07492 10.3999 1.06793C10.3925 1.06094 10.3852 1.05396 10.3778 1.04697C10.3704 1.03999 10.363 1.033 10.3556 1.02601C10.3482 1.01903 10.3408 1.01204 10.3334 1.00506C10.3261 0.998071 10.3187 0.991084 10.3113 0.984098C10.3039 0.977112 10.2965 0.970126 10.2891 0.96314C10.2817 0.956154 10.2743 0.949168 10.267 0.942182C10.2596 0.935196 10.2522 0.92821 10.2448 0.921224C10.2374 0.914238 10.23 0.907252 10.2226 0.900266C10.2152 0.89328 10.2079 0.886294 10.2005 0.879308C10.1931 0.872322 10.1857 0.865336 10.1783 0.85835C10.1709 0.851364 10.1635 0.844378 10.1561 0.837392C10.1488 0.830406 10.1414 0.82342 10.134 0.816434C10.1266 0.809448 10.1192 0.802462 10.1118 0.795476C10.1044 0.78849 10.097 0.781504 10.0897 0.774518C10.0823 0.767532 10.0749 0.760546 10.0675 0.75356C10.0601 0.746574 10.0527 0.739587 10.0453 0.732601C10.038 0.725615 10.0306 0.718629 10.0232 0.711643C9.56101 0.280373 8.94371 0.015835 8.26593 0.015835C7.43163 0.015835 6.64443 0.424751 6.15918 1.10892C6.08577 1.21277 6.02113 1.32176 5.96388 1.43353C5.96018 1.43027 5.95649 1.42655 5.9528 1.42329C5.94541 1.4163 5.93802 1.40931 5.93063 1.40233C5.92325 1.39534 5.91586 1.38836 5.90847 1.38137C5.90108 1.37438 5.8937 1.3674 5.88631 1.36041C5.87892 1.35343 5.87154 1.34644 5.86415 1.33945C5.85676 1.33247 5.84937 1.32548 5.84199 1.3185C5.8346 1.31151 5.82721 1.30452 5.81982 1.29754C5.81244 1.29055 5.80505 1.28357 5.79766 1.27658C5.79028 1.26959 5.78289 1.26261 5.7755 1.25562C5.76811 1.24864 5.76073 1.24165 5.75334 1.23466C5.74595 1.22768 5.73856 1.22069 5.73118 1.21371C5.72379 1.20672 5.7164 1.19973 5.70902 1.19275C5.70163 1.18576 5.69424 1.17878 5.68685 1.17179C5.67947 1.1648 5.67208 1.15782 5.66469 1.15083C5.65731 1.14385 5.64992 1.13686 5.64207 1.12987C5.63468 1.12289 5.62729 1.1159 5.61991 1.10892C5.61252 1.10193 5.60513 1.09494 5.59775 1.08796C5.59036 1.08097 5.58297 1.07399 5.57558 1.067C5.5682 1.06001 5.56081 1.05303 5.55296 1.04604C5.54557 1.03906 5.53819 1.03207 5.5308 1.02508C5.52341 1.0181 5.51602 1.01111 5.50864 1.00413C5.50125 0.997139 5.49386 0.990153 5.48647 0.983167C5.47909 0.976181 5.4717 0.969195 5.46431 0.962209C5.45693 0.955223 5.44954 0.948237 5.44215 0.941251C5.43476 0.934265 5.42738 0.927279 5.41999 0.920293C5.4126 0.913307 5.40521 0.906321 5.39783 0.899335C5.39044 0.892349 5.38305 0.885363 5.37567 0.878377C5.36828 0.871391 5.36089 0.864404 5.3535 0.857418C5.34612 0.850432 5.33873 0.843446 5.33134 0.83646C5.32396 0.829474 5.31657 0.822488 5.30918 0.815502C4.76298 0.297605 4.06489 0 3.316 0C1.75452 0 0.484375 1.28124 0.484375 2.85635V10.7105C0.484375 11.4776 0.814032 12.1678 1.33807 12.6456C1.34545 12.6526 1.35284 12.6596 1.36023 12.6666C1.36761 12.6736 1.375 12.6806 1.38239 12.6876C1.38978 12.6945 1.39716 12.7015 1.40455 12.7085C1.41194 12.7155 1.41933 12.7225 1.42671 12.7295C1.4341 12.7365 1.44149 12.7434 1.44887 12.7504C1.45626 12.7574 1.46365 12.7644 1.47104 12.7714C1.47842 12.7784 1.48581 12.7854 1.4932 12.7923C1.50059 12.7993 1.50797 12.8063 1.51536 12.8133C1.52275 12.8203 1.53013 12.8273 1.53752 12.8343C1.54491 12.8413 1.5523 12.8482 1.55968 12.8552C1.56707 12.8622 1.57446 12.8692 1.58185 12.8762C1.58923 12.8832 1.59662 12.8902 1.60401 12.8971C1.61139 12.9041 1.61878 12.9111 1.62617 12.9181C1.63356 12.9251 1.64094 12.9321 1.64833 12.9391C1.65572 12.946 1.66311 12.953 1.67049 12.96C1.67788 12.967 1.68527 12.974 1.69265 12.981C1.70004 12.988 1.70743 12.9949 1.71482 13.0019C1.7222 13.0089 1.72959 13.0159 1.73698 13.0229C1.74436 13.0299 1.75175 13.0369 1.75914 13.0438C1.76653 13.0508 1.77391 13.0578 1.7813 13.0648C1.78869 13.0718 1.79608 13.0788 1.80346 13.0858C1.81085 13.0927 1.81824 13.0997 1.82562 13.1067C1.83301 13.1137 1.8404 13.1207 1.84779 13.1277C1.85517 13.1347 1.86256 13.1417 1.86995 13.1486C1.87734 13.1556 1.88472 13.1626 1.89211 13.1696C1.8995 13.1766 1.90688 13.1836 1.91427 13.1906C1.92166 13.1975 1.92905 13.2045 1.93643 13.2115C1.94382 13.2185 1.95121 13.2255 1.9586 13.2325C1.96598 13.2395 1.97337 13.2464 1.98076 13.2534C1.98814 13.2604 1.99553 13.2674 2.00292 13.2744C2.46462 13.7057 3.08146 13.9697 3.75832 13.9697C4.594 13.9697 5.38167 13.5599 5.866 12.8729C5.93848 12.77 6.00266 12.6619 6.05899 12.5506C6.06268 12.5544 6.06637 12.5576 6.07007 12.5609C6.07746 12.5679 6.08484 12.5749 6.09223 12.5818C6.09962 12.5888 6.10701 12.5958 6.11439 12.6028C6.12178 12.6098 6.12917 12.6168 6.13702 12.6238C6.1444 12.6307 6.15179 12.6377 6.15918 12.6447C6.16656 12.6517 6.17395 12.6587 6.18134 12.6657C6.18873 12.6727 6.19611 12.6796 6.2035 12.6866C6.21089 12.6936 6.21828 12.7006 6.22566 12.7076C6.23305 12.7146 6.24044 12.7216 6.24782 12.7285C6.25521 12.7355 6.2626 12.7425 6.26999 12.7495C6.27737 12.7565 6.28476 12.7635 6.29215 12.7705C6.29954 12.7774 6.30692 12.7844 6.31431 12.7914C6.3217 12.7984 6.32908 12.8054 6.33693 12.8124C6.34432 12.8194 6.35171 12.8263 6.3591 12.8333C6.36648 12.8403 6.37387 12.8473 6.38126 12.8543C6.38864 12.8613 6.39603 12.8683 6.40342 12.8752C6.41081 12.8822 6.41819 12.8892 6.42604 12.8962C6.43343 12.9032 6.44082 12.9102 6.4482 12.9172C6.45559 12.9242 6.46298 12.9311 6.47037 12.9381C6.47775 12.9451 6.48514 12.9521 6.49253 12.9591C6.49992 12.9661 6.5073 12.9731 6.51469 12.98C6.52208 12.987 6.52946 12.994 6.53731 13.001C6.5447 13.008 6.55209 13.015 6.55947 13.022C6.56686 13.0289 6.57425 13.0359 6.58164 13.0429C6.58902 13.0499 6.59641 13.0569 6.6038 13.0639C6.61119 13.0709 6.61857 13.0778 6.62596 13.0848C6.63335 13.0918 6.64073 13.0988 6.64812 13.1058C6.65551 13.1128 6.6629 13.1198 6.67028 13.1267C6.67767 13.1337 6.68506 13.1407 6.69245 13.1477C6.69983 13.1547 6.70722 13.1617 6.71461 13.1687C7.23125 13.6693 7.92981 13.9669 8.67869 13.9669C9.59702 13.9669 10.4142 13.5236 10.9323 12.8389C10.9383 12.8445 10.9447 12.8506 10.9507 12.8562C10.9581 12.8631 10.9655 12.8701 10.9729 12.8771C10.9803 12.8841 10.9877 12.8911 10.9955 12.8981C11.0029 12.9051 11.0103 12.912 11.0177 12.919C11.0251 12.926 11.0325 12.933 11.0398 12.94C11.0472 12.947 11.0546 12.954 11.062 12.9609C11.0694 12.9679 11.0768 12.9749 11.0846 12.9819C11.092 12.9889 11.0994 12.9959 11.1068 13.0029C11.1142 13.0098 11.1216 13.0168 11.129 13.0238C11.1363 13.0308 11.1437 13.0378 11.1511 13.0448C11.1585 13.0518 11.1659 13.0587 11.1733 13.0657C11.1807 13.0727 11.1881 13.0797 11.1954 13.0867C11.2028 13.0937 11.2102 13.1007 11.2176 13.1077C11.225 13.1146 11.2324 13.1216 11.2398 13.1286C11.2472 13.1356 11.2545 13.1426 11.2619 13.1496C11.2693 13.1566 11.2767 13.1635 11.2841 13.1705C11.2915 13.1775 11.2989 13.1845 11.3063 13.1915C11.3136 13.1985 11.321 13.2055 11.3284 13.2124C11.3358 13.2194 11.3432 13.2264 11.3506 13.2334C11.358 13.2404 11.3654 13.2474 11.3727 13.2544C11.3801 13.2613 11.3875 13.2683 11.3949 13.2753C11.4023 13.2823 11.4097 13.2893 11.4171 13.2963C11.4244 13.3033 11.4318 13.3102 11.4392 13.3172C11.4466 13.3242 11.454 13.3312 11.4614 13.3382C11.4688 13.3452 11.4762 13.3522 11.4835 13.3591C11.4909 13.3661 11.4983 13.3731 11.5057 13.3801C11.5131 13.3871 11.5205 13.3941 11.5279 13.4011C11.5353 13.4081 11.5426 13.415 11.55 13.422C11.5574 13.429 11.5648 13.436 11.5722 13.443C11.9268 13.776 12.4019 13.9804 12.9236 13.9804H17.7027C18.3754 13.9804 18.9825 13.6949 19.4128 13.2381C19.4161 13.2409 19.4193 13.2441 19.4225 13.2469C19.4299 13.2539 19.4373 13.2609 19.4447 13.2679C19.4521 13.2749 19.4595 13.2818 19.4669 13.2888C19.4743 13.2958 19.4816 13.3028 19.489 13.3098C19.4964 13.3168 19.5038 13.3238 19.5112 13.3307C19.5186 13.3377 19.526 13.3447 19.5334 13.3517C19.5407 13.3587 19.5481 13.3657 19.5555 13.3727C19.5629 13.3796 19.5703 13.3866 19.5777 13.3936C19.5851 13.4006 19.5925 13.4076 19.5998 13.4146C19.6072 13.4216 19.6146 13.4285 19.622 13.4355C19.6294 13.4425 19.6368 13.4495 19.6442 13.4565C19.6516 13.4635 19.6589 13.4705 19.6663 13.4774C19.6737 13.4844 19.6811 13.4914 19.6885 13.4984C19.6959 13.5054 19.7033 13.5124 19.7106 13.5194C19.718 13.5263 19.7254 13.5333 19.7328 13.5403C19.7402 13.5473 19.7476 13.5543 19.755 13.5613C19.7624 13.5683 19.7697 13.5752 19.7771 13.5822C19.7845 13.5892 19.7919 13.5962 19.7993 13.6032C19.8067 13.6102 19.8141 13.6172 19.8215 13.6242C20.0366 13.8295 20.3266 13.9558 20.6451 13.9558H23.4615C23.8835 13.9558 24.2552 13.7345 24.4694 13.4011C24.4745 13.4062 24.48 13.4108 24.4851 13.416C24.4925 13.4234 24.4999 13.4299 24.5073 13.4369C24.5147 13.4444 24.5221 13.4509 24.5294 13.4579C24.5368 13.4653 24.5442 13.4719 24.5516 13.4788C24.559 13.4863 24.5664 13.4928 24.5738 13.4998C24.5812 13.5073 24.5885 13.5138 24.5959 13.5208C24.6033 13.5282 24.6107 13.5347 24.6181 13.5417C24.6255 13.5492 24.6329 13.5557 24.6403 13.5627C24.6476 13.5701 24.655 13.5766 24.6624 13.5836C24.6698 13.5911 24.6772 13.5976 24.6846 13.6046C24.9039 13.8244 25.2045 13.9553 25.5309 13.9553H28.2766C28.6192 13.9553 28.9424 13.7872 29.1414 13.5059C29.3404 13.2246 29.3921 12.8613 29.2804 12.5348L29.1608 12.185C29.2199 12.2493 29.2813 12.3122 29.345 12.3723C29.3524 12.3792 29.3598 12.3862 29.3672 12.3932C29.3746 12.4002 29.382 12.4072 29.3893 12.4142C29.3967 12.4212 29.4041 12.4281 29.4115 12.4351C29.4189 12.4421 29.4263 12.4491 29.4337 12.4561C29.4411 12.4631 29.4484 12.4701 29.4558 12.477C29.4632 12.484 29.4706 12.491 29.478 12.498C29.4854 12.505 29.4928 12.512 29.5002 12.519C29.5075 12.5259 29.5149 12.5329 29.5223 12.5399C29.5297 12.5469 29.5371 12.5539 29.5445 12.5609C29.5519 12.5679 29.5593 12.5749 29.5666 12.5818C29.574 12.5888 29.5814 12.5958 29.5888 12.6028C29.5962 12.6098 29.6036 12.6168 29.611 12.6238C29.6184 12.6307 29.6257 12.6377 29.6331 12.6447C29.6405 12.6517 29.6479 12.6587 29.6553 12.6657C29.6627 12.6727 29.6701 12.6796 29.6774 12.6866C29.6848 12.6936 29.6922 12.7006 29.6996 12.7076C29.707 12.7146 29.7144 12.7216 29.7218 12.7285C29.7292 12.7355 29.7365 12.7425 29.7439 12.7495C29.7513 12.7565 29.7587 12.7635 29.7661 12.7705C29.7735 12.7774 29.7809 12.7844 29.7883 12.7914C29.7956 12.7984 29.803 12.8054 29.8104 12.8124C29.8178 12.8194 29.8252 12.8263 29.833 12.8333C29.8404 12.8403 29.8478 12.8473 29.8552 12.8543C29.8626 12.8613 29.87 12.8683 29.8774 12.8752C29.8848 12.8822 29.8921 12.8892 29.8995 12.8962C29.9069 12.9032 29.9143 12.9102 29.9222 12.9172C29.9295 12.9242 29.9369 12.9311 29.9443 12.9381C29.9517 12.9451 29.9591 12.9521 29.9665 12.9591C29.9739 12.9661 29.9813 12.9731 29.9886 12.98C29.996 12.987 30.0034 12.994 30.0113 13.001C30.659 13.6209 31.533 14 32.4892 14H34.5923C35.6551 14 36.6159 13.5319 37.2776 12.7854C37.303 12.8166 37.3288 12.8468 37.3565 12.8757C37.3782 12.8985 37.4008 12.9204 37.4244 12.9418C37.4318 12.9488 37.4392 12.9558 37.4465 12.9628C37.4539 12.9698 37.4613 12.9768 37.4687 12.9838C37.4761 12.9908 37.4835 12.9977 37.4909 13.0047C37.4983 13.0117 37.5056 13.0187 37.513 13.0257C37.5204 13.0327 37.5278 13.0397 37.5352 13.0466C37.5426 13.0536 37.55 13.0606 37.5574 13.0676C37.5647 13.0746 37.5721 13.0816 37.5795 13.0886C37.5869 13.0955 37.5943 13.1025 37.6017 13.1095C37.6091 13.1165 37.6164 13.1235 37.6238 13.1305C37.6312 13.1375 37.6386 13.1444 37.646 13.1514C37.6534 13.1584 37.6608 13.1654 37.6682 13.1724C37.6755 13.1794 37.6829 13.1864 37.6903 13.1933C37.6977 13.2003 37.7051 13.2073 37.7125 13.2143C37.7199 13.2213 37.7273 13.2283 37.7346 13.2353C37.742 13.2422 37.7494 13.2492 37.7568 13.2562C37.7642 13.2632 37.7716 13.2702 37.779 13.2772C37.7864 13.2842 37.7937 13.2912 37.8011 13.2981C37.8085 13.3051 37.8159 13.3121 37.8233 13.3191C37.8307 13.3261 37.8381 13.3331 37.8455 13.3401C37.8528 13.347 37.8602 13.354 37.8676 13.361C37.875 13.368 37.8824 13.375 37.8898 13.382C37.8972 13.389 37.9046 13.3959 37.9119 13.4029C37.9193 13.4099 37.9267 13.4169 37.9341 13.4239C37.9415 13.4309 37.9489 13.4379 37.9563 13.4448C37.9636 13.4518 37.971 13.4588 37.9784 13.4658C37.9858 13.4728 37.9932 13.4798 38.0006 13.4868C38.008 13.4937 38.0154 13.5007 38.0227 13.5077C38.0301 13.5147 38.0375 13.5217 38.0449 13.5287C38.0523 13.5357 38.0597 13.5426 38.0671 13.5496C38.0745 13.5566 38.0818 13.5636 38.0897 13.5706C38.3718 13.8426 38.7518 13.9977 39.1428 13.9977H41.1808C41.6868 13.9977 42.1356 13.7471 42.4126 13.3629C42.4182 13.368 42.4237 13.3731 42.4292 13.3782C42.4366 13.3852 42.444 13.3922 42.4514 13.3992C42.4588 13.4062 42.4662 13.4136 42.4736 13.4202C42.481 13.4271 42.4883 13.4346 42.4957 13.4411C42.5031 13.4481 42.5105 13.4556 42.5179 13.4621C42.5253 13.4691 42.5327 13.476 42.5401 13.483C42.5474 13.49 42.5548 13.4975 42.5622 13.504C42.5696 13.511 42.577 13.518 42.5844 13.525C42.5918 13.5319 42.5992 13.5389 42.6065 13.5459C42.6139 13.5529 42.6213 13.5599 42.6287 13.5669C42.6361 13.5739 42.6435 13.5813 42.6513 13.5878C42.9233 13.8412 43.2857 13.9967 43.6842 13.9967H45.7221C46.1344 13.9967 46.5352 13.8249 46.821 13.5245C46.9304 13.4094 47.0204 13.2786 47.0892 13.137C47.0952 13.1426 47.1012 13.1486 47.1077 13.1542C47.1151 13.1612 47.1225 13.1682 47.1303 13.1752C47.1377 13.1822 47.1451 13.1892 47.1525 13.1961C47.1599 13.2031 47.1673 13.2101 47.1746 13.2171C47.182 13.2241 47.1894 13.2311 47.1968 13.2381C47.2042 13.245 47.2116 13.252 47.2194 13.259C47.2268 13.266 47.2342 13.273 47.2416 13.28C47.249 13.287 47.2564 13.2939 47.2637 13.3009C47.2711 13.3079 47.2785 13.3149 47.2859 13.3219C47.2933 13.3289 47.3007 13.3359 47.3085 13.3428C47.7416 13.7476 48.3206 13.9958 48.9564 13.9958C50.1411 13.9958 51.1301 13.1351 51.3411 12.0011H52.9935C53.427 12.0011 53.8343 11.8865 54.1875 11.6862C54.2687 12.1259 54.4926 12.5157 54.8094 12.8045C54.8168 12.8114 54.8242 12.8184 54.8315 12.8254C54.8389 12.8324 54.8463 12.8394 54.8537 12.8464C54.8611 12.8534 54.8685 12.8603 54.8759 12.8673C54.8833 12.8743 54.8906 12.8813 54.898 12.8883C54.9054 12.8953 54.9128 12.9023 54.9202 12.9092C54.9276 12.9162 54.935 12.9232 54.9423 12.9302C54.9497 12.9372 54.9571 12.9442 54.9645 12.9512C54.9719 12.9581 54.9793 12.9651 54.9867 12.9721C54.9941 12.9791 55.0014 12.9861 55.0088 12.9931C55.0162 13.0001 55.0236 13.0071 55.031 13.014C55.0384 13.021 55.0458 13.028 55.0532 13.035C55.0605 13.042 55.0679 13.049 55.0753 13.056C55.0827 13.0629 55.0901 13.0699 55.0975 13.0769C55.1049 13.0839 55.1123 13.0909 55.1196 13.0979C55.127 13.1049 55.1344 13.1118 55.1418 13.1188C55.1492 13.1258 55.1566 13.1328 55.164 13.1398C55.1714 13.1468 55.1787 13.1538 55.1861 13.1607C55.1935 13.1677 55.2009 13.1747 55.2083 13.1817C55.2157 13.1887 55.2231 13.1957 55.2304 13.2027C55.2378 13.2096 55.2452 13.2166 55.2526 13.2236C55.26 13.2306 55.2674 13.2376 55.2748 13.2446C55.2822 13.2516 55.2895 13.2585 55.2974 13.2655C55.3048 13.2725 55.3122 13.2795 55.3196 13.2865C55.327 13.2935 55.3343 13.3005 55.3417 13.3075C55.3491 13.3144 55.3565 13.3214 55.3639 13.3284C55.3713 13.3354 55.3787 13.3424 55.3865 13.3494C55.3939 13.3564 55.4013 13.3633 55.4087 13.3703C55.4161 13.3773 55.4234 13.3843 55.4308 13.3913C55.4382 13.3983 55.4456 13.4053 55.453 13.4122C55.4604 13.4192 55.4678 13.4262 55.4756 13.4332C55.8302 13.7662 56.3053 13.9707 56.827 13.9707H61.6061C62.9077 13.9707 63.9668 12.9023 63.9668 11.5894V11.309C63.9668 10.6113 63.6681 9.9835 63.193 9.54757C63.1856 9.54059 63.1782 9.5336 63.1708 9.52661C63.1634 9.51963 63.1561 9.51264 63.1482 9.50566C63.1408 9.49867 63.1334 9.49168 63.126 9.4847C63.1187 9.47771 63.1113 9.47073 63.1039 9.46374C63.0965 9.45675 63.0891 9.44977 63.0817 9.44278C63.0743 9.43579 63.067 9.42881 63.0591 9.42182C63.0517 9.41484 63.0443 9.40785 63.0369 9.40087C63.0295 9.39388 63.0222 9.38689 63.0148 9.37991C63.0074 9.37292 63 9.36593 62.9926 9.35895C62.9852 9.35196 62.9778 9.34498 62.97 9.33799C62.9626 9.33101 62.9552 9.32402 62.9478 9.31703C62.9404 9.31005 62.9331 9.30306 62.9257 9.29607C62.9183 9.28909 62.9109 9.2821 62.9035 9.27512C62.8961 9.26813 62.8887 9.26114 62.8813 9.25416C62.874 9.24717 62.8666 9.24019 62.8592 9.2332C62.8518 9.22621 62.8444 9.21923 62.837 9.21224C62.8296 9.20526 62.8222 9.19827 62.8149 9.19128C62.8075 9.1843 62.8001 9.17731 62.7927 9.17033C62.7853 9.16334 62.7779 9.15635 62.7705 9.14937C62.7636 9.14285 62.7571 9.13633 62.7502 9.13027C63.3472 8.6976 63.7373 7.99202 63.7373 7.19607C63.7373 6.51331 63.4506 5.89714 62.9926 5.46214C62.9852 5.45516 62.9778 5.44817 62.9705 5.44118C62.9631 5.4342 62.9557 5.42721 62.9483 5.42023C62.9409 5.41324 62.9335 5.40625 62.9261 5.39927C62.9187 5.39228 62.9114 5.3853 62.904 5.37831C62.8966 5.37132 62.8892 5.36434 62.8818 5.35735C62.8744 5.35037 62.867 5.34338 62.8596 5.33639C62.8523 5.32941 62.8449 5.32242 62.8375 5.31544C62.8301 5.30845 62.8227 5.30146 62.8153 5.29448C62.8079 5.28749 62.8005 5.28051 62.7932 5.27352C62.7858 5.26653 62.7784 5.25955 62.7705 5.25256C62.7631 5.24558 62.7558 5.23859 62.7484 5.2316C62.741 5.22462 62.7336 5.21763 62.7262 5.21065C62.7193 5.20412 62.7124 5.1976 62.705 5.19062C63.4566 4.79195 63.9705 3.99601 63.9705 3.08177L63.9996 3.09574Z" fill="black"/>
<path d="M37.1005 2.76039L36.6896 9.888C36.6042 11.3658 35.3917 12.5203 33.924 12.5203H31.8209C30.3545 12.5203 29.1421 11.3672 29.0553 9.89079L28.6379 2.76225C28.5779 1.73949 29.384 0.876953 30.3998 0.876953H30.4072C31.3398 0.876953 32.1113 1.60909 32.1686 2.54801L32.5522 8.84661C32.5633 9.02685 32.7111 9.16704 32.8897 9.16704C33.0693 9.16704 33.2176 9.02546 33.2277 8.84475L33.5763 2.55779C33.6285 1.61468 34.4018 0.876953 35.3382 0.876953C36.353 0.876953 37.1587 1.73856 37.1 2.76039H37.1005Z" fill="white"/>
<path d="M6.57706 3.18615L7.02768 4.51396C7.13618 4.83392 6.89979 5.16599 6.56459 5.16459C6.35729 5.16366 6.17353 5.03046 6.10658 4.83299L5.20903 2.20019C4.93109 1.38515 4.17112 0.838379 3.31697 0.838379C2.21211 0.838379 1.31641 1.74191 1.31641 2.85641V10.7106C1.31641 11.6886 2.10269 12.4818 3.07227 12.4818C4.27962 12.4818 5.12685 11.2806 4.73071 10.1298L4.28978 8.84809C4.17989 8.52906 4.4149 8.1956 4.7501 8.1956C4.9574 8.1956 5.14208 8.32833 5.21042 8.5258L6.10474 11.1237C6.38453 11.9364 7.14357 12.4813 7.9968 12.4813C9.10304 12.4813 9.99921 11.5768 9.99921 10.4614V2.6119C9.99921 1.63246 9.212 0.838379 8.24104 0.838379C7.03507 0.838379 6.18692 2.03532 6.57752 3.18615H6.57706Z" fill="white"/>
<path d="M14.8901 5.01581H16.7914C17.6363 5.01581 18.3211 5.7065 18.3211 6.55879C18.3211 7.41109 17.6363 8.10177 16.7914 8.10177H14.8901C14.7627 8.10177 14.6593 8.2061 14.6593 8.33464V8.89772C14.6593 9.02626 14.7627 9.13058 14.8901 9.13058H17.0232C17.8681 9.13058 18.5528 9.82127 18.5528 10.6736V10.9539C18.5528 11.8062 17.8681 12.4969 17.0232 12.4969H12.2441C11.6065 12.4969 11.0898 11.9758 11.0898 11.3326V2.01834C11.0898 1.37516 11.6065 0.854004 12.2441 0.854004H17.0232C17.8681 0.854004 18.5528 1.54469 18.5528 2.39698V2.44356C18.5528 3.29585 17.8681 3.98654 17.0232 3.98654H14.8901C14.7627 3.98654 14.6593 4.09086 14.6593 4.21941V4.78248C14.6593 4.91102 14.7627 5.01535 14.8901 5.01535V5.01581Z" fill="white"/>
<path d="M58.814 5.01581H60.7153C61.5602 5.01581 62.2449 5.7065 62.2449 6.55879C62.2449 7.41109 61.5602 8.10177 60.7153 8.10177H58.814C58.6865 8.10177 58.5831 8.2061 58.5831 8.33464V8.89772C58.5831 9.02626 58.6865 9.13058 58.814 9.13058H60.947C61.7919 9.13058 62.4767 9.82127 62.4767 10.6736V10.9539C62.4767 11.8062 61.7919 12.4969 60.947 12.4969H56.1679C55.5303 12.4969 55.0137 11.9758 55.0137 11.3326V2.01834C55.0137 1.37516 55.5303 0.854004 56.1679 0.854004H60.947C61.7919 0.854004 62.4767 1.54469 62.4767 2.39698V2.44356C62.4767 3.29585 61.7919 3.98654 60.947 3.98654H58.814C58.6865 3.98654 58.5831 4.09086 58.5831 4.21941V4.78248C58.5831 4.91102 58.6865 5.01535 58.814 5.01535V5.01581Z" fill="white"/>
<path d="M45.4592 4.45427C45.3798 2.4558 43.7509 0.876953 41.7679 0.876953C39.7854 0.876953 38.156 2.4558 38.0766 4.45427L37.7857 11.7938C37.77 12.1901 38.0844 12.5203 38.4778 12.5203H40.5158C40.8981 12.5203 41.2083 12.2074 41.2083 11.8217V10.6574C41.2083 10.5288 41.3118 10.4245 41.4392 10.4245H42.0971C42.2245 10.4245 42.328 10.5288 42.328 10.6574V11.8217C42.328 12.2074 42.6382 12.5203 43.0205 12.5203H45.0585C45.4518 12.5203 45.7663 12.1901 45.7506 11.7938L45.4597 4.45427H45.4592ZM42.2758 7.68647C42.2758 7.96963 42.0482 8.19878 41.7679 8.19878C41.4877 8.19878 41.26 7.96963 41.26 7.68647V4.51947C41.26 4.2363 41.4872 4.00716 41.7679 4.00716C42.0486 4.00716 42.2758 4.2363 42.2758 4.51947V7.68647Z" fill="white"/>
<path d="M52.3301 0.876953H47.8497C47.213 0.876953 46.6973 1.39765 46.6973 2.03943V10.9108C46.6973 11.7994 47.4115 12.5199 48.2924 12.5199C49.1734 12.5199 49.8876 11.7994 49.8876 10.9108V10.5251H52.3296C53.2221 10.5251 53.9456 9.79532 53.9456 8.89505V2.50703C53.9456 1.60676 53.2221 0.876953 52.3296 0.876953H52.3301ZM50.8295 7.68693C50.8295 7.9701 50.6024 8.19924 50.3216 8.19924C50.0409 8.19924 49.8138 7.9701 49.8138 7.68693V4.51993C49.8138 4.36671 49.8807 4.22978 49.986 4.13617C50.07 4.05094 50.1891 3.99738 50.3216 3.99738C50.4541 3.99738 50.5645 4.04675 50.6481 4.12639C50.6513 4.12918 50.6541 4.13291 50.6568 4.1357C50.7626 4.22978 50.8295 4.36671 50.8295 4.51993V7.68693Z" fill="white"/>
<path d="M27.8207 12.165L27.2925 10.6206C27.1023 10.03 26.8488 9.6365 25.7075 9.6365C25.7735 9.6365 25.8382 9.6351 25.9019 9.63231H26.0178C26.9102 9.63231 27.6337 8.9025 27.6337 8.00224V2.50703C27.6337 1.60676 26.9107 0.876953 26.0178 0.876953H20.7539C20.1163 0.876953 19.5996 1.39811 19.5996 2.04129V12.1012C19.5996 12.307 19.7649 12.4738 19.969 12.4738H22.7854C22.9894 12.4738 23.1547 12.307 23.1547 12.1012V10.8819C23.1547 10.6294 23.3579 10.4245 23.6081 10.4245C23.8057 10.4245 23.9803 10.5535 24.0403 10.7431L24.5043 12.2139C24.5532 12.3685 24.6954 12.4733 24.8561 12.4733H27.6019C27.7607 12.4733 27.872 12.3159 27.8202 12.1645L27.8207 12.165ZM24.1012 7.68693C24.1012 7.9701 23.8741 8.19924 23.5933 8.19924C23.3126 8.19924 23.0855 7.9701 23.0855 7.68693V4.51993C23.0855 4.36345 23.1552 4.22373 23.2646 4.12965C23.3482 4.04814 23.465 3.99738 23.5938 3.99738C23.7226 3.99738 23.8487 4.05234 23.9332 4.13989C24.0361 4.23351 24.1012 4.36904 24.1012 4.51947V7.68647V7.68693Z" fill="white"/>
</svg>
