<svg width="77" height="32" viewBox="0 0 77 32" fill="none" xmlns="http://www.w3.org/2000/svg">
<path d="M54.0184 17.6992H55.54C56.3299 17.6992 56.97 18.3393 56.97 19.1292V30.5695C56.97 31.3594 56.3299 31.9995 55.54 31.9995H54.0184C53.2285 31.9995 52.5884 31.3594 52.5884 30.5695V19.1292C52.5884 18.3393 53.2285 17.6992 54.0184 17.6992Z" fill="white"/>
<path d="M13.956 24.9007V22.3827C13.956 22.2174 13.8891 22.0686 13.781 21.96C13.6746 21.8536 13.527 21.7861 13.3646 21.7849C13.0328 21.7815 12.7611 22.0726 12.7611 22.405V24.9276C12.7611 25.0734 12.8497 25.205 12.9847 25.2593L13.7936 25.5854C14.0081 25.6832 14.246 25.7798 14.4971 25.8777L14.6058 25.9194C14.6401 25.9331 14.675 25.9463 14.7099 25.9595L14.901 26.0327L15.7447 26.3564H15.7453L17.419 26.9982C17.9715 27.2099 18.337 27.7413 18.337 28.3333V30.5699C18.337 31.3598 17.697 31.9999 16.907 31.9999H9.80893C9.01899 31.9999 8.37891 31.3598 8.37891 30.5699V28.4763C8.37891 28.2784 8.53907 28.1188 8.73641 28.1188H12.403C12.6003 28.1188 12.7605 28.2784 12.7605 28.4763V29.3595C12.7605 29.5248 12.8269 29.6741 12.9355 29.7822C13.0419 29.8886 13.1895 29.9561 13.352 29.9572C13.6837 29.9601 13.9554 29.6701 13.9554 29.3372V28.4351C13.9554 28.2881 13.8656 28.1566 13.7289 28.1028L12.7811 27.7287C12.4362 27.5794 12.0415 27.4307 11.6336 27.2762L10.6544 26.8895L9.2844 26.3484C8.73813 26.1328 8.37948 25.6054 8.37948 25.0185V19.1302C8.37948 18.3408 9.01956 17.7002 9.8095 17.7002H16.9076C17.6975 17.7002 18.3376 18.3408 18.3376 19.1302V24.9018C18.3376 25.0992 18.1775 25.2593 17.9801 25.2593H14.3135C14.1162 25.2593 13.956 25.0992 13.956 24.9018V24.9007Z" fill="white"/>
<path d="M27.2985 17.6992H20.9349C20.145 17.6992 19.5049 18.3393 19.5049 19.1292V20.3551C19.5049 21.145 20.145 21.7851 20.9349 21.7851H21.9262V29.8087C21.9262 31.0185 22.9072 31.9995 24.117 31.9995C25.3268 31.9995 26.3078 31.0185 26.3078 29.8087V21.7851H27.2991C28.089 21.7851 28.7291 21.145 28.7291 20.3551V19.1292C28.7291 18.3393 28.089 17.6992 27.2991 17.6992H27.2985Z" fill="white"/>
<path d="M39.7403 19.8735V27.0202C39.7403 29.7699 37.5112 31.999 34.7615 31.999C32.0118 31.999 29.7827 29.7699 29.7827 27.0202V19.8735C29.7827 18.6723 30.7563 17.6987 31.9575 17.6987C33.1587 17.6987 34.1323 18.6723 34.1323 19.8735V27.2856C34.1323 27.6334 34.4137 27.9148 34.7615 27.9148C35.1093 27.9148 35.3907 27.6334 35.3907 27.2856V19.8735C35.3907 18.6723 36.3643 17.6987 37.5655 17.6987H37.5661C38.7673 17.6987 39.7409 18.6723 39.7409 19.8735H39.7403Z" fill="white"/>
<path d="M45.5441 17.6992H42.6268C41.8369 17.6992 41.1968 18.3393 41.1968 19.1292V30.5695C41.1968 31.3594 41.8369 31.9995 42.6268 31.9995H45.7151C48.7164 31.9995 51.1492 29.5667 51.1492 26.5654V23.1333C51.1492 20.132 48.7164 17.6992 45.7151 17.6992H45.5441ZM45.9439 27.9662C45.7225 27.9662 45.5435 27.7872 45.5435 27.5658V22.1889C45.5435 21.9676 45.7225 21.7885 45.9439 21.7885C46.4175 21.7885 46.8019 22.1729 46.8019 22.6465V27.1082C46.8019 27.5818 46.4175 27.9662 45.9439 27.9662Z" fill="white"/>
<path d="M62.819 17.6992H62.0176C60.0596 17.6992 58.4717 19.2865 58.4717 21.2451V28.4542C58.4717 30.4122 60.059 32.0001 62.0176 32.0001H64.8782C66.8362 32.0001 68.4241 30.4127 68.4241 28.4542V21.2451C68.4241 19.2871 66.8368 17.6992 64.8782 17.6992H62.819ZM63.4476 27.9662C63.0998 27.9662 62.8184 27.6848 62.8184 27.337V22.4177C62.8184 22.07 63.0998 21.7885 63.4476 21.7885C63.7954 21.7885 64.0768 22.07 64.0768 22.4177V27.337C64.0768 27.6848 63.7954 27.9662 63.4476 27.9662Z" fill="white"/>
<path d="M44.8462 2.36057L44.3371 11.1146C44.2313 12.9296 42.7292 14.3476 40.9108 14.3476H38.3053C36.4885 14.3476 34.9864 12.9313 34.8789 11.1181L34.3618 2.36286C34.2874 1.10673 35.2862 0.0473633 36.5446 0.0473633H36.5538C37.7092 0.0473633 38.665 0.946564 38.736 2.09974L39.2113 9.83561C39.225 10.057 39.4081 10.2292 39.6295 10.2292C39.852 10.2292 40.0356 10.0553 40.0482 9.83332L40.48 2.11175C40.5447 0.953428 41.5028 0.0473633 42.6628 0.0473633C43.9201 0.0473633 44.9183 1.10558 44.8456 2.36057H44.8462Z" fill="white"/>
<path d="M6.51749 2.88351L7.07577 4.51431C7.2102 4.90728 6.91733 5.31512 6.50205 5.31341C6.24521 5.31226 6.01755 5.14867 5.93461 4.90614L4.82262 1.67256C4.47827 0.672113 3.53674 0 2.47852 0C1.1097 0 0 1.1097 0 2.47852V12.1249C0 13.3261 0.974134 14.3003 2.17536 14.3003C3.67117 14.3003 4.72081 12.8251 4.23002 11.4116L3.68375 9.83744C3.54761 9.44561 3.83876 9.03605 4.25404 9.03605C4.51088 9.03605 4.73968 9.19908 4.82434 9.44161L5.93232 12.6323C6.27896 13.6304 7.21935 14.2997 8.27643 14.2997C9.64696 14.2997 10.7572 13.1889 10.7572 11.8189V2.17822C10.7572 0.975278 9.78196 0 8.57902 0C7.08493 0 6.03414 1.47007 6.51806 2.88351H6.51749Z" fill="white"/>
<path d="M16.9895 5.13053H19.345C20.3918 5.13053 21.2401 5.97882 21.2401 7.0256C21.2401 8.07238 20.3918 8.92068 19.345 8.92068H16.9895C16.8316 8.92068 16.7035 9.04881 16.7035 9.20668V9.89824C16.7035 10.0561 16.8316 10.1842 16.9895 10.1842H19.6322C20.6789 10.1842 21.5272 11.0325 21.5272 12.0793V12.4237C21.5272 13.4704 20.6789 14.3187 19.6322 14.3187H13.7113C12.9213 14.3187 12.2812 13.6787 12.2812 12.8887V1.44907C12.2812 0.659123 12.9213 0.019043 13.7113 0.019043H19.6322C20.6789 0.019043 21.5272 0.867335 21.5272 1.91411V1.97132C21.5272 3.0181 20.6789 3.86639 19.6322 3.86639H16.9895C16.8316 3.86639 16.7035 3.99452 16.7035 4.15239V4.84395C16.7035 5.00183 16.8316 5.12996 16.9895 5.12996V5.13053Z" fill="white"/>
<path d="M72.2639 5.13053H74.6194C75.6662 5.13053 76.5145 5.97882 76.5145 7.0256C76.5145 8.07238 75.6662 8.92068 74.6194 8.92068H72.2639C72.106 8.92068 71.9779 9.04881 71.9779 9.20668V9.89824C71.9779 10.0561 72.106 10.1842 72.2639 10.1842H74.9066C75.9534 10.1842 76.8016 11.0325 76.8016 12.0793V12.4237C76.8016 13.4704 75.9534 14.3187 74.9066 14.3187H68.9857C68.1957 14.3187 67.5557 13.6787 67.5557 12.8887V1.44907C67.5557 0.659123 68.1957 0.019043 68.9857 0.019043H74.9066C75.9534 0.019043 76.8016 0.867335 76.8016 1.91411V1.97132C76.8016 3.0181 75.9534 3.86639 74.9066 3.86639H72.2639C72.106 3.86639 71.9779 3.99452 71.9779 4.15239V4.84395C71.9779 5.00183 72.106 5.12996 72.2639 5.12996V5.13053Z" fill="white"/>
<path d="M55.3762 4.44098C55.2778 1.98648 53.2597 0.0473633 50.8029 0.0473633C48.3467 0.0473633 46.3281 1.98648 46.2297 4.44098L45.8694 13.4553C45.8499 13.9421 46.2394 14.3476 46.7268 14.3476H49.2517C49.7253 14.3476 50.1097 13.9632 50.1097 13.4896V12.0596C50.1097 11.9017 50.2378 11.7736 50.3957 11.7736H51.2108C51.3687 11.7736 51.4968 11.9017 51.4968 12.0596V13.4896C51.4968 13.9632 51.8812 14.3476 52.3548 14.3476H54.8797C55.367 14.3476 55.7566 13.9421 55.7371 13.4553L55.3767 4.44098H55.3762ZM51.4322 8.41073C51.4322 8.75852 51.1502 9.03994 50.8029 9.03994C50.4557 9.03994 50.1737 8.75852 50.1737 8.41073V4.52106C50.1737 4.17328 50.4552 3.89185 50.8029 3.89185C51.1507 3.89185 51.4322 4.17328 51.4322 4.52106V8.41073Z" fill="white"/>
<path d="M64.0596 0.0473633H58.5088C57.72 0.0473633 57.0811 0.686871 57.0811 1.4751V12.3708C57.0811 13.4622 57.966 14.3471 59.0573 14.3471C60.1487 14.3471 61.0336 13.4622 61.0336 12.3708V11.8971H64.059C65.1647 11.8971 66.0611 11.0008 66.0611 9.8951V2.0494C66.0611 0.943704 65.1647 0.0473633 64.059 0.0473633H64.0596ZM62.2006 8.41131C62.2006 8.75909 61.9191 9.04052 61.5713 9.04052C61.2236 9.04052 60.9421 8.75909 60.9421 8.41131V4.52163C60.9421 4.33344 61.0251 4.16527 61.1555 4.05029C61.2596 3.94562 61.4072 3.87984 61.5713 3.87984C61.7355 3.87984 61.8722 3.94047 61.9757 4.03828C61.9798 4.04171 61.9832 4.04629 61.9866 4.04972C62.1176 4.16527 62.2006 4.33344 62.2006 4.52163V8.41131Z" fill="white"/>
<path d="M33.1803 13.9112L32.526 12.0144C32.2903 11.2891 31.9763 10.8057 30.5622 10.8057C30.644 10.8057 30.7241 10.804 30.8031 10.8006H30.9466C32.0523 10.8006 32.9487 9.90425 32.9487 8.79856V2.0494C32.9487 0.943704 32.0529 0.0473633 30.9466 0.0473633H24.4251C23.6352 0.0473633 22.9951 0.687443 22.9951 1.47739V13.8328C22.9951 14.0857 23.1999 14.2904 23.4527 14.2904H26.942C27.1948 14.2904 27.3996 14.0857 27.3996 13.8328V12.3353C27.3996 12.0253 27.6513 11.7736 27.9613 11.7736C28.2061 11.7736 28.4224 11.932 28.4967 12.1648L29.0716 13.9713C29.1322 14.1612 29.3084 14.2899 29.5075 14.2899H32.9092C33.106 14.2899 33.2438 14.0965 33.1798 13.9106L33.1803 13.9112ZM28.5722 8.41131C28.5722 8.75909 28.2908 9.04052 27.943 9.04052C27.5952 9.04052 27.3138 8.75909 27.3138 8.41131V4.52163C27.3138 4.32944 27.4002 4.15783 27.5357 4.04229C27.6393 3.94218 27.784 3.87984 27.9436 3.87984C28.1032 3.87984 28.2593 3.94733 28.364 4.05487C28.4916 4.16985 28.5722 4.3363 28.5722 4.52106V8.41073V8.41131Z" fill="white"/>
</svg>
