<svg width="161" height="24" viewBox="0 0 161 24" fill="none" xmlns="http://www.w3.org/2000/svg">
<path d="M48.5078 4.80083V0.000976562L19.706 0.000976563V4.80083L48.5078 4.80083Z" fill="white"/>
<path d="M48.5105 14.4004V9.60059H29.3111C28.6746 9.60059 28.0641 9.85343 27.6141 10.3035C27.164 10.7536 26.9111 11.364 26.9111 12.0005V21.6002C26.9111 22.2367 27.164 22.8471 27.6141 23.2972C28.0641 23.7473 28.6746 24.0001 29.3111 24.0001H48.5105V19.2003H32.1883C32.0612 19.1996 31.9395 19.1488 31.8497 19.0589C31.7598 18.9691 31.709 18.8474 31.7083 18.7203V14.8804C31.709 14.7533 31.7598 14.6317 31.8497 14.5418C31.9395 14.4519 32.0612 14.4011 32.1883 14.4004H48.5105Z" fill="white"/>
<path d="M160.795 4.80083V0.000976562L139.196 0.000976563V4.80083L160.795 4.80083Z" fill="white"/>
<path d="M160.795 14.4004V9.60059H141.595C140.959 9.60059 140.348 9.85343 139.898 10.3035C139.448 10.7536 139.195 11.364 139.195 12.0005V21.6002C139.195 22.2367 139.448 22.8471 139.898 23.2972C140.348 23.7473 140.959 24.0001 141.595 24.0001H160.795V19.2003H144.475C144.348 19.2003 144.226 19.1497 144.136 19.0597C144.046 18.9697 143.995 18.8476 143.995 18.7203V14.8804C143.995 14.7531 144.046 14.631 144.136 14.541C144.226 14.451 144.348 14.4004 144.475 14.4004H160.795Z" fill="white"/>
<path d="M19.7087 9.60068V18.1578C19.709 18.2524 19.6812 18.345 19.629 18.4239C19.5768 18.5028 19.5024 18.5645 19.4152 18.6013C19.328 18.638 19.2319 18.6482 19.1389 18.6305C19.046 18.6128 18.9603 18.568 18.8928 18.5017L0 0.000976562V24.0002H4.79985V11.4193L16.2288 22.619C17.1401 23.5078 18.3637 24.0038 19.6367 24.0002C20.9288 24.0002 22.168 23.487 23.0816 22.5733C23.9953 21.6597 24.5086 20.4205 24.5086 19.1284V9.60068H19.7087Z" fill="white"/>
<path d="M102.843 2.47023C102.498 1.73247 101.95 1.10828 101.264 0.670903C100.577 0.233529 99.7795 0.00112797 98.9653 0.000976563V0.000976563C98.1517 0.000975866 97.355 0.232715 96.6684 0.66907C95.9817 1.10542 95.4336 1.72834 95.0881 2.4649L88.0483 17.5578C88.0096 17.6404 87.9482 17.7102 87.8712 17.7592C87.7942 17.8081 87.7049 17.8341 87.6136 17.8341C87.5224 17.8341 87.4331 17.8081 87.3561 17.7592C87.2791 17.7102 87.2177 17.6404 87.179 17.5578L78.9872 0.000976563H73.6914L83.7311 21.531C84.0762 22.2694 84.6248 22.8939 85.3126 23.3313C86.0003 23.7687 86.7986 24.0008 87.6136 24.0002C88.4272 24.0017 89.2242 23.7705 89.9106 23.3339C90.5971 22.8974 91.1445 22.2737 91.4882 21.5363L98.528 6.44345C98.5671 6.36098 98.6289 6.2913 98.7061 6.24252C98.7832 6.19374 98.8727 6.16784 98.964 6.16784C99.0553 6.16784 99.1447 6.19374 99.2219 6.24252C99.299 6.2913 99.3608 6.36098 99.4 6.44345L105.349 19.2004H98.9493V24.0002H112.874L102.843 2.47023Z" fill="white"/>
<path d="M73.9495 24L69.2616 13.9469C70.7571 13.3879 72.0244 12.3477 72.8642 10.9898C73.704 9.63187 74.0686 8.03334 73.9006 6.4456C73.7327 4.85786 73.0418 3.37097 71.9365 2.21879C70.8312 1.0666 69.3744 0.314481 67.795 0.0807065C67.4497 0.0219632 67.0998 -0.00481602 66.7497 0.000708899H50.9102V4.80056H66.7497C67.3862 4.80056 67.9966 5.05341 68.4467 5.50348C68.8967 5.95356 69.1496 6.56399 69.1496 7.20049C69.1496 7.83699 68.8967 8.44742 68.4467 8.89749C67.9966 9.34757 67.3862 9.60042 66.7497 9.60042H53.3101C52.6736 9.60042 52.0632 9.85326 51.6131 10.3033C51.163 10.7534 50.9102 11.3638 50.9102 12.0003V24H55.71V14.4003H64.1764L68.6536 24H73.9495Z" fill="white"/>
<path d="M131.695 0.091674C131.354 0.0301685 131.009 -0.000178233 130.663 0.00101015H114.823V4.80086H130.663C131.299 4.80086 131.91 5.05371 132.36 5.50379C132.81 5.95386 133.063 6.56429 133.063 7.20079C133.063 7.83729 132.81 8.44772 132.36 8.89779C131.91 9.34787 131.299 9.60072 130.663 9.60072H117.223C116.587 9.60072 115.976 9.85356 115.526 10.3036C115.076 10.7537 114.823 11.3641 114.823 12.0006V24.0003H119.623V14.4006H130.663C130.78 14.4006 130.895 14.4006 131.004 14.4006H131.052C131.119 14.4006 131.188 14.4006 131.252 14.3846C133.008 14.2316 134.648 13.4396 135.859 12.1587C137.07 10.8778 137.769 9.19691 137.824 7.4348C137.878 5.67268 137.285 3.95179 136.155 2.59834C135.025 1.2449 133.438 0.352982 131.695 0.091674Z" fill="white"/>
</svg>
