<?xml version="1.0" encoding="utf-8"?>
<!-- Generator: Adobe Illustrator 27.2.0, SVG Export Plug-In . SVG Version: 6.00 Build 0)  -->
<svg version="1.1" id="Layer_1" xmlns="http://www.w3.org/2000/svg" xmlns:xlink="http://www.w3.org/1999/xlink" x="0px" y="0px"
	 viewBox="0 0 72 32" style="enable-background:new 0 0 72 32;" xml:space="preserve">
<style type="text/css">
	.st0{fill:#FFFFFF;}
</style>
<path class="st0" d="M65.5,32h-59C2.91,32,0,29.09,0,25.5v-19C0,2.91,2.91,0,6.5,0h59C69.09,0,72,2.91,72,6.5v19
	C72,29.09,69.09,32,65.5,32z"/>
<g>
	<path d="M65.95,7.67c-0.03-1.18-0.84-2.14-1.92-2.42c-0.06-0.02-0.12-0.04-0.19-0.06c-0.06-0.02-0.12-0.04-0.19-0.06
		c-0.06-0.02-0.12-0.04-0.19-0.06c-0.06-0.02-0.12-0.04-0.19-0.06c-0.06-0.02-0.12-0.04-0.19-0.06c-0.06-0.02-0.12-0.04-0.19-0.06
		c-0.06-0.02-0.12-0.04-0.19-0.06c-0.06-0.02-0.12-0.04-0.19-0.06c-0.06-0.02-0.12-0.04-0.19-0.06c-0.06-0.02-0.12-0.04-0.19-0.06
		c-0.27-0.09-0.55-0.14-0.85-0.14l-9.09,0.01l0,0c-0.69,0-1.31,0.27-1.77,0.71c-0.01,0-0.03,0-0.04-0.01
		c-0.06-0.02-0.12-0.04-0.19-0.06c-0.06-0.02-0.12-0.04-0.19-0.06c-0.06-0.02-0.12-0.04-0.19-0.06c-0.06-0.02-0.12-0.04-0.19-0.06
		c-0.06-0.02-0.12-0.04-0.19-0.06c-0.06-0.02-0.12-0.04-0.19-0.06c-0.06-0.02-0.12-0.04-0.19-0.06c-0.06-0.02-0.12-0.04-0.19-0.06
		c-0.06-0.02-0.12-0.04-0.19-0.06c-0.06-0.02-0.12-0.04-0.19-0.06C48.28,4.58,48,4.53,47.71,4.53h-9.77c-0.73,0-1.38,0.3-1.84,0.79
		c-0.08-0.03-0.15-0.05-0.23-0.08c-0.06-0.02-0.12-0.04-0.19-0.06c-0.06-0.02-0.12-0.04-0.19-0.06c-0.06-0.02-0.12-0.04-0.19-0.06
		c-0.06-0.02-0.12-0.04-0.19-0.06c-0.06-0.02-0.12-0.04-0.19-0.06c-0.06-0.02-0.12-0.04-0.19-0.06c-0.06-0.02-0.12-0.04-0.19-0.06
		c-0.06-0.02-0.12-0.04-0.19-0.06c-0.06-0.02-0.12-0.04-0.19-0.06c-0.06-0.02-0.12-0.04-0.19-0.06c-0.26-0.07-0.54-0.13-0.85-0.13
		h-9.18c-0.72,0-1.36,0.29-1.83,0.76c-0.06-0.02-0.11-0.04-0.17-0.05c-0.06-0.02-0.12-0.04-0.19-0.06
		c-0.06-0.02-0.12-0.04-0.19-0.06c-0.06-0.02-0.12-0.04-0.19-0.06c-0.06-0.02-0.12-0.04-0.19-0.06c-0.06-0.02-0.12-0.04-0.19-0.06
		c-0.06-0.02-0.12-0.04-0.19-0.06c-0.06-0.02-0.12-0.04-0.19-0.06c-0.06-0.02-0.12-0.04-0.19-0.06c-0.06-0.02-0.12-0.04-0.19-0.06
		c-0.06-0.02-0.12-0.04-0.19-0.06c-0.26-0.08-0.54-0.14-0.83-0.14H8.58C7.16,4.53,6,5.69,6,7.12v15.96c0,1.71,1.16,3.15,2.73,3.59
		c0.06,0.02,0.12,0.04,0.19,0.06c0.06,0.02,0.12,0.04,0.19,0.06c0.06,0.02,0.12,0.04,0.19,0.06c0.06,0.02,0.12,0.04,0.19,0.06
		c0.06,0.02,0.12,0.04,0.19,0.06c0.06,0.02,0.12,0.04,0.19,0.06c0.06,0.02,0.12,0.04,0.19,0.06c0.06,0.02,0.12,0.04,0.19,0.06
		c0.06,0.02,0.12,0.04,0.19,0.06c0.06,0.02,0.12,0.04,0.19,0.06c0.37,0.12,0.77,0.19,1.18,0.19c1.48,0,2.76-0.87,3.36-2.13
		c0.49,0.66,1.19,1.15,2,1.37c0.06,0.02,0.12,0.04,0.19,0.06c0.06,0.02,0.12,0.04,0.19,0.06c0.06,0.02,0.12,0.04,0.19,0.06
		c0.06,0.02,0.12,0.04,0.19,0.06c0.06,0.02,0.12,0.04,0.19,0.06c0.06,0.02,0.12,0.04,0.19,0.06c0.06,0.02,0.12,0.04,0.19,0.06
		c0.06,0.02,0.12,0.04,0.19,0.06c0.06,0.02,0.12,0.04,0.19,0.06c0.06,0.02,0.12,0.04,0.19,0.06c0.37,0.12,0.77,0.19,1.18,0.19
		c0.82,0,1.57-0.27,2.18-0.72c0.06,0.02,0.12,0.04,0.18,0.05c0.06,0.02,0.12,0.04,0.19,0.06c0.06,0.02,0.12,0.04,0.19,0.06
		c0.06,0.02,0.12,0.04,0.19,0.06c0.06,0.02,0.12,0.04,0.19,0.06c0.06,0.02,0.12,0.04,0.19,0.06c0.06,0.02,0.12,0.04,0.19,0.06
		c0.06,0.02,0.12,0.04,0.19,0.06c0.06,0.02,0.12,0.04,0.19,0.06c0.06,0.02,0.12,0.04,0.19,0.06c0.06,0.02,0.12,0.04,0.19,0.06
		c0.19,0.06,0.4,0.1,0.61,0.1h2.61c0.57,0,1.1-0.22,1.5-0.62c0.3-0.3,0.49-0.66,0.58-1.06c0.27,0.47,0.73,0.82,1.26,0.97
		c0.06,0.02,0.12,0.04,0.19,0.06c0.06,0.02,0.12,0.04,0.19,0.06c0.06,0.02,0.12,0.04,0.19,0.06c0.06,0.02,0.12,0.04,0.19,0.06
		c0.06,0.02,0.12,0.04,0.19,0.06c0.06,0.02,0.12,0.04,0.19,0.06c0.06,0.02,0.12,0.04,0.19,0.06c0.06,0.02,0.12,0.04,0.19,0.06
		c0.06,0.02,0.12,0.04,0.19,0.06c0.06,0.02,0.12,0.04,0.19,0.06c0.24,0.09,0.49,0.14,0.76,0.14h2.62c0.55,0,1.06-0.21,1.46-0.59
		c0.05,0.02,0.1,0.03,0.14,0.04c0.06,0.02,0.12,0.04,0.19,0.06c0.06,0.02,0.12,0.04,0.19,0.06c0.06,0.02,0.12,0.04,0.19,0.06
		c0.06,0.02,0.12,0.04,0.19,0.06c0.06,0.02,0.12,0.04,0.19,0.06c0.06,0.02,0.12,0.04,0.19,0.06c0.06,0.02,0.12,0.04,0.19,0.06
		c0.27,0.1,0.57,0.15,0.87,0.15h9.77c0.79,0,1.47-0.34,1.94-0.88c0.15,0.07,0.32,0.12,0.48,0.16c0.06,0.02,0.12,0.04,0.19,0.06
		c0.06,0.02,0.12,0.04,0.19,0.06c0.06,0.02,0.12,0.04,0.19,0.06c0.06,0.02,0.12,0.04,0.19,0.06c0.06,0.02,0.12,0.04,0.19,0.06
		c0.06,0.02,0.12,0.04,0.19,0.06c0.06,0.02,0.12,0.04,0.19,0.06c0.06,0.02,0.12,0.04,0.19,0.06c0.06,0.02,0.12,0.04,0.19,0.06
		c0.06,0.02,0.12,0.04,0.19,0.06c0.32,0.1,0.66,0.16,1.02,0.16c1.87,0,3.39-1.52,3.39-3.39V23.4h4.9c1.38,0,2.51-1.07,2.58-2.43
		v-0.02v-0.02l0-13.18V7.74L65.95,7.67z"/>
	<g>
		<path d="M28.56,10.73c-0.65,0-1.18,0.51-1.21,1.16l-0.33,8.12c-0.02,0.43,0.14,0.82,0.43,1.13c0.29,0.3,0.69,0.47,1.11,0.47
			c0.42,0,0.82-0.17,1.11-0.47c0.29-0.3,0.44-0.7,0.43-1.13l-0.33-8.12C29.75,11.24,29.21,10.73,28.56,10.73z M29.08,20.57
			c-0.14,0.15-0.32,0.22-0.51,0.22c-0.2,0-0.38-0.07-0.52-0.22c-0.14-0.14-0.21-0.32-0.2-0.53l0.33-8.12
			c0.01-0.21,0.18-0.37,0.39-0.37c0.21,0,0.38,0.16,0.38,0.37l0.33,8.12C29.29,20.25,29.22,20.43,29.08,20.57z"/>
		<path d="M61.32,4.54l-9.1,0c-0.96,0-1.81,0.53-2.25,1.31v0c-0.44-0.78-1.28-1.31-2.25-1.31h-9.77c-1.09,0-2.03,0.68-2.41,1.64
			c-0.37-0.97-1.3-1.64-2.4-1.64h-9.18c-1.05,0-1.95,0.62-2.35,1.52c-0.41-0.89-1.31-1.52-2.35-1.52H8.58C7.16,4.53,6,5.69,6,7.12
			v15.96c0,2.05,1.67,3.72,3.72,3.72s3.72-1.67,3.72-3.72V12.01c0-0.26,0.22-0.48,0.48-0.48s0.48,0.22,0.48,0.48v11.06
			c0,2.05,1.67,3.72,3.72,3.72c1.15,0,2.18-0.52,2.86-1.34c0.1,0.26,0.26,0.49,0.45,0.7c0.4,0.42,0.95,0.65,1.53,0.65h2.61
			c0.57,0,1.1-0.22,1.5-0.62c0.3-0.3,0.49-0.66,0.58-1.06h1.81c0.21,0.96,1.06,1.68,2.08,1.68h2.62c0.58,0,1.13-0.23,1.53-0.65
			c0.09-0.1,0.18-0.2,0.25-0.31c0.47,0.59,1.2,0.96,2.01,0.96h9.77c1.11,0,2.03-0.66,2.4-1.65c0,0,0,0,0-0.01
			c0.59,0.99,1.67,1.65,2.9,1.65c1.87,0,3.39-1.52,3.39-3.39v-0.68h4.9c1.38,0,2.51-1.07,2.58-2.43v-0.04l0-13.18V7.04
			C63.86,5.64,62.72,4.54,61.32,4.54z"/>
		<path d="M56.8,10.73c-0.67,0-1.22,0.54-1.22,1.22v5.9c0,0.67,0.55,1.22,1.22,1.22c0.67,0,1.22-0.55,1.22-1.22v-5.9
			C58.01,11.28,57.47,10.73,56.8,10.73z M57.19,17.85c0,0.22-0.18,0.4-0.39,0.4c-0.22,0-0.4-0.18-0.4-0.4v-5.9
			c0-0.22,0.18-0.39,0.4-0.39c0.22,0,0.39,0.18,0.39,0.39V17.85z"/>
	</g>
	<path class="st0" d="M21.02,7.12v11.54l-0.16,5.08c-0.01,0.24-0.06,0.47-0.17,0.68c-0.53,1.02-1.66,1.69-2.92,1.54
		c-1.47-0.17-2.54-1.5-2.54-2.98v-10.9c0-0.63-0.42-1.21-1.04-1.33c-0.83-0.16-1.56,0.47-1.56,1.28v10.96
		c0,1.47-1.06,2.79-2.52,2.97c-1.77,0.22-3.27-1.15-3.27-2.87V7.12c0-0.97,0.78-1.76,1.76-1.76h10.68
		C20.23,5.36,21.02,6.15,21.02,7.12z"/>
	<path class="st0" d="M35.37,21.66L34.9,7.06c-0.03-0.95-0.8-1.7-1.76-1.7h-9.18c-0.96,0-1.73,0.75-1.76,1.7l-0.36,11.62l-0.17,5.5
		l-0.01,0.44c-0.01,0.35,0.12,0.69,0.37,0.95c0.25,0.26,0.58,0.4,0.94,0.4h2.61c0.35,0,0.68-0.14,0.92-0.38
		c0.24-0.25,0.38-0.57,0.38-0.92v-0.38h3.36v0.38c0,0.72,0.58,1.3,1.3,1.3h2.62c0.35,0,0.69-0.14,0.94-0.4
		c0.19-0.2,0.32-0.46,0.35-0.73C35.52,24.84,35.37,21.66,35.37,21.66z M29.68,21.14c-0.3,0.3-0.69,0.47-1.11,0.47
		c-0.42,0-0.82-0.17-1.11-0.47s-0.44-0.7-0.43-1.13l0.33-8.12c0.03-0.65,0.56-1.16,1.21-1.16s1.18,0.51,1.21,1.16l0.33,8.12
		C30.12,20.44,29.97,20.84,29.68,21.14z"/>
	<path class="st0" d="M44.17,13.36v-1.32c0-0.72-0.59-1.3-1.3-1.3c-0.72,0-1.31,0.59-1.31,1.3v9.99c0,0.72,0.59,1.31,1.31,1.31
		c0.72,0,1.3-0.59,1.3-1.31v-0.87c0-1.46,1.19-2.65,2.65-2.65c0.71,0,1.38,0.28,1.88,0.78c0.48,0.48,0.76,1.13,0.78,1.81v3.13
		c-0.03,1-0.78,1.76-1.76,1.76h-9.77c-0.78,0-1.44-0.5-1.67-1.2c-0.06-0.17-0.09-0.36-0.09-0.56V7.12c0-0.97,0.79-1.76,1.76-1.76
		h9.77c0.96,0,1.73,0.75,1.76,1.71l0,6.38c-0.03,1.42-1.22,2.58-2.65,2.58C45.36,16.02,44.17,14.82,44.17,13.36z"/>
	<path class="st0" d="M61.32,5.36l-9.1,0c-0.92,0-1.69,0.71-1.76,1.6l0,0.16v15.96l-0.01,0.33c0,1.41,1.15,2.57,2.56,2.57
		s2.56-1.15,2.56-2.57V21.9h5.73c0.94,0,1.71-0.73,1.76-1.65l0-13.18C63.05,6.11,62.27,5.36,61.32,5.36z M58.01,17.85
		c0,0.67-0.54,1.22-1.22,1.22c-0.67,0-1.22-0.55-1.22-1.22v-5.9c0-0.67,0.55-1.22,1.22-1.22c0.67,0,1.22,0.54,1.22,1.22V17.85z"/>
</g>
</svg>
