<svg id="Layer_1" data-name="Layer 1" xmlns="http://www.w3.org/2000/svg" viewBox="0 0 300 300"><defs><style>.cls-1{fill:#fff;}</style></defs><rect width="300" height="300" rx="25"/><path class="cls-1" d="M106.73,272.79a7.5,7.5,0,0,1-10,3.69,14.31,14.31,0,0,1-3.22-2.7,76.45,76.45,0,0,1-6.77-8.33c-.13-.16-.53-.61-.92-1a.67.67,0,0,0-1.15.31s0,0,0,.07a21.38,21.38,0,0,0,.72,4.4,60.88,60.88,0,0,0,5.47,12.25c1.91,3.33,5.46,8.46,3,11.73a9,9,0,0,1-7.88,3.44,1.77,1.77,0,0,1-1.28-.89c-2.13-3.71-5.15-9.28-6.74-12.21-1.36-2.51-2-3.74-2.23-4.07a1.82,1.82,0,0,0-3.08,1.93c.16.26,1.11,2,2.12,3.87s2.06,3.8,3.1,5.7c.42.75,1.17,2.15,1.7,3.13a1.51,1.51,0,0,1-.27,1.69A7.43,7.43,0,0,1,74.6,298c-5.28,0-7.07-5.4-9.14-9.09l-5.19-9.27a1.87,1.87,0,0,0-2.35-.85,1.82,1.82,0,0,0-.85,2.55l7.51,13.42a1.09,1.09,0,0,1-.63,1.58l-.36.1c-5.53,1.35-8.94-3.35-11.7-7.52a88.07,88.07,0,0,1-7.17-14.05c-3.41-7.92-3.61-15.76-2.48-24.21.59-4.45,2.83-14.16,4.41-20,3.3-12.12,5.65-19,9.36-29.62,8.9-25.43,19.84-50.11,31.58-74.33.77-1.59,3.82-8.29,5.69-12a.72.72,0,0,1,1.37.28c.16,2.55.4,6.24.55,7.47.46,3.81,1.24,7.48,2,11,1,4.82,2,9.37,1.69,12.58-.09,1.05-1,5.21-1.84,9.23-1.9,8.92-4.51,21.12-5.26,29.27,0,.47-.1,1-.16,1.59v.07c-1.06,10.5-1.49,21.57,2.52,31.55a34.89,34.89,0,0,0,2.28,4.58,28,28,0,0,0,2.25,3,2.9,2.9,0,0,1,.52,2.8c-2.25,6.7-3.65,14.26-1.59,21.19,1.24,4.2,3.55,8,5.84,11.71.43.69,1,1.53,1.61,2.36a11.09,11.09,0,0,1,1.85,8.89C106.83,272.46,106.78,272.65,106.73,272.79Z" transform="translate(0 0)"/><path class="cls-1" d="M154.35,247.56v26.21a8.58,8.58,0,0,1-6,8.19l-.07,0c-2.35.73-5.24,1.88-6.74,3.69-2.24,2.69-3.32,6.21-3.32,11.46a7.43,7.43,0,0,0,.12,1.52,1.09,1.09,0,0,1-1.07,1.31H121.34a2.17,2.17,0,0,1-.3-.23c-.78-.78-1.16-2.62-1.06-5.17a1.82,1.82,0,0,0-3.63-.14,15,15,0,0,0,.52,5.07.37.37,0,0,1-.35.47h-7a2.35,2.35,0,0,1-.35-.27c-.68-.73-.92-2.47-.69-4.88a1.81,1.81,0,1,0-3.61-.35,14.16,14.16,0,0,0,.25,5.05.36.36,0,0,1-.35.45H99.5c-4.22,0-3.5-7-2.34-9.41a9.29,9.29,0,0,1,4.9-4.52c.68-.27,1.4-.46,2.1-.69,4.64-1.54,8.69-4.67,9.44-9.7.84-5.66.75-10.68.83-16.41.06-4.9.1-9.69.14-15.7a1.81,1.81,0,0,1,2.55-1.65l.09,0a25.34,25.34,0,0,0,4,1.39A89.81,89.81,0,0,0,148.93,246l3.49-.21A1.83,1.83,0,0,1,154.35,247.56Z" transform="translate(0 0)"/><path class="cls-1" d="M189.12,298.13a1.09,1.09,0,0,1-.79,1.84H169.87a1.59,1.59,0,0,1-.33-.25c-.78-.78-1.17-2.62-1.07-5.17a1.81,1.81,0,0,0-3.62-.14,15.24,15.24,0,0,0,.52,5.1.36.36,0,0,1-.35.46h-7a1.45,1.45,0,0,1-.39-.3c-.68-.73-.93-2.47-.7-4.88a1.81,1.81,0,1,0-3.61-.35,14.53,14.53,0,0,0,.26,5.08.36.36,0,0,1-.35.45H148a.45.45,0,0,0-.13,0c-4.27.47-2.88-8.09-1.25-10.75s5.87-3.23,8.78-4.37a9.11,9.11,0,0,0,5.29-7.7c.33-4.83.65-24.78.44-30.76a1.81,1.81,0,0,1,1.46-1.84l.71-.15c1-.2,2-.44,3-.74a44.7,44.7,0,0,0,12.28-5.89s0,0,0,0a.49.49,0,0,1,.74.59,55.4,55.4,0,0,0-.62,39.76C181.94,286.92,185.07,293.88,189.12,298.13Z" transform="translate(0 0)"/><path class="cls-1" d="M206.09,64.11a14.1,14.1,0,0,0-1.43.66,27.24,27.24,0,0,0-8.81,7.78,51,51,0,0,0-9.87,26c-1.93,19.79,2.61,35.72,12.15,42.61,4.7,3.41,6.78,12.29,6.36,27.15-.24,8.15-1.92,17.07-5.3,28.06-1.33,4.31-2.83,8.51-4.45,12.48-.77,1.88-1.59,3.75-2.43,5.56a100.68,100.68,0,0,1-4.89,8.91,11.63,11.63,0,0,1-2,2.47c-2.93,2.79-8.24,5.57-13.72,7.8A76.76,76.76,0,0,1,157,238.07a83.32,83.32,0,0,1-13.88.84c-11,0-20-1.82-27-5.4a30.69,30.69,0,0,1-11.75-10.34c-7.92-11.91-6.3-27.6-5.53-35.15.07-.64.13-1.22.18-1.73.71-7.73,3.26-19.68,5.13-28.42,1.18-5.5,1.85-8.69,2-10.12.38-4.28-.69-9.35-1.82-14.7-.72-3.41-1.46-6.92-1.88-10.41a62.56,62.56,0,0,1-.47-7.34,1.82,1.82,0,0,1,1.9-1.82c3.25.14,5.7.17,9.37.2H117c6.21,0,11.36-.12,16.21-.4a77.52,77.52,0,0,0,13.46-1.77,13.32,13.32,0,0,0,4.74-2.38c5.16-4.27,14.35-17.32,20.35-31.12a7.12,7.12,0,0,0,1-.28A5.8,5.8,0,0,0,175.33,76c1.14-1.51,1.47-7.6,1.33-13h0a43.61,43.61,0,0,0,.69-4.52c.07-.68.13-1.35.19-2a83.63,83.63,0,0,0,.2-16.39.73.73,0,0,1,1.13-.68c6,4.17,12.93,10.18,20.78,17l0,0c2.17,1.88,4.39,3.81,6.7,5.79A1.09,1.09,0,0,1,206.09,64.11Z" transform="translate(0 0)"/><path class="cls-1" d="M170.92,49.58a.72.72,0,0,1-.81.66c-2.64-.31-11-1.15-12.3-.61a1.6,1.6,0,0,0-.76,1.87,1.93,1.93,0,0,0,.55,1,2.21,2.21,0,0,0,1.37.4c.74.06,1.48.08,2.21.12l.3,0a2.79,2.79,0,0,1,2.57,2.36,66.16,66.16,0,0,1-.33,17.15c-.39,1.86-.5,2.41-2.26,2.6a12.94,12.94,0,0,1-1.65.11c-.56,0-1.12,0-1.68.08a1.16,1.16,0,0,0-1,.68,1.89,1.89,0,0,0,1.53,2.8l3.55-.11a.73.73,0,0,1,.67,1c-5.29,10.73-12.22,20.54-16.19,23.82a6.34,6.34,0,0,1-1.86.92,71.52,71.52,0,0,1-12.12,1.58c-4.7.26-9.73.39-15.8.39h-3.69c-2.57,0-5.14,0-7.72-.14-4.57-.16-8.45.15-11.86-3.54a21.15,21.15,0,0,1-3.37-5.34,24.51,24.51,0,0,1-2.13-6A16,16,0,0,1,90,80.55c2-3.44,5.19-5.94,7-9.51a23.55,23.55,0,0,0,2.56-11.8c-.28-6-2.27-11.57-4.26-17.18C94.17,39,92.79,35.32,93.64,32c1.08-4.24,4.91-5.68,8.57-6.72A153.71,153.71,0,0,1,126.89,21c7.72-.82,16.09,1.32,23.87,3.3C157.37,26,165,29,169,35.22,171.34,38.88,171.33,44.52,170.92,49.58Z" transform="translate(0 0)"/><path class="cls-1" d="M260.12,198.12c-.53,15.68,0,34.51-10.68,47.13-4,4.7-8.68,8.91-11.73,14.28a28.47,28.47,0,0,0-3.63,16.62,46.93,46.93,0,0,0,1.58,8.59c.93,3.4,3.65,7.52-.1,10.86a11.74,11.74,0,0,1-7.51,2.8h-.17a4.47,4.47,0,0,1-3.6-2.51c-2.31-4.63-8.16-16.27-8.16-16.27a1.82,1.82,0,0,0-3.25,1.63l2.4,4.77,3,6c.47.94,1.31,2.05,1.13,3.17s-1.66,1.86-2.8,2.27a5.9,5.9,0,0,1-4.45-.4c-3.11-1.39-4.21-4.45-5.67-7.28-1.7-3.28-3.47-6.53-4.91-9.93a1.82,1.82,0,0,0-3.35,1.4c.9,2.13,4.29,8.94,6.87,13.8a1.09,1.09,0,0,1-.67,1.56,5.84,5.84,0,0,1-1.11.18,11.68,11.68,0,0,1-6.36-1.43c-4.12-2.31-5.94-6.79-7.95-11-3.7-7.71-6.37-16.76-6.37-24.89a58,58,0,0,1,5.6-23.15c.74-1.52,1.69-3.12,2.84-5.07l1.69-2.82a119.64,119.64,0,0,0,6.09-11c.9-1.91,1.76-3.89,2.58-5.88,1.71-4.17,3.28-8.58,4.67-13.1,3.58-11.63,5.36-21.15,5.61-30,.51-17.69-2.47-28.25-9.36-33.24-3.22-2.33-5.82-6.47-7.49-12-2-6.64-2.59-14.74-1.68-24.06A43.59,43.59,0,0,1,201.59,77c4.94-6.4,12.71-8.69,19.8-3.9a37.75,37.75,0,0,1,7.49,7.5c18.86,22.85,28.52,54.79,30.49,84A329.78,329.78,0,0,1,260.12,198.12Z" transform="translate(0 0)"/><path class="cls-1" d="M172.69,73.72a.7.7,0,0,1-.4.47,15,15,0,0,1-3.89.92c-.43,0-.87.07-1.29.09a.35.35,0,0,1-.36-.48,11.86,11.86,0,0,0,.41-1.47c.15-.74.29-1.67.41-2.73,0-.19,0-.38.05-.58s0-.46.07-.7,0-.35,0-.53,0-.16,0-.24,0-.25,0-.38h0c0-.22,0-.43,0-.66s0-.43,0-.66l0-.71,0-.7c0-.17,0-.33,0-.5s0-.48,0-.72,0-.3,0-.46V61.4a38.82,38.82,0,0,0-.67-7.7.36.36,0,0,1,.41-.44l4.33.68a.35.35,0,0,1,.29.26c.23.84.44,2.35.53,2.93C173.62,62.63,173.32,71.48,172.69,73.72Z" transform="translate(0 0)"/></svg>