<svg width="28" height="28" viewBox="0 0 28 28" fill="none" xmlns="http://www.w3.org/2000/svg">
<mask id="mask0_3761_32916" style="mask-type:luminance" maskUnits="userSpaceOnUse" x="0" y="1" width="28" height="26">
<path d="M27.6909 1.62695H0.308594V26.374H27.6909V1.62695Z" fill="white"/>
</mask>
<g mask="url(#mask0_3761_32916)">
<path d="M19.1098 26.3743H7.96742C3.74271 26.3743 0.308594 22.9237 0.308594 18.6908V18.559C0.308594 18.172 0.621535 17.8508 1.01683 17.8508H7.22624C7.42389 17.8508 7.6133 17.9332 7.7533 18.0814C7.8933 18.2296 7.95918 18.4355 7.94271 18.6414C7.90977 18.9626 7.96742 19.2755 8.10742 19.5555C8.38742 20.1237 8.97212 20.4861 9.60624 20.4861H12.1674V19.119H9.63918C9.37565 19.119 9.13683 18.9708 9.0133 18.732C8.88977 18.4932 8.90624 18.2132 9.06271 17.999L9.16977 17.8343C9.33448 17.6037 9.76271 16.9779 10.2486 16.1132C10.5615 15.5696 10.8004 15.0837 10.9898 14.639C11.0309 14.5484 11.0557 14.4743 11.0886 14.4002L11.1298 14.2767C11.1792 14.1367 11.2204 14.0379 11.2451 13.9308C11.2862 13.8073 11.3109 13.7084 11.3357 13.6179L11.3604 13.5355C11.4427 13.1649 11.4921 12.7449 11.4921 12.2673C11.4921 12.0943 11.4921 11.9049 11.4674 11.732C11.4592 11.5179 11.4345 11.3284 11.4098 11.139C11.3933 10.9414 11.3604 10.7684 11.3274 10.5955C11.2862 10.3155 11.2286 10.0602 11.1627 9.79668L11.1051 9.55786C11.0639 9.40962 11.0309 9.28609 10.9898 9.16256C10.8251 8.58609 10.6357 8.01783 10.4133 7.45783C10.3309 7.23548 10.2486 7.03783 10.1662 6.84019C10.0674 6.59313 9.96859 6.37901 9.86977 6.16489L9.83683 6.08254L9.78742 5.97548C9.72977 5.86842 9.68036 5.75313 9.62271 5.6296C9.56507 5.50607 9.50742 5.38254 9.44977 5.25901L9.40036 5.15195C9.36742 5.07783 9.33448 5.01195 9.30154 4.94607L8.95565 4.30372C8.83212 4.0896 8.85683 3.8096 9.0133 3.60372C9.16977 3.39783 9.4333 3.31548 9.68036 3.38136L12.1674 4.05666V3.34019C12.1674 2.38489 12.9415 1.60254 13.8886 1.60254C14.3498 1.60254 14.7862 1.78372 15.1074 2.11313C15.4286 2.44254 15.6098 2.87901 15.6098 3.33195V5.02842L16.1039 5.39901C16.1615 5.44842 16.2109 5.4896 16.2768 5.53901C16.5157 5.73666 16.7957 5.97548 17.1004 6.25548C17.1745 6.32136 17.2651 6.40372 17.3392 6.47783C17.8251 6.93077 18.2286 7.3343 18.5827 7.73783C18.698 7.8696 18.8133 8.0096 18.9368 8.1496L19.0604 8.29786C19.1427 8.39668 19.2168 8.48727 19.2909 8.58609L19.3733 8.69315C19.4968 8.84962 19.6204 9.02256 19.7357 9.1955L19.9333 9.48374C20.1062 9.73903 20.2627 10.019 20.4109 10.2908C20.4851 10.439 20.5509 10.579 20.6086 10.719C20.7815 11.0979 20.9051 11.4849 20.9957 11.8637C21.0204 11.9296 21.0451 12.0532 21.0533 12.152C21.078 12.2343 21.0862 12.3743 21.1027 12.5143C21.1439 12.9261 21.1192 13.3461 21.0286 13.7579C20.9957 13.9308 20.9462 14.0955 20.8804 14.2684C20.8062 14.4826 20.7486 14.6308 20.6827 14.7708C20.5345 15.1167 20.3615 15.4379 20.1721 15.7343C20.1227 15.8249 20.0404 15.9484 19.9662 16.0637L19.7357 16.3932C19.6204 16.5496 19.5133 16.6979 19.398 16.8296C19.3157 16.9449 19.2086 17.0849 19.0933 17.2167C18.9533 17.3814 18.8133 17.5543 18.6568 17.719C18.5745 17.8179 18.4674 17.9332 18.3604 18.0402C18.2945 18.1143 18.2039 18.2049 18.1215 18.2873C17.9321 18.4767 17.8004 18.6002 17.6933 18.699L17.4545 18.9214C17.3145 19.0449 17.1498 19.1026 16.9768 19.1026H15.618V20.4696H17.4545C17.858 20.4696 18.2368 20.3296 18.5498 20.0661C19.0357 19.6379 19.5133 19.1767 19.958 18.6826C20.0486 18.5837 20.1721 18.5096 20.3039 18.4767L26.7933 16.599C27.0074 16.5414 27.238 16.5826 27.4109 16.7143C27.5839 16.8461 27.6909 17.0602 27.6909 17.2826V18.6579C27.6909 18.9379 27.5262 19.1932 27.2627 19.3084C26.4227 19.6708 25.3851 20.2637 24.9568 20.8484C24.6274 21.3014 24.3227 21.7955 24.0015 22.3143C22.8157 24.2167 21.4898 26.3496 19.1098 26.3496V26.3743ZM1.33801 18.8802C1.44506 22.4626 4.37683 25.3367 7.96742 25.3367H19.1098C20.9133 25.3367 21.9839 23.6237 23.1121 21.8037C23.4415 21.2684 23.7709 20.7414 24.1251 20.2555C24.7345 19.4155 25.9862 18.7649 26.6615 18.452V17.7108L20.658 19.4484C20.2051 19.9426 19.7274 20.412 19.2333 20.8402C18.7227 21.2767 18.0968 21.5073 17.4545 21.5073H14.5886V18.0814H16.8533L17.0015 17.9496C17.1004 17.859 17.2157 17.752 17.3557 17.612C17.4627 17.5049 17.5451 17.4308 17.6192 17.3402C17.7262 17.2332 17.8086 17.1426 17.8827 17.052C18.0392 16.879 18.1792 16.7226 18.3192 16.5579C18.4262 16.4426 18.5086 16.3273 18.5909 16.212C18.7145 16.0637 18.8051 15.9402 18.8957 15.8167L19.1098 15.512C19.1757 15.4214 19.2333 15.3226 19.2909 15.2237C19.4639 14.9602 19.6039 14.6802 19.7357 14.3755C19.7933 14.252 19.8345 14.1367 19.8757 14.0214L19.9004 13.9473C19.9333 13.832 19.9745 13.7084 20.0074 13.5684C20.0733 13.2555 20.0898 12.9508 20.0568 12.6296C20.0568 12.539 20.0486 12.4484 20.0239 12.3743L20.0074 12.2508C20.0074 12.2508 19.9992 12.1932 19.9827 12.152C19.9004 11.7979 19.7933 11.4767 19.6451 11.1473C19.5874 11.0155 19.538 10.892 19.4804 10.7849C19.3568 10.5543 19.2168 10.3073 19.0604 10.0684L18.8627 9.78021C18.7639 9.63198 18.6568 9.48374 18.5498 9.34374L18.4757 9.24492C18.4098 9.16256 18.3439 9.08021 18.2698 8.99786L18.138 8.84139C18.0309 8.70962 17.9239 8.58609 17.8086 8.45433C17.4792 8.08371 17.1004 7.69666 16.6227 7.26019C16.5486 7.18607 16.4827 7.12842 16.4086 7.06254C16.1121 6.79077 15.8486 6.56019 15.6262 6.38725C15.5604 6.33783 15.4862 6.28019 15.4286 6.22254L15.2145 6.0496L15.1651 6.01666L14.5721 5.82725V3.36489C14.5721 3.17548 14.498 2.9943 14.3662 2.86254C14.2345 2.73077 14.0615 2.65666 13.8804 2.65666C13.5015 2.65666 13.1886 2.9696 13.1886 3.36489V5.44019L10.2733 4.63313C10.2733 4.63313 10.298 4.68254 10.3062 4.69901L10.3721 4.82254C10.4298 4.93783 10.4957 5.0696 10.5533 5.20136C10.6027 5.30842 10.6521 5.41548 10.7098 5.53901L10.8004 5.74489C10.8992 5.96724 11.0062 6.19783 11.1051 6.44489C11.1957 6.65901 11.2862 6.88136 11.3686 7.10371C11.5909 7.68019 11.7886 8.27315 11.9615 8.86609C12.0027 8.99786 12.0439 9.12962 12.0768 9.26962L12.1509 9.55786C12.2251 9.83786 12.2827 10.1343 12.3321 10.4308C12.3651 10.6202 12.4062 10.8179 12.4227 11.0237C12.4474 11.2379 12.4804 11.4602 12.4886 11.6743C12.5051 11.8555 12.5133 12.0696 12.5133 12.2755C12.5133 12.8355 12.4639 13.3296 12.3568 13.7908L12.3321 13.8814C12.2992 14.0049 12.2662 14.1284 12.2251 14.2437C12.2004 14.3426 12.1509 14.4743 12.1015 14.5979L12.0521 14.7214C12.0027 14.8614 11.9615 14.9602 11.9204 15.0508C11.7227 15.5202 11.4674 16.039 11.1298 16.6237C10.7757 17.2496 10.4545 17.752 10.2321 18.0896H13.1804V21.5155H9.58977C8.56859 21.5155 7.62154 20.9226 7.16859 20.0084C6.98742 19.6543 6.88859 19.2673 6.88036 18.872H1.33801V18.8802ZM20.5839 19.4814H20.5674C20.5674 19.4814 20.5757 19.4814 20.5839 19.4814Z" fill="white"/>
<path d="M8.27266 16.4923H2.54916C2.28564 16.4923 2.05505 16.3523 1.92328 16.1217C1.79975 15.8911 1.80799 15.6194 1.94799 15.4053L7.5974 6.56882C7.7374 6.34647 7.98446 6.23117 8.24796 6.24764C8.50325 6.26411 8.73384 6.42882 8.8409 6.65941C9.55737 8.26527 10.6938 11.2629 10.2244 13.2641C10.0103 14.1453 9.40913 15.2323 9.07148 15.8006C9.01384 15.9159 8.93148 16.0476 8.84913 16.1711C8.71737 16.3688 8.49501 16.4841 8.26443 16.4841L8.27266 16.4923ZM3.15034 15.4629H8.09975C8.13269 15.4053 8.16564 15.3559 8.19034 15.2982C8.7256 14.3923 9.10443 13.5688 9.23619 13.0253C9.49972 11.8888 9.09619 9.90409 8.14916 7.63117L3.14211 15.4629H3.15034Z" fill="white"/>
</g>
</svg>
