<svg width="69" height="69" viewBox="0 0 69 69" fill="none" xmlns="http://www.w3.org/2000/svg">
<path d="M11.57 8.74C10.57 9.63 9.63 10.58 8.75 11.57C3.31 17.67 0 25.7 0 34.5C0 53.52 15.48 69 34.5 69C43.29 69 51.33 65.69 57.43 60.25C58.42 59.37 59.37 58.43 60.26 57.43C65.69 51.34 69 43.3 69 34.5C69 15.47 53.53 0 34.5 0C25.7 0 17.67 3.31 11.57 8.74ZM31.11 64.82C17.03 63.29 5.71 51.97 4.18 37.89C3.23 29.13 6.01 20.99 11.15 14.9C11.38 14.63 11.79 14.62 12.04 14.87L33.09 35.92L54.14 56.97C54.39 57.22 54.38 57.63 54.11 57.86C48.01 62.99 39.88 65.78 31.12 64.83L31.11 64.82ZM64.81 31.03C65.79 39.81 63 47.98 57.85 54.1C57.62 54.37 57.21 54.38 56.96 54.13L14.87 12.04C14.62 11.79 14.63 11.38 14.9 11.15C20.98 6.03 29.09 3.24 37.83 4.17C51.9 5.67 63.24 16.96 64.8 31.02L64.81 31.03Z" fill="#A2B1A9"/>
</svg>
