<svg width="16" height="16" viewBox="0 0 16 16" fill="none" xmlns="http://www.w3.org/2000/svg">
<path d="M14.97 2.93996L13.06 1.02996C12.8 0.769961 12.38 0.769961 12.12 1.02996L8.46996 4.67996C8.20996 4.93996 7.78996 4.93996 7.52996 4.67996L3.87997 1.02996C3.61997 0.769961 3.19996 0.769961 2.93996 1.02996L1.02996 2.93996C0.769961 3.19996 0.769961 3.61996 1.02996 3.87996L4.67997 7.52996C4.93997 7.78996 4.93997 8.20996 4.67997 8.46996L1.02996 12.12C0.769961 12.38 0.769961 12.8 1.02996 13.06L2.93996 14.97C3.19996 15.23 3.61997 15.23 3.87997 14.97L7.52996 11.32C7.78996 11.06 8.20996 11.06 8.46996 11.32L12.12 14.97C12.38 15.23 12.8 15.23 13.06 14.97L14.97 13.06C15.23 12.8 15.23 12.38 14.97 12.12L11.32 8.46996C11.06 8.20996 11.06 7.78996 11.32 7.52996L14.97 3.87996C15.23 3.61996 15.23 3.19996 14.97 2.93996Z" fill="white"/>
</svg>
