<svg width="30" height="30" viewBox="0 0 30 30" fill="none" xmlns="http://www.w3.org/2000/svg">
<path d="M12.15 11.2252L9.81055 14.4136L9.14079 13.4986C7.54658 11.329 4.99017 10.0272 2.29227 10.0272H0.471661C0.216964 10.0272 0 9.81966 0 9.55553V6.72557C0 6.47087 0.207531 6.25391 0.471661 6.25391H2.28284C6.15989 6.25391 9.83885 8.11225 12.1406 11.2252H12.15Z" fill="white"/>
<path d="M29.7146 22.9608L24.3848 28.2905C24.2905 28.3754 24.1773 28.432 24.0547 28.432C23.932 28.432 23.8188 28.3849 23.7245 28.2905L21.7247 26.2907C21.536 26.102 21.5454 25.8096 21.7247 25.6209L23.1679 24.1871C19.3003 24.1871 15.6214 22.3287 13.3291 19.2158L15.6685 16.0273L16.3383 16.9424C17.9231 19.112 20.4795 20.4044 23.1679 20.4138L21.7247 18.9799C21.536 18.8007 21.536 18.4988 21.7247 18.3102L23.7245 16.3103C23.9132 16.1217 24.2056 16.1217 24.3943 16.3103L29.724 21.6401C30.0919 22.008 30.0919 22.6117 29.724 22.9702L29.7146 22.9608Z" fill="white"/>
<path d="M29.7146 7.47127L24.3849 2.1415C24.1962 1.95283 23.9038 1.95283 23.7151 2.1415L21.7153 4.14134C21.5266 4.33001 21.5266 4.62244 21.7153 4.8111L23.1586 6.25438C19.2721 6.25438 15.5837 8.13159 13.2914 11.2634L9.13136 16.9328C7.52771 19.1119 4.99017 20.4042 2.28284 20.4042H0.471661C0.207531 20.4042 0 20.6117 0 20.8759V23.7058C0 23.97 0.207531 24.1775 0.471661 24.1775H2.29227C6.19763 24.1775 9.86715 22.3192 12.1783 19.1685L16.3383 13.4991C17.9231 11.3295 20.4795 10.0371 23.168 10.0277L21.7247 11.471C21.536 11.6596 21.536 11.952 21.7247 12.1407L23.7245 14.1406C23.9132 14.3292 24.2056 14.3292 24.3943 14.1406L29.7241 8.81078C30.092 8.44289 30.092 7.8486 29.7241 7.4807L29.7146 7.47127Z" fill="white"/>
</svg>
