<svg width="30" height="30" viewBox="0 0 30 30" fill="none" xmlns="http://www.w3.org/2000/svg">
<path d="M22.089 9.64828L17.6907 5.24998C17.474 5.03331 17.474 4.68665 17.6907 4.48082L20.009 2.1625C20.2257 1.94583 20.5724 1.94583 20.7782 2.1625L29.6831 11.0674C30.1056 11.4899 30.1056 12.1724 29.6831 12.5949L20.7782 21.4999C20.5615 21.7165 20.2149 21.7165 20.009 21.4999L17.6907 19.1815C17.5932 19.084 17.5282 18.9432 17.5282 18.7915C17.5282 18.6507 17.5824 18.5099 17.6907 18.4015C17.6907 18.4015 20.2149 15.8774 22.089 14.0032H9.15411C6.5108 14.0032 4.37664 16.1482 4.37664 18.7807C4.37664 21.424 6.52163 23.5582 9.15411 23.5582H13.3791C13.6824 23.5582 13.9316 23.8073 13.9316 24.1107V27.3823C13.9316 27.6856 13.6824 27.9348 13.3791 27.9348H9.15411C4.09498 27.9348 0 23.8398 0 18.7807C0 13.7216 4.09498 9.62661 9.15411 9.62661H22.089V9.64828Z" fill="white"/>
</svg>
