<svg width="30" height="30" viewBox="0 0 30 30" fill="none" xmlns="http://www.w3.org/2000/svg">
<path d="M5.01388 14.2202H25.3694C25.8969 14.2202 26.3097 13.75 26.2295 13.2225L26.0345 11.9725C25.7708 10.2752 24.3258 9.02523 22.6056 9.02523H18.179C17.8579 9.02523 17.6056 8.77294 17.6056 8.45184V0.573395C17.6056 0.252294 17.3533 0 17.0322 0H13.3396C13.0185 0 12.7662 0.252294 12.7662 0.573395V8.45184C12.7662 8.77294 12.5139 9.02523 12.1928 9.02523H7.76617C6.05746 9.02523 4.6125 10.2752 4.34874 11.961L4.15379 13.2225C4.07351 13.75 4.47489 14.2202 5.01388 14.2202Z" fill="white"/>
<path d="M28.351 28.0619L26.6882 16.2041C26.6309 15.7569 26.2409 15.4243 25.7822 15.4243H4.5781C4.11938 15.4243 3.74094 15.7569 3.67213 16.2041L2.02076 28.0619C1.86021 29.0826 2.65149 30 3.6836 30H7.77764C8.6492 30 9.37168 29.3463 9.45195 28.4748L10.2662 23.0275L11.1148 28.6239C11.2639 29.4151 11.9634 29.9885 12.7662 29.9885H17.7776C18.6377 29.9885 19.3487 29.3463 19.452 28.4977L20.3579 19.6904L21.8717 28.6812C22.0437 29.4495 22.7318 29.9885 23.5116 29.9885H26.6997C27.7318 29.9885 28.5231 29.0711 28.3625 28.0505L28.351 28.0619Z" fill="white"/>
</svg>
