<svg width="12" height="12" viewBox="0 0 12 12" fill="none" xmlns="http://www.w3.org/2000/svg">
<path d="M5.14265 6.85714V5.14286C5.14265 4.66909 5.52644 4.28571 5.99979 4.28571C6.47314 4.28571 6.85693 4.66909 6.85693 5.14286V6H7.71408C8.18743 6 8.57122 6.38337 8.57122 6.85714C8.57122 7.33092 8.18743 7.71429 7.71408 7.71429H5.99979C5.70306 7.71429 5.44148 7.56362 5.28788 7.33426C5.19622 7.19782 5.14265 7.03376 5.14265 6.85714Z" fill="#17171E"/>
<path fill-rule="evenodd" clip-rule="evenodd" d="M4.28551 0.857143C4.28551 0.383371 4.66929 0 5.14265 0H6.85693C7.33029 0 7.71408 0.383371 7.71408 0.857143C7.71408 1.0731 7.63456 1.26981 7.50314 1.42048C7.43366 1.5 7.34954 1.56696 7.25453 1.61635C7.13567 1.67913 7.00049 1.71429 6.85693 1.71429V1.78544C9.28899 2.19392 11.1426 4.30915 11.1426 6.85714C11.1426 9.69727 8.83991 12 5.99979 12C3.15967 12 0.856934 9.69727 0.856934 6.85714C0.856934 4.30915 2.71059 2.19392 5.14265 1.78544V1.71429C4.66929 1.71429 4.28551 1.33092 4.28551 0.857143ZM5.99979 3.42857C4.10638 3.42857 2.57122 4.96373 2.57122 6.85714C2.57122 8.75056 4.10638 10.2857 5.99979 10.2857C7.89321 10.2857 9.42836 8.75056 9.42836 6.85714C9.42836 4.96373 7.89321 3.42857 5.99979 3.42857Z" fill="#17171E"/>
</svg>
