<svg width="30" height="30" viewBox="0 0 30 30" fill="none" xmlns="http://www.w3.org/2000/svg">
<path d="M7.91099 9.64828L12.3093 5.24998C12.526 5.03331 12.526 4.68665 12.3093 4.48082L9.99097 2.1625C9.7743 1.94583 9.42764 1.94583 9.22181 2.1625L0.316873 11.0674C-0.105624 11.4899 -0.105624 12.1724 0.316873 12.5949L9.22181 21.4999C9.43847 21.7165 9.78514 21.7165 9.99097 21.4999L12.3093 19.1815C12.4068 19.084 12.4718 18.9432 12.4718 18.7915C12.4718 18.6399 12.4176 18.5099 12.3093 18.4015C12.3093 18.4015 9.78514 15.8774 7.91099 14.0032H20.8459C23.4892 14.0032 25.6234 16.1482 25.6234 18.7807C25.6234 21.424 23.4784 23.5582 20.8459 23.5582H16.6209C16.3176 23.5582 16.0684 23.8073 16.0684 24.1107V27.3823C16.0684 27.6856 16.3176 27.9348 16.6209 27.9348H20.8459C25.905 27.9348 30 23.8398 30 18.7807C30 13.7216 25.905 9.62661 20.8459 9.62661H7.91099V9.64828Z" fill="white"/>
</svg>
