<svg width="16" height="16" viewBox="0 0 16 16" fill="none" xmlns="http://www.w3.org/2000/svg">
<path d="M15.9789 7.44802C15.9733 7.36642 15.9683 7.2847 15.9601 7.20385C15.8046 5.6286 15.1909 4.18887 14.2558 3.0166C13.9572 2.64247 13.6259 2.29587 13.2661 1.98089C12.0462 0.912812 10.5002 0.208217 8.79596 0.0398059C8.53418 0.0137646 8.26844 0 7.99997 0C7.73125 0 7.46575 0.0137646 7.20385 0.0396821C5.49939 0.208083 3.95341 0.912688 2.73374 1.98077C2.37362 2.29587 2.04264 2.64235 1.74404 3.01647C0.808908 4.18884 0.195201 5.62841 0.0398058 7.20372C0.0138884 7.46563 0 7.73112 0 7.99984C0 8.26857 0.0138887 8.53406 0.0398058 8.79596C0.195683 10.3751 0.811733 11.8181 1.75096 12.9921C2.04982 13.3657 2.38165 13.7116 2.74165 14.0262C3.96027 15.0903 5.50314 15.792 7.20382 15.9602C7.26483 15.9663 7.32646 15.9695 7.38772 15.9742C7.5901 15.9897 7.79359 16 7.99993 16C8.20628 16 8.40977 15.9897 8.61215 15.9743C8.67353 15.9696 8.73504 15.9664 8.79618 15.9603C10.4967 15.7922 12.0396 15.0904 13.2583 14.0263C13.6185 13.7118 13.9502 13.3658 14.249 12.9922C15.1881 11.8184 15.8044 10.3753 15.9602 8.79608C15.9682 8.71523 15.9733 8.63351 15.9789 8.55192C15.9913 8.36925 16 8.1856 16 7.99983C15.9999 7.81419 15.9913 7.63055 15.9789 7.44802ZM14.3561 7.20372H12.605C12.5379 6.405 12.3723 5.62835 12.1169 4.89286C12.4747 4.67771 12.814 4.43503 13.1327 4.16817C13.7827 5.0367 14.2159 6.07539 14.3561 7.20372ZM10.6606 10.4396C10.0676 10.2305 9.4436 10.0881 8.79592 10.0241V8.79621H11.003C10.9464 9.36192 10.8313 9.91315 10.6606 10.4396ZM5.10066 8.79621H7.20368V10.0241C6.59036 10.0848 5.99808 10.2162 5.43361 10.4076C5.26831 9.89084 5.15645 9.35065 5.10066 8.79621ZM5.42828 5.60831C5.99462 5.80053 6.58836 5.93272 7.20381 5.99348V7.20391H5.10066C5.1556 6.65481 5.26609 6.12021 5.42828 5.60831ZM8.79617 2.53756C9.3149 3.03606 9.75439 3.62297 10.1065 4.27017C9.68689 4.41241 9.24855 4.5131 8.79617 4.56791V2.53756ZM7.20394 2.64296V4.56805C6.78305 4.51708 6.3742 4.42693 5.98173 4.3002C6.3122 3.68551 6.72293 3.12597 7.20394 2.64296ZM7.20394 11.4498V13.3573C6.72702 12.878 6.31928 12.3234 5.9903 11.7147C6.3803 11.5895 6.78617 11.5006 7.20394 11.4498ZM8.79617 13.4612V11.4498C9.24544 11.5043 9.68083 11.6041 10.0979 11.7447C9.74756 12.3857 9.31029 12.9667 8.79617 13.4612ZM8.79617 7.20383V5.9934C9.44547 5.92916 10.0716 5.78631 10.6659 5.57636C10.8337 6.09794 10.9471 6.64342 11.0032 7.20383H8.79617ZM12.1603 3.13245C11.964 3.29291 11.7575 3.44135 11.5434 3.57863C11.2705 3.06588 10.9498 2.58398 10.588 2.14027C11.1611 2.39436 11.69 2.72991 12.1603 3.13245ZM5.57208 2.07145C5.17463 2.54814 4.82743 3.0708 4.53476 3.6286C4.29233 3.47781 4.05994 3.31239 3.83982 3.13232C4.35372 2.69258 4.93717 2.33249 5.57208 2.07145ZM2.86726 4.16815C3.21126 4.45622 3.57992 4.71503 3.96979 4.94259C3.72413 5.66318 3.56439 6.42298 3.49893 7.20373H1.64343C1.78406 6.0754 2.21708 5.03655 2.86726 4.16815ZM1.64343 8.79603H3.49906C3.56503 9.58161 3.72649 10.3462 3.97525 11.0714C3.58687 11.298 3.21868 11.5554 2.87532 11.8421C2.22095 10.9715 1.7847 9.92894 1.64343 8.79603ZM3.85026 12.8766C4.06988 12.6981 4.30102 12.5334 4.54248 12.3838C4.83377 12.9368 5.17863 13.4554 5.57259 13.9287C4.94203 13.6695 4.36178 13.3124 3.85026 12.8766ZM10.5867 13.8602C10.9457 13.4199 11.264 12.9421 11.536 12.4339C11.749 12.5701 11.9542 12.7174 12.1498 12.8766C11.6818 13.2754 11.1559 13.608 10.5867 13.8602ZM13.1246 11.842C12.8066 11.5765 12.4678 11.3352 12.1112 11.1209C12.3694 10.3811 12.5377 9.59961 12.605 8.79607H14.3564C14.2154 9.929 13.7791 10.9715 13.1246 11.842Z" fill="#7B7B7B"/>
</svg>
