<svg width="41" height="40" viewBox="0 0 41 40" fill="none" xmlns="http://www.w3.org/2000/svg">
<path d="M37.036 12.5518C32.452 7.55985 26.844 6.11985 26.612 6.06385C26.132 5.94385 25.636 6.19985 25.452 6.65585L25.34 6.93585C24.348 9.42385 23.692 11.0718 20.372 11.0718C17.3 11.0718 16.332 9.23985 15.292 6.64785C15.1 6.15985 14.556 5.91185 14.06 6.07185C13.796 6.15985 7.50799 8.27185 3.93199 12.5758C3.63599 12.9358 3.62799 13.4558 3.91599 13.8238C5.50799 15.8478 7.13199 18.2398 7.14799 18.2638C7.37999 18.6078 7.79599 18.7678 8.20399 18.6718L11.74 17.8158L12.124 20.8318L7.28399 30.8158C7.15599 31.0798 7.14799 31.3838 7.26799 31.6558C7.38799 31.9198 7.61999 32.1278 7.89999 32.2078L8.13999 32.2718C12.14 33.3998 16.26 33.9678 20.372 33.9678C24.564 33.9678 28.764 33.3838 32.844 32.2078C33.124 32.1278 33.348 31.9278 33.468 31.6638C33.588 31.3998 33.588 31.0958 33.468 30.8398L28.876 20.8638L29.268 17.8238L32.692 18.6078C33.084 18.6958 33.484 18.5438 33.716 18.2238C33.732 18.1998 35.276 16.0638 37.076 13.8638C37.388 13.4718 37.372 12.9198 37.036 12.5518ZM31.18 30.5998C24.1 32.4398 16.676 32.4398 9.59599 30.6078L13.796 21.9438C15.404 22.4638 17.892 22.7278 20.468 22.7278C22.9 22.7278 25.388 22.4958 27.244 22.0318L31.18 30.5998ZM32.5 16.5198L28.644 15.6318C28.372 15.5678 28.084 15.6238 27.852 15.7838C27.62 15.9438 27.468 16.1918 27.436 16.4718L26.98 20.0318C23.476 20.9918 16.684 20.9678 14.084 19.9438C14.06 19.9358 14.028 19.9278 14.004 19.9198L13.564 16.4638C13.532 16.1838 13.372 15.9358 13.14 15.7758C12.908 15.6158 12.62 15.5598 12.34 15.6318L8.38799 16.5918C7.88399 15.8718 6.96399 14.5598 5.97999 13.2638C8.47599 10.6238 12.164 8.95185 13.82 8.28785C14.748 10.4478 16.308 13.0558 20.372 13.0558C24.692 13.0558 25.988 10.6078 26.956 8.23985C28.492 8.77585 31.932 10.2158 34.988 13.2718C33.916 14.6158 32.996 15.8478 32.5 16.5198Z" fill="white"/>
</svg>
