<svg width="40" height="40" viewBox="0 0 40 40" fill="none" xmlns="http://www.w3.org/2000/svg">
<path d="M20.008 7.30413C22.712 7.30413 27.12 7.30413 28.136 7.41613C29.152 7.64013 30.28 7.75212 30.736 11.2561C30.848 12.3841 30.96 13.7361 31.072 15.3201C31.072 15.7681 31.52 16.2241 31.976 16.2241L31.984 16.2321H34.048C34.48 16.2321 34.824 16.5841 34.824 17.0081V21.3121C34.824 21.7441 34.472 22.0881 34.048 22.0881H32.312C31.744 22.0881 31.296 22.5361 31.296 23.1041C31.296 25.3601 31.296 27.0561 31.072 28.1841C30.504 31.7921 30.168 32.5841 27.8 32.6961C24.64 32.6961 20.016 32.6961 20.016 32.6961C20.016 32.6961 17.768 32.6961 15.336 32.6961C14.96 32.6961 14.576 32.6961 14.192 32.6961C13.424 32.6961 12.672 32.6961 12 32.6961C9.63201 32.5841 9.28801 31.7921 8.72801 28.1841C8.50401 27.0561 8.50401 25.2481 8.50401 23.1041C8.50401 22.5361 8.05601 22.0881 7.48801 22.0881H5.95201C5.52001 22.0881 5.17601 21.7361 5.17601 21.3121V17.0081C5.17601 16.5761 5.52801 16.2321 5.95201 16.2321H7.36001L7.36801 16.2241H7.81601C8.26401 16.2241 8.72001 15.7761 8.72001 15.3201C8.83201 13.9681 9.05601 11.2561 9.05601 11.2561C9.39201 7.76012 10.632 7.64813 11.88 7.41613C12.672 7.30413 17.304 7.30413 20.008 7.30413ZM20.008 5.32812C15.16 5.32812 12.384 5.35213 11.608 5.45613C11.584 5.45613 11.56 5.46413 11.536 5.47213L11.424 5.48813C9.11201 5.90413 7.48801 7.00812 7.09601 11.0561L6.83201 14.2401H5.95201C4.43201 14.2401 3.20001 15.4721 3.20001 16.9921V21.2961C3.20001 22.8161 4.43201 24.0481 5.95201 24.0481H6.52001C6.52801 25.8881 6.56001 27.3841 6.77601 28.5121C7.27201 31.7041 7.72001 34.4561 11.904 34.6561C11.936 34.6561 11.968 34.6561 12 34.6561H14.192H15.336H20.016H27.8C27.832 34.6561 27.864 34.6561 27.896 34.6561C32.072 34.4561 32.52 31.7041 33.024 28.5121C33.24 27.3841 33.272 25.9441 33.28 24.0481H34.056C35.576 24.0481 36.808 22.8161 36.808 21.2961V16.9921C36.808 15.4721 35.576 14.2401 34.056 14.2401H32.984C32.888 13.0161 32.8 11.9681 32.712 11.0481C32.712 11.0321 32.704 11.0081 32.704 10.9921C32.192 7.04813 30.728 5.94413 28.68 5.50413L28.56 5.48813C28.488 5.47213 28.416 5.46413 28.352 5.45613C27.312 5.33613 23.816 5.32812 20.008 5.32812Z" fill="white"/>
</svg>
