<svg width="81" height="82" viewBox="0 0 81 82" fill="none" xmlns="http://www.w3.org/2000/svg">
<g clip-path="url(#clip0_4274_69118)">
<path d="M18.4286 76.5166H15.8496V81.6746H18.4286V76.5166Z" fill="white"/>
<path d="M2.94911 71.3641V76.5221H0.370117V68.7852H8.10194V71.3641H2.94911ZM8.08653 79.096V81.675H0.370117V79.096H8.08653Z" fill="white"/>
<path d="M21.0176 68.7852H23.5966V73.9431H26.1756V68.7852H28.7545V76.5221H21.0227V68.7852H21.0176ZM26.1756 79.096V81.675H23.5966V79.096H26.1756Z" fill="white"/>
<path d="M36.4968 76.5221V71.3641H31.3389V68.7852H39.0707V76.5221H36.4917H36.4968ZM33.9179 73.9431V81.675H31.3389V73.9431H33.9179Z" fill="white"/>
<path d="M41.665 71.3641V68.7852H49.3969V71.3641H41.665ZM44.244 81.675V73.9431H46.823V81.675H44.244Z" fill="white"/>
<path d="M59.7223 81.6752H57.1433V76.5223H54.5643V81.6752H51.9854V73.9434H59.7223V81.6752Z" fill="white"/>
<path d="M57.1434 68.7852H54.5645V71.3642H57.1434V68.7852Z" fill="white"/>
<path d="M67.4705 76.5221V71.3641H62.3125V68.7852H70.0443V76.5221H67.4653H67.4705ZM64.8915 73.9431V81.675H62.3125V73.9431H64.8915Z" fill="white"/>
<path d="M15.8494 73.9431V71.3641H10.6914V68.7852H18.4232V73.9431H15.8442H15.8494ZM13.2755 73.9431V81.675H10.6965V73.9431H13.2755Z" fill="white"/>
<path d="M72.6328 71.3641V68.7852H80.3646V71.3641H72.6328ZM72.6328 76.5016V73.9226H80.3646V76.5016H72.6328ZM72.6328 81.675V79.096H80.3646V81.675H72.6328Z" fill="white"/>
<path d="M2.94397 76.5225H0.370117V79.0963H2.94397V76.5225Z" fill="white" fill-opacity="0.5"/>
<path d="M13.2653 71.3643H10.6914V73.9381H13.2653V71.3643Z" fill="white" fill-opacity="0.5"/>
<path d="M15.8444 73.9434H13.2705V76.5172H15.8444V73.9434Z" fill="white" fill-opacity="0.5"/>
<path d="M26.1705 76.5225H23.5967V79.0963H26.1705V76.5225Z" fill="white" fill-opacity="0.5"/>
<path d="M33.9127 71.3643H31.3389V73.9381H33.9127V71.3643Z" fill="white" fill-opacity="0.5"/>
<path d="M46.818 71.3643H44.2441V73.9381H46.818V71.3643Z" fill="white" fill-opacity="0.5"/>
<path d="M54.5592 71.3643H51.9854V73.9381H54.5592V71.3643Z" fill="white" fill-opacity="0.5"/>
<path d="M59.7233 71.3643H57.1494V73.9381H59.7233V71.3643Z" fill="white" fill-opacity="0.5"/>
<path d="M64.8864 71.3643H62.3125V73.9381H64.8864V71.3643Z" fill="white" fill-opacity="0.5"/>
<path d="M36.4918 73.9434H33.918V76.5172H36.4918V73.9434Z" fill="white" fill-opacity="0.5"/>
<path d="M67.4645 73.9434H64.8906V76.5172H67.4645V73.9434Z" fill="white" fill-opacity="0.5"/>
<path d="M75.2067 71.3643H72.6328V73.9381H75.2067V71.3643Z" fill="white" fill-opacity="0.5"/>
<path d="M75.2067 76.5225H72.6328V79.0963H75.2067V76.5225Z" fill="white" fill-opacity="0.5"/>
<path d="M55.8698 51.7645C55.4382 51.7645 55.0478 51.4923 54.8988 51.0915C54.5032 50.0332 53.6196 48.8003 52.5972 47.372C50.4036 44.3153 47.6704 40.5136 47.6448 35.7923C47.6293 33.7425 48.4205 31.8108 49.8641 30.3569C51.3077 28.903 53.2343 28.1016 55.2841 28.1016C59.5276 28.1016 62.98 31.5539 62.98 35.7974V50.7319C62.98 51.0093 62.8721 51.2714 62.6769 51.4666C62.4816 51.6618 62.2196 51.7697 61.9422 51.7697H55.8646L55.8698 51.7645Z" fill="white"/>
<path d="M19.3942 51.6565C18.824 51.6565 18.3564 51.1889 18.3564 50.6187V26.8735C18.3564 20.8062 23.2935 15.8691 29.3608 15.8691H29.4687C32.4279 15.9 35.1969 17.0816 37.257 19.2033C39.3172 21.3251 40.4268 24.125 40.3703 27.0841C40.3703 33.0333 40.3703 36.013 37.6526 39.1982C36.9745 39.9945 36.1217 40.8062 35.2226 41.6693C32.6539 44.1199 29.7461 46.8992 29.1861 50.7677C29.1142 51.2711 28.6724 51.6565 28.1587 51.6565H19.3942Z" fill="white"/>
<path d="M49.1912 29.6841C50.8147 28.0504 52.9827 27.1462 55.2894 27.1462C57.8067 27.1462 60.0723 28.2353 61.6546 29.9615C59.9644 26.4989 56.7022 23.9045 52.6179 23.1853C51.6212 23.0106 50.64 22.8359 49.7512 22.1013C48.847 21.3512 48.4771 20.4162 48.1227 19.5069C46.2269 14.6828 42.5948 10.8143 37.8992 8.62065C37.2416 8.3124 36.8049 7.67536 36.7587 6.95612C36.5429 3.7401 34.2978 1.04295 31.1743 0.236372C28.0507 -0.565066 24.7833 0.714153 23.0417 3.42671C22.6718 3.99697 22.0502 4.34118 21.3721 4.34118H19.4199C18.9267 4.34118 18.5157 4.71107 18.4643 5.20426C18.377 6.0468 18.228 7.0486 17.7451 8.0504C17.221 9.14467 16.6354 9.54025 15.8288 10.09L15.6695 10.1978C13.9485 11.3743 12.8131 13.1981 12.5049 15.2428C12.9364 15.4637 13.1573 15.9158 13.1573 16.3525C13.1573 16.7892 12.9364 17.2413 12.5049 17.4622C12.9005 20.1079 14.6575 22.3222 17.1748 23.3034C17.4265 23.401 17.6474 23.55 17.8324 23.7298C18.377 21.7211 19.4353 19.887 20.9559 18.3818C23.2421 16.1213 26.2732 14.9037 29.4841 14.9191C32.7001 14.95 35.7055 16.2343 37.9454 18.541C40.1853 20.8477 41.3875 23.8891 41.3258 27.1C41.3258 33.0697 41.3258 36.3628 38.3821 39.8151C37.6731 40.6474 36.8049 41.4796 35.8853 42.3581C34.1951 43.9713 32.3508 45.7334 31.2 47.8295C31.6315 47.8706 32.0733 47.8911 32.5152 47.8911H50.4653C50.902 47.8911 51.3335 47.8654 51.7548 47.8243C49.6074 44.8344 46.7253 40.7707 46.6945 35.7976C46.679 33.4909 47.5678 31.3229 49.1912 29.6841Z" fill="white"/>
</g>
<defs>
<clipPath id="clip0_4274_69118">
<rect width="80" height="81.6748" fill="white" transform="translate(0.370117)"/>
</clipPath>
</defs>
</svg>
