<svg width="73" height="81" viewBox="0 0 73 81" fill="none" xmlns="http://www.w3.org/2000/svg">
<path d="M36.3405 57.9735C52.0408 57.9735 64.8886 45.1257 64.8886 29.4053C64.8886 22.8417 62.8937 17.1161 59.1831 12.2682C62.6143 9.69469 64.8886 5.40544 64.8886 0.836914H36.3405C20.6397 0.836914 7.79199 13.6847 7.79199 29.4053C7.79199 45.1257 20.6397 57.9735 36.3405 57.9735ZM36.3405 13.9839C44.8987 13.9839 51.7617 20.8467 51.7617 29.4053C51.7617 37.9837 44.9187 44.8266 36.3405 44.8266C27.7619 44.8266 20.919 37.9837 20.919 29.4053C20.919 20.8268 27.7818 13.9839 36.3405 13.9839Z" fill="white"/>
<path d="M72.8881 65.6945C71.1725 61.4053 67.741 58.2731 63.1724 56.8369C55.751 63.9789 46.0556 67.6895 36.6392 67.6895C26.9235 67.6895 17.5071 63.9789 10.0857 56.8369C5.5172 58.2731 2.08581 61.4053 0.370117 65.6945C10.0857 75.6896 23.2128 80.8367 36.3399 80.8367C49.4868 80.8367 62.614 75.6896 72.8881 65.6945Z" fill="white"/>
</svg>
