<svg width="65" height="81" viewBox="0 0 65 81" fill="none" xmlns="http://www.w3.org/2000/svg">
<path d="M1.57883 74.9291C0.842381 74.3632 0.439493 73.4976 0.370117 72.3348L3.21183 70.9387C3.27053 71.5919 3.43864 72.0789 3.72148 72.3991C4.00432 72.7195 4.41792 72.8778 4.96759 72.8778C5.68803 72.8778 6.24571 72.6133 6.64062 72.0829C7.0382 71.5524 7.33437 70.7284 7.53182 69.6094L9.30358 59.5605H12.4388L10.6137 69.9151C10.2481 71.9935 9.50103 73.4893 8.37234 74.4048C7.24632 75.3201 5.93352 75.7779 4.43393 75.7779C3.26522 75.7801 2.31528 75.497 1.57883 74.9291Z" fill="white"/>
<path d="M14.205 66.757C14.8881 65.8562 15.7152 65.1614 16.6785 64.6744C17.6444 64.1877 18.637 63.9443 19.659 63.9443C20.6676 63.9443 21.5641 64.1877 22.3513 64.6744C23.1384 65.1614 23.7148 65.8562 24.0804 66.757C24.4459 67.6578 24.5286 68.696 24.3205 69.8736C24.1123 71.0511 23.6668 72.0893 22.981 72.9901C22.2979 73.891 21.4787 74.5818 20.5208 75.0602C19.5629 75.5386 18.581 75.7801 17.5724 75.7801C16.5504 75.7801 15.6405 75.5408 14.8454 75.0602C14.0502 74.5818 13.4712 73.891 13.103 72.9901C12.7347 72.0893 12.6574 71.0511 12.8655 69.8736C13.0736 68.696 13.5192 67.6578 14.205 66.757ZM16.3049 72.2598C16.6972 72.8487 17.2682 73.142 18.018 73.142C18.7677 73.142 19.4402 72.8487 20.0325 72.2598C20.6249 71.6712 21.0118 70.8763 21.1879 69.8736C21.364 68.8708 21.26 68.0719 20.8757 67.4748C20.4888 66.8797 19.9205 66.5801 19.1733 66.5801C18.4236 66.5801 17.7485 66.8776 17.1454 67.4748C16.5424 68.0698 16.1528 68.8687 15.9767 69.8736C15.8033 70.8763 15.91 71.6712 16.3049 72.2598Z" fill="white"/>
<path d="M34.5266 64.2275H37.6592L30.3694 77.0018C29.5983 78.3541 28.8031 79.3298 27.984 79.9332C27.1621 80.5365 26.2202 80.8382 25.1529 80.8382C24.6352 80.8382 24.1603 80.7611 23.7333 80.6093C23.3091 80.4575 22.9515 80.2493 22.666 79.9892L24.2617 77.6779C24.6379 77.9984 25.0862 78.1563 25.6038 78.1563C25.9347 78.1563 26.2309 78.0878 26.4923 77.9503C26.7565 77.8111 27.0233 77.5717 27.3008 77.2307C27.5784 76.8894 27.9172 76.3838 28.3255 75.7159L25.4864 64.2297H28.8591L30.4495 72.0107L34.5266 64.2275Z" fill="white"/>
<path d="M40.5571 75.5176H37.4219L40.2342 59.5625H43.3695L40.5571 75.5176Z" fill="white"/>
<path d="M51.9509 59.5625C53.4932 59.5625 54.8327 59.8744 55.9667 60.5007C57.1034 61.1269 57.9279 62.036 58.4375 63.2365C58.9472 64.4348 59.0566 65.8621 58.7631 67.5202C58.4695 69.1764 57.8558 70.6077 56.9246 71.8143C55.9907 73.0211 54.8513 73.9406 53.4985 74.5711C52.1483 75.2035 50.6941 75.5197 49.1385 75.5197H43.8633L46.6756 59.5644H51.9509V59.5625ZM49.2452 72.8151C50.9449 72.8151 52.3325 72.3573 53.3998 71.442C54.4698 70.5265 55.1555 69.2201 55.4544 67.5183C55.7505 65.8474 55.5184 64.5514 54.7686 63.6276C54.0135 62.706 52.7941 62.2441 51.1104 62.2441H49.3386L47.4735 72.8151H49.2452Z" fill="white"/>
<path d="M47.8177 23.6684C49.5441 23.6684 50.9449 22.2694 50.9449 20.5438C50.9449 18.8179 49.5441 17.4189 47.8177 17.4189C46.0913 17.4189 44.6904 18.8179 44.6904 20.5438C44.6904 22.2694 46.0913 23.6684 47.8177 23.6684Z" fill="white"/>
<path d="M26.7671 17.4189C25.2008 17.4189 23.9307 18.6888 23.9307 20.2529C23.9307 21.8171 25.2008 23.0867 26.7671 23.0867C28.3307 23.0867 29.6035 21.8171 29.6035 20.2529C29.5981 18.6888 28.3307 17.4189 26.7671 17.4189Z" fill="white"/>
<path d="M35.3147 15.0957L32.1794 29.9851C31.8886 31.3753 30.6425 32.3825 29.2229 32.3825C28.305 32.3825 27.4485 31.9711 26.8695 31.2584C26.4186 30.7015 26.1917 30.0168 26.2024 29.3145L20.543 30.776C20.7831 32.2585 21.3941 33.6737 22.3654 34.883C24.0464 36.9651 26.544 38.1602 29.2203 38.1602C33.3588 38.1602 36.9797 35.2235 37.8309 31.1767L41.2169 15.0992H35.3147V15.0957Z" fill="white"/>
<path d="M61.8424 4.51587C59.9425 2.17871 57.1248 0.837891 54.1096 0.837891H47.1374L45.918 6.61209H54.1096C55.3744 6.61209 56.5565 7.17243 57.3516 8.1549C58.1468 9.1339 58.4563 10.4069 58.1948 11.6413L56.9781 17.419H62.8857L63.8543 12.833C64.4706 9.88556 63.7395 6.8533 61.8424 4.51587Z" fill="white"/>
<path d="M53.0392 36.1388C52.1853 40.1821 48.5698 43.1151 44.4339 43.1151H38.2275L37.0107 48.8893H44.4339C51.2861 48.8893 57.2845 44.0266 58.6933 37.3267L59.7153 32.4678H53.8077L53.0392 36.1388Z" fill="white"/>
<path d="M10.4727 12.4006L9.41602 17.4229H15.321L16.1268 13.5925C16.978 9.54926 20.5962 6.616 24.7294 6.616H30.6797L31.8964 0.841799H24.7294C17.8799 0.83833 11.8815 5.70104 10.4727 12.4006Z" fill="white"/>
<path d="M11.8146 41.5683C11.0194 40.5893 10.7099 39.316 10.9687 38.0819L12.0494 32.9639L5.80023 34.5742L5.31191 36.8937C4.6902 39.8409 5.42399 42.8734 7.32382 45.2108C9.22365 47.548 12.0414 48.8888 15.0539 48.8888H21.77L22.9867 43.1146H15.0539C13.7918 43.1111 12.6097 42.5508 11.8146 41.5683Z" fill="white"/>
</svg>
