<svg width="85" height="81" viewBox="0 0 85 81" fill="none" xmlns="http://www.w3.org/2000/svg">
<g clip-path="url(#clip0_4274_66562)">
<path d="M78.8666 53.5977C81.9977 53.5977 83.6833 55.341 83.6833 57.5177C83.7128 58.2198 83.5103 58.9127 83.1054 59.4943C82.7005 60.0758 82.114 60.5158 81.4334 60.749V60.8247C82.9208 61.3029 83.9356 62.4112 83.9356 64.3109C83.9356 66.7466 82.1448 68.49 79.0316 68.49C75.919 68.49 73.7054 67.0641 73.6045 63.797H76.9793C77.0026 64.9232 77.6316 65.6789 78.9122 65.6789C79.1362 65.6961 79.3614 65.666 79.5725 65.5909C79.783 65.5152 79.9743 65.3958 80.1331 65.2407C80.2913 65.0863 80.4137 64.8998 80.4907 64.6943C80.5676 64.4887 80.5977 64.2697 80.5793 64.0518C80.5793 62.7644 79.7848 62.2641 77.9756 62.2641H77.3239V59.5066H77.9756C79.1559 59.5066 80.2943 59.2247 80.2943 57.9195C80.3159 57.7189 80.2906 57.5158 80.2223 57.3257C80.1534 57.1355 80.042 56.962 79.8962 56.8186C79.7503 56.6752 79.5743 56.565 79.3793 56.4955C79.1848 56.426 78.9768 56.3995 78.77 56.418C77.65 56.418 77.2457 57.2087 77.1817 58.0001H73.7885C73.9079 55.1484 75.8223 53.5977 78.8666 53.5977Z" fill="white"/>
<path d="M23.1283 61.3633C25.3584 61.3633 27.1048 62.0821 28.3669 63.5202C29.65 64.9584 30.2918 66.9245 30.2918 69.4181V80.4396H24.1066V70.2944C24.1066 69.2833 23.8436 68.4968 23.3177 67.9356C22.7917 67.3737 22.0765 67.0931 21.1718 67.0931C20.2672 67.0931 19.5518 67.3737 19.0259 67.9356C18.5 68.4968 18.237 69.2833 18.237 70.2944V80.4396H12.0518V70.2944C12.0518 69.2833 11.7889 68.4968 11.2629 67.9356C10.758 67.3737 10.0532 67.0931 9.14858 67.0931C8.22292 67.0931 7.49713 67.3737 6.97116 67.9356C6.44519 68.4968 6.18224 69.2833 6.18224 70.2944V80.4396H-0.00292969V61.5319H6.18224V64.0261C6.7292 63.2168 7.43399 62.5768 8.29658 62.1048C9.18015 61.6107 10.19 61.3633 11.326 61.3633C12.6304 61.3633 13.7875 61.6667 14.7973 62.2734C15.8281 62.8802 16.6381 63.7337 17.2272 64.8347C17.8583 63.8014 18.6893 62.97 19.7201 62.3405C20.751 61.6888 21.8871 61.3633 23.1283 61.3633Z" fill="white"/>
<path d="M32.6699 70.9682C32.6699 69.0131 32.9961 67.3054 33.6484 65.8451C34.3216 64.3848 35.2262 63.2611 36.3622 62.4746C37.5198 61.6882 38.8028 61.2949 40.2121 61.2949C41.4324 61.2949 42.4847 61.5534 43.3678 62.0703C44.2515 62.5872 44.9352 63.2838 45.4195 64.1602V61.5312H51.6047V80.4389H45.4195V77.81C44.9352 78.6863 44.241 79.3823 43.3364 79.8992C42.4527 80.4162 41.4115 80.6746 40.2121 80.6746C38.8028 80.6746 37.5198 80.2814 36.3622 79.4949C35.2262 78.7085 34.3216 77.5854 33.6484 76.1245C32.9961 74.6414 32.6699 72.9226 32.6699 70.9682ZM45.4195 70.9682C45.4195 69.7546 45.1038 68.7995 44.4724 68.1035C43.8625 67.4069 43.105 67.0586 42.2004 67.0586C41.2748 67.0586 40.5068 67.4069 39.897 68.1035C39.2865 68.7774 38.9819 69.7325 38.9819 70.9682C38.9819 72.1811 39.2865 73.1472 39.897 73.8666C40.5068 74.5632 41.2748 74.9115 42.2004 74.9115C43.105 74.9115 43.8625 74.5632 44.4724 73.8666C45.1038 73.17 45.4195 72.2039 45.4195 70.9682Z" fill="white"/>
<path d="M58.2536 63.1137C57.1594 63.1137 56.2757 62.7992 55.6025 62.1697C54.9502 61.5186 54.624 60.7094 54.624 59.7432C54.624 58.7549 54.9502 57.9346 55.6025 57.2829C56.2757 56.6312 57.1594 56.3057 58.2536 56.3057C59.3262 56.3057 60.1889 56.6312 60.8413 57.2829C61.5145 57.9346 61.8511 58.7549 61.8511 59.7432C61.8511 60.7094 61.5145 61.5186 60.8413 62.1697C60.1889 62.7992 59.3262 63.1137 58.2536 63.1137ZM61.3145 64.1604V80.4392H55.1293V64.1604H61.3145Z" fill="white"/>
<path d="M71.0221 57.0342V80.4391H64.8369V57.0342H71.0221Z" fill="white"/>
<path d="M33.6063 40.4399C34.4432 42.9069 35.7318 42.9069 36.1552 42.9069C37.4155 42.9069 38.3269 41.9082 38.8604 39.9106C39.0691 39.1334 39.1349 38.3193 39.0537 37.5143C38.762 34.8245 37.762 32.283 36.1737 30.1943C34.6715 32.1433 33.6826 34.4965 33.3115 37.0048C33.1386 38.1586 33.2401 39.3408 33.6063 40.4399Z" fill="white"/>
<path d="M36.1095 25.7987C41.2351 20.6258 49.3791 17.2205 58.6178 16.8111C58.8068 16.8059 58.9858 16.7201 59.1169 16.5724C59.2474 16.4247 59.3194 16.227 59.3169 16.0222V3.30967C59.3095 2.83829 59.1822 2.37841 58.9489 1.98081C58.7151 1.58315 58.3852 1.26333 57.9945 1.05662C57.6043 0.849979 57.1686 0.764439 56.736 0.809608C56.304 0.854716 55.8911 1.02875 55.5446 1.31244L36.1188 17.2904L16.684 1.37238C16.3339 1.08622 15.9172 0.911763 15.4807 0.868625C15.0442 0.825425 14.6054 0.91527 14.2134 1.12795C13.8214 1.34062 13.4918 1.66783 13.2617 2.07263C13.0317 2.47749 12.9103 2.94389 12.9111 3.41952V16.0921C12.9156 16.2964 12.9911 16.4913 13.1225 16.6377C13.254 16.784 13.4316 16.871 13.6197 16.881C22.8126 17.2604 30.9563 20.6857 36.1095 25.7987Z" fill="white"/>
<path d="M38.0416 28.0351C40.1191 30.6166 41.428 33.8191 41.796 37.2228C41.9167 38.4166 41.82 39.6246 41.5111 40.7778C40.5911 44.0431 38.6767 45.9108 36.1554 45.9108C33.809 45.9108 31.9868 44.3428 31.0114 41.4868C30.4914 39.9212 30.3425 38.2381 30.5788 36.5932C31.0428 33.408 32.3179 30.4265 34.26 27.9852C29.4748 23.222 21.7174 20.0763 12.957 19.8066L13.0214 44.7021C13.0226 45.3403 13.1399 45.9711 13.3664 46.5594C13.593 47.1483 13.9244 47.6825 14.3416 48.1311C14.7589 48.5803 15.2537 48.9354 15.7978 49.1766C16.3418 49.4178 16.9244 49.5397 17.512 49.5354H54.9277C55.516 49.5354 56.0982 49.4098 56.641 49.1655C57.1844 48.9206 57.6779 48.5625 58.0933 48.1108C58.5087 47.6591 58.8379 47.1225 59.0619 46.5329C59.2865 45.9428 59.401 45.3108 59.3997 44.6726L59.3357 19.8566C50.6397 20.0863 42.8176 23.2619 38.0416 28.0351Z" fill="white"/>
</g>
<defs>
<clipPath id="clip0_4274_66562">
<rect width="84.3077" height="80" fill="white" transform="translate(-0.00292969 0.674805)"/>
</clipPath>
</defs>
</svg>
