<svg width="122" height="81" viewBox="0 0 122 81" fill="none" xmlns="http://www.w3.org/2000/svg">
<g clip-path="url(#clip0_4274_66560)">
<path d="M38.4922 0.837891V47.3458H50.4734V22.004H59.6581L38.4922 0.837891Z" fill="white"/>
<path d="M73.3251 0.837891V26.1799H64.1406L85.3063 47.3458V0.837891H73.3251Z" fill="white"/>
<path d="M14.6763 61.7676V72.6402L0.111328 61.7676V80.3707H4.09898V69.4983L18.6637 80.3707V61.7676H14.6763Z" fill="white"/>
<path d="M22.3369 80.3707V61.7676H38.4927V65.1813H26.506V69.0887H38.4927V72.5025H26.506V76.957H38.4927V80.3707H22.3369Z" fill="white"/>
<path d="M67.5419 80.3707L59.543 61.7676H64.2057L70.0159 76.2523L75.8536 61.7676H80.3588L72.3596 80.3707H67.5419Z" fill="white"/>
<path d="M116.862 67.0044C116.559 66.1913 115.978 65.5121 115.221 65.0879C114.489 64.6984 113.473 64.5036 112.173 64.5036C110.694 64.5036 109.565 64.686 108.786 65.0507C108.004 65.4134 107.611 65.9447 107.611 66.6388C107.591 66.9238 107.648 67.209 107.774 67.4654C107.9 67.7218 108.091 67.9403 108.329 68.0986C108.807 68.4111 109.68 68.6628 110.948 68.854L114.778 69.4545C117.052 69.8177 118.719 70.4556 119.78 71.3683C120.839 72.2813 121.369 73.5366 121.37 75.1344C121.37 76.9413 120.601 78.3434 119.064 79.3407C117.527 80.3388 115.334 80.8379 112.485 80.8379C110.417 80.8379 108.701 80.595 107.339 80.1091C105.975 79.6236 104.932 78.8853 104.211 77.8942C103.49 76.9037 103.061 75.6447 102.922 74.1173H107.118C107.291 75.3346 107.804 76.2252 108.655 76.7892C109.506 77.3523 110.783 77.6343 112.485 77.6352C114.012 77.6352 115.165 77.4296 115.936 77.0216C116.71 76.6156 117.097 76.0097 117.097 75.2117C117.108 74.9154 117.042 74.6212 116.908 74.3569C116.773 74.0927 116.574 73.8669 116.328 73.7009C115.816 73.3355 115.002 73.0738 113.892 72.919L110.763 72.476C108.228 72.1291 106.374 71.4992 105.201 70.5863C104.03 69.6759 103.443 68.3947 103.442 66.743C103.425 65.6841 103.796 64.6556 104.486 63.8524C105.18 63.0355 106.191 62.4055 107.521 61.9625C109.06 61.4889 110.666 61.2647 112.277 61.2982C114.812 61.2982 116.775 61.7198 118.165 62.563C119.553 63.4041 120.465 64.7279 120.9 66.5347L116.862 67.0044Z" fill="white"/>
<path d="M101.438 71.0691C101.438 73.0309 101.008 74.7462 100.149 76.2149C99.2734 77.6977 97.9763 78.8862 96.4228 79.6289C94.8 80.4345 92.8677 80.8374 90.6257 80.8376C88.4716 80.8376 86.5917 80.4514 84.986 79.6792C83.4309 78.9541 82.1252 77.785 81.2334 76.3191C80.339 74.8509 79.8914 73.1009 79.8906 71.0691C79.8906 69.1045 80.3213 67.3893 81.1827 65.9232C82.058 64.4405 83.355 63.252 84.9084 62.5093C86.5317 61.7009 88.4641 61.2971 90.7058 61.2979C92.8569 61.2979 94.7368 61.6848 96.3455 62.4588C97.9001 63.1847 99.2056 64.3537 100.098 65.8191C100.992 67.2873 101.439 69.0373 101.438 71.0691ZM97.114 71.0691C97.114 69.0538 96.5491 67.4906 95.4193 66.3795C94.2901 65.2663 92.7012 64.7104 90.6523 64.7116C88.6211 64.7116 87.0401 65.272 85.9093 66.3928C84.7804 67.5113 84.2165 69.0701 84.2175 71.0691C84.2175 73.0843 84.7815 74.6475 85.9093 75.7587C87.0384 76.8689 88.6283 77.4248 90.6789 77.4265C92.7102 77.4265 94.2903 76.866 95.4193 75.7449C96.5482 74.6241 97.1131 73.0655 97.114 71.0691Z" fill="white"/>
<path d="M55.3849 80.3707L51.3199 73.4127H45.8749V80.3707H41.8633V61.7676H51.0076C56.2017 61.7676 58.7987 63.7044 58.7985 67.578C58.7985 68.827 58.5076 69.8689 57.9257 70.7036C57.3439 71.5388 56.4533 72.19 55.2538 72.6573L59.9434 80.3707H55.3849ZM50.6952 70.2095C52.0671 70.2095 53.0787 69.996 53.73 69.5691C54.3812 69.1446 54.7068 68.472 54.7067 67.5511C54.7067 66.6305 54.399 65.9704 53.7834 65.5708C53.1667 65.1705 52.1551 64.9712 50.7486 64.973H45.8748V70.2095H50.6952Z" fill="white"/>
</g>
<defs>
<clipPath id="clip0_4274_66560">
<rect width="121.259" height="80" fill="white" transform="translate(0.111328 0.837891)"/>
</clipPath>
</defs>
</svg>
