<svg width="79" height="81" viewBox="0 0 79 81" fill="none" xmlns="http://www.w3.org/2000/svg">
<path d="M1.33587 77.2949H7.47691C8.08873 77.2949 8.32031 76.8814 8.32031 76.4234V75.1147C8.32031 74.5711 8.00296 74.2432 7.47691 74.2432H6.16751C3.25424 74.2432 0.701172 73.3273 0.701172 69.664C0.701172 65.7822 2.91686 65.085 6.10462 65.085H11.2736V68.1367H4.921C4.37207 68.1367 4.0776 68.5296 4.0776 69.0082V70.317C4.0776 70.8399 4.33206 71.1885 4.921 71.1885H6.2304C9.14373 71.1885 11.6968 72.1043 11.6968 75.7469C11.6968 79.6495 9.48105 80.3467 6.29329 80.3467H1.33296V77.2949H1.33587Z" fill="white"/>
<path d="M22.0601 74.2422H17.1856C16.5938 74.2422 16.3422 74.5909 16.3422 75.1137V76.4225C16.3422 76.9011 16.6366 77.294 17.1856 77.294H23.7469V80.3458H18.6608C15.2844 80.3458 12.9629 79.6485 12.9629 75.7666C12.9629 74.3929 12.9629 71.0339 12.9629 69.6602C12.9629 65.7782 15.2844 65.0811 18.6608 65.0811H23.3238V68.1328H17.1827C16.6538 68.1328 16.3393 68.5257 16.3393 69.0043V70.3131C16.3393 70.836 16.5938 71.1846 17.1827 71.1846H22.0573V74.2422H22.0601Z" fill="white"/>
<path d="M33.9003 74.2422H29.0257C28.4339 74.2422 28.182 74.5909 28.182 75.1137V76.4225C28.182 76.9011 28.4765 77.294 29.0257 77.294H35.5866V80.3458H30.5005C27.1242 80.3458 24.8027 79.6485 24.8027 75.7666C24.8027 74.3929 24.8027 71.0339 24.8027 69.6602C24.8027 65.7782 27.1242 65.0811 30.5005 65.0811H35.1636V68.1328H29.0226C28.4939 68.1328 28.1792 68.5257 28.1792 69.0043V70.3131C28.1792 70.836 28.4339 71.1846 29.0226 71.1846H33.8972V74.2422H33.9003Z" fill="white"/>
<path d="M37.0674 65.085H43.6091C48.4633 65.085 49.7273 68.1367 49.7273 72.7158C49.7273 77.2949 48.4603 80.3467 43.6091 80.3467H37.0674V65.085ZM44.6641 77.2949C45.6757 77.2949 46.3535 76.6184 46.3535 75.5519V69.8827C46.3535 68.8369 45.6788 68.1397 44.6641 68.1397H40.4437V77.2979H44.6641V77.2949Z" fill="white"/>
<path d="M55.2996 65.085H58.8645L64.2252 80.3497H60.6602L59.8366 77.9951H54.33L53.5069 80.3497H49.9414L55.2996 65.085ZM58.7619 74.9404L57.0947 70.1663L55.4078 74.9404H58.7619Z" fill="white"/>
<path d="M71.7185 64.7568C76.0866 64.7568 78.9973 67.9415 78.9973 72.7156C78.9973 77.4897 76.0842 80.6744 71.7185 80.6744C67.3497 80.6744 64.4365 77.4897 64.4365 72.7156C64.4365 67.9415 67.3497 64.7568 71.7185 64.7568ZM73.9341 77.6227C74.9464 77.6227 75.621 76.9255 75.621 75.8797V69.5545C75.621 68.5087 74.9464 67.8115 73.9341 67.8115H69.5028C68.4906 67.8115 67.8159 68.5087 67.8159 69.5545V75.8797C67.8159 76.9255 68.4906 77.6227 69.5028 77.6227H73.9341Z" fill="white"/>
<path d="M78.3264 3.98563C76.3727 0.39528 70.5796 -0.289261 61.5688 2.00186C57.6076 3.00772 53.2271 4.53745 48.6305 6.50028C42.6076 4.09042 36.0369 4.20915 30.1019 6.85652C24.1059 9.53181 19.4687 14.4563 17.0554 20.7289C15.8386 23.8932 15.2641 27.2041 15.3181 30.5082C12.6818 32.7155 10.3091 34.9157 8.26766 37.0602C1.77148 43.8987 -0.614738 49.3959 1.37941 52.9653C3.37355 56.5347 9.17346 57.1494 18.1572 54.7535C25.5931 52.7697 34.4957 48.9139 43.5133 43.8008C44.1014 43.4656 44.7976 43.4096 45.4196 43.6612C46.2511 43.9964 47.0486 44.5901 47.9477 45.4702L49.5566 47.4889L48.671 45.0372C47.968 42.0335 48.3939 40.392 50.4556 38.1498L52.4092 36.4874L50.0433 37.4095C47.1365 38.1359 45.548 37.6958 43.3781 35.5654L41.7693 33.5467L42.6548 35.9985C43.0266 37.5911 43.0807 38.7994 42.7426 39.9241C42.5736 40.4829 42.1816 40.9369 41.6815 41.2163C36.8143 43.9615 31.9946 46.3225 27.4453 48.2015C24.3019 45.9242 21.7129 42.7531 20.0838 38.8414C15.3925 27.6023 20.4082 14.5611 31.2849 9.71344C25.85 12.1373 23.3421 18.6544 25.6877 24.2774C28.0333 29.8935 34.3402 32.4849 39.7819 30.061C45.2979 27.6023 51.7197 30.3056 53.9775 36.1032C56.2151 41.8449 53.2407 48.3901 47.6706 50.6742C43.5404 52.3645 39.1803 52.637 35.1244 51.694C33.6846 52.3645 32.265 53.0003 30.8724 53.5939C33.7589 54.7605 36.7738 55.3472 39.7886 55.3472C43.074 55.3472 46.3591 54.6557 49.4687 53.2657C59.8383 48.6415 65.5435 37.4374 63.982 26.4008C66.7063 24.1867 69.1532 21.9724 71.2556 19.8069C77.8329 13.0523 80.2799 7.57598 78.3264 3.98563ZM24.1396 49.5007C21.7873 50.3739 19.5228 51.1072 17.3867 51.68C8.93011 53.9362 4.94859 53.0073 4.04278 51.3796C3.13696 49.7522 4.34697 45.7218 10.4646 39.2884C12.0126 37.6609 13.7566 36.0055 15.6696 34.3291C15.9942 36.2778 16.5485 38.2058 17.3259 40.0708C18.8805 43.7868 21.2127 46.993 24.1396 49.5007ZM63.2519 22.9432C62.9749 21.9724 62.6436 21.0084 62.2447 20.0514C60.6899 16.3353 58.3579 13.1222 55.4241 10.6145C51.8617 11.9417 48.0829 13.5972 44.2028 15.539C43.2227 16.028 42.4385 16.8592 41.9992 17.8861C41.1947 19.772 41.1947 21.7419 41.8369 24.48L43.1482 28.0983L40.7756 25.1226C37.5783 21.9792 35.2325 21.3296 30.9468 22.3983L27.4453 23.7535L30.325 21.3017C33.3669 17.9978 33.9956 15.5739 32.9613 11.1454L31.6498 7.5201L34.0225 10.4958C35.8748 12.3189 37.4363 13.2968 39.2614 13.5972C40.1808 13.7438 41.1203 13.5552 41.9585 13.1361C45.5278 11.32 49.0293 9.7274 52.3822 8.40023C52.3755 8.39324 52.3686 8.39324 52.3619 8.38626C55.877 6.98923 59.2232 5.87161 62.2988 5.08929C70.7824 2.93088 74.7504 3.90879 75.6427 5.54331C76.535 7.17784 75.2776 11.1943 69.0857 17.5577C67.3687 19.3249 65.4084 21.1342 63.2519 22.9432Z" fill="white"/>
</svg>
