<svg width="106" height="38" viewBox="0 0 106 38" fill="none" xmlns="http://www.w3.org/2000/svg">
<g clip-path="url(#clip0_2618_23590)">
<path d="M26.6337 3.25V24.52L26.3337 33.88C26.3237 34.32 26.2137 34.75 26.0037 35.14C25.0037 37.02 22.8937 38.25 20.5237 37.97C17.7637 37.65 15.7537 35.21 15.7537 32.47V12.37C15.7537 11.21 14.9637 10.14 13.8037 9.92C12.2437 9.62 10.8737 10.79 10.8737 12.27V32.48C10.8737 35.2 8.89372 37.62 6.15372 37.96C2.84372 38.37 0.0137226 35.84 0.0137226 32.66V3.24C0.00372259 1.45 1.47372 0 3.29372 0H23.3237C25.1437 0 26.6237 1.46 26.6237 3.25H26.6337Z" fill="white"/>
<path d="M53.3359 30.04L52.4659 3.14C52.4059 1.39 50.9459 0 49.1759 0H31.9459C30.1559 0 28.7059 1.38 28.6559 3.14L27.9759 24.56L27.6559 34.7L27.6359 35.51C27.6159 36.16 27.8559 36.79 28.3259 37.26C28.7859 37.73 29.4059 37.99 30.0859 37.99H34.9759C35.6259 37.99 36.2459 37.74 36.7059 37.29C37.1659 36.83 37.4159 36.24 37.4159 35.59V34.9H43.7259V35.6C43.7259 36.93 44.8259 38 46.1659 38H51.0859C51.7359 38 52.3759 37.74 52.8359 37.27C53.2059 36.9 53.4359 36.43 53.4859 35.92C53.6159 35.91 53.3359 30.04 53.3359 30.04ZM42.6659 29.09C42.1059 29.65 41.3559 29.96 40.5859 29.96C39.7759 29.96 39.0459 29.65 38.4859 29.09C37.9459 28.53 37.6559 27.79 37.6759 27.01L38.3059 12.04C38.3459 10.84 39.3459 9.9 40.5759 9.9C41.8059 9.9 42.7859 10.84 42.8459 12.04L43.4659 27.01C43.4859 27.79 43.2159 28.53 42.6559 29.09H42.6659Z" fill="white"/>
<path d="M69.4715 14.75V12.31C69.4715 10.99 68.3515 9.91 67.0315 9.91C65.7115 9.91 64.5715 10.99 64.5715 12.31V30.72C64.5715 32.05 65.6715 33.13 67.0315 33.13C68.3915 33.13 69.4715 32.05 69.4715 30.72V29.12C69.4715 26.42 71.7015 24.23 74.4315 24.23C75.7815 24.23 77.0315 24.74 77.9715 25.67C78.8715 26.56 79.3915 27.75 79.4115 29V34.77C79.3715 36.62 77.9515 38.01 76.1215 38.01H57.8215C56.3615 38.01 55.1115 37.08 54.6915 35.79C54.5715 35.47 54.5215 35.12 54.5215 34.77V3.25C54.5215 1.46 56.0015 0 57.8215 0H76.1215C77.9315 0 79.3715 1.38 79.4315 3.15L79.4115 14.9C79.3515 17.52 77.1215 19.65 74.4315 19.65C71.7015 19.65 69.4715 17.45 69.4715 14.74V14.75Z" fill="white"/>
<path d="M100.792 0H83.7416C82.0116 0 80.5716 1.3 80.4516 2.95V32.66L80.4316 33.27C80.4316 35.88 82.5816 38 85.2416 38C87.9016 38 90.0516 35.88 90.0516 33.27V30.49H100.802C102.572 30.49 104.012 29.14 104.092 27.45L104.112 3.16C104.052 1.4 102.592 0.01 100.802 0.01L100.792 0ZM94.6016 23.01C94.6016 24.25 93.5816 25.26 92.3316 25.26C91.0816 25.26 90.0416 24.25 90.0416 23.01V12.14C90.0416 10.9 91.0616 9.9 92.3316 9.9C93.6016 9.9 94.6016 10.9 94.6016 12.14V23.01Z" fill="white"/>
</g>
<defs>
<clipPath id="clip0_2618_23590">
<rect width="105.5" height="38" fill="white"/>
</clipPath>
</defs>
</svg>
