<svg width="97" height="38" viewBox="0 0 97 38" fill="none" xmlns="http://www.w3.org/2000/svg">
<g clip-path="url(#clip0_2266_27204)">
<path d="M95.6036 2.16505C95.2958 1.8658 94.949 1.6207 94.5757 1.43355C94.532 1.40885 93.0253 0.5909 92.9778 0.5662C92.3527 0.2014 91.6402 0.0076 90.8992 0.0076C90.8336 0.00665 89.2376 0 89.0942 0H75.589C74.2884 0 73.118 0.60895 72.3571 1.56085C72.2849 1.5181 70.535 0.57 70.4789 0.5415C69.8614 0.18905 69.1603 0 68.4317 0H51.99C50.6752 0 49.5029 0.61845 48.7448 1.57795C48.6641 1.5295 46.8952 0.57 46.8391 0.5415C46.2216 0.18905 45.5205 0 44.7928 0H29.3506C28.2714 0 27.2492 0.41325 26.474 1.1647C26.34 1.29485 26.2165 1.43355 26.1016 1.57795C26.0132 1.52475 25.922 1.4744 25.8289 1.42785C25.7738 1.39745 24.2282 0.55765 24.1712 0.52915C23.5746 0.1938 22.8868 0 22.1543 0H4.18033C1.90128 0 0.046875 1.85345 0.046875 4.1325V30.9624C0.046875 33.2909 1.37023 35.3153 3.30443 36.3261C3.35953 36.3565 4.90613 37.1954 4.96218 37.2248C5.83808 37.7178 6.84698 38.0009 7.92143 38.0009C7.92998 38.0009 7.93853 38 7.94708 38H29.4807H33.8802H43.9179H48.3306H53.8121H70.2538H78.6508V37.9981C78.6888 37.9991 78.7268 38 78.7658 38C81.7925 38 84.2549 35.5385 84.2549 32.5128V31.8412H92.7203C94.9243 31.8412 96.7369 30.1188 96.8481 27.9205C96.849 27.9119 96.849 27.9024 96.849 27.8939V5.1205C96.849 5.0996 96.849 5.07965 96.85 5.06065C96.8509 5.0502 96.8509 5.0388 96.8509 5.0293V5.0046C96.8205 3.9254 96.3778 2.91745 95.6036 2.16505Z" fill="black"/>
<path d="M25.2175 4.00276L24.2941 33.544C24.2846 33.8423 24.3141 34.1349 24.3796 34.417C24.4005 34.5082 24.3749 34.6051 24.3112 34.6745C23.3023 35.7793 21.8498 36.4728 20.2357 36.4728C17.1929 36.4728 14.7248 34.0057 14.7248 30.9628V12.4046C14.7248 11.5306 14.0094 10.7896 13.1364 10.8067C12.2899 10.8228 11.6088 11.5135 11.6088 12.3637V30.9628C11.6088 34.0313 9.09984 36.5137 6.02279 36.4728C2.99419 36.432 0.585938 33.9078 0.585938 30.8802V4.13291C0.585938 2.14836 2.19524 0.539062 4.18074 0.539062H22.1538C23.6006 0.539062 24.8461 1.39121 25.417 2.62146C25.4474 2.68701 25.4484 2.76206 25.4256 2.83046C25.3011 3.20476 25.2308 3.59806 25.2175 4.00276Z" fill="white"/>
<path d="M47.8549 32.879V4.13196C47.8549 3.67786 47.929 3.24181 48.0639 2.83331C48.0867 2.76491 48.0857 2.68986 48.0553 2.62431C47.4844 1.39026 46.2342 0.539062 44.7921 0.539062H29.3498C27.8669 0.539062 26.5882 1.43966 26.041 2.72786C25.9821 2.86466 25.9327 3.00621 25.8909 3.15156C25.813 3.42801 25.7664 3.71871 25.7569 4.01891L25.7484 4.30676L24.8335 33.5601C24.8288 33.7017 24.8354 33.8413 24.8506 33.9781C24.8649 34.1035 24.8886 34.228 24.919 34.3486C24.9456 34.456 24.9798 34.5605 25.0197 34.6631C25.4273 35.7195 26.4523 36.4728 27.6569 36.4728H32.0564C32.8363 36.4728 33.5431 36.1565 34.0552 35.6463C34.5653 35.1343 34.8817 34.4284 34.8817 33.6485H39.2707C39.2707 35.2084 40.5342 36.4728 42.0941 36.4728H46.5068C47.32 36.4728 48.0515 36.1299 48.5674 35.5827C48.6586 35.4858 48.6662 35.3376 48.5902 35.2283C48.1266 34.5605 47.8549 33.7501 47.8549 32.879ZM37.0838 28.5669C35.9713 28.5669 35.0812 27.6435 35.1249 26.533L35.6835 12.1861C35.712 11.4337 36.3304 10.839 37.0838 10.839C37.8352 10.839 38.4537 11.4337 38.4841 12.1861L39.0417 26.533C39.0845 27.6435 38.1943 28.5669 37.0838 28.5669Z" fill="white"/>
<path d="M71.8567 33.5858C71.8994 33.6903 71.9051 33.8052 71.8728 33.9126C71.4301 35.3927 70.0574 36.4728 68.431 36.4728H51.9893C50.9709 36.4728 50.0513 36.051 49.3987 35.3708C49.3331 35.3034 49.2704 35.2321 49.2096 35.1599C49.1469 35.0839 49.0871 35.0032 49.031 34.9215C48.6301 34.342 48.3945 33.638 48.3945 32.8799V4.13196C48.3945 3.79091 48.442 3.46126 48.5313 3.14871C48.5313 3.14776 48.5313 3.14776 48.5313 3.14776C48.5731 3.00241 48.6225 2.86086 48.6805 2.72501C49.2286 1.43966 50.5026 0.539062 51.9893 0.539062H68.431C69.8579 0.539062 71.0891 1.37031 71.6695 2.57301C71.7018 2.64046 71.7037 2.71836 71.679 2.78961C71.5631 3.12686 71.489 3.48501 71.4643 3.85646V3.85741C71.4634 3.87831 71.4634 3.89826 71.4643 3.92011C71.4672 3.99041 71.4691 4.06071 71.4691 4.13291V17.5165C71.4691 17.5944 71.451 17.6714 71.414 17.7398C70.5533 19.3348 68.8661 20.4207 66.9271 20.4235C64.0923 20.4273 61.8152 18.0751 61.8152 15.2403V12.4378C61.8152 11.5638 61.0998 10.8228 60.2268 10.8399C59.3803 10.8561 58.6992 11.5467 58.6992 12.397V29.8437C58.6992 30.7177 59.4145 31.4587 60.2876 31.4416C61.134 31.4255 61.8152 30.7348 61.8152 29.8846V27.1258C61.8152 24.2995 64.1275 21.9141 66.9547 21.9331C68.3502 21.9426 69.6128 22.5116 70.5286 23.4265C70.8782 23.7761 71.1774 24.176 71.414 24.614C71.451 24.6824 71.4691 24.7593 71.4691 24.8372C71.4691 24.8372 71.4548 31.3789 71.4548 31.3903V31.5252C71.4539 32.2529 71.5964 32.9483 71.8567 33.5858Z" fill="white"/>
<path d="M90.8972 0.546662C90.8972 0.546662 89.2366 0.539062 89.0922 0.539062H75.588C74.1193 0.539062 72.8577 1.41686 72.301 2.67751C72.243 2.80671 72.1927 2.94066 72.1518 3.07841C72.0787 3.31401 72.0312 3.55911 72.0093 3.81276C72.0093 3.81276 72.0093 3.81371 72.0093 3.81466C72.0065 3.84031 72.0046 3.86691 72.0027 3.89256C72.0027 3.89256 72.0008 3.89446 72.0027 3.89636C72.0065 3.97521 72.0084 4.05406 72.0084 4.13386L71.9941 31.5262C71.9941 31.7019 72.0027 31.8758 72.0207 32.0468C72.0625 32.4448 72.1509 32.8296 72.281 33.1934C72.3409 33.3597 72.4093 33.5221 72.4862 33.6808C73.288 35.3347 74.9828 36.4747 76.9436 36.4747C79.6777 36.4747 81.8931 34.2593 81.8931 31.5262V30.3149H90.8982C92.821 30.3149 94.3923 28.8035 94.4873 26.9063V4.13291C94.4873 4.10251 94.4873 4.07211 94.4892 4.04171V4.03316C94.4331 2.09706 92.8476 0.546662 90.8972 0.546662ZM84.707 23.5604C84.707 24.3423 84.0743 24.974 83.2925 24.974C82.5125 24.974 81.8779 24.3413 81.8779 23.5604V12.2535C81.8779 11.4736 82.5125 10.8399 83.2925 10.8399C84.0743 10.8399 84.707 11.4745 84.707 12.2535V23.5604Z" fill="white"/>
</g>
<defs>
<clipPath id="clip0_2266_27204">
<rect width="96.9" height="38" fill="white"/>
</clipPath>
</defs>
</svg>
