<svg width="16" height="15" viewBox="0 0 16 15" fill="none" xmlns="http://www.w3.org/2000/svg">
<path fill-rule="evenodd" clip-rule="evenodd" d="M5.78042 0.328125C5.22814 0.328125 4.78042 0.77584 4.78042 1.32812V2.66146H10.5497V1.32812C10.5497 0.77584 10.1019 0.328125 9.54965 0.328125H5.78042ZM2.16504 3.82812C1.06047 3.82812 0.165039 4.72356 0.165039 5.82812V12.3281C0.165039 13.4327 1.06047 14.3281 2.16504 14.3281H13.165C14.2696 14.3281 15.165 13.4327 15.165 12.3281V5.82812C15.165 4.72356 14.2696 3.82812 13.165 3.82812H2.16504ZM7.66504 13.1615C9.89542 13.1615 11.7035 11.3333 11.7035 9.07812C11.7035 6.82296 9.89542 4.99479 7.66504 4.99479C5.43466 4.99479 3.62658 6.82296 3.62658 9.07812C3.62658 11.3333 5.43466 13.1615 7.66504 13.1615ZM10.5497 9.07812C10.5497 10.689 9.25817 11.9948 7.66504 11.9948C6.07191 11.9948 4.78042 10.689 4.78042 9.07812C4.78042 7.46729 6.07191 6.16146 7.66504 6.16146C9.25817 6.16146 10.5497 7.46729 10.5497 9.07812Z" fill="white" fill-opacity="0.5"/>
</svg>
