<svg width="81" height="12" viewBox="0 0 81 12" fill="none" xmlns="http://www.w3.org/2000/svg">
<path d="M24.2539 2.40041V0.000488281L9.85301 0.000488281V2.40041L24.2539 2.40041Z" fill="white"/>
<path d="M24.2552 7.20022V4.80029H14.6555C14.3373 4.80029 14.0321 4.92672 13.807 5.15175C13.582 5.37679 13.4556 5.68201 13.4556 6.00026V10.8001C13.4556 11.1184 13.582 11.4236 13.807 11.6486C14.0321 11.8736 14.3373 12.0001 14.6555 12.0001H24.2552V9.60015H16.0942C16.0306 9.5998 15.9698 9.5744 15.9248 9.52947C15.8799 9.48454 15.8545 9.4237 15.8542 9.36015V7.44021C15.8545 7.37667 15.8799 7.31583 15.9248 7.2709C15.9698 7.22597 16.0306 7.20057 16.0942 7.20022H24.2552Z" fill="white"/>
<path d="M80.3975 2.40041V0.000488281L69.5978 0.000488281V2.40041L80.3975 2.40041Z" fill="white"/>
<path d="M80.3973 7.20022V4.80029H70.7976C70.4794 4.80029 70.1742 4.92672 69.9491 5.15175C69.7241 5.37679 69.5977 5.68201 69.5977 6.00026V10.8001C69.5977 11.1184 69.7241 11.4236 69.9491 11.6486C70.1742 11.8736 70.4794 12.0001 70.7976 12.0001H80.3973V9.60015H72.2376C72.1739 9.60015 72.1129 9.57486 72.0679 9.52985C72.0229 9.48485 71.9976 9.4238 71.9976 9.36015V7.44021C71.9976 7.37656 72.0229 7.31552 72.0679 7.27051C72.1129 7.2255 72.1739 7.20022 72.2376 7.20022H80.3973Z" fill="white"/>
<path d="M9.85436 4.80034V9.07888C9.85448 9.12619 9.84062 9.17248 9.8145 9.21194C9.78839 9.25139 9.7512 9.28225 9.7076 9.30063C9.664 9.31901 9.61594 9.32409 9.56947 9.31524C9.52299 9.30639 9.48017 9.28399 9.44638 9.25087L0 0.000488281V12.0001H2.39993V5.70965L8.11442 11.3095C8.57006 11.7539 9.18186 12.0019 9.81837 12.0001C10.4644 12.0001 11.084 11.7435 11.5408 11.2867C11.9976 10.8298 12.2543 10.2102 12.2543 9.5642V4.80034H9.85436Z" fill="white"/>
<path d="M51.4213 1.23512C51.249 0.866237 50.9752 0.554138 50.6318 0.335451C50.2884 0.116765 49.8898 0.000563987 49.4826 0.000488281V0.000488281C49.0759 0.000487933 48.6775 0.116358 48.3342 0.334535C47.9909 0.552712 47.7168 0.864169 47.544 1.23245L44.0241 8.77889C44.0048 8.82019 43.9741 8.85512 43.9356 8.8796C43.8971 8.90407 43.8524 8.91707 43.8068 8.91707C43.7612 8.91707 43.7165 8.90407 43.6781 8.8796C43.6396 8.85512 43.6088 8.82019 43.5895 8.77889L39.4936 0.000488281H36.8457L41.8655 10.7655C42.0381 11.1347 42.3124 11.447 42.6563 11.6657C43.0002 11.8844 43.3993 12.0004 43.8068 12.0001C44.2136 12.0008 44.6121 11.8852 44.9553 11.667C45.2986 11.4487 45.5722 11.1368 45.7441 10.7682L49.264 3.22172C49.2836 3.18049 49.3144 3.14565 49.353 3.12126C49.3916 3.09687 49.4363 3.08392 49.482 3.08392C49.5276 3.08392 49.5723 3.09687 49.6109 3.12126C49.6495 3.14565 49.6804 3.18049 49.7 3.22172L52.6746 9.60019H49.4746V12.0001H56.4371L51.4213 1.23512Z" fill="white"/>
<path d="M36.9747 12L34.6308 6.97347C35.3786 6.69397 36.0122 6.17384 36.4321 5.49489C36.852 4.81593 37.0343 4.01667 36.9503 3.2228C36.8663 2.42893 36.5209 1.68549 35.9683 1.10939C35.4156 0.533302 34.6872 0.15724 33.8975 0.0403532C33.7249 0.0109816 33.5499 -0.00240801 33.3748 0.000354449H25.4551V2.40028H33.3748C33.6931 2.40028 33.9983 2.52671 34.2233 2.75174C34.4484 2.97678 34.5748 3.28199 34.5748 3.60024C34.5748 3.91849 34.4484 4.22371 34.2233 4.44875C33.9983 4.67378 33.6931 4.80021 33.3748 4.80021H26.655C26.3368 4.80021 26.0316 4.92663 25.8065 5.15167C25.5815 5.37671 25.4551 5.68192 25.4551 6.00017V12H27.855V7.20013H32.0882L34.3268 12H36.9747Z" fill="white"/>
<path d="M65.8474 0.045837C65.6771 0.0150843 65.5044 -8.91167e-05 65.3314 0.000505076H57.4116V2.40043H65.3314C65.6496 2.40043 65.9548 2.52686 66.1799 2.75189C66.4049 2.97693 66.5313 3.28214 66.5313 3.60039C66.5313 3.91864 66.4049 4.22386 66.1799 4.4489C65.9548 4.67393 65.6496 4.80036 65.3314 4.80036H58.6116C58.2933 4.80036 57.9881 4.92678 57.7631 5.15182C57.538 5.37686 57.4116 5.68207 57.4116 6.00032V12.0001H59.8115V7.20028H65.3314C65.39 7.20028 65.4474 7.20028 65.502 7.20028H65.526C65.5594 7.20028 65.594 7.20028 65.626 7.19228C66.5042 7.11582 67.3238 6.71982 67.9294 6.07935C68.5351 5.43888 68.8847 4.59846 68.9119 3.7174C68.9392 2.83634 68.6423 1.97589 68.0775 1.29917C67.5126 0.62245 66.7191 0.176491 65.8474 0.045837Z" fill="white"/>
</svg>
