<svg width="13" height="14" viewBox="0 0 13 14" fill="none" xmlns="http://www.w3.org/2000/svg">
<mask id="mask0_233_5943" style="mask-type:alpha" maskUnits="userSpaceOnUse" x="0" y="0" width="13" height="14">
<path d="M5.68956 11.2584L5.95591 11.3312C6.40269 11.4384 6.86256 11.4757 7.31816 11.4432L7.50097 13.9821L7.13218 13.9987C6.39395 14.0127 5.65356 13.9105 4.94074 13.6918L5.68956 11.2584ZM9.8092 10.4576L11.4145 12.4334L11.1152 12.664C10.5072 13.1069 9.84318 13.44 9.15088 13.6628L8.36799 11.2402L8.62294 11.1495C9.04403 10.9851 9.44485 10.7544 9.8092 10.4576ZM3.48437 9.73647L3.61616 9.89746C3.7069 10.0032 3.80339 10.1056 3.90562 10.2043C4.15549 10.4456 4.42631 10.6519 4.71199 10.8232L3.40517 13.0082L3.13856 12.8401C2.78703 12.6071 2.45167 12.3389 2.1374 12.0354C1.89635 11.8026 1.67562 11.5567 1.47524 11.2999L3.48437 9.73647ZM1.96463 2.1374C4.65017 -0.643564 9.08164 -0.720916 11.8626 1.96463L12.7503 1.04535L12.8299 4.65781L9.21685 4.70439L10.0944 3.79567L9.92546 3.6406C8.14952 2.09145 5.45125 2.19122 3.79567 3.90562C2.49484 5.25267 2.21269 7.20826 2.93257 8.8192L0.608913 9.86006L0.500966 9.60513C-0.491749 7.12447 -0.0117388 4.18398 1.96463 2.1374Z" fill="white"/>
</mask>
<g mask="url(#mask0_233_5943)">
<path d="M5.68956 11.2584L5.95591 11.3312C6.40269 11.4384 6.86256 11.4757 7.31816 11.4432L7.50097 13.9821L7.13218 13.9987C6.39395 14.0127 5.65356 13.9105 4.94074 13.6918L5.68956 11.2584ZM9.8092 10.4576L11.4145 12.4334L11.1152 12.664C10.5072 13.1069 9.84318 13.44 9.15088 13.6628L8.36799 11.2402L8.62294 11.1495C9.04403 10.9851 9.44485 10.7544 9.8092 10.4576ZM3.48437 9.73647L3.61616 9.89746C3.7069 10.0032 3.80339 10.1056 3.90562 10.2043C4.15549 10.4456 4.42631 10.6519 4.71199 10.8232L3.40517 13.0082L3.13856 12.8401C2.78703 12.6071 2.45167 12.3389 2.1374 12.0354C1.89635 11.8026 1.67562 11.5567 1.47524 11.2999L3.48437 9.73647ZM1.96463 2.1374C4.65017 -0.643564 9.08164 -0.720916 11.8626 1.96463L12.7503 1.04535L12.8299 4.65781L9.21685 4.70439L10.0944 3.79567L9.92546 3.6406C8.14952 2.09145 5.45125 2.19122 3.79567 3.90562C2.49484 5.25267 2.21269 7.20826 2.93257 8.8192L0.608913 9.86006L0.500966 9.60513C-0.491749 7.12447 -0.0117388 4.18398 1.96463 2.1374Z" fill="#A9B0BB"/>
</g>
</svg>
